ISO-10303-21;
HEADER;
FILE_DESCRIPTION(('Open CASCADE Model'),'2;1');
FILE_NAME('tank_cover','1970-01-01T00:00:00',('Author'),('Open CASCADE')
  ,'Open CASCADE STEP processor 7.9','cadgen','Unknown');
FILE_SCHEMA(('AUTOMOTIVE_DESIGN { 1 0 10303 214 1 1 1 1 }'));
ENDSEC;
DATA;
#1 = APPLICATION_PROTOCOL_DEFINITION('international standard',
  'automotive_design',2000,#2);
#2 = APPLICATION_CONTEXT(
  'core data for automotive mechanical design processes');
#3 = SHAPE_DEFINITION_REPRESENTATION(#4,#10);
#4 = PRODUCT_DEFINITION_SHAPE('','',#5);
#5 = PRODUCT_DEFINITION('design','',#6,#9);
#6 = PRODUCT_DEFINITION_FORMATION('','',#7);
#7 = PRODUCT('=>[0:1:1:2]','=>[0:1:1:2]','',(#8));
#8 = PRODUCT_CONTEXT('',#2,'mechanical');
#9 = PRODUCT_DEFINITION_CONTEXT('part definition',#2,'design');
#10 = SHAPE_REPRESENTATION('',(#11,#15),#19);
#11 = AXIS2_PLACEMENT_3D('',#12,#13,#14);
#12 = CARTESIAN_POINT('',(0.,0.,0.));
#13 = DIRECTION('',(0.,0.,1.));
#14 = DIRECTION('',(1.,0.,-0.));
#15 = AXIS2_PLACEMENT_3D('',#16,#17,#18);
#16 = CARTESIAN_POINT('',(0.,0.,-48.9999999));
#17 = DIRECTION('',(0.,0.,1.));
#18 = DIRECTION('',(1.,0.,0.));
#19 = ( GEOMETRIC_REPRESENTATION_CONTEXT(3) 
GLOBAL_UNCERTAINTY_ASSIGNED_CONTEXT((#23)) GLOBAL_UNIT_ASSIGNED_CONTEXT(
(#20,#21,#22)) REPRESENTATION_CONTEXT('Context #1',
  '3D Context with UNIT and UNCERTAINTY') );
#20 = ( LENGTH_UNIT() NAMED_UNIT(*) SI_UNIT(.MILLI.,.METRE.) );
#21 = ( NAMED_UNIT(*) PLANE_ANGLE_UNIT() SI_UNIT($,.RADIAN.) );
#22 = ( NAMED_UNIT(*) SI_UNIT($,.STERADIAN.) SOLID_ANGLE_UNIT() );
#23 = UNCERTAINTY_MEASURE_WITH_UNIT(LENGTH_MEASURE(1.E-07),#20,
  'distance_accuracy_value','confusion accuracy');
#24 = PRODUCT_RELATED_PRODUCT_CATEGORY('part',$,(#7));
#25 = SHAPE_DEFINITION_REPRESENTATION(#26,#32);
#26 = PRODUCT_DEFINITION_SHAPE('','',#27);
#27 = PRODUCT_DEFINITION('design','',#28,#31);
#28 = PRODUCT_DEFINITION_FORMATION('','',#29);
#29 = PRODUCT('tank_cover','tank_cover','',(#30));
#30 = PRODUCT_CONTEXT('',#2,'mechanical');
#31 = PRODUCT_DEFINITION_CONTEXT('part definition',#2,'design');
#32 = ADVANCED_BREP_SHAPE_REPRESENTATION('',(#11,#33),#736);
#33 = MANIFOLD_SOLID_BREP('',#34);
#34 = CLOSED_SHELL('',(#35,#174,#240,#320,#375,#430,#510,#514,#518,#598,
    #678,#732));
#35 = ADVANCED_FACE('',(#36),#49,.T.);
#36 = FACE_BOUND('',#37,.T.);
#37 = EDGE_LOOP('',(#38,#98,#120,#173));
#38 = ORIENTED_EDGE('',*,*,#39,.T.);
#39 = EDGE_CURVE('',#40,#40,#42,.T.);
#40 = VERTEX_POINT('',#41);
#41 = CARTESIAN_POINT('',(29.,0.,49.));
#42 = SURFACE_CURVE('',#43,(#48,#86),.PCURVE_S1.);
#43 = ELLIPSE('',#44,24.,14.);
#44 = AXIS2_PLACEMENT_3D('',#45,#46,#47);
#45 = CARTESIAN_POINT('',(5.,0.,49.));
#46 = DIRECTION('',(0.,0.,1.));
#47 = DIRECTION('',(1.,0.,0.));
#48 = PCURVE('',#49,#80);
#49 = B_SPLINE_SURFACE_WITH_KNOTS('',14,1,(
    (#50,#51)
    ,(#52,#53)
    ,(#54,#55)
    ,(#56,#57)
    ,(#58,#59)
    ,(#60,#61)
    ,(#62,#63)
    ,(#64,#65)
    ,(#66,#67)
    ,(#68,#69)
    ,(#70,#71)
    ,(#72,#73)
    ,(#74,#75)
    ,(#76,#77)
    ,(#78,#79
    )),.UNSPECIFIED.,.T.,.F.,.F.,(15,15),(2,2),(0.,6.28318530718),(0.,1.
    ),.PIECEWISE_BEZIER_KNOTS.);
#50 = CARTESIAN_POINT('',(29.,-5.366639183626E-15,49.));
#51 = CARTESIAN_POINT('',(29.,-5.366639183626E-15,50.));
#52 = CARTESIAN_POINT('',(29.000000000003,6.283185307183,49.));
#53 = CARTESIAN_POINT('',(29.000000000003,6.283185307183,50.));
#54 = CARTESIAN_POINT('',(23.794055331205,12.56637293363,49.000000000001
    ));
#55 = CARTESIAN_POINT('',(23.794055331205,12.56637293363,50.000000000006
    ));
#56 = CARTESIAN_POINT('',(13.382159338342,17.259470852012,
    48.999999999982));
#57 = CARTESIAN_POINT('',(13.382159338342,17.259470852012,49.99999999997
    ));
#58 = CARTESIAN_POINT('',(-0.6786547537,18.772566341589,49.000000000071)
  );
#59 = CARTESIAN_POINT('',(-0.6786547537,18.772566341589,50.000000000095)
  );
#60 = CARTESIAN_POINT('',(-15.27461584973,16.085676054103,
    48.999999999827));
#61 = CARTESIAN_POINT('',(-15.27461584973,16.085676054103,
    49.999999999794));
#62 = CARTESIAN_POINT('',(-26.41700083971,9.322393433751,49.0000000003)
  );
#63 = CARTESIAN_POINT('',(-26.41700083971,9.322393433751,50.000000000332
    ));
#64 = CARTESIAN_POINT('',(-30.61188644928,1.324170940971E-10,
    48.999999999608));
#65 = CARTESIAN_POINT('',(-30.61188644928,1.324170940971E-10,
    49.999999999588));
#66 = CARTESIAN_POINT('',(-26.41700083969,-9.322393433995,49.0000000004)
  );
#67 = CARTESIAN_POINT('',(-26.41700083969,-9.322393433995,
    50.000000000404));
#68 = CARTESIAN_POINT('',(-15.27461584975,-16.08567605391,
    48.999999999676));
#69 = CARTESIAN_POINT('',(-15.27461584975,-16.08567605391,
    49.999999999683));
#70 = CARTESIAN_POINT('',(-0.678654753686,-18.7725663417,49.000000000208
    ));
#71 = CARTESIAN_POINT('',(-0.678654753686,-18.7725663417,50.0000000002)
  );
#72 = CARTESIAN_POINT('',(13.382159338334,-17.25947085195,
    48.999999999896));
#73 = CARTESIAN_POINT('',(13.382159338334,-17.25947085195,
    49.999999999902));
#74 = CARTESIAN_POINT('',(23.794055331208,-12.56637293365,
    49.000000000038));
#75 = CARTESIAN_POINT('',(23.794055331208,-12.56637293365,
    50.000000000035));
#76 = CARTESIAN_POINT('',(29.000000000002,-6.283185307178,
    48.999999999992));
#77 = CARTESIAN_POINT('',(29.000000000002,-6.283185307178,
    49.999999999992));
#78 = CARTESIAN_POINT('',(29.,-5.366639312664E-15,49.));
#79 = CARTESIAN_POINT('',(29.,-5.366639312664E-15,50.));
#80 = DEFINITIONAL_REPRESENTATION('',(#81),#85);
#81 = LINE('',#82,#83);
#82 = CARTESIAN_POINT('',(0.,0.));
#83 = VECTOR('',#84,1.);
#84 = DIRECTION('',(1.,0.));
#85 = ( GEOMETRIC_REPRESENTATION_CONTEXT(2) 
PARAMETRIC_REPRESENTATION_CONTEXT() REPRESENTATION_CONTEXT('2D SPACE',''
  ) );
#86 = PCURVE('',#87,#92);
#87 = PLANE('',#88);
#88 = AXIS2_PLACEMENT_3D('',#89,#90,#91);
#89 = CARTESIAN_POINT('',(5.,0.,49.));
#90 = DIRECTION('',(0.,0.,1.));
#91 = DIRECTION('',(1.,0.,0.));
#92 = DEFINITIONAL_REPRESENTATION('',(#93),#97);
#93 = ELLIPSE('',#94,24.,14.);
#94 = AXIS2_PLACEMENT_2D('',#95,#96);
#95 = CARTESIAN_POINT('',(0.,0.));
#96 = DIRECTION('',(1.,0.));
#97 = ( GEOMETRIC_REPRESENTATION_CONTEXT(2) 
PARAMETRIC_REPRESENTATION_CONTEXT() REPRESENTATION_CONTEXT('2D SPACE',''
  ) );
#98 = ORIENTED_EDGE('',*,*,#99,.T.);
#99 = EDGE_CURVE('',#40,#100,#102,.T.);
#100 = VERTEX_POINT('',#101);
#101 = CARTESIAN_POINT('',(29.,0.,50.));
#102 = SEAM_CURVE('',#103,(#106,#113),.PCURVE_S1.);
#103 = B_SPLINE_CURVE_WITH_KNOTS('',1,(#104,#105),.UNSPECIFIED.,.F.,.F.,
  (2,2),(0.,1.),.PIECEWISE_BEZIER_KNOTS.);
#104 = CARTESIAN_POINT('',(29.,-5.366639183626E-15,49.));
#105 = CARTESIAN_POINT('',(29.,-5.366639183626E-15,50.));
#106 = PCURVE('',#49,#107);
#107 = DEFINITIONAL_REPRESENTATION('',(#108),#112);
#108 = LINE('',#109,#110);
#109 = CARTESIAN_POINT('',(6.28318530718,0.));
#110 = VECTOR('',#111,1.);
#111 = DIRECTION('',(0.,1.));
#112 = ( GEOMETRIC_REPRESENTATION_CONTEXT(2) 
PARAMETRIC_REPRESENTATION_CONTEXT() REPRESENTATION_CONTEXT('2D SPACE',''
  ) );
#113 = PCURVE('',#49,#114);
#114 = DEFINITIONAL_REPRESENTATION('',(#115),#119);
#115 = LINE('',#116,#117);
#116 = CARTESIAN_POINT('',(0.,0.));
#117 = VECTOR('',#118,1.);
#118 = DIRECTION('',(0.,1.));
#119 = ( GEOMETRIC_REPRESENTATION_CONTEXT(2) 
PARAMETRIC_REPRESENTATION_CONTEXT() REPRESENTATION_CONTEXT('2D SPACE',''
  ) );
#120 = ORIENTED_EDGE('',*,*,#121,.F.);
#121 = EDGE_CURVE('',#100,#100,#122,.T.);
#122 = SURFACE_CURVE('',#123,(#128,#135),.PCURVE_S1.);
#123 = ELLIPSE('',#124,24.,14.);
#124 = AXIS2_PLACEMENT_3D('',#125,#126,#127);
#125 = CARTESIAN_POINT('',(5.,0.,50.));
#126 = DIRECTION('',(0.,0.,1.));
#127 = DIRECTION('',(1.,0.,0.));
#128 = PCURVE('',#49,#129);
#129 = DEFINITIONAL_REPRESENTATION('',(#130),#134);
#130 = LINE('',#131,#132);
#131 = CARTESIAN_POINT('',(0.,1.));
#132 = VECTOR('',#133,1.);
#133 = DIRECTION('',(1.,0.));
#134 = ( GEOMETRIC_REPRESENTATION_CONTEXT(2) 
PARAMETRIC_REPRESENTATION_CONTEXT() REPRESENTATION_CONTEXT('2D SPACE',''
  ) );
#135 = PCURVE('',#136,#167);
#136 = B_SPLINE_SURFACE_WITH_KNOTS('',14,1,(
    (#137,#138)
    ,(#139,#140)
    ,(#141,#142)
    ,(#143,#144)
    ,(#145,#146)
    ,(#147,#148)
    ,(#149,#150)
    ,(#151,#152)
    ,(#153,#154)
    ,(#155,#156)
    ,(#157,#158)
    ,(#159,#160)
    ,(#161,#162)
    ,(#163,#164)
    ,(#165,#166
    )),.UNSPECIFIED.,.T.,.F.,.F.,(15,15),(2,2),(0.,6.28318530718),(0.,1.
    ),.PIECEWISE_BEZIER_KNOTS.);
#137 = CARTESIAN_POINT('',(29.,-5.366639183626E-15,50.));
#138 = CARTESIAN_POINT('',(29.,-5.366639183626E-15,52.));
#139 = CARTESIAN_POINT('',(29.000000000003,6.283185307183,50.));
#140 = CARTESIAN_POINT('',(29.000000000003,6.283185307183,
    52.000000000001));
#141 = CARTESIAN_POINT('',(23.794055331205,12.56637293363,
    50.000000000006));
#142 = CARTESIAN_POINT('',(23.794055331205,12.56637293363,
    52.000000000002));
#143 = CARTESIAN_POINT('',(13.382159338342,17.259470852012,
    49.99999999997));
#144 = CARTESIAN_POINT('',(13.382159338342,17.259470852012,
    51.999999999978));
#145 = CARTESIAN_POINT('',(-0.6786547537,18.772566341589,50.000000000095
    ));
#146 = CARTESIAN_POINT('',(-0.6786547537,18.772566341589,52.000000000091
    ));
#147 = CARTESIAN_POINT('',(-15.27461584973,16.085676054103,
    49.999999999794));
#148 = CARTESIAN_POINT('',(-15.27461584973,16.085676054103,
    51.999999999776));
#149 = CARTESIAN_POINT('',(-26.41700083971,9.322393433751,
    50.000000000332));
#150 = CARTESIAN_POINT('',(-26.41700083971,9.322393433751,
    52.000000000394));
#151 = CARTESIAN_POINT('',(-30.61188644928,1.324170940971E-10,
    49.999999999588));
#152 = CARTESIAN_POINT('',(-30.61188644928,1.324170940971E-10,
    51.999999999477));
#153 = CARTESIAN_POINT('',(-26.41700083969,-9.322393433995,
    50.000000000404));
#154 = CARTESIAN_POINT('',(-26.41700083969,-9.322393433995,
    52.000000000542));
#155 = CARTESIAN_POINT('',(-15.27461584975,-16.08567605391,
    49.999999999683));
#156 = CARTESIAN_POINT('',(-15.27461584975,-16.08567605391,
    51.999999999554));
#157 = CARTESIAN_POINT('',(-0.678654753686,-18.7725663417,50.0000000002)
  );
#158 = CARTESIAN_POINT('',(-0.678654753686,-18.7725663417,
    52.000000000291));
#159 = CARTESIAN_POINT('',(13.382159338334,-17.25947085195,
    49.999999999902));
#160 = CARTESIAN_POINT('',(13.382159338334,-17.25947085195,
    51.999999999853));
#161 = CARTESIAN_POINT('',(23.794055331208,-12.56637293365,
    50.000000000035));
#162 = CARTESIAN_POINT('',(23.794055331208,-12.56637293365,
    52.000000000055));
#163 = CARTESIAN_POINT('',(29.000000000002,-6.283185307178,
    49.999999999992));
#164 = CARTESIAN_POINT('',(29.000000000002,-6.283185307178,
    51.999999999988));
#165 = CARTESIAN_POINT('',(29.,-5.366639312664E-15,50.));
#166 = CARTESIAN_POINT('',(29.,-5.366639312664E-15,52.));
#167 = DEFINITIONAL_REPRESENTATION('',(#168),#172);
#168 = LINE('',#169,#170);
#169 = CARTESIAN_POINT('',(0.,0.));
#170 = VECTOR('',#171,1.);
#171 = DIRECTION('',(1.,0.));
#172 = ( GEOMETRIC_REPRESENTATION_CONTEXT(2) 
PARAMETRIC_REPRESENTATION_CONTEXT() REPRESENTATION_CONTEXT('2D SPACE',''
  ) );
#173 = ORIENTED_EDGE('',*,*,#99,.F.);
#174 = ADVANCED_FACE('',(#175,#178,#209),#87,.F.);
#175 = FACE_BOUND('',#176,.F.);
#176 = EDGE_LOOP('',(#177));
#177 = ORIENTED_EDGE('',*,*,#39,.T.);
#178 = FACE_BOUND('',#179,.F.);
#179 = EDGE_LOOP('',(#180));
#180 = ORIENTED_EDGE('',*,*,#181,.F.);
#181 = EDGE_CURVE('',#182,#182,#184,.T.);
#182 = VERTEX_POINT('',#183);
#183 = CARTESIAN_POINT('',(1.7,-4.163799117101E-16,49.));
#184 = SURFACE_CURVE('',#185,(#190,#197),.PCURVE_S1.);
#185 = CIRCLE('',#186,1.7);
#186 = AXIS2_PLACEMENT_3D('',#187,#188,#189);
#187 = CARTESIAN_POINT('',(0.,0.,49.));
#188 = DIRECTION('',(0.,0.,1.));
#189 = DIRECTION('',(1.,0.,-0.));
#190 = PCURVE('',#87,#191);
#191 = DEFINITIONAL_REPRESENTATION('',(#192),#196);
#192 = CIRCLE('',#193,1.7);
#193 = AXIS2_PLACEMENT_2D('',#194,#195);
#194 = CARTESIAN_POINT('',(-5.,0.));
#195 = DIRECTION('',(1.,0.));
#196 = ( GEOMETRIC_REPRESENTATION_CONTEXT(2) 
PARAMETRIC_REPRESENTATION_CONTEXT() REPRESENTATION_CONTEXT('2D SPACE',''
  ) );
#197 = PCURVE('',#198,#203);
#198 = CYLINDRICAL_SURFACE('',#199,1.7);
#199 = AXIS2_PLACEMENT_3D('',#200,#201,#202);
#200 = CARTESIAN_POINT('',(0.,0.,48.9));
#201 = DIRECTION('',(0.,0.,1.));
#202 = DIRECTION('',(1.,0.,-0.));
#203 = DEFINITIONAL_REPRESENTATION('',(#204),#208);
#204 = LINE('',#205,#206);
#205 = CARTESIAN_POINT('',(0.,0.1));
#206 = VECTOR('',#207,1.);
#207 = DIRECTION('',(1.,0.));
#208 = ( GEOMETRIC_REPRESENTATION_CONTEXT(2) 
PARAMETRIC_REPRESENTATION_CONTEXT() REPRESENTATION_CONTEXT('2D SPACE',''
  ) );
#209 = FACE_BOUND('',#210,.F.);
#210 = EDGE_LOOP('',(#211));
#211 = ORIENTED_EDGE('',*,*,#212,.F.);
#212 = EDGE_CURVE('',#213,#213,#215,.T.);
#213 = VERTEX_POINT('',#214);
#214 = CARTESIAN_POINT('',(19.7,-4.163799117101E-16,49.));
#215 = SURFACE_CURVE('',#216,(#221,#228),.PCURVE_S1.);
#216 = CIRCLE('',#217,1.7);
#217 = AXIS2_PLACEMENT_3D('',#218,#219,#220);
#218 = CARTESIAN_POINT('',(18.,0.,49.));
#219 = DIRECTION('',(0.,0.,1.));
#220 = DIRECTION('',(1.,0.,-0.));
#221 = PCURVE('',#87,#222);
#222 = DEFINITIONAL_REPRESENTATION('',(#223),#227);
#223 = CIRCLE('',#224,1.7);
#224 = AXIS2_PLACEMENT_2D('',#225,#226);
#225 = CARTESIAN_POINT('',(13.,0.));
#226 = DIRECTION('',(1.,0.));
#227 = ( GEOMETRIC_REPRESENTATION_CONTEXT(2) 
PARAMETRIC_REPRESENTATION_CONTEXT() REPRESENTATION_CONTEXT('2D SPACE',''
  ) );
#228 = PCURVE('',#229,#234);
#229 = CYLINDRICAL_SURFACE('',#230,1.7);
#230 = AXIS2_PLACEMENT_3D('',#231,#232,#233);
#231 = CARTESIAN_POINT('',(18.,0.,48.9));
#232 = DIRECTION('',(0.,0.,1.));
#233 = DIRECTION('',(1.,0.,-0.));
#234 = DEFINITIONAL_REPRESENTATION('',(#235),#239);
#235 = LINE('',#236,#237);
#236 = CARTESIAN_POINT('',(0.,0.1));
#237 = VECTOR('',#238,1.);
#238 = DIRECTION('',(1.,0.));
#239 = ( GEOMETRIC_REPRESENTATION_CONTEXT(2) 
PARAMETRIC_REPRESENTATION_CONTEXT() REPRESENTATION_CONTEXT('2D SPACE',''
  ) );
#240 = ADVANCED_FACE('',(#241),#136,.T.);
#241 = FACE_BOUND('',#242,.T.);
#242 = EDGE_LOOP('',(#243,#244,#266,#319));
#243 = ORIENTED_EDGE('',*,*,#121,.T.);
#244 = ORIENTED_EDGE('',*,*,#245,.T.);
#245 = EDGE_CURVE('',#100,#246,#248,.T.);
#246 = VERTEX_POINT('',#247);
#247 = CARTESIAN_POINT('',(29.,0.,52.));
#248 = SEAM_CURVE('',#249,(#252,#259),.PCURVE_S1.);
#249 = B_SPLINE_CURVE_WITH_KNOTS('',1,(#250,#251),.UNSPECIFIED.,.F.,.F.,
  (2,2),(0.,1.),.PIECEWISE_BEZIER_KNOTS.);
#250 = CARTESIAN_POINT('',(29.,-5.366639183626E-15,50.));
#251 = CARTESIAN_POINT('',(29.,-5.366639183626E-15,52.));
#252 = PCURVE('',#136,#253);
#253 = DEFINITIONAL_REPRESENTATION('',(#254),#258);
#254 = LINE('',#255,#256);
#255 = CARTESIAN_POINT('',(6.28318530718,0.));
#256 = VECTOR('',#257,1.);
#257 = DIRECTION('',(0.,1.));
#258 = ( GEOMETRIC_REPRESENTATION_CONTEXT(2) 
PARAMETRIC_REPRESENTATION_CONTEXT() REPRESENTATION_CONTEXT('2D SPACE',''
  ) );
#259 = PCURVE('',#136,#260);
#260 = DEFINITIONAL_REPRESENTATION('',(#261),#265);
#261 = LINE('',#262,#263);
#262 = CARTESIAN_POINT('',(0.,0.));
#263 = VECTOR('',#264,1.);
#264 = DIRECTION('',(0.,1.));
#265 = ( GEOMETRIC_REPRESENTATION_CONTEXT(2) 
PARAMETRIC_REPRESENTATION_CONTEXT() REPRESENTATION_CONTEXT('2D SPACE',''
  ) );
#266 = ORIENTED_EDGE('',*,*,#267,.F.);
#267 = EDGE_CURVE('',#246,#246,#268,.T.);
#268 = SURFACE_CURVE('',#269,(#274,#281),.PCURVE_S1.);
#269 = ELLIPSE('',#270,24.,14.);
#270 = AXIS2_PLACEMENT_3D('',#271,#272,#273);
#271 = CARTESIAN_POINT('',(5.,0.,52.));
#272 = DIRECTION('',(0.,0.,1.));
#273 = DIRECTION('',(1.,0.,0.));
#274 = PCURVE('',#136,#275);
#275 = DEFINITIONAL_REPRESENTATION('',(#276),#280);
#276 = LINE('',#277,#278);
#277 = CARTESIAN_POINT('',(0.,1.));
#278 = VECTOR('',#279,1.);
#279 = DIRECTION('',(1.,0.));
#280 = ( GEOMETRIC_REPRESENTATION_CONTEXT(2) 
PARAMETRIC_REPRESENTATION_CONTEXT() REPRESENTATION_CONTEXT('2D SPACE',''
  ) );
#281 = PCURVE('',#282,#313);
#282 = B_SPLINE_SURFACE_WITH_KNOTS('',14,1,(
    (#283,#284)
    ,(#285,#286)
    ,(#287,#288)
    ,(#289,#290)
    ,(#291,#292)
    ,(#293,#294)
    ,(#295,#296)
    ,(#297,#298)
    ,(#299,#300)
    ,(#301,#302)
    ,(#303,#304)
    ,(#305,#306)
    ,(#307,#308)
    ,(#309,#310)
    ,(#311,#312
    )),.UNSPECIFIED.,.T.,.F.,.F.,(15,15),(2,2),(0.,6.28318530718),(0.,1.
    ),.PIECEWISE_BEZIER_KNOTS.);
#283 = CARTESIAN_POINT('',(29.,-5.366639183626E-15,52.));
#284 = CARTESIAN_POINT('',(26.,-1.234841899059E-14,58.));
#285 = CARTESIAN_POINT('',(29.000000000003,6.283185307183,
    52.000000000001));
#286 = CARTESIAN_POINT('',(26.000000000002,5.834386356671,
    58.000000000006));
#287 = CARTESIAN_POINT('',(23.794055331205,12.56637293363,
    52.000000000002));
#288 = CARTESIAN_POINT('',(21.227884053606,11.668774866939,
    57.999999999978));
#289 = CARTESIAN_POINT('',(13.382159338342,17.259470852012,
    51.999999999978));
#290 = CARTESIAN_POINT('',(11.683646060143,16.02665150545,
    58.000000000045));
#291 = CARTESIAN_POINT('',(-0.6786547537,18.772566341589,52.000000000091
    ));
#292 = CARTESIAN_POINT('',(-1.205433524217,17.431668745742,
    57.999999999947));
#293 = CARTESIAN_POINT('',(-15.27461584973,16.085676054103,
    51.999999999776));
#294 = CARTESIAN_POINT('',(-14.58506452894,14.936699193124,
    58.00000000002));
#295 = CARTESIAN_POINT('',(-26.41700083971,9.322393433751,
    52.000000000394));
#296 = CARTESIAN_POINT('',(-24.79891743638,8.65650818845,58.000000000053
    ));
#297 = CARTESIAN_POINT('',(-30.61188644928,1.324170940971E-10,
    51.999999999477));
#298 = CARTESIAN_POINT('',(-28.64422924518,1.537628255505E-10,
    57.999999999875));
#299 = CARTESIAN_POINT('',(-26.41700083969,-9.322393433995,
    52.000000000542));
#300 = CARTESIAN_POINT('',(-24.79891743638,-8.656508188731,
    58.000000000154));
#301 = CARTESIAN_POINT('',(-15.27461584975,-16.08567605391,
    51.999999999554));
#302 = CARTESIAN_POINT('',(-14.58506452894,-14.93669919291,
    57.999999999868));
#303 = CARTESIAN_POINT('',(-0.678654753686,-18.7725663417,
    52.000000000291));
#304 = CARTESIAN_POINT('',(-1.205433524213,-17.43166874587,
    58.000000000085));
#305 = CARTESIAN_POINT('',(13.382159338334,-17.25947085195,
    51.999999999853));
#306 = CARTESIAN_POINT('',(11.68364606014,-16.02665150538,
    57.999999999959));
#307 = CARTESIAN_POINT('',(23.794055331208,-12.56637293365,
    52.000000000055));
#308 = CARTESIAN_POINT('',(21.227884053607,-11.66877486696,
    58.000000000014));
#309 = CARTESIAN_POINT('',(29.000000000002,-6.283185307178,
    51.999999999988));
#310 = CARTESIAN_POINT('',(26.000000000002,-5.834386356665,
    57.999999999997));
#311 = CARTESIAN_POINT('',(29.,-5.366639312664E-15,52.));
#312 = CARTESIAN_POINT('',(26.,8.967862962388E-15,58.));
#313 = DEFINITIONAL_REPRESENTATION('',(#314),#318);
#314 = LINE('',#315,#316);
#315 = CARTESIAN_POINT('',(0.,0.));
#316 = VECTOR('',#317,1.);
#317 = DIRECTION('',(1.,0.));
#318 = ( GEOMETRIC_REPRESENTATION_CONTEXT(2) 
PARAMETRIC_REPRESENTATION_CONTEXT() REPRESENTATION_CONTEXT('2D SPACE',''
  ) );
#319 = ORIENTED_EDGE('',*,*,#245,.F.);
#320 = ADVANCED_FACE('',(#321),#198,.F.);
#321 = FACE_BOUND('',#322,.F.);
#322 = EDGE_LOOP('',(#323,#346,#373,#374));
#323 = ORIENTED_EDGE('',*,*,#324,.T.);
#324 = EDGE_CURVE('',#182,#325,#327,.T.);
#325 = VERTEX_POINT('',#326);
#326 = CARTESIAN_POINT('',(1.7,-4.163799117101E-16,52.2));
#327 = SEAM_CURVE('',#328,(#332,#339),.PCURVE_S1.);
#328 = LINE('',#329,#330);
#329 = CARTESIAN_POINT('',(1.7,-4.163799117101E-16,48.9));
#330 = VECTOR('',#331,1.);
#331 = DIRECTION('',(0.,0.,1.));
#332 = PCURVE('',#198,#333);
#333 = DEFINITIONAL_REPRESENTATION('',(#334),#338);
#334 = LINE('',#335,#336);
#335 = CARTESIAN_POINT('',(6.28318530718,-0.));
#336 = VECTOR('',#337,1.);
#337 = DIRECTION('',(0.,1.));
#338 = ( GEOMETRIC_REPRESENTATION_CONTEXT(2) 
PARAMETRIC_REPRESENTATION_CONTEXT() REPRESENTATION_CONTEXT('2D SPACE',''
  ) );
#339 = PCURVE('',#198,#340);
#340 = DEFINITIONAL_REPRESENTATION('',(#341),#345);
#341 = LINE('',#342,#343);
#342 = CARTESIAN_POINT('',(0.,-0.));
#343 = VECTOR('',#344,1.);
#344 = DIRECTION('',(0.,1.));
#345 = ( GEOMETRIC_REPRESENTATION_CONTEXT(2) 
PARAMETRIC_REPRESENTATION_CONTEXT() REPRESENTATION_CONTEXT('2D SPACE',''
  ) );
#346 = ORIENTED_EDGE('',*,*,#347,.F.);
#347 = EDGE_CURVE('',#325,#325,#348,.T.);
#348 = SURFACE_CURVE('',#349,(#354,#361),.PCURVE_S1.);
#349 = CIRCLE('',#350,1.7);
#350 = AXIS2_PLACEMENT_3D('',#351,#352,#353);
#351 = CARTESIAN_POINT('',(0.,0.,52.2));
#352 = DIRECTION('',(0.,0.,1.));
#353 = DIRECTION('',(1.,0.,-0.));
#354 = PCURVE('',#198,#355);
#355 = DEFINITIONAL_REPRESENTATION('',(#356),#360);
#356 = LINE('',#357,#358);
#357 = CARTESIAN_POINT('',(0.,3.3));
#358 = VECTOR('',#359,1.);
#359 = DIRECTION('',(1.,0.));
#360 = ( GEOMETRIC_REPRESENTATION_CONTEXT(2) 
PARAMETRIC_REPRESENTATION_CONTEXT() REPRESENTATION_CONTEXT('2D SPACE',''
  ) );
#361 = PCURVE('',#362,#367);
#362 = PLANE('',#363);
#363 = AXIS2_PLACEMENT_3D('',#364,#365,#366);
#364 = CARTESIAN_POINT('',(0.,0.,52.2));
#365 = DIRECTION('',(0.,0.,1.));
#366 = DIRECTION('',(1.,0.,-0.));
#367 = DEFINITIONAL_REPRESENTATION('',(#368),#372);
#368 = CIRCLE('',#369,1.7);
#369 = AXIS2_PLACEMENT_2D('',#370,#371);
#370 = CARTESIAN_POINT('',(0.,0.));
#371 = DIRECTION('',(1.,0.));
#372 = ( GEOMETRIC_REPRESENTATION_CONTEXT(2) 
PARAMETRIC_REPRESENTATION_CONTEXT() REPRESENTATION_CONTEXT('2D SPACE',''
  ) );
#373 = ORIENTED_EDGE('',*,*,#324,.F.);
#374 = ORIENTED_EDGE('',*,*,#181,.T.);
#375 = ADVANCED_FACE('',(#376),#229,.F.);
#376 = FACE_BOUND('',#377,.F.);
#377 = EDGE_LOOP('',(#378,#401,#428,#429));
#378 = ORIENTED_EDGE('',*,*,#379,.T.);
#379 = EDGE_CURVE('',#213,#380,#382,.T.);
#380 = VERTEX_POINT('',#381);
#381 = CARTESIAN_POINT('',(19.7,-4.163799117101E-16,52.2));
#382 = SEAM_CURVE('',#383,(#387,#394),.PCURVE_S1.);
#383 = LINE('',#384,#385);
#384 = CARTESIAN_POINT('',(19.7,-4.163799117101E-16,48.9));
#385 = VECTOR('',#386,1.);
#386 = DIRECTION('',(0.,0.,1.));
#387 = PCURVE('',#229,#388);
#388 = DEFINITIONAL_REPRESENTATION('',(#389),#393);
#389 = LINE('',#390,#391);
#390 = CARTESIAN_POINT('',(6.28318530718,-0.));
#391 = VECTOR('',#392,1.);
#392 = DIRECTION('',(0.,1.));
#393 = ( GEOMETRIC_REPRESENTATION_CONTEXT(2) 
PARAMETRIC_REPRESENTATION_CONTEXT() REPRESENTATION_CONTEXT('2D SPACE',''
  ) );
#394 = PCURVE('',#229,#395);
#395 = DEFINITIONAL_REPRESENTATION('',(#396),#400);
#396 = LINE('',#397,#398);
#397 = CARTESIAN_POINT('',(0.,-0.));
#398 = VECTOR('',#399,1.);
#399 = DIRECTION('',(0.,1.));
#400 = ( GEOMETRIC_REPRESENTATION_CONTEXT(2) 
PARAMETRIC_REPRESENTATION_CONTEXT() REPRESENTATION_CONTEXT('2D SPACE',''
  ) );
#401 = ORIENTED_EDGE('',*,*,#402,.F.);
#402 = EDGE_CURVE('',#380,#380,#403,.T.);
#403 = SURFACE_CURVE('',#404,(#409,#416),.PCURVE_S1.);
#404 = CIRCLE('',#405,1.7);
#405 = AXIS2_PLACEMENT_3D('',#406,#407,#408);
#406 = CARTESIAN_POINT('',(18.,0.,52.2));
#407 = DIRECTION('',(0.,0.,1.));
#408 = DIRECTION('',(1.,0.,-0.));
#409 = PCURVE('',#229,#410);
#410 = DEFINITIONAL_REPRESENTATION('',(#411),#415);
#411 = LINE('',#412,#413);
#412 = CARTESIAN_POINT('',(0.,3.3));
#413 = VECTOR('',#414,1.);
#414 = DIRECTION('',(1.,0.));
#415 = ( GEOMETRIC_REPRESENTATION_CONTEXT(2) 
PARAMETRIC_REPRESENTATION_CONTEXT() REPRESENTATION_CONTEXT('2D SPACE',''
  ) );
#416 = PCURVE('',#417,#422);
#417 = PLANE('',#418);
#418 = AXIS2_PLACEMENT_3D('',#419,#420,#421);
#419 = CARTESIAN_POINT('',(18.,0.,52.2));
#420 = DIRECTION('',(0.,0.,1.));
#421 = DIRECTION('',(1.,0.,-0.));
#422 = DEFINITIONAL_REPRESENTATION('',(#423),#427);
#423 = CIRCLE('',#424,1.7);
#424 = AXIS2_PLACEMENT_2D('',#425,#426);
#425 = CARTESIAN_POINT('',(0.,0.));
#426 = DIRECTION('',(1.,0.));
#427 = ( GEOMETRIC_REPRESENTATION_CONTEXT(2) 
PARAMETRIC_REPRESENTATION_CONTEXT() REPRESENTATION_CONTEXT('2D SPACE',''
  ) );
#428 = ORIENTED_EDGE('',*,*,#379,.F.);
#429 = ORIENTED_EDGE('',*,*,#212,.T.);
#430 = ADVANCED_FACE('',(#431),#282,.T.);
#431 = FACE_BOUND('',#432,.T.);
#432 = EDGE_LOOP('',(#433,#434,#456,#509));
#433 = ORIENTED_EDGE('',*,*,#267,.T.);
#434 = ORIENTED_EDGE('',*,*,#435,.T.);
#435 = EDGE_CURVE('',#246,#436,#438,.T.);
#436 = VERTEX_POINT('',#437);
#437 = CARTESIAN_POINT('',(26.,0.,58.));
#438 = SEAM_CURVE('',#439,(#442,#449),.PCURVE_S1.);
#439 = B_SPLINE_CURVE_WITH_KNOTS('',1,(#440,#441),.UNSPECIFIED.,.F.,.F.,
  (2,2),(0.,1.),.PIECEWISE_BEZIER_KNOTS.);
#440 = CARTESIAN_POINT('',(29.,-5.366639183626E-15,52.));
#441 = CARTESIAN_POINT('',(26.,-1.234841899059E-14,58.));
#442 = PCURVE('',#282,#443);
#443 = DEFINITIONAL_REPRESENTATION('',(#444),#448);
#444 = LINE('',#445,#446);
#445 = CARTESIAN_POINT('',(6.28318530718,0.));
#446 = VECTOR('',#447,1.);
#447 = DIRECTION('',(0.,1.));
#448 = ( GEOMETRIC_REPRESENTATION_CONTEXT(2) 
PARAMETRIC_REPRESENTATION_CONTEXT() REPRESENTATION_CONTEXT('2D SPACE',''
  ) );
#449 = PCURVE('',#282,#450);
#450 = DEFINITIONAL_REPRESENTATION('',(#451),#455);
#451 = LINE('',#452,#453);
#452 = CARTESIAN_POINT('',(0.,0.));
#453 = VECTOR('',#454,1.);
#454 = DIRECTION('',(0.,1.));
#455 = ( GEOMETRIC_REPRESENTATION_CONTEXT(2) 
PARAMETRIC_REPRESENTATION_CONTEXT() REPRESENTATION_CONTEXT('2D SPACE',''
  ) );
#456 = ORIENTED_EDGE('',*,*,#457,.F.);
#457 = EDGE_CURVE('',#436,#436,#458,.T.);
#458 = SURFACE_CURVE('',#459,(#464,#471),.PCURVE_S1.);
#459 = ELLIPSE('',#460,22.,13.);
#460 = AXIS2_PLACEMENT_3D('',#461,#462,#463);
#461 = CARTESIAN_POINT('',(4.,0.,58.));
#462 = DIRECTION('',(0.,0.,1.));
#463 = DIRECTION('',(1.,0.,0.));
#464 = PCURVE('',#282,#465);
#465 = DEFINITIONAL_REPRESENTATION('',(#466),#470);
#466 = LINE('',#467,#468);
#467 = CARTESIAN_POINT('',(0.,1.));
#468 = VECTOR('',#469,1.);
#469 = DIRECTION('',(1.,0.));
#470 = ( GEOMETRIC_REPRESENTATION_CONTEXT(2) 
PARAMETRIC_REPRESENTATION_CONTEXT() REPRESENTATION_CONTEXT('2D SPACE',''
  ) );
#471 = PCURVE('',#472,#503);
#472 = B_SPLINE_SURFACE_WITH_KNOTS('',14,1,(
    (#473,#474)
    ,(#475,#476)
    ,(#477,#478)
    ,(#479,#480)
    ,(#481,#482)
    ,(#483,#484)
    ,(#485,#486)
    ,(#487,#488)
    ,(#489,#490)
    ,(#491,#492)
    ,(#493,#494)
    ,(#495,#496)
    ,(#497,#498)
    ,(#499,#500)
    ,(#501,#502
    )),.UNSPECIFIED.,.T.,.F.,.F.,(15,15),(2,2),(0.,6.28318530718),(0.,1.
    ),.PIECEWISE_BEZIER_KNOTS.);
#473 = CARTESIAN_POINT('',(26.,-1.234841899059E-14,58.));
#474 = CARTESIAN_POINT('',(19.,8.646711388483E-15,66.));
#475 = CARTESIAN_POINT('',(26.000000000002,5.834386356671,
    58.000000000006));
#476 = CARTESIAN_POINT('',(19.000000000003,4.487989505132,
    66.000000000009));
#477 = CARTESIAN_POINT('',(21.227884053606,11.668774866939,
    57.999999999978));
#478 = CARTESIAN_POINT('',(15.312455859599,8.975980666875,
    65.999999999963));
#479 = CARTESIAN_POINT('',(11.683646060143,16.02665150545,
    58.000000000045));
#480 = CARTESIAN_POINT('',(7.937362864674,12.328193465735,66.00000000009
    ));
#481 = CARTESIAN_POINT('',(-1.205433524217,17.431668745742,
    57.999999999947));
#482 = CARTESIAN_POINT('',(-2.022380450573,13.408975958254,
    65.999999999847));
#483 = CARTESIAN_POINT('',(-14.58506452894,14.936699193124,
    58.00000000002));
#484 = CARTESIAN_POINT('',(-12.36118622683,11.489768610112,
    66.000000000198));
#485 = CARTESIAN_POINT('',(-24.79891743638,8.65650818845,58.000000000053
    ));
#486 = CARTESIAN_POINT('',(-20.25370892822,6.658852452629,
    65.999999999798));
#487 = CARTESIAN_POINT('',(-28.64422924518,1.537628255505E-10,
    57.999999999875));
#488 = CARTESIAN_POINT('',(-23.22508623479,1.500601675017E-10,
    66.000000000171));
#489 = CARTESIAN_POINT('',(-24.79891743638,-8.656508188731,
    58.000000000154));
#490 = CARTESIAN_POINT('',(-20.25370892822,-6.658852452904,
    65.999999999876));
#491 = CARTESIAN_POINT('',(-14.58506452894,-14.93669919291,
    57.999999999868));
#492 = CARTESIAN_POINT('',(-12.36118622683,-11.4897686099,
    66.000000000079));
#493 = CARTESIAN_POINT('',(-1.205433524213,-17.43166874587,
    58.000000000085));
#494 = CARTESIAN_POINT('',(-2.022380450574,-13.40897595838,
    65.999999999958));
#495 = CARTESIAN_POINT('',(11.68364606014,-16.02665150538,
    57.999999999959));
#496 = CARTESIAN_POINT('',(7.937362864675,-12.32819346566,
    66.000000000018));
#497 = CARTESIAN_POINT('',(21.227884053607,-11.66877486696,
    58.000000000014));
#498 = CARTESIAN_POINT('',(15.312455859598,-8.975980666898,
    65.999999999994));
#499 = CARTESIAN_POINT('',(26.000000000002,-5.834386356665,
    57.999999999997));
#500 = CARTESIAN_POINT('',(19.000000000003,-4.487989505126,
    66.000000000001));
#501 = CARTESIAN_POINT('',(26.,8.967862962388E-15,58.));
#502 = CARTESIAN_POINT('',(19.,-1.266957077649E-14,66.));
#503 = DEFINITIONAL_REPRESENTATION('',(#504),#508);
#504 = LINE('',#505,#506);
#505 = CARTESIAN_POINT('',(0.,0.));
#506 = VECTOR('',#507,1.);
#507 = DIRECTION('',(1.,0.));
#508 = ( GEOMETRIC_REPRESENTATION_CONTEXT(2) 
PARAMETRIC_REPRESENTATION_CONTEXT() REPRESENTATION_CONTEXT('2D SPACE',''
  ) );
#509 = ORIENTED_EDGE('',*,*,#435,.F.);
#510 = ADVANCED_FACE('',(#511),#362,.F.);
#511 = FACE_BOUND('',#512,.F.);
#512 = EDGE_LOOP('',(#513));
#513 = ORIENTED_EDGE('',*,*,#347,.T.);
#514 = ADVANCED_FACE('',(#515),#417,.F.);
#515 = FACE_BOUND('',#516,.F.);
#516 = EDGE_LOOP('',(#517));
#517 = ORIENTED_EDGE('',*,*,#402,.T.);
#518 = ADVANCED_FACE('',(#519),#472,.T.);
#519 = FACE_BOUND('',#520,.T.);
#520 = EDGE_LOOP('',(#521,#522,#544,#597));
#521 = ORIENTED_EDGE('',*,*,#457,.T.);
#522 = ORIENTED_EDGE('',*,*,#523,.T.);
#523 = EDGE_CURVE('',#436,#524,#526,.T.);
#524 = VERTEX_POINT('',#525);
#525 = CARTESIAN_POINT('',(19.,0.,66.));
#526 = SEAM_CURVE('',#527,(#530,#537),.PCURVE_S1.);
#527 = B_SPLINE_CURVE_WITH_KNOTS('',1,(#528,#529),.UNSPECIFIED.,.F.,.F.,
  (2,2),(0.,1.),.PIECEWISE_BEZIER_KNOTS.);
#528 = CARTESIAN_POINT('',(26.,-1.234841899059E-14,58.));
#529 = CARTESIAN_POINT('',(19.,8.646711388483E-15,66.));
#530 = PCURVE('',#472,#531);
#531 = DEFINITIONAL_REPRESENTATION('',(#532),#536);
#532 = LINE('',#533,#534);
#533 = CARTESIAN_POINT('',(6.28318530718,0.));
#534 = VECTOR('',#535,1.);
#535 = DIRECTION('',(0.,1.));
#536 = ( GEOMETRIC_REPRESENTATION_CONTEXT(2) 
PARAMETRIC_REPRESENTATION_CONTEXT() REPRESENTATION_CONTEXT('2D SPACE',''
  ) );
#537 = PCURVE('',#472,#538);
#538 = DEFINITIONAL_REPRESENTATION('',(#539),#543);
#539 = LINE('',#540,#541);
#540 = CARTESIAN_POINT('',(0.,0.));
#541 = VECTOR('',#542,1.);
#542 = DIRECTION('',(0.,1.));
#543 = ( GEOMETRIC_REPRESENTATION_CONTEXT(2) 
PARAMETRIC_REPRESENTATION_CONTEXT() REPRESENTATION_CONTEXT('2D SPACE',''
  ) );
#544 = ORIENTED_EDGE('',*,*,#545,.F.);
#545 = EDGE_CURVE('',#524,#524,#546,.T.);
#546 = SURFACE_CURVE('',#547,(#552,#559),.PCURVE_S1.);
#547 = ELLIPSE('',#548,17.,10.);
#548 = AXIS2_PLACEMENT_3D('',#549,#550,#551);
#549 = CARTESIAN_POINT('',(2.,0.,66.));
#550 = DIRECTION('',(0.,0.,1.));
#551 = DIRECTION('',(1.,0.,0.));
#552 = PCURVE('',#472,#553);
#553 = DEFINITIONAL_REPRESENTATION('',(#554),#558);
#554 = LINE('',#555,#556);
#555 = CARTESIAN_POINT('',(0.,1.));
#556 = VECTOR('',#557,1.);
#557 = DIRECTION('',(1.,0.));
#558 = ( GEOMETRIC_REPRESENTATION_CONTEXT(2) 
PARAMETRIC_REPRESENTATION_CONTEXT() REPRESENTATION_CONTEXT('2D SPACE',''
  ) );
#559 = PCURVE('',#560,#591);
#560 = B_SPLINE_SURFACE_WITH_KNOTS('',14,1,(
    (#561,#562)
    ,(#563,#564)
    ,(#565,#566)
    ,(#567,#568)
    ,(#569,#570)
    ,(#571,#572)
    ,(#573,#574)
    ,(#575,#576)
    ,(#577,#578)
    ,(#579,#580)
    ,(#581,#582)
    ,(#583,#584)
    ,(#585,#586)
    ,(#587,#588)
    ,(#589,#590
    )),.UNSPECIFIED.,.T.,.F.,.F.,(15,15),(2,2),(0.,6.28318530718),(0.,1.
    ),.PIECEWISE_BEZIER_KNOTS.);
#561 = CARTESIAN_POINT('',(19.,8.646711388483E-15,66.));
#562 = CARTESIAN_POINT('',(9.,4.323355694241E-15,72.));
#563 = CARTESIAN_POINT('',(19.000000000003,4.487989505132,
    66.000000000009));
#564 = CARTESIAN_POINT('',(9.000000000002,2.243994752566,72.000000000004
    ));
#565 = CARTESIAN_POINT('',(15.312455859599,8.975980666875,
    65.999999999963));
#566 = CARTESIAN_POINT('',(7.047770749197,4.487990333437,71.999999999986
    ));
#567 = CARTESIAN_POINT('',(7.937362864674,12.328193465735,66.00000000009
    ));
#568 = CARTESIAN_POINT('',(3.143309751893,6.164096732867,72.000000000016
    ));
#569 = CARTESIAN_POINT('',(-2.022380450573,13.408975958254,
    65.999999999847));
#570 = CARTESIAN_POINT('',(-2.12949553267,6.704487979127,72.000000000019
    ));
#571 = CARTESIAN_POINT('',(-12.36118622683,11.489768610112,
    66.000000000198));
#572 = CARTESIAN_POINT('',(-7.602980943595,5.744884305056,
    71.999999999877));
#573 = CARTESIAN_POINT('',(-20.25370892822,6.658852452629,
    65.999999999798));
#574 = CARTESIAN_POINT('',(-11.78137531497,3.329426226315,
    72.000000000282));
#575 = CARTESIAN_POINT('',(-23.22508623479,1.500601675017E-10,
    66.000000000171));
#576 = CARTESIAN_POINT('',(-13.35445741838,7.503008375085E-11,
    71.999999999575));
#577 = CARTESIAN_POINT('',(-20.25370892822,-6.658852452904,
    65.999999999876));
#578 = CARTESIAN_POINT('',(-11.78137531497,-3.329426226452,
    72.000000000477));
#579 = CARTESIAN_POINT('',(-12.36118622683,-11.4897686099,
    66.000000000079));
#580 = CARTESIAN_POINT('',(-7.602980943594,-5.744884304951,
    71.999999999584));
#581 = CARTESIAN_POINT('',(-2.022380450574,-13.40897595838,
    65.999999999958));
#582 = CARTESIAN_POINT('',(-2.129495532672,-6.704487979193,
    72.000000000283));
#583 = CARTESIAN_POINT('',(7.937362864675,-12.32819346566,
    66.000000000018));
#584 = CARTESIAN_POINT('',(3.143309751894,-6.164096732835,
    71.999999999851));
#585 = CARTESIAN_POINT('',(15.312455859598,-8.975980666898,
    65.999999999994));
#586 = CARTESIAN_POINT('',(7.047770749196,-4.487990333449,
    72.000000000056));
#587 = CARTESIAN_POINT('',(19.000000000003,-4.487989505126,
    66.000000000001));
#588 = CARTESIAN_POINT('',(9.000000000002,-2.243994752563,
    71.999999999987));
#589 = CARTESIAN_POINT('',(19.,-1.266957077649E-14,66.));
#590 = CARTESIAN_POINT('',(9.,-6.334785388244E-15,72.));
#591 = DEFINITIONAL_REPRESENTATION('',(#592),#596);
#592 = LINE('',#593,#594);
#593 = CARTESIAN_POINT('',(0.,0.));
#594 = VECTOR('',#595,1.);
#595 = DIRECTION('',(1.,0.));
#596 = ( GEOMETRIC_REPRESENTATION_CONTEXT(2) 
PARAMETRIC_REPRESENTATION_CONTEXT() REPRESENTATION_CONTEXT('2D SPACE',''
  ) );
#597 = ORIENTED_EDGE('',*,*,#523,.F.);
#598 = ADVANCED_FACE('',(#599),#560,.T.);
#599 = FACE_BOUND('',#600,.T.);
#600 = EDGE_LOOP('',(#601,#602,#624,#677));
#601 = ORIENTED_EDGE('',*,*,#545,.T.);
#602 = ORIENTED_EDGE('',*,*,#603,.T.);
#603 = EDGE_CURVE('',#524,#604,#606,.T.);
#604 = VERTEX_POINT('',#605);
#605 = CARTESIAN_POINT('',(9.,0.,72.));
#606 = SEAM_CURVE('',#607,(#610,#617),.PCURVE_S1.);
#607 = B_SPLINE_CURVE_WITH_KNOTS('',1,(#608,#609),.UNSPECIFIED.,.F.,.F.,
  (2,2),(0.,1.),.PIECEWISE_BEZIER_KNOTS.);
#608 = CARTESIAN_POINT('',(19.,8.646711388483E-15,66.));
#609 = CARTESIAN_POINT('',(9.,4.323355694241E-15,72.));
#610 = PCURVE('',#560,#611);
#611 = DEFINITIONAL_REPRESENTATION('',(#612),#616);
#612 = LINE('',#613,#614);
#613 = CARTESIAN_POINT('',(6.28318530718,0.));
#614 = VECTOR('',#615,1.);
#615 = DIRECTION('',(0.,1.));
#616 = ( GEOMETRIC_REPRESENTATION_CONTEXT(2) 
PARAMETRIC_REPRESENTATION_CONTEXT() REPRESENTATION_CONTEXT('2D SPACE',''
  ) );
#617 = PCURVE('',#560,#618);
#618 = DEFINITIONAL_REPRESENTATION('',(#619),#623);
#619 = LINE('',#620,#621);
#620 = CARTESIAN_POINT('',(0.,0.));
#621 = VECTOR('',#622,1.);
#622 = DIRECTION('',(0.,1.));
#623 = ( GEOMETRIC_REPRESENTATION_CONTEXT(2) 
PARAMETRIC_REPRESENTATION_CONTEXT() REPRESENTATION_CONTEXT('2D SPACE',''
  ) );
#624 = ORIENTED_EDGE('',*,*,#625,.F.);
#625 = EDGE_CURVE('',#604,#604,#626,.T.);
#626 = SURFACE_CURVE('',#627,(#632,#639),.PCURVE_S1.);
#627 = ELLIPSE('',#628,9.,5.);
#628 = AXIS2_PLACEMENT_3D('',#629,#630,#631);
#629 = CARTESIAN_POINT('',(0.,0.,72.));
#630 = DIRECTION('',(0.,0.,1.));
#631 = DIRECTION('',(1.,0.,0.));
#632 = PCURVE('',#560,#633);
#633 = DEFINITIONAL_REPRESENTATION('',(#634),#638);
#634 = LINE('',#635,#636);
#635 = CARTESIAN_POINT('',(0.,1.));
#636 = VECTOR('',#637,1.);
#637 = DIRECTION('',(1.,0.));
#638 = ( GEOMETRIC_REPRESENTATION_CONTEXT(2) 
PARAMETRIC_REPRESENTATION_CONTEXT() REPRESENTATION_CONTEXT('2D SPACE',''
  ) );
#639 = PCURVE('',#640,#671);
#640 = B_SPLINE_SURFACE_WITH_KNOTS('',14,1,(
    (#641,#642)
    ,(#643,#644)
    ,(#645,#646)
    ,(#647,#648)
    ,(#649,#650)
    ,(#651,#652)
    ,(#653,#654)
    ,(#655,#656)
    ,(#657,#658)
    ,(#659,#660)
    ,(#661,#662)
    ,(#663,#664)
    ,(#665,#666)
    ,(#667,#668)
    ,(#669,#670
    )),.UNSPECIFIED.,.T.,.F.,.F.,(15,15),(2,2),(0.,6.28318530718),(0.,1.
    ),.PIECEWISE_BEZIER_KNOTS.);
#641 = CARTESIAN_POINT('',(9.,4.323355694241E-15,72.));
#642 = CARTESIAN_POINT('',(2.,2.919403537351E-15,74.));
#643 = CARTESIAN_POINT('',(9.000000000002,2.243994752566,72.000000000004
    ));
#644 = CARTESIAN_POINT('',(2.,0.897597901025,73.999999999993));
#645 = CARTESIAN_POINT('',(7.047770749197,4.487990333437,71.999999999986
    ));
#646 = CARTESIAN_POINT('',(1.349253281858,1.795196133378,74.000000000027
    ));
#647 = CARTESIAN_POINT('',(3.143309751893,6.164096732867,72.000000000016
    ));
#648 = CARTESIAN_POINT('',(4.779535909225E-02,2.465638693138,
    73.999999999939));
#649 = CARTESIAN_POINT('',(-2.12949553267,6.704487979127,72.000000000019
    ));
#650 = CARTESIAN_POINT('',(-1.709922046958,2.681795191669,
    74.000000000092));
#651 = CARTESIAN_POINT('',(-7.602980943595,5.744884305056,
    71.999999999877));
#652 = CARTESIAN_POINT('',(-3.534120803511,2.297953721996,
    73.999999999912));
#653 = CARTESIAN_POINT('',(-11.78137531497,3.329426226315,
    72.000000000282));
#654 = CARTESIAN_POINT('',(-4.927455848368,1.331770490557,74.00000000004
    ));
#655 = CARTESIAN_POINT('',(-13.35445741838,7.503008375085E-11,
    71.999999999575));
#656 = CARTESIAN_POINT('',(-5.451099938855,7.55586069902E-14,
    74.000000000022));
#657 = CARTESIAN_POINT('',(-11.78137531497,-3.329426226452,
    72.000000000477));
#658 = CARTESIAN_POINT('',(-4.927455848365,-1.331770490557,
    73.999999999943));
#659 = CARTESIAN_POINT('',(-7.602980943594,-5.744884304951,
    71.999999999584));
#660 = CARTESIAN_POINT('',(-3.534120803516,-2.297953721996,
    74.000000000058));
#661 = CARTESIAN_POINT('',(-2.129495532672,-6.704487979193,
    72.000000000283));
#662 = CARTESIAN_POINT('',(-1.709922046954,-2.681795191668,
    73.999999999959));
#663 = CARTESIAN_POINT('',(3.143309751894,-6.164096732835,
    71.999999999851));
#664 = CARTESIAN_POINT('',(4.779535908998E-02,-2.465638693138,
    74.000000000022));
#665 = CARTESIAN_POINT('',(7.047770749196,-4.487990333449,
    72.000000000056));
#666 = CARTESIAN_POINT('',(1.349253281859,-1.795196133378,
    73.999999999991));
#667 = CARTESIAN_POINT('',(9.000000000002,-2.243994752563,
    71.999999999987));
#668 = CARTESIAN_POINT('',(2.,-0.897597901026,74.000000000002));
#669 = CARTESIAN_POINT('',(9.,-6.334785388244E-15,72.));
#670 = CARTESIAN_POINT('',(2.,-3.297845418984E-15,74.));
#671 = DEFINITIONAL_REPRESENTATION('',(#672),#676);
#672 = LINE('',#673,#674);
#673 = CARTESIAN_POINT('',(0.,0.));
#674 = VECTOR('',#675,1.);
#675 = DIRECTION('',(1.,0.));
#676 = ( GEOMETRIC_REPRESENTATION_CONTEXT(2) 
PARAMETRIC_REPRESENTATION_CONTEXT() REPRESENTATION_CONTEXT('2D SPACE',''
  ) );
#677 = ORIENTED_EDGE('',*,*,#603,.F.);
#678 = ADVANCED_FACE('',(#679),#640,.T.);
#679 = FACE_BOUND('',#680,.T.);
#680 = EDGE_LOOP('',(#681,#682,#704,#731));
#681 = ORIENTED_EDGE('',*,*,#625,.T.);
#682 = ORIENTED_EDGE('',*,*,#683,.T.);
#683 = EDGE_CURVE('',#604,#684,#686,.T.);
#684 = VERTEX_POINT('',#685);
#685 = CARTESIAN_POINT('',(2.,0.,74.));
#686 = SEAM_CURVE('',#687,(#690,#697),.PCURVE_S1.);
#687 = B_SPLINE_CURVE_WITH_KNOTS('',1,(#688,#689),.UNSPECIFIED.,.F.,.F.,
  (2,2),(0.,1.),.PIECEWISE_BEZIER_KNOTS.);
#688 = CARTESIAN_POINT('',(9.,4.323355694241E-15,72.));
#689 = CARTESIAN_POINT('',(2.,2.919403537351E-15,74.));
#690 = PCURVE('',#640,#691);
#691 = DEFINITIONAL_REPRESENTATION('',(#692),#696);
#692 = LINE('',#693,#694);
#693 = CARTESIAN_POINT('',(6.28318530718,0.));
#694 = VECTOR('',#695,1.);
#695 = DIRECTION('',(0.,1.));
#696 = ( GEOMETRIC_REPRESENTATION_CONTEXT(2) 
PARAMETRIC_REPRESENTATION_CONTEXT() REPRESENTATION_CONTEXT('2D SPACE',''
  ) );
#697 = PCURVE('',#640,#698);
#698 = DEFINITIONAL_REPRESENTATION('',(#699),#703);
#699 = LINE('',#700,#701);
#700 = CARTESIAN_POINT('',(0.,0.));
#701 = VECTOR('',#702,1.);
#702 = DIRECTION('',(0.,1.));
#703 = ( GEOMETRIC_REPRESENTATION_CONTEXT(2) 
PARAMETRIC_REPRESENTATION_CONTEXT() REPRESENTATION_CONTEXT('2D SPACE',''
  ) );
#704 = ORIENTED_EDGE('',*,*,#705,.F.);
#705 = EDGE_CURVE('',#684,#684,#706,.T.);
#706 = SURFACE_CURVE('',#707,(#712,#719),.PCURVE_S1.);
#707 = ELLIPSE('',#708,3.,2.);
#708 = AXIS2_PLACEMENT_3D('',#709,#710,#711);
#709 = CARTESIAN_POINT('',(-1.,0.,74.));
#710 = DIRECTION('',(0.,0.,1.));
#711 = DIRECTION('',(1.,0.,0.));
#712 = PCURVE('',#640,#713);
#713 = DEFINITIONAL_REPRESENTATION('',(#714),#718);
#714 = LINE('',#715,#716);
#715 = CARTESIAN_POINT('',(0.,1.));
#716 = VECTOR('',#717,1.);
#717 = DIRECTION('',(1.,0.));
#718 = ( GEOMETRIC_REPRESENTATION_CONTEXT(2) 
PARAMETRIC_REPRESENTATION_CONTEXT() REPRESENTATION_CONTEXT('2D SPACE',''
  ) );
#719 = PCURVE('',#720,#725);
#720 = PLANE('',#721);
#721 = AXIS2_PLACEMENT_3D('',#722,#723,#724);
#722 = CARTESIAN_POINT('',(-1.,0.,74.));
#723 = DIRECTION('',(0.,0.,1.));
#724 = DIRECTION('',(1.,0.,0.));
#725 = DEFINITIONAL_REPRESENTATION('',(#726),#730);
#726 = ELLIPSE('',#727,3.,2.);
#727 = AXIS2_PLACEMENT_2D('',#728,#729);
#728 = CARTESIAN_POINT('',(0.,0.));
#729 = DIRECTION('',(1.,0.));
#730 = ( GEOMETRIC_REPRESENTATION_CONTEXT(2) 
PARAMETRIC_REPRESENTATION_CONTEXT() REPRESENTATION_CONTEXT('2D SPACE',''
  ) );
#731 = ORIENTED_EDGE('',*,*,#683,.F.);
#732 = ADVANCED_FACE('',(#733),#720,.T.);
#733 = FACE_BOUND('',#734,.T.);
#734 = EDGE_LOOP('',(#735));
#735 = ORIENTED_EDGE('',*,*,#705,.T.);
#736 = ( GEOMETRIC_REPRESENTATION_CONTEXT(3) 
GLOBAL_UNCERTAINTY_ASSIGNED_CONTEXT((#740)) GLOBAL_UNIT_ASSIGNED_CONTEXT
((#737,#738,#739)) REPRESENTATION_CONTEXT('Context #1',
  '3D Context with UNIT and UNCERTAINTY') );
#737 = ( LENGTH_UNIT() NAMED_UNIT(*) SI_UNIT(.MILLI.,.METRE.) );
#738 = ( NAMED_UNIT(*) PLANE_ANGLE_UNIT() SI_UNIT($,.RADIAN.) );
#739 = ( NAMED_UNIT(*) SI_UNIT($,.STERADIAN.) SOLID_ANGLE_UNIT() );
#740 = UNCERTAINTY_MEASURE_WITH_UNIT(LENGTH_MEASURE(1.E-07),#737,
  'distance_accuracy_value','confusion accuracy');
#741 = CONTEXT_DEPENDENT_SHAPE_REPRESENTATION(#742,#744);
#742 = ( REPRESENTATION_RELATIONSHIP('','',#32,#10) 
REPRESENTATION_RELATIONSHIP_WITH_TRANSFORMATION(#743) 
SHAPE_REPRESENTATION_RELATIONSHIP() );
#743 = ITEM_DEFINED_TRANSFORMATION('','',#11,#15);
#744 = PRODUCT_DEFINITION_SHAPE('Placement','Placement of an item',#745
  );
#745 = NEXT_ASSEMBLY_USAGE_OCCURRENCE('45','=>[0:1:1:2]','',#5,#27,$);
#746 = PRODUCT_RELATED_PRODUCT_CATEGORY('part',$,(#29));
#747 = MECHANICAL_DESIGN_GEOMETRIC_PRESENTATION_REPRESENTATION('',(#748)
  ,#736);
#748 = STYLED_ITEM('color',(#749),#33);
#749 = PRESENTATION_STYLE_ASSIGNMENT((#750));
#750 = SURFACE_STYLE_USAGE(.BOTH.,#751);
#751 = SURFACE_SIDE_STYLE('',(#752));
#752 = SURFACE_STYLE_FILL_AREA(#753);
#753 = FILL_AREA_STYLE('',(#754));
#754 = FILL_AREA_STYLE_COLOUR('',#755);
#755 = COLOUR_RGB('',3.999999888241E-02,0.380000002513,0.399999997426);

#756=DESCRIPTIVE_REPRESENTATION_ITEM('cadgen:generator','cadgen');
#757=REPRESENTATION('cadgen:generator',(#756),#19);
#758=PROPERTY_DEFINITION('cadgen metadata','cadgen:generator',#5);
#759=PROPERTY_DEFINITION_REPRESENTATION(#758,#757);
#760=DESCRIPTIVE_REPRESENTATION_ITEM('cadgen:entryKind','part');
#761=REPRESENTATION('cadgen:entryKind',(#760),#19);
#762=PROPERTY_DEFINITION('cadgen metadata','cadgen:entryKind',#5);
#763=PROPERTY_DEFINITION_REPRESENTATION(#762,#761);
#764=DESCRIPTIVE_REPRESENTATION_ITEM('cadgen:sourcePath','part_tank_cover.step.py');
#765=REPRESENTATION('cadgen:sourcePath',(#764),#19);
#766=PROPERTY_DEFINITION('cadgen metadata','cadgen:sourcePath',#5);
#767=PROPERTY_DEFINITION_REPRESENTATION(#766,#765);
#768=DESCRIPTIVE_REPRESENTATION_ITEM('cadgen:sourceHash','4cfe8bfdfa683b4764141024e047ef0df4e1c266f0b1a1fed349874bef16664a');
#769=REPRESENTATION('cadgen:sourceHash',(#768),#19);
#770=PROPERTY_DEFINITION('cadgen metadata','cadgen:sourceHash',#5);
#771=PROPERTY_DEFINITION_REPRESENTATION(#770,#769);
ENDSEC;
END-ISO-10303-21;
