ISO-10303-21;
HEADER;
FILE_DESCRIPTION(('Open CASCADE Model'),'2;1');
FILE_NAME('sleepy_closed_lid','1970-01-01T00:00:00',('Author'),(
    'Open CASCADE'),'Open CASCADE STEP processor 7.9','cadgen','Unknown'
  );
FILE_SCHEMA(('AUTOMOTIVE_DESIGN { 1 0 10303 214 1 1 1 1 }'));
ENDSEC;
DATA;
#1 = APPLICATION_PROTOCOL_DEFINITION('international standard',
  'automotive_design',2000,#2);
#2 = APPLICATION_CONTEXT(
  'core data for automotive mechanical design processes');
#3 = SHAPE_DEFINITION_REPRESENTATION(#4,#10);
#4 = PRODUCT_DEFINITION_SHAPE('','',#5);
#5 = PRODUCT_DEFINITION('design','',#6,#9);
#6 = PRODUCT_DEFINITION_FORMATION('','',#7);
#7 = PRODUCT('sleepy_closed_lid','sleepy_closed_lid','',(#8));
#8 = PRODUCT_CONTEXT('',#2,'mechanical');
#9 = PRODUCT_DEFINITION_CONTEXT('part definition',#2,'design');
#10 = ADVANCED_BREP_SHAPE_REPRESENTATION('',(#11,#15),#1213);
#11 = AXIS2_PLACEMENT_3D('',#12,#13,#14);
#12 = CARTESIAN_POINT('',(0.,0.,0.));
#13 = DIRECTION('',(0.,0.,1.));
#14 = DIRECTION('',(1.,0.,-0.));
#15 = MANIFOLD_SOLID_BREP('',#16);
#16 = CLOSED_SHELL('',(#17,#183,#657,#734,#811,#1094,#1122,#1150,#1178,
    #1206));
#17 = ADVANCED_FACE('',(#18),#36,.F.);
#18 = FACE_BOUND('',#19,.F.);
#19 = EDGE_LOOP('',(#20,#69,#109,#145));
#20 = ORIENTED_EDGE('',*,*,#21,.F.);
#21 = EDGE_CURVE('',#22,#24,#26,.T.);
#22 = VERTEX_POINT('',#23);
#23 = CARTESIAN_POINT('',(-6.86165111919,0.878272471201,0.));
#24 = VERTEX_POINT('',#25);
#25 = CARTESIAN_POINT('',(6.86165111919,0.878272471201,0.));
#26 = SURFACE_CURVE('',#27,(#35,#53),.PCURVE_S1.);
#27 = B_SPLINE_CURVE_WITH_KNOTS('',3,(#28,#29,#30,#31,#32,#33,#34),
  .UNSPECIFIED.,.F.,.F.,(4,1,1,1,4),(0.,4.614108798024,7.655490063173,
    10.696871328322,15.310980126346),.UNSPECIFIED.);
#28 = CARTESIAN_POINT('',(-7.,1.,0.));
#29 = CARTESIAN_POINT('',(-5.856704252268,-2.345175227873E-02,0.));
#30 = CARTESIAN_POINT('',(-3.565234588859,-1.341439799286,0.));
#31 = CARTESIAN_POINT('',(0.,-1.98217728609,0.));
#32 = CARTESIAN_POINT('',(3.565234588859,-1.341439799286,0.));
#33 = CARTESIAN_POINT('',(5.856704252268,-2.345175227873E-02,-0.));
#34 = CARTESIAN_POINT('',(7.,1.,0.));
#35 = PCURVE('',#36,#47);
#36 = SURFACE_OF_LINEAR_EXTRUSION('',#37,#45);
#37 = B_SPLINE_CURVE_WITH_KNOTS('',3,(#38,#39,#40,#41,#42,#43,#44),
  .UNSPECIFIED.,.F.,.F.,(4,1,1,1,4),(0.,4.614108798024,7.655490063173,
    10.696871328322,15.310980126346),.UNSPECIFIED.);
#38 = CARTESIAN_POINT('',(-7.,1.,0.));
#39 = CARTESIAN_POINT('',(-5.856704252268,-2.345175227873E-02,0.));
#40 = CARTESIAN_POINT('',(-3.565234588859,-1.341439799286,0.));
#41 = CARTESIAN_POINT('',(0.,-1.98217728609,0.));
#42 = CARTESIAN_POINT('',(3.565234588859,-1.341439799286,0.));
#43 = CARTESIAN_POINT('',(5.856704252268,-2.345175227873E-02,-0.));
#44 = CARTESIAN_POINT('',(7.,1.,0.));
#45 = VECTOR('',#46,1.);
#46 = DIRECTION('',(-0.,-0.,-1.));
#47 = DEFINITIONAL_REPRESENTATION('',(#48),#52);
#48 = LINE('',#49,#50);
#49 = CARTESIAN_POINT('',(0.,0.));
#50 = VECTOR('',#51,1.);
#51 = DIRECTION('',(1.,0.));
#52 = ( GEOMETRIC_REPRESENTATION_CONTEXT(2) 
PARAMETRIC_REPRESENTATION_CONTEXT() REPRESENTATION_CONTEXT('2D SPACE',''
  ) );
#53 = PCURVE('',#54,#59);
#54 = PLANE('',#55);
#55 = AXIS2_PLACEMENT_3D('',#56,#57,#58);
#56 = CARTESIAN_POINT('',(1.59632841446E-16,-1.624658614314E-02,0.));
#57 = DIRECTION('',(0.,0.,1.));
#58 = DIRECTION('',(1.,0.,-0.));
#59 = DEFINITIONAL_REPRESENTATION('',(#60),#68);
#60 = B_SPLINE_CURVE_WITH_KNOTS('',3,(#61,#62,#63,#64,#65,#66,#67),
  .UNSPECIFIED.,.F.,.F.,(4,1,1,1,4),(0.,4.614108798024,7.655490063173,
    10.696871328322,15.310980126346),.UNSPECIFIED.);
#61 = CARTESIAN_POINT('',(-7.,1.016246586143));
#62 = CARTESIAN_POINT('',(-5.856704252268,-7.205166135588E-03));
#63 = CARTESIAN_POINT('',(-3.565234588859,-1.325193213143));
#64 = CARTESIAN_POINT('',(-1.59632841446E-16,-1.965930699946));
#65 = CARTESIAN_POINT('',(3.565234588859,-1.325193213143));
#66 = CARTESIAN_POINT('',(5.856704252268,-7.205166135588E-03));
#67 = CARTESIAN_POINT('',(7.,1.016246586143));
#68 = ( GEOMETRIC_REPRESENTATION_CONTEXT(2) 
PARAMETRIC_REPRESENTATION_CONTEXT() REPRESENTATION_CONTEXT('2D SPACE',''
  ) );
#69 = ORIENTED_EDGE('',*,*,#70,.T.);
#70 = EDGE_CURVE('',#22,#71,#73,.T.);
#71 = VERTEX_POINT('',#72);
#72 = CARTESIAN_POINT('',(-6.86165111919,0.878272471201,1.2));
#73 = SURFACE_CURVE('',#74,(#80,#86),.PCURVE_S1.);
#74 = B_SPLINE_CURVE_WITH_KNOTS('',2,(#75,#76,#77,#78,#79),
  .UNSPECIFIED.,.F.,.F.,(3,1,1,3),(-7.344E-02,3.415210558854E-15,1.2,
    1.27344),.UNSPECIFIED.);
#75 = CARTESIAN_POINT('',(-6.86165111919,0.878272471201,-7.344E-02));
#76 = CARTESIAN_POINT('',(-6.86165111919,0.878272471201,-3.672E-02));
#77 = CARTESIAN_POINT('',(-6.86165111919,0.878272471201,0.6));
#78 = CARTESIAN_POINT('',(-6.86165111919,0.878272471201,1.23672));
#79 = CARTESIAN_POINT('',(-6.86165111919,0.878272471201,1.27344));
#80 = PCURVE('',#36,#81);
#81 = DEFINITIONAL_REPRESENTATION('',(#82),#85);
#82 = B_SPLINE_CURVE_WITH_KNOTS('',1,(#83,#84),.UNSPECIFIED.,.F.,.F.,(2,
    2),(3.415210558854E-15,1.2),.PIECEWISE_BEZIER_KNOTS.);
#83 = CARTESIAN_POINT('',(0.184592206262,0.));
#84 = CARTESIAN_POINT('',(0.184592206262,-1.2));
#85 = ( GEOMETRIC_REPRESENTATION_CONTEXT(2) 
PARAMETRIC_REPRESENTATION_CONTEXT() REPRESENTATION_CONTEXT('2D SPACE',''
  ) );
#86 = PCURVE('',#87,#103);
#87 = ( BOUNDED_SURFACE() B_SPLINE_SURFACE(2,2,(
    (#88,#89,#90,#91,#92)
    ,(#93,#94,#95,#96,#97)
    ,(#98,#99,#100,#101,#102
)),.UNSPECIFIED.,.F.,.F.,.F.) B_SPLINE_SURFACE_WITH_KNOTS((3,3),(3,1,1,3
    ),(0.,1.2),(-7.344E-02,3.415210558854E-15,1.2,1.27344),
.UNSPECIFIED.) GEOMETRIC_REPRESENTATION_ITEM() RATIONAL_B_SPLINE_SURFACE
((
    (1.,1.,1.,1.,1.)
    ,(0.909430535548,0.909430535548,0.909430535548,0.909430535548
      ,0.909430535548)
,(1.,1.,1.,1.,1.))) REPRESENTATION_ITEM('') SURFACE() );
#88 = CARTESIAN_POINT('',(-6.86165111919,0.878272471201,-7.344E-02));
#89 = CARTESIAN_POINT('',(-6.86165111919,0.878272471201,-3.672E-02));
#90 = CARTESIAN_POINT('',(-6.86165111919,0.878272471201,0.6));
#91 = CARTESIAN_POINT('',(-6.86165111919,0.878272471201,1.23672));
#92 = CARTESIAN_POINT('',(-6.86165111919,0.878272471201,1.27344));
#93 = CARTESIAN_POINT('',(-7.,0.997917840936,-7.344E-02));
#94 = CARTESIAN_POINT('',(-7.,0.997917840936,-3.672E-02));
#95 = CARTESIAN_POINT('',(-7.,0.997917840936,0.6));
#96 = CARTESIAN_POINT('',(-7.,0.997917840936,1.23672));
#97 = CARTESIAN_POINT('',(-7.,0.997917840936,1.27344));
#98 = CARTESIAN_POINT('',(-7.,1.180826089303,-7.344E-02));
#99 = CARTESIAN_POINT('',(-7.,1.180826089303,-3.672E-02));
#100 = CARTESIAN_POINT('',(-7.,1.180826089303,0.6));
#101 = CARTESIAN_POINT('',(-7.,1.180826089303,1.23672));
#102 = CARTESIAN_POINT('',(-7.,1.180826089303,1.27344));
#103 = DEFINITIONAL_REPRESENTATION('',(#104),#108);
#104 = LINE('',#105,#106);
#105 = CARTESIAN_POINT('',(0.,0.));
#106 = VECTOR('',#107,1.);
#107 = DIRECTION('',(0.,1.));
#108 = ( GEOMETRIC_REPRESENTATION_CONTEXT(2) 
PARAMETRIC_REPRESENTATION_CONTEXT() REPRESENTATION_CONTEXT('2D SPACE',''
  ) );
#109 = ORIENTED_EDGE('',*,*,#110,.T.);
#110 = EDGE_CURVE('',#71,#111,#113,.T.);
#111 = VERTEX_POINT('',#112);
#112 = CARTESIAN_POINT('',(6.86165111919,0.878272471201,1.2));
#113 = SURFACE_CURVE('',#114,(#122,#129),.PCURVE_S1.);
#114 = B_SPLINE_CURVE_WITH_KNOTS('',3,(#115,#116,#117,#118,#119,#120,
    #121),.UNSPECIFIED.,.F.,.F.,(4,1,1,1,4),(0.,4.614108798024,
    7.655490063173,10.696871328322,15.310980126346),.UNSPECIFIED.);
#115 = CARTESIAN_POINT('',(-7.,1.,1.2));
#116 = CARTESIAN_POINT('',(-5.856704252268,-2.345175227873E-02,1.2));
#117 = CARTESIAN_POINT('',(-3.565234588859,-1.341439799286,1.2));
#118 = CARTESIAN_POINT('',(0.,-1.98217728609,1.2));
#119 = CARTESIAN_POINT('',(3.565234588859,-1.341439799286,1.2));
#120 = CARTESIAN_POINT('',(5.856704252268,-2.345175227873E-02,1.2));
#121 = CARTESIAN_POINT('',(7.,1.,1.2));
#122 = PCURVE('',#36,#123);
#123 = DEFINITIONAL_REPRESENTATION('',(#124),#128);
#124 = LINE('',#125,#126);
#125 = CARTESIAN_POINT('',(0.,-1.2));
#126 = VECTOR('',#127,1.);
#127 = DIRECTION('',(1.,0.));
#128 = ( GEOMETRIC_REPRESENTATION_CONTEXT(2) 
PARAMETRIC_REPRESENTATION_CONTEXT() REPRESENTATION_CONTEXT('2D SPACE',''
  ) );
#129 = PCURVE('',#130,#135);
#130 = PLANE('',#131);
#131 = AXIS2_PLACEMENT_3D('',#132,#133,#134);
#132 = CARTESIAN_POINT('',(1.59632841446E-16,-1.624658614314E-02,1.2));
#133 = DIRECTION('',(0.,0.,1.));
#134 = DIRECTION('',(1.,0.,-0.));
#135 = DEFINITIONAL_REPRESENTATION('',(#136),#144);
#136 = B_SPLINE_CURVE_WITH_KNOTS('',3,(#137,#138,#139,#140,#141,#142,
    #143),.UNSPECIFIED.,.F.,.F.,(4,1,1,1,4),(0.,4.614108798024,
    7.655490063173,10.696871328322,15.310980126346),.UNSPECIFIED.);
#137 = CARTESIAN_POINT('',(-7.,1.016246586143));
#138 = CARTESIAN_POINT('',(-5.856704252268,-7.205166135588E-03));
#139 = CARTESIAN_POINT('',(-3.565234588859,-1.325193213143));
#140 = CARTESIAN_POINT('',(-1.59632841446E-16,-1.965930699946));
#141 = CARTESIAN_POINT('',(3.565234588859,-1.325193213143));
#142 = CARTESIAN_POINT('',(5.856704252268,-7.205166135588E-03));
#143 = CARTESIAN_POINT('',(7.,1.016246586143));
#144 = ( GEOMETRIC_REPRESENTATION_CONTEXT(2) 
PARAMETRIC_REPRESENTATION_CONTEXT() REPRESENTATION_CONTEXT('2D SPACE',''
  ) );
#145 = ORIENTED_EDGE('',*,*,#146,.F.);
#146 = EDGE_CURVE('',#24,#111,#147,.T.);
#147 = SURFACE_CURVE('',#148,(#154,#160),.PCURVE_S1.);
#148 = B_SPLINE_CURVE_WITH_KNOTS('',2,(#149,#150,#151,#152,#153),
  .UNSPECIFIED.,.F.,.F.,(3,1,1,3),(-7.344E-02,3.415210558854E-15,1.2,
    1.27344),.UNSPECIFIED.);
#149 = CARTESIAN_POINT('',(6.86165111919,0.878272471201,-7.344E-02));
#150 = CARTESIAN_POINT('',(6.86165111919,0.878272471201,-3.672E-02));
#151 = CARTESIAN_POINT('',(6.86165111919,0.878272471201,0.6));
#152 = CARTESIAN_POINT('',(6.86165111919,0.878272471201,1.23672));
#153 = CARTESIAN_POINT('',(6.86165111919,0.878272471201,1.27344));
#154 = PCURVE('',#36,#155);
#155 = DEFINITIONAL_REPRESENTATION('',(#156),#159);
#156 = B_SPLINE_CURVE_WITH_KNOTS('',1,(#157,#158),.UNSPECIFIED.,.F.,.F.,
  (2,2),(3.415210558854E-15,1.2),.PIECEWISE_BEZIER_KNOTS.);
#157 = CARTESIAN_POINT('',(15.126387920084,1.570364414341E-16));
#158 = CARTESIAN_POINT('',(15.126387920084,-1.2));
#159 = ( GEOMETRIC_REPRESENTATION_CONTEXT(2) 
PARAMETRIC_REPRESENTATION_CONTEXT() REPRESENTATION_CONTEXT('2D SPACE',''
  ) );
#160 = PCURVE('',#161,#177);
#161 = ( BOUNDED_SURFACE() B_SPLINE_SURFACE(2,2,(
    (#162,#163,#164,#165,#166)
    ,(#167,#168,#169,#170,#171)
    ,(#172,#173,#174,#175,#176
)),.UNSPECIFIED.,.F.,.F.,.F.) B_SPLINE_SURFACE_WITH_KNOTS((3,3),(3,1,1,3
    ),(0.,1.2),(-7.344E-02,3.415210558854E-15,1.2,1.27344),
.UNSPECIFIED.) GEOMETRIC_REPRESENTATION_ITEM() RATIONAL_B_SPLINE_SURFACE
((
    (1.,1.,1.,1.,1.)
    ,(0.909430535548,0.909430535548,0.909430535548,0.909430535548
      ,0.909430535548)
,(1.,1.,1.,1.,1.))) REPRESENTATION_ITEM('') SURFACE() );
#162 = CARTESIAN_POINT('',(6.86165111919,0.878272471201,-7.344E-02));
#163 = CARTESIAN_POINT('',(6.86165111919,0.878272471201,-3.672E-02));
#164 = CARTESIAN_POINT('',(6.86165111919,0.878272471201,0.6));
#165 = CARTESIAN_POINT('',(6.86165111919,0.878272471201,1.23672));
#166 = CARTESIAN_POINT('',(6.86165111919,0.878272471201,1.27344));
#167 = CARTESIAN_POINT('',(7.,0.997917840936,-7.344E-02));
#168 = CARTESIAN_POINT('',(7.,0.997917840936,-3.672E-02));
#169 = CARTESIAN_POINT('',(7.,0.997917840936,0.6));
#170 = CARTESIAN_POINT('',(7.,0.997917840936,1.23672));
#171 = CARTESIAN_POINT('',(7.,0.997917840936,1.27344));
#172 = CARTESIAN_POINT('',(7.,1.180826089303,-7.344E-02));
#173 = CARTESIAN_POINT('',(7.,1.180826089303,-3.672E-02));
#174 = CARTESIAN_POINT('',(7.,1.180826089303,0.6));
#175 = CARTESIAN_POINT('',(7.,1.180826089303,1.23672));
#176 = CARTESIAN_POINT('',(7.,1.180826089303,1.27344));
#177 = DEFINITIONAL_REPRESENTATION('',(#178),#182);
#178 = LINE('',#179,#180);
#179 = CARTESIAN_POINT('',(0.,0.));
#180 = VECTOR('',#181,1.);
#181 = DIRECTION('',(0.,1.));
#182 = ( GEOMETRIC_REPRESENTATION_CONTEXT(2) 
PARAMETRIC_REPRESENTATION_CONTEXT() REPRESENTATION_CONTEXT('2D SPACE',''
  ) );
#183 = ADVANCED_FACE('',(#184),#54,.F.);
#184 = FACE_BOUND('',#185,.F.);
#185 = EDGE_LOOP('',(#186,#187,#237,#265,#411,#453,#581,#609));
#186 = ORIENTED_EDGE('',*,*,#21,.T.);
#187 = ORIENTED_EDGE('',*,*,#188,.T.);
#188 = EDGE_CURVE('',#24,#189,#191,.T.);
#189 = VERTEX_POINT('',#190);
#190 = CARTESIAN_POINT('',(7.,1.180826089303,0.));
#191 = SURFACE_CURVE('',#192,(#205,#221),.PCURVE_S1.);
#192 = B_SPLINE_CURVE_WITH_KNOTS('',6,(#193,#194,#195,#196,#197,#198,
    #199,#200,#201,#202,#203,#204),.UNSPECIFIED.,.F.,.F.,(7,5,7),(0.,
    0.4989988452,1.),.UNSPECIFIED.);
#193 = CARTESIAN_POINT('',(6.86165111919,0.878272471201,0.));
#194 = CARTESIAN_POINT('',(6.882626301543,0.896411999567,0.));
#195 = CARTESIAN_POINT('',(6.902446001404,0.916602338389,0.));
#196 = CARTESIAN_POINT('',(6.920757829084,0.938731289068,0.));
#197 = CARTESIAN_POINT('',(6.937221507235,0.962586333156,0.));
#198 = CARTESIAN_POINT('',(6.951566795405,0.987852852663,0.));
#199 = CARTESIAN_POINT('',(6.975735928815,1.040586539824,0.));
#200 = CARTESIAN_POINT('',(6.985542027156,1.06806349717,0.));
#201 = CARTESIAN_POINT('',(6.992875839159,1.096229912004,0.));
#202 = CARTESIAN_POINT('',(6.997674414557,1.124670544184,0.));
#203 = CARTESIAN_POINT('',(7.,1.152983953861,0.));
#204 = CARTESIAN_POINT('',(7.,1.180826089303,0.));
#205 = PCURVE('',#54,#206);
#206 = DEFINITIONAL_REPRESENTATION('',(#207),#220);
#207 = B_SPLINE_CURVE_WITH_KNOTS('',6,(#208,#209,#210,#211,#212,#213,
    #214,#215,#216,#217,#218,#219),.UNSPECIFIED.,.F.,.F.,(7,5,7),(0.,
    0.4989988452,1.),.UNSPECIFIED.);
#208 = CARTESIAN_POINT('',(6.86165111919,0.894519057344));
#209 = CARTESIAN_POINT('',(6.882626301543,0.91265858571));
#210 = CARTESIAN_POINT('',(6.902446001404,0.932848924532));
#211 = CARTESIAN_POINT('',(6.920757829084,0.954977875212));
#212 = CARTESIAN_POINT('',(6.937221507235,0.978832919299));
#213 = CARTESIAN_POINT('',(6.951566795405,1.004099438806));
#214 = CARTESIAN_POINT('',(6.975735928815,1.056833125967));
#215 = CARTESIAN_POINT('',(6.985542027156,1.084310083313));
#216 = CARTESIAN_POINT('',(6.992875839159,1.112476498147));
#217 = CARTESIAN_POINT('',(6.997674414557,1.140917130328));
#218 = CARTESIAN_POINT('',(7.,1.169230540004));
#219 = CARTESIAN_POINT('',(7.,1.197072675446));
#220 = ( GEOMETRIC_REPRESENTATION_CONTEXT(2) 
PARAMETRIC_REPRESENTATION_CONTEXT() REPRESENTATION_CONTEXT('2D SPACE',''
  ) );
#221 = PCURVE('',#161,#222);
#222 = DEFINITIONAL_REPRESENTATION('',(#223),#236);
#223 = B_SPLINE_CURVE_WITH_KNOTS('',6,(#224,#225,#226,#227,#228,#229,
    #230,#231,#232,#233,#234,#235),.UNSPECIFIED.,.F.,.F.,(7,5,7),(0.,
    0.4989988452,1.),.UNSPECIFIED.);
#224 = CARTESIAN_POINT('',(0.,3.543389540117E-15));
#225 = CARTESIAN_POINT('',(0.10002574923,3.560609826847E-15));
#226 = CARTESIAN_POINT('',(0.199925700185,3.421928694048E-15));
#227 = CARTESIAN_POINT('',(0.299717146529,3.690468139252E-15));
#228 = CARTESIAN_POINT('',(0.399434356068,3.530752692619E-15));
#229 = CARTESIAN_POINT('',(0.499118692034,3.600210843765E-15));
#230 = CARTESIAN_POINT('',(0.698881294542,3.639246985944E-15));
#231 = CARTESIAN_POINT('',(0.798965086333,3.657824032695E-15));
#232 = CARTESIAN_POINT('',(0.899081520404,3.681486879955E-15));
#233 = CARTESIAN_POINT('',(0.999272542133,3.69519754889E-15));
#234 = CARTESIAN_POINT('',(1.099572889047,3.7180102011E-15));
#235 = CARTESIAN_POINT('',(1.2,3.735510165082E-15));
#236 = ( GEOMETRIC_REPRESENTATION_CONTEXT(2) 
PARAMETRIC_REPRESENTATION_CONTEXT() REPRESENTATION_CONTEXT('2D SPACE',''
  ) );
#237 = ORIENTED_EDGE('',*,*,#238,.T.);
#238 = EDGE_CURVE('',#189,#239,#241,.T.);
#239 = VERTEX_POINT('',#240);
#240 = CARTESIAN_POINT('',(7.,1.449799849517,0.));
#241 = SURFACE_CURVE('',#242,(#246,#253),.PCURVE_S1.);
#242 = LINE('',#243,#244);
#243 = CARTESIAN_POINT('',(7.,1.,0.));
#244 = VECTOR('',#245,1.);
#245 = DIRECTION('',(0.,1.,0.));
#246 = PCURVE('',#54,#247);
#247 = DEFINITIONAL_REPRESENTATION('',(#248),#252);
#248 = LINE('',#249,#250);
#249 = CARTESIAN_POINT('',(7.,1.016246586143));
#250 = VECTOR('',#251,1.);
#251 = DIRECTION('',(0.,1.));
#252 = ( GEOMETRIC_REPRESENTATION_CONTEXT(2) 
PARAMETRIC_REPRESENTATION_CONTEXT() REPRESENTATION_CONTEXT('2D SPACE',''
  ) );
#253 = PCURVE('',#254,#259);
#254 = PLANE('',#255);
#255 = AXIS2_PLACEMENT_3D('',#256,#257,#258);
#256 = CARTESIAN_POINT('',(7.,1.,0.));
#257 = DIRECTION('',(-1.,0.,0.));
#258 = DIRECTION('',(0.,1.,0.));
#259 = DEFINITIONAL_REPRESENTATION('',(#260),#264);
#260 = LINE('',#261,#262);
#261 = CARTESIAN_POINT('',(0.,0.));
#262 = VECTOR('',#263,1.);
#263 = DIRECTION('',(1.,0.));
#264 = ( GEOMETRIC_REPRESENTATION_CONTEXT(2) 
PARAMETRIC_REPRESENTATION_CONTEXT() REPRESENTATION_CONTEXT('2D SPACE',''
  ) );
#265 = ORIENTED_EDGE('',*,*,#266,.T.);
#266 = EDGE_CURVE('',#239,#267,#269,.T.);
#267 = VERTEX_POINT('',#268);
#268 = CARTESIAN_POINT('',(6.356806209904,1.767379415073,0.));
#269 = SURFACE_CURVE('',#270,(#303,#339),.PCURVE_S1.);
#270 = B_SPLINE_CURVE_WITH_KNOTS('',6,(#271,#272,#273,#274,#275,#276,
    #277,#278,#279,#280,#281,#282,#283,#284,#285,#286,#287,#288,#289,
    #290,#291,#292,#293,#294,#295,#296,#297,#298,#299,#300,#301,#302),
  .UNSPECIFIED.,.F.,.F.,(7,5,5,5,5,5,7),(0.,0.156002788941,0.45499607178
    ,0.506997276516,0.524997694316,0.761999000237,1.),.UNSPECIFIED.);
#271 = CARTESIAN_POINT('',(7.,1.449799849517,0.));
#272 = CARTESIAN_POINT('',(7.,1.472932072311,0.));
#273 = CARTESIAN_POINT('',(6.998394683749,1.496064952512,0.));
#274 = CARTESIAN_POINT('',(6.995183962207,1.519058409741,0.));
#275 = CARTESIAN_POINT('',(6.990383990662,1.54177342213,0.));
#276 = CARTESIAN_POINT('',(6.984026814503,1.564073797795,0.));
#277 = CARTESIAN_POINT('',(6.961082590892,1.627521715547,0.));
#278 = CARTESIAN_POINT('',(6.940456863855,1.667217325103,0.));
#279 = CARTESIAN_POINT('',(6.914619047487,1.703974692877,0.));
#280 = CARTESIAN_POINT('',(6.884112698629,1.736960406558,0.));
#281 = CARTESIAN_POINT('',(6.849638515033,1.765467860345,0.));
#282 = CARTESIAN_POINT('',(6.805506454426,1.793058580087,0.));
#283 = CARTESIAN_POINT('',(6.798873555223,1.796995003753,0.));
#284 = CARTESIAN_POINT('',(6.792150473749,1.800777440323,0.));
#285 = CARTESIAN_POINT('',(6.785341685223,1.804403326389,0.));
#286 = CARTESIAN_POINT('',(6.778451760366,1.807870272961,0.));
#287 = CARTESIAN_POINT('',(6.769073920876,1.81232037831,0.));
#288 = CARTESIAN_POINT('',(6.766653313219,1.813445381424,0.));
#289 = CARTESIAN_POINT('',(6.764223735734,1.814550983081,0.));
#290 = CARTESIAN_POINT('',(6.761785382904,1.815637094152,0.));
#291 = CARTESIAN_POINT('',(6.759338450384,1.81670362811,0.));
#292 = CARTESIAN_POINT('',(6.724555388038,1.831534083888,0.));
#293 = CARTESIAN_POINT('',(6.690772230008,1.841910060525,0.));
#294 = CARTESIAN_POINT('',(6.655987502359,1.848684926294,0.));
#295 = CARTESIAN_POINT('',(6.620681767115,1.85174796048,0.));
#296 = CARTESIAN_POINT('',(6.585347493407,1.851073299066,0.));
#297 = CARTESIAN_POINT('',(6.515453895953,1.842352361765,0.));
#298 = CARTESIAN_POINT('',(6.480893811584,1.834274411357,0.));
#299 = CARTESIAN_POINT('',(6.447289836864,1.822550035063,0.));
#300 = CARTESIAN_POINT('',(6.415119014159,1.807327468009,0.));
#301 = CARTESIAN_POINT('',(6.384825454511,1.788835790201,0.));
#302 = CARTESIAN_POINT('',(6.356806209904,1.767379415073,0.));
#303 = PCURVE('',#54,#304);
#304 = DEFINITIONAL_REPRESENTATION('',(#305),#338);
#305 = B_SPLINE_CURVE_WITH_KNOTS('',6,(#306,#307,#308,#309,#310,#311,
    #312,#313,#314,#315,#316,#317,#318,#319,#320,#321,#322,#323,#324,
    #325,#326,#327,#328,#329,#330,#331,#332,#333,#334,#335,#336,#337),
  .UNSPECIFIED.,.F.,.F.,(7,5,5,5,5,5,7),(0.,0.156002788941,0.45499607178
    ,0.506997276516,0.524997694316,0.761999000237,1.),.UNSPECIFIED.);
#306 = CARTESIAN_POINT('',(7.,1.46604643566));
#307 = CARTESIAN_POINT('',(7.,1.489178658454));
#308 = CARTESIAN_POINT('',(6.998394683749,1.512311538655));
#309 = CARTESIAN_POINT('',(6.995183962207,1.535304995884));
#310 = CARTESIAN_POINT('',(6.990383990662,1.558020008273));
#311 = CARTESIAN_POINT('',(6.984026814503,1.580320383938));
#312 = CARTESIAN_POINT('',(6.961082590892,1.64376830169));
#313 = CARTESIAN_POINT('',(6.940456863855,1.683463911246));
#314 = CARTESIAN_POINT('',(6.914619047487,1.72022127902));
#315 = CARTESIAN_POINT('',(6.884112698629,1.753206992702));
#316 = CARTESIAN_POINT('',(6.849638515033,1.781714446488));
#317 = CARTESIAN_POINT('',(6.805506454426,1.80930516623));
#318 = CARTESIAN_POINT('',(6.798873555223,1.813241589896));
#319 = CARTESIAN_POINT('',(6.792150473749,1.817024026467));
#320 = CARTESIAN_POINT('',(6.785341685223,1.820649912532));
#321 = CARTESIAN_POINT('',(6.778451760366,1.824116859104));
#322 = CARTESIAN_POINT('',(6.769073920876,1.828566964453));
#323 = CARTESIAN_POINT('',(6.766653313219,1.829691967568));
#324 = CARTESIAN_POINT('',(6.764223735734,1.830797569225));
#325 = CARTESIAN_POINT('',(6.761785382904,1.831883680295));
#326 = CARTESIAN_POINT('',(6.759338450384,1.832950214253));
#327 = CARTESIAN_POINT('',(6.724555388038,1.847780670031));
#328 = CARTESIAN_POINT('',(6.690772230008,1.858156646668));
#329 = CARTESIAN_POINT('',(6.655987502359,1.864931512437));
#330 = CARTESIAN_POINT('',(6.620681767115,1.867994546623));
#331 = CARTESIAN_POINT('',(6.585347493407,1.867319885209));
#332 = CARTESIAN_POINT('',(6.515453895953,1.858598947908));
#333 = CARTESIAN_POINT('',(6.480893811584,1.8505209975));
#334 = CARTESIAN_POINT('',(6.447289836864,1.838796621206));
#335 = CARTESIAN_POINT('',(6.415119014159,1.823574054152));
#336 = CARTESIAN_POINT('',(6.384825454511,1.805082376344));
#337 = CARTESIAN_POINT('',(6.356806209904,1.783626001216));
#338 = ( GEOMETRIC_REPRESENTATION_CONTEXT(2) 
PARAMETRIC_REPRESENTATION_CONTEXT() REPRESENTATION_CONTEXT('2D SPACE',''
  ) );
#339 = PCURVE('',#340,#376);
#340 = ( BOUNDED_SURFACE() B_SPLINE_SURFACE(6,2,(
    (#341,#342,#343,#344,#345)
    ,(#346,#347,#348,#349,#350)
    ,(#351,#352,#353,#354,#355)
    ,(#356,#357,#358,#359,#360)
    ,(#361,#362,#363,#364,#365)
    ,(#366,#367,#368,#369,#370)
    ,(#371,#372,#373,#374,#375
)),.UNSPECIFIED.,.F.,.F.,.F.) B_SPLINE_SURFACE_WITH_KNOTS((7,7),(3,1,1,3
    ),(0.,1.2),(-7.344E-02,2.283517996935E-15,1.2,1.27344),
.UNSPECIFIED.) GEOMETRIC_REPRESENTATION_ITEM() RATIONAL_B_SPLINE_SURFACE
((
    (1.064090550538,1.064090550538,1.064090550538,1.064090550538
      ,1.064090550538)
    ,(1.019530908724,1.019530908724,1.019530908724,1.019530908724
      ,1.019530908724)
    ,(0.995869992481,0.995869992481,0.995869992481,0.995869992481
      ,0.995869992481)
    ,(0.98806741099,0.98806741099,0.98806741099,0.98806741099
      ,0.98806741099)
    ,(0.995869992481,0.995869992481,0.995869992481,0.995869992481
      ,0.995869992481)
    ,(1.019530908724,1.019530908724,1.019530908724,1.019530908724
      ,1.019530908724)
    ,(1.064090550538,1.064090550538,1.064090550538,1.064090550538
,1.064090550538))) REPRESENTATION_ITEM('') SURFACE() );
#341 = CARTESIAN_POINT('',(7.,1.449799849517,-7.344E-02));
#342 = CARTESIAN_POINT('',(7.,1.449799849517,-3.672E-02));
#343 = CARTESIAN_POINT('',(7.,1.449799849517,0.6));
#344 = CARTESIAN_POINT('',(7.,1.449799849517,1.23672));
#345 = CARTESIAN_POINT('',(7.,1.449799849517,1.27344));
#346 = CARTESIAN_POINT('',(7.,1.604563023994,-7.344E-02));
#347 = CARTESIAN_POINT('',(7.,1.604563023994,-3.672E-02));
#348 = CARTESIAN_POINT('',(7.,1.604563023994,0.6));
#349 = CARTESIAN_POINT('',(7.,1.604563023994,1.23672));
#350 = CARTESIAN_POINT('',(7.,1.604563023994,1.27344));
#351 = CARTESIAN_POINT('',(6.929518348183,1.75078154769,-7.344E-02));
#352 = CARTESIAN_POINT('',(6.929518348183,1.75078154769,-3.672E-02));
#353 = CARTESIAN_POINT('',(6.929518348183,1.75078154769,0.6));
#354 = CARTESIAN_POINT('',(6.929518348183,1.75078154769,1.23672));
#355 = CARTESIAN_POINT('',(6.929518348183,1.75078154769,1.27344));
#356 = CARTESIAN_POINT('',(6.800230055014,1.855325714351,-7.344E-02));
#357 = CARTESIAN_POINT('',(6.800230055014,1.855325714351,-3.672E-02));
#358 = CARTESIAN_POINT('',(6.800230055014,1.855325714351,0.6));
#359 = CARTESIAN_POINT('',(6.800230055014,1.855325714351,1.23672));
#360 = CARTESIAN_POINT('',(6.800230055014,1.855325714351,1.27344));
#361 = CARTESIAN_POINT('',(6.638622052363,1.894412783985,-7.344E-02));
#362 = CARTESIAN_POINT('',(6.638622052363,1.894412783985,-3.672E-02));
#363 = CARTESIAN_POINT('',(6.638622052363,1.894412783985,0.6));
#364 = CARTESIAN_POINT('',(6.638622052363,1.894412783985,1.23672));
#365 = CARTESIAN_POINT('',(6.638622052363,1.894412783985,1.27344));
#366 = CARTESIAN_POINT('',(6.47968026419,1.861473022494,-7.344E-02));
#367 = CARTESIAN_POINT('',(6.47968026419,1.861473022494,-3.672E-02));
#368 = CARTESIAN_POINT('',(6.47968026419,1.861473022494,0.6));
#369 = CARTESIAN_POINT('',(6.47968026419,1.861473022494,1.23672));
#370 = CARTESIAN_POINT('',(6.47968026419,1.861473022494,1.27344));
#371 = CARTESIAN_POINT('',(6.356806209904,1.767379415073,-7.344E-02));
#372 = CARTESIAN_POINT('',(6.356806209904,1.767379415073,-3.672E-02));
#373 = CARTESIAN_POINT('',(6.356806209904,1.767379415073,0.6));
#374 = CARTESIAN_POINT('',(6.356806209904,1.767379415073,1.23672));
#375 = CARTESIAN_POINT('',(6.356806209904,1.767379415073,1.27344));
#376 = DEFINITIONAL_REPRESENTATION('',(#377),#410);
#377 = B_SPLINE_CURVE_WITH_KNOTS('',6,(#378,#379,#380,#381,#382,#383,
    #384,#385,#386,#387,#388,#389,#390,#391,#392,#393,#394,#395,#396,
    #397,#398,#399,#400,#401,#402,#403,#404,#405,#406,#407,#408,#409),
  .UNSPECIFIED.,.F.,.F.,(7,5,5,5,5,5,7),(0.,0.156002788941,0.45499607178
    ,0.506997276516,0.524997694316,0.761999000237,1.),.UNSPECIFIED.);
#378 = CARTESIAN_POINT('',(0.,2.880616752077E-15));
#379 = CARTESIAN_POINT('',(3.120023913647E-02,2.89753729338E-15));
#380 = CARTESIAN_POINT('',(6.240060268613E-02,2.861885754325E-15));
#381 = CARTESIAN_POINT('',(9.360037008617E-02,2.903989944515E-15));
#382 = CARTESIAN_POINT('',(0.124800082728,2.956801499883E-15));
#383 = CARTESIAN_POINT('',(0.156000240779,2.939970728333E-15));
#384 = CARTESIAN_POINT('',(0.246997126042,2.951493376718E-15));
#385 = CARTESIAN_POINT('',(0.306804449599,2.947051765764E-15));
#386 = CARTESIAN_POINT('',(0.366599846016,2.920555152459E-15));
#387 = CARTESIAN_POINT('',(0.426395254288,2.892237415334E-15));
#388 = CARTESIAN_POINT('',(0.486202731557,2.851184628359E-15));
#389 = CARTESIAN_POINT('',(0.556399999523,2.797572079675E-15));
#390 = CARTESIAN_POINT('',(0.566799999616,2.789433364607E-15));
#391 = CARTESIAN_POINT('',(0.577199999988,2.781119778482E-15));
#392 = CARTESIAN_POINT('',(0.58760000036,2.772648907324E-15));
#393 = CARTESIAN_POINT('',(0.598000000454,2.764034987723E-15));
#394 = CARTESIAN_POINT('',(0.611999999998,2.752261417178E-15));
#395 = CARTESIAN_POINT('',(0.615599999999,2.749216533364E-15));
#396 = CARTESIAN_POINT('',(0.619200000001,2.74615263595E-15));
#397 = CARTESIAN_POINT('',(0.622800000002,2.743071459552E-15));
#398 = CARTESIAN_POINT('',(0.626400000003,2.739978092852E-15));
#399 = CARTESIAN_POINT('',(0.677399160962,2.696103029428E-15));
#400 = CARTESIAN_POINT('',(0.72480145116,2.652585677245E-15));
#401 = CARTESIAN_POINT('',(0.772200058276,2.607067289647E-15));
#402 = CARTESIAN_POINT('',(0.819598655844,2.560886261058E-15));
#403 = CARTESIAN_POINT('',(0.867000912296,2.515360235952E-15));
#404 = CARTESIAN_POINT('',(0.961999021522,2.426784009924E-15));
#405 = CARTESIAN_POINT('',(1.00960122687,2.383748251603E-15));
#406 = CARTESIAN_POINT('',(1.057199626366,2.347975035427E-15));
#407 = CARTESIAN_POINT('',(1.104797994602,2.316333250352E-15));
#408 = CARTESIAN_POINT('',(1.152400277604,2.289908155585E-15));
#409 = CARTESIAN_POINT('',(1.2,2.287265840197E-15));
#410 = ( GEOMETRIC_REPRESENTATION_CONTEXT(2) 
PARAMETRIC_REPRESENTATION_CONTEXT() REPRESENTATION_CONTEXT('2D SPACE',''
  ) );
#411 = ORIENTED_EDGE('',*,*,#412,.T.);
#412 = EDGE_CURVE('',#267,#413,#415,.T.);
#413 = VERTEX_POINT('',#414);
#414 = CARTESIAN_POINT('',(-6.356806209904,1.767379415073,0.));
#415 = SURFACE_CURVE('',#416,(#424,#435),.PCURVE_S1.);
#416 = B_SPLINE_CURVE_WITH_KNOTS('',3,(#417,#418,#419,#420,#421,#422,
    #423),.UNSPECIFIED.,.F.,.F.,(4,1,1,1,4),(0.,4.614108798024,
    7.655490063173,10.696871328322,15.310980126346),.UNSPECIFIED.);
#417 = CARTESIAN_POINT('',(7.,2.3,0.));
#418 = CARTESIAN_POINT('',(5.856704252268,1.276548247721,0.));
#419 = CARTESIAN_POINT('',(3.565234588859,-4.143979928596E-02,0.));
#420 = CARTESIAN_POINT('',(0.,-0.68217728609,0.));
#421 = CARTESIAN_POINT('',(-3.565234588859,-4.143979928596E-02,0.));
#422 = CARTESIAN_POINT('',(-5.856704252268,1.276548247721,-0.));
#423 = CARTESIAN_POINT('',(-7.,2.3,0.));
#424 = PCURVE('',#54,#425);
#425 = DEFINITIONAL_REPRESENTATION('',(#426),#434);
#426 = B_SPLINE_CURVE_WITH_KNOTS('',3,(#427,#428,#429,#430,#431,#432,
    #433),.UNSPECIFIED.,.F.,.F.,(4,1,1,1,4),(0.,4.614108798024,
    7.655490063173,10.696871328322,15.310980126346),.UNSPECIFIED.);
#427 = CARTESIAN_POINT('',(7.,2.316246586143));
#428 = CARTESIAN_POINT('',(5.856704252268,1.292794833864));
#429 = CARTESIAN_POINT('',(3.565234588859,-2.519321314282E-02));
#430 = CARTESIAN_POINT('',(-1.59632841446E-16,-0.665930699946));
#431 = CARTESIAN_POINT('',(-3.565234588859,-2.519321314282E-02));
#432 = CARTESIAN_POINT('',(-5.856704252268,1.292794833864));
#433 = CARTESIAN_POINT('',(-7.,2.316246586143));
#434 = ( GEOMETRIC_REPRESENTATION_CONTEXT(2) 
PARAMETRIC_REPRESENTATION_CONTEXT() REPRESENTATION_CONTEXT('2D SPACE',''
  ) );
#435 = PCURVE('',#436,#447);
#436 = SURFACE_OF_LINEAR_EXTRUSION('',#437,#445);
#437 = B_SPLINE_CURVE_WITH_KNOTS('',3,(#438,#439,#440,#441,#442,#443,
    #444),.UNSPECIFIED.,.F.,.F.,(4,1,1,1,4),(0.,4.614108798024,
    7.655490063173,10.696871328322,15.310980126346),.UNSPECIFIED.);
#438 = CARTESIAN_POINT('',(7.,2.3,0.));
#439 = CARTESIAN_POINT('',(5.856704252268,1.276548247721,0.));
#440 = CARTESIAN_POINT('',(3.565234588859,-4.143979928596E-02,0.));
#441 = CARTESIAN_POINT('',(0.,-0.68217728609,0.));
#442 = CARTESIAN_POINT('',(-3.565234588859,-4.143979928596E-02,0.));
#443 = CARTESIAN_POINT('',(-5.856704252268,1.276548247721,-0.));
#444 = CARTESIAN_POINT('',(-7.,2.3,0.));
#445 = VECTOR('',#446,1.);
#446 = DIRECTION('',(-0.,-0.,-1.));
#447 = DEFINITIONAL_REPRESENTATION('',(#448),#452);
#448 = LINE('',#449,#450);
#449 = CARTESIAN_POINT('',(0.,0.));
#450 = VECTOR('',#451,1.);
#451 = DIRECTION('',(1.,0.));
#452 = ( GEOMETRIC_REPRESENTATION_CONTEXT(2) 
PARAMETRIC_REPRESENTATION_CONTEXT() REPRESENTATION_CONTEXT('2D SPACE',''
  ) );
#453 = ORIENTED_EDGE('',*,*,#454,.T.);
#454 = EDGE_CURVE('',#413,#455,#457,.T.);
#455 = VERTEX_POINT('',#456);
#456 = CARTESIAN_POINT('',(-7.,1.449799849517,0.));
#457 = SURFACE_CURVE('',#458,(#485,#515),.PCURVE_S1.);
#458 = B_SPLINE_CURVE_WITH_KNOTS('',5,(#459,#460,#461,#462,#463,#464,
    #465,#466,#467,#468,#469,#470,#471,#472,#473,#474,#475,#476,#477,
    #478,#479,#480,#481,#482,#483,#484),.UNSPECIFIED.,.F.,.F.,(6,4,4,4,4
    ,4,6),(0.,0.25999782957,0.493998110651,0.522998636788,0.541998981577
    ,0.770999621791,1.),.UNSPECIFIED.);
#459 = CARTESIAN_POINT('',(-6.356806209904,1.767379415073,0.));
#460 = CARTESIAN_POINT('',(-6.393537050178,1.795506893124,0.));
#461 = CARTESIAN_POINT('',(-6.434340212353,1.818327894836,0.));
#462 = CARTESIAN_POINT('',(-6.478178415433,1.835047171738,0.));
#463 = CARTESIAN_POINT('',(-6.523815320794,1.845193718839,0.));
#464 = CARTESIAN_POINT('',(-6.611470124664,1.851797619808,0.));
#465 = CARTESIAN_POINT('',(-6.653401263479,1.849523052504,0.));
#466 = CARTESIAN_POINT('',(-6.694795854863,1.841774440279,0.));
#467 = CARTESIAN_POINT('',(-6.73471065756,1.828728341882,0.));
#468 = CARTESIAN_POINT('',(-6.776945948933,1.808571031492,0.));
#469 = CARTESIAN_POINT('',(-6.781567298763,1.80627322543,0.));
#470 = CARTESIAN_POINT('',(-6.786151189306,1.803901087068,0.));
#471 = CARTESIAN_POINT('',(-6.790696031552,1.801455438708,0.));
#472 = CARTESIAN_POINT('',(-6.798151311229,1.797287243172,0.));
#473 = CARTESIAN_POINT('',(-6.801084927333,1.795606153121,0.));
#474 = CARTESIAN_POINT('',(-6.804000672015,1.793894129374,0.));
#475 = CARTESIAN_POINT('',(-6.806898111348,1.792151426718,0.));
#476 = CARTESIAN_POINT('',(-6.844472260258,1.769007903897,0.));
#477 = CARTESIAN_POINT('',(-6.876448761752,1.743217644013,0.));
#478 = CARTESIAN_POINT('',(-6.904948904987,1.713474059897,0.));
#479 = CARTESIAN_POINT('',(-6.929350990894,1.680425960216,0.));
#480 = CARTESIAN_POINT('',(-6.969091417171,1.609273985698,0.));
#481 = CARTESIAN_POINT('',(-6.98443261811,1.571164994378,0.));
#482 = CARTESIAN_POINT('',(-6.994811044915,1.531299648748,0.));
#483 = CARTESIAN_POINT('',(-7.,1.490547700567,0.));
#484 = CARTESIAN_POINT('',(-7.,1.449799849517,0.));
#485 = PCURVE('',#54,#486);
#486 = DEFINITIONAL_REPRESENTATION('',(#487),#514);
#487 = B_SPLINE_CURVE_WITH_KNOTS('',5,(#488,#489,#490,#491,#492,#493,
    #494,#495,#496,#497,#498,#499,#500,#501,#502,#503,#504,#505,#506,
    #507,#508,#509,#510,#511,#512,#513),.UNSPECIFIED.,.F.,.F.,(6,4,4,4,4
    ,4,6),(0.,0.25999782957,0.493998110651,0.522998636788,0.541998981577
    ,0.770999621791,1.),.UNSPECIFIED.);
#488 = CARTESIAN_POINT('',(-6.356806209904,1.783626001216));
#489 = CARTESIAN_POINT('',(-6.393537050178,1.811753479267));
#490 = CARTESIAN_POINT('',(-6.434340212353,1.834574480979));
#491 = CARTESIAN_POINT('',(-6.478178415433,1.851293757881));
#492 = CARTESIAN_POINT('',(-6.523815320794,1.861440304982));
#493 = CARTESIAN_POINT('',(-6.611470124664,1.868044205951));
#494 = CARTESIAN_POINT('',(-6.653401263479,1.865769638648));
#495 = CARTESIAN_POINT('',(-6.694795854863,1.858021026423));
#496 = CARTESIAN_POINT('',(-6.73471065756,1.844974928025));
#497 = CARTESIAN_POINT('',(-6.776945948933,1.824817617635));
#498 = CARTESIAN_POINT('',(-6.781567298763,1.822519811573));
#499 = CARTESIAN_POINT('',(-6.786151189306,1.820147673211));
#500 = CARTESIAN_POINT('',(-6.790696031552,1.817702024852));
#501 = CARTESIAN_POINT('',(-6.798151311229,1.813533829315));
#502 = CARTESIAN_POINT('',(-6.801084927333,1.811852739264));
#503 = CARTESIAN_POINT('',(-6.804000672015,1.810140715517));
#504 = CARTESIAN_POINT('',(-6.806898111348,1.808398012861));
#505 = CARTESIAN_POINT('',(-6.844472260258,1.78525449004));
#506 = CARTESIAN_POINT('',(-6.876448761752,1.759464230156));
#507 = CARTESIAN_POINT('',(-6.904948904987,1.72972064604));
#508 = CARTESIAN_POINT('',(-6.929350990894,1.696672546359));
#509 = CARTESIAN_POINT('',(-6.969091417171,1.625520571842));
#510 = CARTESIAN_POINT('',(-6.98443261811,1.587411580521));
#511 = CARTESIAN_POINT('',(-6.994811044915,1.547546234892));
#512 = CARTESIAN_POINT('',(-7.,1.50679428671));
#513 = CARTESIAN_POINT('',(-7.,1.46604643566));
#514 = ( GEOMETRIC_REPRESENTATION_CONTEXT(2) 
PARAMETRIC_REPRESENTATION_CONTEXT() REPRESENTATION_CONTEXT('2D SPACE',''
  ) );
#515 = PCURVE('',#516,#552);
#516 = ( BOUNDED_SURFACE() B_SPLINE_SURFACE(6,2,(
    (#517,#518,#519,#520,#521)
    ,(#522,#523,#524,#525,#526)
    ,(#527,#528,#529,#530,#531)
    ,(#532,#533,#534,#535,#536)
    ,(#537,#538,#539,#540,#541)
    ,(#542,#543,#544,#545,#546)
    ,(#547,#548,#549,#550,#551
)),.UNSPECIFIED.,.F.,.F.,.F.) B_SPLINE_SURFACE_WITH_KNOTS((7,7),(3,1,1,3
    ),(0.,1.2),(-7.344E-02,2.208580048906E-15,1.2,1.27344),
.UNSPECIFIED.) GEOMETRIC_REPRESENTATION_ITEM() RATIONAL_B_SPLINE_SURFACE
((
    (1.064090550538,1.064090550538,1.064090550538,1.064090550538
      ,1.064090550538)
    ,(1.019530908724,1.019530908724,1.019530908724,1.019530908724
      ,1.019530908724)
    ,(0.995869992481,0.995869992481,0.995869992481,0.995869992481
      ,0.995869992481)
    ,(0.98806741099,0.98806741099,0.98806741099,0.98806741099
      ,0.98806741099)
    ,(0.995869992481,0.995869992481,0.995869992481,0.995869992481
      ,0.995869992481)
    ,(1.019530908724,1.019530908724,1.019530908724,1.019530908724
      ,1.019530908724)
    ,(1.064090550538,1.064090550538,1.064090550538,1.064090550538
,1.064090550538))) REPRESENTATION_ITEM('') SURFACE() );
#517 = CARTESIAN_POINT('',(-6.356806209904,1.767379415073,-7.344E-02));
#518 = CARTESIAN_POINT('',(-6.356806209904,1.767379415073,-3.672E-02));
#519 = CARTESIAN_POINT('',(-6.356806209904,1.767379415073,0.6));
#520 = CARTESIAN_POINT('',(-6.356806209904,1.767379415073,1.23672));
#521 = CARTESIAN_POINT('',(-6.356806209904,1.767379415073,1.27344));
#522 = CARTESIAN_POINT('',(-6.47968026419,1.861473022494,-7.344E-02));
#523 = CARTESIAN_POINT('',(-6.47968026419,1.861473022494,-3.672E-02));
#524 = CARTESIAN_POINT('',(-6.47968026419,1.861473022494,0.6));
#525 = CARTESIAN_POINT('',(-6.47968026419,1.861473022494,1.23672));
#526 = CARTESIAN_POINT('',(-6.47968026419,1.861473022494,1.27344));
#527 = CARTESIAN_POINT('',(-6.638622052363,1.894412783985,-7.344E-02));
#528 = CARTESIAN_POINT('',(-6.638622052363,1.894412783985,-3.672E-02));
#529 = CARTESIAN_POINT('',(-6.638622052363,1.894412783985,0.6));
#530 = CARTESIAN_POINT('',(-6.638622052363,1.894412783985,1.23672));
#531 = CARTESIAN_POINT('',(-6.638622052363,1.894412783985,1.27344));
#532 = CARTESIAN_POINT('',(-6.800230055014,1.855325714351,-7.344E-02));
#533 = CARTESIAN_POINT('',(-6.800230055014,1.855325714351,-3.672E-02));
#534 = CARTESIAN_POINT('',(-6.800230055014,1.855325714351,0.6));
#535 = CARTESIAN_POINT('',(-6.800230055014,1.855325714351,1.23672));
#536 = CARTESIAN_POINT('',(-6.800230055014,1.855325714351,1.27344));
#537 = CARTESIAN_POINT('',(-6.929518348183,1.75078154769,-7.344E-02));
#538 = CARTESIAN_POINT('',(-6.929518348183,1.75078154769,-3.672E-02));
#539 = CARTESIAN_POINT('',(-6.929518348183,1.75078154769,0.6));
#540 = CARTESIAN_POINT('',(-6.929518348183,1.75078154769,1.23672));
#541 = CARTESIAN_POINT('',(-6.929518348183,1.75078154769,1.27344));
#542 = CARTESIAN_POINT('',(-7.,1.604563023994,-7.344E-02));
#543 = CARTESIAN_POINT('',(-7.,1.604563023994,-3.672E-02));
#544 = CARTESIAN_POINT('',(-7.,1.604563023994,0.6));
#545 = CARTESIAN_POINT('',(-7.,1.604563023994,1.23672));
#546 = CARTESIAN_POINT('',(-7.,1.604563023994,1.27344));
#547 = CARTESIAN_POINT('',(-7.,1.449799849517,-7.344E-02));
#548 = CARTESIAN_POINT('',(-7.,1.449799849517,-3.672E-02));
#549 = CARTESIAN_POINT('',(-7.,1.449799849517,0.6));
#550 = CARTESIAN_POINT('',(-7.,1.449799849517,1.23672));
#551 = CARTESIAN_POINT('',(-7.,1.449799849517,1.27344));
#552 = DEFINITIONAL_REPRESENTATION('',(#553),#580);
#553 = B_SPLINE_CURVE_WITH_KNOTS('',5,(#554,#555,#556,#557,#558,#559,
    #560,#561,#562,#563,#564,#565,#566,#567,#568,#569,#570,#571,#572,
    #573,#574,#575,#576,#577,#578,#579),.UNSPECIFIED.,.F.,.F.,(6,4,4,4,4
    ,4,6),(0.,0.25999782957,0.493998110651,0.522998636788,0.541998981577
    ,0.770999621791,1.),.UNSPECIFIED.);
#554 = CARTESIAN_POINT('',(0.,2.205526599495E-15));
#555 = CARTESIAN_POINT('',(6.239917688676E-02,2.23807881174E-15));
#556 = CARTESIAN_POINT('',(0.124804620046,2.110428916413E-15));
#557 = CARTESIAN_POINT('',(0.187196058106,2.566888131928E-15));
#558 = CARTESIAN_POINT('',(0.249601728576,2.195359352903E-15));
#559 = CARTESIAN_POINT('',(0.368158980544,2.30072768829E-15));
#560 = CARTESIAN_POINT('',(0.4243224243,2.355044834663E-15));
#561 = CARTESIAN_POINT('',(0.480477494734,2.413862901406E-15));
#562 = CARTESIAN_POINT('',(0.536640951653,2.471171333669E-15));
#563 = CARTESIAN_POINT('',(0.59975999997,2.532883575413E-15));
#564 = CARTESIAN_POINT('',(0.606719999985,2.539621441482E-15));
#565 = CARTESIAN_POINT('',(0.613680000015,2.546300019387E-15));
#566 = CARTESIAN_POINT('',(0.620640000031,2.552928578102E-15));
#567 = CARTESIAN_POINT('',(0.632159999999,2.563835100425E-15));
#568 = CARTESIAN_POINT('',(0.636720000003,2.568103969689E-15));
#569 = CARTESIAN_POINT('',(0.641280000007,2.572350866064E-15));
#570 = CARTESIAN_POINT('',(0.645840000008,2.576575472775E-15));
#571 = CARTESIAN_POINT('',(0.705359156221,2.631074143217E-15));
#572 = CARTESIAN_POINT('',(0.76032227419,2.67636645158E-15));
#573 = CARTESIAN_POINT('',(0.815277856043,2.716091173296E-15));
#574 = CARTESIAN_POINT('',(0.870240936253,2.74174474495E-15));
#575 = CARTESIAN_POINT('',(0.980159000868,2.769208815483E-15));
#576 = CARTESIAN_POINT('',(1.035121946333,2.747129742359E-15));
#577 = CARTESIAN_POINT('',(1.090077285918,2.778699277581E-15));
#578 = CARTESIAN_POINT('',(1.145040184491,2.6723643021E-15));
#579 = CARTESIAN_POINT('',(1.2,2.614553538949E-15));
#580 = ( GEOMETRIC_REPRESENTATION_CONTEXT(2) 
PARAMETRIC_REPRESENTATION_CONTEXT() REPRESENTATION_CONTEXT('2D SPACE',''
  ) );
#581 = ORIENTED_EDGE('',*,*,#582,.T.);
#582 = EDGE_CURVE('',#455,#583,#585,.T.);
#583 = VERTEX_POINT('',#584);
#584 = CARTESIAN_POINT('',(-7.,1.180826089303,0.));
#585 = SURFACE_CURVE('',#586,(#590,#597),.PCURVE_S1.);
#586 = LINE('',#587,#588);
#587 = CARTESIAN_POINT('',(-7.,2.3,0.));
#588 = VECTOR('',#589,1.);
#589 = DIRECTION('',(0.,-1.,0.));
#590 = PCURVE('',#54,#591);
#591 = DEFINITIONAL_REPRESENTATION('',(#592),#596);
#592 = LINE('',#593,#594);
#593 = CARTESIAN_POINT('',(-7.,2.316246586143));
#594 = VECTOR('',#595,1.);
#595 = DIRECTION('',(0.,-1.));
#596 = ( GEOMETRIC_REPRESENTATION_CONTEXT(2) 
PARAMETRIC_REPRESENTATION_CONTEXT() REPRESENTATION_CONTEXT('2D SPACE',''
  ) );
#597 = PCURVE('',#598,#603);
#598 = PLANE('',#599);
#599 = AXIS2_PLACEMENT_3D('',#600,#601,#602);
#600 = CARTESIAN_POINT('',(-7.,2.3,0.));
#601 = DIRECTION('',(1.,0.,-0.));
#602 = DIRECTION('',(0.,-1.,0.));
#603 = DEFINITIONAL_REPRESENTATION('',(#604),#608);
#604 = LINE('',#605,#606);
#605 = CARTESIAN_POINT('',(0.,0.));
#606 = VECTOR('',#607,1.);
#607 = DIRECTION('',(1.,0.));
#608 = ( GEOMETRIC_REPRESENTATION_CONTEXT(2) 
PARAMETRIC_REPRESENTATION_CONTEXT() REPRESENTATION_CONTEXT('2D SPACE',''
  ) );
#609 = ORIENTED_EDGE('',*,*,#610,.F.);
#610 = EDGE_CURVE('',#22,#583,#611,.T.);
#611 = SURFACE_CURVE('',#612,(#625,#641),.PCURVE_S1.);
#612 = B_SPLINE_CURVE_WITH_KNOTS('',6,(#613,#614,#615,#616,#617,#618,
    #619,#620,#621,#622,#623,#624),.UNSPECIFIED.,.F.,.F.,(7,5,7),(0.,
    0.4989988452,1.),.UNSPECIFIED.);
#613 = CARTESIAN_POINT('',(-6.86165111919,0.878272471201,0.));
#614 = CARTESIAN_POINT('',(-6.882626301543,0.896411999567,0.));
#615 = CARTESIAN_POINT('',(-6.902446001404,0.916602338389,0.));
#616 = CARTESIAN_POINT('',(-6.920757829084,0.938731289068,0.));
#617 = CARTESIAN_POINT('',(-6.937221507235,0.962586333156,0.));
#618 = CARTESIAN_POINT('',(-6.951566795405,0.987852852663,0.));
#619 = CARTESIAN_POINT('',(-6.975735928815,1.040586539824,0.));
#620 = CARTESIAN_POINT('',(-6.985542027156,1.06806349717,0.));
#621 = CARTESIAN_POINT('',(-6.992875839159,1.096229912004,0.));
#622 = CARTESIAN_POINT('',(-6.997674414557,1.124670544184,0.));
#623 = CARTESIAN_POINT('',(-7.,1.152983953861,0.));
#624 = CARTESIAN_POINT('',(-7.,1.180826089303,0.));
#625 = PCURVE('',#54,#626);
#626 = DEFINITIONAL_REPRESENTATION('',(#627),#640);
#627 = B_SPLINE_CURVE_WITH_KNOTS('',6,(#628,#629,#630,#631,#632,#633,
    #634,#635,#636,#637,#638,#639),.UNSPECIFIED.,.F.,.F.,(7,5,7),(0.,
    0.4989988452,1.),.UNSPECIFIED.);
#628 = CARTESIAN_POINT('',(-6.86165111919,0.894519057344));
#629 = CARTESIAN_POINT('',(-6.882626301543,0.91265858571));
#630 = CARTESIAN_POINT('',(-6.902446001404,0.932848924532));
#631 = CARTESIAN_POINT('',(-6.920757829084,0.954977875212));
#632 = CARTESIAN_POINT('',(-6.937221507235,0.978832919299));
#633 = CARTESIAN_POINT('',(-6.951566795405,1.004099438806));
#634 = CARTESIAN_POINT('',(-6.975735928815,1.056833125967));
#635 = CARTESIAN_POINT('',(-6.985542027156,1.084310083313));
#636 = CARTESIAN_POINT('',(-6.992875839159,1.112476498147));
#637 = CARTESIAN_POINT('',(-6.997674414557,1.140917130328));
#638 = CARTESIAN_POINT('',(-7.,1.169230540004));
#639 = CARTESIAN_POINT('',(-7.,1.197072675446));
#640 = ( GEOMETRIC_REPRESENTATION_CONTEXT(2) 
PARAMETRIC_REPRESENTATION_CONTEXT() REPRESENTATION_CONTEXT('2D SPACE',''
  ) );
#641 = PCURVE('',#87,#642);
#642 = DEFINITIONAL_REPRESENTATION('',(#643),#656);
#643 = B_SPLINE_CURVE_WITH_KNOTS('',6,(#644,#645,#646,#647,#648,#649,
    #650,#651,#652,#653,#654,#655),.UNSPECIFIED.,.F.,.F.,(7,5,7),(0.,
    0.4989988452,1.),.UNSPECIFIED.);
#644 = CARTESIAN_POINT('',(0.,3.295310940815E-15));
#645 = CARTESIAN_POINT('',(0.10002574923,3.38161591586E-15));
#646 = CARTESIAN_POINT('',(0.199925700185,3.438036977148E-15));
#647 = CARTESIAN_POINT('',(0.299717146529,3.538699720982E-15));
#648 = CARTESIAN_POINT('',(0.399434356068,3.575393814663E-15));
#649 = CARTESIAN_POINT('',(0.499118692034,3.631802635594E-15));
#650 = CARTESIAN_POINT('',(0.698881294542,3.710687644705E-15));
#651 = CARTESIAN_POINT('',(0.798965086333,3.736760679862E-15));
#652 = CARTESIAN_POINT('',(0.899081520404,3.763923501316E-15));
#653 = CARTESIAN_POINT('',(0.999272542133,3.75666591459E-15));
#654 = CARTESIAN_POINT('',(1.099572889047,3.763325391272E-15));
#655 = CARTESIAN_POINT('',(1.2,3.7459053637E-15));
#656 = ( GEOMETRIC_REPRESENTATION_CONTEXT(2) 
PARAMETRIC_REPRESENTATION_CONTEXT() REPRESENTATION_CONTEXT('2D SPACE',''
  ) );
#657 = ADVANCED_FACE('',(#658),#87,.F.);
#658 = FACE_BOUND('',#659,.F.);
#659 = EDGE_LOOP('',(#660,#661,#685,#733));
#660 = ORIENTED_EDGE('',*,*,#610,.T.);
#661 = ORIENTED_EDGE('',*,*,#662,.T.);
#662 = EDGE_CURVE('',#583,#663,#665,.T.);
#663 = VERTEX_POINT('',#664);
#664 = CARTESIAN_POINT('',(-7.,1.180826089303,1.2));
#665 = SURFACE_CURVE('',#666,(#672,#679),.PCURVE_S1.);
#666 = B_SPLINE_CURVE_WITH_KNOTS('',2,(#667,#668,#669,#670,#671),
  .UNSPECIFIED.,.F.,.F.,(3,1,1,3),(-7.344E-02,3.415210558854E-15,1.2,
    1.27344),.UNSPECIFIED.);
#667 = CARTESIAN_POINT('',(-7.,1.180826089303,-7.344E-02));
#668 = CARTESIAN_POINT('',(-7.,1.180826089303,-3.672E-02));
#669 = CARTESIAN_POINT('',(-7.,1.180826089303,0.6));
#670 = CARTESIAN_POINT('',(-7.,1.180826089303,1.23672));
#671 = CARTESIAN_POINT('',(-7.,1.180826089303,1.27344));
#672 = PCURVE('',#87,#673);
#673 = DEFINITIONAL_REPRESENTATION('',(#674),#678);
#674 = LINE('',#675,#676);
#675 = CARTESIAN_POINT('',(1.2,0.));
#676 = VECTOR('',#677,1.);
#677 = DIRECTION('',(0.,1.));
#678 = ( GEOMETRIC_REPRESENTATION_CONTEXT(2) 
PARAMETRIC_REPRESENTATION_CONTEXT() REPRESENTATION_CONTEXT('2D SPACE',''
  ) );
#679 = PCURVE('',#598,#680);
#680 = DEFINITIONAL_REPRESENTATION('',(#681),#684);
#681 = B_SPLINE_CURVE_WITH_KNOTS('',1,(#682,#683),.UNSPECIFIED.,.F.,.F.,
  (2,2),(3.415210558854E-15,1.2),.PIECEWISE_BEZIER_KNOTS.);
#682 = CARTESIAN_POINT('',(1.119173910697,4.440892098501E-16));
#683 = CARTESIAN_POINT('',(1.119173910697,-1.2));
#684 = ( GEOMETRIC_REPRESENTATION_CONTEXT(2) 
PARAMETRIC_REPRESENTATION_CONTEXT() REPRESENTATION_CONTEXT('2D SPACE',''
  ) );
#685 = ORIENTED_EDGE('',*,*,#686,.F.);
#686 = EDGE_CURVE('',#71,#663,#687,.T.);
#687 = SURFACE_CURVE('',#688,(#701,#717),.PCURVE_S1.);
#688 = B_SPLINE_CURVE_WITH_KNOTS('',6,(#689,#690,#691,#692,#693,#694,
    #695,#696,#697,#698,#699,#700),.UNSPECIFIED.,.F.,.F.,(7,5,7),(0.,
    0.4989988452,1.),.UNSPECIFIED.);
#689 = CARTESIAN_POINT('',(-6.86165111919,0.878272471201,1.2));
#690 = CARTESIAN_POINT('',(-6.882626301543,0.896411999567,1.2));
#691 = CARTESIAN_POINT('',(-6.902446001404,0.916602338389,1.2));
#692 = CARTESIAN_POINT('',(-6.920757829084,0.938731289068,1.2));
#693 = CARTESIAN_POINT('',(-6.937221507235,0.962586333156,1.2));
#694 = CARTESIAN_POINT('',(-6.951566795405,0.987852852663,1.2));
#695 = CARTESIAN_POINT('',(-6.975735928815,1.040586539824,1.2));
#696 = CARTESIAN_POINT('',(-6.985542027156,1.06806349717,1.2));
#697 = CARTESIAN_POINT('',(-6.992875839159,1.096229912004,1.2));
#698 = CARTESIAN_POINT('',(-6.997674414557,1.124670544184,1.2));
#699 = CARTESIAN_POINT('',(-7.,1.152983953861,1.2));
#700 = CARTESIAN_POINT('',(-7.,1.180826089303,1.2));
#701 = PCURVE('',#87,#702);
#702 = DEFINITIONAL_REPRESENTATION('',(#703),#716);
#703 = B_SPLINE_CURVE_WITH_KNOTS('',6,(#704,#705,#706,#707,#708,#709,
    #710,#711,#712,#713,#714,#715),.UNSPECIFIED.,.F.,.F.,(7,5,7),(0.,
    0.4989988452,1.),.UNSPECIFIED.);
#704 = CARTESIAN_POINT('',(0.,1.2));
#705 = CARTESIAN_POINT('',(0.10002574923,1.2));
#706 = CARTESIAN_POINT('',(0.199925700185,1.2));
#707 = CARTESIAN_POINT('',(0.299717146529,1.2));
#708 = CARTESIAN_POINT('',(0.399434356068,1.2));
#709 = CARTESIAN_POINT('',(0.499118692034,1.2));
#710 = CARTESIAN_POINT('',(0.698881294542,1.2));
#711 = CARTESIAN_POINT('',(0.798965086333,1.2));
#712 = CARTESIAN_POINT('',(0.899081520404,1.2));
#713 = CARTESIAN_POINT('',(0.999272542133,1.2));
#714 = CARTESIAN_POINT('',(1.099572889047,1.2));
#715 = CARTESIAN_POINT('',(1.2,1.2));
#716 = ( GEOMETRIC_REPRESENTATION_CONTEXT(2) 
PARAMETRIC_REPRESENTATION_CONTEXT() REPRESENTATION_CONTEXT('2D SPACE',''
  ) );
#717 = PCURVE('',#130,#718);
#718 = DEFINITIONAL_REPRESENTATION('',(#719),#732);
#719 = B_SPLINE_CURVE_WITH_KNOTS('',6,(#720,#721,#722,#723,#724,#725,
    #726,#727,#728,#729,#730,#731),.UNSPECIFIED.,.F.,.F.,(7,5,7),(0.,
    0.4989988452,1.),.UNSPECIFIED.);
#720 = CARTESIAN_POINT('',(-6.86165111919,0.894519057344));
#721 = CARTESIAN_POINT('',(-6.882626301543,0.91265858571));
#722 = CARTESIAN_POINT('',(-6.902446001404,0.932848924532));
#723 = CARTESIAN_POINT('',(-6.920757829084,0.954977875212));
#724 = CARTESIAN_POINT('',(-6.937221507235,0.978832919299));
#725 = CARTESIAN_POINT('',(-6.951566795405,1.004099438806));
#726 = CARTESIAN_POINT('',(-6.975735928815,1.056833125967));
#727 = CARTESIAN_POINT('',(-6.985542027156,1.084310083313));
#728 = CARTESIAN_POINT('',(-6.992875839159,1.112476498147));
#729 = CARTESIAN_POINT('',(-6.997674414557,1.140917130328));
#730 = CARTESIAN_POINT('',(-7.,1.169230540004));
#731 = CARTESIAN_POINT('',(-7.,1.197072675446));
#732 = ( GEOMETRIC_REPRESENTATION_CONTEXT(2) 
PARAMETRIC_REPRESENTATION_CONTEXT() REPRESENTATION_CONTEXT('2D SPACE',''
  ) );
#733 = ORIENTED_EDGE('',*,*,#70,.F.);
#734 = ADVANCED_FACE('',(#735),#161,.T.);
#735 = FACE_BOUND('',#736,.T.);
#736 = EDGE_LOOP('',(#737,#738,#762,#810));
#737 = ORIENTED_EDGE('',*,*,#188,.T.);
#738 = ORIENTED_EDGE('',*,*,#739,.T.);
#739 = EDGE_CURVE('',#189,#740,#742,.T.);
#740 = VERTEX_POINT('',#741);
#741 = CARTESIAN_POINT('',(7.,1.180826089303,1.2));
#742 = SURFACE_CURVE('',#743,(#749,#756),.PCURVE_S1.);
#743 = B_SPLINE_CURVE_WITH_KNOTS('',2,(#744,#745,#746,#747,#748),
  .UNSPECIFIED.,.F.,.F.,(3,1,1,3),(-7.344E-02,3.415210558854E-15,1.2,
    1.27344),.UNSPECIFIED.);
#744 = CARTESIAN_POINT('',(7.,1.180826089303,-7.344E-02));
#745 = CARTESIAN_POINT('',(7.,1.180826089303,-3.672E-02));
#746 = CARTESIAN_POINT('',(7.,1.180826089303,0.6));
#747 = CARTESIAN_POINT('',(7.,1.180826089303,1.23672));
#748 = CARTESIAN_POINT('',(7.,1.180826089303,1.27344));
#749 = PCURVE('',#161,#750);
#750 = DEFINITIONAL_REPRESENTATION('',(#751),#755);
#751 = LINE('',#752,#753);
#752 = CARTESIAN_POINT('',(1.2,0.));
#753 = VECTOR('',#754,1.);
#754 = DIRECTION('',(0.,1.));
#755 = ( GEOMETRIC_REPRESENTATION_CONTEXT(2) 
PARAMETRIC_REPRESENTATION_CONTEXT() REPRESENTATION_CONTEXT('2D SPACE',''
  ) );
#756 = PCURVE('',#254,#757);
#757 = DEFINITIONAL_REPRESENTATION('',(#758),#761);
#758 = B_SPLINE_CURVE_WITH_KNOTS('',1,(#759,#760),.UNSPECIFIED.,.F.,.F.,
  (2,2),(3.415210558854E-15,1.2),.PIECEWISE_BEZIER_KNOTS.);
#759 = CARTESIAN_POINT('',(0.180826089303,4.440892098501E-16));
#760 = CARTESIAN_POINT('',(0.180826089303,-1.2));
#761 = ( GEOMETRIC_REPRESENTATION_CONTEXT(2) 
PARAMETRIC_REPRESENTATION_CONTEXT() REPRESENTATION_CONTEXT('2D SPACE',''
  ) );
#762 = ORIENTED_EDGE('',*,*,#763,.F.);
#763 = EDGE_CURVE('',#111,#740,#764,.T.);
#764 = SURFACE_CURVE('',#765,(#778,#794),.PCURVE_S1.);
#765 = B_SPLINE_CURVE_WITH_KNOTS('',6,(#766,#767,#768,#769,#770,#771,
    #772,#773,#774,#775,#776,#777),.UNSPECIFIED.,.F.,.F.,(7,5,7),(0.,
    0.4989988452,1.),.UNSPECIFIED.);
#766 = CARTESIAN_POINT('',(6.86165111919,0.878272471201,1.2));
#767 = CARTESIAN_POINT('',(6.882626301543,0.896411999567,1.2));
#768 = CARTESIAN_POINT('',(6.902446001404,0.916602338389,1.2));
#769 = CARTESIAN_POINT('',(6.920757829084,0.938731289068,1.2));
#770 = CARTESIAN_POINT('',(6.937221507235,0.962586333156,1.2));
#771 = CARTESIAN_POINT('',(6.951566795405,0.987852852663,1.2));
#772 = CARTESIAN_POINT('',(6.975735928815,1.040586539824,1.2));
#773 = CARTESIAN_POINT('',(6.985542027156,1.06806349717,1.2));
#774 = CARTESIAN_POINT('',(6.992875839159,1.096229912004,1.2));
#775 = CARTESIAN_POINT('',(6.997674414557,1.124670544184,1.2));
#776 = CARTESIAN_POINT('',(7.,1.152983953861,1.2));
#777 = CARTESIAN_POINT('',(7.,1.180826089303,1.2));
#778 = PCURVE('',#161,#779);
#779 = DEFINITIONAL_REPRESENTATION('',(#780),#793);
#780 = B_SPLINE_CURVE_WITH_KNOTS('',6,(#781,#782,#783,#784,#785,#786,
    #787,#788,#789,#790,#791,#792),.UNSPECIFIED.,.F.,.F.,(7,5,7),(0.,
    0.4989988452,1.),.UNSPECIFIED.);
#781 = CARTESIAN_POINT('',(0.,1.2));
#782 = CARTESIAN_POINT('',(0.10002574923,1.2));
#783 = CARTESIAN_POINT('',(0.199925700185,1.2));
#784 = CARTESIAN_POINT('',(0.299717146529,1.2));
#785 = CARTESIAN_POINT('',(0.399434356068,1.2));
#786 = CARTESIAN_POINT('',(0.499118692034,1.2));
#787 = CARTESIAN_POINT('',(0.698881294542,1.2));
#788 = CARTESIAN_POINT('',(0.798965086333,1.2));
#789 = CARTESIAN_POINT('',(0.899081520404,1.2));
#790 = CARTESIAN_POINT('',(0.999272542133,1.2));
#791 = CARTESIAN_POINT('',(1.099572889047,1.2));
#792 = CARTESIAN_POINT('',(1.2,1.2));
#793 = ( GEOMETRIC_REPRESENTATION_CONTEXT(2) 
PARAMETRIC_REPRESENTATION_CONTEXT() REPRESENTATION_CONTEXT('2D SPACE',''
  ) );
#794 = PCURVE('',#130,#795);
#795 = DEFINITIONAL_REPRESENTATION('',(#796),#809);
#796 = B_SPLINE_CURVE_WITH_KNOTS('',6,(#797,#798,#799,#800,#801,#802,
    #803,#804,#805,#806,#807,#808),.UNSPECIFIED.,.F.,.F.,(7,5,7),(0.,
    0.4989988452,1.),.UNSPECIFIED.);
#797 = CARTESIAN_POINT('',(6.86165111919,0.894519057344));
#798 = CARTESIAN_POINT('',(6.882626301543,0.91265858571));
#799 = CARTESIAN_POINT('',(6.902446001404,0.932848924532));
#800 = CARTESIAN_POINT('',(6.920757829084,0.954977875212));
#801 = CARTESIAN_POINT('',(6.937221507235,0.978832919299));
#802 = CARTESIAN_POINT('',(6.951566795405,1.004099438806));
#803 = CARTESIAN_POINT('',(6.975735928815,1.056833125967));
#804 = CARTESIAN_POINT('',(6.985542027156,1.084310083313));
#805 = CARTESIAN_POINT('',(6.992875839159,1.112476498147));
#806 = CARTESIAN_POINT('',(6.997674414557,1.140917130328));
#807 = CARTESIAN_POINT('',(7.,1.169230540004));
#808 = CARTESIAN_POINT('',(7.,1.197072675446));
#809 = ( GEOMETRIC_REPRESENTATION_CONTEXT(2) 
PARAMETRIC_REPRESENTATION_CONTEXT() REPRESENTATION_CONTEXT('2D SPACE',''
  ) );
#810 = ORIENTED_EDGE('',*,*,#146,.F.);
#811 = ADVANCED_FACE('',(#812),#130,.T.);
#812 = FACE_BOUND('',#813,.T.);
#813 = EDGE_LOOP('',(#814,#815,#816,#839,#949,#980,#1072,#1093));
#814 = ORIENTED_EDGE('',*,*,#110,.T.);
#815 = ORIENTED_EDGE('',*,*,#763,.T.);
#816 = ORIENTED_EDGE('',*,*,#817,.T.);
#817 = EDGE_CURVE('',#740,#818,#820,.T.);
#818 = VERTEX_POINT('',#819);
#819 = CARTESIAN_POINT('',(7.,1.449799849517,1.2));
#820 = SURFACE_CURVE('',#821,(#825,#832),.PCURVE_S1.);
#821 = LINE('',#822,#823);
#822 = CARTESIAN_POINT('',(7.,1.,1.2));
#823 = VECTOR('',#824,1.);
#824 = DIRECTION('',(0.,1.,0.));
#825 = PCURVE('',#130,#826);
#826 = DEFINITIONAL_REPRESENTATION('',(#827),#831);
#827 = LINE('',#828,#829);
#828 = CARTESIAN_POINT('',(7.,1.016246586143));
#829 = VECTOR('',#830,1.);
#830 = DIRECTION('',(0.,1.));
#831 = ( GEOMETRIC_REPRESENTATION_CONTEXT(2) 
PARAMETRIC_REPRESENTATION_CONTEXT() REPRESENTATION_CONTEXT('2D SPACE',''
  ) );
#832 = PCURVE('',#254,#833);
#833 = DEFINITIONAL_REPRESENTATION('',(#834),#838);
#834 = LINE('',#835,#836);
#835 = CARTESIAN_POINT('',(0.,-1.2));
#836 = VECTOR('',#837,1.);
#837 = DIRECTION('',(1.,0.));
#838 = ( GEOMETRIC_REPRESENTATION_CONTEXT(2) 
PARAMETRIC_REPRESENTATION_CONTEXT() REPRESENTATION_CONTEXT('2D SPACE',''
  ) );
#839 = ORIENTED_EDGE('',*,*,#840,.T.);
#840 = EDGE_CURVE('',#818,#841,#843,.T.);
#841 = VERTEX_POINT('',#842);
#842 = CARTESIAN_POINT('',(6.356806209904,1.767379415073,1.2));
#843 = SURFACE_CURVE('',#844,(#877,#913),.PCURVE_S1.);
#844 = B_SPLINE_CURVE_WITH_KNOTS('',6,(#845,#846,#847,#848,#849,#850,
    #851,#852,#853,#854,#855,#856,#857,#858,#859,#860,#861,#862,#863,
    #864,#865,#866,#867,#868,#869,#870,#871,#872,#873,#874,#875,#876),
  .UNSPECIFIED.,.F.,.F.,(7,5,5,5,5,5,7),(0.,0.156002788941,0.45499607178
    ,0.506997276516,0.524997694316,0.761999000237,1.),.UNSPECIFIED.);
#845 = CARTESIAN_POINT('',(7.,1.449799849517,1.2));
#846 = CARTESIAN_POINT('',(7.,1.472932072311,1.2));
#847 = CARTESIAN_POINT('',(6.998394683749,1.496064952512,1.2));
#848 = CARTESIAN_POINT('',(6.995183962207,1.519058409741,1.2));
#849 = CARTESIAN_POINT('',(6.990383990662,1.54177342213,1.2));
#850 = CARTESIAN_POINT('',(6.984026814503,1.564073797795,1.2));
#851 = CARTESIAN_POINT('',(6.961082590892,1.627521715547,1.2));
#852 = CARTESIAN_POINT('',(6.940456863855,1.667217325103,1.2));
#853 = CARTESIAN_POINT('',(6.914619047487,1.703974692877,1.2));
#854 = CARTESIAN_POINT('',(6.884112698629,1.736960406558,1.2));
#855 = CARTESIAN_POINT('',(6.849638515033,1.765467860345,1.2));
#856 = CARTESIAN_POINT('',(6.805506454426,1.793058580087,1.2));
#857 = CARTESIAN_POINT('',(6.798873555223,1.796995003753,1.2));
#858 = CARTESIAN_POINT('',(6.792150473749,1.800777440323,1.2));
#859 = CARTESIAN_POINT('',(6.785341685223,1.804403326389,1.2));
#860 = CARTESIAN_POINT('',(6.778451760366,1.807870272961,1.2));
#861 = CARTESIAN_POINT('',(6.769073920876,1.81232037831,1.2));
#862 = CARTESIAN_POINT('',(6.766653313219,1.813445381424,1.2));
#863 = CARTESIAN_POINT('',(6.764223735734,1.814550983081,1.2));
#864 = CARTESIAN_POINT('',(6.761785382904,1.815637094152,1.2));
#865 = CARTESIAN_POINT('',(6.759338450384,1.81670362811,1.2));
#866 = CARTESIAN_POINT('',(6.724555388038,1.831534083888,1.2));
#867 = CARTESIAN_POINT('',(6.690772230008,1.841910060525,1.2));
#868 = CARTESIAN_POINT('',(6.655987502359,1.848684926294,1.2));
#869 = CARTESIAN_POINT('',(6.620681767115,1.85174796048,1.2));
#870 = CARTESIAN_POINT('',(6.585347493407,1.851073299066,1.2));
#871 = CARTESIAN_POINT('',(6.515453895953,1.842352361765,1.2));
#872 = CARTESIAN_POINT('',(6.480893811584,1.834274411357,1.2));
#873 = CARTESIAN_POINT('',(6.447289836864,1.822550035063,1.2));
#874 = CARTESIAN_POINT('',(6.415119014159,1.807327468009,1.2));
#875 = CARTESIAN_POINT('',(6.384825454511,1.788835790201,1.2));
#876 = CARTESIAN_POINT('',(6.356806209904,1.767379415073,1.2));
#877 = PCURVE('',#130,#878);
#878 = DEFINITIONAL_REPRESENTATION('',(#879),#912);
#879 = B_SPLINE_CURVE_WITH_KNOTS('',6,(#880,#881,#882,#883,#884,#885,
    #886,#887,#888,#889,#890,#891,#892,#893,#894,#895,#896,#897,#898,
    #899,#900,#901,#902,#903,#904,#905,#906,#907,#908,#909,#910,#911),
  .UNSPECIFIED.,.F.,.F.,(7,5,5,5,5,5,7),(0.,0.156002788941,0.45499607178
    ,0.506997276516,0.524997694316,0.761999000237,1.),.UNSPECIFIED.);
#880 = CARTESIAN_POINT('',(7.,1.46604643566));
#881 = CARTESIAN_POINT('',(7.,1.489178658454));
#882 = CARTESIAN_POINT('',(6.998394683749,1.512311538655));
#883 = CARTESIAN_POINT('',(6.995183962207,1.535304995884));
#884 = CARTESIAN_POINT('',(6.990383990662,1.558020008273));
#885 = CARTESIAN_POINT('',(6.984026814503,1.580320383938));
#886 = CARTESIAN_POINT('',(6.961082590892,1.64376830169));
#887 = CARTESIAN_POINT('',(6.940456863855,1.683463911246));
#888 = CARTESIAN_POINT('',(6.914619047487,1.72022127902));
#889 = CARTESIAN_POINT('',(6.884112698629,1.753206992702));
#890 = CARTESIAN_POINT('',(6.849638515033,1.781714446488));
#891 = CARTESIAN_POINT('',(6.805506454426,1.80930516623));
#892 = CARTESIAN_POINT('',(6.798873555223,1.813241589896));
#893 = CARTESIAN_POINT('',(6.792150473749,1.817024026467));
#894 = CARTESIAN_POINT('',(6.785341685223,1.820649912532));
#895 = CARTESIAN_POINT('',(6.778451760366,1.824116859104));
#896 = CARTESIAN_POINT('',(6.769073920876,1.828566964453));
#897 = CARTESIAN_POINT('',(6.766653313219,1.829691967568));
#898 = CARTESIAN_POINT('',(6.764223735734,1.830797569225));
#899 = CARTESIAN_POINT('',(6.761785382904,1.831883680295));
#900 = CARTESIAN_POINT('',(6.759338450384,1.832950214253));
#901 = CARTESIAN_POINT('',(6.724555388038,1.847780670031));
#902 = CARTESIAN_POINT('',(6.690772230008,1.858156646668));
#903 = CARTESIAN_POINT('',(6.655987502359,1.864931512437));
#904 = CARTESIAN_POINT('',(6.620681767115,1.867994546623));
#905 = CARTESIAN_POINT('',(6.585347493407,1.867319885209));
#906 = CARTESIAN_POINT('',(6.515453895953,1.858598947908));
#907 = CARTESIAN_POINT('',(6.480893811584,1.8505209975));
#908 = CARTESIAN_POINT('',(6.447289836864,1.838796621206));
#909 = CARTESIAN_POINT('',(6.415119014159,1.823574054152));
#910 = CARTESIAN_POINT('',(6.384825454511,1.805082376344));
#911 = CARTESIAN_POINT('',(6.356806209904,1.783626001216));
#912 = ( GEOMETRIC_REPRESENTATION_CONTEXT(2) 
PARAMETRIC_REPRESENTATION_CONTEXT() REPRESENTATION_CONTEXT('2D SPACE',''
  ) );
#913 = PCURVE('',#340,#914);
#914 = DEFINITIONAL_REPRESENTATION('',(#915),#948);
#915 = B_SPLINE_CURVE_WITH_KNOTS('',6,(#916,#917,#918,#919,#920,#921,
    #922,#923,#924,#925,#926,#927,#928,#929,#930,#931,#932,#933,#934,
    #935,#936,#937,#938,#939,#940,#941,#942,#943,#944,#945,#946,#947),
  .UNSPECIFIED.,.F.,.F.,(7,5,5,5,5,5,7),(0.,0.156002788941,0.45499607178
    ,0.506997276516,0.524997694316,0.761999000237,1.),.UNSPECIFIED.);
#916 = CARTESIAN_POINT('',(0.,1.2));
#917 = CARTESIAN_POINT('',(3.120023913647E-02,1.2));
#918 = CARTESIAN_POINT('',(6.240060268613E-02,1.2));
#919 = CARTESIAN_POINT('',(9.360037008617E-02,1.2));
#920 = CARTESIAN_POINT('',(0.124800082728,1.2));
#921 = CARTESIAN_POINT('',(0.156000240779,1.2));
#922 = CARTESIAN_POINT('',(0.246997126042,1.2));
#923 = CARTESIAN_POINT('',(0.306804449599,1.2));
#924 = CARTESIAN_POINT('',(0.366599846016,1.2));
#925 = CARTESIAN_POINT('',(0.426395254288,1.2));
#926 = CARTESIAN_POINT('',(0.486202731557,1.2));
#927 = CARTESIAN_POINT('',(0.556399999523,1.2));
#928 = CARTESIAN_POINT('',(0.566799999616,1.2));
#929 = CARTESIAN_POINT('',(0.577199999988,1.2));
#930 = CARTESIAN_POINT('',(0.58760000036,1.2));
#931 = CARTESIAN_POINT('',(0.598000000454,1.2));
#932 = CARTESIAN_POINT('',(0.611999999998,1.2));
#933 = CARTESIAN_POINT('',(0.615599999999,1.2));
#934 = CARTESIAN_POINT('',(0.619200000001,1.2));
#935 = CARTESIAN_POINT('',(0.622800000002,1.2));
#936 = CARTESIAN_POINT('',(0.626400000003,1.2));
#937 = CARTESIAN_POINT('',(0.677399160962,1.2));
#938 = CARTESIAN_POINT('',(0.72480145116,1.2));
#939 = CARTESIAN_POINT('',(0.772200058276,1.2));
#940 = CARTESIAN_POINT('',(0.819598655844,1.2));
#941 = CARTESIAN_POINT('',(0.867000912296,1.2));
#942 = CARTESIAN_POINT('',(0.961999021522,1.2));
#943 = CARTESIAN_POINT('',(1.00960122687,1.2));
#944 = CARTESIAN_POINT('',(1.057199626366,1.2));
#945 = CARTESIAN_POINT('',(1.104797994602,1.2));
#946 = CARTESIAN_POINT('',(1.152400277604,1.2));
#947 = CARTESIAN_POINT('',(1.2,1.2));
#948 = ( GEOMETRIC_REPRESENTATION_CONTEXT(2) 
PARAMETRIC_REPRESENTATION_CONTEXT() REPRESENTATION_CONTEXT('2D SPACE',''
  ) );
#949 = ORIENTED_EDGE('',*,*,#950,.T.);
#950 = EDGE_CURVE('',#841,#951,#953,.T.);
#951 = VERTEX_POINT('',#952);
#952 = CARTESIAN_POINT('',(-6.356806209904,1.767379415073,1.2));
#953 = SURFACE_CURVE('',#954,(#962,#973),.PCURVE_S1.);
#954 = B_SPLINE_CURVE_WITH_KNOTS('',3,(#955,#956,#957,#958,#959,#960,
    #961),.UNSPECIFIED.,.F.,.F.,(4,1,1,1,4),(0.,4.614108798024,
    7.655490063173,10.696871328322,15.310980126346),.UNSPECIFIED.);
#955 = CARTESIAN_POINT('',(7.,2.3,1.2));
#956 = CARTESIAN_POINT('',(5.856704252268,1.276548247721,1.2));
#957 = CARTESIAN_POINT('',(3.565234588859,-4.143979928596E-02,1.2));
#958 = CARTESIAN_POINT('',(0.,-0.68217728609,1.2));
#959 = CARTESIAN_POINT('',(-3.565234588859,-4.143979928596E-02,1.2));
#960 = CARTESIAN_POINT('',(-5.856704252268,1.276548247721,1.2));
#961 = CARTESIAN_POINT('',(-7.,2.3,1.2));
#962 = PCURVE('',#130,#963);
#963 = DEFINITIONAL_REPRESENTATION('',(#964),#972);
#964 = B_SPLINE_CURVE_WITH_KNOTS('',3,(#965,#966,#967,#968,#969,#970,
    #971),.UNSPECIFIED.,.F.,.F.,(4,1,1,1,4),(0.,4.614108798024,
    7.655490063173,10.696871328322,15.310980126346),.UNSPECIFIED.);
#965 = CARTESIAN_POINT('',(7.,2.316246586143));
#966 = CARTESIAN_POINT('',(5.856704252268,1.292794833864));
#967 = CARTESIAN_POINT('',(3.565234588859,-2.519321314282E-02));
#968 = CARTESIAN_POINT('',(-1.59632841446E-16,-0.665930699946));
#969 = CARTESIAN_POINT('',(-3.565234588859,-2.519321314282E-02));
#970 = CARTESIAN_POINT('',(-5.856704252268,1.292794833864));
#971 = CARTESIAN_POINT('',(-7.,2.316246586143));
#972 = ( GEOMETRIC_REPRESENTATION_CONTEXT(2) 
PARAMETRIC_REPRESENTATION_CONTEXT() REPRESENTATION_CONTEXT('2D SPACE',''
  ) );
#973 = PCURVE('',#436,#974);
#974 = DEFINITIONAL_REPRESENTATION('',(#975),#979);
#975 = LINE('',#976,#977);
#976 = CARTESIAN_POINT('',(0.,-1.2));
#977 = VECTOR('',#978,1.);
#978 = DIRECTION('',(1.,0.));
#979 = ( GEOMETRIC_REPRESENTATION_CONTEXT(2) 
PARAMETRIC_REPRESENTATION_CONTEXT() REPRESENTATION_CONTEXT('2D SPACE',''
  ) );
#980 = ORIENTED_EDGE('',*,*,#981,.T.);
#981 = EDGE_CURVE('',#951,#982,#984,.T.);
#982 = VERTEX_POINT('',#983);
#983 = CARTESIAN_POINT('',(-7.,1.449799849517,1.2));
#984 = SURFACE_CURVE('',#985,(#1012,#1042),.PCURVE_S1.);
#985 = B_SPLINE_CURVE_WITH_KNOTS('',5,(#986,#987,#988,#989,#990,#991,
    #992,#993,#994,#995,#996,#997,#998,#999,#1000,#1001,#1002,#1003,
    #1004,#1005,#1006,#1007,#1008,#1009,#1010,#1011),.UNSPECIFIED.,.F.,
  .F.,(6,4,4,4,4,4,6),(0.,0.25999782957,0.49399811065,0.522998636788,
    0.541998981577,0.770999621791,1.),.UNSPECIFIED.);
#986 = CARTESIAN_POINT('',(-6.356806209904,1.767379415073,1.2));
#987 = CARTESIAN_POINT('',(-6.393537050178,1.795506893124,1.2));
#988 = CARTESIAN_POINT('',(-6.434340212353,1.818327894836,1.2));
#989 = CARTESIAN_POINT('',(-6.478178415433,1.835047171738,1.2));
#990 = CARTESIAN_POINT('',(-6.523815320794,1.845193718839,1.2));
#991 = CARTESIAN_POINT('',(-6.611470124664,1.851797619808,1.2));
#992 = CARTESIAN_POINT('',(-6.653401263479,1.849523052504,1.2));
#993 = CARTESIAN_POINT('',(-6.694795854863,1.841774440279,1.2));
#994 = CARTESIAN_POINT('',(-6.73471065756,1.828728341882,1.2));
#995 = CARTESIAN_POINT('',(-6.776945948933,1.808571031492,1.2));
#996 = CARTESIAN_POINT('',(-6.781567298763,1.80627322543,1.2));
#997 = CARTESIAN_POINT('',(-6.786151189306,1.803901087068,1.2));
#998 = CARTESIAN_POINT('',(-6.790696031552,1.801455438708,1.2));
#999 = CARTESIAN_POINT('',(-6.798151311229,1.797287243172,1.2));
#1000 = CARTESIAN_POINT('',(-6.801084927333,1.795606153121,1.2));
#1001 = CARTESIAN_POINT('',(-6.804000672015,1.793894129374,1.2));
#1002 = CARTESIAN_POINT('',(-6.806898111348,1.792151426718,1.2));
#1003 = CARTESIAN_POINT('',(-6.844472260258,1.769007903897,1.2));
#1004 = CARTESIAN_POINT('',(-6.876448761752,1.743217644013,1.2));
#1005 = CARTESIAN_POINT('',(-6.904948904987,1.713474059897,1.2));
#1006 = CARTESIAN_POINT('',(-6.929350990894,1.680425960216,1.2));
#1007 = CARTESIAN_POINT('',(-6.969091417171,1.609273985698,1.2));
#1008 = CARTESIAN_POINT('',(-6.98443261811,1.571164994378,1.2));
#1009 = CARTESIAN_POINT('',(-6.994811044915,1.531299648749,1.2));
#1010 = CARTESIAN_POINT('',(-7.,1.490547700567,1.2));
#1011 = CARTESIAN_POINT('',(-7.,1.449799849517,1.2));
#1012 = PCURVE('',#130,#1013);
#1013 = DEFINITIONAL_REPRESENTATION('',(#1014),#1041);
#1014 = B_SPLINE_CURVE_WITH_KNOTS('',5,(#1015,#1016,#1017,#1018,#1019,
    #1020,#1021,#1022,#1023,#1024,#1025,#1026,#1027,#1028,#1029,#1030,
    #1031,#1032,#1033,#1034,#1035,#1036,#1037,#1038,#1039,#1040),
  .UNSPECIFIED.,.F.,.F.,(6,4,4,4,4,4,6),(0.,0.25999782957,0.49399811065,
    0.522998636788,0.541998981577,0.770999621791,1.),.UNSPECIFIED.);
#1015 = CARTESIAN_POINT('',(-6.356806209904,1.783626001216));
#1016 = CARTESIAN_POINT('',(-6.393537050178,1.811753479267));
#1017 = CARTESIAN_POINT('',(-6.434340212353,1.834574480979));
#1018 = CARTESIAN_POINT('',(-6.478178415433,1.851293757881));
#1019 = CARTESIAN_POINT('',(-6.523815320794,1.861440304982));
#1020 = CARTESIAN_POINT('',(-6.611470124664,1.868044205951));
#1021 = CARTESIAN_POINT('',(-6.653401263479,1.865769638648));
#1022 = CARTESIAN_POINT('',(-6.694795854863,1.858021026423));
#1023 = CARTESIAN_POINT('',(-6.73471065756,1.844974928025));
#1024 = CARTESIAN_POINT('',(-6.776945948933,1.824817617635));
#1025 = CARTESIAN_POINT('',(-6.781567298763,1.822519811573));
#1026 = CARTESIAN_POINT('',(-6.786151189306,1.820147673211));
#1027 = CARTESIAN_POINT('',(-6.790696031552,1.817702024852));
#1028 = CARTESIAN_POINT('',(-6.798151311229,1.813533829315));
#1029 = CARTESIAN_POINT('',(-6.801084927333,1.811852739264));
#1030 = CARTESIAN_POINT('',(-6.804000672015,1.810140715517));
#1031 = CARTESIAN_POINT('',(-6.806898111348,1.808398012861));
#1032 = CARTESIAN_POINT('',(-6.844472260258,1.78525449004));
#1033 = CARTESIAN_POINT('',(-6.876448761752,1.759464230156));
#1034 = CARTESIAN_POINT('',(-6.904948904987,1.72972064604));
#1035 = CARTESIAN_POINT('',(-6.929350990894,1.696672546359));
#1036 = CARTESIAN_POINT('',(-6.969091417171,1.625520571842));
#1037 = CARTESIAN_POINT('',(-6.98443261811,1.587411580521));
#1038 = CARTESIAN_POINT('',(-6.994811044915,1.547546234892));
#1039 = CARTESIAN_POINT('',(-7.,1.50679428671));
#1040 = CARTESIAN_POINT('',(-7.,1.46604643566));
#1041 = ( GEOMETRIC_REPRESENTATION_CONTEXT(2) 
PARAMETRIC_REPRESENTATION_CONTEXT() REPRESENTATION_CONTEXT('2D SPACE',''
  ) );
#1042 = PCURVE('',#516,#1043);
#1043 = DEFINITIONAL_REPRESENTATION('',(#1044),#1071);
#1044 = B_SPLINE_CURVE_WITH_KNOTS('',5,(#1045,#1046,#1047,#1048,#1049,
    #1050,#1051,#1052,#1053,#1054,#1055,#1056,#1057,#1058,#1059,#1060,
    #1061,#1062,#1063,#1064,#1065,#1066,#1067,#1068,#1069,#1070),
  .UNSPECIFIED.,.F.,.F.,(6,4,4,4,4,4,6),(0.,0.25999782957,0.49399811065,
    0.522998636788,0.541998981577,0.770999621791,1.),.UNSPECIFIED.);
#1045 = CARTESIAN_POINT('',(0.,1.2));
#1046 = CARTESIAN_POINT('',(6.239917688675E-02,1.2));
#1047 = CARTESIAN_POINT('',(0.124804620046,1.2));
#1048 = CARTESIAN_POINT('',(0.187196058106,1.2));
#1049 = CARTESIAN_POINT('',(0.249601728576,1.2));
#1050 = CARTESIAN_POINT('',(0.368158980544,1.2));
#1051 = CARTESIAN_POINT('',(0.4243224243,1.2));
#1052 = CARTESIAN_POINT('',(0.480477494734,1.2));
#1053 = CARTESIAN_POINT('',(0.536640951653,1.2));
#1054 = CARTESIAN_POINT('',(0.59975999997,1.2));
#1055 = CARTESIAN_POINT('',(0.606719999985,1.2));
#1056 = CARTESIAN_POINT('',(0.613680000015,1.2));
#1057 = CARTESIAN_POINT('',(0.620640000031,1.2));
#1058 = CARTESIAN_POINT('',(0.632159999999,1.2));
#1059 = CARTESIAN_POINT('',(0.636720000003,1.2));
#1060 = CARTESIAN_POINT('',(0.641280000007,1.2));
#1061 = CARTESIAN_POINT('',(0.645840000008,1.2));
#1062 = CARTESIAN_POINT('',(0.705359156221,1.2));
#1063 = CARTESIAN_POINT('',(0.76032227419,1.2));
#1064 = CARTESIAN_POINT('',(0.815277856043,1.2));
#1065 = CARTESIAN_POINT('',(0.870240936253,1.2));
#1066 = CARTESIAN_POINT('',(0.980159000868,1.2));
#1067 = CARTESIAN_POINT('',(1.035121946333,1.2));
#1068 = CARTESIAN_POINT('',(1.090077285918,1.2));
#1069 = CARTESIAN_POINT('',(1.145040184491,1.2));
#1070 = CARTESIAN_POINT('',(1.2,1.2));
#1071 = ( GEOMETRIC_REPRESENTATION_CONTEXT(2) 
PARAMETRIC_REPRESENTATION_CONTEXT() REPRESENTATION_CONTEXT('2D SPACE',''
  ) );
#1072 = ORIENTED_EDGE('',*,*,#1073,.T.);
#1073 = EDGE_CURVE('',#982,#663,#1074,.T.);
#1074 = SURFACE_CURVE('',#1075,(#1079,#1086),.PCURVE_S1.);
#1075 = LINE('',#1076,#1077);
#1076 = CARTESIAN_POINT('',(-7.,2.3,1.2));
#1077 = VECTOR('',#1078,1.);
#1078 = DIRECTION('',(0.,-1.,0.));
#1079 = PCURVE('',#130,#1080);
#1080 = DEFINITIONAL_REPRESENTATION('',(#1081),#1085);
#1081 = LINE('',#1082,#1083);
#1082 = CARTESIAN_POINT('',(-7.,2.316246586143));
#1083 = VECTOR('',#1084,1.);
#1084 = DIRECTION('',(0.,-1.));
#1085 = ( GEOMETRIC_REPRESENTATION_CONTEXT(2) 
PARAMETRIC_REPRESENTATION_CONTEXT() REPRESENTATION_CONTEXT('2D SPACE',''
  ) );
#1086 = PCURVE('',#598,#1087);
#1087 = DEFINITIONAL_REPRESENTATION('',(#1088),#1092);
#1088 = LINE('',#1089,#1090);
#1089 = CARTESIAN_POINT('',(0.,-1.2));
#1090 = VECTOR('',#1091,1.);
#1091 = DIRECTION('',(1.,0.));
#1092 = ( GEOMETRIC_REPRESENTATION_CONTEXT(2) 
PARAMETRIC_REPRESENTATION_CONTEXT() REPRESENTATION_CONTEXT('2D SPACE',''
  ) );
#1093 = ORIENTED_EDGE('',*,*,#686,.F.);
#1094 = ADVANCED_FACE('',(#1095),#598,.F.);
#1095 = FACE_BOUND('',#1096,.F.);
#1096 = EDGE_LOOP('',(#1097,#1098,#1120,#1121));
#1097 = ORIENTED_EDGE('',*,*,#582,.F.);
#1098 = ORIENTED_EDGE('',*,*,#1099,.T.);
#1099 = EDGE_CURVE('',#455,#982,#1100,.T.);
#1100 = SURFACE_CURVE('',#1101,(#1107,#1113),.PCURVE_S1.);
#1101 = B_SPLINE_CURVE_WITH_KNOTS('',2,(#1102,#1103,#1104,#1105,#1106),
  .UNSPECIFIED.,.F.,.F.,(3,1,1,3),(-7.344E-02,2.208580048906E-15,1.2,
    1.27344),.UNSPECIFIED.);
#1102 = CARTESIAN_POINT('',(-7.,1.449799849517,-7.344E-02));
#1103 = CARTESIAN_POINT('',(-7.,1.449799849517,-3.672E-02));
#1104 = CARTESIAN_POINT('',(-7.,1.449799849517,0.6));
#1105 = CARTESIAN_POINT('',(-7.,1.449799849517,1.23672));
#1106 = CARTESIAN_POINT('',(-7.,1.449799849517,1.27344));
#1107 = PCURVE('',#598,#1108);
#1108 = DEFINITIONAL_REPRESENTATION('',(#1109),#1112);
#1109 = B_SPLINE_CURVE_WITH_KNOTS('',1,(#1110,#1111),.UNSPECIFIED.,.F.,
  .F.,(2,2),(2.208580048906E-15,1.2),.PIECEWISE_BEZIER_KNOTS.);
#1110 = CARTESIAN_POINT('',(0.850200150483,3.330669073875E-16));
#1111 = CARTESIAN_POINT('',(0.850200150483,-1.2));
#1112 = ( GEOMETRIC_REPRESENTATION_CONTEXT(2) 
PARAMETRIC_REPRESENTATION_CONTEXT() REPRESENTATION_CONTEXT('2D SPACE',''
  ) );
#1113 = PCURVE('',#516,#1114);
#1114 = DEFINITIONAL_REPRESENTATION('',(#1115),#1119);
#1115 = LINE('',#1116,#1117);
#1116 = CARTESIAN_POINT('',(1.2,0.));
#1117 = VECTOR('',#1118,1.);
#1118 = DIRECTION('',(0.,1.));
#1119 = ( GEOMETRIC_REPRESENTATION_CONTEXT(2) 
PARAMETRIC_REPRESENTATION_CONTEXT() REPRESENTATION_CONTEXT('2D SPACE',''
  ) );
#1120 = ORIENTED_EDGE('',*,*,#1073,.T.);
#1121 = ORIENTED_EDGE('',*,*,#662,.F.);
#1122 = ADVANCED_FACE('',(#1123),#254,.F.);
#1123 = FACE_BOUND('',#1124,.F.);
#1124 = EDGE_LOOP('',(#1125,#1126,#1127,#1128));
#1125 = ORIENTED_EDGE('',*,*,#238,.F.);
#1126 = ORIENTED_EDGE('',*,*,#739,.T.);
#1127 = ORIENTED_EDGE('',*,*,#817,.T.);
#1128 = ORIENTED_EDGE('',*,*,#1129,.F.);
#1129 = EDGE_CURVE('',#239,#818,#1130,.T.);
#1130 = SURFACE_CURVE('',#1131,(#1137,#1143),.PCURVE_S1.);
#1131 = B_SPLINE_CURVE_WITH_KNOTS('',2,(#1132,#1133,#1134,#1135,#1136),
  .UNSPECIFIED.,.F.,.F.,(3,1,1,3),(-7.344E-02,2.283517996935E-15,1.2,
    1.27344),.UNSPECIFIED.);
#1132 = CARTESIAN_POINT('',(7.,1.449799849517,-7.344E-02));
#1133 = CARTESIAN_POINT('',(7.,1.449799849517,-3.672E-02));
#1134 = CARTESIAN_POINT('',(7.,1.449799849517,0.6));
#1135 = CARTESIAN_POINT('',(7.,1.449799849517,1.23672));
#1136 = CARTESIAN_POINT('',(7.,1.449799849517,1.27344));
#1137 = PCURVE('',#254,#1138);
#1138 = DEFINITIONAL_REPRESENTATION('',(#1139),#1142);
#1139 = B_SPLINE_CURVE_WITH_KNOTS('',1,(#1140,#1141),.UNSPECIFIED.,.F.,
  .F.,(2,2),(2.283517996935E-15,1.2),.PIECEWISE_BEZIER_KNOTS.);
#1140 = CARTESIAN_POINT('',(0.449799849517,4.440892098501E-16));
#1141 = CARTESIAN_POINT('',(0.449799849517,-1.2));
#1142 = ( GEOMETRIC_REPRESENTATION_CONTEXT(2) 
PARAMETRIC_REPRESENTATION_CONTEXT() REPRESENTATION_CONTEXT('2D SPACE',''
  ) );
#1143 = PCURVE('',#340,#1144);
#1144 = DEFINITIONAL_REPRESENTATION('',(#1145),#1149);
#1145 = LINE('',#1146,#1147);
#1146 = CARTESIAN_POINT('',(0.,0.));
#1147 = VECTOR('',#1148,1.);
#1148 = DIRECTION('',(0.,1.));
#1149 = ( GEOMETRIC_REPRESENTATION_CONTEXT(2) 
PARAMETRIC_REPRESENTATION_CONTEXT() REPRESENTATION_CONTEXT('2D SPACE',''
  ) );
#1150 = ADVANCED_FACE('',(#1151),#516,.T.);
#1151 = FACE_BOUND('',#1152,.T.);
#1152 = EDGE_LOOP('',(#1153,#1154,#1155,#1156));
#1153 = ORIENTED_EDGE('',*,*,#454,.T.);
#1154 = ORIENTED_EDGE('',*,*,#1099,.T.);
#1155 = ORIENTED_EDGE('',*,*,#981,.F.);
#1156 = ORIENTED_EDGE('',*,*,#1157,.F.);
#1157 = EDGE_CURVE('',#413,#951,#1158,.T.);
#1158 = SURFACE_CURVE('',#1159,(#1165,#1172),.PCURVE_S1.);
#1159 = B_SPLINE_CURVE_WITH_KNOTS('',2,(#1160,#1161,#1162,#1163,#1164),
  .UNSPECIFIED.,.F.,.F.,(3,1,1,3),(-7.344E-02,2.208580048906E-15,1.2,
    1.27344),.UNSPECIFIED.);
#1160 = CARTESIAN_POINT('',(-6.356806209904,1.767379415073,-7.344E-02));
#1161 = CARTESIAN_POINT('',(-6.356806209904,1.767379415073,-3.672E-02));
#1162 = CARTESIAN_POINT('',(-6.356806209904,1.767379415073,0.6));
#1163 = CARTESIAN_POINT('',(-6.356806209904,1.767379415073,1.23672));
#1164 = CARTESIAN_POINT('',(-6.356806209904,1.767379415073,1.27344));
#1165 = PCURVE('',#516,#1166);
#1166 = DEFINITIONAL_REPRESENTATION('',(#1167),#1171);
#1167 = LINE('',#1168,#1169);
#1168 = CARTESIAN_POINT('',(0.,0.));
#1169 = VECTOR('',#1170,1.);
#1170 = DIRECTION('',(0.,1.));
#1171 = ( GEOMETRIC_REPRESENTATION_CONTEXT(2) 
PARAMETRIC_REPRESENTATION_CONTEXT() REPRESENTATION_CONTEXT('2D SPACE',''
  ) );
#1172 = PCURVE('',#436,#1173);
#1173 = DEFINITIONAL_REPRESENTATION('',(#1174),#1177);
#1174 = B_SPLINE_CURVE_WITH_KNOTS('',1,(#1175,#1176),.UNSPECIFIED.,.F.,
  .F.,(2,2),(2.208580048906E-15,1.2),.PIECEWISE_BEZIER_KNOTS.);
#1175 = CARTESIAN_POINT('',(14.476001203161,-1.570364414341E-16));
#1176 = CARTESIAN_POINT('',(14.476001203161,-1.2));
#1177 = ( GEOMETRIC_REPRESENTATION_CONTEXT(2) 
PARAMETRIC_REPRESENTATION_CONTEXT() REPRESENTATION_CONTEXT('2D SPACE',''
  ) );
#1178 = ADVANCED_FACE('',(#1179),#340,.T.);
#1179 = FACE_BOUND('',#1180,.T.);
#1180 = EDGE_LOOP('',(#1181,#1182,#1204,#1205));
#1181 = ORIENTED_EDGE('',*,*,#266,.T.);
#1182 = ORIENTED_EDGE('',*,*,#1183,.T.);
#1183 = EDGE_CURVE('',#267,#841,#1184,.T.);
#1184 = SURFACE_CURVE('',#1185,(#1191,#1198),.PCURVE_S1.);
#1185 = B_SPLINE_CURVE_WITH_KNOTS('',2,(#1186,#1187,#1188,#1189,#1190),
  .UNSPECIFIED.,.F.,.F.,(3,1,1,3),(-7.344E-02,2.283517996935E-15,1.2,
    1.27344),.UNSPECIFIED.);
#1186 = CARTESIAN_POINT('',(6.356806209904,1.767379415073,-7.344E-02));
#1187 = CARTESIAN_POINT('',(6.356806209904,1.767379415073,-3.672E-02));
#1188 = CARTESIAN_POINT('',(6.356806209904,1.767379415073,0.6));
#1189 = CARTESIAN_POINT('',(6.356806209904,1.767379415073,1.23672));
#1190 = CARTESIAN_POINT('',(6.356806209904,1.767379415073,1.27344));
#1191 = PCURVE('',#340,#1192);
#1192 = DEFINITIONAL_REPRESENTATION('',(#1193),#1197);
#1193 = LINE('',#1194,#1195);
#1194 = CARTESIAN_POINT('',(1.2,0.));
#1195 = VECTOR('',#1196,1.);
#1196 = DIRECTION('',(0.,1.));
#1197 = ( GEOMETRIC_REPRESENTATION_CONTEXT(2) 
PARAMETRIC_REPRESENTATION_CONTEXT() REPRESENTATION_CONTEXT('2D SPACE',''
  ) );
#1198 = PCURVE('',#436,#1199);
#1199 = DEFINITIONAL_REPRESENTATION('',(#1200),#1203);
#1200 = B_SPLINE_CURVE_WITH_KNOTS('',1,(#1201,#1202),.UNSPECIFIED.,.F.,
  .F.,(2,2),(2.283517996935E-15,1.2),.PIECEWISE_BEZIER_KNOTS.);
#1201 = CARTESIAN_POINT('',(0.834978923185,-2.355546621511E-16));
#1202 = CARTESIAN_POINT('',(0.834978923185,-1.2));
#1203 = ( GEOMETRIC_REPRESENTATION_CONTEXT(2) 
PARAMETRIC_REPRESENTATION_CONTEXT() REPRESENTATION_CONTEXT('2D SPACE',''
  ) );
#1204 = ORIENTED_EDGE('',*,*,#840,.F.);
#1205 = ORIENTED_EDGE('',*,*,#1129,.F.);
#1206 = ADVANCED_FACE('',(#1207),#436,.F.);
#1207 = FACE_BOUND('',#1208,.F.);
#1208 = EDGE_LOOP('',(#1209,#1210,#1211,#1212));
#1209 = ORIENTED_EDGE('',*,*,#412,.F.);
#1210 = ORIENTED_EDGE('',*,*,#1183,.T.);
#1211 = ORIENTED_EDGE('',*,*,#950,.T.);
#1212 = ORIENTED_EDGE('',*,*,#1157,.F.);
#1213 = ( GEOMETRIC_REPRESENTATION_CONTEXT(3) 
GLOBAL_UNCERTAINTY_ASSIGNED_CONTEXT((#1217)) 
GLOBAL_UNIT_ASSIGNED_CONTEXT((#1214,#1215,#1216)) REPRESENTATION_CONTEXT
('Context #1','3D Context with UNIT and UNCERTAINTY') );
#1214 = ( LENGTH_UNIT() NAMED_UNIT(*) SI_UNIT(.MILLI.,.METRE.) );
#1215 = ( NAMED_UNIT(*) PLANE_ANGLE_UNIT() SI_UNIT($,.RADIAN.) );
#1216 = ( NAMED_UNIT(*) SI_UNIT($,.STERADIAN.) SOLID_ANGLE_UNIT() );
#1217 = UNCERTAINTY_MEASURE_WITH_UNIT(LENGTH_MEASURE(1.E-07),#1214,
  'distance_accuracy_value','confusion accuracy');
#1218 = PRODUCT_RELATED_PRODUCT_CATEGORY('part',$,(#7));
#1219 = MECHANICAL_DESIGN_GEOMETRIC_PRESENTATION_REPRESENTATION('',(
    #1220),#1213);
#1220 = STYLED_ITEM('color',(#1221),#15);
#1221 = PRESENTATION_STYLE_ASSIGNMENT((#1222));
#1222 = SURFACE_STYLE_USAGE(.BOTH.,#1223);
#1223 = SURFACE_SIDE_STYLE('',(#1224));
#1224 = SURFACE_STYLE_FILL_AREA(#1225);
#1225 = FILL_AREA_STYLE('',(#1226));
#1226 = FILL_AREA_STYLE_COLOUR('',#1227);
#1227 = COLOUR_RGB('',0.239215688916,0.254901961802,0.219607846375);

#1228=DESCRIPTIVE_REPRESENTATION_ITEM('cadgen:generator','cadgen');
#1229=REPRESENTATION('cadgen:generator',(#1228),#1213);
#1230=PROPERTY_DEFINITION('cadgen metadata','cadgen:generator',#5);
#1231=PROPERTY_DEFINITION_REPRESENTATION(#1230,#1229);
#1232=DESCRIPTIVE_REPRESENTATION_ITEM('cadgen:entryKind','part');
#1233=REPRESENTATION('cadgen:entryKind',(#1232),#1213);
#1234=PROPERTY_DEFINITION('cadgen metadata','cadgen:entryKind',#5);
#1235=PROPERTY_DEFINITION_REPRESENTATION(#1234,#1233);
#1236=DESCRIPTIVE_REPRESENTATION_ITEM('cadgen:sourcePath','part_face_sleepy_lid.step.py');
#1237=REPRESENTATION('cadgen:sourcePath',(#1236),#1213);
#1238=PROPERTY_DEFINITION('cadgen metadata','cadgen:sourcePath',#5);
#1239=PROPERTY_DEFINITION_REPRESENTATION(#1238,#1237);
#1240=DESCRIPTIVE_REPRESENTATION_ITEM('cadgen:sourceHash','4523a3593e18b43ae7804f7c03c28d22b24505a9539c171c1a1c78ce434aef25');
#1241=REPRESENTATION('cadgen:sourceHash',(#1240),#1213);
#1242=PROPERTY_DEFINITION('cadgen metadata','cadgen:sourceHash',#5);
#1243=PROPERTY_DEFINITION_REPRESENTATION(#1242,#1241);
ENDSEC;
END-ISO-10303-21;
