ISO-10303-21;
HEADER;
FILE_DESCRIPTION(('Open CASCADE Model'),'2;1');
FILE_NAME('dorsal_spike_front','1970-01-01T00:00:00',('Author'),(
    'Open CASCADE'),'Open CASCADE STEP processor 7.9','cadgen','Unknown'
  );
FILE_SCHEMA(('AUTOMOTIVE_DESIGN { 1 0 10303 214 1 1 1 1 }'));
ENDSEC;
DATA;
#1 = APPLICATION_PROTOCOL_DEFINITION('international standard',
  'automotive_design',2000,#2);
#2 = APPLICATION_CONTEXT(
  'core data for automotive mechanical design processes');
#3 = SHAPE_DEFINITION_REPRESENTATION(#4,#10);
#4 = PRODUCT_DEFINITION_SHAPE('','',#5);
#5 = PRODUCT_DEFINITION('design','',#6,#9);
#6 = PRODUCT_DEFINITION_FORMATION('','',#7);
#7 = PRODUCT('dorsal_spike_front','dorsal_spike_front','',(#8));
#8 = PRODUCT_CONTEXT('',#2,'mechanical');
#9 = PRODUCT_DEFINITION_CONTEXT('part definition',#2,'design');
#10 = ADVANCED_BREP_SHAPE_REPRESENTATION('',(#11,#15),#374);
#11 = AXIS2_PLACEMENT_3D('',#12,#13,#14);
#12 = CARTESIAN_POINT('',(0.,0.,0.));
#13 = DIRECTION('',(0.,0.,1.));
#14 = DIRECTION('',(1.,0.,-0.));
#15 = MANIFOLD_SOLID_BREP('',#16);
#16 = CLOSED_SHELL('',(#17,#156,#234,#312,#366,#370));
#17 = ADVANCED_FACE('',(#18),#31,.T.);
#18 = FACE_BOUND('',#19,.T.);
#19 = EDGE_LOOP('',(#20,#80,#102,#155));
#20 = ORIENTED_EDGE('',*,*,#21,.T.);
#21 = EDGE_CURVE('',#22,#22,#24,.T.);
#22 = VERTEX_POINT('',#23);
#23 = CARTESIAN_POINT('',(4.,0.,0.));
#24 = SURFACE_CURVE('',#25,(#30,#68),.PCURVE_S1.);
#25 = ELLIPSE('',#26,4.,2.);
#26 = AXIS2_PLACEMENT_3D('',#27,#28,#29);
#27 = CARTESIAN_POINT('',(0.,0.,0.));
#28 = DIRECTION('',(0.,0.,1.));
#29 = DIRECTION('',(1.,0.,-0.));
#30 = PCURVE('',#31,#62);
#31 = B_SPLINE_SURFACE_WITH_KNOTS('',14,1,(
    (#32,#33)
    ,(#34,#35)
    ,(#36,#37)
    ,(#38,#39)
    ,(#40,#41)
    ,(#42,#43)
    ,(#44,#45)
    ,(#46,#47)
    ,(#48,#49)
    ,(#50,#51)
    ,(#52,#53)
    ,(#54,#55)
    ,(#56,#57)
    ,(#58,#59)
    ,(#60,#61
    )),.UNSPECIFIED.,.T.,.F.,.F.,(15,15),(2,2),(0.,6.28318530718),(0.,1.
    ),.PIECEWISE_BEZIER_KNOTS.);
#32 = CARTESIAN_POINT('',(4.,-1.46659575074E-15,0.));
#33 = CARTESIAN_POINT('',(4.,-1.46659575074E-15,1.2));
#34 = CARTESIAN_POINT('',(4.000000000001,0.897597901026,0.));
#35 = CARTESIAN_POINT('',(4.000000000001,0.897597901026,1.2));
#36 = CARTESIAN_POINT('',(3.132342555197,1.795196133375,0.));
#37 = CARTESIAN_POINT('',(3.132342555197,1.795196133375,1.200000000001)
  );
#38 = CARTESIAN_POINT('',(1.3970265564,2.465638693147,0.));
#39 = CARTESIAN_POINT('',(1.3970265564,2.465638693147,1.199999999995));
#40 = CARTESIAN_POINT('',(-0.946442458971,2.68179519165,0.));
#41 = CARTESIAN_POINT('',(-0.946442458971,2.68179519165,1.20000000001));
#42 = CARTESIAN_POINT('',(-3.379102641588,2.297953722024,0.));
#43 = CARTESIAN_POINT('',(-3.379102641588,2.297953722024,1.199999999981)
  );
#44 = CARTESIAN_POINT('',(-5.236166806668,1.331770490524,0.));
#45 = CARTESIAN_POINT('',(-5.236166806668,1.331770490524,1.200000000027)
  );
#46 = CARTESIAN_POINT('',(-5.935314408158,3.238520562832E-11,0.));
#47 = CARTESIAN_POINT('',(-5.935314408158,3.238520562832E-11,
    1.19999999997));
#48 = CARTESIAN_POINT('',(-5.236166806668,-1.331770490583,0.));
#49 = CARTESIAN_POINT('',(-5.236166806668,-1.331770490583,1.200000000028
    ));
#50 = CARTESIAN_POINT('',(-3.379102641588,-2.297953721979,0.));
#51 = CARTESIAN_POINT('',(-3.379102641588,-2.297953721979,1.199999999978
    ));
#52 = CARTESIAN_POINT('',(-0.946442458971,-2.681795191678,0.));
#53 = CARTESIAN_POINT('',(-0.946442458971,-2.681795191678,1.200000000013
    ));
#54 = CARTESIAN_POINT('',(1.3970265564,-2.465638693133,0.));
#55 = CARTESIAN_POINT('',(1.3970265564,-2.465638693133,1.199999999994));
#56 = CARTESIAN_POINT('',(3.132342555197,-1.79519613338,0.));
#57 = CARTESIAN_POINT('',(3.132342555197,-1.79519613338,1.200000000002)
  );
#58 = CARTESIAN_POINT('',(4.000000000001,-0.897597901025,0.));
#59 = CARTESIAN_POINT('',(4.000000000001,-0.897597901025,1.2));
#60 = CARTESIAN_POINT('',(4.,1.840015493549E-16,0.));
#61 = CARTESIAN_POINT('',(4.,1.840015493549E-16,1.2));
#62 = DEFINITIONAL_REPRESENTATION('',(#63),#67);
#63 = LINE('',#64,#65);
#64 = CARTESIAN_POINT('',(0.,0.));
#65 = VECTOR('',#66,1.);
#66 = DIRECTION('',(1.,0.));
#67 = ( GEOMETRIC_REPRESENTATION_CONTEXT(2) 
PARAMETRIC_REPRESENTATION_CONTEXT() REPRESENTATION_CONTEXT('2D SPACE',''
  ) );
#68 = PCURVE('',#69,#74);
#69 = PLANE('',#70);
#70 = AXIS2_PLACEMENT_3D('',#71,#72,#73);
#71 = CARTESIAN_POINT('',(0.,0.,0.));
#72 = DIRECTION('',(0.,0.,1.));
#73 = DIRECTION('',(1.,0.,-0.));
#74 = DEFINITIONAL_REPRESENTATION('',(#75),#79);
#75 = ELLIPSE('',#76,4.,2.);
#76 = AXIS2_PLACEMENT_2D('',#77,#78);
#77 = CARTESIAN_POINT('',(0.,0.));
#78 = DIRECTION('',(1.,0.));
#79 = ( GEOMETRIC_REPRESENTATION_CONTEXT(2) 
PARAMETRIC_REPRESENTATION_CONTEXT() REPRESENTATION_CONTEXT('2D SPACE',''
  ) );
#80 = ORIENTED_EDGE('',*,*,#81,.T.);
#81 = EDGE_CURVE('',#22,#82,#84,.T.);
#82 = VERTEX_POINT('',#83);
#83 = CARTESIAN_POINT('',(4.,0.,1.2));
#84 = SEAM_CURVE('',#85,(#88,#95),.PCURVE_S1.);
#85 = B_SPLINE_CURVE_WITH_KNOTS('',1,(#86,#87),.UNSPECIFIED.,.F.,.F.,(2,
    2),(0.,1.),.PIECEWISE_BEZIER_KNOTS.);
#86 = CARTESIAN_POINT('',(4.,-1.46659575074E-15,0.));
#87 = CARTESIAN_POINT('',(4.,-1.46659575074E-15,1.2));
#88 = PCURVE('',#31,#89);
#89 = DEFINITIONAL_REPRESENTATION('',(#90),#94);
#90 = LINE('',#91,#92);
#91 = CARTESIAN_POINT('',(6.28318530718,0.));
#92 = VECTOR('',#93,1.);
#93 = DIRECTION('',(0.,1.));
#94 = ( GEOMETRIC_REPRESENTATION_CONTEXT(2) 
PARAMETRIC_REPRESENTATION_CONTEXT() REPRESENTATION_CONTEXT('2D SPACE',''
  ) );
#95 = PCURVE('',#31,#96);
#96 = DEFINITIONAL_REPRESENTATION('',(#97),#101);
#97 = LINE('',#98,#99);
#98 = CARTESIAN_POINT('',(0.,0.));
#99 = VECTOR('',#100,1.);
#100 = DIRECTION('',(0.,1.));
#101 = ( GEOMETRIC_REPRESENTATION_CONTEXT(2) 
PARAMETRIC_REPRESENTATION_CONTEXT() REPRESENTATION_CONTEXT('2D SPACE',''
  ) );
#102 = ORIENTED_EDGE('',*,*,#103,.F.);
#103 = EDGE_CURVE('',#82,#82,#104,.T.);
#104 = SURFACE_CURVE('',#105,(#110,#117),.PCURVE_S1.);
#105 = ELLIPSE('',#106,4.,2.);
#106 = AXIS2_PLACEMENT_3D('',#107,#108,#109);
#107 = CARTESIAN_POINT('',(0.,0.,1.2));
#108 = DIRECTION('',(0.,0.,1.));
#109 = DIRECTION('',(1.,0.,-0.));
#110 = PCURVE('',#31,#111);
#111 = DEFINITIONAL_REPRESENTATION('',(#112),#116);
#112 = LINE('',#113,#114);
#113 = CARTESIAN_POINT('',(0.,1.));
#114 = VECTOR('',#115,1.);
#115 = DIRECTION('',(1.,0.));
#116 = ( GEOMETRIC_REPRESENTATION_CONTEXT(2) 
PARAMETRIC_REPRESENTATION_CONTEXT() REPRESENTATION_CONTEXT('2D SPACE',''
  ) );
#117 = PCURVE('',#118,#149);
#118 = B_SPLINE_SURFACE_WITH_KNOTS('',14,1,(
    (#119,#120)
    ,(#121,#122)
    ,(#123,#124)
    ,(#125,#126)
    ,(#127,#128)
    ,(#129,#130)
    ,(#131,#132)
    ,(#133,#134)
    ,(#135,#136)
    ,(#137,#138)
    ,(#139,#140)
    ,(#141,#142)
    ,(#143,#144)
    ,(#145,#146)
    ,(#147,#148
    )),.UNSPECIFIED.,.T.,.F.,.F.,(15,15),(2,2),(0.,6.28318530718),(0.,1.
    ),.PIECEWISE_BEZIER_KNOTS.);
#119 = CARTESIAN_POINT('',(4.,-1.46659575074E-15,1.2));
#120 = CARTESIAN_POINT('',(3.12,2.2,4.8));
#121 = CARTESIAN_POINT('',(4.000000000001,0.897597901026,1.2));
#122 = CARTESIAN_POINT('',(3.12,2.9001263628,4.8));
#123 = CARTESIAN_POINT('',(3.132342555197,1.795196133375,1.200000000001)
  );
#124 = CARTESIAN_POINT('',(2.443223413132,3.600252984036,4.800000000001)
  );
#125 = CARTESIAN_POINT('',(1.3970265564,2.465638693147,1.199999999995));
#126 = CARTESIAN_POINT('',(1.089707173458,4.123198180646,4.799999999998)
  );
#127 = CARTESIAN_POINT('',(-0.946442458971,2.68179519165,1.20000000001)
  );
#128 = CARTESIAN_POINT('',(-0.73831892884,4.291800249504,4.800000000003)
  );
#129 = CARTESIAN_POINT('',(-3.379102641588,2.297953722024,1.199999999981
    ));
#130 = CARTESIAN_POINT('',(-2.635485635648,3.992403903155,4.799999999998
    ));
#131 = CARTESIAN_POINT('',(-5.236166806668,1.331770490524,1.200000000027
    ));
#132 = CARTESIAN_POINT('',(-4.084554082305,3.238780982635,4.799999999999
    ));
#133 = CARTESIAN_POINT('',(-5.935314408158,3.238520562832E-11,
    1.19999999997));
#134 = CARTESIAN_POINT('',(-4.629143936409,2.200000000001,4.800000000002
    ));
#135 = CARTESIAN_POINT('',(-5.236166806668,-1.331770490583,
    1.200000000028));
#136 = CARTESIAN_POINT('',(-4.084554082298,1.161219017364,4.799999999999
    ));
#137 = CARTESIAN_POINT('',(-3.379102641588,-2.297953721979,
    1.199999999978));
#138 = CARTESIAN_POINT('',(-2.63548563566,0.407596096844,4.799999999999)
  );
#139 = CARTESIAN_POINT('',(-0.946442458971,-2.681795191678,
    1.200000000013));
#140 = CARTESIAN_POINT('',(-0.738318928829,0.108199750498,4.800000000003
    ));
#141 = CARTESIAN_POINT('',(1.3970265564,-2.465638693133,1.199999999994)
  );
#142 = CARTESIAN_POINT('',(1.089707173452,0.276801819353,4.799999999997)
  );
#143 = CARTESIAN_POINT('',(3.132342555197,-1.79519613338,1.200000000002)
  );
#144 = CARTESIAN_POINT('',(2.443223413134,0.799747015965,4.800000000001)
  );
#145 = CARTESIAN_POINT('',(4.000000000001,-0.897597901025,1.2));
#146 = CARTESIAN_POINT('',(3.12,1.4998736372,4.8));
#147 = CARTESIAN_POINT('',(4.,1.840015493549E-16,1.2));
#148 = CARTESIAN_POINT('',(3.12,2.2,4.8));
#149 = DEFINITIONAL_REPRESENTATION('',(#150),#154);
#150 = LINE('',#151,#152);
#151 = CARTESIAN_POINT('',(0.,0.));
#152 = VECTOR('',#153,1.);
#153 = DIRECTION('',(1.,0.));
#154 = ( GEOMETRIC_REPRESENTATION_CONTEXT(2) 
PARAMETRIC_REPRESENTATION_CONTEXT() REPRESENTATION_CONTEXT('2D SPACE',''
  ) );
#155 = ORIENTED_EDGE('',*,*,#81,.F.);
#156 = ADVANCED_FACE('',(#157),#118,.T.);
#157 = FACE_BOUND('',#158,.T.);
#158 = EDGE_LOOP('',(#159,#160,#182,#233));
#159 = ORIENTED_EDGE('',*,*,#103,.T.);
#160 = ORIENTED_EDGE('',*,*,#161,.T.);
#161 = EDGE_CURVE('',#82,#162,#164,.T.);
#162 = VERTEX_POINT('',#163);
#163 = CARTESIAN_POINT('',(3.12,2.2,4.8));
#164 = SEAM_CURVE('',#165,(#168,#175),.PCURVE_S1.);
#165 = B_SPLINE_CURVE_WITH_KNOTS('',1,(#166,#167),.UNSPECIFIED.,.F.,.F.,
  (2,2),(0.,1.),.PIECEWISE_BEZIER_KNOTS.);
#166 = CARTESIAN_POINT('',(4.,-1.46659575074E-15,1.2));
#167 = CARTESIAN_POINT('',(3.12,2.2,4.8));
#168 = PCURVE('',#118,#169);
#169 = DEFINITIONAL_REPRESENTATION('',(#170),#174);
#170 = LINE('',#171,#172);
#171 = CARTESIAN_POINT('',(6.28318530718,0.));
#172 = VECTOR('',#173,1.);
#173 = DIRECTION('',(0.,1.));
#174 = ( GEOMETRIC_REPRESENTATION_CONTEXT(2) 
PARAMETRIC_REPRESENTATION_CONTEXT() REPRESENTATION_CONTEXT('2D SPACE',''
  ) );
#175 = PCURVE('',#118,#176);
#176 = DEFINITIONAL_REPRESENTATION('',(#177),#181);
#177 = LINE('',#178,#179);
#178 = CARTESIAN_POINT('',(0.,0.));
#179 = VECTOR('',#180,1.);
#180 = DIRECTION('',(0.,1.));
#181 = ( GEOMETRIC_REPRESENTATION_CONTEXT(2) 
PARAMETRIC_REPRESENTATION_CONTEXT() REPRESENTATION_CONTEXT('2D SPACE',''
  ) );
#182 = ORIENTED_EDGE('',*,*,#183,.F.);
#183 = EDGE_CURVE('',#162,#162,#184,.T.);
#184 = SURFACE_CURVE('',#185,(#190,#197),.PCURVE_S1.);
#185 = ELLIPSE('',#186,3.12,1.56);
#186 = AXIS2_PLACEMENT_3D('',#187,#188,#189);
#187 = CARTESIAN_POINT('',(0.,2.2,4.8));
#188 = DIRECTION('',(0.,0.,1.));
#189 = DIRECTION('',(1.,0.,-0.));
#190 = PCURVE('',#118,#191);
#191 = DEFINITIONAL_REPRESENTATION('',(#192),#196);
#192 = LINE('',#193,#194);
#193 = CARTESIAN_POINT('',(0.,1.));
#194 = VECTOR('',#195,1.);
#195 = DIRECTION('',(1.,0.));
#196 = ( GEOMETRIC_REPRESENTATION_CONTEXT(2) 
PARAMETRIC_REPRESENTATION_CONTEXT() REPRESENTATION_CONTEXT('2D SPACE',''
  ) );
#197 = PCURVE('',#198,#227);
#198 = B_SPLINE_SURFACE_WITH_KNOTS('',13,1,(
    (#199,#200)
    ,(#201,#202)
    ,(#203,#204)
    ,(#205,#206)
    ,(#207,#208)
    ,(#209,#210)
    ,(#211,#212)
    ,(#213,#214)
    ,(#215,#216)
    ,(#217,#218)
    ,(#219,#220)
    ,(#221,#222)
    ,(#223,#224)
    ,(#225,#226
    )),.UNSPECIFIED.,.T.,.F.,.F.,(14,14),(2,2),(0.,6.28318530718),(0.,1.
    ),.PIECEWISE_BEZIER_KNOTS.);
#199 = CARTESIAN_POINT('',(3.12,2.2,4.8));
#200 = CARTESIAN_POINT('',(1.76,4.125,9.));
#201 = CARTESIAN_POINT('',(3.12,2.953982236861,4.8));
#202 = CARTESIAN_POINT('',(1.76,4.550323313101,9.));
#203 = CARTESIAN_POINT('',(2.33042731532,3.707964775232,4.800000000001)
  );
#204 = CARTESIAN_POINT('',(1.314600024027,4.975646796284,8.999999999999)
  );
#205 = CARTESIAN_POINT('',(0.75132895295,4.236443654849,4.799999999997)
  );
#206 = CARTESIAN_POINT('',(0.423826588842,5.273763087352,9.000000000002)
  );
#207 = CARTESIAN_POINT('',(-1.334178081555,4.313942887366,4.800000000005
    ));
#208 = CARTESIAN_POINT('',(-0.752613276772,5.317480603127,8.999999999996
    ));
#209 = CARTESIAN_POINT('',(-3.358434276811,3.813771134149,4.799999999995
    ));
#210 = CARTESIAN_POINT('',(-1.894501386923,5.035332434651,9.000000000008
    ));
#211 = CARTESIAN_POINT('',(-4.629143936426,2.807538369,4.800000000003));
#212 = CARTESIAN_POINT('',(-2.611311964133,4.467713951739,8.999999999986
    ));
#213 = CARTESIAN_POINT('',(-4.629143936392,1.592461631001,4.800000000002
    ));
#214 = CARTESIAN_POINT('',(-2.611311964123,3.782286048262,9.000000000019
    ));
#215 = CARTESIAN_POINT('',(-3.358434276839,0.586228865848,4.799999999995
    ));
#216 = CARTESIAN_POINT('',(-1.894501386931,3.214667565346,8.99999999998)
  );
#217 = CARTESIAN_POINT('',(-1.334178081538,8.605711263721E-02,
    4.800000000006));
#218 = CARTESIAN_POINT('',(-0.752613276767,2.932519396876,9.000000000015
    ));
#219 = CARTESIAN_POINT('',(0.751328952941,0.163556345149,4.799999999996)
  );
#220 = CARTESIAN_POINT('',(0.423826588839,2.976236912646,8.999999999991)
  );
#221 = CARTESIAN_POINT('',(2.330427315323,0.692035224769,4.800000000002)
  );
#222 = CARTESIAN_POINT('',(1.314600024028,3.274353203716,9.000000000003)
  );
#223 = CARTESIAN_POINT('',(3.12,1.446017763139,4.8));
#224 = CARTESIAN_POINT('',(1.76,3.699676686899,8.999999999999));
#225 = CARTESIAN_POINT('',(3.12,2.2,4.8));
#226 = CARTESIAN_POINT('',(1.76,4.125,9.));
#227 = DEFINITIONAL_REPRESENTATION('',(#228),#232);
#228 = LINE('',#229,#230);
#229 = CARTESIAN_POINT('',(0.,0.));
#230 = VECTOR('',#231,1.);
#231 = DIRECTION('',(1.,0.));
#232 = ( GEOMETRIC_REPRESENTATION_CONTEXT(2) 
PARAMETRIC_REPRESENTATION_CONTEXT() REPRESENTATION_CONTEXT('2D SPACE',''
  ) );
#233 = ORIENTED_EDGE('',*,*,#161,.F.);
#234 = ADVANCED_FACE('',(#235),#198,.T.);
#235 = FACE_BOUND('',#236,.T.);
#236 = EDGE_LOOP('',(#237,#238,#260,#311));
#237 = ORIENTED_EDGE('',*,*,#183,.T.);
#238 = ORIENTED_EDGE('',*,*,#239,.T.);
#239 = EDGE_CURVE('',#162,#240,#242,.T.);
#240 = VERTEX_POINT('',#241);
#241 = CARTESIAN_POINT('',(1.76,4.125,9.));
#242 = SEAM_CURVE('',#243,(#246,#253),.PCURVE_S1.);
#243 = B_SPLINE_CURVE_WITH_KNOTS('',1,(#244,#245),.UNSPECIFIED.,.F.,.F.,
  (2,2),(0.,1.),.PIECEWISE_BEZIER_KNOTS.);
#244 = CARTESIAN_POINT('',(3.12,2.2,4.8));
#245 = CARTESIAN_POINT('',(1.76,4.125,9.));
#246 = PCURVE('',#198,#247);
#247 = DEFINITIONAL_REPRESENTATION('',(#248),#252);
#248 = LINE('',#249,#250);
#249 = CARTESIAN_POINT('',(6.28318530718,0.));
#250 = VECTOR('',#251,1.);
#251 = DIRECTION('',(0.,1.));
#252 = ( GEOMETRIC_REPRESENTATION_CONTEXT(2) 
PARAMETRIC_REPRESENTATION_CONTEXT() REPRESENTATION_CONTEXT('2D SPACE',''
  ) );
#253 = PCURVE('',#198,#254);
#254 = DEFINITIONAL_REPRESENTATION('',(#255),#259);
#255 = LINE('',#256,#257);
#256 = CARTESIAN_POINT('',(0.,0.));
#257 = VECTOR('',#258,1.);
#258 = DIRECTION('',(0.,1.));
#259 = ( GEOMETRIC_REPRESENTATION_CONTEXT(2) 
PARAMETRIC_REPRESENTATION_CONTEXT() REPRESENTATION_CONTEXT('2D SPACE',''
  ) );
#260 = ORIENTED_EDGE('',*,*,#261,.F.);
#261 = EDGE_CURVE('',#240,#240,#262,.T.);
#262 = SURFACE_CURVE('',#263,(#268,#275),.PCURVE_S1.);
#263 = ELLIPSE('',#264,1.76,0.88);
#264 = AXIS2_PLACEMENT_3D('',#265,#266,#267);
#265 = CARTESIAN_POINT('',(0.,4.125,9.));
#266 = DIRECTION('',(0.,0.,1.));
#267 = DIRECTION('',(1.,0.,-0.));
#268 = PCURVE('',#198,#269);
#269 = DEFINITIONAL_REPRESENTATION('',(#270),#274);
#270 = LINE('',#271,#272);
#271 = CARTESIAN_POINT('',(0.,1.));
#272 = VECTOR('',#273,1.);
#273 = DIRECTION('',(1.,0.));
#274 = ( GEOMETRIC_REPRESENTATION_CONTEXT(2) 
PARAMETRIC_REPRESENTATION_CONTEXT() REPRESENTATION_CONTEXT('2D SPACE',''
  ) );
#275 = PCURVE('',#276,#305);
#276 = B_SPLINE_SURFACE_WITH_KNOTS('',13,1,(
    (#277,#278)
    ,(#279,#280)
    ,(#281,#282)
    ,(#283,#284)
    ,(#285,#286)
    ,(#287,#288)
    ,(#289,#290)
    ,(#291,#292)
    ,(#293,#294)
    ,(#295,#296)
    ,(#297,#298)
    ,(#299,#300)
    ,(#301,#302)
    ,(#303,#304
    )),.UNSPECIFIED.,.T.,.F.,.F.,(14,14),(2,2),(0.,6.28318530718),(0.,1.
    ),.PIECEWISE_BEZIER_KNOTS.);
#277 = CARTESIAN_POINT('',(1.76,4.125,9.));
#278 = CARTESIAN_POINT('',(0.6,5.5,12.));
#279 = CARTESIAN_POINT('',(1.76,4.550323313101,9.));
#280 = CARTESIAN_POINT('',(0.6,5.789993168023,11.999999999999));
#281 = CARTESIAN_POINT('',(1.314600024027,4.975646796284,8.999999999999)
  );
#282 = CARTESIAN_POINT('',(0.4481590991,6.079986452016,12.000000000004)
  );
#283 = CARTESIAN_POINT('',(0.423826588842,5.273763087352,9.000000000002)
  );
#284 = CARTESIAN_POINT('',(0.144486337105,6.283247559549,11.999999999989
    ));
#285 = CARTESIAN_POINT('',(-0.752613276772,5.317480603127,8.999999999996
    ));
#286 = CARTESIAN_POINT('',(-0.256572707989,6.313054956697,
    12.000000000021));
#287 = CARTESIAN_POINT('',(-1.894501386923,5.035332434651,9.000000000008
    ));
#288 = CARTESIAN_POINT('',(-0.645852745544,6.120681205416,
    11.999999999971));
#289 = CARTESIAN_POINT('',(-2.611311964133,4.467713951739,8.999999999986
    ));
#290 = CARTESIAN_POINT('',(-0.89021998777,5.733668603492,12.00000000003)
  );
#291 = CARTESIAN_POINT('',(-2.611311964123,3.782286048262,9.000000000019
    ));
#292 = CARTESIAN_POINT('',(-0.890219987772,5.266331396512,
    11.999999999977));
#293 = CARTESIAN_POINT('',(-1.894501386931,3.214667565346,8.99999999998)
  );
#294 = CARTESIAN_POINT('',(-0.645852745543,4.879318794576,
    12.000000000013));
#295 = CARTESIAN_POINT('',(-0.752613276767,2.932519396876,9.000000000015
    ));
#296 = CARTESIAN_POINT('',(-0.25657270799,4.686945043311,11.999999999995
    ));
#297 = CARTESIAN_POINT('',(0.423826588839,2.976236912646,8.999999999991)
  );
#298 = CARTESIAN_POINT('',(0.144486337105,4.716752440446,12.000000000001
    ));
#299 = CARTESIAN_POINT('',(1.314600024028,3.274353203716,9.000000000003)
  );
#300 = CARTESIAN_POINT('',(0.4481590991,4.920013547987,12.));
#301 = CARTESIAN_POINT('',(1.76,3.699676686899,8.999999999999));
#302 = CARTESIAN_POINT('',(0.6,5.210006831977,12.));
#303 = CARTESIAN_POINT('',(1.76,4.125,9.));
#304 = CARTESIAN_POINT('',(0.6,5.5,12.));
#305 = DEFINITIONAL_REPRESENTATION('',(#306),#310);
#306 = LINE('',#307,#308);
#307 = CARTESIAN_POINT('',(0.,0.));
#308 = VECTOR('',#309,1.);
#309 = DIRECTION('',(1.,0.));
#310 = ( GEOMETRIC_REPRESENTATION_CONTEXT(2) 
PARAMETRIC_REPRESENTATION_CONTEXT() REPRESENTATION_CONTEXT('2D SPACE',''
  ) );
#311 = ORIENTED_EDGE('',*,*,#239,.F.);
#312 = ADVANCED_FACE('',(#313),#276,.T.);
#313 = FACE_BOUND('',#314,.T.);
#314 = EDGE_LOOP('',(#315,#316,#338,#365));
#315 = ORIENTED_EDGE('',*,*,#261,.T.);
#316 = ORIENTED_EDGE('',*,*,#317,.T.);
#317 = EDGE_CURVE('',#240,#318,#320,.T.);
#318 = VERTEX_POINT('',#319);
#319 = CARTESIAN_POINT('',(0.6,5.5,12.));
#320 = SEAM_CURVE('',#321,(#324,#331),.PCURVE_S1.);
#321 = B_SPLINE_CURVE_WITH_KNOTS('',1,(#322,#323),.UNSPECIFIED.,.F.,.F.,
  (2,2),(0.,1.),.PIECEWISE_BEZIER_KNOTS.);
#322 = CARTESIAN_POINT('',(1.76,4.125,9.));
#323 = CARTESIAN_POINT('',(0.6,5.5,12.));
#324 = PCURVE('',#276,#325);
#325 = DEFINITIONAL_REPRESENTATION('',(#326),#330);
#326 = LINE('',#327,#328);
#327 = CARTESIAN_POINT('',(6.28318530718,0.));
#328 = VECTOR('',#329,1.);
#329 = DIRECTION('',(0.,1.));
#330 = ( GEOMETRIC_REPRESENTATION_CONTEXT(2) 
PARAMETRIC_REPRESENTATION_CONTEXT() REPRESENTATION_CONTEXT('2D SPACE',''
  ) );
#331 = PCURVE('',#276,#332);
#332 = DEFINITIONAL_REPRESENTATION('',(#333),#337);
#333 = LINE('',#334,#335);
#334 = CARTESIAN_POINT('',(0.,0.));
#335 = VECTOR('',#336,1.);
#336 = DIRECTION('',(0.,1.));
#337 = ( GEOMETRIC_REPRESENTATION_CONTEXT(2) 
PARAMETRIC_REPRESENTATION_CONTEXT() REPRESENTATION_CONTEXT('2D SPACE',''
  ) );
#338 = ORIENTED_EDGE('',*,*,#339,.F.);
#339 = EDGE_CURVE('',#318,#318,#340,.T.);
#340 = SURFACE_CURVE('',#341,(#346,#353),.PCURVE_S1.);
#341 = ELLIPSE('',#342,0.6,0.6);
#342 = AXIS2_PLACEMENT_3D('',#343,#344,#345);
#343 = CARTESIAN_POINT('',(0.,5.5,12.));
#344 = DIRECTION('',(0.,0.,1.));
#345 = DIRECTION('',(1.,0.,-0.));
#346 = PCURVE('',#276,#347);
#347 = DEFINITIONAL_REPRESENTATION('',(#348),#352);
#348 = LINE('',#349,#350);
#349 = CARTESIAN_POINT('',(0.,1.));
#350 = VECTOR('',#351,1.);
#351 = DIRECTION('',(1.,0.));
#352 = ( GEOMETRIC_REPRESENTATION_CONTEXT(2) 
PARAMETRIC_REPRESENTATION_CONTEXT() REPRESENTATION_CONTEXT('2D SPACE',''
  ) );
#353 = PCURVE('',#354,#359);
#354 = PLANE('',#355);
#355 = AXIS2_PLACEMENT_3D('',#356,#357,#358);
#356 = CARTESIAN_POINT('',(0.,5.5,12.));
#357 = DIRECTION('',(0.,0.,1.));
#358 = DIRECTION('',(1.,0.,-0.));
#359 = DEFINITIONAL_REPRESENTATION('',(#360),#364);
#360 = CIRCLE('',#361,0.6);
#361 = AXIS2_PLACEMENT_2D('',#362,#363);
#362 = CARTESIAN_POINT('',(0.,0.));
#363 = DIRECTION('',(1.,0.));
#364 = ( GEOMETRIC_REPRESENTATION_CONTEXT(2) 
PARAMETRIC_REPRESENTATION_CONTEXT() REPRESENTATION_CONTEXT('2D SPACE',''
  ) );
#365 = ORIENTED_EDGE('',*,*,#317,.F.);
#366 = ADVANCED_FACE('',(#367),#69,.F.);
#367 = FACE_BOUND('',#368,.F.);
#368 = EDGE_LOOP('',(#369));
#369 = ORIENTED_EDGE('',*,*,#21,.T.);
#370 = ADVANCED_FACE('',(#371),#354,.T.);
#371 = FACE_BOUND('',#372,.T.);
#372 = EDGE_LOOP('',(#373));
#373 = ORIENTED_EDGE('',*,*,#339,.T.);
#374 = ( GEOMETRIC_REPRESENTATION_CONTEXT(3) 
GLOBAL_UNCERTAINTY_ASSIGNED_CONTEXT((#378)) GLOBAL_UNIT_ASSIGNED_CONTEXT
((#375,#376,#377)) REPRESENTATION_CONTEXT('Context #1',
  '3D Context with UNIT and UNCERTAINTY') );
#375 = ( LENGTH_UNIT() NAMED_UNIT(*) SI_UNIT(.MILLI.,.METRE.) );
#376 = ( NAMED_UNIT(*) PLANE_ANGLE_UNIT() SI_UNIT($,.RADIAN.) );
#377 = ( NAMED_UNIT(*) SI_UNIT($,.STERADIAN.) SOLID_ANGLE_UNIT() );
#378 = UNCERTAINTY_MEASURE_WITH_UNIT(LENGTH_MEASURE(1.E-07),#375,
  'distance_accuracy_value','confusion accuracy');
#379 = PRODUCT_RELATED_PRODUCT_CATEGORY('part',$,(#7));
#380 = MECHANICAL_DESIGN_GEOMETRIC_PRESENTATION_REPRESENTATION('',(#381)
  ,#374);
#381 = STYLED_ITEM('color',(#382),#15);
#382 = PRESENTATION_STYLE_ASSIGNMENT((#383));
#383 = SURFACE_STYLE_USAGE(.BOTH.,#384);
#384 = SURFACE_SIDE_STYLE('',(#385));
#385 = SURFACE_STYLE_FILL_AREA(#386);
#386 = FILL_AREA_STYLE('',(#387));
#387 = FILL_AREA_STYLE_COLOUR('',#388);
#388 = COLOUR_RGB('',4.666508556042E-02,5.286064699183E-02,
  3.954623419791E-02);

#389=DESCRIPTIVE_REPRESENTATION_ITEM('cadgen:generator','cadgen');
#390=REPRESENTATION('cadgen:generator',(#389),#374);
#391=PROPERTY_DEFINITION('cadgen metadata','cadgen:generator',#5);
#392=PROPERTY_DEFINITION_REPRESENTATION(#391,#390);
#393=DESCRIPTIVE_REPRESENTATION_ITEM('cadgen:entryKind','part');
#394=REPRESENTATION('cadgen:entryKind',(#393),#374);
#395=PROPERTY_DEFINITION('cadgen metadata','cadgen:entryKind',#5);
#396=PROPERTY_DEFINITION_REPRESENTATION(#395,#394);
#397=DESCRIPTIVE_REPRESENTATION_ITEM('cadgen:sourcePath','part_spike_front.step.py');
#398=REPRESENTATION('cadgen:sourcePath',(#397),#374);
#399=PROPERTY_DEFINITION('cadgen metadata','cadgen:sourcePath',#5);
#400=PROPERTY_DEFINITION_REPRESENTATION(#399,#398);
#401=DESCRIPTIVE_REPRESENTATION_ITEM('cadgen:sourceHash','ea8241760207adb34a5bc06a81e2f775667f49144d7ed94f5fe9ec196eaeca8e');
#402=REPRESENTATION('cadgen:sourceHash',(#401),#374);
#403=PROPERTY_DEFINITION('cadgen metadata','cadgen:sourceHash',#5);
#404=PROPERTY_DEFINITION_REPRESENTATION(#403,#402);
ENDSEC;
END-ISO-10303-21;
