ISO-10303-21;
HEADER;
FILE_DESCRIPTION(('Open CASCADE Model'),'2;1');
FILE_NAME('happy_smile','1970-01-01T00:00:00',('Author'),('Open CASCADE'
    ),'Open CASCADE STEP processor 7.9','cadgen','Unknown');
FILE_SCHEMA(('AUTOMOTIVE_DESIGN { 1 0 10303 214 1 1 1 1 }'));
ENDSEC;
DATA;
#1 = APPLICATION_PROTOCOL_DEFINITION('international standard',
  'automotive_design',2000,#2);
#2 = APPLICATION_CONTEXT(
  'core data for automotive mechanical design processes');
#3 = SHAPE_DEFINITION_REPRESENTATION(#4,#10);
#4 = PRODUCT_DEFINITION_SHAPE('','',#5);
#5 = PRODUCT_DEFINITION('design','',#6,#9);
#6 = PRODUCT_DEFINITION_FORMATION('','',#7);
#7 = PRODUCT('happy_smile','happy_smile','',(#8));
#8 = PRODUCT_CONTEXT('',#2,'mechanical');
#9 = PRODUCT_DEFINITION_CONTEXT('part definition',#2,'design');
#10 = ADVANCED_BREP_SHAPE_REPRESENTATION('',(#11,#15),#684);
#11 = AXIS2_PLACEMENT_3D('',#12,#13,#14);
#12 = CARTESIAN_POINT('',(0.,0.,0.));
#13 = DIRECTION('',(0.,0.,1.));
#14 = DIRECTION('',(1.,0.,-0.));
#15 = MANIFOLD_SOLID_BREP('',#16);
#16 = CLOSED_SHELL('',(#17,#155,#159,#625,#680));
#17 = ADVANCED_FACE('',(#18),#32,.T.);
#18 = FACE_BOUND('',#19,.T.);
#19 = EDGE_LOOP('',(#20,#62,#108,#109));
#20 = ORIENTED_EDGE('',*,*,#21,.T.);
#21 = EDGE_CURVE('',#22,#24,#26,.T.);
#22 = VERTEX_POINT('',#23);
#23 = CARTESIAN_POINT('',(-8.,3.,0.));
#24 = VERTEX_POINT('',#25);
#25 = CARTESIAN_POINT('',(-8.,3.,2.));
#26 = SEAM_CURVE('',#27,(#31,#55),.PCURVE_S1.);
#27 = LINE('',#28,#29);
#28 = CARTESIAN_POINT('',(-8.,3.,0.));
#29 = VECTOR('',#30,1.);
#30 = DIRECTION('',(0.,0.,1.));
#31 = PCURVE('',#32,#49);
#32 = SURFACE_OF_LINEAR_EXTRUSION('',#33,#47);
#33 = B_SPLINE_CURVE_WITH_KNOTS('',3,(#34,#35,#36,#37,#38,#39,#40,#41,
    #42,#43,#44,#45,#46),.UNSPECIFIED.,.T.,.F.,(1,1,2,1,1,1,1,1,1,1,1,1,
    2,1,1),(-9.290289645088,-5.385164807135,0.,3.162277660168,
    8.261297173761,13.360316687354,16.522594347522,21.907759154657,
    25.81288399261,28.854265257759,31.895646522908,35.800771360862,
    41.185936167996,44.348213828165,49.447233341757),.UNSPECIFIED.);
#34 = CARTESIAN_POINT('',(-9.667469073903,1.727631870663,0.));
#35 = CARTESIAN_POINT('',(-7.020828444389,3.747160292213,0.));
#36 = CARTESIAN_POINT('',(-4.420669415848,4.5163861305,0.));
#37 = CARTESIAN_POINT('',(0.118114348393,2.051264101818,0.));
#38 = CARTESIAN_POINT('',(4.037937900522,4.557847719126,0.));
#39 = CARTESIAN_POINT('',(9.749407915644,3.123706957793,0.));
#40 = CARTESIAN_POINT('',(6.243314233393,-1.988147271744,0.));
#41 = CARTESIAN_POINT('',(3.45627707266,-4.697003984749,0.));
#42 = CARTESIAN_POINT('',(1.121492540678E-02,-5.131511166253,0.));
#43 = CARTESIAN_POINT('',(-3.507506787708,-4.702253760755,0.));
#44 = CARTESIAN_POINT('',(-5.970053741929,-1.955466183002,0.));
#45 = CARTESIAN_POINT('',(-9.667469073903,1.727631870663,0.));
#46 = CARTESIAN_POINT('',(-7.020828444389,3.747160292213,0.));
#47 = VECTOR('',#48,1.);
#48 = DIRECTION('',(-0.,-0.,-1.));
#49 = DEFINITIONAL_REPRESENTATION('',(#50),#54);
#50 = LINE('',#51,#52);
#51 = CARTESIAN_POINT('',(0.,0.));
#52 = VECTOR('',#53,1.);
#53 = DIRECTION('',(0.,-1.));
#54 = ( GEOMETRIC_REPRESENTATION_CONTEXT(2) 
PARAMETRIC_REPRESENTATION_CONTEXT() REPRESENTATION_CONTEXT('2D SPACE',''
  ) );
#55 = PCURVE('',#32,#56);
#56 = DEFINITIONAL_REPRESENTATION('',(#57),#61);
#57 = LINE('',#58,#59);
#58 = CARTESIAN_POINT('',(41.185936167996,0.));
#59 = VECTOR('',#60,1.);
#60 = DIRECTION('',(0.,-1.));
#61 = ( GEOMETRIC_REPRESENTATION_CONTEXT(2) 
PARAMETRIC_REPRESENTATION_CONTEXT() REPRESENTATION_CONTEXT('2D SPACE',''
  ) );
#62 = ORIENTED_EDGE('',*,*,#63,.T.);
#63 = EDGE_CURVE('',#24,#24,#64,.T.);
#64 = SURFACE_CURVE('',#65,(#79,#86),.PCURVE_S1.);
#65 = B_SPLINE_CURVE_WITH_KNOTS('',3,(#66,#67,#68,#69,#70,#71,#72,#73,
    #74,#75,#76,#77,#78),.UNSPECIFIED.,.T.,.F.,(1,1,2,1,1,1,1,1,1,1,1,1,
    2,1,1),(-9.290289645088,-5.385164807135,0.,3.162277660168,
    8.261297173761,13.360316687354,16.522594347522,21.907759154657,
    25.81288399261,28.854265257759,31.895646522908,35.800771360862,
    41.185936167996,44.348213828165,49.447233341757),.UNSPECIFIED.);
#66 = CARTESIAN_POINT('',(-9.667469073903,1.727631870663,2.));
#67 = CARTESIAN_POINT('',(-7.020828444389,3.747160292213,2.));
#68 = CARTESIAN_POINT('',(-4.420669415848,4.5163861305,2.));
#69 = CARTESIAN_POINT('',(0.118114348393,2.051264101818,2.));
#70 = CARTESIAN_POINT('',(4.037937900522,4.557847719126,2.));
#71 = CARTESIAN_POINT('',(9.749407915644,3.123706957793,2.));
#72 = CARTESIAN_POINT('',(6.243314233393,-1.988147271744,2.));
#73 = CARTESIAN_POINT('',(3.45627707266,-4.697003984749,2.));
#74 = CARTESIAN_POINT('',(1.121492540678E-02,-5.131511166253,2.));
#75 = CARTESIAN_POINT('',(-3.507506787708,-4.702253760755,2.));
#76 = CARTESIAN_POINT('',(-5.970053741929,-1.955466183002,2.));
#77 = CARTESIAN_POINT('',(-9.667469073903,1.727631870663,2.));
#78 = CARTESIAN_POINT('',(-7.020828444389,3.747160292213,2.));
#79 = PCURVE('',#32,#80);
#80 = DEFINITIONAL_REPRESENTATION('',(#81),#85);
#81 = LINE('',#82,#83);
#82 = CARTESIAN_POINT('',(0.,-2.));
#83 = VECTOR('',#84,1.);
#84 = DIRECTION('',(1.,0.));
#85 = ( GEOMETRIC_REPRESENTATION_CONTEXT(2) 
PARAMETRIC_REPRESENTATION_CONTEXT() REPRESENTATION_CONTEXT('2D SPACE',''
  ) );
#86 = PCURVE('',#87,#92);
#87 = PLANE('',#88);
#88 = AXIS2_PLACEMENT_3D('',#89,#90,#91);
#89 = CARTESIAN_POINT('',(-8.099985058211E-02,0.186374310052,2.));
#90 = DIRECTION('',(-0.,-0.,-1.));
#91 = DIRECTION('',(-1.,0.,0.));
#92 = DEFINITIONAL_REPRESENTATION('',(#93),#107);
#93 = B_SPLINE_CURVE_WITH_KNOTS('',3,(#94,#95,#96,#97,#98,#99,#100,#101,
    #102,#103,#104,#105,#106),.UNSPECIFIED.,.F.,.F.,(1,1,2,1,1,1,1,1,1,1
    ,1,1,2,1,1),(-9.290289645088,-5.385164807135,0.,3.162277660168,
    8.261297173761,13.360316687354,16.522594347522,21.907759154657,
    25.81288399261,28.854265257759,31.895646522908,35.800771360862,
    41.185936167996,44.348213828165,49.447233341757),.UNSPECIFIED.);
#94 = CARTESIAN_POINT('',(9.58646922332,1.541257560611));
#95 = CARTESIAN_POINT('',(6.939828593807,3.56078598216));
#96 = CARTESIAN_POINT('',(4.339669565266,4.330011820448));
#97 = CARTESIAN_POINT('',(-0.199114198975,1.864889791766));
#98 = CARTESIAN_POINT('',(-4.118937751105,4.371473409073));
#99 = CARTESIAN_POINT('',(-9.830407766227,2.937332647741));
#100 = CARTESIAN_POINT('',(-6.324314083975,-2.174521581796));
#101 = CARTESIAN_POINT('',(-3.537276923242,-4.883378294801));
#102 = CARTESIAN_POINT('',(-9.221477598889E-02,-5.317885476306));
#103 = CARTESIAN_POINT('',(3.426506937126,-4.888628070807));
#104 = CARTESIAN_POINT('',(5.889053891347,-2.141840493054));
#105 = CARTESIAN_POINT('',(9.58646922332,1.541257560611));
#106 = CARTESIAN_POINT('',(6.939828593807,3.56078598216));
#107 = ( GEOMETRIC_REPRESENTATION_CONTEXT(2) 
PARAMETRIC_REPRESENTATION_CONTEXT() REPRESENTATION_CONTEXT('2D SPACE',''
  ) );
#108 = ORIENTED_EDGE('',*,*,#21,.F.);
#109 = ORIENTED_EDGE('',*,*,#110,.F.);
#110 = EDGE_CURVE('',#22,#22,#111,.T.);
#111 = SURFACE_CURVE('',#112,(#126,#133),.PCURVE_S1.);
#112 = B_SPLINE_CURVE_WITH_KNOTS('',3,(#113,#114,#115,#116,#117,#118,
    #119,#120,#121,#122,#123,#124,#125),.UNSPECIFIED.,.T.,.F.,(1,1,2,1,1
    ,1,1,1,1,1,1,1,2,1,1),(-9.290289645088,-5.385164807135,0.,
    3.162277660168,8.261297173761,13.360316687354,16.522594347522,
    21.907759154657,25.81288399261,28.854265257759,31.895646522908,
    35.800771360862,41.185936167996,44.348213828165,49.447233341757),
  .UNSPECIFIED.);
#113 = CARTESIAN_POINT('',(-9.667469073903,1.727631870663,0.));
#114 = CARTESIAN_POINT('',(-7.020828444389,3.747160292213,0.));
#115 = CARTESIAN_POINT('',(-4.420669415848,4.5163861305,0.));
#116 = CARTESIAN_POINT('',(0.118114348393,2.051264101818,0.));
#117 = CARTESIAN_POINT('',(4.037937900522,4.557847719126,0.));
#118 = CARTESIAN_POINT('',(9.749407915644,3.123706957793,0.));
#119 = CARTESIAN_POINT('',(6.243314233393,-1.988147271744,0.));
#120 = CARTESIAN_POINT('',(3.45627707266,-4.697003984749,0.));
#121 = CARTESIAN_POINT('',(1.121492540678E-02,-5.131511166253,0.));
#122 = CARTESIAN_POINT('',(-3.507506787708,-4.702253760755,0.));
#123 = CARTESIAN_POINT('',(-5.970053741929,-1.955466183002,0.));
#124 = CARTESIAN_POINT('',(-9.667469073903,1.727631870663,0.));
#125 = CARTESIAN_POINT('',(-7.020828444389,3.747160292213,0.));
#126 = PCURVE('',#32,#127);
#127 = DEFINITIONAL_REPRESENTATION('',(#128),#132);
#128 = LINE('',#129,#130);
#129 = CARTESIAN_POINT('',(0.,0.));
#130 = VECTOR('',#131,1.);
#131 = DIRECTION('',(1.,0.));
#132 = ( GEOMETRIC_REPRESENTATION_CONTEXT(2) 
PARAMETRIC_REPRESENTATION_CONTEXT() REPRESENTATION_CONTEXT('2D SPACE',''
  ) );
#133 = PCURVE('',#134,#139);
#134 = PLANE('',#135);
#135 = AXIS2_PLACEMENT_3D('',#136,#137,#138);
#136 = CARTESIAN_POINT('',(-8.099985058211E-02,0.186374310052,0.));
#137 = DIRECTION('',(-0.,-0.,-1.));
#138 = DIRECTION('',(-1.,0.,0.));
#139 = DEFINITIONAL_REPRESENTATION('',(#140),#154);
#140 = B_SPLINE_CURVE_WITH_KNOTS('',3,(#141,#142,#143,#144,#145,#146,
    #147,#148,#149,#150,#151,#152,#153),.UNSPECIFIED.,.F.,.F.,(1,1,2,1,1
    ,1,1,1,1,1,1,1,2,1,1),(-9.290289645088,-5.385164807135,0.,
    3.162277660168,8.261297173761,13.360316687354,16.522594347522,
    21.907759154657,25.81288399261,28.854265257759,31.895646522908,
    35.800771360862,41.185936167996,44.348213828165,49.447233341757),
  .UNSPECIFIED.);
#141 = CARTESIAN_POINT('',(9.58646922332,1.541257560611));
#142 = CARTESIAN_POINT('',(6.939828593807,3.56078598216));
#143 = CARTESIAN_POINT('',(4.339669565266,4.330011820448));
#144 = CARTESIAN_POINT('',(-0.199114198975,1.864889791766));
#145 = CARTESIAN_POINT('',(-4.118937751105,4.371473409073));
#146 = CARTESIAN_POINT('',(-9.830407766227,2.937332647741));
#147 = CARTESIAN_POINT('',(-6.324314083975,-2.174521581796));
#148 = CARTESIAN_POINT('',(-3.537276923242,-4.883378294801));
#149 = CARTESIAN_POINT('',(-9.221477598889E-02,-5.317885476306));
#150 = CARTESIAN_POINT('',(3.426506937126,-4.888628070807));
#151 = CARTESIAN_POINT('',(5.889053891347,-2.141840493054));
#152 = CARTESIAN_POINT('',(9.58646922332,1.541257560611));
#153 = CARTESIAN_POINT('',(6.939828593807,3.56078598216));
#154 = ( GEOMETRIC_REPRESENTATION_CONTEXT(2) 
PARAMETRIC_REPRESENTATION_CONTEXT() REPRESENTATION_CONTEXT('2D SPACE',''
  ) );
#155 = ADVANCED_FACE('',(#156),#134,.T.);
#156 = FACE_BOUND('',#157,.T.);
#157 = EDGE_LOOP('',(#158));
#158 = ORIENTED_EDGE('',*,*,#110,.T.);
#159 = ADVANCED_FACE('',(#160,#163),#87,.F.);
#160 = FACE_BOUND('',#161,.F.);
#161 = EDGE_LOOP('',(#162));
#162 = ORIENTED_EDGE('',*,*,#63,.T.);
#163 = FACE_BOUND('',#164,.F.);
#164 = EDGE_LOOP('',(#165));
#165 = ORIENTED_EDGE('',*,*,#166,.F.);
#166 = EDGE_CURVE('',#167,#167,#169,.T.);
#167 = VERTEX_POINT('',#168);
#168 = CARTESIAN_POINT('',(4.5,-0.8,2.));
#169 = SURFACE_CURVE('',#170,(#317,#467),.PCURVE_S1.);
#170 = B_SPLINE_CURVE_WITH_KNOTS('',7,(#171,#172,#173,#174,#175,#176,
    #177,#178,#179,#180,#181,#182,#183,#184,#185,#186,#187,#188,#189,
    #190,#191,#192,#193,#194,#195,#196,#197,#198,#199,#200,#201,#202,
    #203,#204,#205,#206,#207,#208,#209,#210,#211,#212,#213,#214,#215,
    #216,#217,#218,#219,#220,#221,#222,#223,#224,#225,#226,#227,#228,
    #229,#230,#231,#232,#233,#234,#235,#236,#237,#238,#239,#240,#241,
    #242,#243,#244,#245,#246,#247,#248,#249,#250,#251,#252,#253,#254,
    #255,#256,#257,#258,#259,#260,#261,#262,#263,#264,#265,#266,#267,
    #268,#269,#270,#271,#272,#273,#274,#275,#276,#277,#278,#279,#280,
    #281,#282,#283,#284,#285,#286,#287,#288,#289,#290,#291,#292,#293,
    #294,#295,#296,#297,#298,#299,#300,#301,#302,#303,#304,#305,#306,
    #307,#308,#309,#310,#311,#312,#313,#314,#315,#316),.UNSPECIFIED.,.T.
  ,.F.,(8,6,6,6,6,6,6,6,6,6,6,6,6,6,6,6,6,6,6,6,6,6,6,6,8),(0.,
    4.005551527439E-02,6.659733834377E-02,0.105551694751,0.139100143424,
    0.250007803742,0.331854186796,0.360887324309,0.39443721806,
    0.433393252402,0.459936218744,0.482271284955,0.500000807028,
    0.52636357258,0.540064353434,0.566607286755,0.605563272634,
    0.639113124648,0.668146226043,0.749992507277,0.860900029622,
    0.894448436559,0.933402744506,0.959944534556,1.),.UNSPECIFIED.);
#171 = CARTESIAN_POINT('',(4.5,-0.8,2.));
#172 = CARTESIAN_POINT('',(4.500000132375,-0.928919986233,2.));
#173 = CARTESIAN_POINT('',(4.488461379867,-1.05793881614,2.));
#174 = CARTESIAN_POINT('',(4.465354770456,-1.185712075056,2.));
#175 = CARTESIAN_POINT('',(4.431178642069,-1.311166312199,2.));
#176 = CARTESIAN_POINT('',(4.386735659924,-1.433461575955,2.));
#177 = CARTESIAN_POINT('',(4.332979707687,-1.55196178411,2.));
#178 = CARTESIAN_POINT('',(4.229818701344,-1.741918719297,2.));
#179 = CARTESIAN_POINT('',(4.185050798975,-1.815782035701,2.));
#180 = CARTESIAN_POINT('',(4.136907104765,-1.887698029015,2.));
#181 = CARTESIAN_POINT('',(4.08566220532,-1.957599964993,2.));
#182 = CARTESIAN_POINT('',(4.03157827379,-2.025453242382,2.));
#183 = CARTESIAN_POINT('',(3.974896229241,-2.091249410907,2.));
#184 = CARTESIAN_POINT('',(3.829133424304,-2.248564577021,2.));
#185 = CARTESIAN_POINT('',(3.737318176272,-2.337702750954,2.));
#186 = CARTESIAN_POINT('',(3.641042754823,-2.422469578409,2.));
#187 = CARTESIAN_POINT('',(3.540890116787,-2.50295383248,2.));
#188 = CARTESIAN_POINT('',(3.437359591645,-2.579270926796,2.));
#189 = CARTESIAN_POINT('',(3.330861900259,-2.651555650336,2.));
#190 = CARTESIAN_POINT('',(3.127713349056,-2.778861979497,2.));
#191 = CARTESIAN_POINT('',(3.03176267162,-2.834877489789,2.));
#192 = CARTESIAN_POINT('',(2.934075884252,-2.888089506494,2.));
#193 = CARTESIAN_POINT('',(2.834841435748,-2.938580037332,2.));
#194 = CARTESIAN_POINT('',(2.73422333795,-2.986425965899,2.));
#195 = CARTESIAN_POINT('',(2.632362022958,-3.031699993214,2.));
#196 = CARTESIAN_POINT('',(2.188910309413,-3.215869530886,2.));
#197 = CARTESIAN_POINT('',(1.836582645214,-3.329739826609,2.));
#198 = CARTESIAN_POINT('',(1.476096052523,-3.418915591291,2.));
#199 = CARTESIAN_POINT('',(1.110225279701,-3.484717582686,2.));
#200 = CARTESIAN_POINT('',(0.741226996245,-3.528222106326,2.));
#201 = CARTESIAN_POINT('',(0.370773719764,-3.549999475305,2.));
#202 = CARTESIAN_POINT('',(-0.273620491304,-3.550000157793,2.));
#203 = CARTESIAN_POINT('',(-0.547182272779,-3.538137619096,2.));
#204 = CARTESIAN_POINT('',(-0.820118537551,-3.514424418306,2.));
#205 = CARTESIAN_POINT('',(-1.0917524552,-3.47869073853,2.));
#206 = CARTESIAN_POINT('',(-1.361301078611,-3.430645694399,2.));
#207 = CARTESIAN_POINT('',(-1.627862431676,-3.369847377933,2.));
#208 = CARTESIAN_POINT('',(-1.983510187864,-3.269238246746,2.));
#209 = CARTESIAN_POINT('',(-2.07611700967,-3.241201893438,2.));
#210 = CARTESIAN_POINT('',(-2.16815558153,-3.211443263966,2.));
#211 = CARTESIAN_POINT('',(-2.259568415006,-3.179929156642,2.));
#212 = CARTESIAN_POINT('',(-2.350291194968,-3.146623011682,2.));
#213 = CARTESIAN_POINT('',(-2.440252779585,-3.11148491121,2.));
#214 = CARTESIAN_POINT('',(-2.632362022957,-3.031699993214,2.));
#215 = CARTESIAN_POINT('',(-2.73422333795,-2.9864259659,2.));
#216 = CARTESIAN_POINT('',(-2.834841435747,-2.938580037332,2.));
#217 = CARTESIAN_POINT('',(-2.934075884251,-2.888089506494,2.));
#218 = CARTESIAN_POINT('',(-3.03176267162,-2.834877489789,2.));
#219 = CARTESIAN_POINT('',(-3.127713349056,-2.778861979497,2.));
#220 = CARTESIAN_POINT('',(-3.330861900259,-2.651555650336,2.));
#221 = CARTESIAN_POINT('',(-3.437359591645,-2.579270926796,2.));
#222 = CARTESIAN_POINT('',(-3.540890116787,-2.50295383248,2.));
#223 = CARTESIAN_POINT('',(-3.641042754823,-2.42246957841,2.));
#224 = CARTESIAN_POINT('',(-3.737318176272,-2.337702750954,2.));
#225 = CARTESIAN_POINT('',(-3.829133424304,-2.248564577022,2.));
#226 = CARTESIAN_POINT('',(-3.974896229241,-2.091249410907,2.));
#227 = CARTESIAN_POINT('',(-4.03157827379,-2.025453242382,2.));
#228 = CARTESIAN_POINT('',(-4.08566220532,-1.957599964993,2.));
#229 = CARTESIAN_POINT('',(-4.136907104765,-1.887698029015,2.));
#230 = CARTESIAN_POINT('',(-4.185050798974,-1.815782035701,2.));
#231 = CARTESIAN_POINT('',(-4.229818701344,-1.741918719297,2.));
#232 = CARTESIAN_POINT('',(-4.305528973355,-1.602508847989,2.));
#233 = CARTESIAN_POINT('',(-4.337537889587,-1.537500558558,2.));
#234 = CARTESIAN_POINT('',(-4.366792903556,-1.471255625398,2.));
#235 = CARTESIAN_POINT('',(-4.393126508473,-1.403861827273,2.));
#236 = CARTESIAN_POINT('',(-4.416378944098,-1.335430081329,2.));
#237 = CARTESIAN_POINT('',(-4.436406952483,-1.266097367351,2.));
#238 = CARTESIAN_POINT('',(-4.466337595479,-1.140410031354,2.));
#239 = CARTESIAN_POINT('',(-4.477477618942,-1.084323565976,2.));
#240 = CARTESIAN_POINT('',(-4.486453438073,-1.02785425005,2.));
#241 = CARTESIAN_POINT('',(-4.493218307182,-0.971090953673,2.));
#242 = CARTESIAN_POINT('',(-4.497739516989,-0.914127469456,2.));
#243 = CARTESIAN_POINT('',(-4.500000010685,-0.857062559105,2.));
#244 = CARTESIAN_POINT('',(-4.500000142655,-0.715151386119,2.));
#245 = CARTESIAN_POINT('',(-4.495001807844,-0.630287361192,2.));
#246 = CARTESIAN_POINT('',(-4.485003397322,-0.545763650056,2.));
#247 = CARTESIAN_POINT('',(-4.470090735473,-0.461900561114,2.));
#248 = CARTESIAN_POINT('',(-4.450421342212,-0.378984585511,2.));
#249 = CARTESIAN_POINT('',(-4.426208705863,-0.29726999632,2.));
#250 = CARTESIAN_POINT('',(-4.382894224479,-0.17525384961,2.));
#251 = CARTESIAN_POINT('',(-4.366921716318,-0.133908877678,2.));
#252 = CARTESIAN_POINT('',(-4.349824564023,-9.297406431962E-02,2.));
#253 = CARTESIAN_POINT('',(-4.331639228331,-5.247451411442E-02,2.));
#254 = CARTESIAN_POINT('',(-4.312403098258,-1.243190382494E-02,2.));
#255 = CARTESIAN_POINT('',(-4.292154491105,2.713551760537E-02,2.));
#256 = CARTESIAN_POINT('',(-4.229818701345,0.141918719296,2.));
#257 = CARTESIAN_POINT('',(-4.185050798975,0.215782035701,2.));
#258 = CARTESIAN_POINT('',(-4.136907104765,0.287698029015,2.));
#259 = CARTESIAN_POINT('',(-4.08566220532,0.357599964993,2.));
#260 = CARTESIAN_POINT('',(-4.03157827379,0.425453242382,2.));
#261 = CARTESIAN_POINT('',(-3.974896229241,0.491249410907,2.));
#262 = CARTESIAN_POINT('',(-3.829133424304,0.648564577021,2.));
#263 = CARTESIAN_POINT('',(-3.737318176272,0.737702750953,2.));
#264 = CARTESIAN_POINT('',(-3.641042754823,0.822469578409,2.));
#265 = CARTESIAN_POINT('',(-3.540890116788,0.902953832479,2.));
#266 = CARTESIAN_POINT('',(-3.437359591646,0.979270926795,2.));
#267 = CARTESIAN_POINT('',(-3.330861900259,1.051555650336,2.));
#268 = CARTESIAN_POINT('',(-3.127713349056,1.178861979496,2.));
#269 = CARTESIAN_POINT('',(-3.031762671621,1.234877489788,2.));
#270 = CARTESIAN_POINT('',(-2.934075884252,1.288089506494,2.));
#271 = CARTESIAN_POINT('',(-2.834841435748,1.338580037332,2.));
#272 = CARTESIAN_POINT('',(-2.73422333795,1.386425965899,2.));
#273 = CARTESIAN_POINT('',(-2.632362022958,1.431699993213,2.));
#274 = CARTESIAN_POINT('',(-2.440252779586,1.511484911209,2.));
#275 = CARTESIAN_POINT('',(-2.350291194969,1.546623011682,2.));
#276 = CARTESIAN_POINT('',(-2.259568415007,1.579929156642,2.));
#277 = CARTESIAN_POINT('',(-2.168155581531,1.611443263966,2.));
#278 = CARTESIAN_POINT('',(-2.076117009671,1.641201893437,2.));
#279 = CARTESIAN_POINT('',(-1.983510187865,1.669238246746,2.));
#280 = CARTESIAN_POINT('',(-1.627862431677,1.769847377933,2.));
#281 = CARTESIAN_POINT('',(-1.361301078613,1.830645694399,2.));
#282 = CARTESIAN_POINT('',(-1.0917524552,1.87869073853,2.));
#283 = CARTESIAN_POINT('',(-0.820118537551,1.914424418306,2.));
#284 = CARTESIAN_POINT('',(-0.547182272781,1.938137619096,2.));
#285 = CARTESIAN_POINT('',(-0.273620491305,1.950000157793,2.));
#286 = CARTESIAN_POINT('',(0.370773719763,1.949999475305,2.));
#287 = CARTESIAN_POINT('',(0.741226996243,1.928222106327,2.));
#288 = CARTESIAN_POINT('',(1.110225279704,1.884717582684,2.));
#289 = CARTESIAN_POINT('',(1.476096052517,1.818915591294,2.));
#290 = CARTESIAN_POINT('',(1.836582645216,1.729739826607,2.));
#291 = CARTESIAN_POINT('',(2.188910309412,1.615869530887,2.));
#292 = CARTESIAN_POINT('',(2.632362022957,1.431699993214,2.));
#293 = CARTESIAN_POINT('',(2.73422333795,1.3864259659,2.));
#294 = CARTESIAN_POINT('',(2.834841435747,1.338580037332,2.));
#295 = CARTESIAN_POINT('',(2.934075884251,1.288089506494,2.));
#296 = CARTESIAN_POINT('',(3.03176267162,1.234877489789,2.));
#297 = CARTESIAN_POINT('',(3.127713349056,1.178861979497,2.));
#298 = CARTESIAN_POINT('',(3.330861900258,1.051555650336,2.));
#299 = CARTESIAN_POINT('',(3.437359591645,0.979270926796,2.));
#300 = CARTESIAN_POINT('',(3.540890116787,0.90295383248,2.));
#301 = CARTESIAN_POINT('',(3.641042754823,0.82246957841,2.));
#302 = CARTESIAN_POINT('',(3.737318176272,0.737702750954,2.));
#303 = CARTESIAN_POINT('',(3.829133424304,0.648564577022,2.));
#304 = CARTESIAN_POINT('',(3.974896229241,0.491249410907,2.));
#305 = CARTESIAN_POINT('',(4.03157827379,0.425453242382,2.));
#306 = CARTESIAN_POINT('',(4.08566220532,0.357599964993,2.));
#307 = CARTESIAN_POINT('',(4.136907104765,0.287698029015,2.));
#308 = CARTESIAN_POINT('',(4.185050798974,0.215782035701,2.));
#309 = CARTESIAN_POINT('',(4.229818701344,0.141918719297,2.));
#310 = CARTESIAN_POINT('',(4.332979707687,-4.803821589009E-02,2.));
#311 = CARTESIAN_POINT('',(4.386735659924,-0.166538424045,2.));
#312 = CARTESIAN_POINT('',(4.431178642069,-0.288833687801,2.));
#313 = CARTESIAN_POINT('',(4.465354770456,-0.414287924945,2.));
#314 = CARTESIAN_POINT('',(4.488461379867,-0.54206118386,2.));
#315 = CARTESIAN_POINT('',(4.500000132375,-0.671080013767,2.));
#316 = CARTESIAN_POINT('',(4.5,-0.8,2.));
#317 = PCURVE('',#87,#318);
#318 = DEFINITIONAL_REPRESENTATION('',(#319),#466);
#319 = B_SPLINE_CURVE_WITH_KNOTS('',7,(#320,#321,#322,#323,#324,#325,
    #326,#327,#328,#329,#330,#331,#332,#333,#334,#335,#336,#337,#338,
    #339,#340,#341,#342,#343,#344,#345,#346,#347,#348,#349,#350,#351,
    #352,#353,#354,#355,#356,#357,#358,#359,#360,#361,#362,#363,#364,
    #365,#366,#367,#368,#369,#370,#371,#372,#373,#374,#375,#376,#377,
    #378,#379,#380,#381,#382,#383,#384,#385,#386,#387,#388,#389,#390,
    #391,#392,#393,#394,#395,#396,#397,#398,#399,#400,#401,#402,#403,
    #404,#405,#406,#407,#408,#409,#410,#411,#412,#413,#414,#415,#416,
    #417,#418,#419,#420,#421,#422,#423,#424,#425,#426,#427,#428,#429,
    #430,#431,#432,#433,#434,#435,#436,#437,#438,#439,#440,#441,#442,
    #443,#444,#445,#446,#447,#448,#449,#450,#451,#452,#453,#454,#455,
    #456,#457,#458,#459,#460,#461,#462,#463,#464,#465),.UNSPECIFIED.,.F.
  ,.F.,(8,6,6,6,6,6,6,6,6,6,6,6,6,6,6,6,6,6,6,6,6,6,6,6,8),(0.,
    4.005551527439E-02,6.659733834377E-02,0.105551694751,0.139100143424,
    0.250007803742,0.331854186796,0.360887324309,0.39443721806,
    0.433393252402,0.459936218744,0.482271284955,0.500000807028,
    0.52636357258,0.540064353434,0.566607286755,0.605563272634,
    0.639113124648,0.668146226043,0.749992507277,0.860900029622,
    0.894448436559,0.933402744506,0.959944534556,1.),.UNSPECIFIED.);
#320 = CARTESIAN_POINT('',(-4.580999850582,-0.986374310052));
#321 = CARTESIAN_POINT('',(-4.580999982957,-1.115294296285));
#322 = CARTESIAN_POINT('',(-4.569461230449,-1.244313126192));
#323 = CARTESIAN_POINT('',(-4.546354621038,-1.372086385108));
#324 = CARTESIAN_POINT('',(-4.512178492651,-1.497540622251));
#325 = CARTESIAN_POINT('',(-4.467735510506,-1.619835886007));
#326 = CARTESIAN_POINT('',(-4.413979558269,-1.738336094162));
#327 = CARTESIAN_POINT('',(-4.310818551927,-1.928293029349));
#328 = CARTESIAN_POINT('',(-4.266050649557,-2.002156345753));
#329 = CARTESIAN_POINT('',(-4.217906955347,-2.074072339067));
#330 = CARTESIAN_POINT('',(-4.166662055902,-2.143974275045));
#331 = CARTESIAN_POINT('',(-4.112578124372,-2.211827552434));
#332 = CARTESIAN_POINT('',(-4.055896079823,-2.277623720959));
#333 = CARTESIAN_POINT('',(-3.910133274886,-2.434938887074));
#334 = CARTESIAN_POINT('',(-3.818318026854,-2.524077061006));
#335 = CARTESIAN_POINT('',(-3.722042605405,-2.608843888462));
#336 = CARTESIAN_POINT('',(-3.621889967369,-2.689328142532));
#337 = CARTESIAN_POINT('',(-3.518359442228,-2.765645236848));
#338 = CARTESIAN_POINT('',(-3.411861750841,-2.837929960388));
#339 = CARTESIAN_POINT('',(-3.208713199638,-2.965236289549));
#340 = CARTESIAN_POINT('',(-3.112762522202,-3.021251799841));
#341 = CARTESIAN_POINT('',(-3.015075734834,-3.074463816546));
#342 = CARTESIAN_POINT('',(-2.91584128633,-3.124954347384));
#343 = CARTESIAN_POINT('',(-2.815223188532,-3.172800275952));
#344 = CARTESIAN_POINT('',(-2.71336187354,-3.218074303266));
#345 = CARTESIAN_POINT('',(-2.269910159995,-3.402243840938));
#346 = CARTESIAN_POINT('',(-1.917582495796,-3.516114136661));
#347 = CARTESIAN_POINT('',(-1.557095903105,-3.605289901343));
#348 = CARTESIAN_POINT('',(-1.191225130283,-3.671091892739));
#349 = CARTESIAN_POINT('',(-0.822226846828,-3.714596416378));
#350 = CARTESIAN_POINT('',(-0.451773570346,-3.736373785357));
#351 = CARTESIAN_POINT('',(0.192620640722,-3.736374467845));
#352 = CARTESIAN_POINT('',(0.466182422196,-3.724511929148));
#353 = CARTESIAN_POINT('',(0.739118686969,-3.700798728358));
#354 = CARTESIAN_POINT('',(1.010752604618,-3.665065048583));
#355 = CARTESIAN_POINT('',(1.280301228028,-3.617020004451));
#356 = CARTESIAN_POINT('',(1.546862581094,-3.556221687985));
#357 = CARTESIAN_POINT('',(1.902510337282,-3.455612556798));
#358 = CARTESIAN_POINT('',(1.995117159088,-3.42757620349));
#359 = CARTESIAN_POINT('',(2.087155730948,-3.397817574018));
#360 = CARTESIAN_POINT('',(2.178568564424,-3.366303466694));
#361 = CARTESIAN_POINT('',(2.269291344386,-3.332997321734));
#362 = CARTESIAN_POINT('',(2.359252929003,-3.297859221262));
#363 = CARTESIAN_POINT('',(2.551362172375,-3.218074303266));
#364 = CARTESIAN_POINT('',(2.653223487367,-3.172800275952));
#365 = CARTESIAN_POINT('',(2.753841585165,-3.124954347384));
#366 = CARTESIAN_POINT('',(2.853076033669,-3.074463816546));
#367 = CARTESIAN_POINT('',(2.950762821038,-3.021251799841));
#368 = CARTESIAN_POINT('',(3.046713498473,-2.965236289549));
#369 = CARTESIAN_POINT('',(3.249862049676,-2.837929960388));
#370 = CARTESIAN_POINT('',(3.356359741063,-2.765645236848));
#371 = CARTESIAN_POINT('',(3.459890266205,-2.689328142532));
#372 = CARTESIAN_POINT('',(3.560042904241,-2.608843888462));
#373 = CARTESIAN_POINT('',(3.65631832569,-2.524077061006));
#374 = CARTESIAN_POINT('',(3.748133573722,-2.434938887074));
#375 = CARTESIAN_POINT('',(3.893896378658,-2.277623720959));
#376 = CARTESIAN_POINT('',(3.950578423208,-2.211827552435));
#377 = CARTESIAN_POINT('',(4.004662354737,-2.143974275046));
#378 = CARTESIAN_POINT('',(4.055907254183,-2.074072339067));
#379 = CARTESIAN_POINT('',(4.104050948392,-2.002156345754));
#380 = CARTESIAN_POINT('',(4.148818850762,-1.928293029349));
#381 = CARTESIAN_POINT('',(4.224529122772,-1.788883158041));
#382 = CARTESIAN_POINT('',(4.256538039005,-1.72387486861));
#383 = CARTESIAN_POINT('',(4.285793052974,-1.65762993545));
#384 = CARTESIAN_POINT('',(4.312126657891,-1.590236137325));
#385 = CARTESIAN_POINT('',(4.335379093516,-1.521804391381));
#386 = CARTESIAN_POINT('',(4.355407101901,-1.452471677403));
#387 = CARTESIAN_POINT('',(4.385337744896,-1.326784341406));
#388 = CARTESIAN_POINT('',(4.39647776836,-1.270697876029));
#389 = CARTESIAN_POINT('',(4.40545358749,-1.214228560102));
#390 = CARTESIAN_POINT('',(4.4122184566,-1.157465263725));
#391 = CARTESIAN_POINT('',(4.416739666407,-1.100501779508));
#392 = CARTESIAN_POINT('',(4.419000160103,-1.043436869158));
#393 = CARTESIAN_POINT('',(4.419000292073,-0.901525696171));
#394 = CARTESIAN_POINT('',(4.414001957262,-0.816661671244));
#395 = CARTESIAN_POINT('',(4.404003546739,-0.732137960108));
#396 = CARTESIAN_POINT('',(4.389090884891,-0.648274871166));
#397 = CARTESIAN_POINT('',(4.36942149163,-0.565358895563));
#398 = CARTESIAN_POINT('',(4.345208855281,-0.483644306372));
#399 = CARTESIAN_POINT('',(4.301894373897,-0.361628159662));
#400 = CARTESIAN_POINT('',(4.285921865736,-0.320283187731));
#401 = CARTESIAN_POINT('',(4.268824713441,-0.279348374372));
#402 = CARTESIAN_POINT('',(4.250639377749,-0.238848824167));
#403 = CARTESIAN_POINT('',(4.231403247676,-0.198806213877));
#404 = CARTESIAN_POINT('',(4.211154640523,-0.159238792447));
#405 = CARTESIAN_POINT('',(4.148818850763,-4.44555907559E-02));
#406 = CARTESIAN_POINT('',(4.104050948393,2.940772564865E-02));
#407 = CARTESIAN_POINT('',(4.055907254183,0.101323718963));
#408 = CARTESIAN_POINT('',(4.004662354738,0.171225654941));
#409 = CARTESIAN_POINT('',(3.950578423208,0.239078932329));
#410 = CARTESIAN_POINT('',(3.893896378659,0.304875100854));
#411 = CARTESIAN_POINT('',(3.748133573722,0.462190266969));
#412 = CARTESIAN_POINT('',(3.65631832569,0.551328440901));
#413 = CARTESIAN_POINT('',(3.560042904241,0.636095268357));
#414 = CARTESIAN_POINT('',(3.459890266205,0.716579522427));
#415 = CARTESIAN_POINT('',(3.356359741064,0.792896616743));
#416 = CARTESIAN_POINT('',(3.249862049677,0.865181340283));
#417 = CARTESIAN_POINT('',(3.046713498474,0.992487669444));
#418 = CARTESIAN_POINT('',(2.950762821038,1.048503179736));
#419 = CARTESIAN_POINT('',(2.85307603367,1.101715196442));
#420 = CARTESIAN_POINT('',(2.753841585166,1.15220572728));
#421 = CARTESIAN_POINT('',(2.653223487368,1.200051655847));
#422 = CARTESIAN_POINT('',(2.551362172376,1.245325683161));
#423 = CARTESIAN_POINT('',(2.359252929004,1.325110601157));
#424 = CARTESIAN_POINT('',(2.269291344387,1.36024870163));
#425 = CARTESIAN_POINT('',(2.178568564425,1.39355484659));
#426 = CARTESIAN_POINT('',(2.087155730949,1.425068953914));
#427 = CARTESIAN_POINT('',(1.995117159089,1.454827583385));
#428 = CARTESIAN_POINT('',(1.902510337283,1.482863936694));
#429 = CARTESIAN_POINT('',(1.546862581095,1.583473067881));
#430 = CARTESIAN_POINT('',(1.28030122803,1.644271384346));
#431 = CARTESIAN_POINT('',(1.010752604618,1.692316428478));
#432 = CARTESIAN_POINT('',(0.739118686969,1.728050108253));
#433 = CARTESIAN_POINT('',(0.466182422199,1.751763309044));
#434 = CARTESIAN_POINT('',(0.192620640723,1.763625847741));
#435 = CARTESIAN_POINT('',(-0.451773570346,1.763625165252));
#436 = CARTESIAN_POINT('',(-0.822226846825,1.741847796275));
#437 = CARTESIAN_POINT('',(-1.191225130286,1.698343272632));
#438 = CARTESIAN_POINT('',(-1.557095903099,1.632541281242));
#439 = CARTESIAN_POINT('',(-1.917582495798,1.543365516554));
#440 = CARTESIAN_POINT('',(-2.269910159994,1.429495220834));
#441 = CARTESIAN_POINT('',(-2.713361873539,1.245325683162));
#442 = CARTESIAN_POINT('',(-2.815223188532,1.200051655848));
#443 = CARTESIAN_POINT('',(-2.915841286329,1.15220572728));
#444 = CARTESIAN_POINT('',(-3.015075734834,1.101715196442));
#445 = CARTESIAN_POINT('',(-3.112762522202,1.048503179737));
#446 = CARTESIAN_POINT('',(-3.208713199638,0.992487669445));
#447 = CARTESIAN_POINT('',(-3.411861750841,0.865181340284));
#448 = CARTESIAN_POINT('',(-3.518359442227,0.792896616744));
#449 = CARTESIAN_POINT('',(-3.621889967369,0.716579522428));
#450 = CARTESIAN_POINT('',(-3.722042605405,0.636095268358));
#451 = CARTESIAN_POINT('',(-3.818318026854,0.551328440902));
#452 = CARTESIAN_POINT('',(-3.910133274886,0.46219026697));
#453 = CARTESIAN_POINT('',(-4.055896079823,0.304875100855));
#454 = CARTESIAN_POINT('',(-4.112578124372,0.23907893233));
#455 = CARTESIAN_POINT('',(-4.166662055902,0.171225654941));
#456 = CARTESIAN_POINT('',(-4.217906955347,0.101323718963));
#457 = CARTESIAN_POINT('',(-4.266050649556,2.940772564919E-02));
#458 = CARTESIAN_POINT('',(-4.310818551926,-4.445559075519E-02));
#459 = CARTESIAN_POINT('',(-4.413979558269,-0.234412525942));
#460 = CARTESIAN_POINT('',(-4.467735510506,-0.352912734097));
#461 = CARTESIAN_POINT('',(-4.512178492651,-0.475207997853));
#462 = CARTESIAN_POINT('',(-4.546354621038,-0.600662234997));
#463 = CARTESIAN_POINT('',(-4.569461230449,-0.728435493912));
#464 = CARTESIAN_POINT('',(-4.580999982957,-0.857454323819));
#465 = CARTESIAN_POINT('',(-4.580999850582,-0.986374310052));
#466 = ( GEOMETRIC_REPRESENTATION_CONTEXT(2) 
PARAMETRIC_REPRESENTATION_CONTEXT() REPRESENTATION_CONTEXT('2D SPACE',''
  ) );
#467 = PCURVE('',#468,#476);
#468 = SURFACE_OF_LINEAR_EXTRUSION('',#469,#474);
#469 = ELLIPSE('',#470,4.5,2.75);
#470 = AXIS2_PLACEMENT_3D('',#471,#472,#473);
#471 = CARTESIAN_POINT('',(0.,-0.8,1.2));
#472 = DIRECTION('',(0.,0.,1.));
#473 = DIRECTION('',(1.,0.,-0.));
#474 = VECTOR('',#475,1.);
#475 = DIRECTION('',(-0.,-0.,-1.));
#476 = DEFINITIONAL_REPRESENTATION('',(#477),#624);
#477 = B_SPLINE_CURVE_WITH_KNOTS('',7,(#478,#479,#480,#481,#482,#483,
    #484,#485,#486,#487,#488,#489,#490,#491,#492,#493,#494,#495,#496,
    #497,#498,#499,#500,#501,#502,#503,#504,#505,#506,#507,#508,#509,
    #510,#511,#512,#513,#514,#515,#516,#517,#518,#519,#520,#521,#522,
    #523,#524,#525,#526,#527,#528,#529,#530,#531,#532,#533,#534,#535,
    #536,#537,#538,#539,#540,#541,#542,#543,#544,#545,#546,#547,#548,
    #549,#550,#551,#552,#553,#554,#555,#556,#557,#558,#559,#560,#561,
    #562,#563,#564,#565,#566,#567,#568,#569,#570,#571,#572,#573,#574,
    #575,#576,#577,#578,#579,#580,#581,#582,#583,#584,#585,#586,#587,
    #588,#589,#590,#591,#592,#593,#594,#595,#596,#597,#598,#599,#600,
    #601,#602,#603,#604,#605,#606,#607,#608,#609,#610,#611,#612,#613,
    #614,#615,#616,#617,#618,#619,#620,#621,#622,#623),.UNSPECIFIED.,.F.
  ,.F.,(8,6,6,6,6,6,6,6,6,6,6,6,6,6,6,6,6,6,6,6,6,6,6,6,8),(0.,
    4.005551527439E-02,6.659733834377E-02,0.105551694751,0.139100143424,
    0.250007803742,0.331854186796,0.360887324309,0.39443721806,
    0.433393252402,0.459936218744,0.482271284955,0.500000807028,
    0.52636357258,0.540064353434,0.566607286755,0.605563272634,
    0.639113124648,0.668146226043,0.749992507277,0.860900029622,
    0.894448436559,0.933402744506,0.959944534556,1.),.UNSPECIFIED.);
#478 = CARTESIAN_POINT('',(6.28318530718,-0.8));
#479 = CARTESIAN_POINT('',(6.23630528401,-0.8));
#480 = CARTESIAN_POINT('',(6.189389486306,-0.8));
#481 = CARTESIAN_POINT('',(6.142757876839,-0.8));
#482 = CARTESIAN_POINT('',(6.09663259808,-0.8));
#483 = CARTESIAN_POINT('',(6.051177099938,-0.8));
#484 = CARTESIAN_POINT('',(6.006517025749,-0.8));
#485 = CARTESIAN_POINT('',(5.933736956904,-0.8));
#486 = CARTESIAN_POINT('',(5.90511126332,-0.8));
#487 = CARTESIAN_POINT('',(5.876881337248,-0.8));
#488 = CARTESIAN_POINT('',(5.849054522984,-0.8));
#489 = CARTESIAN_POINT('',(5.821630956006,-0.8));
#490 = CARTESIAN_POINT('',(5.794604571352,-0.8));
#491 = CARTESIAN_POINT('',(5.728864991102,-0.8));
#492 = CARTESIAN_POINT('',(5.690605649717,-0.8));
#493 = CARTESIAN_POINT('',(5.653143550524,-0.8));
#494 = CARTESIAN_POINT('',(5.616435637616,-0.8));
#495 = CARTESIAN_POINT('',(5.580436185814,-0.8));
#496 = CARTESIAN_POINT('',(5.545094649992,-0.8));
#497 = CARTESIAN_POINT('',(5.480433594987,-0.8));
#498 = CARTESIAN_POINT('',(5.450963913118,-0.8));
#499 = CARTESIAN_POINT('',(5.421911062646,-0.8));
#500 = CARTESIAN_POINT('',(5.393244984374,-0.8));
#501 = CARTESIAN_POINT('',(5.36493775603,-0.8));
#502 = CARTESIAN_POINT('',(5.336962382252,-0.8));
#503 = CARTESIAN_POINT('',(5.217814823294,-0.8));
#504 = CARTESIAN_POINT('',(5.129783369621,-0.8));
#505 = CARTESIAN_POINT('',(5.044053226941,-0.8));
#506 = CARTESIAN_POINT('',(4.960021785767,-0.8));
#507 = CARTESIAN_POINT('',(4.877105185756,-0.8));
#508 = CARTESIAN_POINT('',(4.794783311671,-0.8));
#509 = CARTESIAN_POINT('',(4.651584541984,-0.8));
#510 = CARTESIAN_POINT('',(4.590792486163,-0.8));
#511 = CARTESIAN_POINT('',(4.529773964053,-0.8));
#512 = CARTESIAN_POINT('',(4.468308684145,-0.8));
#513 = CARTESIAN_POINT('',(4.406178601971,-0.8));
#514 = CARTESIAN_POINT('',(4.343135033779,-0.8));
#515 = CARTESIAN_POINT('',(4.256045258923,-0.8));
#516 = CARTESIAN_POINT('',(4.233086908374,-0.8));
#517 = CARTESIAN_POINT('',(4.209960872217,-0.8));
#518 = CARTESIAN_POINT('',(4.186653077592,-0.8));
#519 = CARTESIAN_POINT('',(4.163148649098,-0.8));
#520 = CARTESIAN_POINT('',(4.139431908794,-0.8));
#521 = CARTESIAN_POINT('',(4.087815578518,-0.8));
#522 = CARTESIAN_POINT('',(4.05984020474,-0.8));
#523 = CARTESIAN_POINT('',(4.031532976396,-0.8));
#524 = CARTESIAN_POINT('',(4.002866898123,-0.8));
#525 = CARTESIAN_POINT('',(3.973814047651,-0.8));
#526 = CARTESIAN_POINT('',(3.944344365783,-0.8));
#527 = CARTESIAN_POINT('',(3.879683310778,-0.8));
#528 = CARTESIAN_POINT('',(3.844341774955,-0.8));
#529 = CARTESIAN_POINT('',(3.808342323154,-0.8));
#530 = CARTESIAN_POINT('',(3.771634410246,-0.8));
#531 = CARTESIAN_POINT('',(3.734172311053,-0.8));
#532 = CARTESIAN_POINT('',(3.695912969667,-0.8));
#533 = CARTESIAN_POINT('',(3.630173389418,-0.8));
#534 = CARTESIAN_POINT('',(3.603147004763,-0.8));
#535 = CARTESIAN_POINT('',(3.575723437785,-0.8));
#536 = CARTESIAN_POINT('',(3.547896623521,-0.8));
#537 = CARTESIAN_POINT('',(3.51966669745,-0.8));
#538 = CARTESIAN_POINT('',(3.491041003865,-0.8));
#539 = CARTESIAN_POINT('',(3.437627557641,-0.8));
#540 = CARTESIAN_POINT('',(3.412950926039,-0.8));
#541 = CARTESIAN_POINT('',(3.388016637265,-0.8));
#542 = CARTESIAN_POINT('',(3.36284042704,-0.8));
#543 = CARTESIAN_POINT('',(3.33744346624,-0.8));
#544 = CARTESIAN_POINT('',(3.311853488139,-0.8));
#545 = CARTESIAN_POINT('',(3.265667554274,-0.8));
#546 = CARTESIAN_POINT('',(3.245128555709,-0.8));
#547 = CARTESIAN_POINT('',(3.224507122921,-0.8));
#548 = CARTESIAN_POINT('',(3.203822142039,-0.8));
#549 = CARTESIAN_POINT('',(3.183093545885,-0.8));
#550 = CARTESIAN_POINT('',(3.162342677484,-0.8));
#551 = CARTESIAN_POINT('',(3.11073857795,-0.8));
#552 = CARTESIAN_POINT('',(3.079879048605,-0.8));
#553 = CARTESIAN_POINT('',(3.049095042314,-0.8));
#554 = CARTESIAN_POINT('',(3.018455388739,-0.8));
#555 = CARTESIAN_POINT('',(2.988019423715,-0.8));
#556 = CARTESIAN_POINT('',(2.95783964252,-0.8));
#557 = CARTESIAN_POINT('',(2.912438106786,-0.8));
#558 = CARTESIAN_POINT('',(2.896992841948,-0.8));
#559 = CARTESIAN_POINT('',(2.881634217333,-0.8));
#560 = CARTESIAN_POINT('',(2.866367060438,-0.8));
#561 = CARTESIAN_POINT('',(2.851195367551,-0.8));
#562 = CARTESIAN_POINT('',(2.836122303755,-0.8));
#563 = CARTESIAN_POINT('',(2.792144303314,-0.8));
#564 = CARTESIAN_POINT('',(2.76351860973,-0.8));
#565 = CARTESIAN_POINT('',(2.735288683659,-0.8));
#566 = CARTESIAN_POINT('',(2.707461869395,-0.8));
#567 = CARTESIAN_POINT('',(2.680038302417,-0.8));
#568 = CARTESIAN_POINT('',(2.653011917762,-0.8));
#569 = CARTESIAN_POINT('',(2.587272337513,-0.8));
#570 = CARTESIAN_POINT('',(2.549012996127,-0.8));
#571 = CARTESIAN_POINT('',(2.511550896934,-0.8));
#572 = CARTESIAN_POINT('',(2.474842984026,-0.8));
#573 = CARTESIAN_POINT('',(2.438843532225,-0.8));
#574 = CARTESIAN_POINT('',(2.403501996402,-0.8));
#575 = CARTESIAN_POINT('',(2.338840941397,-0.8));
#576 = CARTESIAN_POINT('',(2.309371259529,-0.8));
#577 = CARTESIAN_POINT('',(2.280318409057,-0.8));
#578 = CARTESIAN_POINT('',(2.251652330784,-0.8));
#579 = CARTESIAN_POINT('',(2.22334510244,-0.8));
#580 = CARTESIAN_POINT('',(2.195369728662,-0.8));
#581 = CARTESIAN_POINT('',(2.143753398386,-0.8));
#582 = CARTESIAN_POINT('',(2.120036658082,-0.8));
#583 = CARTESIAN_POINT('',(2.096532229588,-0.8));
#584 = CARTESIAN_POINT('',(2.073224434963,-0.8));
#585 = CARTESIAN_POINT('',(2.050098398806,-0.8));
#586 = CARTESIAN_POINT('',(2.027140048257,-0.8));
#587 = CARTESIAN_POINT('',(1.9400502734,-0.8));
#588 = CARTESIAN_POINT('',(1.877006705209,-0.8));
#589 = CARTESIAN_POINT('',(1.814876623035,-0.8));
#590 = CARTESIAN_POINT('',(1.753411343126,-0.8));
#591 = CARTESIAN_POINT('',(1.692392821017,-0.8));
#592 = CARTESIAN_POINT('',(1.631600765195,-0.8));
#593 = CARTESIAN_POINT('',(1.488401995509,-0.8));
#594 = CARTESIAN_POINT('',(1.406080121424,-0.8));
#595 = CARTESIAN_POINT('',(1.323163521412,-0.8));
#596 = CARTESIAN_POINT('',(1.239132080239,-0.8));
#597 = CARTESIAN_POINT('',(1.153401937558,-0.8));
#598 = CARTESIAN_POINT('',(1.065370483886,-0.8));
#599 = CARTESIAN_POINT('',(0.946222924928,-0.8));
#600 = CARTESIAN_POINT('',(0.91824755115,-0.8));
#601 = CARTESIAN_POINT('',(0.889940322806,-0.8));
#602 = CARTESIAN_POINT('',(0.861274244533,-0.8));
#603 = CARTESIAN_POINT('',(0.832221394061,-0.8));
#604 = CARTESIAN_POINT('',(0.802751712193,-0.8));
#605 = CARTESIAN_POINT('',(0.738090657188,-0.8));
#606 = CARTESIAN_POINT('',(0.702749121365,-0.8));
#607 = CARTESIAN_POINT('',(0.666749669564,-0.8));
#608 = CARTESIAN_POINT('',(0.630041756656,-0.8));
#609 = CARTESIAN_POINT('',(0.592579657463,-0.8));
#610 = CARTESIAN_POINT('',(0.554320316077,-0.8));
#611 = CARTESIAN_POINT('',(0.488580735828,-0.8));
#612 = CARTESIAN_POINT('',(0.461554351173,-0.8));
#613 = CARTESIAN_POINT('',(0.434130784195,-0.8));
#614 = CARTESIAN_POINT('',(0.406303969931,-0.8));
#615 = CARTESIAN_POINT('',(0.37807404386,-0.8));
#616 = CARTESIAN_POINT('',(0.349448350276,-0.8));
#617 = CARTESIAN_POINT('',(0.276668281431,-0.8));
#618 = CARTESIAN_POINT('',(0.232008207242,-0.8));
#619 = CARTESIAN_POINT('',(0.1865527091,-0.8));
#620 = CARTESIAN_POINT('',(0.14042743034,-0.8));
#621 = CARTESIAN_POINT('',(9.379582087347E-02,-0.8));
#622 = CARTESIAN_POINT('',(4.68800231696E-02,-0.8));
#623 = CARTESIAN_POINT('',(0.,-0.8));
#624 = ( GEOMETRIC_REPRESENTATION_CONTEXT(2) 
PARAMETRIC_REPRESENTATION_CONTEXT() REPRESENTATION_CONTEXT('2D SPACE',''
  ) );
#625 = ADVANCED_FACE('',(#626),#468,.T.);
#626 = FACE_BOUND('',#627,.T.);
#627 = EDGE_LOOP('',(#628,#657,#678,#679));
#628 = ORIENTED_EDGE('',*,*,#629,.F.);
#629 = EDGE_CURVE('',#630,#630,#632,.T.);
#630 = VERTEX_POINT('',#631);
#631 = CARTESIAN_POINT('',(4.5,-0.8,1.2));
#632 = SURFACE_CURVE('',#633,(#638,#645),.PCURVE_S1.);
#633 = ELLIPSE('',#634,4.5,2.75);
#634 = AXIS2_PLACEMENT_3D('',#635,#636,#637);
#635 = CARTESIAN_POINT('',(0.,-0.8,1.2));
#636 = DIRECTION('',(0.,0.,1.));
#637 = DIRECTION('',(1.,0.,-0.));
#638 = PCURVE('',#468,#639);
#639 = DEFINITIONAL_REPRESENTATION('',(#640),#644);
#640 = LINE('',#641,#642);
#641 = CARTESIAN_POINT('',(0.,0.));
#642 = VECTOR('',#643,1.);
#643 = DIRECTION('',(1.,0.));
#644 = ( GEOMETRIC_REPRESENTATION_CONTEXT(2) 
PARAMETRIC_REPRESENTATION_CONTEXT() REPRESENTATION_CONTEXT('2D SPACE',''
  ) );
#645 = PCURVE('',#646,#651);
#646 = PLANE('',#647);
#647 = AXIS2_PLACEMENT_3D('',#648,#649,#650);
#648 = CARTESIAN_POINT('',(0.282409529146,-0.8,1.2));
#649 = DIRECTION('',(0.,0.,1.));
#650 = DIRECTION('',(1.,0.,-0.));
#651 = DEFINITIONAL_REPRESENTATION('',(#652),#656);
#652 = ELLIPSE('',#653,4.5,2.75);
#653 = AXIS2_PLACEMENT_2D('',#654,#655);
#654 = CARTESIAN_POINT('',(-0.282409529146,3.32431272963E-17));
#655 = DIRECTION('',(1.,0.));
#656 = ( GEOMETRIC_REPRESENTATION_CONTEXT(2) 
PARAMETRIC_REPRESENTATION_CONTEXT() REPRESENTATION_CONTEXT('2D SPACE',''
  ) );
#657 = ORIENTED_EDGE('',*,*,#658,.T.);
#658 = EDGE_CURVE('',#630,#167,#659,.T.);
#659 = SEAM_CURVE('',#660,(#664,#671),.PCURVE_S1.);
#660 = LINE('',#661,#662);
#661 = CARTESIAN_POINT('',(4.5,-0.8,1.2));
#662 = VECTOR('',#663,1.);
#663 = DIRECTION('',(0.,0.,1.));
#664 = PCURVE('',#468,#665);
#665 = DEFINITIONAL_REPRESENTATION('',(#666),#670);
#666 = LINE('',#667,#668);
#667 = CARTESIAN_POINT('',(6.28318530718,0.));
#668 = VECTOR('',#669,1.);
#669 = DIRECTION('',(0.,-1.));
#670 = ( GEOMETRIC_REPRESENTATION_CONTEXT(2) 
PARAMETRIC_REPRESENTATION_CONTEXT() REPRESENTATION_CONTEXT('2D SPACE',''
  ) );
#671 = PCURVE('',#468,#672);
#672 = DEFINITIONAL_REPRESENTATION('',(#673),#677);
#673 = LINE('',#674,#675);
#674 = CARTESIAN_POINT('',(0.,0.));
#675 = VECTOR('',#676,1.);
#676 = DIRECTION('',(0.,-1.));
#677 = ( GEOMETRIC_REPRESENTATION_CONTEXT(2) 
PARAMETRIC_REPRESENTATION_CONTEXT() REPRESENTATION_CONTEXT('2D SPACE',''
  ) );
#678 = ORIENTED_EDGE('',*,*,#166,.F.);
#679 = ORIENTED_EDGE('',*,*,#658,.F.);
#680 = ADVANCED_FACE('',(#681),#646,.T.);
#681 = FACE_BOUND('',#682,.T.);
#682 = EDGE_LOOP('',(#683));
#683 = ORIENTED_EDGE('',*,*,#629,.T.);
#684 = ( GEOMETRIC_REPRESENTATION_CONTEXT(3) 
GLOBAL_UNCERTAINTY_ASSIGNED_CONTEXT((#688)) GLOBAL_UNIT_ASSIGNED_CONTEXT
((#685,#686,#687)) REPRESENTATION_CONTEXT('Context #1',
  '3D Context with UNIT and UNCERTAINTY') );
#685 = ( LENGTH_UNIT() NAMED_UNIT(*) SI_UNIT(.MILLI.,.METRE.) );
#686 = ( NAMED_UNIT(*) PLANE_ANGLE_UNIT() SI_UNIT($,.RADIAN.) );
#687 = ( NAMED_UNIT(*) SI_UNIT($,.STERADIAN.) SOLID_ANGLE_UNIT() );
#688 = UNCERTAINTY_MEASURE_WITH_UNIT(LENGTH_MEASURE(1.E-06),#685,
  'distance_accuracy_value','confusion accuracy');
#689 = PRODUCT_RELATED_PRODUCT_CATEGORY('part',$,(#7));
#690 = MECHANICAL_DESIGN_GEOMETRIC_PRESENTATION_REPRESENTATION('',(#691)
  ,#684);
#691 = STYLED_ITEM('color',(#692),#15);
#692 = PRESENTATION_STYLE_ASSIGNMENT((#693));
#693 = SURFACE_STYLE_USAGE(.BOTH.,#694);
#694 = SURFACE_SIDE_STYLE('',(#695));
#695 = SURFACE_STYLE_FILL_AREA(#696);
#696 = FILL_AREA_STYLE('',(#697));
#697 = FILL_AREA_STYLE_COLOUR('',#698);
#698 = COLOUR_RGB('',0.239215688916,0.254901961802,0.219607846375);

#699=DESCRIPTIVE_REPRESENTATION_ITEM('cadgen:generator','cadgen');
#700=REPRESENTATION('cadgen:generator',(#699),#684);
#701=PROPERTY_DEFINITION('cadgen metadata','cadgen:generator',#5);
#702=PROPERTY_DEFINITION_REPRESENTATION(#701,#700);
#703=DESCRIPTIVE_REPRESENTATION_ITEM('cadgen:entryKind','part');
#704=REPRESENTATION('cadgen:entryKind',(#703),#684);
#705=PROPERTY_DEFINITION('cadgen metadata','cadgen:entryKind',#5);
#706=PROPERTY_DEFINITION_REPRESENTATION(#705,#704);
#707=DESCRIPTIVE_REPRESENTATION_ITEM('cadgen:sourcePath','part_face_happy_mouth.step.py');
#708=REPRESENTATION('cadgen:sourcePath',(#707),#684);
#709=PROPERTY_DEFINITION('cadgen metadata','cadgen:sourcePath',#5);
#710=PROPERTY_DEFINITION_REPRESENTATION(#709,#708);
#711=DESCRIPTIVE_REPRESENTATION_ITEM('cadgen:sourceHash','0b00156c812e479172b86ff35d4b10ffde6385c9bfeddfde42f1fb269212838c');
#712=REPRESENTATION('cadgen:sourceHash',(#711),#684);
#713=PROPERTY_DEFINITION('cadgen metadata','cadgen:sourceHash',#5);
#714=PROPERTY_DEFINITION_REPRESENTATION(#713,#712);
ENDSEC;
END-ISO-10303-21;
