ISO-10303-21;
HEADER;
FILE_DESCRIPTION(('Open CASCADE Model'),'2;1');
FILE_NAME('horn_middle','1970-01-01T00:00:00',('Author'),('Open CASCADE'
    ),'Open CASCADE STEP processor 7.9','cadgen','Unknown');
FILE_SCHEMA(('AUTOMOTIVE_DESIGN { 1 0 10303 214 1 1 1 1 }'));
ENDSEC;
DATA;
#1 = APPLICATION_PROTOCOL_DEFINITION('international standard',
  'automotive_design',2000,#2);
#2 = APPLICATION_CONTEXT(
  'core data for automotive mechanical design processes');
#3 = SHAPE_DEFINITION_REPRESENTATION(#4,#10);
#4 = PRODUCT_DEFINITION_SHAPE('','',#5);
#5 = PRODUCT_DEFINITION('design','',#6,#9);
#6 = PRODUCT_DEFINITION_FORMATION('','',#7);
#7 = PRODUCT('horn_middle','horn_middle','',(#8));
#8 = PRODUCT_CONTEXT('',#2,'mechanical');
#9 = PRODUCT_DEFINITION_CONTEXT('part definition',#2,'design');
#10 = ADVANCED_BREP_SHAPE_REPRESENTATION('',(#11,#15),#452);
#11 = AXIS2_PLACEMENT_3D('',#12,#13,#14);
#12 = CARTESIAN_POINT('',(0.,0.,0.));
#13 = DIRECTION('',(0.,0.,1.));
#14 = DIRECTION('',(1.,0.,-0.));
#15 = MANIFOLD_SOLID_BREP('',#16);
#16 = CLOSED_SHELL('',(#17,#154,#234,#312,#390,#444,#448));
#17 = ADVANCED_FACE('',(#18),#31,.T.);
#18 = FACE_BOUND('',#19,.T.);
#19 = EDGE_LOOP('',(#20,#78,#100,#153));
#20 = ORIENTED_EDGE('',*,*,#21,.T.);
#21 = EDGE_CURVE('',#22,#22,#24,.T.);
#22 = VERTEX_POINT('',#23);
#23 = CARTESIAN_POINT('',(2.,0.,0.));
#24 = SURFACE_CURVE('',#25,(#30,#66),.PCURVE_S1.);
#25 = ELLIPSE('',#26,2.,2.);
#26 = AXIS2_PLACEMENT_3D('',#27,#28,#29);
#27 = CARTESIAN_POINT('',(0.,0.,0.));
#28 = DIRECTION('',(0.,0.,1.));
#29 = DIRECTION('',(1.,0.,-0.));
#30 = PCURVE('',#31,#60);
#31 = B_SPLINE_SURFACE_WITH_KNOTS('',13,1,(
    (#32,#33)
    ,(#34,#35)
    ,(#36,#37)
    ,(#38,#39)
    ,(#40,#41)
    ,(#42,#43)
    ,(#44,#45)
    ,(#46,#47)
    ,(#48,#49)
    ,(#50,#51)
    ,(#52,#53)
    ,(#54,#55)
    ,(#56,#57)
    ,(#58,#59
    )),.UNSPECIFIED.,.T.,.F.,.F.,(14,14),(2,2),(0.,6.28318530718),(0.,1.
    ),.PIECEWISE_BEZIER_KNOTS.);
#32 = CARTESIAN_POINT('',(2.,-5.955220744187E-16,0.));
#33 = CARTESIAN_POINT('',(2.,-5.955220744187E-16,2.));
#34 = CARTESIAN_POINT('',(2.,0.966643893412,0.));
#35 = CARTESIAN_POINT('',(2.,0.966643893412,2.));
#36 = CARTESIAN_POINT('',(1.493863663668,1.933288173373,0.));
#37 = CARTESIAN_POINT('',(1.493863663668,1.933288173373,2.000000000001)
  );
#38 = CARTESIAN_POINT('',(0.481621123683,2.610825198528,0.));
#39 = CARTESIAN_POINT('',(0.481621123683,2.610825198528,1.999999999997)
  );
#40 = CARTESIAN_POINT('',(-0.855242359967,2.710183188925,0.));
#41 = CARTESIAN_POINT('',(-0.855242359967,2.710183188925,2.000000000006)
  );
#42 = CARTESIAN_POINT('',(-2.152842485143,2.06893735148,0.));
#43 = CARTESIAN_POINT('',(-2.152842485143,2.06893735148,1.999999999991)
  );
#44 = CARTESIAN_POINT('',(-2.967399959238,0.778895344865,0.));
#45 = CARTESIAN_POINT('',(-2.967399959238,0.778895344865,2.00000000001)
  );
#46 = CARTESIAN_POINT('',(-2.967399959235,-0.778895344865,0.));
#47 = CARTESIAN_POINT('',(-2.967399959235,-0.778895344865,1.999999999991
    ));
#48 = CARTESIAN_POINT('',(-2.152842485146,-2.068937351479,0.));
#49 = CARTESIAN_POINT('',(-2.152842485146,-2.068937351479,2.000000000006
    ));
#50 = CARTESIAN_POINT('',(-0.855242359964,-2.710183188926,0.));
#51 = CARTESIAN_POINT('',(-0.855242359964,-2.710183188926,1.999999999997
    ));
#52 = CARTESIAN_POINT('',(0.481621123682,-2.610825198527,0.));
#53 = CARTESIAN_POINT('',(0.481621123682,-2.610825198527,2.000000000001)
  );
#54 = CARTESIAN_POINT('',(1.493863663668,-1.933288173373,0.));
#55 = CARTESIAN_POINT('',(1.493863663668,-1.933288173373,2.));
#56 = CARTESIAN_POINT('',(2.,-0.966643893412,0.));
#57 = CARTESIAN_POINT('',(2.,-0.966643893412,2.));
#58 = CARTESIAN_POINT('',(2.,1.668968059757E-16,0.));
#59 = CARTESIAN_POINT('',(2.,1.668968059757E-16,2.));
#60 = DEFINITIONAL_REPRESENTATION('',(#61),#65);
#61 = LINE('',#62,#63);
#62 = CARTESIAN_POINT('',(0.,0.));
#63 = VECTOR('',#64,1.);
#64 = DIRECTION('',(1.,0.));
#65 = ( GEOMETRIC_REPRESENTATION_CONTEXT(2) 
PARAMETRIC_REPRESENTATION_CONTEXT() REPRESENTATION_CONTEXT('2D SPACE',''
  ) );
#66 = PCURVE('',#67,#72);
#67 = PLANE('',#68);
#68 = AXIS2_PLACEMENT_3D('',#69,#70,#71);
#69 = CARTESIAN_POINT('',(0.,0.,0.));
#70 = DIRECTION('',(0.,0.,1.));
#71 = DIRECTION('',(1.,0.,-0.));
#72 = DEFINITIONAL_REPRESENTATION('',(#73),#77);
#73 = CIRCLE('',#74,2.);
#74 = AXIS2_PLACEMENT_2D('',#75,#76);
#75 = CARTESIAN_POINT('',(0.,0.));
#76 = DIRECTION('',(1.,0.));
#77 = ( GEOMETRIC_REPRESENTATION_CONTEXT(2) 
PARAMETRIC_REPRESENTATION_CONTEXT() REPRESENTATION_CONTEXT('2D SPACE',''
  ) );
#78 = ORIENTED_EDGE('',*,*,#79,.T.);
#79 = EDGE_CURVE('',#22,#80,#82,.T.);
#80 = VERTEX_POINT('',#81);
#81 = CARTESIAN_POINT('',(2.,0.,2.));
#82 = SEAM_CURVE('',#83,(#86,#93),.PCURVE_S1.);
#83 = B_SPLINE_CURVE_WITH_KNOTS('',1,(#84,#85),.UNSPECIFIED.,.F.,.F.,(2,
    2),(0.,1.),.PIECEWISE_BEZIER_KNOTS.);
#84 = CARTESIAN_POINT('',(2.,-5.955220744187E-16,0.));
#85 = CARTESIAN_POINT('',(2.,-5.955220744187E-16,2.));
#86 = PCURVE('',#31,#87);
#87 = DEFINITIONAL_REPRESENTATION('',(#88),#92);
#88 = LINE('',#89,#90);
#89 = CARTESIAN_POINT('',(6.28318530718,0.));
#90 = VECTOR('',#91,1.);
#91 = DIRECTION('',(0.,1.));
#92 = ( GEOMETRIC_REPRESENTATION_CONTEXT(2) 
PARAMETRIC_REPRESENTATION_CONTEXT() REPRESENTATION_CONTEXT('2D SPACE',''
  ) );
#93 = PCURVE('',#31,#94);
#94 = DEFINITIONAL_REPRESENTATION('',(#95),#99);
#95 = LINE('',#96,#97);
#96 = CARTESIAN_POINT('',(0.,0.));
#97 = VECTOR('',#98,1.);
#98 = DIRECTION('',(0.,1.));
#99 = ( GEOMETRIC_REPRESENTATION_CONTEXT(2) 
PARAMETRIC_REPRESENTATION_CONTEXT() REPRESENTATION_CONTEXT('2D SPACE',''
  ) );
#100 = ORIENTED_EDGE('',*,*,#101,.F.);
#101 = EDGE_CURVE('',#80,#80,#102,.T.);
#102 = SURFACE_CURVE('',#103,(#108,#115),.PCURVE_S1.);
#103 = ELLIPSE('',#104,2.,2.);
#104 = AXIS2_PLACEMENT_3D('',#105,#106,#107);
#105 = CARTESIAN_POINT('',(0.,0.,2.));
#106 = DIRECTION('',(0.,0.,1.));
#107 = DIRECTION('',(1.,0.,-0.));
#108 = PCURVE('',#31,#109);
#109 = DEFINITIONAL_REPRESENTATION('',(#110),#114);
#110 = LINE('',#111,#112);
#111 = CARTESIAN_POINT('',(0.,1.));
#112 = VECTOR('',#113,1.);
#113 = DIRECTION('',(1.,0.));
#114 = ( GEOMETRIC_REPRESENTATION_CONTEXT(2) 
PARAMETRIC_REPRESENTATION_CONTEXT() REPRESENTATION_CONTEXT('2D SPACE',''
  ) );
#115 = PCURVE('',#116,#147);
#116 = B_SPLINE_SURFACE_WITH_KNOTS('',14,1,(
    (#117,#118)
    ,(#119,#120)
    ,(#121,#122)
    ,(#123,#124)
    ,(#125,#126)
    ,(#127,#128)
    ,(#129,#130)
    ,(#131,#132)
    ,(#133,#134)
    ,(#135,#136)
    ,(#137,#138)
    ,(#139,#140)
    ,(#141,#142)
    ,(#143,#144)
    ,(#145,#146
    )),.UNSPECIFIED.,.T.,.F.,.F.,(15,15),(2,2),(0.,6.28318530718),(0.,1.
    ),.PIECEWISE_BEZIER_KNOTS.);
#117 = CARTESIAN_POINT('',(2.,-5.955220744187E-16,2.));
#118 = CARTESIAN_POINT('',(4.,-2.93319150148E-15,4.6));
#119 = CARTESIAN_POINT('',(2.,0.897597901025,2.));
#120 = CARTESIAN_POINT('',(4.000000000001,1.795195802053,4.6));
#121 = CARTESIAN_POINT('',(1.566168854572,1.795196133378,2.000000000001)
  );
#122 = CARTESIAN_POINT('',(3.132342555197,3.59039226675,4.600000000002)
  );
#123 = CARTESIAN_POINT('',(0.698530239394,2.465638693138,1.999999999998)
  );
#124 = CARTESIAN_POINT('',(1.3970265564,4.931277386295,4.599999999992));
#125 = CARTESIAN_POINT('',(-0.473281364638,2.681795191669,2.000000000003
    ));
#126 = CARTESIAN_POINT('',(-0.946442458971,5.3635903833,4.600000000021)
  );
#127 = CARTESIAN_POINT('',(-1.689413869008,2.297953721996,1.999999999996
    ));
#128 = CARTESIAN_POINT('',(-3.379102641588,4.595907444048,4.599999999958
    ));
#129 = CARTESIAN_POINT('',(-2.618303898912,1.331770490557,2.000000000002
    ));
#130 = CARTESIAN_POINT('',(-5.236166806668,2.663540981047,4.600000000064
    ));
#131 = CARTESIAN_POINT('',(-2.967399959237,-2.046775447541E-13,
    2.000000000001));
#132 = CARTESIAN_POINT('',(-5.935314408158,6.477041125663E-11,
    4.599999999921));
#133 = CARTESIAN_POINT('',(-2.618303898911,-1.331770490557,
    1.999999999998));
#134 = CARTESIAN_POINT('',(-5.236166806668,-2.663540981166,
    4.600000000077));
#135 = CARTESIAN_POINT('',(-1.68941386901,-2.297953721996,2.000000000003
    ));
#136 = CARTESIAN_POINT('',(-3.379102641588,-4.595907443957,
    4.599999999939));
#137 = CARTESIAN_POINT('',(-0.473281364637,-2.681795191669,
    1.999999999998));
#138 = CARTESIAN_POINT('',(-0.946442458971,-5.363590383357,
    4.600000000039));
#139 = CARTESIAN_POINT('',(0.698530239394,-2.465638693137,2.000000000001
    ));
#140 = CARTESIAN_POINT('',(1.3970265564,-4.931277386267,4.599999999981)
  );
#141 = CARTESIAN_POINT('',(1.566168854573,-1.795196133379,2.));
#142 = CARTESIAN_POINT('',(3.132342555197,-3.59039226676,4.600000000007)
  );
#143 = CARTESIAN_POINT('',(2.,-0.897597901025,2.));
#144 = CARTESIAN_POINT('',(4.000000000001,-1.79519580205,4.599999999999)
  );
#145 = CARTESIAN_POINT('',(2.,1.668968059757E-16,2.));
#146 = CARTESIAN_POINT('',(4.,3.680030987098E-16,4.6));
#147 = DEFINITIONAL_REPRESENTATION('',(#148),#152);
#148 = LINE('',#149,#150);
#149 = CARTESIAN_POINT('',(0.,0.));
#150 = VECTOR('',#151,1.);
#151 = DIRECTION('',(1.,0.));
#152 = ( GEOMETRIC_REPRESENTATION_CONTEXT(2) 
PARAMETRIC_REPRESENTATION_CONTEXT() REPRESENTATION_CONTEXT('2D SPACE',''
  ) );
#153 = ORIENTED_EDGE('',*,*,#79,.F.);
#154 = ADVANCED_FACE('',(#155),#116,.T.);
#155 = FACE_BOUND('',#156,.T.);
#156 = EDGE_LOOP('',(#157,#158,#180,#233));
#157 = ORIENTED_EDGE('',*,*,#101,.T.);
#158 = ORIENTED_EDGE('',*,*,#159,.T.);
#159 = EDGE_CURVE('',#80,#160,#162,.T.);
#160 = VERTEX_POINT('',#161);
#161 = CARTESIAN_POINT('',(4.,0.,4.6));
#162 = SEAM_CURVE('',#163,(#166,#173),.PCURVE_S1.);
#163 = B_SPLINE_CURVE_WITH_KNOTS('',1,(#164,#165),.UNSPECIFIED.,.F.,.F.,
  (2,2),(0.,1.),.PIECEWISE_BEZIER_KNOTS.);
#164 = CARTESIAN_POINT('',(2.,-5.955220744187E-16,2.));
#165 = CARTESIAN_POINT('',(4.,-2.93319150148E-15,4.6));
#166 = PCURVE('',#116,#167);
#167 = DEFINITIONAL_REPRESENTATION('',(#168),#172);
#168 = LINE('',#169,#170);
#169 = CARTESIAN_POINT('',(6.28318530718,0.));
#170 = VECTOR('',#171,1.);
#171 = DIRECTION('',(0.,1.));
#172 = ( GEOMETRIC_REPRESENTATION_CONTEXT(2) 
PARAMETRIC_REPRESENTATION_CONTEXT() REPRESENTATION_CONTEXT('2D SPACE',''
  ) );
#173 = PCURVE('',#116,#174);
#174 = DEFINITIONAL_REPRESENTATION('',(#175),#179);
#175 = LINE('',#176,#177);
#176 = CARTESIAN_POINT('',(0.,0.));
#177 = VECTOR('',#178,1.);
#178 = DIRECTION('',(0.,1.));
#179 = ( GEOMETRIC_REPRESENTATION_CONTEXT(2) 
PARAMETRIC_REPRESENTATION_CONTEXT() REPRESENTATION_CONTEXT('2D SPACE',''
  ) );
#180 = ORIENTED_EDGE('',*,*,#181,.F.);
#181 = EDGE_CURVE('',#160,#160,#182,.T.);
#182 = SURFACE_CURVE('',#183,(#188,#195),.PCURVE_S1.);
#183 = ELLIPSE('',#184,4.,4.);
#184 = AXIS2_PLACEMENT_3D('',#185,#186,#187);
#185 = CARTESIAN_POINT('',(0.,0.,4.6));
#186 = DIRECTION('',(0.,0.,1.));
#187 = DIRECTION('',(1.,0.,-0.));
#188 = PCURVE('',#116,#189);
#189 = DEFINITIONAL_REPRESENTATION('',(#190),#194);
#190 = LINE('',#191,#192);
#191 = CARTESIAN_POINT('',(0.,1.));
#192 = VECTOR('',#193,1.);
#193 = DIRECTION('',(1.,0.));
#194 = ( GEOMETRIC_REPRESENTATION_CONTEXT(2) 
PARAMETRIC_REPRESENTATION_CONTEXT() REPRESENTATION_CONTEXT('2D SPACE',''
  ) );
#195 = PCURVE('',#196,#227);
#196 = B_SPLINE_SURFACE_WITH_KNOTS('',14,1,(
    (#197,#198)
    ,(#199,#200)
    ,(#201,#202)
    ,(#203,#204)
    ,(#205,#206)
    ,(#207,#208)
    ,(#209,#210)
    ,(#211,#212)
    ,(#213,#214)
    ,(#215,#216)
    ,(#217,#218)
    ,(#219,#220)
    ,(#221,#222)
    ,(#223,#224)
    ,(#225,#226
    )),.UNSPECIFIED.,.T.,.F.,.F.,(15,15),(2,2),(0.,6.28318530718),(0.,1.
    ),.PIECEWISE_BEZIER_KNOTS.);
#197 = CARTESIAN_POINT('',(4.,-2.93319150148E-15,4.6));
#198 = CARTESIAN_POINT('',(3.12,0.4,7.72));
#199 = CARTESIAN_POINT('',(4.000000000001,1.795195802053,4.6));
#200 = CARTESIAN_POINT('',(3.12,1.8002527256,7.72));
#201 = CARTESIAN_POINT('',(3.132342555197,3.59039226675,4.600000000002)
  );
#202 = CARTESIAN_POINT('',(2.443223413132,3.20050596807,7.720000000001)
  );
#203 = CARTESIAN_POINT('',(1.3970265564,4.931277386295,4.599999999992));
#204 = CARTESIAN_POINT('',(1.089707173458,4.246396361295,7.719999999997)
  );
#205 = CARTESIAN_POINT('',(-0.946442458971,5.3635903833,4.600000000021)
  );
#206 = CARTESIAN_POINT('',(-0.73831892884,4.583600499002,7.720000000005)
  );
#207 = CARTESIAN_POINT('',(-3.379102641588,4.595907444048,4.599999999958
    ));
#208 = CARTESIAN_POINT('',(-2.635485635648,3.984807806315,7.719999999995
    ));
#209 = CARTESIAN_POINT('',(-5.236166806668,2.663540981047,4.600000000064
    ));
#210 = CARTESIAN_POINT('',(-4.084554082305,2.477561965268,7.720000000001
    ));
#211 = CARTESIAN_POINT('',(-5.935314408158,6.477041125663E-11,
    4.599999999921));
#212 = CARTESIAN_POINT('',(-4.629143936409,0.4,7.720000000002));
#213 = CARTESIAN_POINT('',(-5.236166806668,-2.663540981166,
    4.600000000077));
#214 = CARTESIAN_POINT('',(-4.084554082298,-1.677561965268,
    7.719999999997));
#215 = CARTESIAN_POINT('',(-3.379102641588,-4.595907443957,
    4.599999999939));
#216 = CARTESIAN_POINT('',(-2.63548563566,-3.184807806315,7.720000000002
    ));
#217 = CARTESIAN_POINT('',(-0.946442458971,-5.363590383357,
    4.600000000039));
#218 = CARTESIAN_POINT('',(-0.738318928829,-3.783600499003,7.72));
#219 = CARTESIAN_POINT('',(1.3970265564,-4.931277386267,4.599999999981)
  );
#220 = CARTESIAN_POINT('',(1.089707173452,-3.446396361295,7.719999999999
    ));
#221 = CARTESIAN_POINT('',(3.132342555197,-3.59039226676,4.600000000007)
  );
#222 = CARTESIAN_POINT('',(2.443223413134,-2.400505968071,7.720000000001
    ));
#223 = CARTESIAN_POINT('',(4.000000000001,-1.79519580205,4.599999999999)
  );
#224 = CARTESIAN_POINT('',(3.12,-1.0002527256,7.72));
#225 = CARTESIAN_POINT('',(4.,3.680030987098E-16,4.6));
#226 = CARTESIAN_POINT('',(3.12,0.4,7.72));
#227 = DEFINITIONAL_REPRESENTATION('',(#228),#232);
#228 = LINE('',#229,#230);
#229 = CARTESIAN_POINT('',(0.,0.));
#230 = VECTOR('',#231,1.);
#231 = DIRECTION('',(1.,0.));
#232 = ( GEOMETRIC_REPRESENTATION_CONTEXT(2) 
PARAMETRIC_REPRESENTATION_CONTEXT() REPRESENTATION_CONTEXT('2D SPACE',''
  ) );
#233 = ORIENTED_EDGE('',*,*,#159,.F.);
#234 = ADVANCED_FACE('',(#235),#196,.T.);
#235 = FACE_BOUND('',#236,.T.);
#236 = EDGE_LOOP('',(#237,#238,#260,#311));
#237 = ORIENTED_EDGE('',*,*,#181,.T.);
#238 = ORIENTED_EDGE('',*,*,#239,.T.);
#239 = EDGE_CURVE('',#160,#240,#242,.T.);
#240 = VERTEX_POINT('',#241);
#241 = CARTESIAN_POINT('',(3.12,0.4,7.72));
#242 = SEAM_CURVE('',#243,(#246,#253),.PCURVE_S1.);
#243 = B_SPLINE_CURVE_WITH_KNOTS('',1,(#244,#245),.UNSPECIFIED.,.F.,.F.,
  (2,2),(0.,1.),.PIECEWISE_BEZIER_KNOTS.);
#244 = CARTESIAN_POINT('',(4.,-2.93319150148E-15,4.6));
#245 = CARTESIAN_POINT('',(3.12,0.4,7.72));
#246 = PCURVE('',#196,#247);
#247 = DEFINITIONAL_REPRESENTATION('',(#248),#252);
#248 = LINE('',#249,#250);
#249 = CARTESIAN_POINT('',(6.28318530718,0.));
#250 = VECTOR('',#251,1.);
#251 = DIRECTION('',(0.,1.));
#252 = ( GEOMETRIC_REPRESENTATION_CONTEXT(2) 
PARAMETRIC_REPRESENTATION_CONTEXT() REPRESENTATION_CONTEXT('2D SPACE',''
  ) );
#253 = PCURVE('',#196,#254);
#254 = DEFINITIONAL_REPRESENTATION('',(#255),#259);
#255 = LINE('',#256,#257);
#256 = CARTESIAN_POINT('',(0.,0.));
#257 = VECTOR('',#258,1.);
#258 = DIRECTION('',(0.,1.));
#259 = ( GEOMETRIC_REPRESENTATION_CONTEXT(2) 
PARAMETRIC_REPRESENTATION_CONTEXT() REPRESENTATION_CONTEXT('2D SPACE',''
  ) );
#260 = ORIENTED_EDGE('',*,*,#261,.F.);
#261 = EDGE_CURVE('',#240,#240,#262,.T.);
#262 = SURFACE_CURVE('',#263,(#268,#275),.PCURVE_S1.);
#263 = ELLIPSE('',#264,3.12,3.12);
#264 = AXIS2_PLACEMENT_3D('',#265,#266,#267);
#265 = CARTESIAN_POINT('',(0.,0.4,7.72));
#266 = DIRECTION('',(0.,0.,1.));
#267 = DIRECTION('',(1.,0.,-0.));
#268 = PCURVE('',#196,#269);
#269 = DEFINITIONAL_REPRESENTATION('',(#270),#274);
#270 = LINE('',#271,#272);
#271 = CARTESIAN_POINT('',(0.,1.));
#272 = VECTOR('',#273,1.);
#273 = DIRECTION('',(1.,0.));
#274 = ( GEOMETRIC_REPRESENTATION_CONTEXT(2) 
PARAMETRIC_REPRESENTATION_CONTEXT() REPRESENTATION_CONTEXT('2D SPACE',''
  ) );
#275 = PCURVE('',#276,#305);
#276 = B_SPLINE_SURFACE_WITH_KNOTS('',13,1,(
    (#277,#278)
    ,(#279,#280)
    ,(#281,#282)
    ,(#283,#284)
    ,(#285,#286)
    ,(#287,#288)
    ,(#289,#290)
    ,(#291,#292)
    ,(#293,#294)
    ,(#295,#296)
    ,(#297,#298)
    ,(#299,#300)
    ,(#301,#302)
    ,(#303,#304
    )),.UNSPECIFIED.,.T.,.F.,.F.,(14,14),(2,2),(0.,6.28318530718),(0.,1.
    ),.PIECEWISE_BEZIER_KNOTS.);
#277 = CARTESIAN_POINT('',(3.12,0.4,7.72));
#278 = CARTESIAN_POINT('',(1.76,1.4,11.36));
#279 = CARTESIAN_POINT('',(3.12,1.907964473723,7.72));
#280 = CARTESIAN_POINT('',(1.76,2.250646626203,11.359999999999));
#281 = CARTESIAN_POINT('',(2.33042731532,3.415929550461,7.720000000002)
  );
#282 = CARTESIAN_POINT('',(1.314600024027,3.101293592568,11.360000000006
    ));
#283 = CARTESIAN_POINT('',(0.75132895295,4.472887309704,7.719999999995)
  );
#284 = CARTESIAN_POINT('',(0.423826588842,3.697526174705,11.359999999985
    ));
#285 = CARTESIAN_POINT('',(-1.334178081555,4.627885774722,7.720000000009
    ));
#286 = CARTESIAN_POINT('',(-0.752613276772,3.784961206254,11.36000000003
    ));
#287 = CARTESIAN_POINT('',(-3.358434276811,3.627542268311,7.719999999988
    ));
#288 = CARTESIAN_POINT('',(-1.894501386923,3.220664869302,
    11.359999999957));
#289 = CARTESIAN_POINT('',(-4.629143936426,1.615076737986,7.720000000012
    ));
#290 = CARTESIAN_POINT('',(-2.611311964133,2.085427903481,
    11.360000000048));
#291 = CARTESIAN_POINT('',(-4.629143936392,-0.815076737986,
    7.719999999993));
#292 = CARTESIAN_POINT('',(-2.611311964123,0.714572096519,
    11.359999999959));
#293 = CARTESIAN_POINT('',(-3.358434276839,-2.827542268311,
    7.720000000002));
#294 = CARTESIAN_POINT('',(-1.894501386931,-0.420664869303,
    11.360000000028));
#295 = CARTESIAN_POINT('',(-1.334178081538,-3.827885774722,
    7.720000000001));
#296 = CARTESIAN_POINT('',(-0.752613276767,-0.984961206254,
    11.359999999985));
#297 = CARTESIAN_POINT('',(0.751328952941,-3.672887309704,7.719999999999
    ));
#298 = CARTESIAN_POINT('',(0.423826588839,-0.897526174704,
    11.360000000006));
#299 = CARTESIAN_POINT('',(2.330427315323,-2.615929550462,7.720000000001
    ));
#300 = CARTESIAN_POINT('',(1.314600024028,-0.301293592568,
    11.359999999998));
#301 = CARTESIAN_POINT('',(3.12,-1.107964473723,7.72));
#302 = CARTESIAN_POINT('',(1.76,0.549353373797,11.36));
#303 = CARTESIAN_POINT('',(3.12,0.4,7.72));
#304 = CARTESIAN_POINT('',(1.76,1.4,11.36));
#305 = DEFINITIONAL_REPRESENTATION('',(#306),#310);
#306 = LINE('',#307,#308);
#307 = CARTESIAN_POINT('',(0.,0.));
#308 = VECTOR('',#309,1.);
#309 = DIRECTION('',(1.,0.));
#310 = ( GEOMETRIC_REPRESENTATION_CONTEXT(2) 
PARAMETRIC_REPRESENTATION_CONTEXT() REPRESENTATION_CONTEXT('2D SPACE',''
  ) );
#311 = ORIENTED_EDGE('',*,*,#239,.F.);
#312 = ADVANCED_FACE('',(#313),#276,.T.);
#313 = FACE_BOUND('',#314,.T.);
#314 = EDGE_LOOP('',(#315,#316,#338,#389));
#315 = ORIENTED_EDGE('',*,*,#261,.T.);
#316 = ORIENTED_EDGE('',*,*,#317,.T.);
#317 = EDGE_CURVE('',#240,#318,#320,.T.);
#318 = VERTEX_POINT('',#319);
#319 = CARTESIAN_POINT('',(1.76,1.4,11.36));
#320 = SEAM_CURVE('',#321,(#324,#331),.PCURVE_S1.);
#321 = B_SPLINE_CURVE_WITH_KNOTS('',1,(#322,#323),.UNSPECIFIED.,.F.,.F.,
  (2,2),(0.,1.),.PIECEWISE_BEZIER_KNOTS.);
#322 = CARTESIAN_POINT('',(3.12,0.4,7.72));
#323 = CARTESIAN_POINT('',(1.76,1.4,11.36));
#324 = PCURVE('',#276,#325);
#325 = DEFINITIONAL_REPRESENTATION('',(#326),#330);
#326 = LINE('',#327,#328);
#327 = CARTESIAN_POINT('',(6.28318530718,0.));
#328 = VECTOR('',#329,1.);
#329 = DIRECTION('',(0.,1.));
#330 = ( GEOMETRIC_REPRESENTATION_CONTEXT(2) 
PARAMETRIC_REPRESENTATION_CONTEXT() REPRESENTATION_CONTEXT('2D SPACE',''
  ) );
#331 = PCURVE('',#276,#332);
#332 = DEFINITIONAL_REPRESENTATION('',(#333),#337);
#333 = LINE('',#334,#335);
#334 = CARTESIAN_POINT('',(0.,0.));
#335 = VECTOR('',#336,1.);
#336 = DIRECTION('',(0.,1.));
#337 = ( GEOMETRIC_REPRESENTATION_CONTEXT(2) 
PARAMETRIC_REPRESENTATION_CONTEXT() REPRESENTATION_CONTEXT('2D SPACE',''
  ) );
#338 = ORIENTED_EDGE('',*,*,#339,.F.);
#339 = EDGE_CURVE('',#318,#318,#340,.T.);
#340 = SURFACE_CURVE('',#341,(#346,#353),.PCURVE_S1.);
#341 = ELLIPSE('',#342,1.76,1.76);
#342 = AXIS2_PLACEMENT_3D('',#343,#344,#345);
#343 = CARTESIAN_POINT('',(0.,1.4,11.36));
#344 = DIRECTION('',(0.,0.,1.));
#345 = DIRECTION('',(1.,0.,-0.));
#346 = PCURVE('',#276,#347);
#347 = DEFINITIONAL_REPRESENTATION('',(#348),#352);
#348 = LINE('',#349,#350);
#349 = CARTESIAN_POINT('',(0.,1.));
#350 = VECTOR('',#351,1.);
#351 = DIRECTION('',(1.,0.));
#352 = ( GEOMETRIC_REPRESENTATION_CONTEXT(2) 
PARAMETRIC_REPRESENTATION_CONTEXT() REPRESENTATION_CONTEXT('2D SPACE',''
  ) );
#353 = PCURVE('',#354,#383);
#354 = B_SPLINE_SURFACE_WITH_KNOTS('',13,1,(
    (#355,#356)
    ,(#357,#358)
    ,(#359,#360)
    ,(#361,#362)
    ,(#363,#364)
    ,(#365,#366)
    ,(#367,#368)
    ,(#369,#370)
    ,(#371,#372)
    ,(#373,#374)
    ,(#375,#376)
    ,(#377,#378)
    ,(#379,#380)
    ,(#381,#382
    )),.UNSPECIFIED.,.T.,.F.,.F.,(14,14),(2,2),(0.,6.28318530718),(0.,1.
    ),.PIECEWISE_BEZIER_KNOTS.);
#355 = CARTESIAN_POINT('',(1.76,1.4,11.36));
#356 = CARTESIAN_POINT('',(0.6,2.,15.));
#357 = CARTESIAN_POINT('',(1.76,2.250646626203,11.359999999999));
#358 = CARTESIAN_POINT('',(0.6,2.289993168023,14.999999999998));
#359 = CARTESIAN_POINT('',(1.314600024027,3.101293592568,11.360000000006
    ));
#360 = CARTESIAN_POINT('',(0.4481590991,2.579986452013,15.000000000009)
  );
#361 = CARTESIAN_POINT('',(0.423826588842,3.697526174705,11.359999999985
    ));
#362 = CARTESIAN_POINT('',(0.144486337105,2.783247559555,14.999999999977
    ));
#363 = CARTESIAN_POINT('',(-0.752613276772,3.784961206254,11.36000000003
    ));
#364 = CARTESIAN_POINT('',(-0.256572707989,2.813054956683,
    15.000000000044));
#365 = CARTESIAN_POINT('',(-1.894501386923,3.220664869302,
    11.359999999957));
#366 = CARTESIAN_POINT('',(-0.645852745544,2.620681205436,
    14.999999999936));
#367 = CARTESIAN_POINT('',(-2.611311964133,2.085427903481,
    11.360000000048));
#368 = CARTESIAN_POINT('',(-0.89021998777,2.233668603468,15.000000000071
    ));
#369 = CARTESIAN_POINT('',(-2.611311964123,0.714572096519,
    11.359999999959));
#370 = CARTESIAN_POINT('',(-0.890219987772,1.766331396533,
    14.999999999938));
#371 = CARTESIAN_POINT('',(-1.894501386931,-0.420664869303,
    11.360000000028));
#372 = CARTESIAN_POINT('',(-0.645852745543,1.379318794561,
    15.000000000042));
#373 = CARTESIAN_POINT('',(-0.752613276767,-0.984961206254,
    11.359999999985));
#374 = CARTESIAN_POINT('',(-0.25657270799,1.186945043319,14.999999999977
    ));
#375 = CARTESIAN_POINT('',(0.423826588839,-0.897526174704,
    11.360000000006));
#376 = CARTESIAN_POINT('',(0.144486337105,1.216752440443,15.00000000001)
  );
#377 = CARTESIAN_POINT('',(1.314600024028,-0.301293592568,
    11.359999999998));
#378 = CARTESIAN_POINT('',(0.4481590991,1.420013547988,14.999999999997)
  );
#379 = CARTESIAN_POINT('',(1.76,0.549353373797,11.36));
#380 = CARTESIAN_POINT('',(0.6,1.710006831976,15.000000000001));
#381 = CARTESIAN_POINT('',(1.76,1.4,11.36));
#382 = CARTESIAN_POINT('',(0.6,2.,15.));
#383 = DEFINITIONAL_REPRESENTATION('',(#384),#388);
#384 = LINE('',#385,#386);
#385 = CARTESIAN_POINT('',(0.,0.));
#386 = VECTOR('',#387,1.);
#387 = DIRECTION('',(1.,0.));
#388 = ( GEOMETRIC_REPRESENTATION_CONTEXT(2) 
PARAMETRIC_REPRESENTATION_CONTEXT() REPRESENTATION_CONTEXT('2D SPACE',''
  ) );
#389 = ORIENTED_EDGE('',*,*,#317,.F.);
#390 = ADVANCED_FACE('',(#391),#354,.T.);
#391 = FACE_BOUND('',#392,.T.);
#392 = EDGE_LOOP('',(#393,#394,#416,#443));
#393 = ORIENTED_EDGE('',*,*,#339,.T.);
#394 = ORIENTED_EDGE('',*,*,#395,.T.);
#395 = EDGE_CURVE('',#318,#396,#398,.T.);
#396 = VERTEX_POINT('',#397);
#397 = CARTESIAN_POINT('',(0.6,2.,15.));
#398 = SEAM_CURVE('',#399,(#402,#409),.PCURVE_S1.);
#399 = B_SPLINE_CURVE_WITH_KNOTS('',1,(#400,#401),.UNSPECIFIED.,.F.,.F.,
  (2,2),(0.,1.),.PIECEWISE_BEZIER_KNOTS.);
#400 = CARTESIAN_POINT('',(1.76,1.4,11.36));
#401 = CARTESIAN_POINT('',(0.6,2.,15.));
#402 = PCURVE('',#354,#403);
#403 = DEFINITIONAL_REPRESENTATION('',(#404),#408);
#404 = LINE('',#405,#406);
#405 = CARTESIAN_POINT('',(6.28318530718,0.));
#406 = VECTOR('',#407,1.);
#407 = DIRECTION('',(0.,1.));
#408 = ( GEOMETRIC_REPRESENTATION_CONTEXT(2) 
PARAMETRIC_REPRESENTATION_CONTEXT() REPRESENTATION_CONTEXT('2D SPACE',''
  ) );
#409 = PCURVE('',#354,#410);
#410 = DEFINITIONAL_REPRESENTATION('',(#411),#415);
#411 = LINE('',#412,#413);
#412 = CARTESIAN_POINT('',(0.,0.));
#413 = VECTOR('',#414,1.);
#414 = DIRECTION('',(0.,1.));
#415 = ( GEOMETRIC_REPRESENTATION_CONTEXT(2) 
PARAMETRIC_REPRESENTATION_CONTEXT() REPRESENTATION_CONTEXT('2D SPACE',''
  ) );
#416 = ORIENTED_EDGE('',*,*,#417,.F.);
#417 = EDGE_CURVE('',#396,#396,#418,.T.);
#418 = SURFACE_CURVE('',#419,(#424,#431),.PCURVE_S1.);
#419 = ELLIPSE('',#420,0.6,0.6);
#420 = AXIS2_PLACEMENT_3D('',#421,#422,#423);
#421 = CARTESIAN_POINT('',(0.,2.,15.));
#422 = DIRECTION('',(0.,0.,1.));
#423 = DIRECTION('',(1.,0.,-0.));
#424 = PCURVE('',#354,#425);
#425 = DEFINITIONAL_REPRESENTATION('',(#426),#430);
#426 = LINE('',#427,#428);
#427 = CARTESIAN_POINT('',(0.,1.));
#428 = VECTOR('',#429,1.);
#429 = DIRECTION('',(1.,0.));
#430 = ( GEOMETRIC_REPRESENTATION_CONTEXT(2) 
PARAMETRIC_REPRESENTATION_CONTEXT() REPRESENTATION_CONTEXT('2D SPACE',''
  ) );
#431 = PCURVE('',#432,#437);
#432 = PLANE('',#433);
#433 = AXIS2_PLACEMENT_3D('',#434,#435,#436);
#434 = CARTESIAN_POINT('',(0.,2.,15.));
#435 = DIRECTION('',(0.,0.,1.));
#436 = DIRECTION('',(1.,0.,-0.));
#437 = DEFINITIONAL_REPRESENTATION('',(#438),#442);
#438 = CIRCLE('',#439,0.6);
#439 = AXIS2_PLACEMENT_2D('',#440,#441);
#440 = CARTESIAN_POINT('',(0.,0.));
#441 = DIRECTION('',(1.,0.));
#442 = ( GEOMETRIC_REPRESENTATION_CONTEXT(2) 
PARAMETRIC_REPRESENTATION_CONTEXT() REPRESENTATION_CONTEXT('2D SPACE',''
  ) );
#443 = ORIENTED_EDGE('',*,*,#395,.F.);
#444 = ADVANCED_FACE('',(#445),#67,.F.);
#445 = FACE_BOUND('',#446,.F.);
#446 = EDGE_LOOP('',(#447));
#447 = ORIENTED_EDGE('',*,*,#21,.T.);
#448 = ADVANCED_FACE('',(#449),#432,.T.);
#449 = FACE_BOUND('',#450,.T.);
#450 = EDGE_LOOP('',(#451));
#451 = ORIENTED_EDGE('',*,*,#417,.T.);
#452 = ( GEOMETRIC_REPRESENTATION_CONTEXT(3) 
GLOBAL_UNCERTAINTY_ASSIGNED_CONTEXT((#456)) GLOBAL_UNIT_ASSIGNED_CONTEXT
((#453,#454,#455)) REPRESENTATION_CONTEXT('Context #1',
  '3D Context with UNIT and UNCERTAINTY') );
#453 = ( LENGTH_UNIT() NAMED_UNIT(*) SI_UNIT(.MILLI.,.METRE.) );
#454 = ( NAMED_UNIT(*) PLANE_ANGLE_UNIT() SI_UNIT($,.RADIAN.) );
#455 = ( NAMED_UNIT(*) SI_UNIT($,.STERADIAN.) SOLID_ANGLE_UNIT() );
#456 = UNCERTAINTY_MEASURE_WITH_UNIT(LENGTH_MEASURE(1.E-07),#453,
  'distance_accuracy_value','confusion accuracy');
#457 = PRODUCT_RELATED_PRODUCT_CATEGORY('part',$,(#7));
#458 = MECHANICAL_DESIGN_GEOMETRIC_PRESENTATION_REPRESENTATION('',(#459)
  ,#452);
#459 = STYLED_ITEM('color',(#460),#15);
#460 = PRESENTATION_STYLE_ASSIGNMENT((#461));
#461 = SURFACE_STYLE_USAGE(.BOTH.,#462);
#462 = SURFACE_SIDE_STYLE('',(#463));
#463 = SURFACE_STYLE_FILL_AREA(#464);
#464 = FILL_AREA_STYLE('',(#465));
#465 = FILL_AREA_STYLE_COLOUR('',#466);
#466 = COLOUR_RGB('',4.666508556042E-02,5.286064699183E-02,
  3.954623419791E-02);

#467=DESCRIPTIVE_REPRESENTATION_ITEM('cadgen:generator','cadgen');
#468=REPRESENTATION('cadgen:generator',(#467),#452);
#469=PROPERTY_DEFINITION('cadgen metadata','cadgen:generator',#5);
#470=PROPERTY_DEFINITION_REPRESENTATION(#469,#468);
#471=DESCRIPTIVE_REPRESENTATION_ITEM('cadgen:entryKind','part');
#472=REPRESENTATION('cadgen:entryKind',(#471),#452);
#473=PROPERTY_DEFINITION('cadgen metadata','cadgen:entryKind',#5);
#474=PROPERTY_DEFINITION_REPRESENTATION(#473,#472);
#475=DESCRIPTIVE_REPRESENTATION_ITEM('cadgen:sourcePath','part_horn_middle.step.py');
#476=REPRESENTATION('cadgen:sourcePath',(#475),#452);
#477=PROPERTY_DEFINITION('cadgen metadata','cadgen:sourcePath',#5);
#478=PROPERTY_DEFINITION_REPRESENTATION(#477,#476);
#479=DESCRIPTIVE_REPRESENTATION_ITEM('cadgen:sourceHash','690dcf6e4917d4c9e1376a34d8f12b9bb79438bff903bfc136c8fa9f58bc551d');
#480=REPRESENTATION('cadgen:sourceHash',(#479),#452);
#481=PROPERTY_DEFINITION('cadgen metadata','cadgen:sourceHash',#5);
#482=PROPERTY_DEFINITION_REPRESENTATION(#481,#480);
ENDSEC;
END-ISO-10303-21;
