ISO-10303-21;
HEADER;
FILE_DESCRIPTION(('Open CASCADE Model'),'2;1');
FILE_NAME('lane_06_cocoa_brown','1970-01-01T00:00:00',('Author'),(
    'Open CASCADE'),'Open CASCADE STEP processor 7.9','cadgen','Unknown'
  );
FILE_SCHEMA(('AUTOMOTIVE_DESIGN { 1 0 10303 214 1 1 1 1 }'));
ENDSEC;
DATA;
#1 = APPLICATION_PROTOCOL_DEFINITION('international standard',
  'automotive_design',2000,#2);
#2 = APPLICATION_CONTEXT(
  'core data for automotive mechanical design processes');
#3 = SHAPE_DEFINITION_REPRESENTATION(#4,#10);
#4 = PRODUCT_DEFINITION_SHAPE('','',#5);
#5 = PRODUCT_DEFINITION('design','',#6,#9);
#6 = PRODUCT_DEFINITION_FORMATION('','',#7);
#7 = PRODUCT('=>[0:1:1:2]','=>[0:1:1:2]','',(#8));
#8 = PRODUCT_CONTEXT('',#2,'mechanical');
#9 = PRODUCT_DEFINITION_CONTEXT('part definition',#2,'design');
#10 = SHAPE_REPRESENTATION('',(#11,#15),#19);
#11 = AXIS2_PLACEMENT_3D('',#12,#13,#14);
#12 = CARTESIAN_POINT('',(0.,0.,0.));
#13 = DIRECTION('',(0.,0.,1.));
#14 = DIRECTION('',(1.,0.,-0.));
#15 = AXIS2_PLACEMENT_3D('',#16,#17,#18);
#16 = CARTESIAN_POINT('',(0.,0.,6.));
#17 = DIRECTION('',(0.,-1.224646799147E-16,-1.));
#18 = DIRECTION('',(1.,0.,0.));
#19 = ( GEOMETRIC_REPRESENTATION_CONTEXT(3) 
GLOBAL_UNCERTAINTY_ASSIGNED_CONTEXT((#23)) GLOBAL_UNIT_ASSIGNED_CONTEXT(
(#20,#21,#22)) REPRESENTATION_CONTEXT('Context #1',
  '3D Context with UNIT and UNCERTAINTY') );
#20 = ( LENGTH_UNIT() NAMED_UNIT(*) SI_UNIT(.MILLI.,.METRE.) );
#21 = ( NAMED_UNIT(*) PLANE_ANGLE_UNIT() SI_UNIT($,.RADIAN.) );
#22 = ( NAMED_UNIT(*) SI_UNIT($,.STERADIAN.) SOLID_ANGLE_UNIT() );
#23 = UNCERTAINTY_MEASURE_WITH_UNIT(LENGTH_MEASURE(1.E-07),#20,
  'distance_accuracy_value','confusion accuracy');
#24 = PRODUCT_RELATED_PRODUCT_CATEGORY('part',$,(#7));
#25 = SHAPE_DEFINITION_REPRESENTATION(#26,#32);
#26 = PRODUCT_DEFINITION_SHAPE('','',#27);
#27 = PRODUCT_DEFINITION('design','',#28,#31);
#28 = PRODUCT_DEFINITION_FORMATION('','',#29);
#29 = PRODUCT('lane_06_cocoa_brown','lane_06_cocoa_brown','',(#30));
#30 = PRODUCT_CONTEXT('',#2,'mechanical');
#31 = PRODUCT_DEFINITION_CONTEXT('part definition',#2,'design');
#32 = ADVANCED_BREP_SHAPE_REPRESENTATION('',(#11,#33),#1449);
#33 = MANIFOLD_SOLID_BREP('',#34);
#34 = CLOSED_SHELL('',(#35,#155,#306,#471,#607,#687,#739,#814,#846,#938,
    #1034,#1061,#1217,#1224,#1231,#1307,#1361,#1410,#1442));
#35 = ADVANCED_FACE('',(#36),#50,.F.);
#36 = FACE_BOUND('',#37,.F.);
#37 = EDGE_LOOP('',(#38,#73,#101,#129));
#38 = ORIENTED_EDGE('',*,*,#39,.F.);
#39 = EDGE_CURVE('',#40,#42,#44,.T.);
#40 = VERTEX_POINT('',#41);
#41 = CARTESIAN_POINT('',(78.93314390725,-9.887431057525,5.4));
#42 = VERTEX_POINT('',#43);
#43 = CARTESIAN_POINT('',(78.93314390725,-9.887431057525,5.85));
#44 = SURFACE_CURVE('',#45,(#49,#61),.PCURVE_S1.);
#45 = LINE('',#46,#47);
#46 = CARTESIAN_POINT('',(78.93314390725,-9.887431057525,3.8));
#47 = VECTOR('',#48,1.);
#48 = DIRECTION('',(0.,0.,1.));
#49 = PCURVE('',#50,#55);
#50 = PLANE('',#51);
#51 = AXIS2_PLACEMENT_3D('',#52,#53,#54);
#52 = CARTESIAN_POINT('',(26.333874879519,-2.962605918753,3.8));
#53 = DIRECTION('',(0.13052619222,0.991444861374,-0.));
#54 = DIRECTION('',(0.991444861374,-0.13052619222,0.));
#55 = DEFINITIONAL_REPRESENTATION('',(#56),#60);
#56 = LINE('',#57,#58);
#57 = CARTESIAN_POINT('',(53.053146046716,0.));
#58 = VECTOR('',#59,1.);
#59 = DIRECTION('',(0.,-1.));
#60 = ( GEOMETRIC_REPRESENTATION_CONTEXT(2) 
PARAMETRIC_REPRESENTATION_CONTEXT() REPRESENTATION_CONTEXT('2D SPACE',''
  ) );
#61 = PCURVE('',#62,#67);
#62 = CYLINDRICAL_SURFACE('',#63,79.550000000003);
#63 = AXIS2_PLACEMENT_3D('',#64,#65,#66);
#64 = CARTESIAN_POINT('',(-2.526055462657E-12,2.754589480411E-16,3.8));
#65 = DIRECTION('',(-0.,0.,-1.));
#66 = DIRECTION('',(0.992245680795,-0.124292030893,-0.));
#67 = DEFINITIONAL_REPRESENTATION('',(#68),#72);
#68 = LINE('',#69,#70);
#69 = CARTESIAN_POINT('',(-0.,0.));
#70 = VECTOR('',#71,1.);
#71 = DIRECTION('',(-0.,-1.));
#72 = ( GEOMETRIC_REPRESENTATION_CONTEXT(2) 
PARAMETRIC_REPRESENTATION_CONTEXT() REPRESENTATION_CONTEXT('2D SPACE',''
  ) );
#73 = ORIENTED_EDGE('',*,*,#74,.F.);
#74 = EDGE_CURVE('',#75,#40,#77,.T.);
#75 = VERTEX_POINT('',#76);
#76 = CARTESIAN_POINT('',(26.333874879519,-2.962605918753,5.4));
#77 = SURFACE_CURVE('',#78,(#82,#89),.PCURVE_S1.);
#78 = LINE('',#79,#80);
#79 = CARTESIAN_POINT('',(6.526309611003E-02,0.495722430687,5.4));
#80 = VECTOR('',#81,1.);
#81 = DIRECTION('',(0.991444861374,-0.13052619222,0.));
#82 = PCURVE('',#50,#83);
#83 = DEFINITIONAL_REPRESENTATION('',(#84),#88);
#84 = LINE('',#85,#86);
#85 = CARTESIAN_POINT('',(-26.49528259898,-1.6));
#86 = VECTOR('',#87,1.);
#87 = DIRECTION('',(1.,0.));
#88 = ( GEOMETRIC_REPRESENTATION_CONTEXT(2) 
PARAMETRIC_REPRESENTATION_CONTEXT() REPRESENTATION_CONTEXT('2D SPACE',''
  ) );
#89 = PCURVE('',#90,#95);
#90 = PLANE('',#91);
#91 = AXIS2_PLACEMENT_3D('',#92,#93,#94);
#92 = CARTESIAN_POINT('',(0.143578811442,1.090589347511,3.8));
#93 = DIRECTION('',(-0.122215482213,-0.928318751655,-0.351123441588));
#94 = DIRECTION('',(-4.583080582973E-02,-0.348119531871,0.936329177569)
  );
#95 = DEFINITIONAL_REPRESENTATION('',(#96),#100);
#96 = LINE('',#97,#98);
#97 = CARTESIAN_POINT('',(1.708800749064,0.));
#98 = VECTOR('',#99,1.);
#99 = DIRECTION('',(0.,-1.));
#100 = ( GEOMETRIC_REPRESENTATION_CONTEXT(2) 
PARAMETRIC_REPRESENTATION_CONTEXT() REPRESENTATION_CONTEXT('2D SPACE',''
  ) );
#101 = ORIENTED_EDGE('',*,*,#102,.T.);
#102 = EDGE_CURVE('',#75,#103,#105,.T.);
#103 = VERTEX_POINT('',#104);
#104 = CARTESIAN_POINT('',(26.333874879519,-2.962605918753,5.85));
#105 = SURFACE_CURVE('',#106,(#110,#117),.PCURVE_S1.);
#106 = LINE('',#107,#108);
#107 = CARTESIAN_POINT('',(26.333874879519,-2.962605918753,3.8));
#108 = VECTOR('',#109,1.);
#109 = DIRECTION('',(0.,0.,1.));
#110 = PCURVE('',#50,#111);
#111 = DEFINITIONAL_REPRESENTATION('',(#112),#116);
#112 = LINE('',#113,#114);
#113 = CARTESIAN_POINT('',(0.,0.));
#114 = VECTOR('',#115,1.);
#115 = DIRECTION('',(0.,-1.));
#116 = ( GEOMETRIC_REPRESENTATION_CONTEXT(2) 
PARAMETRIC_REPRESENTATION_CONTEXT() REPRESENTATION_CONTEXT('2D SPACE',''
  ) );
#117 = PCURVE('',#118,#123);
#118 = CYLINDRICAL_SURFACE('',#119,26.5);
#119 = AXIS2_PLACEMENT_3D('',#120,#121,#122);
#120 = CARTESIAN_POINT('',(5.531240407062E-14,0.,3.8));
#121 = DIRECTION('',(0.,0.,-1.));
#122 = DIRECTION('',(0.993731127529,0.111796449764,0.));
#123 = DEFINITIONAL_REPRESENTATION('',(#124),#128);
#124 = LINE('',#125,#126);
#125 = CARTESIAN_POINT('',(0.224061299399,0.));
#126 = VECTOR('',#127,1.);
#127 = DIRECTION('',(0.,-1.));
#128 = ( GEOMETRIC_REPRESENTATION_CONTEXT(2) 
PARAMETRIC_REPRESENTATION_CONTEXT() REPRESENTATION_CONTEXT('2D SPACE',''
  ) );
#129 = ORIENTED_EDGE('',*,*,#130,.T.);
#130 = EDGE_CURVE('',#103,#42,#131,.T.);
#131 = SURFACE_CURVE('',#132,(#136,#143),.PCURVE_S1.);
#132 = LINE('',#133,#134);
#133 = CARTESIAN_POINT('',(26.333874879519,-2.962605918753,5.85));
#134 = VECTOR('',#135,1.);
#135 = DIRECTION('',(0.991444861374,-0.13052619222,0.));
#136 = PCURVE('',#50,#137);
#137 = DEFINITIONAL_REPRESENTATION('',(#138),#142);
#138 = LINE('',#139,#140);
#139 = CARTESIAN_POINT('',(-3.552713678801E-15,-2.05));
#140 = VECTOR('',#141,1.);
#141 = DIRECTION('',(1.,0.));
#142 = ( GEOMETRIC_REPRESENTATION_CONTEXT(2) 
PARAMETRIC_REPRESENTATION_CONTEXT() REPRESENTATION_CONTEXT('2D SPACE',''
  ) );
#143 = PCURVE('',#144,#149);
#144 = CYLINDRICAL_SURFACE('',#145,0.15);
#145 = AXIS2_PLACEMENT_3D('',#146,#147,#148);
#146 = CARTESIAN_POINT('',(26.353453808352,-2.813889189547,5.85));
#147 = DIRECTION('',(0.991444861374,-0.13052619222,0.));
#148 = DIRECTION('',(-0.13052619222,-0.991444861374,0.));
#149 = DEFINITIONAL_REPRESENTATION('',(#150),#154);
#150 = LINE('',#151,#152);
#151 = CARTESIAN_POINT('',(-0.,0.));
#152 = VECTOR('',#153,1.);
#153 = DIRECTION('',(-0.,1.));
#154 = ( GEOMETRIC_REPRESENTATION_CONTEXT(2) 
PARAMETRIC_REPRESENTATION_CONTEXT() REPRESENTATION_CONTEXT('2D SPACE',''
  ) );
#155 = ADVANCED_FACE('',(#156),#62,.T.);
#156 = FACE_BOUND('',#157,.F.);
#157 = EDGE_LOOP('',(#158,#159,#188,#216,#248,#281));
#158 = ORIENTED_EDGE('',*,*,#39,.T.);
#159 = ORIENTED_EDGE('',*,*,#160,.T.);
#160 = EDGE_CURVE('',#42,#161,#163,.T.);
#161 = VERTEX_POINT('',#162);
#162 = CARTESIAN_POINT('',(78.93314390725,9.887431057525,5.85));
#163 = SURFACE_CURVE('',#164,(#169,#176),.PCURVE_S1.);
#164 = CIRCLE('',#165,79.550000000003);
#165 = AXIS2_PLACEMENT_3D('',#166,#167,#168);
#166 = CARTESIAN_POINT('',(-2.529532139306E-12,2.754589480411E-16,5.85)
  );
#167 = DIRECTION('',(0.,0.,1.));
#168 = DIRECTION('',(0.992245680795,-0.124292030893,0.));
#169 = PCURVE('',#62,#170);
#170 = DEFINITIONAL_REPRESENTATION('',(#171),#175);
#171 = LINE('',#172,#173);
#172 = CARTESIAN_POINT('',(-0.,-2.05));
#173 = VECTOR('',#174,1.);
#174 = DIRECTION('',(-1.,0.));
#175 = ( GEOMETRIC_REPRESENTATION_CONTEXT(2) 
PARAMETRIC_REPRESENTATION_CONTEXT() REPRESENTATION_CONTEXT('2D SPACE',''
  ) );
#176 = PCURVE('',#177,#182);
#177 = TOROIDAL_SURFACE('',#178,79.400000000003,0.15);
#178 = AXIS2_PLACEMENT_3D('',#179,#180,#181);
#179 = CARTESIAN_POINT('',(-2.529532139306E-12,2.754589480411E-16,5.85)
  );
#180 = DIRECTION('',(-0.,-0.,-1.));
#181 = DIRECTION('',(0.992245680795,-0.124292030893,0.));
#182 = DEFINITIONAL_REPRESENTATION('',(#183),#187);
#183 = LINE('',#184,#185);
#184 = CARTESIAN_POINT('',(-0.,6.28318530718));
#185 = VECTOR('',#186,1.);
#186 = DIRECTION('',(-1.,0.));
#187 = ( GEOMETRIC_REPRESENTATION_CONTEXT(2) 
PARAMETRIC_REPRESENTATION_CONTEXT() REPRESENTATION_CONTEXT('2D SPACE',''
  ) );
#188 = ORIENTED_EDGE('',*,*,#189,.F.);
#189 = EDGE_CURVE('',#190,#161,#192,.T.);
#190 = VERTEX_POINT('',#191);
#191 = CARTESIAN_POINT('',(78.93314390725,9.887431057525,5.4));
#192 = SURFACE_CURVE('',#193,(#197,#204),.PCURVE_S1.);
#193 = LINE('',#194,#195);
#194 = CARTESIAN_POINT('',(78.93314390725,9.887431057525,3.8));
#195 = VECTOR('',#196,1.);
#196 = DIRECTION('',(0.,0.,1.));
#197 = PCURVE('',#62,#198);
#198 = DEFINITIONAL_REPRESENTATION('',(#199),#203);
#199 = LINE('',#200,#201);
#200 = CARTESIAN_POINT('',(-0.249228594783,0.));
#201 = VECTOR('',#202,1.);
#202 = DIRECTION('',(-0.,-1.));
#203 = ( GEOMETRIC_REPRESENTATION_CONTEXT(2) 
PARAMETRIC_REPRESENTATION_CONTEXT() REPRESENTATION_CONTEXT('2D SPACE',''
  ) );
#204 = PCURVE('',#205,#210);
#205 = PLANE('',#206);
#206 = AXIS2_PLACEMENT_3D('',#207,#208,#209);
#207 = CARTESIAN_POINT('',(78.93314390725,9.887431057525,3.8));
#208 = DIRECTION('',(0.13052619222,-0.991444861374,0.));
#209 = DIRECTION('',(-0.991444861374,-0.13052619222,0.));
#210 = DEFINITIONAL_REPRESENTATION('',(#211),#215);
#211 = LINE('',#212,#213);
#212 = CARTESIAN_POINT('',(-1.432113997739E-14,0.));
#213 = VECTOR('',#214,1.);
#214 = DIRECTION('',(0.,-1.));
#215 = ( GEOMETRIC_REPRESENTATION_CONTEXT(2) 
PARAMETRIC_REPRESENTATION_CONTEXT() REPRESENTATION_CONTEXT('2D SPACE',''
  ) );
#216 = ORIENTED_EDGE('',*,*,#217,.T.);
#217 = EDGE_CURVE('',#190,#218,#220,.T.);
#218 = VERTEX_POINT('',#219);
#219 = CARTESIAN_POINT('',(78.951647859449,9.73857280496,5.));
#220 = SURFACE_CURVE('',#221,(#226,#236),.PCURVE_S1.);
#221 = ELLIPSE('',#222,226.55849931334,79.550000000003);
#222 = AXIS2_PLACEMENT_3D('',#223,#224,#225);
#223 = CARTESIAN_POINT('',(-2.526055462657E-12,2.754589480411E-16,
    6.733333333334));
#224 = DIRECTION('',(-0.122215482213,0.928318751655,-0.351123441588));
#225 = DIRECTION('',(4.583080582973E-02,-0.348119531871,-0.936329177569)
  );
#226 = PCURVE('',#62,#227);
#227 = DEFINITIONAL_REPRESENTATION('',(#228),#235);
#228 = B_SPLINE_CURVE_WITH_KNOTS('',5,(#229,#230,#231,#232,#233,#234),
  .UNSPECIFIED.,.F.,.F.,(6,6),(4.718674376893,4.720560035797),
  .PIECEWISE_BEZIER_KNOTS.);
#229 = CARTESIAN_POINT('',(-0.249228594783,-1.6));
#230 = CARTESIAN_POINT('',(-0.248851463003,-1.519999358496));
#231 = CARTESIAN_POINT('',(-0.248474331222,-1.439998954039));
#232 = CARTESIAN_POINT('',(-0.248097199441,-1.359998810334));
#233 = CARTESIAN_POINT('',(-0.24772006766,-1.279998951086));
#234 = CARTESIAN_POINT('',(-0.247342935879,-1.1999994));
#235 = ( GEOMETRIC_REPRESENTATION_CONTEXT(2) 
PARAMETRIC_REPRESENTATION_CONTEXT() REPRESENTATION_CONTEXT('2D SPACE',''
  ) );
#236 = PCURVE('',#237,#242);
#237 = PLANE('',#238);
#238 = AXIS2_PLACEMENT_3D('',#239,#240,#241);
#239 = CARTESIAN_POINT('',(6.526309611003E-02,-0.495722430687,5.4));
#240 = DIRECTION('',(-0.122215482213,0.928318751655,-0.351123441588));
#241 = DIRECTION('',(4.583080582973E-02,-0.348119531871,-0.936329177569)
  );
#242 = DEFINITIONAL_REPRESENTATION('',(#243),#247);
#243 = ELLIPSE('',#244,226.55849931334,79.550000000003);
#244 = AXIS2_PLACEMENT_2D('',#245,#246);
#245 = CARTESIAN_POINT('',(-1.424000624221,2.504398558904E-12));
#246 = DIRECTION('',(1.,1.314091281412E-17));
#247 = ( GEOMETRIC_REPRESENTATION_CONTEXT(2) 
PARAMETRIC_REPRESENTATION_CONTEXT() REPRESENTATION_CONTEXT('2D SPACE',''
  ) );
#248 = ORIENTED_EDGE('',*,*,#249,.T.);
#249 = EDGE_CURVE('',#218,#250,#252,.T.);
#250 = VERTEX_POINT('',#251);
#251 = CARTESIAN_POINT('',(78.951647859449,-9.73857280496,5.));
#252 = SURFACE_CURVE('',#253,(#258,#265),.PCURVE_S1.);
#253 = CIRCLE('',#254,79.550000000003);
#254 = AXIS2_PLACEMENT_3D('',#255,#256,#257);
#255 = CARTESIAN_POINT('',(-2.526055462657E-12,2.754589480411E-16,5.));
#256 = DIRECTION('',(-0.,0.,-1.));
#257 = DIRECTION('',(0.992245680795,-0.124292030893,-0.));
#258 = PCURVE('',#62,#259);
#259 = DEFINITIONAL_REPRESENTATION('',(#260),#264);
#260 = LINE('',#261,#262);
#261 = CARTESIAN_POINT('',(-6.28318530718,-1.2));
#262 = VECTOR('',#263,1.);
#263 = DIRECTION('',(1.,-0.));
#264 = ( GEOMETRIC_REPRESENTATION_CONTEXT(2) 
PARAMETRIC_REPRESENTATION_CONTEXT() REPRESENTATION_CONTEXT('2D SPACE',''
  ) );
#265 = PCURVE('',#266,#271);
#266 = PLANE('',#267);
#267 = AXIS2_PLACEMENT_3D('',#268,#269,#270);
#268 = CARTESIAN_POINT('',(0.,0.,5.));
#269 = DIRECTION('',(0.,0.,1.));
#270 = DIRECTION('',(1.,0.,-0.));
#271 = DEFINITIONAL_REPRESENTATION('',(#272),#280);
#272 = ( BOUNDED_CURVE() B_SPLINE_CURVE(2,(#273,#274,#275,#276,#277,#278
,#279),.UNSPECIFIED.,.T.,.F.) B_SPLINE_CURVE_WITH_KNOTS((1,2,2,2,2,1),(
    -2.094395102393,0.,2.094395102393,4.188790204786,6.28318530718,
8.377580409573),.UNSPECIFIED.) CURVE() GEOMETRIC_REPRESENTATION_ITEM() 
RATIONAL_B_SPLINE_CURVE((1.,0.5,1.,0.5,1.,0.5,1.)) REPRESENTATION_ITEM(
  '') );
#273 = CARTESIAN_POINT('',(78.93314390725,-9.887431057525));
#274 = CARTESIAN_POINT('',(61.807610959283,-146.603646706));
#275 = CARTESIAN_POINT('',(-48.02933842761,-63.41439229549));
#276 = CARTESIAN_POINT('',(-157.8662878145,19.77486211505));
#277 = CARTESIAN_POINT('',(-30.90380547964,73.301823353016));
#278 = CARTESIAN_POINT('',(96.058676855218,126.82878459098));
#279 = CARTESIAN_POINT('',(78.93314390725,-9.887431057525));
#280 = ( GEOMETRIC_REPRESENTATION_CONTEXT(2) 
PARAMETRIC_REPRESENTATION_CONTEXT() REPRESENTATION_CONTEXT('2D SPACE',''
  ) );
#281 = ORIENTED_EDGE('',*,*,#282,.T.);
#282 = EDGE_CURVE('',#250,#40,#283,.T.);
#283 = SURFACE_CURVE('',#284,(#289,#299),.PCURVE_S1.);
#284 = ELLIPSE('',#285,226.55849931334,79.550000000003);
#285 = AXIS2_PLACEMENT_3D('',#286,#287,#288);
#286 = CARTESIAN_POINT('',(-2.526055462657E-12,2.754589480411E-16,
    6.733333333334));
#287 = DIRECTION('',(-0.122215482213,-0.928318751655,-0.351123441588));
#288 = DIRECTION('',(4.583080582973E-02,0.348119531871,-0.936329177569)
  );
#289 = PCURVE('',#62,#290);
#290 = DEFINITIONAL_REPRESENTATION('',(#291),#298);
#291 = B_SPLINE_CURVE_WITH_KNOTS('',5,(#292,#293,#294,#295,#296,#297),
  .UNSPECIFIED.,.F.,.F.,(6,6),(1.562625271382,1.564510930287),
  .PIECEWISE_BEZIER_KNOTS.);
#292 = CARTESIAN_POINT('',(-1.885658904573E-03,-1.1999994));
#293 = CARTESIAN_POINT('',(-1.508527123658E-03,-1.279998951086));
#294 = CARTESIAN_POINT('',(-1.131395342744E-03,-1.359998810334));
#295 = CARTESIAN_POINT('',(-7.54263561829E-04,-1.439998954039));
#296 = CARTESIAN_POINT('',(-3.771317809146E-04,-1.519999358496));
#297 = CARTESIAN_POINT('',(0.,-1.6));
#298 = ( GEOMETRIC_REPRESENTATION_CONTEXT(2) 
PARAMETRIC_REPRESENTATION_CONTEXT() REPRESENTATION_CONTEXT('2D SPACE',''
  ) );
#299 = PCURVE('',#90,#300);
#300 = DEFINITIONAL_REPRESENTATION('',(#301),#305);
#301 = ELLIPSE('',#302,226.55849931334,79.550000000003);
#302 = AXIS2_PLACEMENT_2D('',#303,#304);
#303 = CARTESIAN_POINT('',(3.132801373284,2.504478456411E-12));
#304 = DIRECTION('',(-1.,1.314091281412E-17));
#305 = ( GEOMETRIC_REPRESENTATION_CONTEXT(2) 
PARAMETRIC_REPRESENTATION_CONTEXT() REPRESENTATION_CONTEXT('2D SPACE',''
  ) );
#306 = ADVANCED_FACE('',(#307),#144,.T.);
#307 = FACE_BOUND('',#308,.F.);
#308 = EDGE_LOOP('',(#309,#379,#407,#470));
#309 = ORIENTED_EDGE('',*,*,#310,.T.);
#310 = EDGE_CURVE('',#103,#311,#313,.T.);
#311 = VERTEX_POINT('',#312);
#312 = CARTESIAN_POINT('',(26.498987397262,-2.833049050009,6.));
#313 = SURFACE_CURVE('',#314,(#332,#353),.PCURVE_S1.);
#314 = B_SPLINE_CURVE_WITH_KNOTS('',6,(#315,#316,#317,#318,#319,#320,
    #321,#322,#323,#324,#325,#326,#327,#328,#329,#330,#331),
  .UNSPECIFIED.,.F.,.F.,(7,5,5,7),(0.,0.497953489591,0.939319996883,1.),
  .UNSPECIFIED.);
#315 = CARTESIAN_POINT('',(26.333874879519,-2.962605918753,5.85));
#316 = CARTESIAN_POINT('',(26.333874879519,-2.962605918753,
    5.869658279692));
#317 = CARTESIAN_POINT('',(26.337286185614,-2.959936818791,
    5.889317919301));
#318 = CARTESIAN_POINT('',(26.344110138435,-2.954597600974,
    5.908354911249));
#319 = CARTESIAN_POINT('',(26.354148751798,-2.946740710806,
    5.926149950136));
#320 = CARTESIAN_POINT('',(26.367024922608,-2.936656727916,
    5.942170238434));
#321 = CARTESIAN_POINT('',(26.39574753607,-2.914145824105,5.968267607975
    ));
#322 = CARTESIAN_POINT('',(26.411090864439,-2.90211483536,5.978814037474
    ));
#323 = CARTESIAN_POINT('',(26.427943458331,-2.888891980839,
    5.987358211883));
#324 = CARTESIAN_POINT('',(26.445902178834,-2.874790616291,
    5.993692611184));
#325 = CARTESIAN_POINT('',(26.464530242498,-2.860151759171,5.99769350093
    ));
#326 = CARTESIAN_POINT('',(26.485981512896,-2.843281037292,
    5.999550613083));
#327 = CARTESIAN_POINT('',(26.488578583182,-2.841238324129,
    5.999730305599));
#328 = CARTESIAN_POINT('',(26.491178835465,-2.839192841856,
    5.999865137237));
#329 = CARTESIAN_POINT('',(26.493781161073,-2.837145539237,5.99995504587
    ));
#330 = CARTESIAN_POINT('',(26.496384429394,-2.835097338447,
    6.000000000244));
#331 = CARTESIAN_POINT('',(26.498987400591,-2.833049018867,6.));
#332 = PCURVE('',#144,#333);
#333 = DEFINITIONAL_REPRESENTATION('',(#334),#352);
#334 = B_SPLINE_CURVE_WITH_KNOTS('',6,(#335,#336,#337,#338,#339,#340,
    #341,#342,#343,#344,#345,#346,#347,#348,#349,#350,#351),
  .UNSPECIFIED.,.F.,.F.,(7,5,5,7),(0.,0.497953489591,0.939319996883,1.),
  .UNSPECIFIED.);
#335 = CARTESIAN_POINT('',(0.,3.552713678801E-15));
#336 = CARTESIAN_POINT('',(-0.131055197946,3.552713678801E-15));
#337 = CARTESIAN_POINT('',(-0.262119609589,3.033734443974E-03));
#338 = CARTESIAN_POINT('',(-0.393083790542,9.102399631168E-03));
#339 = CARTESIAN_POINT('',(-0.523877716339,1.802960130928E-02));
#340 = CARTESIAN_POINT('',(-0.654462609882,2.947939080336E-02));
#341 = CARTESIAN_POINT('',(-0.900369606429,5.50180157675E-02));
#342 = CARTESIAN_POINT('',(-1.015745384994,6.865972068605E-02));
#343 = CARTESIAN_POINT('',(-1.130955480263,8.364220945048E-02));
#344 = CARTESIAN_POINT('',(-1.246029392554,9.960669319006E-02));
#345 = CARTESIAN_POINT('',(-1.361015177548,0.116164636909));
#346 = CARTESIAN_POINT('',(-1.491778227488,0.135230317628));
#347 = CARTESIAN_POINT('',(-1.507582332264,0.137538542047));
#348 = CARTESIAN_POINT('',(-1.523386204568,0.139849559799));
#349 = CARTESIAN_POINT('',(-1.539189704293,0.142162395535));
#350 = CARTESIAN_POINT('',(-1.554992856593,0.144476048685));
#351 = CARTESIAN_POINT('',(-1.570796535529,0.146789391748));
#352 = ( GEOMETRIC_REPRESENTATION_CONTEXT(2) 
PARAMETRIC_REPRESENTATION_CONTEXT() REPRESENTATION_CONTEXT('2D SPACE',''
  ) );
#353 = PCURVE('',#354,#359);
#354 = TOROIDAL_SURFACE('',#355,26.65,0.15);
#355 = AXIS2_PLACEMENT_3D('',#356,#357,#358);
#356 = CARTESIAN_POINT('',(5.684341886081E-14,0.,5.85));
#357 = DIRECTION('',(-0.,-0.,-1.));
#358 = DIRECTION('',(0.993731127529,0.111796449764,-0.));
#359 = DEFINITIONAL_REPRESENTATION('',(#360),#378);
#360 = B_SPLINE_CURVE_WITH_KNOTS('',6,(#361,#362,#363,#364,#365,#366,
    #367,#368,#369,#370,#371,#372,#373,#374,#375,#376,#377),
  .UNSPECIFIED.,.F.,.F.,(7,5,5,7),(0.,0.497953489591,0.939319996883,1.),
  .UNSPECIFIED.);
#361 = CARTESIAN_POINT('',(0.224061299399,3.14159265359));
#362 = CARTESIAN_POINT('',(0.224061299399,3.272647851536));
#363 = CARTESIAN_POINT('',(0.223946819052,3.403712263179));
#364 = CARTESIAN_POINT('',(0.223717811881,3.534676444132));
#365 = CARTESIAN_POINT('',(0.223381038864,3.665470369928));
#366 = CARTESIAN_POINT('',(0.222949367062,3.796055263472));
#367 = CARTESIAN_POINT('',(0.221987238252,4.041962260019));
#368 = CARTESIAN_POINT('',(0.221473557399,4.157338038584));
#369 = CARTESIAN_POINT('',(0.220909745763,4.272548133853));
#370 = CARTESIAN_POINT('',(0.220309429725,4.387622046145));
#371 = CARTESIAN_POINT('',(0.219687301396,4.502607831138));
#372 = CARTESIAN_POINT('',(0.218971509783,4.633370881077));
#373 = CARTESIAN_POINT('',(0.218884860903,4.649175098731));
#374 = CARTESIAN_POINT('',(0.218798114405,4.664978737059));
#375 = CARTESIAN_POINT('',(0.218711310212,4.680782223633));
#376 = CARTESIAN_POINT('',(0.218624487287,4.696585825626));
#377 = CARTESIAN_POINT('',(0.218537679646,4.712388980385));
#378 = ( GEOMETRIC_REPRESENTATION_CONTEXT(2) 
PARAMETRIC_REPRESENTATION_CONTEXT() REPRESENTATION_CONTEXT('2D SPACE',''
  ) );
#379 = ORIENTED_EDGE('',*,*,#380,.T.);
#380 = EDGE_CURVE('',#311,#381,#383,.T.);
#381 = VERTEX_POINT('',#382);
#382 = CARTESIAN_POINT('',(78.802926156107,-9.71899322127,6.));
#383 = SURFACE_CURVE('',#384,(#388,#395),.PCURVE_S1.);
#384 = LINE('',#385,#386);
#385 = CARTESIAN_POINT('',(26.353453808352,-2.813889189547,6.));
#386 = VECTOR('',#387,1.);
#387 = DIRECTION('',(0.991444861374,-0.13052619222,0.));
#388 = PCURVE('',#144,#389);
#389 = DEFINITIONAL_REPRESENTATION('',(#390),#394);
#390 = LINE('',#391,#392);
#391 = CARTESIAN_POINT('',(-1.570796326795,0.));
#392 = VECTOR('',#393,1.);
#393 = DIRECTION('',(-0.,1.));
#394 = ( GEOMETRIC_REPRESENTATION_CONTEXT(2) 
PARAMETRIC_REPRESENTATION_CONTEXT() REPRESENTATION_CONTEXT('2D SPACE',''
  ) );
#395 = PCURVE('',#396,#401);
#396 = PLANE('',#397);
#397 = AXIS2_PLACEMENT_3D('',#398,#399,#400);
#398 = CARTESIAN_POINT('',(55.462033821975,1.010342498308E-16,6.));
#399 = DIRECTION('',(0.,0.,1.));
#400 = DIRECTION('',(1.,0.,-0.));
#401 = DEFINITIONAL_REPRESENTATION('',(#402),#406);
#402 = LINE('',#403,#404);
#403 = CARTESIAN_POINT('',(-29.10858001362,-2.813889189547));
#404 = VECTOR('',#405,1.);
#405 = DIRECTION('',(0.991444861374,-0.13052619222));
#406 = ( GEOMETRIC_REPRESENTATION_CONTEXT(2) 
PARAMETRIC_REPRESENTATION_CONTEXT() REPRESENTATION_CONTEXT('2D SPACE',''
  ) );
#407 = ORIENTED_EDGE('',*,*,#408,.F.);
#408 = EDGE_CURVE('',#42,#381,#409,.T.);
#409 = SURFACE_CURVE('',#410,(#428,#449),.PCURVE_S1.);
#410 = B_SPLINE_CURVE_WITH_KNOTS('',6,(#411,#412,#413,#414,#415,#416,
    #417,#418,#419,#420,#421,#422,#423,#424,#425,#426,#427),
  .UNSPECIFIED.,.F.,.F.,(7,5,5,7),(0.,0.497848034976,0.939297745466,1.),
  .UNSPECIFIED.);
#411 = CARTESIAN_POINT('',(78.93314390725,-9.887431057525,5.85));
#412 = CARTESIAN_POINT('',(78.93314390725,-9.887431057525,5.869660303236
    ));
#413 = CARTESIAN_POINT('',(78.930462473101,-9.883959193028,
    5.889322018148));
#414 = CARTESIAN_POINT('',(78.925098551246,-9.87701408657,5.90836016567)
  );
#415 = CARTESIAN_POINT('',(78.91720545993,-9.866795348508,5.926154631324
    ));
#416 = CARTESIAN_POINT('',(78.907075082337,-9.853682902791,
    5.942172870975));
#417 = CARTESIAN_POINT('',(78.884455841284,-9.824412771577,5.96827018461
    ));
#418 = CARTESIAN_POINT('',(78.872363590508,-9.808767593009,
    5.978817384893));
#419 = CARTESIAN_POINT('',(78.859072649472,-9.791575302381,
    5.987360828716));
#420 = CARTESIAN_POINT('',(78.844897580801,-9.773244137103,
    5.993693893212));
#421 = CARTESIAN_POINT('',(78.830180569607,-9.754217505124,
    5.997693775284));
#422 = CARTESIAN_POINT('',(78.813216840344,-9.732292233692,
    5.999550615535));
#423 = CARTESIAN_POINT('',(78.811162492654,-9.729637128111,
    5.999730308226));
#424 = CARTESIAN_POINT('',(78.809105344949,-9.726978505268,
    5.999865138935));
#425 = CARTESIAN_POINT('',(78.807046300991,-9.724317533615,
    5.999955046395));
#426 = CARTESIAN_POINT('',(78.804986268012,-9.721655381336,6.00000000004
    ));
#427 = CARTESIAN_POINT('',(78.802926156715,-9.71899321634,6.));
#428 = PCURVE('',#144,#429);
#429 = DEFINITIONAL_REPRESENTATION('',(#430),#448);
#430 = B_SPLINE_CURVE_WITH_KNOTS('',6,(#431,#432,#433,#434,#435,#436,
    #437,#438,#439,#440,#441,#442,#443,#444,#445,#446,#447),
  .UNSPECIFIED.,.F.,.F.,(7,5,5,7),(0.,0.497848034976,0.939297745466,1.),
  .UNSPECIFIED.);
#431 = CARTESIAN_POINT('',(0.,53.053146046716));
#432 = CARTESIAN_POINT('',(-0.131068688238,53.053146046716));
#433 = CARTESIAN_POINT('',(-0.262146937401,53.050034383356));
#434 = CARTESIAN_POINT('',(-0.393120060593,53.043809832295));
#435 = CARTESIAN_POINT('',(-0.523914074802,53.0346504545));
#436 = CARTESIAN_POINT('',(-0.65448741459,53.022895226082));
#437 = CARTESIAN_POINT('',(-0.900393885987,52.996648976999));
#438 = CARTESIAN_POINT('',(-1.015783623266,52.98261807152));
#439 = CARTESIAN_POINT('',(-1.130996763273,52.967196792095));
#440 = CARTESIAN_POINT('',(-1.24606363037,52.950750295899));
#441 = CARTESIAN_POINT('',(-1.361034481231,52.933675716953));
#442 = CARTESIAN_POINT('',(-1.491778402097,52.913995292552));
#443 = CARTESIAN_POINT('',(-1.507582648453,52.91161195927));
#444 = CARTESIAN_POINT('',(-1.523386404528,52.909225390832));
#445 = CARTESIAN_POINT('',(-1.539189826179,52.906836635783));
#446 = CARTESIAN_POINT('',(-1.554993083316,52.904446746072));
#447 = CARTESIAN_POINT('',(-1.570796359906,52.902056777053));
#448 = ( GEOMETRIC_REPRESENTATION_CONTEXT(2) 
PARAMETRIC_REPRESENTATION_CONTEXT() REPRESENTATION_CONTEXT('2D SPACE',''
  ) );
#449 = PCURVE('',#177,#450);
#450 = DEFINITIONAL_REPRESENTATION('',(#451),#469);
#451 = B_SPLINE_CURVE_WITH_KNOTS('',6,(#452,#453,#454,#455,#456,#457,
    #458,#459,#460,#461,#462,#463,#464,#465,#466,#467,#468),
  .UNSPECIFIED.,.F.,.F.,(7,5,5,7),(0.,0.497848034976,0.939297745466,1.),
  .UNSPECIFIED.);
#452 = CARTESIAN_POINT('',(0.,6.28318530718));
#453 = CARTESIAN_POINT('',(0.,6.152116618942));
#454 = CARTESIAN_POINT('',(-3.911583984628E-05,6.021038369779));
#455 = CARTESIAN_POINT('',(-1.173627664253E-04,5.890065246586));
#456 = CARTESIAN_POINT('',(-2.325143082329E-04,5.759271232378));
#457 = CARTESIAN_POINT('',(-3.803309593193E-04,5.628697892589));
#458 = CARTESIAN_POINT('',(-7.104470154813E-04,5.382791421193));
#459 = CARTESIAN_POINT('',(-8.869514014194E-04,5.267401683914));
#460 = CARTESIAN_POINT('',(-1.080987186711E-03,5.152188543906));
#461 = CARTESIAN_POINT('',(-1.287974381865E-03,5.037121676809));
#462 = CARTESIAN_POINT('',(-1.502924587121E-03,4.922150825949));
#463 = CARTESIAN_POINT('',(-1.750744547235E-03,4.791406905082));
#464 = CARTESIAN_POINT('',(-1.780757059504E-03,4.775602669423));
#465 = CARTESIAN_POINT('',(-1.810811356909E-03,4.759798908968));
#466 = CARTESIAN_POINT('',(-1.840894240272E-03,4.743995467965));
#467 = CARTESIAN_POINT('',(-1.870992512878E-03,4.728192202477));
#468 = CARTESIAN_POINT('',(-1.901092980476E-03,4.712388980385));
#469 = ( GEOMETRIC_REPRESENTATION_CONTEXT(2) 
PARAMETRIC_REPRESENTATION_CONTEXT() REPRESENTATION_CONTEXT('2D SPACE',''
  ) );
#470 = ORIENTED_EDGE('',*,*,#130,.F.);
#471 = ADVANCED_FACE('',(#472),#118,.F.);
#472 = FACE_BOUND('',#473,.F.);
#473 = EDGE_LOOP('',(#474,#503,#526,#548,#549,#576));
#474 = ORIENTED_EDGE('',*,*,#475,.F.);
#475 = EDGE_CURVE('',#476,#478,#480,.T.);
#476 = VERTEX_POINT('',#477);
#477 = CARTESIAN_POINT('',(26.333874879519,2.962605918753,5.4));
#478 = VERTEX_POINT('',#479);
#479 = CARTESIAN_POINT('',(26.39422300603,2.365373523984,3.8));
#480 = SURFACE_CURVE('',#481,(#486,#496),.PCURVE_S1.);
#481 = ELLIPSE('',#482,75.472033083638,26.5);
#482 = AXIS2_PLACEMENT_3D('',#483,#484,#485);
#483 = CARTESIAN_POINT('',(5.531240407062E-14,0.,6.733333333333));
#484 = DIRECTION('',(-0.122215482213,0.928318751655,-0.351123441588));
#485 = DIRECTION('',(4.583080582973E-02,-0.348119531871,-0.936329177569)
  );
#486 = PCURVE('',#118,#487);
#487 = DEFINITIONAL_REPRESENTATION('',(#488),#495);
#488 = B_SPLINE_CURVE_WITH_KNOTS('',5,(#489,#490,#491,#492,#493,#494),
  .UNSPECIFIED.,.F.,.F.,(6,6),(4.731258024585,4.753910352452),
  .PIECEWISE_BEZIER_KNOTS.);
#489 = CARTESIAN_POINT('',(5.297083414474E-17,-1.6));
#490 = CARTESIAN_POINT('',(4.530465573409E-03,-1.27990409154));
#491 = CARTESIAN_POINT('',(9.060931146819E-03,-0.959842391611));
#492 = CARTESIAN_POINT('',(1.359139672023E-02,-0.639828587726));
#493 = CARTESIAN_POINT('',(1.812186229364E-02,-0.319876364471));
#494 = CARTESIAN_POINT('',(2.265232786704E-02,5.999999834749E-07));
#495 = ( GEOMETRIC_REPRESENTATION_CONTEXT(2) 
PARAMETRIC_REPRESENTATION_CONTEXT() REPRESENTATION_CONTEXT('2D SPACE',''
  ) );
#496 = PCURVE('',#237,#497);
#497 = DEFINITIONAL_REPRESENTATION('',(#498),#502);
#498 = ELLIPSE('',#499,75.472033083638,26.5);
#499 = AXIS2_PLACEMENT_2D('',#500,#501);
#500 = CARTESIAN_POINT('',(-1.42400062422,-5.485542107871E-14));
#501 = DIRECTION('',(1.,1.314091281412E-17));
#502 = ( GEOMETRIC_REPRESENTATION_CONTEXT(2) 
PARAMETRIC_REPRESENTATION_CONTEXT() REPRESENTATION_CONTEXT('2D SPACE',''
  ) );
#503 = ORIENTED_EDGE('',*,*,#504,.T.);
#504 = EDGE_CURVE('',#476,#505,#507,.T.);
#505 = VERTEX_POINT('',#506);
#506 = CARTESIAN_POINT('',(26.333874879519,2.962605918753,5.85));
#507 = SURFACE_CURVE('',#508,(#512,#519),.PCURVE_S1.);
#508 = LINE('',#509,#510);
#509 = CARTESIAN_POINT('',(26.333874879519,2.962605918753,3.8));
#510 = VECTOR('',#511,1.);
#511 = DIRECTION('',(0.,0.,1.));
#512 = PCURVE('',#118,#513);
#513 = DEFINITIONAL_REPRESENTATION('',(#514),#518);
#514 = LINE('',#515,#516);
#515 = CARTESIAN_POINT('',(0.,0.));
#516 = VECTOR('',#517,1.);
#517 = DIRECTION('',(0.,-1.));
#518 = ( GEOMETRIC_REPRESENTATION_CONTEXT(2) 
PARAMETRIC_REPRESENTATION_CONTEXT() REPRESENTATION_CONTEXT('2D SPACE',''
  ) );
#519 = PCURVE('',#205,#520);
#520 = DEFINITIONAL_REPRESENTATION('',(#521),#525);
#521 = LINE('',#522,#523);
#522 = CARTESIAN_POINT('',(53.053146046716,0.));
#523 = VECTOR('',#524,1.);
#524 = DIRECTION('',(0.,-1.));
#525 = ( GEOMETRIC_REPRESENTATION_CONTEXT(2) 
PARAMETRIC_REPRESENTATION_CONTEXT() REPRESENTATION_CONTEXT('2D SPACE',''
  ) );
#526 = ORIENTED_EDGE('',*,*,#527,.T.);
#527 = EDGE_CURVE('',#505,#103,#528,.T.);
#528 = SURFACE_CURVE('',#529,(#534,#541),.PCURVE_S1.);
#529 = CIRCLE('',#530,26.5);
#530 = AXIS2_PLACEMENT_3D('',#531,#532,#533);
#531 = CARTESIAN_POINT('',(5.684341886081E-14,0.,5.85));
#532 = DIRECTION('',(0.,-0.,-1.));
#533 = DIRECTION('',(0.993731127529,0.111796449764,-0.));
#534 = PCURVE('',#118,#535);
#535 = DEFINITIONAL_REPRESENTATION('',(#536),#540);
#536 = LINE('',#537,#538);
#537 = CARTESIAN_POINT('',(0.,-2.05));
#538 = VECTOR('',#539,1.);
#539 = DIRECTION('',(1.,0.));
#540 = ( GEOMETRIC_REPRESENTATION_CONTEXT(2) 
PARAMETRIC_REPRESENTATION_CONTEXT() REPRESENTATION_CONTEXT('2D SPACE',''
  ) );
#541 = PCURVE('',#354,#542);
#542 = DEFINITIONAL_REPRESENTATION('',(#543),#547);
#543 = LINE('',#544,#545);
#544 = CARTESIAN_POINT('',(0.,3.14159265359));
#545 = VECTOR('',#546,1.);
#546 = DIRECTION('',(1.,0.));
#547 = ( GEOMETRIC_REPRESENTATION_CONTEXT(2) 
PARAMETRIC_REPRESENTATION_CONTEXT() REPRESENTATION_CONTEXT('2D SPACE',''
  ) );
#548 = ORIENTED_EDGE('',*,*,#102,.F.);
#549 = ORIENTED_EDGE('',*,*,#550,.F.);
#550 = EDGE_CURVE('',#551,#75,#553,.T.);
#551 = VERTEX_POINT('',#552);
#552 = CARTESIAN_POINT('',(26.39422300603,-2.365373523984,3.8));
#553 = SURFACE_CURVE('',#554,(#559,#569),.PCURVE_S1.);
#554 = ELLIPSE('',#555,75.472033083638,26.5);
#555 = AXIS2_PLACEMENT_3D('',#556,#557,#558);
#556 = CARTESIAN_POINT('',(5.531240407062E-14,0.,6.733333333333));
#557 = DIRECTION('',(-0.122215482213,-0.928318751655,-0.351123441588));
#558 = DIRECTION('',(4.583080582973E-02,0.348119531871,-0.936329177569)
  );
#559 = PCURVE('',#118,#560);
#560 = DEFINITIONAL_REPRESENTATION('',(#561),#568);
#561 = B_SPLINE_CURVE_WITH_KNOTS('',5,(#562,#563,#564,#565,#566,#567),
  .UNSPECIFIED.,.F.,.F.,(6,6),(1.529274954728,1.551927282595),
  .PIECEWISE_BEZIER_KNOTS.);
#562 = CARTESIAN_POINT('',(0.201408971532,6.000000012385E-07));
#563 = CARTESIAN_POINT('',(0.205939437105,-0.319876364471));
#564 = CARTESIAN_POINT('',(0.210469902679,-0.639828587725));
#565 = CARTESIAN_POINT('',(0.215000368252,-0.959842391611));
#566 = CARTESIAN_POINT('',(0.219530833826,-1.27990409154));
#567 = CARTESIAN_POINT('',(0.224061299399,-1.6));
#568 = ( GEOMETRIC_REPRESENTATION_CONTEXT(2) 
PARAMETRIC_REPRESENTATION_CONTEXT() REPRESENTATION_CONTEXT('2D SPACE',''
  ) );
#569 = PCURVE('',#90,#570);
#570 = DEFINITIONAL_REPRESENTATION('',(#571),#575);
#571 = ELLIPSE('',#572,75.472033083638,26.5);
#572 = AXIS2_PLACEMENT_2D('',#573,#574);
#573 = CARTESIAN_POINT('',(3.132801373283,-5.484479378441E-14));
#574 = DIRECTION('',(-1.,1.314091281412E-17));
#575 = ( GEOMETRIC_REPRESENTATION_CONTEXT(2) 
PARAMETRIC_REPRESENTATION_CONTEXT() REPRESENTATION_CONTEXT('2D SPACE',''
  ) );
#576 = ORIENTED_EDGE('',*,*,#577,.F.);
#577 = EDGE_CURVE('',#478,#551,#578,.T.);
#578 = SURFACE_CURVE('',#579,(#584,#591),.PCURVE_S1.);
#579 = CIRCLE('',#580,26.5);
#580 = AXIS2_PLACEMENT_3D('',#581,#582,#583);
#581 = CARTESIAN_POINT('',(5.531240407062E-14,0.,3.8));
#582 = DIRECTION('',(0.,0.,-1.));
#583 = DIRECTION('',(0.993731127529,0.111796449764,0.));
#584 = PCURVE('',#118,#585);
#585 = DEFINITIONAL_REPRESENTATION('',(#586),#590);
#586 = LINE('',#587,#588);
#587 = CARTESIAN_POINT('',(0.,0.));
#588 = VECTOR('',#589,1.);
#589 = DIRECTION('',(1.,0.));
#590 = ( GEOMETRIC_REPRESENTATION_CONTEXT(2) 
PARAMETRIC_REPRESENTATION_CONTEXT() REPRESENTATION_CONTEXT('2D SPACE',''
  ) );
#591 = PCURVE('',#592,#597);
#592 = PLANE('',#593);
#593 = AXIS2_PLACEMENT_3D('',#594,#595,#596);
#594 = CARTESIAN_POINT('',(55.462033821975,1.010342498308E-16,3.8));
#595 = DIRECTION('',(0.,0.,1.));
#596 = DIRECTION('',(1.,0.,-0.));
#597 = DEFINITIONAL_REPRESENTATION('',(#598),#606);
#598 = ( BOUNDED_CURVE() B_SPLINE_CURVE(2,(#599,#600,#601,#602,#603,#604
,#605),.UNSPECIFIED.,.T.,.F.) B_SPLINE_CURVE_WITH_KNOTS((1,2,2,2,2,1),(
    -2.094395102393,0.,2.094395102393,4.188790204786,6.28318530718,
8.377580409573),.UNSPECIFIED.) CURVE() GEOMETRIC_REPRESENTATION_ITEM() 
RATIONAL_B_SPLINE_CURVE((1.,0.5,1.,0.5,1.,0.5,1.)) REPRESENTATION_ITEM(
  '') );
#599 = CARTESIAN_POINT('',(-29.12815894245,2.962605918753));
#600 = CARTESIAN_POINT('',(-23.99677496837,-42.64900333273));
#601 = CARTESIAN_POINT('',(-66.06327927469,-24.28710758512));
#602 = CARTESIAN_POINT('',(-108.129783581,-5.925211837505));
#603 = CARTESIAN_POINT('',(-71.19466324877,21.324501666368));
#604 = CARTESIAN_POINT('',(-34.25954291653,48.574215170242));
#605 = CARTESIAN_POINT('',(-29.12815894245,2.962605918753));
#606 = ( GEOMETRIC_REPRESENTATION_CONTEXT(2) 
PARAMETRIC_REPRESENTATION_CONTEXT() REPRESENTATION_CONTEXT('2D SPACE',''
  ) );
#607 = ADVANCED_FACE('',(#608),#90,.T.);
#608 = FACE_BOUND('',#609,.T.);
#609 = EDGE_LOOP('',(#610,#611,#634,#666,#685,#686));
#610 = ORIENTED_EDGE('',*,*,#550,.F.);
#611 = ORIENTED_EDGE('',*,*,#612,.T.);
#612 = EDGE_CURVE('',#551,#613,#615,.T.);
#613 = VERTEX_POINT('',#614);
#614 = CARTESIAN_POINT('',(75.931692090814,-8.887105053155,3.8));
#615 = SURFACE_CURVE('',#616,(#620,#627),.PCURVE_S1.);
#616 = LINE('',#617,#618);
#617 = CARTESIAN_POINT('',(0.143578811442,1.090589347511,3.8));
#618 = VECTOR('',#619,1.);
#619 = DIRECTION('',(0.991444861374,-0.13052619222,0.));
#620 = PCURVE('',#90,#621);
#621 = DEFINITIONAL_REPRESENTATION('',(#622),#626);
#622 = LINE('',#623,#624);
#623 = CARTESIAN_POINT('',(0.,0.));
#624 = VECTOR('',#625,1.);
#625 = DIRECTION('',(0.,-1.));
#626 = ( GEOMETRIC_REPRESENTATION_CONTEXT(2) 
PARAMETRIC_REPRESENTATION_CONTEXT() REPRESENTATION_CONTEXT('2D SPACE',''
  ) );
#627 = PCURVE('',#592,#628);
#628 = DEFINITIONAL_REPRESENTATION('',(#629),#633);
#629 = LINE('',#630,#631);
#630 = CARTESIAN_POINT('',(-55.31845501053,1.090589347511));
#631 = VECTOR('',#632,1.);
#632 = DIRECTION('',(0.991444861374,-0.13052619222));
#633 = ( GEOMETRIC_REPRESENTATION_CONTEXT(2) 
PARAMETRIC_REPRESENTATION_CONTEXT() REPRESENTATION_CONTEXT('2D SPACE',''
  ) );
#634 = ORIENTED_EDGE('',*,*,#635,.T.);
#635 = EDGE_CURVE('',#613,#636,#638,.T.);
#636 = VERTEX_POINT('',#637);
#637 = CARTESIAN_POINT('',(75.878062023443,-9.333927553101,5.));
#638 = SURFACE_CURVE('',#639,(#644,#651),.PCURVE_S1.);
#639 = ELLIPSE('',#640,217.72969544317,76.45);
#640 = AXIS2_PLACEMENT_3D('',#641,#642,#643);
#641 = CARTESIAN_POINT('',(0.,0.,6.733333333333));
#642 = DIRECTION('',(-0.122215482213,-0.928318751655,-0.351123441588));
#643 = DIRECTION('',(-4.583080582973E-02,-0.348119531871,0.936329177569)
  );
#644 = PCURVE('',#90,#645);
#645 = DEFINITIONAL_REPRESENTATION('',(#646),#650);
#646 = ELLIPSE('',#647,217.72969544317,76.45);
#647 = AXIS2_PLACEMENT_2D('',#648,#649);
#648 = CARTESIAN_POINT('',(3.132801373283,-1.175006962806E-18));
#649 = DIRECTION('',(1.,-1.314091281412E-17));
#650 = ( GEOMETRIC_REPRESENTATION_CONTEXT(2) 
PARAMETRIC_REPRESENTATION_CONTEXT() REPRESENTATION_CONTEXT('2D SPACE',''
  ) );
#651 = PCURVE('',#652,#657);
#652 = CYLINDRICAL_SURFACE('',#653,76.45);
#653 = AXIS2_PLACEMENT_3D('',#654,#655,#656);
#654 = CARTESIAN_POINT('',(0.,0.,2.8));
#655 = DIRECTION('',(0.,0.,1.));
#656 = DIRECTION('',(1.,0.,-0.));
#657 = DEFINITIONAL_REPRESENTATION('',(#658),#665);
#658 = B_SPLINE_CURVE_WITH_KNOTS('',5,(#659,#660,#661,#662,#663,#664),
  .UNSPECIFIED.,.F.,.F.,(6,6),(4.697999991715,4.70388659181),
  .PIECEWISE_BEZIER_KNOTS.);
#659 = CARTESIAN_POINT('',(6.16667460195,0.9999994));
#660 = CARTESIAN_POINT('',(6.165497281931,1.239990861453));
#661 = CARTESIAN_POINT('',(6.164319961912,1.47998740521));
#662 = CARTESIAN_POINT('',(6.163142641893,1.719988338254));
#663 = CARTESIAN_POINT('',(6.161965321874,1.959992967538));
#664 = CARTESIAN_POINT('',(6.160788001855,2.2000006));
#665 = ( GEOMETRIC_REPRESENTATION_CONTEXT(2) 
PARAMETRIC_REPRESENTATION_CONTEXT() REPRESENTATION_CONTEXT('2D SPACE',''
  ) );
#666 = ORIENTED_EDGE('',*,*,#667,.T.);
#667 = EDGE_CURVE('',#636,#250,#668,.T.);
#668 = SURFACE_CURVE('',#669,(#673,#679),.PCURVE_S1.);
#669 = LINE('',#670,#671);
#670 = CARTESIAN_POINT('',(8.484202494303E-02,0.644439159893,5.));
#671 = VECTOR('',#672,1.);
#672 = DIRECTION('',(0.991444861374,-0.13052619222,0.));
#673 = PCURVE('',#90,#674);
#674 = DEFINITIONAL_REPRESENTATION('',(#675),#678);
#675 = B_SPLINE_CURVE_WITH_KNOTS('',1,(#676,#677),.UNSPECIFIED.,.F.,.F.,
  (2,2),(76.428617052285,80.150859690719),.PIECEWISE_BEZIER_KNOTS.);
#676 = CARTESIAN_POINT('',(1.281600561798,-76.42861705228));
#677 = CARTESIAN_POINT('',(1.281600561798,-80.15085969071));
#678 = ( GEOMETRIC_REPRESENTATION_CONTEXT(2) 
PARAMETRIC_REPRESENTATION_CONTEXT() REPRESENTATION_CONTEXT('2D SPACE',''
  ) );
#679 = PCURVE('',#266,#680);
#680 = DEFINITIONAL_REPRESENTATION('',(#681),#684);
#681 = B_SPLINE_CURVE_WITH_KNOTS('',1,(#682,#683),.UNSPECIFIED.,.F.,.F.,
  (2,2),(76.428617052285,80.150859690719),.PIECEWISE_BEZIER_KNOTS.);
#682 = CARTESIAN_POINT('',(75.859601663338,-9.331497200586));
#683 = CARTESIAN_POINT('',(79.55,-9.8173473587));
#684 = ( GEOMETRIC_REPRESENTATION_CONTEXT(2) 
PARAMETRIC_REPRESENTATION_CONTEXT() REPRESENTATION_CONTEXT('2D SPACE',''
  ) );
#685 = ORIENTED_EDGE('',*,*,#282,.T.);
#686 = ORIENTED_EDGE('',*,*,#74,.F.);
#687 = ADVANCED_FACE('',(#688),#266,.F.);
#688 = FACE_BOUND('',#689,.F.);
#689 = EDGE_LOOP('',(#690,#691,#712,#738));
#690 = ORIENTED_EDGE('',*,*,#249,.F.);
#691 = ORIENTED_EDGE('',*,*,#692,.T.);
#692 = EDGE_CURVE('',#218,#693,#695,.T.);
#693 = VERTEX_POINT('',#694);
#694 = CARTESIAN_POINT('',(75.878062023443,9.333927553101,5.));
#695 = SURFACE_CURVE('',#696,(#700,#706),.PCURVE_S1.);
#696 = LINE('',#697,#698);
#697 = CARTESIAN_POINT('',(8.484202494303E-02,-0.644439159893,5.));
#698 = VECTOR('',#699,1.);
#699 = DIRECTION('',(-0.991444861374,-0.13052619222,0.));
#700 = PCURVE('',#266,#701);
#701 = DEFINITIONAL_REPRESENTATION('',(#702),#705);
#702 = B_SPLINE_CURVE_WITH_KNOTS('',1,(#703,#704),.UNSPECIFIED.,.F.,.F.,
  (2,2),(-80.15085969071,-76.42861705228),.PIECEWISE_BEZIER_KNOTS.);
#703 = CARTESIAN_POINT('',(79.55,9.8173473587));
#704 = CARTESIAN_POINT('',(75.859601663338,9.331497200586));
#705 = ( GEOMETRIC_REPRESENTATION_CONTEXT(2) 
PARAMETRIC_REPRESENTATION_CONTEXT() REPRESENTATION_CONTEXT('2D SPACE',''
  ) );
#706 = PCURVE('',#237,#707);
#707 = DEFINITIONAL_REPRESENTATION('',(#708),#711);
#708 = B_SPLINE_CURVE_WITH_KNOTS('',1,(#709,#710),.UNSPECIFIED.,.F.,.F.,
  (2,2),(-80.15085969071,-76.42861705228),.PIECEWISE_BEZIER_KNOTS.);
#709 = CARTESIAN_POINT('',(0.427200187266,-80.15085969071));
#710 = CARTESIAN_POINT('',(0.427200187266,-76.42861705228));
#711 = ( GEOMETRIC_REPRESENTATION_CONTEXT(2) 
PARAMETRIC_REPRESENTATION_CONTEXT() REPRESENTATION_CONTEXT('2D SPACE',''
  ) );
#712 = ORIENTED_EDGE('',*,*,#713,.T.);
#713 = EDGE_CURVE('',#693,#636,#714,.T.);
#714 = SURFACE_CURVE('',#715,(#720,#731),.PCURVE_S1.);
#715 = CIRCLE('',#716,76.45);
#716 = AXIS2_PLACEMENT_3D('',#717,#718,#719);
#717 = CARTESIAN_POINT('',(0.,0.,5.));
#718 = DIRECTION('',(0.,0.,-1.));
#719 = DIRECTION('',(0.992277327186,0.124039130735,0.));
#720 = PCURVE('',#266,#721);
#721 = DEFINITIONAL_REPRESENTATION('',(#722),#730);
#722 = ( BOUNDED_CURVE() B_SPLINE_CURVE(2,(#723,#724,#725,#726,#727,#728
,#729),.UNSPECIFIED.,.T.,.F.) B_SPLINE_CURVE_WITH_KNOTS((1,2,2,2,2,1),(
    -2.094395102393,0.,2.094395102393,4.188790204786,6.28318530718,
8.377580409573),.UNSPECIFIED.) CURVE() GEOMETRIC_REPRESENTATION_ITEM() 
RATIONAL_B_SPLINE_CURVE((1.,0.5,1.,0.5,1.,0.5,1.)) REPRESENTATION_ITEM(
  '') );
#723 = CARTESIAN_POINT('',(75.859601663338,9.482791544673));
#724 = CARTESIAN_POINT('',(92.284278416296,-121.9098927781));
#725 = CARTESIAN_POINT('',(-29.71746245518,-70.43773793375));
#726 = CARTESIAN_POINT('',(-151.7192033266,-18.96558308934));
#727 = CARTESIAN_POINT('',(-46.14213920814,60.954946389082));
#728 = CARTESIAN_POINT('',(59.434924910379,140.87547586751));
#729 = CARTESIAN_POINT('',(75.859601663338,9.482791544673));
#730 = ( GEOMETRIC_REPRESENTATION_CONTEXT(2) 
PARAMETRIC_REPRESENTATION_CONTEXT() REPRESENTATION_CONTEXT('2D SPACE',''
  ) );
#731 = PCURVE('',#652,#732);
#732 = DEFINITIONAL_REPRESENTATION('',(#733),#737);
#733 = LINE('',#734,#735);
#734 = CARTESIAN_POINT('',(6.407544732085,2.2));
#735 = VECTOR('',#736,1.);
#736 = DIRECTION('',(-1.,-0.));
#737 = ( GEOMETRIC_REPRESENTATION_CONTEXT(2) 
PARAMETRIC_REPRESENTATION_CONTEXT() REPRESENTATION_CONTEXT('2D SPACE',''
  ) );
#738 = ORIENTED_EDGE('',*,*,#667,.T.);
#739 = ADVANCED_FACE('',(#740),#237,.T.);
#740 = FACE_BOUND('',#741,.T.);
#741 = EDGE_LOOP('',(#742,#743,#764,#765,#766,#793));
#742 = ORIENTED_EDGE('',*,*,#475,.F.);
#743 = ORIENTED_EDGE('',*,*,#744,.T.);
#744 = EDGE_CURVE('',#476,#190,#745,.T.);
#745 = SURFACE_CURVE('',#746,(#750,#757),.PCURVE_S1.);
#746 = LINE('',#747,#748);
#747 = CARTESIAN_POINT('',(6.526309611003E-02,-0.495722430687,5.4));
#748 = VECTOR('',#749,1.);
#749 = DIRECTION('',(0.991444861374,0.13052619222,0.));
#750 = PCURVE('',#237,#751);
#751 = DEFINITIONAL_REPRESENTATION('',(#752),#756);
#752 = LINE('',#753,#754);
#753 = CARTESIAN_POINT('',(0.,0.));
#754 = VECTOR('',#755,1.);
#755 = DIRECTION('',(0.,-1.));
#756 = ( GEOMETRIC_REPRESENTATION_CONTEXT(2) 
PARAMETRIC_REPRESENTATION_CONTEXT() REPRESENTATION_CONTEXT('2D SPACE',''
  ) );
#757 = PCURVE('',#205,#758);
#758 = DEFINITIONAL_REPRESENTATION('',(#759),#763);
#759 = LINE('',#760,#761);
#760 = CARTESIAN_POINT('',(79.5484286457,-1.6));
#761 = VECTOR('',#762,1.);
#762 = DIRECTION('',(-1.,0.));
#763 = ( GEOMETRIC_REPRESENTATION_CONTEXT(2) 
PARAMETRIC_REPRESENTATION_CONTEXT() REPRESENTATION_CONTEXT('2D SPACE',''
  ) );
#764 = ORIENTED_EDGE('',*,*,#217,.T.);
#765 = ORIENTED_EDGE('',*,*,#692,.T.);
#766 = ORIENTED_EDGE('',*,*,#767,.T.);
#767 = EDGE_CURVE('',#693,#768,#770,.T.);
#768 = VERTEX_POINT('',#769);
#769 = CARTESIAN_POINT('',(75.931692090814,8.887105053155,3.8));
#770 = SURFACE_CURVE('',#771,(#776,#783),.PCURVE_S1.);
#771 = ELLIPSE('',#772,217.72969544317,76.45);
#772 = AXIS2_PLACEMENT_3D('',#773,#774,#775);
#773 = CARTESIAN_POINT('',(0.,0.,6.733333333333));
#774 = DIRECTION('',(-0.122215482213,0.928318751655,-0.351123441588));
#775 = DIRECTION('',(-4.583080582973E-02,0.348119531871,0.936329177569)
  );
#776 = PCURVE('',#237,#777);
#777 = DEFINITIONAL_REPRESENTATION('',(#778),#782);
#778 = ELLIPSE('',#779,217.72969544317,76.45);
#779 = AXIS2_PLACEMENT_2D('',#780,#781);
#780 = CARTESIAN_POINT('',(-1.42400062422,-1.180230126329E-17));
#781 = DIRECTION('',(-1.,-1.314091281412E-17));
#782 = ( GEOMETRIC_REPRESENTATION_CONTEXT(2) 
PARAMETRIC_REPRESENTATION_CONTEXT() REPRESENTATION_CONTEXT('2D SPACE',''
  ) );
#783 = PCURVE('',#652,#784);
#784 = DEFINITIONAL_REPRESENTATION('',(#785),#792);
#785 = B_SPLINE_CURVE_WITH_KNOTS('',5,(#786,#787,#788,#789,#790,#791),
  .UNSPECIFIED.,.F.,.F.,(6,6),(1.57929871537,1.585185315465),
  .PIECEWISE_BEZIER_KNOTS.);
#786 = CARTESIAN_POINT('',(6.405582612504,2.2000006));
#787 = CARTESIAN_POINT('',(6.404405292485,1.959992967538));
#788 = CARTESIAN_POINT('',(6.403227972466,1.719988338254));
#789 = CARTESIAN_POINT('',(6.402050652447,1.47998740521));
#790 = CARTESIAN_POINT('',(6.400873332428,1.239990861453));
#791 = CARTESIAN_POINT('',(6.399696012409,0.9999994));
#792 = ( GEOMETRIC_REPRESENTATION_CONTEXT(2) 
PARAMETRIC_REPRESENTATION_CONTEXT() REPRESENTATION_CONTEXT('2D SPACE',''
  ) );
#793 = ORIENTED_EDGE('',*,*,#794,.F.);
#794 = EDGE_CURVE('',#478,#768,#795,.T.);
#795 = SURFACE_CURVE('',#796,(#800,#807),.PCURVE_S1.);
#796 = LINE('',#797,#798);
#797 = CARTESIAN_POINT('',(0.143578811442,-1.090589347511,3.8));
#798 = VECTOR('',#799,1.);
#799 = DIRECTION('',(0.991444861374,0.13052619222,0.));
#800 = PCURVE('',#237,#801);
#801 = DEFINITIONAL_REPRESENTATION('',(#802),#806);
#802 = LINE('',#803,#804);
#803 = CARTESIAN_POINT('',(1.708800749064,0.));
#804 = VECTOR('',#805,1.);
#805 = DIRECTION('',(0.,-1.));
#806 = ( GEOMETRIC_REPRESENTATION_CONTEXT(2) 
PARAMETRIC_REPRESENTATION_CONTEXT() REPRESENTATION_CONTEXT('2D SPACE',''
  ) );
#807 = PCURVE('',#592,#808);
#808 = DEFINITIONAL_REPRESENTATION('',(#809),#813);
#809 = LINE('',#810,#811);
#810 = CARTESIAN_POINT('',(-55.31845501053,-1.090589347511));
#811 = VECTOR('',#812,1.);
#812 = DIRECTION('',(0.991444861374,0.13052619222));
#813 = ( GEOMETRIC_REPRESENTATION_CONTEXT(2) 
PARAMETRIC_REPRESENTATION_CONTEXT() REPRESENTATION_CONTEXT('2D SPACE',''
  ) );
#814 = ADVANCED_FACE('',(#815),#205,.F.);
#815 = FACE_BOUND('',#816,.F.);
#816 = EDGE_LOOP('',(#817,#818,#819,#820));
#817 = ORIENTED_EDGE('',*,*,#504,.F.);
#818 = ORIENTED_EDGE('',*,*,#744,.T.);
#819 = ORIENTED_EDGE('',*,*,#189,.T.);
#820 = ORIENTED_EDGE('',*,*,#821,.T.);
#821 = EDGE_CURVE('',#161,#505,#822,.T.);
#822 = SURFACE_CURVE('',#823,(#827,#834),.PCURVE_S1.);
#823 = LINE('',#824,#825);
#824 = CARTESIAN_POINT('',(78.93314390725,9.887431057525,5.85));
#825 = VECTOR('',#826,1.);
#826 = DIRECTION('',(-0.991444861374,-0.13052619222,0.));
#827 = PCURVE('',#205,#828);
#828 = DEFINITIONAL_REPRESENTATION('',(#829),#833);
#829 = LINE('',#830,#831);
#830 = CARTESIAN_POINT('',(0.,-2.05));
#831 = VECTOR('',#832,1.);
#832 = DIRECTION('',(1.,0.));
#833 = ( GEOMETRIC_REPRESENTATION_CONTEXT(2) 
PARAMETRIC_REPRESENTATION_CONTEXT() REPRESENTATION_CONTEXT('2D SPACE',''
  ) );
#834 = PCURVE('',#835,#840);
#835 = CYLINDRICAL_SURFACE('',#836,0.15);
#836 = AXIS2_PLACEMENT_3D('',#837,#838,#839);
#837 = CARTESIAN_POINT('',(78.952722836083,9.738714328319,5.85));
#838 = DIRECTION('',(-0.991444861374,-0.13052619222,0.));
#839 = DIRECTION('',(-0.13052619222,0.991444861374,0.));
#840 = DEFINITIONAL_REPRESENTATION('',(#841),#845);
#841 = LINE('',#842,#843);
#842 = CARTESIAN_POINT('',(-0.,0.));
#843 = VECTOR('',#844,1.);
#844 = DIRECTION('',(-0.,1.));
#845 = ( GEOMETRIC_REPRESENTATION_CONTEXT(2) 
PARAMETRIC_REPRESENTATION_CONTEXT() REPRESENTATION_CONTEXT('2D SPACE',''
  ) );
#846 = ADVANCED_FACE('',(#847),#177,.T.);
#847 = FACE_BOUND('',#848,.F.);
#848 = EDGE_LOOP('',(#849,#850,#874,#937));
#849 = ORIENTED_EDGE('',*,*,#408,.T.);
#850 = ORIENTED_EDGE('',*,*,#851,.T.);
#851 = EDGE_CURVE('',#381,#852,#854,.T.);
#852 = VERTEX_POINT('',#853);
#853 = CARTESIAN_POINT('',(78.802926156107,9.71899322127,6.));
#854 = SURFACE_CURVE('',#855,(#860,#867),.PCURVE_S1.);
#855 = CIRCLE('',#856,79.400000000003);
#856 = AXIS2_PLACEMENT_3D('',#857,#858,#859);
#857 = CARTESIAN_POINT('',(-2.529532139306E-12,2.754589480411E-16,6.));
#858 = DIRECTION('',(0.,0.,1.));
#859 = DIRECTION('',(0.992245680795,-0.124292030893,0.));
#860 = PCURVE('',#177,#861);
#861 = DEFINITIONAL_REPRESENTATION('',(#862),#866);
#862 = LINE('',#863,#864);
#863 = CARTESIAN_POINT('',(-0.,4.712388980385));
#864 = VECTOR('',#865,1.);
#865 = DIRECTION('',(-1.,0.));
#866 = ( GEOMETRIC_REPRESENTATION_CONTEXT(2) 
PARAMETRIC_REPRESENTATION_CONTEXT() REPRESENTATION_CONTEXT('2D SPACE',''
  ) );
#867 = PCURVE('',#396,#868);
#868 = DEFINITIONAL_REPRESENTATION('',(#869),#873);
#869 = CIRCLE('',#870,79.400000000003);
#870 = AXIS2_PLACEMENT_2D('',#871,#872);
#871 = CARTESIAN_POINT('',(-55.46203382197,1.744246982103E-16));
#872 = DIRECTION('',(0.992245680795,-0.124292030893));
#873 = ( GEOMETRIC_REPRESENTATION_CONTEXT(2) 
PARAMETRIC_REPRESENTATION_CONTEXT() REPRESENTATION_CONTEXT('2D SPACE',''
  ) );
#874 = ORIENTED_EDGE('',*,*,#875,.F.);
#875 = EDGE_CURVE('',#161,#852,#876,.T.);
#876 = SURFACE_CURVE('',#877,(#895,#916),.PCURVE_S1.);
#877 = B_SPLINE_CURVE_WITH_KNOTS('',6,(#878,#879,#880,#881,#882,#883,
    #884,#885,#886,#887,#888,#889,#890,#891,#892,#893,#894),
  .UNSPECIFIED.,.F.,.F.,(7,5,5,7),(0.,0.497848035022,0.939297757558,1.),
  .UNSPECIFIED.);
#878 = CARTESIAN_POINT('',(78.933143907251,9.887431057523,5.85));
#879 = CARTESIAN_POINT('',(78.933143907251,9.887431057523,5.869660302698
    ));
#880 = CARTESIAN_POINT('',(78.930462473247,9.883959193225,5.889322017072
    ));
#881 = CARTESIAN_POINT('',(78.925098551688,9.877014087134,5.908360164108
    ));
#882 = CARTESIAN_POINT('',(78.917205460793,9.866795349629,5.926154629376
    ));
#883 = CARTESIAN_POINT('',(78.907075083723,9.853682904585,5.942172868783
    ));
#884 = CARTESIAN_POINT('',(78.88445584348,9.824412774418,5.968270182602)
  );
#885 = CARTESIAN_POINT('',(78.872363592899,9.808767596102,5.978817383184
    ));
#886 = CARTESIAN_POINT('',(78.859072652021,9.791575305679,5.987360827334
    ));
#887 = CARTESIAN_POINT('',(78.844897583468,9.773244140553,5.99369389218)
  );
#888 = CARTESIAN_POINT('',(78.830180572351,9.754217508671,5.997693774613
    ));
#889 = CARTESIAN_POINT('',(78.81321684359,9.732292237887,5.999550615231)
  );
#890 = CARTESIAN_POINT('',(78.811162494049,9.729637134751,5.999730307942
    ));
#891 = CARTESIAN_POINT('',(78.809105347765,9.726978511763,5.999865138691
    ));
#892 = CARTESIAN_POINT('',(78.807046308475,9.724317537393,5.999955046212
    ));
#893 = CARTESIAN_POINT('',(78.804986277778,9.721655384285,5.999999999938
    ));
#894 = CARTESIAN_POINT('',(78.802926155123,9.718993229254,6.));
#895 = PCURVE('',#177,#896);
#896 = DEFINITIONAL_REPRESENTATION('',(#897),#915);
#897 = B_SPLINE_CURVE_WITH_KNOTS('',6,(#898,#899,#900,#901,#902,#903,
    #904,#905,#906,#907,#908,#909,#910,#911,#912,#913,#914),
  .UNSPECIFIED.,.F.,.F.,(7,5,5,7),(0.,0.497848035022,0.939297757558,1.),
  .UNSPECIFIED.);
#898 = CARTESIAN_POINT('',(-0.249228594783,6.28318530718));
#899 = CARTESIAN_POINT('',(-0.249228594783,6.152116622528));
#900 = CARTESIAN_POINT('',(-0.249189478946,6.021038376954));
#901 = CARTESIAN_POINT('',(-0.249111232023,5.890065257338));
#902 = CARTESIAN_POINT('',(-0.248996080488,5.759271246695));
#903 = CARTESIAN_POINT('',(-0.248848263844,5.628697910454));
#904 = CARTESIAN_POINT('',(-0.2485181478,5.382791442585));
#905 = CARTESIAN_POINT('',(-0.248341643417,5.267401705298));
#906 = CARTESIAN_POINT('',(-0.248147607634,5.152188565285));
#907 = CARTESIAN_POINT('',(-0.247940620441,5.037121698189));
#908 = CARTESIAN_POINT('',(-0.247725670236,4.922150847335));
#909 = CARTESIAN_POINT('',(-0.247477850284,4.791406930064));
#910 = CARTESIAN_POINT('',(-0.247447837805,4.775602684132));
#911 = CARTESIAN_POINT('',(-0.247417783503,4.759798932935));
#912 = CARTESIAN_POINT('',(-0.247387700579,4.743995520586));
#913 = CARTESIAN_POINT('',(-0.247357602292,4.728192269499));
#914 = CARTESIAN_POINT('',(-0.247327501967,4.712388980385));
#915 = ( GEOMETRIC_REPRESENTATION_CONTEXT(2) 
PARAMETRIC_REPRESENTATION_CONTEXT() REPRESENTATION_CONTEXT('2D SPACE',''
  ) );
#916 = PCURVE('',#835,#917);
#917 = DEFINITIONAL_REPRESENTATION('',(#918),#936);
#918 = B_SPLINE_CURVE_WITH_KNOTS('',6,(#919,#920,#921,#922,#923,#924,
    #925,#926,#927,#928,#929,#930,#931,#932,#933,#934,#935),
  .UNSPECIFIED.,.F.,.F.,(7,5,5,7),(0.,0.497848035022,0.939297757558,1.),
  .UNSPECIFIED.);
#919 = CARTESIAN_POINT('',(0.,1.42108547152E-14));
#920 = CARTESIAN_POINT('',(-0.131068684652,1.42108547152E-14));
#921 = CARTESIAN_POINT('',(-0.262146930226,3.11166319029E-03));
#922 = CARTESIAN_POINT('',(-0.393120049842,9.336213910269E-03));
#923 = CARTESIAN_POINT('',(-0.523914060485,1.849559121364E-02));
#924 = CARTESIAN_POINT('',(-0.654487396725,3.025081902612E-02));
#925 = CARTESIAN_POINT('',(-0.900393864594,5.64970671692E-02));
#926 = CARTESIAN_POINT('',(-1.015783601881,7.052797242226E-02));
#927 = CARTESIAN_POINT('',(-1.130996741894,8.594925166328E-02));
#928 = CARTESIAN_POINT('',(-1.24606360899,0.102395747722));
#929 = CARTESIAN_POINT('',(-1.361034459845,0.11947032658));
#930 = CARTESIAN_POINT('',(-1.491778377116,0.139150750399));
#931 = CARTESIAN_POINT('',(-1.507582605724,0.141534085196));
#932 = CARTESIAN_POINT('',(-1.523386364014,0.143920652245));
#933 = CARTESIAN_POINT('',(-1.539189807707,0.146309403019));
#934 = CARTESIAN_POINT('',(-1.55499307232,0.148699290577));
#935 = CARTESIAN_POINT('',(-1.570796273166,0.151089269557));
#936 = ( GEOMETRIC_REPRESENTATION_CONTEXT(2) 
PARAMETRIC_REPRESENTATION_CONTEXT() REPRESENTATION_CONTEXT('2D SPACE',''
  ) );
#937 = ORIENTED_EDGE('',*,*,#160,.F.);
#938 = ADVANCED_FACE('',(#939),#354,.T.);
#939 = FACE_BOUND('',#940,.T.);
#940 = EDGE_LOOP('',(#941,#969,#1032,#1033));
#941 = ORIENTED_EDGE('',*,*,#942,.F.);
#942 = EDGE_CURVE('',#943,#311,#945,.T.);
#943 = VERTEX_POINT('',#944);
#944 = CARTESIAN_POINT('',(26.498987397262,2.833049050009,6.));
#945 = SURFACE_CURVE('',#946,(#951,#958),.PCURVE_S1.);
#946 = CIRCLE('',#947,26.65);
#947 = AXIS2_PLACEMENT_3D('',#948,#949,#950);
#948 = CARTESIAN_POINT('',(5.684341886081E-14,0.,6.));
#949 = DIRECTION('',(0.,-0.,-1.));
#950 = DIRECTION('',(0.993731127529,0.111796449764,-0.));
#951 = PCURVE('',#354,#952);
#952 = DEFINITIONAL_REPRESENTATION('',(#953),#957);
#953 = LINE('',#954,#955);
#954 = CARTESIAN_POINT('',(0.,4.712388980385));
#955 = VECTOR('',#956,1.);
#956 = DIRECTION('',(1.,0.));
#957 = ( GEOMETRIC_REPRESENTATION_CONTEXT(2) 
PARAMETRIC_REPRESENTATION_CONTEXT() REPRESENTATION_CONTEXT('2D SPACE',''
  ) );
#958 = PCURVE('',#396,#959);
#959 = DEFINITIONAL_REPRESENTATION('',(#960),#968);
#960 = ( BOUNDED_CURVE() B_SPLINE_CURVE(2,(#961,#962,#963,#964,#965,#966
,#967),.UNSPECIFIED.,.T.,.F.) B_SPLINE_CURVE_WITH_KNOTS((1,2,2,2,2,1),(
    -2.094395102393,0.,2.094395102393,4.188790204786,6.28318530718,
8.377580409573),.UNSPECIFIED.) CURVE() GEOMETRIC_REPRESENTATION_ITEM() 
RATIONAL_B_SPLINE_CURVE((1.,0.5,1.,0.5,1.,0.5,1.)) REPRESENTATION_ITEM(
  '') );
#961 = CARTESIAN_POINT('',(-28.97909927332,2.979375386217));
#962 = CARTESIAN_POINT('',(-23.81866972957,-42.89041278556));
#963 = CARTESIAN_POINT('',(-66.12328632442,-24.42458177899));
#964 = CARTESIAN_POINT('',(-108.4279029192,-5.958750772434));
#965 = CARTESIAN_POINT('',(-71.28371586817,21.445206392782));
#966 = CARTESIAN_POINT('',(-34.13952881707,48.849163557998));
#967 = CARTESIAN_POINT('',(-28.97909927332,2.979375386217));
#968 = ( GEOMETRIC_REPRESENTATION_CONTEXT(2) 
PARAMETRIC_REPRESENTATION_CONTEXT() REPRESENTATION_CONTEXT('2D SPACE',''
  ) );
#969 = ORIENTED_EDGE('',*,*,#970,.F.);
#970 = EDGE_CURVE('',#505,#943,#971,.T.);
#971 = SURFACE_CURVE('',#972,(#990,#1011),.PCURVE_S1.);
#972 = B_SPLINE_CURVE_WITH_KNOTS('',6,(#973,#974,#975,#976,#977,#978,
    #979,#980,#981,#982,#983,#984,#985,#986,#987,#988,#989),
  .UNSPECIFIED.,.F.,.F.,(7,5,5,7),(0.,0.497953523294,0.939320059752,1.),
  .UNSPECIFIED.);
#973 = CARTESIAN_POINT('',(26.333874879519,2.962605918753,5.85));
#974 = CARTESIAN_POINT('',(26.333874879519,2.962605918753,5.869658279724
    ));
#975 = CARTESIAN_POINT('',(26.337286185625,2.959936818782,5.889317919364
    ));
#976 = CARTESIAN_POINT('',(26.344110138468,2.954597600948,5.908354911341
    ));
#977 = CARTESIAN_POINT('',(26.354148751863,2.946740710755,5.926149950251
    ));
#978 = CARTESIAN_POINT('',(26.367024922712,2.936656727834,5.942170238563
    ));
#979 = CARTESIAN_POINT('',(26.395747536234,2.914145823976,5.968267608094
    ));
#980 = CARTESIAN_POINT('',(26.411090864618,2.902114835219,5.978814037575
    ));
#981 = CARTESIAN_POINT('',(26.427943458522,2.888891980689,5.987358211965
    ));
#982 = CARTESIAN_POINT('',(26.445902179033,2.874790616135,5.993692611245
    ));
#983 = CARTESIAN_POINT('',(26.464530242703,2.86015175901,5.99769350097)
  );
#984 = CARTESIAN_POINT('',(26.485981510246,2.843281039376,5.999550612851
    ));
#985 = CARTESIAN_POINT('',(26.488578570452,2.841238318722,5.999730305218
    ));
#986 = CARTESIAN_POINT('',(26.491178834928,2.839192858823,5.999865136798
    ));
#987 = CARTESIAN_POINT('',(26.493781158387,2.837145559691,5.999955045476
    ));
#988 = CARTESIAN_POINT('',(26.496384394774,2.835097322585,6.000000000003
    ));
#989 = CARTESIAN_POINT('',(26.498987397262,2.833049050011,6.));
#990 = PCURVE('',#354,#991);
#991 = DEFINITIONAL_REPRESENTATION('',(#992),#1010);
#992 = B_SPLINE_CURVE_WITH_KNOTS('',6,(#993,#994,#995,#996,#997,#998,
    #999,#1000,#1001,#1002,#1003,#1004,#1005,#1006,#1007,#1008,#1009),
  .UNSPECIFIED.,.F.,.F.,(7,5,5,7),(0.,0.497953523294,0.939320059752,1.),
  .UNSPECIFIED.);
#993 = CARTESIAN_POINT('',(-8.881784197001E-16,3.14159265359));
#994 = CARTESIAN_POINT('',(-8.881784197001E-16,3.272647851748));
#995 = CARTESIAN_POINT('',(1.144803475075E-04,3.403712263602));
#996 = CARTESIAN_POINT('',(3.434875194834E-04,3.534676444766));
#997 = CARTESIAN_POINT('',(6.802605369227E-04,3.665470370772));
#998 = CARTESIAN_POINT('',(1.111932340364E-03,3.796055264525));
#999 = CARTESIAN_POINT('',(2.074061152872E-03,4.04196226128));
#1000 = CARTESIAN_POINT('',(2.587742005594E-03,4.157338039846));
#1001 = CARTESIAN_POINT('',(3.151553642013E-03,4.272548135114));
#1002 = CARTESIAN_POINT('',(3.751869680815E-03,4.387622047405));
#1003 = CARTESIAN_POINT('',(4.373998009993E-03,4.502607832399));
#1004 = CARTESIAN_POINT('',(5.089789527319E-03,4.63337086492));
#1005 = CARTESIAN_POINT('',(5.176438646792E-03,4.649175009302));
#1006 = CARTESIAN_POINT('',(5.263184358166E-03,4.66497874598));
#1007 = CARTESIAN_POINT('',(5.349988412548E-03,4.680782221666));
#1008 = CARTESIAN_POINT('',(5.436812565597E-03,4.696585583767));
#1009 = CARTESIAN_POINT('',(5.52361857754E-03,4.712388980385));
#1010 = ( GEOMETRIC_REPRESENTATION_CONTEXT(2) 
PARAMETRIC_REPRESENTATION_CONTEXT() REPRESENTATION_CONTEXT('2D SPACE',''
  ) );
#1011 = PCURVE('',#835,#1012);
#1012 = DEFINITIONAL_REPRESENTATION('',(#1013),#1031);
#1013 = B_SPLINE_CURVE_WITH_KNOTS('',6,(#1014,#1015,#1016,#1017,#1018,
    #1019,#1020,#1021,#1022,#1023,#1024,#1025,#1026,#1027,#1028,#1029,
    #1030),.UNSPECIFIED.,.F.,.F.,(7,5,5,7),(0.,0.497953523294,
    0.939320059752,1.),.UNSPECIFIED.);
#1014 = CARTESIAN_POINT('',(0.,53.053146046716));
#1015 = CARTESIAN_POINT('',(-0.131055198158,53.053146046716));
#1016 = CARTESIAN_POINT('',(-0.262119610012,53.050112312263));
#1017 = CARTESIAN_POINT('',(-0.393083791176,53.044043647056));
#1018 = CARTESIAN_POINT('',(-0.523877717183,53.035116445349));
#1019 = CARTESIAN_POINT('',(-0.654462610936,53.023666655821));
#1020 = CARTESIAN_POINT('',(-0.900369607691,52.998128030803));
#1021 = CARTESIAN_POINT('',(-1.015745386256,52.984486325871));
#1022 = CARTESIAN_POINT('',(-1.130955481524,52.969503837096));
#1023 = CARTESIAN_POINT('',(-1.246029393815,52.953539353349));
#1024 = CARTESIAN_POINT('',(-1.361015178809,52.936981409625));
#1025 = CARTESIAN_POINT('',(-1.491778211331,52.917915731443));
#1026 = CARTESIAN_POINT('',(-1.507582355713,52.915607517996));
#1027 = CARTESIAN_POINT('',(-1.52338609239,52.913296485235));
#1028 = CARTESIAN_POINT('',(-1.539189568076,52.910983651174));
#1029 = CARTESIAN_POINT('',(-1.554992930177,52.908670034426));
#1030 = CARTESIAN_POINT('',(-1.570796326795,52.906356654205));
#1031 = ( GEOMETRIC_REPRESENTATION_CONTEXT(2) 
PARAMETRIC_REPRESENTATION_CONTEXT() REPRESENTATION_CONTEXT('2D SPACE',''
  ) );
#1032 = ORIENTED_EDGE('',*,*,#527,.T.);
#1033 = ORIENTED_EDGE('',*,*,#310,.T.);
#1034 = ADVANCED_FACE('',(#1035),#396,.T.);
#1035 = FACE_BOUND('',#1036,.T.);
#1036 = EDGE_LOOP('',(#1037,#1038,#1039,#1060));
#1037 = ORIENTED_EDGE('',*,*,#380,.T.);
#1038 = ORIENTED_EDGE('',*,*,#851,.T.);
#1039 = ORIENTED_EDGE('',*,*,#1040,.T.);
#1040 = EDGE_CURVE('',#852,#943,#1041,.T.);
#1041 = SURFACE_CURVE('',#1042,(#1046,#1053),.PCURVE_S1.);
#1042 = LINE('',#1043,#1044);
#1043 = CARTESIAN_POINT('',(78.952722836083,9.738714328319,6.));
#1044 = VECTOR('',#1045,1.);
#1045 = DIRECTION('',(-0.991444861374,-0.13052619222,0.));
#1046 = PCURVE('',#396,#1047);
#1047 = DEFINITIONAL_REPRESENTATION('',(#1048),#1052);
#1048 = LINE('',#1049,#1050);
#1049 = CARTESIAN_POINT('',(23.490689014109,9.738714328319));
#1050 = VECTOR('',#1051,1.);
#1051 = DIRECTION('',(-0.991444861374,-0.13052619222));
#1052 = ( GEOMETRIC_REPRESENTATION_CONTEXT(2) 
PARAMETRIC_REPRESENTATION_CONTEXT() REPRESENTATION_CONTEXT('2D SPACE',''
  ) );
#1053 = PCURVE('',#835,#1054);
#1054 = DEFINITIONAL_REPRESENTATION('',(#1055),#1059);
#1055 = LINE('',#1056,#1057);
#1056 = CARTESIAN_POINT('',(-1.570796326795,0.));
#1057 = VECTOR('',#1058,1.);
#1058 = DIRECTION('',(-0.,1.));
#1059 = ( GEOMETRIC_REPRESENTATION_CONTEXT(2) 
PARAMETRIC_REPRESENTATION_CONTEXT() REPRESENTATION_CONTEXT('2D SPACE',''
  ) );
#1060 = ORIENTED_EDGE('',*,*,#942,.T.);
#1061 = ADVANCED_FACE('',(#1062,#1093),#592,.F.);
#1062 = FACE_BOUND('',#1063,.F.);
#1063 = EDGE_LOOP('',(#1064,#1090,#1091,#1092));
#1064 = ORIENTED_EDGE('',*,*,#1065,.F.);
#1065 = EDGE_CURVE('',#768,#613,#1066,.T.);
#1066 = SURFACE_CURVE('',#1067,(#1072,#1083),.PCURVE_S1.);
#1067 = CIRCLE('',#1068,76.45);
#1068 = AXIS2_PLACEMENT_3D('',#1069,#1070,#1071);
#1069 = CARTESIAN_POINT('',(0.,0.,3.8));
#1070 = DIRECTION('',(0.,0.,-1.));
#1071 = DIRECTION('',(0.992277327186,0.124039130735,0.));
#1072 = PCURVE('',#592,#1073);
#1073 = DEFINITIONAL_REPRESENTATION('',(#1074),#1082);
#1074 = ( BOUNDED_CURVE() B_SPLINE_CURVE(2,(#1075,#1076,#1077,#1078,
#1079,#1080,#1081),.UNSPECIFIED.,.T.,.F.) B_SPLINE_CURVE_WITH_KNOTS((1,2
    ,2,2,2,1),(-2.094395102393,0.,2.094395102393,4.188790204786,
6.28318530718,8.377580409573),.UNSPECIFIED.) CURVE() 
GEOMETRIC_REPRESENTATION_ITEM() RATIONAL_B_SPLINE_CURVE((1.,0.5,1.,0.5,
1.,0.5,1.)) REPRESENTATION_ITEM('') );
#1075 = CARTESIAN_POINT('',(20.397567841363,9.482791544673));
#1076 = CARTESIAN_POINT('',(36.822244594322,-121.9098927781));
#1077 = CARTESIAN_POINT('',(-85.17949627716,-70.43773793375));
#1078 = CARTESIAN_POINT('',(-207.1812371486,-18.96558308934));
#1079 = CARTESIAN_POINT('',(-101.6041730301,60.954946389082));
#1080 = CARTESIAN_POINT('',(3.972891088404,140.87547586751));
#1081 = CARTESIAN_POINT('',(20.397567841363,9.482791544673));
#1082 = ( GEOMETRIC_REPRESENTATION_CONTEXT(2) 
PARAMETRIC_REPRESENTATION_CONTEXT() REPRESENTATION_CONTEXT('2D SPACE',''
  ) );
#1083 = PCURVE('',#652,#1084);
#1084 = DEFINITIONAL_REPRESENTATION('',(#1085),#1089);
#1085 = LINE('',#1086,#1087);
#1086 = CARTESIAN_POINT('',(6.407544732085,1.));
#1087 = VECTOR('',#1088,1.);
#1088 = DIRECTION('',(-1.,-0.));
#1089 = ( GEOMETRIC_REPRESENTATION_CONTEXT(2) 
PARAMETRIC_REPRESENTATION_CONTEXT() REPRESENTATION_CONTEXT('2D SPACE',''
  ) );
#1090 = ORIENTED_EDGE('',*,*,#794,.F.);
#1091 = ORIENTED_EDGE('',*,*,#577,.T.);
#1092 = ORIENTED_EDGE('',*,*,#612,.T.);
#1093 = FACE_BOUND('',#1094,.F.);
#1094 = EDGE_LOOP('',(#1095,#1125,#1158,#1186));
#1095 = ORIENTED_EDGE('',*,*,#1096,.T.);
#1096 = EDGE_CURVE('',#1097,#1099,#1101,.T.);
#1097 = VERTEX_POINT('',#1098);
#1098 = CARTESIAN_POINT('',(65.8,6.8,3.8));
#1099 = VERTEX_POINT('',#1100);
#1100 = CARTESIAN_POINT('',(70.2,6.8,3.8));
#1101 = SURFACE_CURVE('',#1102,(#1106,#1113),.PCURVE_S1.);
#1102 = LINE('',#1103,#1104);
#1103 = CARTESIAN_POINT('',(65.8,6.8,3.8));
#1104 = VECTOR('',#1105,1.);
#1105 = DIRECTION('',(1.,0.,0.));
#1106 = PCURVE('',#592,#1107);
#1107 = DEFINITIONAL_REPRESENTATION('',(#1108),#1112);
#1108 = LINE('',#1109,#1110);
#1109 = CARTESIAN_POINT('',(10.337966178025,6.8));
#1110 = VECTOR('',#1111,1.);
#1111 = DIRECTION('',(1.,0.));
#1112 = ( GEOMETRIC_REPRESENTATION_CONTEXT(2) 
PARAMETRIC_REPRESENTATION_CONTEXT() REPRESENTATION_CONTEXT('2D SPACE',''
  ) );
#1113 = PCURVE('',#1114,#1119);
#1114 = PLANE('',#1115);
#1115 = AXIS2_PLACEMENT_3D('',#1116,#1117,#1118);
#1116 = CARTESIAN_POINT('',(65.8,6.8,3.));
#1117 = DIRECTION('',(0.,1.,0.));
#1118 = DIRECTION('',(1.,0.,0.));
#1119 = DEFINITIONAL_REPRESENTATION('',(#1120),#1124);
#1120 = LINE('',#1121,#1122);
#1121 = CARTESIAN_POINT('',(0.,-0.8));
#1122 = VECTOR('',#1123,1.);
#1123 = DIRECTION('',(1.,0.));
#1124 = ( GEOMETRIC_REPRESENTATION_CONTEXT(2) 
PARAMETRIC_REPRESENTATION_CONTEXT() REPRESENTATION_CONTEXT('2D SPACE',''
  ) );
#1125 = ORIENTED_EDGE('',*,*,#1126,.T.);
#1126 = EDGE_CURVE('',#1099,#1127,#1129,.T.);
#1127 = VERTEX_POINT('',#1128);
#1128 = CARTESIAN_POINT('',(70.2,5.2,3.8));
#1129 = SURFACE_CURVE('',#1130,(#1135,#1146),.PCURVE_S1.);
#1130 = CIRCLE('',#1131,0.8);
#1131 = AXIS2_PLACEMENT_3D('',#1132,#1133,#1134);
#1132 = CARTESIAN_POINT('',(70.2,6.,3.8));
#1133 = DIRECTION('',(-0.,0.,-1.));
#1134 = DIRECTION('',(-1.,-0.,0.));
#1135 = PCURVE('',#592,#1136);
#1136 = DEFINITIONAL_REPRESENTATION('',(#1137),#1145);
#1137 = ( BOUNDED_CURVE() B_SPLINE_CURVE(2,(#1138,#1139,#1140,#1141,
#1142,#1143,#1144),.UNSPECIFIED.,.T.,.F.) B_SPLINE_CURVE_WITH_KNOTS((1,2
    ,2,2,2,1),(-2.094395102393,0.,2.094395102393,4.188790204786,
6.28318530718,8.377580409573),.UNSPECIFIED.) CURVE() 
GEOMETRIC_REPRESENTATION_ITEM() RATIONAL_B_SPLINE_CURVE((1.,0.5,1.,0.5,
1.,0.5,1.)) REPRESENTATION_ITEM('') );
#1138 = CARTESIAN_POINT('',(13.937966178025,6.));
#1139 = CARTESIAN_POINT('',(13.937966178025,7.385640646055));
#1140 = CARTESIAN_POINT('',(15.137966178025,6.692820323028));
#1141 = CARTESIAN_POINT('',(16.337966178025,6.));
#1142 = CARTESIAN_POINT('',(15.137966178025,5.307179676972));
#1143 = CARTESIAN_POINT('',(13.937966178025,4.614359353945));
#1144 = CARTESIAN_POINT('',(13.937966178025,6.));
#1145 = ( GEOMETRIC_REPRESENTATION_CONTEXT(2) 
PARAMETRIC_REPRESENTATION_CONTEXT() REPRESENTATION_CONTEXT('2D SPACE',''
  ) );
#1146 = PCURVE('',#1147,#1152);
#1147 = CYLINDRICAL_SURFACE('',#1148,0.8);
#1148 = AXIS2_PLACEMENT_3D('',#1149,#1150,#1151);
#1149 = CARTESIAN_POINT('',(70.2,6.,3.));
#1150 = DIRECTION('',(-0.,0.,-1.));
#1151 = DIRECTION('',(-1.,-0.,0.));
#1152 = DEFINITIONAL_REPRESENTATION('',(#1153),#1157);
#1153 = LINE('',#1154,#1155);
#1154 = CARTESIAN_POINT('',(0.,-0.8));
#1155 = VECTOR('',#1156,1.);
#1156 = DIRECTION('',(1.,0.));
#1157 = ( GEOMETRIC_REPRESENTATION_CONTEXT(2) 
PARAMETRIC_REPRESENTATION_CONTEXT() REPRESENTATION_CONTEXT('2D SPACE',''
  ) );
#1158 = ORIENTED_EDGE('',*,*,#1159,.T.);
#1159 = EDGE_CURVE('',#1127,#1160,#1162,.T.);
#1160 = VERTEX_POINT('',#1161);
#1161 = CARTESIAN_POINT('',(65.8,5.2,3.8));
#1162 = SURFACE_CURVE('',#1163,(#1167,#1174),.PCURVE_S1.);
#1163 = LINE('',#1164,#1165);
#1164 = CARTESIAN_POINT('',(70.2,5.2,3.8));
#1165 = VECTOR('',#1166,1.);
#1166 = DIRECTION('',(-1.,0.,0.));
#1167 = PCURVE('',#592,#1168);
#1168 = DEFINITIONAL_REPRESENTATION('',(#1169),#1173);
#1169 = LINE('',#1170,#1171);
#1170 = CARTESIAN_POINT('',(14.737966178025,5.2));
#1171 = VECTOR('',#1172,1.);
#1172 = DIRECTION('',(-1.,0.));
#1173 = ( GEOMETRIC_REPRESENTATION_CONTEXT(2) 
PARAMETRIC_REPRESENTATION_CONTEXT() REPRESENTATION_CONTEXT('2D SPACE',''
  ) );
#1174 = PCURVE('',#1175,#1180);
#1175 = PLANE('',#1176);
#1176 = AXIS2_PLACEMENT_3D('',#1177,#1178,#1179);
#1177 = CARTESIAN_POINT('',(68.,5.2,3.));
#1178 = DIRECTION('',(0.,1.,0.));
#1179 = DIRECTION('',(1.,0.,0.));
#1180 = DEFINITIONAL_REPRESENTATION('',(#1181),#1185);
#1181 = LINE('',#1182,#1183);
#1182 = CARTESIAN_POINT('',(2.2,-0.8));
#1183 = VECTOR('',#1184,1.);
#1184 = DIRECTION('',(-1.,0.));
#1185 = ( GEOMETRIC_REPRESENTATION_CONTEXT(2) 
PARAMETRIC_REPRESENTATION_CONTEXT() REPRESENTATION_CONTEXT('2D SPACE',''
  ) );
#1186 = ORIENTED_EDGE('',*,*,#1187,.T.);
#1187 = EDGE_CURVE('',#1160,#1097,#1188,.T.);
#1188 = SURFACE_CURVE('',#1189,(#1194,#1205),.PCURVE_S1.);
#1189 = CIRCLE('',#1190,0.8);
#1190 = AXIS2_PLACEMENT_3D('',#1191,#1192,#1193);
#1191 = CARTESIAN_POINT('',(65.8,6.,3.8));
#1192 = DIRECTION('',(0.,0.,-1.));
#1193 = DIRECTION('',(1.,0.,0.));
#1194 = PCURVE('',#592,#1195);
#1195 = DEFINITIONAL_REPRESENTATION('',(#1196),#1204);
#1196 = ( BOUNDED_CURVE() B_SPLINE_CURVE(2,(#1197,#1198,#1199,#1200,
#1201,#1202,#1203),.UNSPECIFIED.,.T.,.F.) B_SPLINE_CURVE_WITH_KNOTS((1,2
    ,2,2,2,1),(-2.094395102393,0.,2.094395102393,4.188790204786,
6.28318530718,8.377580409573),.UNSPECIFIED.) CURVE() 
GEOMETRIC_REPRESENTATION_ITEM() RATIONAL_B_SPLINE_CURVE((1.,0.5,1.,0.5,
1.,0.5,1.)) REPRESENTATION_ITEM('') );
#1197 = CARTESIAN_POINT('',(11.137966178025,6.));
#1198 = CARTESIAN_POINT('',(11.137966178025,4.614359353945));
#1199 = CARTESIAN_POINT('',(9.937966178025,5.307179676972));
#1200 = CARTESIAN_POINT('',(8.737966178025,6.));
#1201 = CARTESIAN_POINT('',(9.937966178025,6.692820323028));
#1202 = CARTESIAN_POINT('',(11.137966178025,7.385640646055));
#1203 = CARTESIAN_POINT('',(11.137966178025,6.));
#1204 = ( GEOMETRIC_REPRESENTATION_CONTEXT(2) 
PARAMETRIC_REPRESENTATION_CONTEXT() REPRESENTATION_CONTEXT('2D SPACE',''
  ) );
#1205 = PCURVE('',#1206,#1211);
#1206 = CYLINDRICAL_SURFACE('',#1207,0.8);
#1207 = AXIS2_PLACEMENT_3D('',#1208,#1209,#1210);
#1208 = CARTESIAN_POINT('',(65.8,6.,3.));
#1209 = DIRECTION('',(0.,0.,-1.));
#1210 = DIRECTION('',(1.,0.,0.));
#1211 = DEFINITIONAL_REPRESENTATION('',(#1212),#1216);
#1212 = LINE('',#1213,#1214);
#1213 = CARTESIAN_POINT('',(0.,-0.8));
#1214 = VECTOR('',#1215,1.);
#1215 = DIRECTION('',(1.,0.));
#1216 = ( GEOMETRIC_REPRESENTATION_CONTEXT(2) 
PARAMETRIC_REPRESENTATION_CONTEXT() REPRESENTATION_CONTEXT('2D SPACE',''
  ) );
#1217 = ADVANCED_FACE('',(#1218),#652,.T.);
#1218 = FACE_BOUND('',#1219,.T.);
#1219 = EDGE_LOOP('',(#1220,#1221,#1222,#1223));
#1220 = ORIENTED_EDGE('',*,*,#1065,.F.);
#1221 = ORIENTED_EDGE('',*,*,#767,.F.);
#1222 = ORIENTED_EDGE('',*,*,#713,.T.);
#1223 = ORIENTED_EDGE('',*,*,#635,.F.);
#1224 = ADVANCED_FACE('',(#1225),#835,.T.);
#1225 = FACE_BOUND('',#1226,.F.);
#1226 = EDGE_LOOP('',(#1227,#1228,#1229,#1230));
#1227 = ORIENTED_EDGE('',*,*,#875,.T.);
#1228 = ORIENTED_EDGE('',*,*,#1040,.T.);
#1229 = ORIENTED_EDGE('',*,*,#970,.F.);
#1230 = ORIENTED_EDGE('',*,*,#821,.F.);
#1231 = ADVANCED_FACE('',(#1232),#1114,.T.);
#1232 = FACE_BOUND('',#1233,.T.);
#1233 = EDGE_LOOP('',(#1234,#1257,#1258,#1281));
#1234 = ORIENTED_EDGE('',*,*,#1235,.T.);
#1235 = EDGE_CURVE('',#1236,#1097,#1238,.T.);
#1236 = VERTEX_POINT('',#1237);
#1237 = CARTESIAN_POINT('',(65.8,6.8,3.));
#1238 = SURFACE_CURVE('',#1239,(#1243,#1250),.PCURVE_S1.);
#1239 = LINE('',#1240,#1241);
#1240 = CARTESIAN_POINT('',(65.8,6.8,3.));
#1241 = VECTOR('',#1242,1.);
#1242 = DIRECTION('',(0.,0.,1.));
#1243 = PCURVE('',#1114,#1244);
#1244 = DEFINITIONAL_REPRESENTATION('',(#1245),#1249);
#1245 = LINE('',#1246,#1247);
#1246 = CARTESIAN_POINT('',(0.,0.));
#1247 = VECTOR('',#1248,1.);
#1248 = DIRECTION('',(0.,-1.));
#1249 = ( GEOMETRIC_REPRESENTATION_CONTEXT(2) 
PARAMETRIC_REPRESENTATION_CONTEXT() REPRESENTATION_CONTEXT('2D SPACE',''
  ) );
#1250 = PCURVE('',#1206,#1251);
#1251 = DEFINITIONAL_REPRESENTATION('',(#1252),#1256);
#1252 = LINE('',#1253,#1254);
#1253 = CARTESIAN_POINT('',(4.712388980385,0.));
#1254 = VECTOR('',#1255,1.);
#1255 = DIRECTION('',(0.,-1.));
#1256 = ( GEOMETRIC_REPRESENTATION_CONTEXT(2) 
PARAMETRIC_REPRESENTATION_CONTEXT() REPRESENTATION_CONTEXT('2D SPACE',''
  ) );
#1257 = ORIENTED_EDGE('',*,*,#1096,.T.);
#1258 = ORIENTED_EDGE('',*,*,#1259,.F.);
#1259 = EDGE_CURVE('',#1260,#1099,#1262,.T.);
#1260 = VERTEX_POINT('',#1261);
#1261 = CARTESIAN_POINT('',(70.2,6.8,3.));
#1262 = SURFACE_CURVE('',#1263,(#1267,#1274),.PCURVE_S1.);
#1263 = LINE('',#1264,#1265);
#1264 = CARTESIAN_POINT('',(70.2,6.8,3.));
#1265 = VECTOR('',#1266,1.);
#1266 = DIRECTION('',(0.,0.,1.));
#1267 = PCURVE('',#1114,#1268);
#1268 = DEFINITIONAL_REPRESENTATION('',(#1269),#1273);
#1269 = LINE('',#1270,#1271);
#1270 = CARTESIAN_POINT('',(4.4,0.));
#1271 = VECTOR('',#1272,1.);
#1272 = DIRECTION('',(0.,-1.));
#1273 = ( GEOMETRIC_REPRESENTATION_CONTEXT(2) 
PARAMETRIC_REPRESENTATION_CONTEXT() REPRESENTATION_CONTEXT('2D SPACE',''
  ) );
#1274 = PCURVE('',#1147,#1275);
#1275 = DEFINITIONAL_REPRESENTATION('',(#1276),#1280);
#1276 = LINE('',#1277,#1278);
#1277 = CARTESIAN_POINT('',(1.570796326795,0.));
#1278 = VECTOR('',#1279,1.);
#1279 = DIRECTION('',(0.,-1.));
#1280 = ( GEOMETRIC_REPRESENTATION_CONTEXT(2) 
PARAMETRIC_REPRESENTATION_CONTEXT() REPRESENTATION_CONTEXT('2D SPACE',''
  ) );
#1281 = ORIENTED_EDGE('',*,*,#1282,.T.);
#1282 = EDGE_CURVE('',#1260,#1236,#1283,.T.);
#1283 = SURFACE_CURVE('',#1284,(#1288,#1295),.PCURVE_S1.);
#1284 = LINE('',#1285,#1286);
#1285 = CARTESIAN_POINT('',(70.2,6.8,3.));
#1286 = VECTOR('',#1287,1.);
#1287 = DIRECTION('',(-1.,0.,0.));
#1288 = PCURVE('',#1114,#1289);
#1289 = DEFINITIONAL_REPRESENTATION('',(#1290),#1294);
#1290 = LINE('',#1291,#1292);
#1291 = CARTESIAN_POINT('',(4.4,0.));
#1292 = VECTOR('',#1293,1.);
#1293 = DIRECTION('',(-1.,0.));
#1294 = ( GEOMETRIC_REPRESENTATION_CONTEXT(2) 
PARAMETRIC_REPRESENTATION_CONTEXT() REPRESENTATION_CONTEXT('2D SPACE',''
  ) );
#1295 = PCURVE('',#1296,#1301);
#1296 = PLANE('',#1297);
#1297 = AXIS2_PLACEMENT_3D('',#1298,#1299,#1300);
#1298 = CARTESIAN_POINT('',(68.,6.,3.));
#1299 = DIRECTION('',(0.,0.,1.));
#1300 = DIRECTION('',(1.,0.,0.));
#1301 = DEFINITIONAL_REPRESENTATION('',(#1302),#1306);
#1302 = LINE('',#1303,#1304);
#1303 = CARTESIAN_POINT('',(2.2,0.8));
#1304 = VECTOR('',#1305,1.);
#1305 = DIRECTION('',(-1.,0.));
#1306 = ( GEOMETRIC_REPRESENTATION_CONTEXT(2) 
PARAMETRIC_REPRESENTATION_CONTEXT() REPRESENTATION_CONTEXT('2D SPACE',''
  ) );
#1307 = ADVANCED_FACE('',(#1308),#1206,.T.);
#1308 = FACE_BOUND('',#1309,.T.);
#1309 = EDGE_LOOP('',(#1310,#1333,#1334,#1335));
#1310 = ORIENTED_EDGE('',*,*,#1311,.T.);
#1311 = EDGE_CURVE('',#1312,#1160,#1314,.T.);
#1312 = VERTEX_POINT('',#1313);
#1313 = CARTESIAN_POINT('',(65.8,5.2,3.));
#1314 = SURFACE_CURVE('',#1315,(#1319,#1326),.PCURVE_S1.);
#1315 = LINE('',#1316,#1317);
#1316 = CARTESIAN_POINT('',(65.8,5.2,3.));
#1317 = VECTOR('',#1318,1.);
#1318 = DIRECTION('',(0.,0.,1.));
#1319 = PCURVE('',#1206,#1320);
#1320 = DEFINITIONAL_REPRESENTATION('',(#1321),#1325);
#1321 = LINE('',#1322,#1323);
#1322 = CARTESIAN_POINT('',(1.570796326795,0.));
#1323 = VECTOR('',#1324,1.);
#1324 = DIRECTION('',(0.,-1.));
#1325 = ( GEOMETRIC_REPRESENTATION_CONTEXT(2) 
PARAMETRIC_REPRESENTATION_CONTEXT() REPRESENTATION_CONTEXT('2D SPACE',''
  ) );
#1326 = PCURVE('',#1175,#1327);
#1327 = DEFINITIONAL_REPRESENTATION('',(#1328),#1332);
#1328 = LINE('',#1329,#1330);
#1329 = CARTESIAN_POINT('',(-2.2,0.));
#1330 = VECTOR('',#1331,1.);
#1331 = DIRECTION('',(0.,-1.));
#1332 = ( GEOMETRIC_REPRESENTATION_CONTEXT(2) 
PARAMETRIC_REPRESENTATION_CONTEXT() REPRESENTATION_CONTEXT('2D SPACE',''
  ) );
#1333 = ORIENTED_EDGE('',*,*,#1187,.T.);
#1334 = ORIENTED_EDGE('',*,*,#1235,.F.);
#1335 = ORIENTED_EDGE('',*,*,#1336,.F.);
#1336 = EDGE_CURVE('',#1312,#1236,#1337,.T.);
#1337 = SURFACE_CURVE('',#1338,(#1343,#1350),.PCURVE_S1.);
#1338 = CIRCLE('',#1339,0.8);
#1339 = AXIS2_PLACEMENT_3D('',#1340,#1341,#1342);
#1340 = CARTESIAN_POINT('',(65.8,6.,3.));
#1341 = DIRECTION('',(0.,0.,-1.));
#1342 = DIRECTION('',(1.,0.,0.));
#1343 = PCURVE('',#1206,#1344);
#1344 = DEFINITIONAL_REPRESENTATION('',(#1345),#1349);
#1345 = LINE('',#1346,#1347);
#1346 = CARTESIAN_POINT('',(0.,0.));
#1347 = VECTOR('',#1348,1.);
#1348 = DIRECTION('',(1.,0.));
#1349 = ( GEOMETRIC_REPRESENTATION_CONTEXT(2) 
PARAMETRIC_REPRESENTATION_CONTEXT() REPRESENTATION_CONTEXT('2D SPACE',''
  ) );
#1350 = PCURVE('',#1296,#1351);
#1351 = DEFINITIONAL_REPRESENTATION('',(#1352),#1360);
#1352 = ( BOUNDED_CURVE() B_SPLINE_CURVE(2,(#1353,#1354,#1355,#1356,
#1357,#1358,#1359),.UNSPECIFIED.,.T.,.F.) B_SPLINE_CURVE_WITH_KNOTS((1,2
    ,2,2,2,1),(-2.094395102393,0.,2.094395102393,4.188790204786,
6.28318530718,8.377580409573),.UNSPECIFIED.) CURVE() 
GEOMETRIC_REPRESENTATION_ITEM() RATIONAL_B_SPLINE_CURVE((1.,0.5,1.,0.5,
1.,0.5,1.)) REPRESENTATION_ITEM('') );
#1353 = CARTESIAN_POINT('',(-1.4,0.));
#1354 = CARTESIAN_POINT('',(-1.4,-1.385640646055));
#1355 = CARTESIAN_POINT('',(-2.6,-0.692820323028));
#1356 = CARTESIAN_POINT('',(-3.8,-1.959434878636E-16));
#1357 = CARTESIAN_POINT('',(-2.6,0.692820323028));
#1358 = CARTESIAN_POINT('',(-1.4,1.385640646055));
#1359 = CARTESIAN_POINT('',(-1.4,0.));
#1360 = ( GEOMETRIC_REPRESENTATION_CONTEXT(2) 
PARAMETRIC_REPRESENTATION_CONTEXT() REPRESENTATION_CONTEXT('2D SPACE',''
  ) );
#1361 = ADVANCED_FACE('',(#1362),#1175,.F.);
#1362 = FACE_BOUND('',#1363,.F.);
#1363 = EDGE_LOOP('',(#1364,#1387,#1408,#1409));
#1364 = ORIENTED_EDGE('',*,*,#1365,.F.);
#1365 = EDGE_CURVE('',#1366,#1127,#1368,.T.);
#1366 = VERTEX_POINT('',#1367);
#1367 = CARTESIAN_POINT('',(70.2,5.2,3.));
#1368 = SURFACE_CURVE('',#1369,(#1373,#1380),.PCURVE_S1.);
#1369 = LINE('',#1370,#1371);
#1370 = CARTESIAN_POINT('',(70.2,5.2,3.));
#1371 = VECTOR('',#1372,1.);
#1372 = DIRECTION('',(0.,0.,1.));
#1373 = PCURVE('',#1175,#1374);
#1374 = DEFINITIONAL_REPRESENTATION('',(#1375),#1379);
#1375 = LINE('',#1376,#1377);
#1376 = CARTESIAN_POINT('',(2.2,0.));
#1377 = VECTOR('',#1378,1.);
#1378 = DIRECTION('',(0.,-1.));
#1379 = ( GEOMETRIC_REPRESENTATION_CONTEXT(2) 
PARAMETRIC_REPRESENTATION_CONTEXT() REPRESENTATION_CONTEXT('2D SPACE',''
  ) );
#1380 = PCURVE('',#1147,#1381);
#1381 = DEFINITIONAL_REPRESENTATION('',(#1382),#1386);
#1382 = LINE('',#1383,#1384);
#1383 = CARTESIAN_POINT('',(4.712388980385,0.));
#1384 = VECTOR('',#1385,1.);
#1385 = DIRECTION('',(0.,-1.));
#1386 = ( GEOMETRIC_REPRESENTATION_CONTEXT(2) 
PARAMETRIC_REPRESENTATION_CONTEXT() REPRESENTATION_CONTEXT('2D SPACE',''
  ) );
#1387 = ORIENTED_EDGE('',*,*,#1388,.F.);
#1388 = EDGE_CURVE('',#1312,#1366,#1389,.T.);
#1389 = SURFACE_CURVE('',#1390,(#1394,#1401),.PCURVE_S1.);
#1390 = LINE('',#1391,#1392);
#1391 = CARTESIAN_POINT('',(65.8,5.2,3.));
#1392 = VECTOR('',#1393,1.);
#1393 = DIRECTION('',(1.,0.,0.));
#1394 = PCURVE('',#1175,#1395);
#1395 = DEFINITIONAL_REPRESENTATION('',(#1396),#1400);
#1396 = LINE('',#1397,#1398);
#1397 = CARTESIAN_POINT('',(-2.2,0.));
#1398 = VECTOR('',#1399,1.);
#1399 = DIRECTION('',(1.,0.));
#1400 = ( GEOMETRIC_REPRESENTATION_CONTEXT(2) 
PARAMETRIC_REPRESENTATION_CONTEXT() REPRESENTATION_CONTEXT('2D SPACE',''
  ) );
#1401 = PCURVE('',#1296,#1402);
#1402 = DEFINITIONAL_REPRESENTATION('',(#1403),#1407);
#1403 = LINE('',#1404,#1405);
#1404 = CARTESIAN_POINT('',(-2.2,-0.8));
#1405 = VECTOR('',#1406,1.);
#1406 = DIRECTION('',(1.,0.));
#1407 = ( GEOMETRIC_REPRESENTATION_CONTEXT(2) 
PARAMETRIC_REPRESENTATION_CONTEXT() REPRESENTATION_CONTEXT('2D SPACE',''
  ) );
#1408 = ORIENTED_EDGE('',*,*,#1311,.T.);
#1409 = ORIENTED_EDGE('',*,*,#1159,.F.);
#1410 = ADVANCED_FACE('',(#1411),#1147,.T.);
#1411 = FACE_BOUND('',#1412,.T.);
#1412 = EDGE_LOOP('',(#1413,#1414,#1415,#1416));
#1413 = ORIENTED_EDGE('',*,*,#1259,.T.);
#1414 = ORIENTED_EDGE('',*,*,#1126,.T.);
#1415 = ORIENTED_EDGE('',*,*,#1365,.F.);
#1416 = ORIENTED_EDGE('',*,*,#1417,.F.);
#1417 = EDGE_CURVE('',#1260,#1366,#1418,.T.);
#1418 = SURFACE_CURVE('',#1419,(#1424,#1431),.PCURVE_S1.);
#1419 = CIRCLE('',#1420,0.8);
#1420 = AXIS2_PLACEMENT_3D('',#1421,#1422,#1423);
#1421 = CARTESIAN_POINT('',(70.2,6.,3.));
#1422 = DIRECTION('',(-0.,0.,-1.));
#1423 = DIRECTION('',(-1.,-0.,0.));
#1424 = PCURVE('',#1147,#1425);
#1425 = DEFINITIONAL_REPRESENTATION('',(#1426),#1430);
#1426 = LINE('',#1427,#1428);
#1427 = CARTESIAN_POINT('',(0.,0.));
#1428 = VECTOR('',#1429,1.);
#1429 = DIRECTION('',(1.,0.));
#1430 = ( GEOMETRIC_REPRESENTATION_CONTEXT(2) 
PARAMETRIC_REPRESENTATION_CONTEXT() REPRESENTATION_CONTEXT('2D SPACE',''
  ) );
#1431 = PCURVE('',#1296,#1432);
#1432 = DEFINITIONAL_REPRESENTATION('',(#1433),#1441);
#1433 = ( BOUNDED_CURVE() B_SPLINE_CURVE(2,(#1434,#1435,#1436,#1437,
#1438,#1439,#1440),.UNSPECIFIED.,.T.,.F.) B_SPLINE_CURVE_WITH_KNOTS((1,2
    ,2,2,2,1),(-2.094395102393,0.,2.094395102393,4.188790204786,
6.28318530718,8.377580409573),.UNSPECIFIED.) CURVE() 
GEOMETRIC_REPRESENTATION_ITEM() RATIONAL_B_SPLINE_CURVE((1.,0.5,1.,0.5,
1.,0.5,1.)) REPRESENTATION_ITEM('') );
#1434 = CARTESIAN_POINT('',(1.4,0.));
#1435 = CARTESIAN_POINT('',(1.4,1.385640646055));
#1436 = CARTESIAN_POINT('',(2.6,0.692820323028));
#1437 = CARTESIAN_POINT('',(3.8,1.959434878636E-16));
#1438 = CARTESIAN_POINT('',(2.6,-0.692820323028));
#1439 = CARTESIAN_POINT('',(1.4,-1.385640646055));
#1440 = CARTESIAN_POINT('',(1.4,0.));
#1441 = ( GEOMETRIC_REPRESENTATION_CONTEXT(2) 
PARAMETRIC_REPRESENTATION_CONTEXT() REPRESENTATION_CONTEXT('2D SPACE',''
  ) );
#1442 = ADVANCED_FACE('',(#1443),#1296,.F.);
#1443 = FACE_BOUND('',#1444,.T.);
#1444 = EDGE_LOOP('',(#1445,#1446,#1447,#1448));
#1445 = ORIENTED_EDGE('',*,*,#1417,.T.);
#1446 = ORIENTED_EDGE('',*,*,#1388,.F.);
#1447 = ORIENTED_EDGE('',*,*,#1336,.T.);
#1448 = ORIENTED_EDGE('',*,*,#1282,.F.);
#1449 = ( GEOMETRIC_REPRESENTATION_CONTEXT(3) 
GLOBAL_UNCERTAINTY_ASSIGNED_CONTEXT((#1453)) 
GLOBAL_UNIT_ASSIGNED_CONTEXT((#1450,#1451,#1452)) REPRESENTATION_CONTEXT
('Context #1','3D Context with UNIT and UNCERTAINTY') );
#1450 = ( LENGTH_UNIT() NAMED_UNIT(*) SI_UNIT(.MILLI.,.METRE.) );
#1451 = ( NAMED_UNIT(*) PLANE_ANGLE_UNIT() SI_UNIT($,.RADIAN.) );
#1452 = ( NAMED_UNIT(*) SI_UNIT($,.STERADIAN.) SOLID_ANGLE_UNIT() );
#1453 = UNCERTAINTY_MEASURE_WITH_UNIT(LENGTH_MEASURE(1.E-07),#1450,
  'distance_accuracy_value','confusion accuracy');
#1454 = CONTEXT_DEPENDENT_SHAPE_REPRESENTATION(#1455,#1457);
#1455 = ( REPRESENTATION_RELATIONSHIP('','',#32,#10) 
REPRESENTATION_RELATIONSHIP_WITH_TRANSFORMATION(#1456) 
SHAPE_REPRESENTATION_RELATIONSHIP() );
#1456 = ITEM_DEFINED_TRANSFORMATION('','',#11,#15);
#1457 = PRODUCT_DEFINITION_SHAPE('Placement','Placement of an item',
  #1458);
#1458 = NEXT_ASSEMBLY_USAGE_OCCURRENCE('91','=>[0:1:1:2]','',#5,#27,$);
#1459 = PRODUCT_RELATED_PRODUCT_CATEGORY('part',$,(#29));
#1460 = MECHANICAL_DESIGN_GEOMETRIC_PRESENTATION_REPRESENTATION('',(
    #1461),#1449);
#1461 = STYLED_ITEM('color',(#1462),#33);
#1462 = PRESENTATION_STYLE_ASSIGNMENT((#1463));
#1463 = SURFACE_STYLE_USAGE(.BOTH.,#1464);
#1464 = SURFACE_SIDE_STYLE('',(#1465));
#1465 = SURFACE_STYLE_FILL_AREA(#1466);
#1466 = FILL_AREA_STYLE('',(#1467));
#1467 = FILL_AREA_STYLE_COLOUR('',#1468);
#1468 = COLOUR_RGB('',0.556999999688,0.235000001234,2.40000002319E-02);

#1469=DESCRIPTIVE_REPRESENTATION_ITEM('cadgen:generator','cadgen');
#1470=REPRESENTATION('cadgen:generator',(#1469),#19);
#1471=PROPERTY_DEFINITION('cadgen metadata','cadgen:generator',#5);
#1472=PROPERTY_DEFINITION_REPRESENTATION(#1471,#1470);
#1473=DESCRIPTIVE_REPRESENTATION_ITEM('cadgen:entryKind','part');
#1474=REPRESENTATION('cadgen:entryKind',(#1473),#19);
#1475=PROPERTY_DEFINITION('cadgen metadata','cadgen:entryKind',#5);
#1476=PROPERTY_DEFINITION_REPRESENTATION(#1475,#1474);
#1477=DESCRIPTIVE_REPRESENTATION_ITEM('cadgen:sourcePath','part_lane_06_cocoa_brown.step.py');
#1478=REPRESENTATION('cadgen:sourcePath',(#1477),#19);
#1479=PROPERTY_DEFINITION('cadgen metadata','cadgen:sourcePath',#5);
#1480=PROPERTY_DEFINITION_REPRESENTATION(#1479,#1478);
#1481=DESCRIPTIVE_REPRESENTATION_ITEM('cadgen:sourceHash','7c676064ae1f4900cb9ca6850d468bb7a8045391b834635d0c3ec37f3f0120f5');
#1482=REPRESENTATION('cadgen:sourceHash',(#1481),#19);
#1483=PROPERTY_DEFINITION('cadgen metadata','cadgen:sourceHash',#5);
#1484=PROPERTY_DEFINITION_REPRESENTATION(#1483,#1482);
ENDSEC;
END-ISO-10303-21;
