ISO-10303-21;
HEADER;
FILE_DESCRIPTION(('Open CASCADE Model'),'2;1');
FILE_NAME('lane_18_cocoa_brown','1970-01-01T00:00:00',('Author'),(
    'Open CASCADE'),'Open CASCADE STEP processor 7.9','cadgen','Unknown'
  );
FILE_SCHEMA(('AUTOMOTIVE_DESIGN { 1 0 10303 214 1 1 1 1 }'));
ENDSEC;
DATA;
#1 = APPLICATION_PROTOCOL_DEFINITION('international standard',
  'automotive_design',2000,#2);
#2 = APPLICATION_CONTEXT(
  'core data for automotive mechanical design processes');
#3 = SHAPE_DEFINITION_REPRESENTATION(#4,#10);
#4 = PRODUCT_DEFINITION_SHAPE('','',#5);
#5 = PRODUCT_DEFINITION('design','',#6,#9);
#6 = PRODUCT_DEFINITION_FORMATION('','',#7);
#7 = PRODUCT('=>[0:1:1:2]','=>[0:1:1:2]','',(#8));
#8 = PRODUCT_CONTEXT('',#2,'mechanical');
#9 = PRODUCT_DEFINITION_CONTEXT('part definition',#2,'design');
#10 = SHAPE_REPRESENTATION('',(#11,#15),#19);
#11 = AXIS2_PLACEMENT_3D('',#12,#13,#14);
#12 = CARTESIAN_POINT('',(0.,0.,0.));
#13 = DIRECTION('',(0.,0.,1.));
#14 = DIRECTION('',(1.,0.,-0.));
#15 = AXIS2_PLACEMENT_3D('',#16,#17,#18);
#16 = CARTESIAN_POINT('',(0.,0.,6.));
#17 = DIRECTION('',(0.,-1.224646799147E-16,-1.));
#18 = DIRECTION('',(1.,0.,0.));
#19 = ( GEOMETRIC_REPRESENTATION_CONTEXT(3) 
GLOBAL_UNCERTAINTY_ASSIGNED_CONTEXT((#23)) GLOBAL_UNIT_ASSIGNED_CONTEXT(
(#20,#21,#22)) REPRESENTATION_CONTEXT('Context #1',
  '3D Context with UNIT and UNCERTAINTY') );
#20 = ( LENGTH_UNIT() NAMED_UNIT(*) SI_UNIT(.MILLI.,.METRE.) );
#21 = ( NAMED_UNIT(*) PLANE_ANGLE_UNIT() SI_UNIT($,.RADIAN.) );
#22 = ( NAMED_UNIT(*) SI_UNIT($,.STERADIAN.) SOLID_ANGLE_UNIT() );
#23 = UNCERTAINTY_MEASURE_WITH_UNIT(LENGTH_MEASURE(1.E-07),#20,
  'distance_accuracy_value','confusion accuracy');
#24 = PRODUCT_RELATED_PRODUCT_CATEGORY('part',$,(#7));
#25 = SHAPE_DEFINITION_REPRESENTATION(#26,#32);
#26 = PRODUCT_DEFINITION_SHAPE('','',#27);
#27 = PRODUCT_DEFINITION('design','',#28,#31);
#28 = PRODUCT_DEFINITION_FORMATION('','',#29);
#29 = PRODUCT('lane_18_cocoa_brown','lane_18_cocoa_brown','',(#30));
#30 = PRODUCT_CONTEXT('',#2,'mechanical');
#31 = PRODUCT_DEFINITION_CONTEXT('part definition',#2,'design');
#32 = ADVANCED_BREP_SHAPE_REPRESENTATION('',(#11,#33),#1435);
#33 = MANIFOLD_SOLID_BREP('',#34);
#34 = CLOSED_SHELL('',(#35,#155,#306,#471,#607,#687,#735,#810,#842,#919,
    #1024,#1051,#1203,#1210,#1217,#1293,#1347,#1396,#1428));
#35 = ADVANCED_FACE('',(#36),#50,.F.);
#36 = FACE_BOUND('',#37,.F.);
#37 = EDGE_LOOP('',(#38,#73,#101,#129));
#38 = ORIENTED_EDGE('',*,*,#39,.F.);
#39 = EDGE_CURVE('',#40,#42,#44,.T.);
#40 = VERTEX_POINT('',#41);
#41 = CARTESIAN_POINT('',(-78.93314390725,9.887431057525,5.4));
#42 = VERTEX_POINT('',#43);
#43 = CARTESIAN_POINT('',(-78.93314390725,9.887431057525,5.85));
#44 = SURFACE_CURVE('',#45,(#49,#61),.PCURVE_S1.);
#45 = LINE('',#46,#47);
#46 = CARTESIAN_POINT('',(-78.93314390725,9.887431057525,3.8));
#47 = VECTOR('',#48,1.);
#48 = DIRECTION('',(0.,0.,1.));
#49 = PCURVE('',#50,#55);
#50 = PLANE('',#51);
#51 = AXIS2_PLACEMENT_3D('',#52,#53,#54);
#52 = CARTESIAN_POINT('',(-26.33387487951,2.962605918753,3.8));
#53 = DIRECTION('',(-0.13052619222,-0.991444861374,0.));
#54 = DIRECTION('',(-0.991444861374,0.13052619222,0.));
#55 = DEFINITIONAL_REPRESENTATION('',(#56),#60);
#56 = LINE('',#57,#58);
#57 = CARTESIAN_POINT('',(53.053146046716,0.));
#58 = VECTOR('',#59,1.);
#59 = DIRECTION('',(0.,-1.));
#60 = ( GEOMETRIC_REPRESENTATION_CONTEXT(2) 
PARAMETRIC_REPRESENTATION_CONTEXT() REPRESENTATION_CONTEXT('2D SPACE',''
  ) );
#61 = PCURVE('',#62,#67);
#62 = CYLINDRICAL_SURFACE('',#63,79.550000000001);
#63 = AXIS2_PLACEMENT_3D('',#64,#65,#66);
#64 = CARTESIAN_POINT('',(1.160067115187E-12,-2.845338998914E-14,3.8));
#65 = DIRECTION('',(-0.,-0.,-1.));
#66 = DIRECTION('',(-0.992245680795,0.124292030893,0.));
#67 = DEFINITIONAL_REPRESENTATION('',(#68),#72);
#68 = LINE('',#69,#70);
#69 = CARTESIAN_POINT('',(-0.,0.));
#70 = VECTOR('',#71,1.);
#71 = DIRECTION('',(-0.,-1.));
#72 = ( GEOMETRIC_REPRESENTATION_CONTEXT(2) 
PARAMETRIC_REPRESENTATION_CONTEXT() REPRESENTATION_CONTEXT('2D SPACE',''
  ) );
#73 = ORIENTED_EDGE('',*,*,#74,.F.);
#74 = EDGE_CURVE('',#75,#40,#77,.T.);
#75 = VERTEX_POINT('',#76);
#76 = CARTESIAN_POINT('',(-26.33387487951,2.962605918753,5.4));
#77 = SURFACE_CURVE('',#78,(#82,#89),.PCURVE_S1.);
#78 = LINE('',#79,#80);
#79 = CARTESIAN_POINT('',(-6.526309611003E-02,-0.495722430687,5.4));
#80 = VECTOR('',#81,1.);
#81 = DIRECTION('',(-0.991444861374,0.13052619222,0.));
#82 = PCURVE('',#50,#83);
#83 = DEFINITIONAL_REPRESENTATION('',(#84),#88);
#84 = LINE('',#85,#86);
#85 = CARTESIAN_POINT('',(-26.49528259898,-1.6));
#86 = VECTOR('',#87,1.);
#87 = DIRECTION('',(1.,0.));
#88 = ( GEOMETRIC_REPRESENTATION_CONTEXT(2) 
PARAMETRIC_REPRESENTATION_CONTEXT() REPRESENTATION_CONTEXT('2D SPACE',''
  ) );
#89 = PCURVE('',#90,#95);
#90 = PLANE('',#91);
#91 = AXIS2_PLACEMENT_3D('',#92,#93,#94);
#92 = CARTESIAN_POINT('',(-0.143578811442,-1.090589347511,3.8));
#93 = DIRECTION('',(0.122215482213,0.928318751655,-0.351123441588));
#94 = DIRECTION('',(4.583080582973E-02,0.348119531871,0.936329177569));
#95 = DEFINITIONAL_REPRESENTATION('',(#96),#100);
#96 = LINE('',#97,#98);
#97 = CARTESIAN_POINT('',(1.708800749064,0.));
#98 = VECTOR('',#99,1.);
#99 = DIRECTION('',(0.,-1.));
#100 = ( GEOMETRIC_REPRESENTATION_CONTEXT(2) 
PARAMETRIC_REPRESENTATION_CONTEXT() REPRESENTATION_CONTEXT('2D SPACE',''
  ) );
#101 = ORIENTED_EDGE('',*,*,#102,.T.);
#102 = EDGE_CURVE('',#75,#103,#105,.T.);
#103 = VERTEX_POINT('',#104);
#104 = CARTESIAN_POINT('',(-26.33387487951,2.962605918753,5.85));
#105 = SURFACE_CURVE('',#106,(#110,#117),.PCURVE_S1.);
#106 = LINE('',#107,#108);
#107 = CARTESIAN_POINT('',(-26.33387487951,2.962605918753,3.8));
#108 = VECTOR('',#109,1.);
#109 = DIRECTION('',(0.,0.,1.));
#110 = PCURVE('',#50,#111);
#111 = DEFINITIONAL_REPRESENTATION('',(#112),#116);
#112 = LINE('',#113,#114);
#113 = CARTESIAN_POINT('',(0.,0.));
#114 = VECTOR('',#115,1.);
#115 = DIRECTION('',(0.,-1.));
#116 = ( GEOMETRIC_REPRESENTATION_CONTEXT(2) 
PARAMETRIC_REPRESENTATION_CONTEXT() REPRESENTATION_CONTEXT('2D SPACE',''
  ) );
#117 = PCURVE('',#118,#123);
#118 = CYLINDRICAL_SURFACE('',#119,26.5);
#119 = AXIS2_PLACEMENT_3D('',#120,#121,#122);
#120 = CARTESIAN_POINT('',(1.35925614649E-13,-6.653436903175E-15,3.8));
#121 = DIRECTION('',(0.,0.,-1.));
#122 = DIRECTION('',(-0.993731127529,-0.111796449764,-0.));
#123 = DEFINITIONAL_REPRESENTATION('',(#124),#128);
#124 = LINE('',#125,#126);
#125 = CARTESIAN_POINT('',(0.224061299399,0.));
#126 = VECTOR('',#127,1.);
#127 = DIRECTION('',(0.,-1.));
#128 = ( GEOMETRIC_REPRESENTATION_CONTEXT(2) 
PARAMETRIC_REPRESENTATION_CONTEXT() REPRESENTATION_CONTEXT('2D SPACE',''
  ) );
#129 = ORIENTED_EDGE('',*,*,#130,.T.);
#130 = EDGE_CURVE('',#103,#42,#131,.T.);
#131 = SURFACE_CURVE('',#132,(#136,#143),.PCURVE_S1.);
#132 = LINE('',#133,#134);
#133 = CARTESIAN_POINT('',(-26.33387487951,2.962605918753,5.85));
#134 = VECTOR('',#135,1.);
#135 = DIRECTION('',(-0.991444861374,0.13052619222,0.));
#136 = PCURVE('',#50,#137);
#137 = DEFINITIONAL_REPRESENTATION('',(#138),#142);
#138 = LINE('',#139,#140);
#139 = CARTESIAN_POINT('',(-3.552713678801E-15,-2.05));
#140 = VECTOR('',#141,1.);
#141 = DIRECTION('',(1.,0.));
#142 = ( GEOMETRIC_REPRESENTATION_CONTEXT(2) 
PARAMETRIC_REPRESENTATION_CONTEXT() REPRESENTATION_CONTEXT('2D SPACE',''
  ) );
#143 = PCURVE('',#144,#149);
#144 = CYLINDRICAL_SURFACE('',#145,0.15);
#145 = AXIS2_PLACEMENT_3D('',#146,#147,#148);
#146 = CARTESIAN_POINT('',(-26.35345380835,2.813889189547,5.85));
#147 = DIRECTION('',(-0.991444861374,0.13052619222,0.));
#148 = DIRECTION('',(0.13052619222,0.991444861374,-0.));
#149 = DEFINITIONAL_REPRESENTATION('',(#150),#154);
#150 = LINE('',#151,#152);
#151 = CARTESIAN_POINT('',(-0.,0.));
#152 = VECTOR('',#153,1.);
#153 = DIRECTION('',(-0.,1.));
#154 = ( GEOMETRIC_REPRESENTATION_CONTEXT(2) 
PARAMETRIC_REPRESENTATION_CONTEXT() REPRESENTATION_CONTEXT('2D SPACE',''
  ) );
#155 = ADVANCED_FACE('',(#156),#62,.T.);
#156 = FACE_BOUND('',#157,.F.);
#157 = EDGE_LOOP('',(#158,#159,#188,#216,#248,#281));
#158 = ORIENTED_EDGE('',*,*,#39,.T.);
#159 = ORIENTED_EDGE('',*,*,#160,.T.);
#160 = EDGE_CURVE('',#42,#161,#163,.T.);
#161 = VERTEX_POINT('',#162);
#162 = CARTESIAN_POINT('',(-78.93314390725,-9.887431057525,5.85));
#163 = SURFACE_CURVE('',#164,(#169,#176),.PCURVE_S1.);
#164 = CIRCLE('',#165,79.550000000001);
#165 = AXIS2_PLACEMENT_3D('',#166,#167,#168);
#166 = CARTESIAN_POINT('',(1.158184659289E-12,-2.845338998914E-14,5.85)
  );
#167 = DIRECTION('',(0.,0.,1.));
#168 = DIRECTION('',(-0.992245680795,0.124292030893,0.));
#169 = PCURVE('',#62,#170);
#170 = DEFINITIONAL_REPRESENTATION('',(#171),#175);
#171 = LINE('',#172,#173);
#172 = CARTESIAN_POINT('',(-0.,-2.05));
#173 = VECTOR('',#174,1.);
#174 = DIRECTION('',(-1.,0.));
#175 = ( GEOMETRIC_REPRESENTATION_CONTEXT(2) 
PARAMETRIC_REPRESENTATION_CONTEXT() REPRESENTATION_CONTEXT('2D SPACE',''
  ) );
#176 = PCURVE('',#177,#182);
#177 = TOROIDAL_SURFACE('',#178,79.400000000001,0.15);
#178 = AXIS2_PLACEMENT_3D('',#179,#180,#181);
#179 = CARTESIAN_POINT('',(1.158184659289E-12,-2.845338998914E-14,5.85)
  );
#180 = DIRECTION('',(0.,0.,1.));
#181 = DIRECTION('',(-0.992245680795,0.124292030893,0.));
#182 = DEFINITIONAL_REPRESENTATION('',(#183),#187);
#183 = LINE('',#184,#185);
#184 = CARTESIAN_POINT('',(0.,0.));
#185 = VECTOR('',#186,1.);
#186 = DIRECTION('',(1.,0.));
#187 = ( GEOMETRIC_REPRESENTATION_CONTEXT(2) 
PARAMETRIC_REPRESENTATION_CONTEXT() REPRESENTATION_CONTEXT('2D SPACE',''
  ) );
#188 = ORIENTED_EDGE('',*,*,#189,.F.);
#189 = EDGE_CURVE('',#190,#161,#192,.T.);
#190 = VERTEX_POINT('',#191);
#191 = CARTESIAN_POINT('',(-78.93314390725,-9.887431057525,5.4));
#192 = SURFACE_CURVE('',#193,(#197,#204),.PCURVE_S1.);
#193 = LINE('',#194,#195);
#194 = CARTESIAN_POINT('',(-78.93314390725,-9.887431057525,3.8));
#195 = VECTOR('',#196,1.);
#196 = DIRECTION('',(0.,0.,1.));
#197 = PCURVE('',#62,#198);
#198 = DEFINITIONAL_REPRESENTATION('',(#199),#203);
#199 = LINE('',#200,#201);
#200 = CARTESIAN_POINT('',(-0.249228594783,0.));
#201 = VECTOR('',#202,1.);
#202 = DIRECTION('',(-0.,-1.));
#203 = ( GEOMETRIC_REPRESENTATION_CONTEXT(2) 
PARAMETRIC_REPRESENTATION_CONTEXT() REPRESENTATION_CONTEXT('2D SPACE',''
  ) );
#204 = PCURVE('',#205,#210);
#205 = PLANE('',#206);
#206 = AXIS2_PLACEMENT_3D('',#207,#208,#209);
#207 = CARTESIAN_POINT('',(-78.93314390725,-9.887431057525,3.8));
#208 = DIRECTION('',(-0.13052619222,0.991444861374,0.));
#209 = DIRECTION('',(0.991444861374,0.13052619222,0.));
#210 = DEFINITIONAL_REPRESENTATION('',(#211),#215);
#211 = LINE('',#212,#213);
#212 = CARTESIAN_POINT('',(-1.432113997739E-14,-0.));
#213 = VECTOR('',#214,1.);
#214 = DIRECTION('',(0.,-1.));
#215 = ( GEOMETRIC_REPRESENTATION_CONTEXT(2) 
PARAMETRIC_REPRESENTATION_CONTEXT() REPRESENTATION_CONTEXT('2D SPACE',''
  ) );
#216 = ORIENTED_EDGE('',*,*,#217,.T.);
#217 = EDGE_CURVE('',#190,#218,#220,.T.);
#218 = VERTEX_POINT('',#219);
#219 = CARTESIAN_POINT('',(-78.95164785944,-9.73857280496,5.));
#220 = SURFACE_CURVE('',#221,(#226,#236),.PCURVE_S1.);
#221 = ELLIPSE('',#222,226.55849931334,79.550000000001);
#222 = AXIS2_PLACEMENT_3D('',#223,#224,#225);
#223 = CARTESIAN_POINT('',(1.160067115187E-12,-2.845338998914E-14,
    6.733333333334));
#224 = DIRECTION('',(0.122215482213,-0.928318751655,-0.351123441588));
#225 = DIRECTION('',(-4.583080582973E-02,0.348119531871,-0.936329177569)
  );
#226 = PCURVE('',#62,#227);
#227 = DEFINITIONAL_REPRESENTATION('',(#228),#235);
#228 = B_SPLINE_CURVE_WITH_KNOTS('',5,(#229,#230,#231,#232,#233,#234),
  .UNSPECIFIED.,.F.,.F.,(6,6),(4.718674376893,4.720560035797),
  .PIECEWISE_BEZIER_KNOTS.);
#229 = CARTESIAN_POINT('',(-0.249228594783,-1.6));
#230 = CARTESIAN_POINT('',(-0.248851463003,-1.519999358496));
#231 = CARTESIAN_POINT('',(-0.248474331222,-1.439998954038));
#232 = CARTESIAN_POINT('',(-0.248097199441,-1.359998810334));
#233 = CARTESIAN_POINT('',(-0.24772006766,-1.279998951086));
#234 = CARTESIAN_POINT('',(-0.247342935879,-1.1999994));
#235 = ( GEOMETRIC_REPRESENTATION_CONTEXT(2) 
PARAMETRIC_REPRESENTATION_CONTEXT() REPRESENTATION_CONTEXT('2D SPACE',''
  ) );
#236 = PCURVE('',#237,#242);
#237 = PLANE('',#238);
#238 = AXIS2_PLACEMENT_3D('',#239,#240,#241);
#239 = CARTESIAN_POINT('',(-6.526309611003E-02,0.495722430687,5.4));
#240 = DIRECTION('',(0.122215482213,-0.928318751655,-0.351123441588));
#241 = DIRECTION('',(-4.583080582973E-02,0.348119531871,-0.936329177569)
  );
#242 = DEFINITIONAL_REPRESENTATION('',(#243),#247);
#243 = ELLIPSE('',#244,226.55849931334,79.550000000001);
#244 = AXIS2_PLACEMENT_2D('',#245,#246);
#245 = CARTESIAN_POINT('',(-1.42400062422,1.146431358217E-12));
#246 = DIRECTION('',(1.,-8.447490487983E-18));
#247 = ( GEOMETRIC_REPRESENTATION_CONTEXT(2) 
PARAMETRIC_REPRESENTATION_CONTEXT() REPRESENTATION_CONTEXT('2D SPACE',''
  ) );
#248 = ORIENTED_EDGE('',*,*,#249,.T.);
#249 = EDGE_CURVE('',#218,#250,#252,.T.);
#250 = VERTEX_POINT('',#251);
#251 = CARTESIAN_POINT('',(-78.95164785944,9.73857280496,5.));
#252 = SURFACE_CURVE('',#253,(#258,#265),.PCURVE_S1.);
#253 = CIRCLE('',#254,79.550000000001);
#254 = AXIS2_PLACEMENT_3D('',#255,#256,#257);
#255 = CARTESIAN_POINT('',(1.160067115187E-12,-2.845338998914E-14,5.));
#256 = DIRECTION('',(-0.,0.,-1.));
#257 = DIRECTION('',(-0.992245680795,0.124292030893,0.));
#258 = PCURVE('',#62,#259);
#259 = DEFINITIONAL_REPRESENTATION('',(#260),#264);
#260 = LINE('',#261,#262);
#261 = CARTESIAN_POINT('',(-6.28318530718,-1.2));
#262 = VECTOR('',#263,1.);
#263 = DIRECTION('',(1.,-0.));
#264 = ( GEOMETRIC_REPRESENTATION_CONTEXT(2) 
PARAMETRIC_REPRESENTATION_CONTEXT() REPRESENTATION_CONTEXT('2D SPACE',''
  ) );
#265 = PCURVE('',#266,#271);
#266 = PLANE('',#267);
#267 = AXIS2_PLACEMENT_3D('',#268,#269,#270);
#268 = CARTESIAN_POINT('',(0.,0.,5.));
#269 = DIRECTION('',(0.,0.,1.));
#270 = DIRECTION('',(1.,0.,-0.));
#271 = DEFINITIONAL_REPRESENTATION('',(#272),#280);
#272 = ( BOUNDED_CURVE() B_SPLINE_CURVE(2,(#273,#274,#275,#276,#277,#278
,#279),.UNSPECIFIED.,.T.,.F.) B_SPLINE_CURVE_WITH_KNOTS((1,2,2,2,2,1),(
    -2.094395102393,0.,2.094395102393,4.188790204786,6.28318530718,
8.377580409573),.UNSPECIFIED.) CURVE() GEOMETRIC_REPRESENTATION_ITEM() 
RATIONAL_B_SPLINE_CURVE((1.,0.5,1.,0.5,1.,0.5,1.)) REPRESENTATION_ITEM(
  '') );
#273 = CARTESIAN_POINT('',(-78.93314390725,9.887431057525));
#274 = CARTESIAN_POINT('',(-61.80761095928,146.60364670603));
#275 = CARTESIAN_POINT('',(48.029338427611,63.41439229549));
#276 = CARTESIAN_POINT('',(157.8662878145,-19.77486211505));
#277 = CARTESIAN_POINT('',(30.903805479643,-73.30182335301));
#278 = CARTESIAN_POINT('',(-96.05867685521,-126.8287845909));
#279 = CARTESIAN_POINT('',(-78.93314390725,9.887431057525));
#280 = ( GEOMETRIC_REPRESENTATION_CONTEXT(2) 
PARAMETRIC_REPRESENTATION_CONTEXT() REPRESENTATION_CONTEXT('2D SPACE',''
  ) );
#281 = ORIENTED_EDGE('',*,*,#282,.T.);
#282 = EDGE_CURVE('',#250,#40,#283,.T.);
#283 = SURFACE_CURVE('',#284,(#289,#299),.PCURVE_S1.);
#284 = ELLIPSE('',#285,226.55849931334,79.550000000001);
#285 = AXIS2_PLACEMENT_3D('',#286,#287,#288);
#286 = CARTESIAN_POINT('',(1.160067115187E-12,-2.845338998914E-14,
    6.733333333334));
#287 = DIRECTION('',(0.122215482213,0.928318751655,-0.351123441588));
#288 = DIRECTION('',(-4.583080582973E-02,-0.348119531871,-0.936329177569
    ));
#289 = PCURVE('',#62,#290);
#290 = DEFINITIONAL_REPRESENTATION('',(#291),#298);
#291 = B_SPLINE_CURVE_WITH_KNOTS('',5,(#292,#293,#294,#295,#296,#297),
  .UNSPECIFIED.,.F.,.F.,(6,6),(1.562625271382,1.564510930287),
  .PIECEWISE_BEZIER_KNOTS.);
#292 = CARTESIAN_POINT('',(-1.885658904573E-03,-1.1999994));
#293 = CARTESIAN_POINT('',(-1.508527123658E-03,-1.279998951086));
#294 = CARTESIAN_POINT('',(-1.131395342744E-03,-1.359998810334));
#295 = CARTESIAN_POINT('',(-7.54263561829E-04,-1.439998954039));
#296 = CARTESIAN_POINT('',(-3.771317809146E-04,-1.519999358496));
#297 = CARTESIAN_POINT('',(0.,-1.6));
#298 = ( GEOMETRIC_REPRESENTATION_CONTEXT(2) 
PARAMETRIC_REPRESENTATION_CONTEXT() REPRESENTATION_CONTEXT('2D SPACE',''
  ) );
#299 = PCURVE('',#90,#300);
#300 = DEFINITIONAL_REPRESENTATION('',(#301),#305);
#301 = ELLIPSE('',#302,226.55849931334,79.550000000001);
#302 = AXIS2_PLACEMENT_2D('',#303,#304);
#303 = CARTESIAN_POINT('',(3.132801373283,1.153865533451E-12));
#304 = DIRECTION('',(-1.,-7.735132096859E-18));
#305 = ( GEOMETRIC_REPRESENTATION_CONTEXT(2) 
PARAMETRIC_REPRESENTATION_CONTEXT() REPRESENTATION_CONTEXT('2D SPACE',''
  ) );
#306 = ADVANCED_FACE('',(#307),#144,.T.);
#307 = FACE_BOUND('',#308,.F.);
#308 = EDGE_LOOP('',(#309,#379,#407,#470));
#309 = ORIENTED_EDGE('',*,*,#310,.T.);
#310 = EDGE_CURVE('',#103,#311,#313,.T.);
#311 = VERTEX_POINT('',#312);
#312 = CARTESIAN_POINT('',(-26.49898739726,2.833049050009,6.));
#313 = SURFACE_CURVE('',#314,(#332,#353),.PCURVE_S1.);
#314 = B_SPLINE_CURVE_WITH_KNOTS('',6,(#315,#316,#317,#318,#319,#320,
    #321,#322,#323,#324,#325,#326,#327,#328,#329,#330,#331),
  .UNSPECIFIED.,.F.,.F.,(7,5,5,7),(0.,0.497953537904,0.93932008764,1.),
  .UNSPECIFIED.);
#315 = CARTESIAN_POINT('',(-26.33387487951,2.962605918753,5.85));
#316 = CARTESIAN_POINT('',(-26.33387487951,2.962605918753,5.869658279709
    ));
#317 = CARTESIAN_POINT('',(-26.33728618562,2.959936818786,5.889317919335
    ));
#318 = CARTESIAN_POINT('',(-26.34411013845,2.95459760096,5.908354911298)
  );
#319 = CARTESIAN_POINT('',(-26.35414875183,2.946740710779,5.926149950197
    ));
#320 = CARTESIAN_POINT('',(-26.36702492266,2.936656727872,5.942170238503
    ));
#321 = CARTESIAN_POINT('',(-26.39574753615,2.914145824036,5.968267608039
    ));
#322 = CARTESIAN_POINT('',(-26.41109086453,2.902114835285,5.978814037528
    ));
#323 = CARTESIAN_POINT('',(-26.42794345843,2.888891980759,5.987358211927
    ));
#324 = CARTESIAN_POINT('',(-26.44590217894,2.874790616208,5.993692611216
    ));
#325 = CARTESIAN_POINT('',(-26.4645302426,2.860151759085,5.997693500951)
  );
#326 = CARTESIAN_POINT('',(-26.48598150888,2.843281040451,5.999550612734
    ));
#327 = CARTESIAN_POINT('',(-26.48857856982,2.841238323412,5.999730305037
    ));
#328 = CARTESIAN_POINT('',(-26.49117883219,2.839192863448,5.999865136596
    ));
#329 = CARTESIAN_POINT('',(-26.49378115074,2.837145560593,5.999955045297
    ));
#330 = CARTESIAN_POINT('',(-26.49638438427,2.835097322451,5.999999999891
    ));
#331 = CARTESIAN_POINT('',(-26.49898739574,2.833049064196,6.));
#332 = PCURVE('',#144,#333);
#333 = DEFINITIONAL_REPRESENTATION('',(#334),#352);
#334 = B_SPLINE_CURVE_WITH_KNOTS('',6,(#335,#336,#337,#338,#339,#340,
    #341,#342,#343,#344,#345,#346,#347,#348,#349,#350,#351),
  .UNSPECIFIED.,.F.,.F.,(7,5,5,7),(0.,0.497953537904,0.93932008764,1.),
  .UNSPECIFIED.);
#335 = CARTESIAN_POINT('',(0.,3.552713678801E-15));
#336 = CARTESIAN_POINT('',(-0.131055198059,3.552713678801E-15));
#337 = CARTESIAN_POINT('',(-0.262119609815,3.033734449177E-03));
#338 = CARTESIAN_POINT('',(-0.393083790881,9.102399646889E-03));
#339 = CARTESIAN_POINT('',(-0.52387771679,1.802960134007E-02));
#340 = CARTESIAN_POINT('',(-0.654462610445,2.947939085273E-02));
#341 = CARTESIAN_POINT('',(-0.900369607103,5.50180158456E-02));
#342 = CARTESIAN_POINT('',(-1.015745385669,6.865972077107E-02));
#343 = CARTESIAN_POINT('',(-1.130955480937,8.364220954105E-02));
#344 = CARTESIAN_POINT('',(-1.246029393228,9.960669328473E-02));
#345 = CARTESIAN_POINT('',(-1.361015178222,0.116164637006));
#346 = CARTESIAN_POINT('',(-1.491778203004,0.135230314059));
#347 = CARTESIAN_POINT('',(-1.507582324119,0.137538528709));
#348 = CARTESIAN_POINT('',(-1.523386059412,0.139849559379));
#349 = CARTESIAN_POINT('',(-1.53918955545,0.142162388078));
#350 = CARTESIAN_POINT('',(-1.554992921935,0.144476001868));
#351 = CARTESIAN_POINT('',(-1.570796231705,0.146789392859));
#352 = ( GEOMETRIC_REPRESENTATION_CONTEXT(2) 
PARAMETRIC_REPRESENTATION_CONTEXT() REPRESENTATION_CONTEXT('2D SPACE',''
  ) );
#353 = PCURVE('',#354,#359);
#354 = TOROIDAL_SURFACE('',#355,26.65,0.15);
#355 = AXIS2_PLACEMENT_3D('',#356,#357,#358);
#356 = CARTESIAN_POINT('',(1.350031197944E-13,-6.653436903175E-15,5.85)
  );
#357 = DIRECTION('',(0.,0.,1.));
#358 = DIRECTION('',(-0.993731127529,-0.111796449764,0.));
#359 = DEFINITIONAL_REPRESENTATION('',(#360),#378);
#360 = B_SPLINE_CURVE_WITH_KNOTS('',6,(#361,#362,#363,#364,#365,#366,
    #367,#368,#369,#370,#371,#372,#373,#374,#375,#376,#377),
  .UNSPECIFIED.,.F.,.F.,(7,5,5,7),(0.,0.497953537904,0.93932008764,1.),
  .UNSPECIFIED.);
#361 = CARTESIAN_POINT('',(-0.224061299399,3.14159265359));
#362 = CARTESIAN_POINT('',(-0.224061299399,3.01053745553));
#363 = CARTESIAN_POINT('',(-0.223946819052,2.879473043774));
#364 = CARTESIAN_POINT('',(-0.22371781188,2.748508862708));
#365 = CARTESIAN_POINT('',(-0.223381038863,2.6177149368));
#366 = CARTESIAN_POINT('',(-0.22294936706,2.487130043144));
#367 = CARTESIAN_POINT('',(-0.221987238249,2.241223046486));
#368 = CARTESIAN_POINT('',(-0.221473557396,2.125847267921));
#369 = CARTESIAN_POINT('',(-0.22090974576,2.010637172652));
#370 = CARTESIAN_POINT('',(-0.220309429721,1.895563260361));
#371 = CARTESIAN_POINT('',(-0.219687301392,1.780577475367));
#372 = CARTESIAN_POINT('',(-0.218971509917,1.649814450586));
#373 = CARTESIAN_POINT('',(-0.21888486093,1.634010298754));
#374 = CARTESIAN_POINT('',(-0.218798115224,1.618206576038));
#375 = CARTESIAN_POINT('',(-0.218711311051,1.602403135576));
#376 = CARTESIAN_POINT('',(-0.21862448687,1.586599793073));
#377 = CARTESIAN_POINT('',(-0.218537681357,1.570796326795));
#378 = ( GEOMETRIC_REPRESENTATION_CONTEXT(2) 
PARAMETRIC_REPRESENTATION_CONTEXT() REPRESENTATION_CONTEXT('2D SPACE',''
  ) );
#379 = ORIENTED_EDGE('',*,*,#380,.T.);
#380 = EDGE_CURVE('',#311,#381,#383,.T.);
#381 = VERTEX_POINT('',#382);
#382 = CARTESIAN_POINT('',(-78.8029261561,9.71899322127,6.));
#383 = SURFACE_CURVE('',#384,(#388,#395),.PCURVE_S1.);
#384 = LINE('',#385,#386);
#385 = CARTESIAN_POINT('',(-26.35345380835,2.813889189547,6.));
#386 = VECTOR('',#387,1.);
#387 = DIRECTION('',(-0.991444861374,0.13052619222,0.));
#388 = PCURVE('',#144,#389);
#389 = DEFINITIONAL_REPRESENTATION('',(#390),#394);
#390 = LINE('',#391,#392);
#391 = CARTESIAN_POINT('',(-1.570796326795,0.));
#392 = VECTOR('',#393,1.);
#393 = DIRECTION('',(-0.,1.));
#394 = ( GEOMETRIC_REPRESENTATION_CONTEXT(2) 
PARAMETRIC_REPRESENTATION_CONTEXT() REPRESENTATION_CONTEXT('2D SPACE',''
  ) );
#395 = PCURVE('',#396,#401);
#396 = PLANE('',#397);
#397 = AXIS2_PLACEMENT_3D('',#398,#399,#400);
#398 = CARTESIAN_POINT('',(-55.46203382197,9.884517441776E-15,6.));
#399 = DIRECTION('',(0.,0.,1.));
#400 = DIRECTION('',(1.,0.,-0.));
#401 = DEFINITIONAL_REPRESENTATION('',(#402),#406);
#402 = LINE('',#403,#404);
#403 = CARTESIAN_POINT('',(29.108580013622,2.813889189547));
#404 = VECTOR('',#405,1.);
#405 = DIRECTION('',(-0.991444861374,0.13052619222));
#406 = ( GEOMETRIC_REPRESENTATION_CONTEXT(2) 
PARAMETRIC_REPRESENTATION_CONTEXT() REPRESENTATION_CONTEXT('2D SPACE',''
  ) );
#407 = ORIENTED_EDGE('',*,*,#408,.F.);
#408 = EDGE_CURVE('',#42,#381,#409,.T.);
#409 = SURFACE_CURVE('',#410,(#428,#449),.PCURVE_S1.);
#410 = B_SPLINE_CURVE_WITH_KNOTS('',6,(#411,#412,#413,#414,#415,#416,
    #417,#418,#419,#420,#421,#422,#423,#424,#425,#426,#427),
  .UNSPECIFIED.,.F.,.F.,(7,5,5,7),(0.,0.497848034976,0.939297745466,1.),
  .UNSPECIFIED.);
#411 = CARTESIAN_POINT('',(-78.93314390725,9.887431057525,5.85));
#412 = CARTESIAN_POINT('',(-78.93314390725,9.887431057525,5.869660303236
    ));
#413 = CARTESIAN_POINT('',(-78.9304624731,9.883959193028,5.889322018148)
  );
#414 = CARTESIAN_POINT('',(-78.92509855124,9.87701408657,5.90836016567)
  );
#415 = CARTESIAN_POINT('',(-78.91720545993,9.866795348508,5.926154631324
    ));
#416 = CARTESIAN_POINT('',(-78.90707508233,9.853682902791,5.942172870975
    ));
#417 = CARTESIAN_POINT('',(-78.88445584128,9.824412771577,5.96827018461)
  );
#418 = CARTESIAN_POINT('',(-78.8723635905,9.808767593009,5.978817384893)
  );
#419 = CARTESIAN_POINT('',(-78.85907264947,9.791575302381,5.987360828716
    ));
#420 = CARTESIAN_POINT('',(-78.8448975808,9.773244137103,5.993693893212)
  );
#421 = CARTESIAN_POINT('',(-78.8301805696,9.754217505124,5.997693775284)
  );
#422 = CARTESIAN_POINT('',(-78.81321684034,9.732292233692,5.999550615535
    ));
#423 = CARTESIAN_POINT('',(-78.81116249265,9.729637128111,5.999730308226
    ));
#424 = CARTESIAN_POINT('',(-78.80910534494,9.726978505267,5.999865138935
    ));
#425 = CARTESIAN_POINT('',(-78.80704630099,9.724317533615,5.999955046395
    ));
#426 = CARTESIAN_POINT('',(-78.80498626801,9.721655381336,6.00000000004)
  );
#427 = CARTESIAN_POINT('',(-78.80292615671,9.71899321634,6.));
#428 = PCURVE('',#144,#429);
#429 = DEFINITIONAL_REPRESENTATION('',(#430),#448);
#430 = B_SPLINE_CURVE_WITH_KNOTS('',6,(#431,#432,#433,#434,#435,#436,
    #437,#438,#439,#440,#441,#442,#443,#444,#445,#446,#447),
  .UNSPECIFIED.,.F.,.F.,(7,5,5,7),(0.,0.497848034976,0.939297745466,1.),
  .UNSPECIFIED.);
#431 = CARTESIAN_POINT('',(0.,53.053146046716));
#432 = CARTESIAN_POINT('',(-0.131068688238,53.053146046716));
#433 = CARTESIAN_POINT('',(-0.2621469374,53.050034383356));
#434 = CARTESIAN_POINT('',(-0.393120060594,53.043809832295));
#435 = CARTESIAN_POINT('',(-0.523914074802,53.0346504545));
#436 = CARTESIAN_POINT('',(-0.65448741459,53.022895226082));
#437 = CARTESIAN_POINT('',(-0.900393885987,52.996648976999));
#438 = CARTESIAN_POINT('',(-1.015783623265,52.982618071519));
#439 = CARTESIAN_POINT('',(-1.130996763273,52.967196792095));
#440 = CARTESIAN_POINT('',(-1.24606363037,52.950750295899));
#441 = CARTESIAN_POINT('',(-1.361034481231,52.933675716953));
#442 = CARTESIAN_POINT('',(-1.491778402097,52.913995292552));
#443 = CARTESIAN_POINT('',(-1.507582648453,52.91161195927));
#444 = CARTESIAN_POINT('',(-1.523386404529,52.909225390832));
#445 = CARTESIAN_POINT('',(-1.539189826179,52.906836635783));
#446 = CARTESIAN_POINT('',(-1.554993083316,52.904446746072));
#447 = CARTESIAN_POINT('',(-1.570796359908,52.902056777053));
#448 = ( GEOMETRIC_REPRESENTATION_CONTEXT(2) 
PARAMETRIC_REPRESENTATION_CONTEXT() REPRESENTATION_CONTEXT('2D SPACE',''
  ) );
#449 = PCURVE('',#177,#450);
#450 = DEFINITIONAL_REPRESENTATION('',(#451),#469);
#451 = B_SPLINE_CURVE_WITH_KNOTS('',6,(#452,#453,#454,#455,#456,#457,
    #458,#459,#460,#461,#462,#463,#464,#465,#466,#467,#468),
  .UNSPECIFIED.,.F.,.F.,(7,5,5,7),(0.,0.497848034976,0.939297745466,1.),
  .UNSPECIFIED.);
#452 = CARTESIAN_POINT('',(0.,0.));
#453 = CARTESIAN_POINT('',(0.,0.131068688238));
#454 = CARTESIAN_POINT('',(3.911583984539E-05,0.262146937401));
#455 = CARTESIAN_POINT('',(1.17362766427E-04,0.393120060594));
#456 = CARTESIAN_POINT('',(2.325143082311E-04,0.523914074802));
#457 = CARTESIAN_POINT('',(3.803309593202E-04,0.65448741459));
#458 = CARTESIAN_POINT('',(7.104470154822E-04,0.900393885987));
#459 = CARTESIAN_POINT('',(8.869514014185E-04,1.015783623266));
#460 = CARTESIAN_POINT('',(1.080987186712E-03,1.130996763274));
#461 = CARTESIAN_POINT('',(1.287974381865E-03,1.24606363037));
#462 = CARTESIAN_POINT('',(1.502924587121E-03,1.361034481231));
#463 = CARTESIAN_POINT('',(1.750744547235E-03,1.491778402098));
#464 = CARTESIAN_POINT('',(1.780757059507E-03,1.507582637757));
#465 = CARTESIAN_POINT('',(1.810811356911E-03,1.523386398212));
#466 = CARTESIAN_POINT('',(1.840894240273E-03,1.539189839216));
#467 = CARTESIAN_POINT('',(1.87099251288E-03,1.554993104705));
#468 = CARTESIAN_POINT('',(1.901092980481E-03,1.570796326795));
#469 = ( GEOMETRIC_REPRESENTATION_CONTEXT(2) 
PARAMETRIC_REPRESENTATION_CONTEXT() REPRESENTATION_CONTEXT('2D SPACE',''
  ) );
#470 = ORIENTED_EDGE('',*,*,#130,.F.);
#471 = ADVANCED_FACE('',(#472),#118,.F.);
#472 = FACE_BOUND('',#473,.F.);
#473 = EDGE_LOOP('',(#474,#503,#526,#548,#549,#576));
#474 = ORIENTED_EDGE('',*,*,#475,.F.);
#475 = EDGE_CURVE('',#476,#478,#480,.T.);
#476 = VERTEX_POINT('',#477);
#477 = CARTESIAN_POINT('',(-26.33387487951,-2.962605918753,5.4));
#478 = VERTEX_POINT('',#479);
#479 = CARTESIAN_POINT('',(-26.39422300603,-2.365373523984,3.8));
#480 = SURFACE_CURVE('',#481,(#486,#496),.PCURVE_S1.);
#481 = ELLIPSE('',#482,75.472033083639,26.5);
#482 = AXIS2_PLACEMENT_3D('',#483,#484,#485);
#483 = CARTESIAN_POINT('',(1.35925614649E-13,-6.653436903175E-15,
    6.733333333333));
#484 = DIRECTION('',(0.122215482213,-0.928318751655,-0.351123441588));
#485 = DIRECTION('',(-4.583080582973E-02,0.348119531871,-0.936329177569)
  );
#486 = PCURVE('',#118,#487);
#487 = DEFINITIONAL_REPRESENTATION('',(#488),#495);
#488 = B_SPLINE_CURVE_WITH_KNOTS('',5,(#489,#490,#491,#492,#493,#494),
  .UNSPECIFIED.,.F.,.F.,(6,6),(4.731258024585,4.753910352452),
  .PIECEWISE_BEZIER_KNOTS.);
#489 = CARTESIAN_POINT('',(3.68195919372E-16,-1.6));
#490 = CARTESIAN_POINT('',(4.530465573409E-03,-1.27990409154));
#491 = CARTESIAN_POINT('',(9.06093114682E-03,-0.959842391611));
#492 = CARTESIAN_POINT('',(1.359139672023E-02,-0.639828587725));
#493 = CARTESIAN_POINT('',(1.812186229364E-02,-0.319876364471));
#494 = CARTESIAN_POINT('',(2.265232786704E-02,6.000000460915E-07));
#495 = ( GEOMETRIC_REPRESENTATION_CONTEXT(2) 
PARAMETRIC_REPRESENTATION_CONTEXT() REPRESENTATION_CONTEXT('2D SPACE',''
  ) );
#496 = PCURVE('',#237,#497);
#497 = DEFINITIONAL_REPRESENTATION('',(#498),#502);
#498 = ELLIPSE('',#499,75.472033083639,26.5);
#499 = AXIS2_PLACEMENT_2D('',#500,#501);
#500 = CARTESIAN_POINT('',(-1.42400062422,1.338850908349E-13));
#501 = DIRECTION('',(1.,-8.447490487983E-18));
#502 = ( GEOMETRIC_REPRESENTATION_CONTEXT(2) 
PARAMETRIC_REPRESENTATION_CONTEXT() REPRESENTATION_CONTEXT('2D SPACE',''
  ) );
#503 = ORIENTED_EDGE('',*,*,#504,.T.);
#504 = EDGE_CURVE('',#476,#505,#507,.T.);
#505 = VERTEX_POINT('',#506);
#506 = CARTESIAN_POINT('',(-26.33387487951,-2.962605918753,5.85));
#507 = SURFACE_CURVE('',#508,(#512,#519),.PCURVE_S1.);
#508 = LINE('',#509,#510);
#509 = CARTESIAN_POINT('',(-26.33387487951,-2.962605918753,3.8));
#510 = VECTOR('',#511,1.);
#511 = DIRECTION('',(0.,0.,1.));
#512 = PCURVE('',#118,#513);
#513 = DEFINITIONAL_REPRESENTATION('',(#514),#518);
#514 = LINE('',#515,#516);
#515 = CARTESIAN_POINT('',(0.,0.));
#516 = VECTOR('',#517,1.);
#517 = DIRECTION('',(0.,-1.));
#518 = ( GEOMETRIC_REPRESENTATION_CONTEXT(2) 
PARAMETRIC_REPRESENTATION_CONTEXT() REPRESENTATION_CONTEXT('2D SPACE',''
  ) );
#519 = PCURVE('',#205,#520);
#520 = DEFINITIONAL_REPRESENTATION('',(#521),#525);
#521 = LINE('',#522,#523);
#522 = CARTESIAN_POINT('',(53.053146046716,0.));
#523 = VECTOR('',#524,1.);
#524 = DIRECTION('',(0.,-1.));
#525 = ( GEOMETRIC_REPRESENTATION_CONTEXT(2) 
PARAMETRIC_REPRESENTATION_CONTEXT() REPRESENTATION_CONTEXT('2D SPACE',''
  ) );
#526 = ORIENTED_EDGE('',*,*,#527,.T.);
#527 = EDGE_CURVE('',#505,#103,#528,.T.);
#528 = SURFACE_CURVE('',#529,(#534,#541),.PCURVE_S1.);
#529 = CIRCLE('',#530,26.5);
#530 = AXIS2_PLACEMENT_3D('',#531,#532,#533);
#531 = CARTESIAN_POINT('',(1.350031197944E-13,-6.653436903175E-15,5.85)
  );
#532 = DIRECTION('',(-0.,0.,-1.));
#533 = DIRECTION('',(-0.993731127529,-0.111796449764,0.));
#534 = PCURVE('',#118,#535);
#535 = DEFINITIONAL_REPRESENTATION('',(#536),#540);
#536 = LINE('',#537,#538);
#537 = CARTESIAN_POINT('',(1.288214346688E-18,-2.05));
#538 = VECTOR('',#539,1.);
#539 = DIRECTION('',(1.,0.));
#540 = ( GEOMETRIC_REPRESENTATION_CONTEXT(2) 
PARAMETRIC_REPRESENTATION_CONTEXT() REPRESENTATION_CONTEXT('2D SPACE',''
  ) );
#541 = PCURVE('',#354,#542);
#542 = DEFINITIONAL_REPRESENTATION('',(#543),#547);
#543 = LINE('',#544,#545);
#544 = CARTESIAN_POINT('',(-0.,3.14159265359));
#545 = VECTOR('',#546,1.);
#546 = DIRECTION('',(-1.,0.));
#547 = ( GEOMETRIC_REPRESENTATION_CONTEXT(2) 
PARAMETRIC_REPRESENTATION_CONTEXT() REPRESENTATION_CONTEXT('2D SPACE',''
  ) );
#548 = ORIENTED_EDGE('',*,*,#102,.F.);
#549 = ORIENTED_EDGE('',*,*,#550,.F.);
#550 = EDGE_CURVE('',#551,#75,#553,.T.);
#551 = VERTEX_POINT('',#552);
#552 = CARTESIAN_POINT('',(-26.39422300603,2.365373523984,3.8));
#553 = SURFACE_CURVE('',#554,(#559,#569),.PCURVE_S1.);
#554 = ELLIPSE('',#555,75.472033083639,26.5);
#555 = AXIS2_PLACEMENT_3D('',#556,#557,#558);
#556 = CARTESIAN_POINT('',(1.35925614649E-13,-6.653436903175E-15,
    6.733333333333));
#557 = DIRECTION('',(0.122215482213,0.928318751655,-0.351123441588));
#558 = DIRECTION('',(-4.583080582973E-02,-0.348119531871,-0.936329177569
    ));
#559 = PCURVE('',#118,#560);
#560 = DEFINITIONAL_REPRESENTATION('',(#561),#568);
#561 = B_SPLINE_CURVE_WITH_KNOTS('',5,(#562,#563,#564,#565,#566,#567),
  .UNSPECIFIED.,.F.,.F.,(6,6),(1.529274954728,1.551927282595),
  .PIECEWISE_BEZIER_KNOTS.);
#562 = CARTESIAN_POINT('',(0.201408971532,6.000000025708E-07));
#563 = CARTESIAN_POINT('',(0.205939437105,-0.319876364471));
#564 = CARTESIAN_POINT('',(0.210469902679,-0.639828587725));
#565 = CARTESIAN_POINT('',(0.215000368252,-0.959842391611));
#566 = CARTESIAN_POINT('',(0.219530833826,-1.27990409154));
#567 = CARTESIAN_POINT('',(0.224061299399,-1.6));
#568 = ( GEOMETRIC_REPRESENTATION_CONTEXT(2) 
PARAMETRIC_REPRESENTATION_CONTEXT() REPRESENTATION_CONTEXT('2D SPACE',''
  ) );
#569 = PCURVE('',#90,#570);
#570 = DEFINITIONAL_REPRESENTATION('',(#571),#575);
#571 = ELLIPSE('',#572,75.472033083639,26.5);
#572 = AXIS2_PLACEMENT_2D('',#573,#574);
#573 = CARTESIAN_POINT('',(3.132801373283,1.356432508554E-13));
#574 = DIRECTION('',(-1.,-7.735132096859E-18));
#575 = ( GEOMETRIC_REPRESENTATION_CONTEXT(2) 
PARAMETRIC_REPRESENTATION_CONTEXT() REPRESENTATION_CONTEXT('2D SPACE',''
  ) );
#576 = ORIENTED_EDGE('',*,*,#577,.F.);
#577 = EDGE_CURVE('',#478,#551,#578,.T.);
#578 = SURFACE_CURVE('',#579,(#584,#591),.PCURVE_S1.);
#579 = CIRCLE('',#580,26.5);
#580 = AXIS2_PLACEMENT_3D('',#581,#582,#583);
#581 = CARTESIAN_POINT('',(1.35925614649E-13,-6.653436903175E-15,3.8));
#582 = DIRECTION('',(0.,0.,-1.));
#583 = DIRECTION('',(-0.993731127529,-0.111796449764,-0.));
#584 = PCURVE('',#118,#585);
#585 = DEFINITIONAL_REPRESENTATION('',(#586),#590);
#586 = LINE('',#587,#588);
#587 = CARTESIAN_POINT('',(0.,0.));
#588 = VECTOR('',#589,1.);
#589 = DIRECTION('',(1.,0.));
#590 = ( GEOMETRIC_REPRESENTATION_CONTEXT(2) 
PARAMETRIC_REPRESENTATION_CONTEXT() REPRESENTATION_CONTEXT('2D SPACE',''
  ) );
#591 = PCURVE('',#592,#597);
#592 = PLANE('',#593);
#593 = AXIS2_PLACEMENT_3D('',#594,#595,#596);
#594 = CARTESIAN_POINT('',(-55.46203382197,9.884517441776E-15,3.8));
#595 = DIRECTION('',(0.,0.,1.));
#596 = DIRECTION('',(1.,0.,-0.));
#597 = DEFINITIONAL_REPRESENTATION('',(#598),#606);
#598 = ( BOUNDED_CURVE() B_SPLINE_CURVE(2,(#599,#600,#601,#602,#603,#604
,#605),.UNSPECIFIED.,.T.,.F.) B_SPLINE_CURVE_WITH_KNOTS((1,2,2,2,2,1),(
    -2.094395102393,0.,2.094395102393,4.188790204786,6.28318530718,
8.377580409573),.UNSPECIFIED.) CURVE() GEOMETRIC_REPRESENTATION_ITEM() 
RATIONAL_B_SPLINE_CURVE((1.,0.5,1.,0.5,1.,0.5,1.)) REPRESENTATION_ITEM(
  '') );
#599 = CARTESIAN_POINT('',(29.128158942455,-2.962605918753));
#600 = CARTESIAN_POINT('',(23.996774968372,42.649003332737));
#601 = CARTESIAN_POINT('',(66.063279274692,24.287107585121));
#602 = CARTESIAN_POINT('',(108.12978358101,5.925211837505));
#603 = CARTESIAN_POINT('',(71.194663248776,-21.32450166636));
#604 = CARTESIAN_POINT('',(34.259542916539,-48.57421517024));
#605 = CARTESIAN_POINT('',(29.128158942455,-2.962605918753));
#606 = ( GEOMETRIC_REPRESENTATION_CONTEXT(2) 
PARAMETRIC_REPRESENTATION_CONTEXT() REPRESENTATION_CONTEXT('2D SPACE',''
  ) );
#607 = ADVANCED_FACE('',(#608),#90,.T.);
#608 = FACE_BOUND('',#609,.T.);
#609 = EDGE_LOOP('',(#610,#611,#634,#666,#685,#686));
#610 = ORIENTED_EDGE('',*,*,#550,.F.);
#611 = ORIENTED_EDGE('',*,*,#612,.T.);
#612 = EDGE_CURVE('',#551,#613,#615,.T.);
#613 = VERTEX_POINT('',#614);
#614 = CARTESIAN_POINT('',(-75.93169209081,8.887105053155,3.8));
#615 = SURFACE_CURVE('',#616,(#620,#627),.PCURVE_S1.);
#616 = LINE('',#617,#618);
#617 = CARTESIAN_POINT('',(-0.143578811442,-1.090589347511,3.8));
#618 = VECTOR('',#619,1.);
#619 = DIRECTION('',(-0.991444861374,0.13052619222,0.));
#620 = PCURVE('',#90,#621);
#621 = DEFINITIONAL_REPRESENTATION('',(#622),#626);
#622 = LINE('',#623,#624);
#623 = CARTESIAN_POINT('',(0.,0.));
#624 = VECTOR('',#625,1.);
#625 = DIRECTION('',(0.,-1.));
#626 = ( GEOMETRIC_REPRESENTATION_CONTEXT(2) 
PARAMETRIC_REPRESENTATION_CONTEXT() REPRESENTATION_CONTEXT('2D SPACE',''
  ) );
#627 = PCURVE('',#592,#628);
#628 = DEFINITIONAL_REPRESENTATION('',(#629),#633);
#629 = LINE('',#630,#631);
#630 = CARTESIAN_POINT('',(55.318455010533,-1.090589347511));
#631 = VECTOR('',#632,1.);
#632 = DIRECTION('',(-0.991444861374,0.13052619222));
#633 = ( GEOMETRIC_REPRESENTATION_CONTEXT(2) 
PARAMETRIC_REPRESENTATION_CONTEXT() REPRESENTATION_CONTEXT('2D SPACE',''
  ) );
#634 = ORIENTED_EDGE('',*,*,#635,.T.);
#635 = EDGE_CURVE('',#613,#636,#638,.T.);
#636 = VERTEX_POINT('',#637);
#637 = CARTESIAN_POINT('',(-75.87806202344,9.333927553101,5.));
#638 = SURFACE_CURVE('',#639,(#644,#651),.PCURVE_S1.);
#639 = ELLIPSE('',#640,217.72969544317,76.45);
#640 = AXIS2_PLACEMENT_3D('',#641,#642,#643);
#641 = CARTESIAN_POINT('',(0.,0.,6.733333333333));
#642 = DIRECTION('',(0.122215482213,0.928318751655,-0.351123441588));
#643 = DIRECTION('',(4.583080582973E-02,0.348119531871,0.936329177569));
#644 = PCURVE('',#90,#645);
#645 = DEFINITIONAL_REPRESENTATION('',(#646),#650);
#646 = ELLIPSE('',#647,217.72969544317,76.45);
#647 = AXIS2_PLACEMENT_2D('',#648,#649);
#648 = CARTESIAN_POINT('',(3.132801373283,-1.175006962806E-18));
#649 = DIRECTION('',(1.,7.735132096859E-18));
#650 = ( GEOMETRIC_REPRESENTATION_CONTEXT(2) 
PARAMETRIC_REPRESENTATION_CONTEXT() REPRESENTATION_CONTEXT('2D SPACE',''
  ) );
#651 = PCURVE('',#652,#657);
#652 = CYLINDRICAL_SURFACE('',#653,76.45);
#653 = AXIS2_PLACEMENT_3D('',#654,#655,#656);
#654 = CARTESIAN_POINT('',(0.,0.,2.8));
#655 = DIRECTION('',(0.,0.,1.));
#656 = DIRECTION('',(1.,0.,-0.));
#657 = DEFINITIONAL_REPRESENTATION('',(#658),#665);
#658 = B_SPLINE_CURVE_WITH_KNOTS('',5,(#659,#660,#661,#662,#663,#664),
  .UNSPECIFIED.,.F.,.F.,(6,6),(4.697999991715,4.70388659181),
  .PIECEWISE_BEZIER_KNOTS.);
#659 = CARTESIAN_POINT('',(3.02508194836,0.9999994));
#660 = CARTESIAN_POINT('',(3.023904628341,1.239990861453));
#661 = CARTESIAN_POINT('',(3.022727308322,1.47998740521));
#662 = CARTESIAN_POINT('',(3.021549988303,1.719988338254));
#663 = CARTESIAN_POINT('',(3.020372668284,1.959992967538));
#664 = CARTESIAN_POINT('',(3.019195348265,2.2000006));
#665 = ( GEOMETRIC_REPRESENTATION_CONTEXT(2) 
PARAMETRIC_REPRESENTATION_CONTEXT() REPRESENTATION_CONTEXT('2D SPACE',''
  ) );
#666 = ORIENTED_EDGE('',*,*,#667,.T.);
#667 = EDGE_CURVE('',#636,#250,#668,.T.);
#668 = SURFACE_CURVE('',#669,(#673,#679),.PCURVE_S1.);
#669 = LINE('',#670,#671);
#670 = CARTESIAN_POINT('',(-8.484202494303E-02,-0.644439159893,5.));
#671 = VECTOR('',#672,1.);
#672 = DIRECTION('',(-0.991444861374,0.13052619222,0.));
#673 = PCURVE('',#90,#674);
#674 = DEFINITIONAL_REPRESENTATION('',(#675),#678);
#675 = B_SPLINE_CURVE_WITH_KNOTS('',1,(#676,#677),.UNSPECIFIED.,.F.,.F.,
  (2,2),(76.428617052285,80.150859690719),.PIECEWISE_BEZIER_KNOTS.);
#676 = CARTESIAN_POINT('',(1.281600561798,-76.42861705228));
#677 = CARTESIAN_POINT('',(1.281600561798,-80.15085969071));
#678 = ( GEOMETRIC_REPRESENTATION_CONTEXT(2) 
PARAMETRIC_REPRESENTATION_CONTEXT() REPRESENTATION_CONTEXT('2D SPACE',''
  ) );
#679 = PCURVE('',#266,#680);
#680 = DEFINITIONAL_REPRESENTATION('',(#681),#684);
#681 = B_SPLINE_CURVE_WITH_KNOTS('',1,(#682,#683),.UNSPECIFIED.,.F.,.F.,
  (2,2),(76.428617052285,80.150859690719),.PIECEWISE_BEZIER_KNOTS.);
#682 = CARTESIAN_POINT('',(-75.85960166333,9.331497200586));
#683 = CARTESIAN_POINT('',(-79.55,9.8173473587));
#684 = ( GEOMETRIC_REPRESENTATION_CONTEXT(2) 
PARAMETRIC_REPRESENTATION_CONTEXT() REPRESENTATION_CONTEXT('2D SPACE',''
  ) );
#685 = ORIENTED_EDGE('',*,*,#282,.T.);
#686 = ORIENTED_EDGE('',*,*,#74,.F.);
#687 = ADVANCED_FACE('',(#688),#266,.F.);
#688 = FACE_BOUND('',#689,.F.);
#689 = EDGE_LOOP('',(#690,#714,#715,#716));
#690 = ORIENTED_EDGE('',*,*,#691,.F.);
#691 = EDGE_CURVE('',#636,#692,#694,.T.);
#692 = VERTEX_POINT('',#693);
#693 = CARTESIAN_POINT('',(-75.87806202344,-9.3339275531,5.));
#694 = SURFACE_CURVE('',#695,(#700,#707),.PCURVE_S1.);
#695 = CIRCLE('',#696,76.45);
#696 = AXIS2_PLACEMENT_3D('',#697,#698,#699);
#697 = CARTESIAN_POINT('',(0.,0.,5.));
#698 = DIRECTION('',(0.,0.,1.));
#699 = DIRECTION('',(1.,0.,-0.));
#700 = PCURVE('',#266,#701);
#701 = DEFINITIONAL_REPRESENTATION('',(#702),#706);
#702 = CIRCLE('',#703,76.45);
#703 = AXIS2_PLACEMENT_2D('',#704,#705);
#704 = CARTESIAN_POINT('',(0.,0.));
#705 = DIRECTION('',(1.,0.));
#706 = ( GEOMETRIC_REPRESENTATION_CONTEXT(2) 
PARAMETRIC_REPRESENTATION_CONTEXT() REPRESENTATION_CONTEXT('2D SPACE',''
  ) );
#707 = PCURVE('',#652,#708);
#708 = DEFINITIONAL_REPRESENTATION('',(#709),#713);
#709 = LINE('',#710,#711);
#710 = CARTESIAN_POINT('',(0.,2.2));
#711 = VECTOR('',#712,1.);
#712 = DIRECTION('',(1.,0.));
#713 = ( GEOMETRIC_REPRESENTATION_CONTEXT(2) 
PARAMETRIC_REPRESENTATION_CONTEXT() REPRESENTATION_CONTEXT('2D SPACE',''
  ) );
#714 = ORIENTED_EDGE('',*,*,#667,.T.);
#715 = ORIENTED_EDGE('',*,*,#249,.F.);
#716 = ORIENTED_EDGE('',*,*,#717,.T.);
#717 = EDGE_CURVE('',#218,#692,#718,.T.);
#718 = SURFACE_CURVE('',#719,(#723,#729),.PCURVE_S1.);
#719 = LINE('',#720,#721);
#720 = CARTESIAN_POINT('',(-8.484202494303E-02,0.644439159893,5.));
#721 = VECTOR('',#722,1.);
#722 = DIRECTION('',(0.991444861374,0.13052619222,-0.));
#723 = PCURVE('',#266,#724);
#724 = DEFINITIONAL_REPRESENTATION('',(#725),#728);
#725 = B_SPLINE_CURVE_WITH_KNOTS('',1,(#726,#727),.UNSPECIFIED.,.F.,.F.,
  (2,2),(-80.15085969071,-76.42861705228),.PIECEWISE_BEZIER_KNOTS.);
#726 = CARTESIAN_POINT('',(-79.55,-9.8173473587));
#727 = CARTESIAN_POINT('',(-75.85960166333,-9.331497200586));
#728 = ( GEOMETRIC_REPRESENTATION_CONTEXT(2) 
PARAMETRIC_REPRESENTATION_CONTEXT() REPRESENTATION_CONTEXT('2D SPACE',''
  ) );
#729 = PCURVE('',#237,#730);
#730 = DEFINITIONAL_REPRESENTATION('',(#731),#734);
#731 = B_SPLINE_CURVE_WITH_KNOTS('',1,(#732,#733),.UNSPECIFIED.,.F.,.F.,
  (2,2),(-80.15085969071,-76.42861705228),.PIECEWISE_BEZIER_KNOTS.);
#732 = CARTESIAN_POINT('',(0.427200187266,-80.15085969071));
#733 = CARTESIAN_POINT('',(0.427200187266,-76.42861705228));
#734 = ( GEOMETRIC_REPRESENTATION_CONTEXT(2) 
PARAMETRIC_REPRESENTATION_CONTEXT() REPRESENTATION_CONTEXT('2D SPACE',''
  ) );
#735 = ADVANCED_FACE('',(#736),#237,.T.);
#736 = FACE_BOUND('',#737,.T.);
#737 = EDGE_LOOP('',(#738,#739,#760,#761,#762,#789));
#738 = ORIENTED_EDGE('',*,*,#475,.F.);
#739 = ORIENTED_EDGE('',*,*,#740,.T.);
#740 = EDGE_CURVE('',#476,#190,#741,.T.);
#741 = SURFACE_CURVE('',#742,(#746,#753),.PCURVE_S1.);
#742 = LINE('',#743,#744);
#743 = CARTESIAN_POINT('',(-6.526309611003E-02,0.495722430687,5.4));
#744 = VECTOR('',#745,1.);
#745 = DIRECTION('',(-0.991444861374,-0.13052619222,0.));
#746 = PCURVE('',#237,#747);
#747 = DEFINITIONAL_REPRESENTATION('',(#748),#752);
#748 = LINE('',#749,#750);
#749 = CARTESIAN_POINT('',(0.,0.));
#750 = VECTOR('',#751,1.);
#751 = DIRECTION('',(0.,-1.));
#752 = ( GEOMETRIC_REPRESENTATION_CONTEXT(2) 
PARAMETRIC_REPRESENTATION_CONTEXT() REPRESENTATION_CONTEXT('2D SPACE',''
  ) );
#753 = PCURVE('',#205,#754);
#754 = DEFINITIONAL_REPRESENTATION('',(#755),#759);
#755 = LINE('',#756,#757);
#756 = CARTESIAN_POINT('',(79.5484286457,-1.6));
#757 = VECTOR('',#758,1.);
#758 = DIRECTION('',(-1.,-0.));
#759 = ( GEOMETRIC_REPRESENTATION_CONTEXT(2) 
PARAMETRIC_REPRESENTATION_CONTEXT() REPRESENTATION_CONTEXT('2D SPACE',''
  ) );
#760 = ORIENTED_EDGE('',*,*,#217,.T.);
#761 = ORIENTED_EDGE('',*,*,#717,.T.);
#762 = ORIENTED_EDGE('',*,*,#763,.T.);
#763 = EDGE_CURVE('',#692,#764,#766,.T.);
#764 = VERTEX_POINT('',#765);
#765 = CARTESIAN_POINT('',(-75.93169209081,-8.887105053155,3.8));
#766 = SURFACE_CURVE('',#767,(#772,#779),.PCURVE_S1.);
#767 = ELLIPSE('',#768,217.72969544317,76.45);
#768 = AXIS2_PLACEMENT_3D('',#769,#770,#771);
#769 = CARTESIAN_POINT('',(0.,0.,6.733333333333));
#770 = DIRECTION('',(0.122215482213,-0.928318751655,-0.351123441588));
#771 = DIRECTION('',(4.583080582973E-02,-0.348119531871,0.936329177569)
  );
#772 = PCURVE('',#237,#773);
#773 = DEFINITIONAL_REPRESENTATION('',(#774),#778);
#774 = ELLIPSE('',#775,217.72969544317,76.45);
#775 = AXIS2_PLACEMENT_2D('',#776,#777);
#776 = CARTESIAN_POINT('',(-1.42400062422,3.14402413121E-18));
#777 = DIRECTION('',(-1.,8.447490487983E-18));
#778 = ( GEOMETRIC_REPRESENTATION_CONTEXT(2) 
PARAMETRIC_REPRESENTATION_CONTEXT() REPRESENTATION_CONTEXT('2D SPACE',''
  ) );
#779 = PCURVE('',#652,#780);
#780 = DEFINITIONAL_REPRESENTATION('',(#781),#788);
#781 = B_SPLINE_CURVE_WITH_KNOTS('',5,(#782,#783,#784,#785,#786,#787),
  .UNSPECIFIED.,.F.,.F.,(6,6),(1.57929871537,1.585185315465),
  .PIECEWISE_BEZIER_KNOTS.);
#782 = CARTESIAN_POINT('',(3.263989958915,2.2000006));
#783 = CARTESIAN_POINT('',(3.262812638896,1.959992967538));
#784 = CARTESIAN_POINT('',(3.261635318877,1.719988338254));
#785 = CARTESIAN_POINT('',(3.260457998858,1.47998740521));
#786 = CARTESIAN_POINT('',(3.259280678839,1.239990861453));
#787 = CARTESIAN_POINT('',(3.25810335882,0.9999994));
#788 = ( GEOMETRIC_REPRESENTATION_CONTEXT(2) 
PARAMETRIC_REPRESENTATION_CONTEXT() REPRESENTATION_CONTEXT('2D SPACE',''
  ) );
#789 = ORIENTED_EDGE('',*,*,#790,.F.);
#790 = EDGE_CURVE('',#478,#764,#791,.T.);
#791 = SURFACE_CURVE('',#792,(#796,#803),.PCURVE_S1.);
#792 = LINE('',#793,#794);
#793 = CARTESIAN_POINT('',(-0.143578811442,1.090589347511,3.8));
#794 = VECTOR('',#795,1.);
#795 = DIRECTION('',(-0.991444861374,-0.13052619222,0.));
#796 = PCURVE('',#237,#797);
#797 = DEFINITIONAL_REPRESENTATION('',(#798),#802);
#798 = LINE('',#799,#800);
#799 = CARTESIAN_POINT('',(1.708800749064,0.));
#800 = VECTOR('',#801,1.);
#801 = DIRECTION('',(0.,-1.));
#802 = ( GEOMETRIC_REPRESENTATION_CONTEXT(2) 
PARAMETRIC_REPRESENTATION_CONTEXT() REPRESENTATION_CONTEXT('2D SPACE',''
  ) );
#803 = PCURVE('',#592,#804);
#804 = DEFINITIONAL_REPRESENTATION('',(#805),#809);
#805 = LINE('',#806,#807);
#806 = CARTESIAN_POINT('',(55.318455010533,1.090589347511));
#807 = VECTOR('',#808,1.);
#808 = DIRECTION('',(-0.991444861374,-0.13052619222));
#809 = ( GEOMETRIC_REPRESENTATION_CONTEXT(2) 
PARAMETRIC_REPRESENTATION_CONTEXT() REPRESENTATION_CONTEXT('2D SPACE',''
  ) );
#810 = ADVANCED_FACE('',(#811),#205,.F.);
#811 = FACE_BOUND('',#812,.F.);
#812 = EDGE_LOOP('',(#813,#814,#815,#816));
#813 = ORIENTED_EDGE('',*,*,#504,.F.);
#814 = ORIENTED_EDGE('',*,*,#740,.T.);
#815 = ORIENTED_EDGE('',*,*,#189,.T.);
#816 = ORIENTED_EDGE('',*,*,#817,.T.);
#817 = EDGE_CURVE('',#161,#505,#818,.T.);
#818 = SURFACE_CURVE('',#819,(#823,#830),.PCURVE_S1.);
#819 = LINE('',#820,#821);
#820 = CARTESIAN_POINT('',(-78.93314390725,-9.887431057525,5.85));
#821 = VECTOR('',#822,1.);
#822 = DIRECTION('',(0.991444861374,0.13052619222,0.));
#823 = PCURVE('',#205,#824);
#824 = DEFINITIONAL_REPRESENTATION('',(#825),#829);
#825 = LINE('',#826,#827);
#826 = CARTESIAN_POINT('',(0.,-2.05));
#827 = VECTOR('',#828,1.);
#828 = DIRECTION('',(1.,0.));
#829 = ( GEOMETRIC_REPRESENTATION_CONTEXT(2) 
PARAMETRIC_REPRESENTATION_CONTEXT() REPRESENTATION_CONTEXT('2D SPACE',''
  ) );
#830 = PCURVE('',#831,#836);
#831 = CYLINDRICAL_SURFACE('',#832,0.15);
#832 = AXIS2_PLACEMENT_3D('',#833,#834,#835);
#833 = CARTESIAN_POINT('',(-78.95272283608,-9.738714328319,5.85));
#834 = DIRECTION('',(0.991444861374,0.13052619222,0.));
#835 = DIRECTION('',(0.,-0.,1.));
#836 = DEFINITIONAL_REPRESENTATION('',(#837),#841);
#837 = LINE('',#838,#839);
#838 = CARTESIAN_POINT('',(1.570796326795,0.));
#839 = VECTOR('',#840,1.);
#840 = DIRECTION('',(0.,1.));
#841 = ( GEOMETRIC_REPRESENTATION_CONTEXT(2) 
PARAMETRIC_REPRESENTATION_CONTEXT() REPRESENTATION_CONTEXT('2D SPACE',''
  ) );
#842 = ADVANCED_FACE('',(#843),#177,.T.);
#843 = FACE_BOUND('',#844,.T.);
#844 = EDGE_LOOP('',(#845,#846,#847,#897));
#845 = ORIENTED_EDGE('',*,*,#408,.F.);
#846 = ORIENTED_EDGE('',*,*,#160,.T.);
#847 = ORIENTED_EDGE('',*,*,#848,.T.);
#848 = EDGE_CURVE('',#161,#849,#851,.T.);
#849 = VERTEX_POINT('',#850);
#850 = CARTESIAN_POINT('',(-78.8029261561,-9.71899322127,6.));
#851 = SURFACE_CURVE('',#852,(#865,#881),.PCURVE_S1.);
#852 = B_SPLINE_CURVE_WITH_KNOTS('',6,(#853,#854,#855,#856,#857,#858,
    #859,#860,#861,#862,#863,#864),.UNSPECIFIED.,.F.,.F.,(7,5,7),(0.,
    0.499847237677,1.),.UNSPECIFIED.);
#853 = CARTESIAN_POINT('',(-78.93314390725,-9.887431057525,5.85));
#854 = CARTESIAN_POINT('',(-78.93314390725,-9.887431057525,
    5.869739280224));
#855 = CARTESIAN_POINT('',(-78.93044088778,-9.883931244856,
    5.889479996385));
#856 = CARTESIAN_POINT('',(-78.92503377003,-9.876930208944,
    5.908589586908));
#857 = CARTESIAN_POINT('',(-78.91707838255,-9.866630828817,5.92644044481
    ));
#858 = CARTESIAN_POINT('',(-78.90687124597,-9.853419063645,
    5.942494325773));
#859 = CARTESIAN_POINT('',(-78.88271531235,-9.822160532082,
    5.970189922719));
#860 = CARTESIAN_POINT('',(-78.86876356064,-9.804109937635,
    5.981830010931));
#861 = CARTESIAN_POINT('',(-78.85332521347,-9.784141089533,
    5.990844097196));
#862 = CARTESIAN_POINT('',(-78.83686817876,-9.76286113509,5.996948797645
    ));
#863 = CARTESIAN_POINT('',(-78.81990051216,-9.740928150346,
    5.999999756968));
#864 = CARTESIAN_POINT('',(-78.80292615609,-9.718993221373,6.));
#865 = PCURVE('',#177,#866);
#866 = DEFINITIONAL_REPRESENTATION('',(#867),#880);
#867 = B_SPLINE_CURVE_WITH_KNOTS('',6,(#868,#869,#870,#871,#872,#873,
    #874,#875,#876,#877,#878,#879),.UNSPECIFIED.,.F.,.F.,(7,5,7),(0.,
    0.499847237677,1.),.UNSPECIFIED.);
#868 = CARTESIAN_POINT('',(0.249228594783,0.));
#869 = CARTESIAN_POINT('',(0.249228594783,0.131595201495));
#870 = CARTESIAN_POINT('',(0.249189164064,0.263200128531));
#871 = CARTESIAN_POINT('',(0.249110287013,0.394698561594));
#872 = CARTESIAN_POINT('',(0.248994226554,0.526015772371));
#873 = CARTESIAN_POINT('',(0.248845289558,0.657110047856));
#874 = CARTESIAN_POINT('',(0.248492745018,0.918899402206));
#875 = CARTESIAN_POINT('',(0.248289094393,1.049600827223));
#876 = CARTESIAN_POINT('',(0.248063697499,1.180077348848));
#877 = CARTESIAN_POINT('',(0.247823367927,1.310379010271));
#878 = CARTESIAN_POINT('',(0.247575514622,1.440585872082));
#879 = CARTESIAN_POINT('',(0.247327501867,1.570796326795));
#880 = ( GEOMETRIC_REPRESENTATION_CONTEXT(2) 
PARAMETRIC_REPRESENTATION_CONTEXT() REPRESENTATION_CONTEXT('2D SPACE',''
  ) );
#881 = PCURVE('',#831,#882);
#882 = DEFINITIONAL_REPRESENTATION('',(#883),#896);
#883 = B_SPLINE_CURVE_WITH_KNOTS('',6,(#884,#885,#886,#887,#888,#889,
    #890,#891,#892,#893,#894,#895),.UNSPECIFIED.,.F.,.F.,(7,5,7),(0.,
    0.499847237677,1.),.UNSPECIFIED.);
#884 = CARTESIAN_POINT('',(1.570796326795,-1.42108547152E-14));
#885 = CARTESIAN_POINT('',(1.4392011253,-1.420964603288E-14));
#886 = CARTESIAN_POINT('',(1.307596198263,3.136711982584E-03));
#887 = CARTESIAN_POINT('',(1.176097765201,9.411389649056E-03));
#888 = CARTESIAN_POINT('',(1.044780554424,1.864305655946E-02));
#889 = CARTESIAN_POINT('',(0.913686278939,3.048735106625E-02));
#890 = CARTESIAN_POINT('',(0.651896924589,5.851668442702E-02));
#891 = CARTESIAN_POINT('',(0.521195499572,7.470515232965E-02));
#892 = CARTESIAN_POINT('',(0.390718977948,9.261788000638E-02));
#893 = CARTESIAN_POINT('',(0.260417316525,0.111711713918));
#894 = CARTESIAN_POINT('',(0.130210454713,0.131397048762));
#895 = CARTESIAN_POINT('',(0.,0.151089269622));
#896 = ( GEOMETRIC_REPRESENTATION_CONTEXT(2) 
PARAMETRIC_REPRESENTATION_CONTEXT() REPRESENTATION_CONTEXT('2D SPACE',''
  ) );
#897 = ORIENTED_EDGE('',*,*,#898,.F.);
#898 = EDGE_CURVE('',#381,#849,#899,.T.);
#899 = SURFACE_CURVE('',#900,(#905,#912),.PCURVE_S1.);
#900 = CIRCLE('',#901,79.400000000001);
#901 = AXIS2_PLACEMENT_3D('',#902,#903,#904);
#902 = CARTESIAN_POINT('',(1.158184659289E-12,-2.845338998914E-14,6.));
#903 = DIRECTION('',(0.,0.,1.));
#904 = DIRECTION('',(-0.992245680795,0.124292030893,0.));
#905 = PCURVE('',#177,#906);
#906 = DEFINITIONAL_REPRESENTATION('',(#907),#911);
#907 = LINE('',#908,#909);
#908 = CARTESIAN_POINT('',(0.,1.570796326795));
#909 = VECTOR('',#910,1.);
#910 = DIRECTION('',(1.,0.));
#911 = ( GEOMETRIC_REPRESENTATION_CONTEXT(2) 
PARAMETRIC_REPRESENTATION_CONTEXT() REPRESENTATION_CONTEXT('2D SPACE',''
  ) );
#912 = PCURVE('',#396,#913);
#913 = DEFINITIONAL_REPRESENTATION('',(#914),#918);
#914 = CIRCLE('',#915,79.400000000001);
#915 = AXIS2_PLACEMENT_2D('',#916,#917);
#916 = CARTESIAN_POINT('',(55.462033821976,-3.833790743091E-14));
#917 = DIRECTION('',(-0.992245680795,0.124292030893));
#918 = ( GEOMETRIC_REPRESENTATION_CONTEXT(2) 
PARAMETRIC_REPRESENTATION_CONTEXT() REPRESENTATION_CONTEXT('2D SPACE',''
  ) );
#919 = ADVANCED_FACE('',(#920),#354,.T.);
#920 = FACE_BOUND('',#921,.F.);
#921 = EDGE_LOOP('',(#922,#950,#951,#952));
#922 = ORIENTED_EDGE('',*,*,#923,.T.);
#923 = EDGE_CURVE('',#924,#311,#926,.T.);
#924 = VERTEX_POINT('',#925);
#925 = CARTESIAN_POINT('',(-26.49898739726,-2.833049050009,6.));
#926 = SURFACE_CURVE('',#927,(#932,#939),.PCURVE_S1.);
#927 = CIRCLE('',#928,26.65);
#928 = AXIS2_PLACEMENT_3D('',#929,#930,#931);
#929 = CARTESIAN_POINT('',(1.350031197944E-13,-6.653436903175E-15,6.));
#930 = DIRECTION('',(-0.,0.,-1.));
#931 = DIRECTION('',(-0.993731127529,-0.111796449764,0.));
#932 = PCURVE('',#354,#933);
#933 = DEFINITIONAL_REPRESENTATION('',(#934),#938);
#934 = LINE('',#935,#936);
#935 = CARTESIAN_POINT('',(-0.,1.570796326795));
#936 = VECTOR('',#937,1.);
#937 = DIRECTION('',(-1.,0.));
#938 = ( GEOMETRIC_REPRESENTATION_CONTEXT(2) 
PARAMETRIC_REPRESENTATION_CONTEXT() REPRESENTATION_CONTEXT('2D SPACE',''
  ) );
#939 = PCURVE('',#396,#940);
#940 = DEFINITIONAL_REPRESENTATION('',(#941),#949);
#941 = ( BOUNDED_CURVE() B_SPLINE_CURVE(2,(#942,#943,#944,#945,#946,#947
,#948),.UNSPECIFIED.,.T.,.F.) B_SPLINE_CURVE_WITH_KNOTS((1,2,2,2,2,1),(
    -2.094395102393,0.,2.094395102393,4.188790204786,6.28318530718,
8.377580409573),.UNSPECIFIED.) CURVE() GEOMETRIC_REPRESENTATION_ITEM() 
RATIONAL_B_SPLINE_CURVE((1.,0.5,1.,0.5,1.,0.5,1.)) REPRESENTATION_ITEM(
  '') );
#942 = CARTESIAN_POINT('',(28.979099273326,-2.979375386217));
#943 = CARTESIAN_POINT('',(23.818669729578,42.890412785563));
#944 = CARTESIAN_POINT('',(66.123286324425,24.424581778999));
#945 = CARTESIAN_POINT('',(108.42790291927,5.958750772434));
#946 = CARTESIAN_POINT('',(71.283715868173,-21.44520639278));
#947 = CARTESIAN_POINT('',(34.139528817074,-48.84916355799));
#948 = CARTESIAN_POINT('',(28.979099273326,-2.979375386217));
#949 = ( GEOMETRIC_REPRESENTATION_CONTEXT(2) 
PARAMETRIC_REPRESENTATION_CONTEXT() REPRESENTATION_CONTEXT('2D SPACE',''
  ) );
#950 = ORIENTED_EDGE('',*,*,#310,.F.);
#951 = ORIENTED_EDGE('',*,*,#527,.F.);
#952 = ORIENTED_EDGE('',*,*,#953,.F.);
#953 = EDGE_CURVE('',#924,#505,#954,.T.);
#954 = SURFACE_CURVE('',#955,(#976,#1000),.PCURVE_S1.);
#955 = B_SPLINE_CURVE_WITH_KNOTS('',7,(#956,#957,#958,#959,#960,#961,
    #962,#963,#964,#965,#966,#967,#968,#969,#970,#971,#972,#973,#974,
    #975),.UNSPECIFIED.,.F.,.F.,(8,6,6,8),(0.,6.067981483828E-02,
    0.502046408874,1.),.UNSPECIFIED.);
#956 = CARTESIAN_POINT('',(-26.49898739068,-2.833049111485,6.));
#957 = CARTESIAN_POINT('',(-26.49675614607,-2.834804634377,
    5.999999999586));
#958 = CARTESIAN_POINT('',(-26.49452504621,-2.836560536141,5.99996788894
    ));
#959 = CARTESIAN_POINT('',(-26.49229396634,-2.838315288986,
    5.999903668273));
#960 = CARTESIAN_POINT('',(-26.49006449884,-2.840069595447,
    5.999807351026));
#961 = CARTESIAN_POINT('',(-26.48783652307,-2.8418219331,5.99967896388)
  );
#962 = CARTESIAN_POINT('',(-26.48561111876,-2.843572340151,
    5.999518546744));
#963 = CARTESIAN_POINT('',(-26.46722432288,-2.858032953147,5.99792673706
    ));
#964 = CARTESIAN_POINT('',(-26.45122448366,-2.87060808496,5.994835722792
    ));
#965 = CARTESIAN_POINT('',(-26.43564005372,-2.882848538189,
    5.990072954774));
#966 = CARTESIAN_POINT('',(-26.42072091894,-2.894558917822,
    5.983696423263));
#967 = CARTESIAN_POINT('',(-26.40670705713,-2.905552260086,5.97580077239
    ));
#968 = CARTESIAN_POINT('',(-26.39381951599,-2.915656880004,
    5.966515808613));
#969 = CARTESIAN_POINT('',(-26.36920013278,-2.9349519406,5.944146634763)
  );
#970 = CARTESIAN_POINT('',(-26.35782765809,-2.943859572564,5.93072717591
    ));
#971 = CARTESIAN_POINT('',(-26.34841240151,-2.951230362163,
    5.915981356954));
#972 = CARTESIAN_POINT('',(-26.34118558733,-2.956885837097,
    5.900196200781));
#973 = CARTESIAN_POINT('',(-26.33631152676,-2.960699418751,
    5.883700879662));
#974 = CARTESIAN_POINT('',(-26.33387487951,-2.962605918753,
    5.866849954147));
#975 = CARTESIAN_POINT('',(-26.33387487951,-2.962605918753,5.85));
#976 = PCURVE('',#354,#977);
#977 = DEFINITIONAL_REPRESENTATION('',(#978),#999);
#978 = B_SPLINE_CURVE_WITH_KNOTS('',7,(#979,#980,#981,#982,#983,#984,
    #985,#986,#987,#988,#989,#990,#991,#992,#993,#994,#995,#996,#997,
    #998),.UNSPECIFIED.,.F.,.F.,(8,6,6,8),(0.,6.067981483828E-02,
    0.502046408874,1.),.UNSPECIFIED.);
#979 = CARTESIAN_POINT('',(-5.523616257663E-03,1.570796326795));
#980 = CARTESIAN_POINT('',(-5.449215904897E-03,1.584342853461));
#981 = CARTESIAN_POINT('',(-5.374788756976E-03,1.597887004592));
#982 = CARTESIAN_POINT('',(-5.300391314519E-03,1.611434749252));
#983 = CARTESIAN_POINT('',(-5.226003735873E-03,1.624979095023));
#984 = CARTESIAN_POINT('',(-5.151682384573E-03,1.638525981284));
#985 = CARTESIAN_POINT('',(-5.077430207233E-03,1.652072281503));
#986 = CARTESIAN_POINT('',(-4.463894783636E-03,1.764154851044));
#987 = CARTESIAN_POINT('',(-3.929620656124E-03,1.862710173815));
#988 = CARTESIAN_POINT('',(-3.408831967705E-03,1.961319776551));
#989 = CARTESIAN_POINT('',(-2.909920105858E-03,2.060012922648));
#990 = CARTESIAN_POINT('',(-2.440976068691E-03,2.158811770962));
#991 = CARTESIAN_POINT('',(-2.009477760258E-03,2.257729680292));
#992 = CARTESIAN_POINT('',(-1.184795914741E-03,2.468507106723));
#993 = CARTESIAN_POINT('',(-8.035953470777E-04,2.580404963514));
#994 = CARTESIAN_POINT('',(-4.87818818276E-04,2.692454320094));
#995 = CARTESIAN_POINT('',(-2.453415914747E-04,2.804636366673));
#996 = CARTESIAN_POINT('',(-8.177167777212E-05,2.91692001709));
#997 = CARTESIAN_POINT('',(1.42108547152E-14,3.029259625946));
#998 = CARTESIAN_POINT('',(1.42108547152E-14,3.14159265359));
#999 = ( GEOMETRIC_REPRESENTATION_CONTEXT(2) 
PARAMETRIC_REPRESENTATION_CONTEXT() REPRESENTATION_CONTEXT('2D SPACE',''
  ) );
#1000 = PCURVE('',#831,#1001);
#1001 = DEFINITIONAL_REPRESENTATION('',(#1002),#1023);
#1002 = B_SPLINE_CURVE_WITH_KNOTS('',7,(#1003,#1004,#1005,#1006,#1007,
    #1008,#1009,#1010,#1011,#1012,#1013,#1014,#1015,#1016,#1017,#1018,
    #1019,#1020,#1021,#1022),.UNSPECIFIED.,.F.,.F.,(8,6,6,8),(0.,
    6.067981483828E-02,0.502046408874,1.),.UNSPECIFIED.);
#1003 = CARTESIAN_POINT('',(4.120521420366E-07,52.906356652697));
#1004 = CARTESIAN_POINT('',(1.354534547548E-02,52.908339666984));
#1005 = CARTESIAN_POINT('',(2.709265718082E-02,52.910322488303));
#1006 = CARTESIAN_POINT('',(4.063641720724E-02,52.912305439769));
#1007 = CARTESIAN_POINT('',(5.418394292793E-02,52.914286850925));
#1008 = CARTESIAN_POINT('',(6.772933371272E-02,52.916267040089));
#1009 = CARTESIAN_POINT('',(8.127595470794E-02,52.918244931795));
#1010 = CARTESIAN_POINT('',(0.19335852425,52.934586937333));
#1011 = CARTESIAN_POINT('',(0.29191384702,52.948808511644));
#1012 = CARTESIAN_POINT('',(0.390523449757,52.96266191487));
#1013 = CARTESIAN_POINT('',(0.489216595853,52.975924903121));
#1014 = CARTESIAN_POINT('',(0.588015444167,52.988383955293));
#1015 = CARTESIAN_POINT('',(0.686933353497,52.999842324175));
#1016 = CARTESIAN_POINT('',(0.897710779928,53.021732574356));
#1017 = CARTESIAN_POINT('',(1.009608636719,53.03184507667));
#1018 = CARTESIAN_POINT('',(1.121657993299,53.040217703318));
#1019 = CARTESIAN_POINT('',(1.233840039878,53.046644503498));
#1020 = CARTESIAN_POINT('',(1.346123690295,53.05097909351));
#1021 = CARTESIAN_POINT('',(1.458463299151,53.053146046716));
#1022 = CARTESIAN_POINT('',(1.570796326795,53.053146046716));
#1023 = ( GEOMETRIC_REPRESENTATION_CONTEXT(2) 
PARAMETRIC_REPRESENTATION_CONTEXT() REPRESENTATION_CONTEXT('2D SPACE',''
  ) );
#1024 = ADVANCED_FACE('',(#1025),#396,.T.);
#1025 = FACE_BOUND('',#1026,.T.);
#1026 = EDGE_LOOP('',(#1027,#1028,#1029,#1050));
#1027 = ORIENTED_EDGE('',*,*,#380,.T.);
#1028 = ORIENTED_EDGE('',*,*,#898,.T.);
#1029 = ORIENTED_EDGE('',*,*,#1030,.T.);
#1030 = EDGE_CURVE('',#849,#924,#1031,.T.);
#1031 = SURFACE_CURVE('',#1032,(#1036,#1043),.PCURVE_S1.);
#1032 = LINE('',#1033,#1034);
#1033 = CARTESIAN_POINT('',(-78.95272283608,-9.738714328319,6.));
#1034 = VECTOR('',#1035,1.);
#1035 = DIRECTION('',(0.991444861374,0.13052619222,0.));
#1036 = PCURVE('',#396,#1037);
#1037 = DEFINITIONAL_REPRESENTATION('',(#1038),#1042);
#1038 = LINE('',#1039,#1040);
#1039 = CARTESIAN_POINT('',(-23.4906890141,-9.738714328319));
#1040 = VECTOR('',#1041,1.);
#1041 = DIRECTION('',(0.991444861374,0.13052619222));
#1042 = ( GEOMETRIC_REPRESENTATION_CONTEXT(2) 
PARAMETRIC_REPRESENTATION_CONTEXT() REPRESENTATION_CONTEXT('2D SPACE',''
  ) );
#1043 = PCURVE('',#831,#1044);
#1044 = DEFINITIONAL_REPRESENTATION('',(#1045),#1049);
#1045 = LINE('',#1046,#1047);
#1046 = CARTESIAN_POINT('',(0.,0.));
#1047 = VECTOR('',#1048,1.);
#1048 = DIRECTION('',(0.,1.));
#1049 = ( GEOMETRIC_REPRESENTATION_CONTEXT(2) 
PARAMETRIC_REPRESENTATION_CONTEXT() REPRESENTATION_CONTEXT('2D SPACE',''
  ) );
#1050 = ORIENTED_EDGE('',*,*,#923,.T.);
#1051 = ADVANCED_FACE('',(#1052,#1079),#592,.F.);
#1052 = FACE_BOUND('',#1053,.F.);
#1053 = EDGE_LOOP('',(#1054,#1076,#1077,#1078));
#1054 = ORIENTED_EDGE('',*,*,#1055,.T.);
#1055 = EDGE_CURVE('',#613,#764,#1056,.T.);
#1056 = SURFACE_CURVE('',#1057,(#1062,#1069),.PCURVE_S1.);
#1057 = CIRCLE('',#1058,76.45);
#1058 = AXIS2_PLACEMENT_3D('',#1059,#1060,#1061);
#1059 = CARTESIAN_POINT('',(0.,0.,3.8));
#1060 = DIRECTION('',(0.,0.,1.));
#1061 = DIRECTION('',(1.,0.,-0.));
#1062 = PCURVE('',#592,#1063);
#1063 = DEFINITIONAL_REPRESENTATION('',(#1064),#1068);
#1064 = CIRCLE('',#1065,76.45);
#1065 = AXIS2_PLACEMENT_2D('',#1066,#1067);
#1066 = CARTESIAN_POINT('',(55.462033821975,-9.884517441776E-15));
#1067 = DIRECTION('',(1.,0.));
#1068 = ( GEOMETRIC_REPRESENTATION_CONTEXT(2) 
PARAMETRIC_REPRESENTATION_CONTEXT() REPRESENTATION_CONTEXT('2D SPACE',''
  ) );
#1069 = PCURVE('',#652,#1070);
#1070 = DEFINITIONAL_REPRESENTATION('',(#1071),#1075);
#1071 = LINE('',#1072,#1073);
#1072 = CARTESIAN_POINT('',(0.,1.));
#1073 = VECTOR('',#1074,1.);
#1074 = DIRECTION('',(1.,0.));
#1075 = ( GEOMETRIC_REPRESENTATION_CONTEXT(2) 
PARAMETRIC_REPRESENTATION_CONTEXT() REPRESENTATION_CONTEXT('2D SPACE',''
  ) );
#1076 = ORIENTED_EDGE('',*,*,#790,.F.);
#1077 = ORIENTED_EDGE('',*,*,#577,.T.);
#1078 = ORIENTED_EDGE('',*,*,#612,.T.);
#1079 = FACE_BOUND('',#1080,.F.);
#1080 = EDGE_LOOP('',(#1081,#1111,#1144,#1172));
#1081 = ORIENTED_EDGE('',*,*,#1082,.T.);
#1082 = EDGE_CURVE('',#1083,#1085,#1087,.T.);
#1083 = VERTEX_POINT('',#1084);
#1084 = CARTESIAN_POINT('',(-65.8,-6.8,3.8));
#1085 = VERTEX_POINT('',#1086);
#1086 = CARTESIAN_POINT('',(-70.2,-6.8,3.8));
#1087 = SURFACE_CURVE('',#1088,(#1092,#1099),.PCURVE_S1.);
#1088 = LINE('',#1089,#1090);
#1089 = CARTESIAN_POINT('',(-65.8,-6.8,3.8));
#1090 = VECTOR('',#1091,1.);
#1091 = DIRECTION('',(-1.,1.224646799147E-16,0.));
#1092 = PCURVE('',#592,#1093);
#1093 = DEFINITIONAL_REPRESENTATION('',(#1094),#1098);
#1094 = LINE('',#1095,#1096);
#1095 = CARTESIAN_POINT('',(-10.33796617802,-6.8));
#1096 = VECTOR('',#1097,1.);
#1097 = DIRECTION('',(-1.,1.224646799147E-16));
#1098 = ( GEOMETRIC_REPRESENTATION_CONTEXT(2) 
PARAMETRIC_REPRESENTATION_CONTEXT() REPRESENTATION_CONTEXT('2D SPACE',''
  ) );
#1099 = PCURVE('',#1100,#1105);
#1100 = PLANE('',#1101);
#1101 = AXIS2_PLACEMENT_3D('',#1102,#1103,#1104);
#1102 = CARTESIAN_POINT('',(-65.8,-6.8,3.));
#1103 = DIRECTION('',(-1.224646799147E-16,-1.,0.));
#1104 = DIRECTION('',(-1.,1.224646799147E-16,0.));
#1105 = DEFINITIONAL_REPRESENTATION('',(#1106),#1110);
#1106 = LINE('',#1107,#1108);
#1107 = CARTESIAN_POINT('',(0.,-0.8));
#1108 = VECTOR('',#1109,1.);
#1109 = DIRECTION('',(1.,0.));
#1110 = ( GEOMETRIC_REPRESENTATION_CONTEXT(2) 
PARAMETRIC_REPRESENTATION_CONTEXT() REPRESENTATION_CONTEXT('2D SPACE',''
  ) );
#1111 = ORIENTED_EDGE('',*,*,#1112,.T.);
#1112 = EDGE_CURVE('',#1085,#1113,#1115,.T.);
#1113 = VERTEX_POINT('',#1114);
#1114 = CARTESIAN_POINT('',(-70.2,-5.2,3.8));
#1115 = SURFACE_CURVE('',#1116,(#1121,#1132),.PCURVE_S1.);
#1116 = CIRCLE('',#1117,0.8);
#1117 = AXIS2_PLACEMENT_3D('',#1118,#1119,#1120);
#1118 = CARTESIAN_POINT('',(-70.2,-6.,3.8));
#1119 = DIRECTION('',(0.,-0.,-1.));
#1120 = DIRECTION('',(1.,-1.224646799147E-16,0.));
#1121 = PCURVE('',#592,#1122);
#1122 = DEFINITIONAL_REPRESENTATION('',(#1123),#1131);
#1123 = ( BOUNDED_CURVE() B_SPLINE_CURVE(2,(#1124,#1125,#1126,#1127,
#1128,#1129,#1130),.UNSPECIFIED.,.T.,.F.) B_SPLINE_CURVE_WITH_KNOTS((1,2
    ,2,2,2,1),(-2.094395102393,0.,2.094395102393,4.188790204786,
6.28318530718,8.377580409573),.UNSPECIFIED.) CURVE() 
GEOMETRIC_REPRESENTATION_ITEM() RATIONAL_B_SPLINE_CURVE((1.,0.5,1.,0.5,
1.,0.5,1.)) REPRESENTATION_ITEM('') );
#1124 = CARTESIAN_POINT('',(-13.93796617802,-6.));
#1125 = CARTESIAN_POINT('',(-13.93796617802,-7.385640646055));
#1126 = CARTESIAN_POINT('',(-15.13796617802,-6.692820323028));
#1127 = CARTESIAN_POINT('',(-16.33796617802,-6.));
#1128 = CARTESIAN_POINT('',(-15.13796617802,-5.307179676972));
#1129 = CARTESIAN_POINT('',(-13.93796617802,-4.614359353945));
#1130 = CARTESIAN_POINT('',(-13.93796617802,-6.));
#1131 = ( GEOMETRIC_REPRESENTATION_CONTEXT(2) 
PARAMETRIC_REPRESENTATION_CONTEXT() REPRESENTATION_CONTEXT('2D SPACE',''
  ) );
#1132 = PCURVE('',#1133,#1138);
#1133 = CYLINDRICAL_SURFACE('',#1134,0.8);
#1134 = AXIS2_PLACEMENT_3D('',#1135,#1136,#1137);
#1135 = CARTESIAN_POINT('',(-70.2,-6.,3.));
#1136 = DIRECTION('',(0.,0.,-1.));
#1137 = DIRECTION('',(1.,-1.224646799147E-16,0.));
#1138 = DEFINITIONAL_REPRESENTATION('',(#1139),#1143);
#1139 = LINE('',#1140,#1141);
#1140 = CARTESIAN_POINT('',(0.,-0.8));
#1141 = VECTOR('',#1142,1.);
#1142 = DIRECTION('',(1.,0.));
#1143 = ( GEOMETRIC_REPRESENTATION_CONTEXT(2) 
PARAMETRIC_REPRESENTATION_CONTEXT() REPRESENTATION_CONTEXT('2D SPACE',''
  ) );
#1144 = ORIENTED_EDGE('',*,*,#1145,.T.);
#1145 = EDGE_CURVE('',#1113,#1146,#1148,.T.);
#1146 = VERTEX_POINT('',#1147);
#1147 = CARTESIAN_POINT('',(-65.8,-5.2,3.8));
#1148 = SURFACE_CURVE('',#1149,(#1153,#1160),.PCURVE_S1.);
#1149 = LINE('',#1150,#1151);
#1150 = CARTESIAN_POINT('',(-70.2,-5.2,3.8));
#1151 = VECTOR('',#1152,1.);
#1152 = DIRECTION('',(1.,-1.224646799147E-16,0.));
#1153 = PCURVE('',#592,#1154);
#1154 = DEFINITIONAL_REPRESENTATION('',(#1155),#1159);
#1155 = LINE('',#1156,#1157);
#1156 = CARTESIAN_POINT('',(-14.73796617802,-5.2));
#1157 = VECTOR('',#1158,1.);
#1158 = DIRECTION('',(1.,-1.224646799147E-16));
#1159 = ( GEOMETRIC_REPRESENTATION_CONTEXT(2) 
PARAMETRIC_REPRESENTATION_CONTEXT() REPRESENTATION_CONTEXT('2D SPACE',''
  ) );
#1160 = PCURVE('',#1161,#1166);
#1161 = PLANE('',#1162);
#1162 = AXIS2_PLACEMENT_3D('',#1163,#1164,#1165);
#1163 = CARTESIAN_POINT('',(-68.,-5.2,3.));
#1164 = DIRECTION('',(-1.224646799147E-16,-1.,0.));
#1165 = DIRECTION('',(-1.,1.224646799147E-16,0.));
#1166 = DEFINITIONAL_REPRESENTATION('',(#1167),#1171);
#1167 = LINE('',#1168,#1169);
#1168 = CARTESIAN_POINT('',(2.2,-0.8));
#1169 = VECTOR('',#1170,1.);
#1170 = DIRECTION('',(-1.,0.));
#1171 = ( GEOMETRIC_REPRESENTATION_CONTEXT(2) 
PARAMETRIC_REPRESENTATION_CONTEXT() REPRESENTATION_CONTEXT('2D SPACE',''
  ) );
#1172 = ORIENTED_EDGE('',*,*,#1173,.T.);
#1173 = EDGE_CURVE('',#1146,#1083,#1174,.T.);
#1174 = SURFACE_CURVE('',#1175,(#1180,#1191),.PCURVE_S1.);
#1175 = CIRCLE('',#1176,0.8);
#1176 = AXIS2_PLACEMENT_3D('',#1177,#1178,#1179);
#1177 = CARTESIAN_POINT('',(-65.8,-6.,3.8));
#1178 = DIRECTION('',(0.,0.,-1.));
#1179 = DIRECTION('',(-1.,1.224646799147E-16,0.));
#1180 = PCURVE('',#592,#1181);
#1181 = DEFINITIONAL_REPRESENTATION('',(#1182),#1190);
#1182 = ( BOUNDED_CURVE() B_SPLINE_CURVE(2,(#1183,#1184,#1185,#1186,
#1187,#1188,#1189),.UNSPECIFIED.,.T.,.F.) B_SPLINE_CURVE_WITH_KNOTS((1,2
    ,2,2,2,1),(-2.094395102393,0.,2.094395102393,4.188790204786,
6.28318530718,8.377580409573),.UNSPECIFIED.) CURVE() 
GEOMETRIC_REPRESENTATION_ITEM() RATIONAL_B_SPLINE_CURVE((1.,0.5,1.,0.5,
1.,0.5,1.)) REPRESENTATION_ITEM('') );
#1183 = CARTESIAN_POINT('',(-11.13796617802,-6.));
#1184 = CARTESIAN_POINT('',(-11.13796617802,-4.614359353945));
#1185 = CARTESIAN_POINT('',(-9.937966178025,-5.307179676972));
#1186 = CARTESIAN_POINT('',(-8.737966178025,-6.));
#1187 = CARTESIAN_POINT('',(-9.937966178025,-6.692820323028));
#1188 = CARTESIAN_POINT('',(-11.13796617802,-7.385640646055));
#1189 = CARTESIAN_POINT('',(-11.13796617802,-6.));
#1190 = ( GEOMETRIC_REPRESENTATION_CONTEXT(2) 
PARAMETRIC_REPRESENTATION_CONTEXT() REPRESENTATION_CONTEXT('2D SPACE',''
  ) );
#1191 = PCURVE('',#1192,#1197);
#1192 = CYLINDRICAL_SURFACE('',#1193,0.8);
#1193 = AXIS2_PLACEMENT_3D('',#1194,#1195,#1196);
#1194 = CARTESIAN_POINT('',(-65.8,-6.,3.));
#1195 = DIRECTION('',(-0.,0.,-1.));
#1196 = DIRECTION('',(-1.,1.224646799147E-16,0.));
#1197 = DEFINITIONAL_REPRESENTATION('',(#1198),#1202);
#1198 = LINE('',#1199,#1200);
#1199 = CARTESIAN_POINT('',(0.,-0.8));
#1200 = VECTOR('',#1201,1.);
#1201 = DIRECTION('',(1.,0.));
#1202 = ( GEOMETRIC_REPRESENTATION_CONTEXT(2) 
PARAMETRIC_REPRESENTATION_CONTEXT() REPRESENTATION_CONTEXT('2D SPACE',''
  ) );
#1203 = ADVANCED_FACE('',(#1204),#652,.T.);
#1204 = FACE_BOUND('',#1205,.T.);
#1205 = EDGE_LOOP('',(#1206,#1207,#1208,#1209));
#1206 = ORIENTED_EDGE('',*,*,#691,.F.);
#1207 = ORIENTED_EDGE('',*,*,#635,.F.);
#1208 = ORIENTED_EDGE('',*,*,#1055,.T.);
#1209 = ORIENTED_EDGE('',*,*,#763,.F.);
#1210 = ADVANCED_FACE('',(#1211),#831,.T.);
#1211 = FACE_BOUND('',#1212,.T.);
#1212 = EDGE_LOOP('',(#1213,#1214,#1215,#1216));
#1213 = ORIENTED_EDGE('',*,*,#848,.F.);
#1214 = ORIENTED_EDGE('',*,*,#817,.T.);
#1215 = ORIENTED_EDGE('',*,*,#953,.F.);
#1216 = ORIENTED_EDGE('',*,*,#1030,.F.);
#1217 = ADVANCED_FACE('',(#1218),#1100,.T.);
#1218 = FACE_BOUND('',#1219,.T.);
#1219 = EDGE_LOOP('',(#1220,#1243,#1244,#1267));
#1220 = ORIENTED_EDGE('',*,*,#1221,.T.);
#1221 = EDGE_CURVE('',#1222,#1083,#1224,.T.);
#1222 = VERTEX_POINT('',#1223);
#1223 = CARTESIAN_POINT('',(-65.8,-6.8,3.));
#1224 = SURFACE_CURVE('',#1225,(#1229,#1236),.PCURVE_S1.);
#1225 = LINE('',#1226,#1227);
#1226 = CARTESIAN_POINT('',(-65.8,-6.8,3.));
#1227 = VECTOR('',#1228,1.);
#1228 = DIRECTION('',(0.,0.,1.));
#1229 = PCURVE('',#1100,#1230);
#1230 = DEFINITIONAL_REPRESENTATION('',(#1231),#1235);
#1231 = LINE('',#1232,#1233);
#1232 = CARTESIAN_POINT('',(0.,0.));
#1233 = VECTOR('',#1234,1.);
#1234 = DIRECTION('',(0.,-1.));
#1235 = ( GEOMETRIC_REPRESENTATION_CONTEXT(2) 
PARAMETRIC_REPRESENTATION_CONTEXT() REPRESENTATION_CONTEXT('2D SPACE',''
  ) );
#1236 = PCURVE('',#1192,#1237);
#1237 = DEFINITIONAL_REPRESENTATION('',(#1238),#1242);
#1238 = LINE('',#1239,#1240);
#1239 = CARTESIAN_POINT('',(4.712388980385,0.));
#1240 = VECTOR('',#1241,1.);
#1241 = DIRECTION('',(0.,-1.));
#1242 = ( GEOMETRIC_REPRESENTATION_CONTEXT(2) 
PARAMETRIC_REPRESENTATION_CONTEXT() REPRESENTATION_CONTEXT('2D SPACE',''
  ) );
#1243 = ORIENTED_EDGE('',*,*,#1082,.T.);
#1244 = ORIENTED_EDGE('',*,*,#1245,.F.);
#1245 = EDGE_CURVE('',#1246,#1085,#1248,.T.);
#1246 = VERTEX_POINT('',#1247);
#1247 = CARTESIAN_POINT('',(-70.2,-6.8,3.));
#1248 = SURFACE_CURVE('',#1249,(#1253,#1260),.PCURVE_S1.);
#1249 = LINE('',#1250,#1251);
#1250 = CARTESIAN_POINT('',(-70.2,-6.8,3.));
#1251 = VECTOR('',#1252,1.);
#1252 = DIRECTION('',(0.,0.,1.));
#1253 = PCURVE('',#1100,#1254);
#1254 = DEFINITIONAL_REPRESENTATION('',(#1255),#1259);
#1255 = LINE('',#1256,#1257);
#1256 = CARTESIAN_POINT('',(4.4,0.));
#1257 = VECTOR('',#1258,1.);
#1258 = DIRECTION('',(0.,-1.));
#1259 = ( GEOMETRIC_REPRESENTATION_CONTEXT(2) 
PARAMETRIC_REPRESENTATION_CONTEXT() REPRESENTATION_CONTEXT('2D SPACE',''
  ) );
#1260 = PCURVE('',#1133,#1261);
#1261 = DEFINITIONAL_REPRESENTATION('',(#1262),#1266);
#1262 = LINE('',#1263,#1264);
#1263 = CARTESIAN_POINT('',(1.570796326795,0.));
#1264 = VECTOR('',#1265,1.);
#1265 = DIRECTION('',(0.,-1.));
#1266 = ( GEOMETRIC_REPRESENTATION_CONTEXT(2) 
PARAMETRIC_REPRESENTATION_CONTEXT() REPRESENTATION_CONTEXT('2D SPACE',''
  ) );
#1267 = ORIENTED_EDGE('',*,*,#1268,.T.);
#1268 = EDGE_CURVE('',#1246,#1222,#1269,.T.);
#1269 = SURFACE_CURVE('',#1270,(#1274,#1281),.PCURVE_S1.);
#1270 = LINE('',#1271,#1272);
#1271 = CARTESIAN_POINT('',(-70.2,-6.8,3.));
#1272 = VECTOR('',#1273,1.);
#1273 = DIRECTION('',(1.,-1.224646799147E-16,0.));
#1274 = PCURVE('',#1100,#1275);
#1275 = DEFINITIONAL_REPRESENTATION('',(#1276),#1280);
#1276 = LINE('',#1277,#1278);
#1277 = CARTESIAN_POINT('',(4.4,0.));
#1278 = VECTOR('',#1279,1.);
#1279 = DIRECTION('',(-1.,0.));
#1280 = ( GEOMETRIC_REPRESENTATION_CONTEXT(2) 
PARAMETRIC_REPRESENTATION_CONTEXT() REPRESENTATION_CONTEXT('2D SPACE',''
  ) );
#1281 = PCURVE('',#1282,#1287);
#1282 = PLANE('',#1283);
#1283 = AXIS2_PLACEMENT_3D('',#1284,#1285,#1286);
#1284 = CARTESIAN_POINT('',(-68.,-6.,3.));
#1285 = DIRECTION('',(0.,0.,1.));
#1286 = DIRECTION('',(-1.,1.224646799147E-16,0.));
#1287 = DEFINITIONAL_REPRESENTATION('',(#1288),#1292);
#1288 = LINE('',#1289,#1290);
#1289 = CARTESIAN_POINT('',(2.2,0.8));
#1290 = VECTOR('',#1291,1.);
#1291 = DIRECTION('',(-1.,0.));
#1292 = ( GEOMETRIC_REPRESENTATION_CONTEXT(2) 
PARAMETRIC_REPRESENTATION_CONTEXT() REPRESENTATION_CONTEXT('2D SPACE',''
  ) );
#1293 = ADVANCED_FACE('',(#1294),#1192,.T.);
#1294 = FACE_BOUND('',#1295,.T.);
#1295 = EDGE_LOOP('',(#1296,#1319,#1320,#1321));
#1296 = ORIENTED_EDGE('',*,*,#1297,.T.);
#1297 = EDGE_CURVE('',#1298,#1146,#1300,.T.);
#1298 = VERTEX_POINT('',#1299);
#1299 = CARTESIAN_POINT('',(-65.8,-5.2,3.));
#1300 = SURFACE_CURVE('',#1301,(#1305,#1312),.PCURVE_S1.);
#1301 = LINE('',#1302,#1303);
#1302 = CARTESIAN_POINT('',(-65.8,-5.2,3.));
#1303 = VECTOR('',#1304,1.);
#1304 = DIRECTION('',(0.,0.,1.));
#1305 = PCURVE('',#1192,#1306);
#1306 = DEFINITIONAL_REPRESENTATION('',(#1307),#1311);
#1307 = LINE('',#1308,#1309);
#1308 = CARTESIAN_POINT('',(1.570796326795,0.));
#1309 = VECTOR('',#1310,1.);
#1310 = DIRECTION('',(0.,-1.));
#1311 = ( GEOMETRIC_REPRESENTATION_CONTEXT(2) 
PARAMETRIC_REPRESENTATION_CONTEXT() REPRESENTATION_CONTEXT('2D SPACE',''
  ) );
#1312 = PCURVE('',#1161,#1313);
#1313 = DEFINITIONAL_REPRESENTATION('',(#1314),#1318);
#1314 = LINE('',#1315,#1316);
#1315 = CARTESIAN_POINT('',(-2.2,0.));
#1316 = VECTOR('',#1317,1.);
#1317 = DIRECTION('',(0.,-1.));
#1318 = ( GEOMETRIC_REPRESENTATION_CONTEXT(2) 
PARAMETRIC_REPRESENTATION_CONTEXT() REPRESENTATION_CONTEXT('2D SPACE',''
  ) );
#1319 = ORIENTED_EDGE('',*,*,#1173,.T.);
#1320 = ORIENTED_EDGE('',*,*,#1221,.F.);
#1321 = ORIENTED_EDGE('',*,*,#1322,.F.);
#1322 = EDGE_CURVE('',#1298,#1222,#1323,.T.);
#1323 = SURFACE_CURVE('',#1324,(#1329,#1336),.PCURVE_S1.);
#1324 = CIRCLE('',#1325,0.8);
#1325 = AXIS2_PLACEMENT_3D('',#1326,#1327,#1328);
#1326 = CARTESIAN_POINT('',(-65.8,-6.,3.));
#1327 = DIRECTION('',(0.,0.,-1.));
#1328 = DIRECTION('',(-1.,1.224646799147E-16,0.));
#1329 = PCURVE('',#1192,#1330);
#1330 = DEFINITIONAL_REPRESENTATION('',(#1331),#1335);
#1331 = LINE('',#1332,#1333);
#1332 = CARTESIAN_POINT('',(0.,0.));
#1333 = VECTOR('',#1334,1.);
#1334 = DIRECTION('',(1.,0.));
#1335 = ( GEOMETRIC_REPRESENTATION_CONTEXT(2) 
PARAMETRIC_REPRESENTATION_CONTEXT() REPRESENTATION_CONTEXT('2D SPACE',''
  ) );
#1336 = PCURVE('',#1282,#1337);
#1337 = DEFINITIONAL_REPRESENTATION('',(#1338),#1346);
#1338 = ( BOUNDED_CURVE() B_SPLINE_CURVE(2,(#1339,#1340,#1341,#1342,
#1343,#1344,#1345),.UNSPECIFIED.,.T.,.F.) B_SPLINE_CURVE_WITH_KNOTS((1,2
    ,2,2,2,1),(-2.094395102393,0.,2.094395102393,4.188790204786,
6.28318530718,8.377580409573),.UNSPECIFIED.) CURVE() 
GEOMETRIC_REPRESENTATION_ITEM() RATIONAL_B_SPLINE_CURVE((1.,0.5,1.,0.5,
1.,0.5,1.)) REPRESENTATION_ITEM('') );
#1339 = CARTESIAN_POINT('',(-1.4,0.));
#1340 = CARTESIAN_POINT('',(-1.4,-1.385640646055));
#1341 = CARTESIAN_POINT('',(-2.6,-0.692820323028));
#1342 = CARTESIAN_POINT('',(-3.8,-1.959434878636E-16));
#1343 = CARTESIAN_POINT('',(-2.6,0.692820323028));
#1344 = CARTESIAN_POINT('',(-1.4,1.385640646055));
#1345 = CARTESIAN_POINT('',(-1.4,0.));
#1346 = ( GEOMETRIC_REPRESENTATION_CONTEXT(2) 
PARAMETRIC_REPRESENTATION_CONTEXT() REPRESENTATION_CONTEXT('2D SPACE',''
  ) );
#1347 = ADVANCED_FACE('',(#1348),#1161,.F.);
#1348 = FACE_BOUND('',#1349,.F.);
#1349 = EDGE_LOOP('',(#1350,#1373,#1394,#1395));
#1350 = ORIENTED_EDGE('',*,*,#1351,.F.);
#1351 = EDGE_CURVE('',#1352,#1113,#1354,.T.);
#1352 = VERTEX_POINT('',#1353);
#1353 = CARTESIAN_POINT('',(-70.2,-5.2,3.));
#1354 = SURFACE_CURVE('',#1355,(#1359,#1366),.PCURVE_S1.);
#1355 = LINE('',#1356,#1357);
#1356 = CARTESIAN_POINT('',(-70.2,-5.2,3.));
#1357 = VECTOR('',#1358,1.);
#1358 = DIRECTION('',(0.,0.,1.));
#1359 = PCURVE('',#1161,#1360);
#1360 = DEFINITIONAL_REPRESENTATION('',(#1361),#1365);
#1361 = LINE('',#1362,#1363);
#1362 = CARTESIAN_POINT('',(2.2,0.));
#1363 = VECTOR('',#1364,1.);
#1364 = DIRECTION('',(0.,-1.));
#1365 = ( GEOMETRIC_REPRESENTATION_CONTEXT(2) 
PARAMETRIC_REPRESENTATION_CONTEXT() REPRESENTATION_CONTEXT('2D SPACE',''
  ) );
#1366 = PCURVE('',#1133,#1367);
#1367 = DEFINITIONAL_REPRESENTATION('',(#1368),#1372);
#1368 = LINE('',#1369,#1370);
#1369 = CARTESIAN_POINT('',(4.712388980385,0.));
#1370 = VECTOR('',#1371,1.);
#1371 = DIRECTION('',(0.,-1.));
#1372 = ( GEOMETRIC_REPRESENTATION_CONTEXT(2) 
PARAMETRIC_REPRESENTATION_CONTEXT() REPRESENTATION_CONTEXT('2D SPACE',''
  ) );
#1373 = ORIENTED_EDGE('',*,*,#1374,.F.);
#1374 = EDGE_CURVE('',#1298,#1352,#1375,.T.);
#1375 = SURFACE_CURVE('',#1376,(#1380,#1387),.PCURVE_S1.);
#1376 = LINE('',#1377,#1378);
#1377 = CARTESIAN_POINT('',(-65.8,-5.2,3.));
#1378 = VECTOR('',#1379,1.);
#1379 = DIRECTION('',(-1.,1.224646799147E-16,0.));
#1380 = PCURVE('',#1161,#1381);
#1381 = DEFINITIONAL_REPRESENTATION('',(#1382),#1386);
#1382 = LINE('',#1383,#1384);
#1383 = CARTESIAN_POINT('',(-2.2,0.));
#1384 = VECTOR('',#1385,1.);
#1385 = DIRECTION('',(1.,0.));
#1386 = ( GEOMETRIC_REPRESENTATION_CONTEXT(2) 
PARAMETRIC_REPRESENTATION_CONTEXT() REPRESENTATION_CONTEXT('2D SPACE',''
  ) );
#1387 = PCURVE('',#1282,#1388);
#1388 = DEFINITIONAL_REPRESENTATION('',(#1389),#1393);
#1389 = LINE('',#1390,#1391);
#1390 = CARTESIAN_POINT('',(-2.2,-0.8));
#1391 = VECTOR('',#1392,1.);
#1392 = DIRECTION('',(1.,0.));
#1393 = ( GEOMETRIC_REPRESENTATION_CONTEXT(2) 
PARAMETRIC_REPRESENTATION_CONTEXT() REPRESENTATION_CONTEXT('2D SPACE',''
  ) );
#1394 = ORIENTED_EDGE('',*,*,#1297,.T.);
#1395 = ORIENTED_EDGE('',*,*,#1145,.F.);
#1396 = ADVANCED_FACE('',(#1397),#1133,.T.);
#1397 = FACE_BOUND('',#1398,.T.);
#1398 = EDGE_LOOP('',(#1399,#1400,#1401,#1402));
#1399 = ORIENTED_EDGE('',*,*,#1245,.T.);
#1400 = ORIENTED_EDGE('',*,*,#1112,.T.);
#1401 = ORIENTED_EDGE('',*,*,#1351,.F.);
#1402 = ORIENTED_EDGE('',*,*,#1403,.F.);
#1403 = EDGE_CURVE('',#1246,#1352,#1404,.T.);
#1404 = SURFACE_CURVE('',#1405,(#1410,#1417),.PCURVE_S1.);
#1405 = CIRCLE('',#1406,0.8);
#1406 = AXIS2_PLACEMENT_3D('',#1407,#1408,#1409);
#1407 = CARTESIAN_POINT('',(-70.2,-6.,3.));
#1408 = DIRECTION('',(0.,-0.,-1.));
#1409 = DIRECTION('',(1.,-1.224646799147E-16,0.));
#1410 = PCURVE('',#1133,#1411);
#1411 = DEFINITIONAL_REPRESENTATION('',(#1412),#1416);
#1412 = LINE('',#1413,#1414);
#1413 = CARTESIAN_POINT('',(0.,0.));
#1414 = VECTOR('',#1415,1.);
#1415 = DIRECTION('',(1.,0.));
#1416 = ( GEOMETRIC_REPRESENTATION_CONTEXT(2) 
PARAMETRIC_REPRESENTATION_CONTEXT() REPRESENTATION_CONTEXT('2D SPACE',''
  ) );
#1417 = PCURVE('',#1282,#1418);
#1418 = DEFINITIONAL_REPRESENTATION('',(#1419),#1427);
#1419 = ( BOUNDED_CURVE() B_SPLINE_CURVE(2,(#1420,#1421,#1422,#1423,
#1424,#1425,#1426),.UNSPECIFIED.,.T.,.F.) B_SPLINE_CURVE_WITH_KNOTS((1,2
    ,2,2,2,1),(-2.094395102393,0.,2.094395102393,4.188790204786,
6.28318530718,8.377580409573),.UNSPECIFIED.) CURVE() 
GEOMETRIC_REPRESENTATION_ITEM() RATIONAL_B_SPLINE_CURVE((1.,0.5,1.,0.5,
1.,0.5,1.)) REPRESENTATION_ITEM('') );
#1420 = CARTESIAN_POINT('',(1.4,0.));
#1421 = CARTESIAN_POINT('',(1.4,1.385640646055));
#1422 = CARTESIAN_POINT('',(2.6,0.692820323028));
#1423 = CARTESIAN_POINT('',(3.8,1.959434878636E-16));
#1424 = CARTESIAN_POINT('',(2.6,-0.692820323028));
#1425 = CARTESIAN_POINT('',(1.4,-1.385640646055));
#1426 = CARTESIAN_POINT('',(1.4,0.));
#1427 = ( GEOMETRIC_REPRESENTATION_CONTEXT(2) 
PARAMETRIC_REPRESENTATION_CONTEXT() REPRESENTATION_CONTEXT('2D SPACE',''
  ) );
#1428 = ADVANCED_FACE('',(#1429),#1282,.F.);
#1429 = FACE_BOUND('',#1430,.T.);
#1430 = EDGE_LOOP('',(#1431,#1432,#1433,#1434));
#1431 = ORIENTED_EDGE('',*,*,#1403,.T.);
#1432 = ORIENTED_EDGE('',*,*,#1374,.F.);
#1433 = ORIENTED_EDGE('',*,*,#1322,.T.);
#1434 = ORIENTED_EDGE('',*,*,#1268,.F.);
#1435 = ( GEOMETRIC_REPRESENTATION_CONTEXT(3) 
GLOBAL_UNCERTAINTY_ASSIGNED_CONTEXT((#1439)) 
GLOBAL_UNIT_ASSIGNED_CONTEXT((#1436,#1437,#1438)) REPRESENTATION_CONTEXT
('Context #1','3D Context with UNIT and UNCERTAINTY') );
#1436 = ( LENGTH_UNIT() NAMED_UNIT(*) SI_UNIT(.MILLI.,.METRE.) );
#1437 = ( NAMED_UNIT(*) PLANE_ANGLE_UNIT() SI_UNIT($,.RADIAN.) );
#1438 = ( NAMED_UNIT(*) SI_UNIT($,.STERADIAN.) SOLID_ANGLE_UNIT() );
#1439 = UNCERTAINTY_MEASURE_WITH_UNIT(LENGTH_MEASURE(1.E-07),#1436,
  'distance_accuracy_value','confusion accuracy');
#1440 = CONTEXT_DEPENDENT_SHAPE_REPRESENTATION(#1441,#1443);
#1441 = ( REPRESENTATION_RELATIONSHIP('','',#32,#10) 
REPRESENTATION_RELATIONSHIP_WITH_TRANSFORMATION(#1442) 
SHAPE_REPRESENTATION_RELATIONSHIP() );
#1442 = ITEM_DEFINED_TRANSFORMATION('','',#11,#15);
#1443 = PRODUCT_DEFINITION_SHAPE('Placement','Placement of an item',
  #1444);
#1444 = NEXT_ASSEMBLY_USAGE_OCCURRENCE('103','=>[0:1:1:2]','',#5,#27,$);
#1445 = PRODUCT_RELATED_PRODUCT_CATEGORY('part',$,(#29));
#1446 = MECHANICAL_DESIGN_GEOMETRIC_PRESENTATION_REPRESENTATION('',(
    #1447),#1435);
#1447 = STYLED_ITEM('color',(#1448),#33);
#1448 = PRESENTATION_STYLE_ASSIGNMENT((#1449));
#1449 = SURFACE_STYLE_USAGE(.BOTH.,#1450);
#1450 = SURFACE_SIDE_STYLE('',(#1451));
#1451 = SURFACE_STYLE_FILL_AREA(#1452);
#1452 = FILL_AREA_STYLE('',(#1453));
#1453 = FILL_AREA_STYLE_COLOUR('',#1454);
#1454 = COLOUR_RGB('',0.556999999688,0.235000001234,2.40000002319E-02);

#1455=DESCRIPTIVE_REPRESENTATION_ITEM('cadgen:generator','cadgen');
#1456=REPRESENTATION('cadgen:generator',(#1455),#19);
#1457=PROPERTY_DEFINITION('cadgen metadata','cadgen:generator',#5);
#1458=PROPERTY_DEFINITION_REPRESENTATION(#1457,#1456);
#1459=DESCRIPTIVE_REPRESENTATION_ITEM('cadgen:entryKind','part');
#1460=REPRESENTATION('cadgen:entryKind',(#1459),#19);
#1461=PROPERTY_DEFINITION('cadgen metadata','cadgen:entryKind',#5);
#1462=PROPERTY_DEFINITION_REPRESENTATION(#1461,#1460);
#1463=DESCRIPTIVE_REPRESENTATION_ITEM('cadgen:sourcePath','part_lane_18_cocoa_brown.step.py');
#1464=REPRESENTATION('cadgen:sourcePath',(#1463),#19);
#1465=PROPERTY_DEFINITION('cadgen metadata','cadgen:sourcePath',#5);
#1466=PROPERTY_DEFINITION_REPRESENTATION(#1465,#1464);
#1467=DESCRIPTIVE_REPRESENTATION_ITEM('cadgen:sourceHash','6f3a0966a630575a068dce558e5181fef4e20823db74dcf6f8cbcb5ddcde2e17');
#1468=REPRESENTATION('cadgen:sourceHash',(#1467),#19);
#1469=PROPERTY_DEFINITION('cadgen metadata','cadgen:sourceHash',#5);
#1470=PROPERTY_DEFINITION_REPRESENTATION(#1469,#1468);
ENDSEC;
END-ISO-10303-21;
