ISO-10303-21;
HEADER;
FILE_DESCRIPTION(('Open CASCADE Model'),'2;1');
FILE_NAME('Open CASCADE Shape Model','1970-01-01T00:00:00',('Author'),(
    'Open CASCADE'),'Open CASCADE STEP processor 7.9','cadgen','Unknown'
  );
FILE_SCHEMA(('AUTOMOTIVE_DESIGN { 1 0 10303 214 1 1 1 1 }'));
ENDSEC;
DATA;
#1 = APPLICATION_PROTOCOL_DEFINITION('international standard',
  'automotive_design',2000,#2);
#2 = APPLICATION_CONTEXT(
  'core data for automotive mechanical design processes');
#3 = SHAPE_DEFINITION_REPRESENTATION(#4,#10);
#4 = PRODUCT_DEFINITION_SHAPE('','',#5);
#5 = PRODUCT_DEFINITION('design','',#6,#9);
#6 = PRODUCT_DEFINITION_FORMATION('','',#7);
#7 = PRODUCT('=>[0:1:1:2]','=>[0:1:1:2]','',(#8));
#8 = PRODUCT_CONTEXT('',#2,'mechanical');
#9 = PRODUCT_DEFINITION_CONTEXT('part definition',#2,'design');
#10 = SHAPE_REPRESENTATION('',(#11,#15),#19);
#11 = AXIS2_PLACEMENT_3D('',#12,#13,#14);
#12 = CARTESIAN_POINT('',(0.,0.,0.));
#13 = DIRECTION('',(0.,0.,1.));
#14 = DIRECTION('',(1.,0.,-0.));
#15 = AXIS2_PLACEMENT_3D('',#16,#17,#18);
#16 = CARTESIAN_POINT('',(0.,0.,38.5));
#17 = DIRECTION('',(0.,-1.,2.22044604925E-16));
#18 = DIRECTION('',(1.,0.,0.));
#19 = ( GEOMETRIC_REPRESENTATION_CONTEXT(3) 
GLOBAL_UNCERTAINTY_ASSIGNED_CONTEXT((#23)) GLOBAL_UNIT_ASSIGNED_CONTEXT(
(#20,#21,#22)) REPRESENTATION_CONTEXT('Context #1',
  '3D Context with UNIT and UNCERTAINTY') );
#20 = ( LENGTH_UNIT() NAMED_UNIT(*) SI_UNIT(.MILLI.,.METRE.) );
#21 = ( NAMED_UNIT(*) PLANE_ANGLE_UNIT() SI_UNIT($,.RADIAN.) );
#22 = ( NAMED_UNIT(*) SI_UNIT($,.STERADIAN.) SOLID_ANGLE_UNIT() );
#23 = UNCERTAINTY_MEASURE_WITH_UNIT(LENGTH_MEASURE(1.E-06),#20,
  'distance_accuracy_value','confusion accuracy');
#24 = PRODUCT_RELATED_PRODUCT_CATEGORY('part',$,(#7));
#25 = SHAPE_DEFINITION_REPRESENTATION(#26,#32);
#26 = PRODUCT_DEFINITION_SHAPE('','',#27);
#27 = PRODUCT_DEFINITION('design','',#28,#31);
#28 = PRODUCT_DEFINITION_FORMATION('','',#29);
#29 = PRODUCT('COMPOUND','COMPOUND','',(#30));
#30 = PRODUCT_CONTEXT('',#2,'mechanical');
#31 = PRODUCT_DEFINITION_CONTEXT('part definition',#2,'design');
#32 = ADVANCED_BREP_SHAPE_REPRESENTATION('',(#11,#33),#1601);
#33 = MANIFOLD_SOLID_BREP('',#34);
#34 = CLOSED_SHELL('',(#35,#127,#162,#538,#672,#892,#919,#969,#1019,
    #1121,#1156,#1211,#1215,#1246,#1275,#1283,#1393,#1469,#1540,#1567,
    #1594));
#35 = ADVANCED_FACE('',(#36),#49,.T.);
#36 = FACE_BOUND('',#37,.T.);
#37 = EDGE_LOOP('',(#38,#76,#99,#126));
#38 = ORIENTED_EDGE('',*,*,#39,.T.);
#39 = EDGE_CURVE('',#40,#40,#42,.T.);
#40 = VERTEX_POINT('',#41);
#41 = CARTESIAN_POINT('',(3.,31.3,-7.684784213642E-15));
#42 = SURFACE_CURVE('',#43,(#48,#60),.PCURVE_S1.);
#43 = CIRCLE('',#44,3.);
#44 = AXIS2_PLACEMENT_3D('',#45,#46,#47);
#45 = CARTESIAN_POINT('',(0.,31.3,-6.949996134153E-15));
#46 = DIRECTION('',(0.,-1.,2.22044604925E-16));
#47 = DIRECTION('',(1.,0.,0.));
#48 = PCURVE('',#49,#54);
#49 = CYLINDRICAL_SURFACE('',#50,3.);
#50 = AXIS2_PLACEMENT_3D('',#51,#52,#53);
#51 = CARTESIAN_POINT('',(0.,35.,-7.771561172376E-15));
#52 = DIRECTION('',(0.,-1.,2.22044604925E-16));
#53 = DIRECTION('',(1.,0.,0.));
#54 = DEFINITIONAL_REPRESENTATION('',(#55),#59);
#55 = LINE('',#56,#57);
#56 = CARTESIAN_POINT('',(0.,3.7));
#57 = VECTOR('',#58,1.);
#58 = DIRECTION('',(1.,0.));
#59 = ( GEOMETRIC_REPRESENTATION_CONTEXT(2) 
PARAMETRIC_REPRESENTATION_CONTEXT() REPRESENTATION_CONTEXT('2D SPACE',''
  ) );
#60 = PCURVE('',#61,#66);
#61 = PLANE('',#62);
#62 = AXIS2_PLACEMENT_3D('',#63,#64,#65);
#63 = CARTESIAN_POINT('',(-20.,31.3,-20.));
#64 = DIRECTION('',(-0.,1.,0.));
#65 = DIRECTION('',(0.,0.,1.));
#66 = DEFINITIONAL_REPRESENTATION('',(#67),#75);
#67 = ( BOUNDED_CURVE() B_SPLINE_CURVE(2,(#68,#69,#70,#71,#72,#73,#74),
.UNSPECIFIED.,.T.,.F.) B_SPLINE_CURVE_WITH_KNOTS((1,2,2,2,2,1),(
    -2.094395102393,0.,2.094395102393,4.188790204786,6.28318530718,
8.377580409573),.UNSPECIFIED.) CURVE() GEOMETRIC_REPRESENTATION_ITEM() 
RATIONAL_B_SPLINE_CURVE((1.,0.5,1.,0.5,1.,0.5,1.)) REPRESENTATION_ITEM(
  '') );
#68 = CARTESIAN_POINT('',(20.,23.));
#69 = CARTESIAN_POINT('',(25.196152422707,23.));
#70 = CARTESIAN_POINT('',(22.598076211353,18.5));
#71 = CARTESIAN_POINT('',(20.,14.));
#72 = CARTESIAN_POINT('',(17.401923788647,18.5));
#73 = CARTESIAN_POINT('',(14.803847577293,23.));
#74 = CARTESIAN_POINT('',(20.,23.));
#75 = ( GEOMETRIC_REPRESENTATION_CONTEXT(2) 
PARAMETRIC_REPRESENTATION_CONTEXT() REPRESENTATION_CONTEXT('2D SPACE',''
  ) );
#76 = ORIENTED_EDGE('',*,*,#77,.T.);
#77 = EDGE_CURVE('',#40,#78,#80,.T.);
#78 = VERTEX_POINT('',#79);
#79 = CARTESIAN_POINT('',(3.,4.5,-1.733988801651E-15));
#80 = SEAM_CURVE('',#81,(#85,#92),.PCURVE_S1.);
#81 = LINE('',#82,#83);
#82 = CARTESIAN_POINT('',(3.,35.,-8.506349251865E-15));
#83 = VECTOR('',#84,1.);
#84 = DIRECTION('',(0.,-1.,2.22044604925E-16));
#85 = PCURVE('',#49,#86);
#86 = DEFINITIONAL_REPRESENTATION('',(#87),#91);
#87 = LINE('',#88,#89);
#88 = CARTESIAN_POINT('',(0.,-0.));
#89 = VECTOR('',#90,1.);
#90 = DIRECTION('',(0.,1.));
#91 = ( GEOMETRIC_REPRESENTATION_CONTEXT(2) 
PARAMETRIC_REPRESENTATION_CONTEXT() REPRESENTATION_CONTEXT('2D SPACE',''
  ) );
#92 = PCURVE('',#49,#93);
#93 = DEFINITIONAL_REPRESENTATION('',(#94),#98);
#94 = LINE('',#95,#96);
#95 = CARTESIAN_POINT('',(6.28318530718,-0.));
#96 = VECTOR('',#97,1.);
#97 = DIRECTION('',(0.,1.));
#98 = ( GEOMETRIC_REPRESENTATION_CONTEXT(2) 
PARAMETRIC_REPRESENTATION_CONTEXT() REPRESENTATION_CONTEXT('2D SPACE',''
  ) );
#99 = ORIENTED_EDGE('',*,*,#100,.F.);
#100 = EDGE_CURVE('',#78,#78,#101,.T.);
#101 = SURFACE_CURVE('',#102,(#107,#114),.PCURVE_S1.);
#102 = CIRCLE('',#103,3.);
#103 = AXIS2_PLACEMENT_3D('',#104,#105,#106);
#104 = CARTESIAN_POINT('',(0.,4.5,-9.992007221626E-16));
#105 = DIRECTION('',(0.,-1.,2.22044604925E-16));
#106 = DIRECTION('',(1.,0.,0.));
#107 = PCURVE('',#49,#108);
#108 = DEFINITIONAL_REPRESENTATION('',(#109),#113);
#109 = LINE('',#110,#111);
#110 = CARTESIAN_POINT('',(0.,30.5));
#111 = VECTOR('',#112,1.);
#112 = DIRECTION('',(1.,0.));
#113 = ( GEOMETRIC_REPRESENTATION_CONTEXT(2) 
PARAMETRIC_REPRESENTATION_CONTEXT() REPRESENTATION_CONTEXT('2D SPACE',''
  ) );
#114 = PCURVE('',#115,#120);
#115 = PLANE('',#116);
#116 = AXIS2_PLACEMENT_3D('',#117,#118,#119);
#117 = CARTESIAN_POINT('',(0.,4.5,-9.992007221626E-16));
#118 = DIRECTION('',(0.,-1.,2.22044604925E-16));
#119 = DIRECTION('',(1.,0.,0.));
#120 = DEFINITIONAL_REPRESENTATION('',(#121),#125);
#121 = CIRCLE('',#122,3.);
#122 = AXIS2_PLACEMENT_2D('',#123,#124);
#123 = CARTESIAN_POINT('',(0.,0.));
#124 = DIRECTION('',(1.,0.));
#125 = ( GEOMETRIC_REPRESENTATION_CONTEXT(2) 
PARAMETRIC_REPRESENTATION_CONTEXT() REPRESENTATION_CONTEXT('2D SPACE',''
  ) );
#126 = ORIENTED_EDGE('',*,*,#77,.F.);
#127 = ADVANCED_FACE('',(#128,#159),#115,.F.);
#128 = FACE_BOUND('',#129,.F.);
#129 = EDGE_LOOP('',(#130));
#130 = ORIENTED_EDGE('',*,*,#131,.T.);
#131 = EDGE_CURVE('',#132,#132,#134,.T.);
#132 = VERTEX_POINT('',#133);
#133 = CARTESIAN_POINT('',(4.2,4.5,-2.027904033446E-15));
#134 = SURFACE_CURVE('',#135,(#140,#147),.PCURVE_S1.);
#135 = CIRCLE('',#136,4.2);
#136 = AXIS2_PLACEMENT_3D('',#137,#138,#139);
#137 = CARTESIAN_POINT('',(0.,4.5,-9.992007221626E-16));
#138 = DIRECTION('',(0.,-1.,2.22044604925E-16));
#139 = DIRECTION('',(1.,0.,0.));
#140 = PCURVE('',#115,#141);
#141 = DEFINITIONAL_REPRESENTATION('',(#142),#146);
#142 = CIRCLE('',#143,4.2);
#143 = AXIS2_PLACEMENT_2D('',#144,#145);
#144 = CARTESIAN_POINT('',(0.,0.));
#145 = DIRECTION('',(1.,0.));
#146 = ( GEOMETRIC_REPRESENTATION_CONTEXT(2) 
PARAMETRIC_REPRESENTATION_CONTEXT() REPRESENTATION_CONTEXT('2D SPACE',''
  ) );
#147 = PCURVE('',#148,#153);
#148 = CYLINDRICAL_SURFACE('',#149,4.2);
#149 = AXIS2_PLACEMENT_3D('',#150,#151,#152);
#150 = CARTESIAN_POINT('',(0.,4.5,-9.992007221626E-16));
#151 = DIRECTION('',(0.,-1.,2.22044604925E-16));
#152 = DIRECTION('',(1.,0.,0.));
#153 = DEFINITIONAL_REPRESENTATION('',(#154),#158);
#154 = LINE('',#155,#156);
#155 = CARTESIAN_POINT('',(0.,0.));
#156 = VECTOR('',#157,1.);
#157 = DIRECTION('',(1.,0.));
#158 = ( GEOMETRIC_REPRESENTATION_CONTEXT(2) 
PARAMETRIC_REPRESENTATION_CONTEXT() REPRESENTATION_CONTEXT('2D SPACE',''
  ) );
#159 = FACE_BOUND('',#160,.F.);
#160 = EDGE_LOOP('',(#161));
#161 = ORIENTED_EDGE('',*,*,#100,.F.);
#162 = ADVANCED_FACE('',(#163),#148,.T.);
#163 = FACE_BOUND('',#164,.T.);
#164 = EDGE_LOOP('',(#165,#267,#293,#321,#347,#515,#536,#537));
#165 = ORIENTED_EDGE('',*,*,#166,.F.);
#166 = EDGE_CURVE('',#167,#169,#171,.T.);
#167 = VERTEX_POINT('',#168);
#168 = CARTESIAN_POINT('',(3.794733192202,-4.40872847693E-16,-1.8));
#169 = VERTEX_POINT('',#170);
#170 = CARTESIAN_POINT('',(4.2,1.8,-1.428383600149E-15));
#171 = SURFACE_CURVE('',#172,(#200,#231),.PCURVE_S1.);
#172 = B_SPLINE_CURVE_WITH_KNOTS('',6,(#173,#174,#175,#176,#177,#178,
    #179,#180,#181,#182,#183,#184,#185,#186,#187,#188,#189,#190,#191,
    #192,#193,#194,#195,#196,#197,#198,#199),.UNSPECIFIED.,.F.,.F.,(7,5,
    5,5,5,7),(0.,0.243998905669,0.524095545642,0.613692102962,
    0.733926470119,1.),.UNSPECIFIED.);
#173 = CARTESIAN_POINT('',(3.794733192202,0.,-1.8));
#174 = CARTESIAN_POINT('',(3.794733192202,0.103536822659,-1.8));
#175 = CARTESIAN_POINT('',(3.798122658542,0.207035346622,-1.792853642151
    ));
#176 = CARTESIAN_POINT('',(3.804899095213,0.310050614145,-1.778569741558
    ));
#177 = CARTESIAN_POINT('',(3.814933567976,0.412119427513,-1.757152415607
    ));
#178 = CARTESIAN_POINT('',(3.827979263214,0.512757107507,-1.728609838144
    ));
#179 = CARTESIAN_POINT('',(3.861703638801,0.724752868655,-1.652042476649
    ));
#180 = CARTESIAN_POINT('',(3.883221349333,0.835461182717,-1.601771709847
    ));
#181 = CARTESIAN_POINT('',(3.907725545704,0.9430124361,-1.542119112349)
  );
#182 = CARTESIAN_POINT('',(3.934567688887,1.046736536582,-1.472968381655
    ));
#183 = CARTESIAN_POINT('',(3.962950997069,1.14579781883,-1.394168562952)
  );
#184 = CARTESIAN_POINT('',(4.001190630246,1.26898854922,-1.277247965334)
  );
#185 = CARTESIAN_POINT('',(4.010519747249,1.298262691326,-1.247906628203
    ));
#186 = CARTESIAN_POINT('',(4.019879779567,1.326921496539,-1.217553492408
    ));
#187 = CARTESIAN_POINT('',(4.029238069965,1.354927596315,-1.1861832187)
  );
#188 = CARTESIAN_POINT('',(4.038559984625,1.38223998889,-1.153791743179)
  );
#189 = CARTESIAN_POINT('',(4.060220540323,1.444475165411,-1.075534293252
    ));
#190 = CARTESIAN_POINT('',(4.072503634694,1.478815008819,-1.028837967389
    ));
#191 = CARTESIAN_POINT('',(4.084565837459,1.511713491683,-0.98029347188)
  );
#192 = CARTESIAN_POINT('',(4.096309365746,1.543043903717,-0.929913415428
    ));
#193 = CARTESIAN_POINT('',(4.107632301737,1.572672425295,-0.877717394881
    ));
#194 = CARTESIAN_POINT('',(4.142324466248,1.661945169835,-0.704266379097
    ));
#195 = CARTESIAN_POINT('',(4.16384810729,1.714925001602,-0.575031106163)
  );
#196 = CARTESIAN_POINT('',(4.181445969289,1.756707101852,-0.437734109156
    ));
#197 = CARTESIAN_POINT('',(4.193760006003,1.785440044326,-0.294519770137
    ));
#198 = CARTESIAN_POINT('',(4.2,1.8,-0.147783160863));
#199 = CARTESIAN_POINT('',(4.2,1.8,-2.22044604925E-16));
#200 = PCURVE('',#148,#201);
#201 = DEFINITIONAL_REPRESENTATION('',(#202),#230);
#202 = B_SPLINE_CURVE_WITH_KNOTS('',6,(#203,#204,#205,#206,#207,#208,
    #209,#210,#211,#212,#213,#214,#215,#216,#217,#218,#219,#220,#221,
    #222,#223,#224,#225,#226,#227,#228,#229),.UNSPECIFIED.,.F.,.F.,(7,5,
    5,5,5,7),(0.,0.243998905669,0.524095545642,0.613692102962,
    0.733926470119,1.),.UNSPECIFIED.);
#203 = CARTESIAN_POINT('',(5.840274263106,4.5));
#204 = CARTESIAN_POINT('',(5.840274263106,4.396463177341));
#205 = CARTESIAN_POINT('',(5.842157408697,4.292964653378));
#206 = CARTESIAN_POINT('',(5.845921789745,4.189949385855));
#207 = CARTESIAN_POINT('',(5.851552876955,4.087880572487));
#208 = CARTESIAN_POINT('',(5.859024263787,3.987242892493));
#209 = CARTESIAN_POINT('',(5.878944590287,3.775247131345));
#210 = CARTESIAN_POINT('',(5.891963412617,3.664538817283));
#211 = CARTESIAN_POINT('',(5.907315596653,3.5569875639));
#212 = CARTESIAN_POINT('',(5.924970478611,3.453263463418));
#213 = CARTESIAN_POINT('',(5.944903644313,3.35420218117));
#214 = CARTESIAN_POINT('',(5.974192935318,3.23101145078));
#215 = CARTESIAN_POINT('',(5.981523346959,3.201737308674));
#216 = CARTESIAN_POINT('',(5.989085642743,3.173078503461));
#217 = CARTESIAN_POINT('',(5.996879485278,3.145072403685));
#218 = CARTESIAN_POINT('',(6.004904355822,3.11776001111));
#219 = CARTESIAN_POINT('',(6.024237642449,3.055524834589));
#220 = CARTESIAN_POINT('',(6.035733079258,3.021184991181));
#221 = CARTESIAN_POINT('',(6.047641025838,2.988286508317));
#222 = CARTESIAN_POINT('',(6.05995575447,2.956956096283));
#223 = CARTESIAN_POINT('',(6.072670760531,2.927327574705));
#224 = CARTESIAN_POINT('',(6.114786571838,2.838054830165));
#225 = CARTESIAN_POINT('',(6.145964411059,2.785074998398));
#226 = CARTESIAN_POINT('',(6.178884732129,2.743292898148));
#227 = CARTESIAN_POINT('',(6.213061490499,2.714559955674));
#228 = CARTESIAN_POINT('',(6.247998840307,2.7));
#229 = CARTESIAN_POINT('',(6.28318530718,2.7));
#230 = ( GEOMETRIC_REPRESENTATION_CONTEXT(2) 
PARAMETRIC_REPRESENTATION_CONTEXT() REPRESENTATION_CONTEXT('2D SPACE',''
  ) );
#231 = PCURVE('',#232,#237);
#232 = CYLINDRICAL_SURFACE('',#233,1.8);
#233 = AXIS2_PLACEMENT_3D('',#234,#235,#236);
#234 = CARTESIAN_POINT('',(1.7,0.,-5.551115123126E-16));
#235 = DIRECTION('',(1.,0.,2.22044604925E-16));
#236 = DIRECTION('',(2.22044604925E-16,0.,-1.));
#237 = DEFINITIONAL_REPRESENTATION('',(#238),#266);
#238 = B_SPLINE_CURVE_WITH_KNOTS('',6,(#239,#240,#241,#242,#243,#244,
    #245,#246,#247,#248,#249,#250,#251,#252,#253,#254,#255,#256,#257,
    #258,#259,#260,#261,#262,#263,#264,#265),.UNSPECIFIED.,.F.,.F.,(7,5,
    5,5,5,7),(0.,0.243998905669,0.524095545642,0.613692102962,
    0.733926470119,1.),.UNSPECIFIED.);
#239 = CARTESIAN_POINT('',(0.,2.094733192202));
#240 = CARTESIAN_POINT('',(5.752045703282E-02,2.094733192202));
#241 = CARTESIAN_POINT('',(0.115019669711,2.098122658542));
#242 = CARTESIAN_POINT('',(0.172592812716,2.104899095213));
#243 = CARTESIAN_POINT('',(0.230324382614,2.114933567976));
#244 = CARTESIAN_POINT('',(0.288296050734,2.127979263214));
#245 = CARTESIAN_POINT('',(0.41351778443,2.161703638801));
#246 = CARTESIAN_POINT('',(0.480851851301,2.183221349333));
#247 = CARTESIAN_POINT('',(0.548847396509,2.207725545704));
#248 = CARTESIAN_POINT('',(0.617746749977,2.234567688887));
#249 = CARTESIAN_POINT('',(0.68780159251,2.262950997069));
#250 = CARTESIAN_POINT('',(0.782158385499,2.301190630246));
#251 = CARTESIAN_POINT('',(0.805176246387,2.310519747249));
#252 = CARTESIAN_POINT('',(0.82835451344,2.319879779567));
#253 = CARTESIAN_POINT('',(0.851703233982,2.329238069965));
#254 = CARTESIAN_POINT('',(0.875232228481,2.338559984625));
#255 = CARTESIAN_POINT('',(0.930780688211,2.360220540323));
#256 = CARTESIAN_POINT('',(0.96295968719,2.372503634694));
#257 = CARTESIAN_POINT('',(0.995501968487,2.384565837459));
#258 = CARTESIAN_POINT('',(1.028422573647,2.396309365746));
#259 = CARTESIAN_POINT('',(1.061738477206,2.407632301737));
#260 = CARTESIAN_POINT('',(1.170114363143,2.442324466248));
#261 = CARTESIAN_POINT('',(1.247421909104,2.46384810729));
#262 = CARTESIAN_POINT('',(1.326614025802,2.481445969289));
#263 = CARTESIAN_POINT('',(1.407174357868,2.493760006003));
#264 = CARTESIAN_POINT('',(1.48869457076,2.5));
#265 = CARTESIAN_POINT('',(1.570796326795,2.5));
#266 = ( GEOMETRIC_REPRESENTATION_CONTEXT(2) 
PARAMETRIC_REPRESENTATION_CONTEXT() REPRESENTATION_CONTEXT('2D SPACE',''
  ) );
#267 = ORIENTED_EDGE('',*,*,#268,.T.);
#268 = EDGE_CURVE('',#167,#269,#271,.T.);
#269 = VERTEX_POINT('',#270);
#270 = CARTESIAN_POINT('',(3.794733192202,-4.5,-1.8));
#271 = SURFACE_CURVE('',#272,(#276,#282),.PCURVE_S1.);
#272 = LINE('',#273,#274);
#273 = CARTESIAN_POINT('',(3.794733192202,4.5,-1.8));
#274 = VECTOR('',#275,1.);
#275 = DIRECTION('',(0.,-1.,2.22044604925E-16));
#276 = PCURVE('',#148,#277);
#277 = DEFINITIONAL_REPRESENTATION('',(#278),#281);
#278 = B_SPLINE_CURVE_WITH_KNOTS('',1,(#279,#280),.UNSPECIFIED.,.F.,.F.,
  (2,2),(3.82,9.0000024),.PIECEWISE_BEZIER_KNOTS.);
#279 = CARTESIAN_POINT('',(5.840274263106,3.82));
#280 = CARTESIAN_POINT('',(5.840274263106,9.0000024));
#281 = ( GEOMETRIC_REPRESENTATION_CONTEXT(2) 
PARAMETRIC_REPRESENTATION_CONTEXT() REPRESENTATION_CONTEXT('2D SPACE',''
  ) );
#282 = PCURVE('',#283,#288);
#283 = PLANE('',#284);
#284 = AXIS2_PLACEMENT_3D('',#285,#286,#287);
#285 = CARTESIAN_POINT('',(3.595290068526,-2.667766952966,-1.8));
#286 = DIRECTION('',(0.,0.,1.));
#287 = DIRECTION('',(1.,0.,-0.));
#288 = DEFINITIONAL_REPRESENTATION('',(#289),#292);
#289 = B_SPLINE_CURVE_WITH_KNOTS('',1,(#290,#291),.UNSPECIFIED.,.F.,.F.,
  (2,2),(3.82,9.0000024),.PIECEWISE_BEZIER_KNOTS.);
#290 = CARTESIAN_POINT('',(0.199443123676,3.347766952966));
#291 = CARTESIAN_POINT('',(0.199443123676,-1.832235447034));
#292 = ( GEOMETRIC_REPRESENTATION_CONTEXT(2) 
PARAMETRIC_REPRESENTATION_CONTEXT() REPRESENTATION_CONTEXT('2D SPACE',''
  ) );
#293 = ORIENTED_EDGE('',*,*,#294,.F.);
#294 = EDGE_CURVE('',#295,#269,#297,.T.);
#295 = VERTEX_POINT('',#296);
#296 = CARTESIAN_POINT('',(3.794733192202,-4.5,1.8));
#297 = SURFACE_CURVE('',#298,(#303,#310),.PCURVE_S1.);
#298 = CIRCLE('',#299,4.2);
#299 = AXIS2_PLACEMENT_3D('',#300,#301,#302);
#300 = CARTESIAN_POINT('',(0.,-4.5,9.992007221626E-16));
#301 = DIRECTION('',(0.,-1.,2.22044604925E-16));
#302 = DIRECTION('',(1.,0.,0.));
#303 = PCURVE('',#148,#304);
#304 = DEFINITIONAL_REPRESENTATION('',(#305),#309);
#305 = LINE('',#306,#307);
#306 = CARTESIAN_POINT('',(0.,9.));
#307 = VECTOR('',#308,1.);
#308 = DIRECTION('',(1.,0.));
#309 = ( GEOMETRIC_REPRESENTATION_CONTEXT(2) 
PARAMETRIC_REPRESENTATION_CONTEXT() REPRESENTATION_CONTEXT('2D SPACE',''
  ) );
#310 = PCURVE('',#311,#316);
#311 = CONICAL_SURFACE('',#312,3.,0.785398163397);
#312 = AXIS2_PLACEMENT_3D('',#313,#314,#315);
#313 = CARTESIAN_POINT('',(0.,-5.7,-1.33226762955E-16));
#314 = DIRECTION('',(0.,1.,2.22044604925E-16));
#315 = DIRECTION('',(1.,0.,-0.));
#316 = DEFINITIONAL_REPRESENTATION('',(#317),#320);
#317 = B_SPLINE_CURVE_WITH_KNOTS('',1,(#318,#319),.UNSPECIFIED.,.F.,.F.,
  (2,2),(0.,6.28318530718),.PIECEWISE_BEZIER_KNOTS.);
#318 = CARTESIAN_POINT('',(6.28318530718,1.2));
#319 = CARTESIAN_POINT('',(0.,1.2));
#320 = ( GEOMETRIC_REPRESENTATION_CONTEXT(2) 
PARAMETRIC_REPRESENTATION_CONTEXT() REPRESENTATION_CONTEXT('2D SPACE',''
  ) );
#321 = ORIENTED_EDGE('',*,*,#322,.F.);
#322 = EDGE_CURVE('',#323,#295,#325,.T.);
#323 = VERTEX_POINT('',#324);
#324 = CARTESIAN_POINT('',(3.794733192202,-1.950574191752E-14,1.8));
#325 = SURFACE_CURVE('',#326,(#330,#336),.PCURVE_S1.);
#326 = LINE('',#327,#328);
#327 = CARTESIAN_POINT('',(3.794733192202,4.5,1.8));
#328 = VECTOR('',#329,1.);
#329 = DIRECTION('',(0.,-1.,2.22044604925E-16));
#330 = PCURVE('',#148,#331);
#331 = DEFINITIONAL_REPRESENTATION('',(#332),#335);
#332 = B_SPLINE_CURVE_WITH_KNOTS('',1,(#333,#334),.UNSPECIFIED.,.F.,.F.,
  (2,2),(3.82,9.0000024),.PIECEWISE_BEZIER_KNOTS.);
#333 = CARTESIAN_POINT('',(0.442911044074,3.82));
#334 = CARTESIAN_POINT('',(0.442911044074,9.0000024));
#335 = ( GEOMETRIC_REPRESENTATION_CONTEXT(2) 
PARAMETRIC_REPRESENTATION_CONTEXT() REPRESENTATION_CONTEXT('2D SPACE',''
  ) );
#336 = PCURVE('',#337,#342);
#337 = PLANE('',#338);
#338 = AXIS2_PLACEMENT_3D('',#339,#340,#341);
#339 = CARTESIAN_POINT('',(3.595290068526,-2.667766952966,1.8));
#340 = DIRECTION('',(0.,0.,1.));
#341 = DIRECTION('',(1.,0.,-0.));
#342 = DEFINITIONAL_REPRESENTATION('',(#343),#346);
#343 = B_SPLINE_CURVE_WITH_KNOTS('',1,(#344,#345),.UNSPECIFIED.,.F.,.F.,
  (2,2),(3.82,9.0000024),.PIECEWISE_BEZIER_KNOTS.);
#344 = CARTESIAN_POINT('',(0.199443123676,3.347766952966));
#345 = CARTESIAN_POINT('',(0.199443123676,-1.832235447034));
#346 = ( GEOMETRIC_REPRESENTATION_CONTEXT(2) 
PARAMETRIC_REPRESENTATION_CONTEXT() REPRESENTATION_CONTEXT('2D SPACE',''
  ) );
#347 = ORIENTED_EDGE('',*,*,#348,.F.);
#348 = EDGE_CURVE('',#169,#323,#349,.T.);
#349 = SURFACE_CURVE('',#350,(#403,#459),.PCURVE_S1.);
#350 = B_SPLINE_CURVE_WITH_KNOTS('',6,(#351,#352,#353,#354,#355,#356,
    #357,#358,#359,#360,#361,#362,#363,#364,#365,#366,#367,#368,#369,
    #370,#371,#372,#373,#374,#375,#376,#377,#378,#379,#380,#381,#382,
    #383,#384,#385,#386,#387,#388,#389,#390,#391,#392,#393,#394,#395,
    #396,#397,#398,#399,#400,#401,#402),.UNSPECIFIED.,.F.,.F.,(7,5,5,5,5
    ,5,5,5,5,5,7),(0.,0.13278859924,0.1917567554,0.235011257291,
    0.378428032468,0.500001571104,0.622000642722,0.762048515075,
    0.806846653995,0.866963650049,1.),.UNSPECIFIED.);
#351 = CARTESIAN_POINT('',(4.2,1.8,3.445711829034E-16));
#352 = CARTESIAN_POINT('',(4.2,1.8,0.147500679792));
#353 = CARTESIAN_POINT('',(4.193783840692,1.785495651465,0.293972802569)
  );
#354 = CARTESIAN_POINT('',(4.181514294525,1.756866557171,0.436945762309)
  );
#355 = CARTESIAN_POINT('',(4.163976310641,1.715229564142,0.574029345751)
  );
#356 = CARTESIAN_POINT('',(4.142520779653,1.662428015598,0.703083675529)
  );
#357 = CARTESIAN_POINT('',(4.108115022391,1.573924336938,0.875391664324)
  );
#358 = CARTESIAN_POINT('',(4.097027523651,1.544932173551,0.926659017137)
  );
#359 = CARTESIAN_POINT('',(4.085531767577,1.514297730254,0.97618025847)
  );
#360 = CARTESIAN_POINT('',(4.073724109556,1.482147707417,1.023936317987)
  );
#361 = CARTESIAN_POINT('',(4.061697129564,1.448602303687,1.069914661391)
  );
#362 = CARTESIAN_POINT('',(4.040619765109,1.388229501642,1.14652620789)
  );
#363 = CARTESIAN_POINT('',(4.031628797245,1.361989885335,1.177988703937)
  );
#364 = CARTESIAN_POINT('',(4.022598648865,1.335097265342,1.208498657034)
  );
#365 = CARTESIAN_POINT('',(4.013560713706,1.307588946571,1.238059584419)
  );
#366 = CARTESIAN_POINT('',(4.004544669204,1.279499077425,1.26667614501)
  );
#367 = CARTESIAN_POINT('',(3.965849722528,1.155897025257,1.386124672566)
  );
#368 = CARTESIAN_POINT('',(3.936654852315,1.054837919502,1.467619583389)
  );
#369 = CARTESIAN_POINT('',(3.909027057727,0.94883935196,1.538984591868)
  );
#370 = CARTESIAN_POINT('',(3.883827637643,0.838804602794,1.600384916673)
  );
#371 = CARTESIAN_POINT('',(3.861754740115,0.725452776595,1.651948186905)
  );
#372 = CARTESIAN_POINT('',(3.827752300932,0.511003110306,1.729106348789)
  );
#373 = CARTESIAN_POINT('',(3.814793922431,0.410696520019,1.757450446604)
  );
#374 = CARTESIAN_POINT('',(3.804828354187,0.308973512188,1.778718851584)
  );
#375 = CARTESIAN_POINT('',(3.798099060622,0.206313723697,1.792903404767)
  );
#376 = CARTESIAN_POINT('',(3.794733192202,0.103175686035,1.8));
#377 = CARTESIAN_POINT('',(3.794733192202,-0.103536822659,1.8));
#378 = CARTESIAN_POINT('',(3.798122658542,-0.207035346622,1.792853642151
    ));
#379 = CARTESIAN_POINT('',(3.804899095213,-0.310050614145,1.778569741558
    ));
#380 = CARTESIAN_POINT('',(3.814933567976,-0.412119427513,1.757152415607
    ));
#381 = CARTESIAN_POINT('',(3.827979263214,-0.512757107507,1.728609838144
    ));
#382 = CARTESIAN_POINT('',(3.861703637511,-0.72475286055,1.652042479577)
  );
#383 = CARTESIAN_POINT('',(3.883221352065,-0.835461195148,1.601771702553
    ));
#384 = CARTESIAN_POINT('',(3.907725545263,-0.943012436506,1.542119114163
    ));
#385 = CARTESIAN_POINT('',(3.934567685943,-1.046736524324,1.472968389813
    ));
#386 = CARTESIAN_POINT('',(3.962950999299,-1.145797826014,1.394168556135
    ));
#387 = CARTESIAN_POINT('',(4.001190630246,-1.26898854922,1.277247965334)
  );
#388 = CARTESIAN_POINT('',(4.010519747249,-1.298262691326,1.247906628203
    ));
#389 = CARTESIAN_POINT('',(4.019879779567,-1.326921496539,1.217553492407
    ));
#390 = CARTESIAN_POINT('',(4.029238069965,-1.354927596315,1.1861832187)
  );
#391 = CARTESIAN_POINT('',(4.038559984625,-1.38223998889,1.153791743179)
  );
#392 = CARTESIAN_POINT('',(4.060220540323,-1.444475165411,1.075534293252
    ));
#393 = CARTESIAN_POINT('',(4.072503634694,-1.478815008819,1.028837967389
    ));
#394 = CARTESIAN_POINT('',(4.084565837459,-1.511713491683,0.98029347188)
  );
#395 = CARTESIAN_POINT('',(4.096309365746,-1.543043903717,0.929913415428
    ));
#396 = CARTESIAN_POINT('',(4.107632301737,-1.572672425295,0.877717394881
    ));
#397 = CARTESIAN_POINT('',(4.142324466247,-1.661945169832,0.704266379102
    ));
#398 = CARTESIAN_POINT('',(4.16384810729,-1.714925001604,0.575031106162)
  );
#399 = CARTESIAN_POINT('',(4.181445969289,-1.756707101853,0.437734109149
    ));
#400 = CARTESIAN_POINT('',(4.193760006002,-1.785440044324,0.294519770135
    ));
#401 = CARTESIAN_POINT('',(4.2,-1.8,0.147783160869));
#402 = CARTESIAN_POINT('',(4.2,-1.8,3.651674623174E-16));
#403 = PCURVE('',#148,#404);
#404 = DEFINITIONAL_REPRESENTATION('',(#405),#458);
#405 = B_SPLINE_CURVE_WITH_KNOTS('',6,(#406,#407,#408,#409,#410,#411,
    #412,#413,#414,#415,#416,#417,#418,#419,#420,#421,#422,#423,#424,
    #425,#426,#427,#428,#429,#430,#431,#432,#433,#434,#435,#436,#437,
    #438,#439,#440,#441,#442,#443,#444,#445,#446,#447,#448,#449,#450,
    #451,#452,#453,#454,#455,#456,#457),.UNSPECIFIED.,.F.,.F.,(7,5,5,5,5
    ,5,5,5,5,5,7),(0.,0.13278859924,0.1917567554,0.235011257291,
    0.378428032468,0.500001571104,0.622000642722,0.762048515075,
    0.806846653995,0.866963650049,1.),.UNSPECIFIED.);
#406 = CARTESIAN_POINT('',(0.,2.7));
#407 = CARTESIAN_POINT('',(3.511920947431E-02,2.7));
#408 = CARTESIAN_POINT('',(6.999358510654E-02,2.714504348535));
#409 = CARTESIAN_POINT('',(0.104112427725,2.743133442829));
#410 = CARTESIAN_POINT('',(0.136980698526,2.784770435858));
#411 = CARTESIAN_POINT('',(0.168113439529,2.837571984402));
#412 = CARTESIAN_POINT('',(0.209949014946,2.926075663062));
#413 = CARTESIAN_POINT('',(0.222436146411,2.955067826449));
#414 = CARTESIAN_POINT('',(0.234538454414,2.985702269746));
#415 = CARTESIAN_POINT('',(0.246249693132,3.017852292583));
#416 = CARTESIAN_POINT('',(0.257564344262,3.051397696313));
#417 = CARTESIAN_POINT('',(0.27648293155,3.111770498358));
#418 = CARTESIAN_POINT('',(0.284273500686,3.138010114665));
#419 = CARTESIAN_POINT('',(0.291848781261,3.164902734658));
#420 = CARTESIAN_POINT('',(0.299208289164,3.192411053429));
#421 = CARTESIAN_POINT('',(0.306351701663,3.220500922575));
#422 = CARTESIAN_POINT('',(0.336246879109,3.344102974743));
#423 = CARTESIAN_POINT('',(0.356848322981,3.445162080498));
#424 = CARTESIAN_POINT('',(0.375061747248,3.55116064804));
#425 = CARTESIAN_POINT('',(0.390861570287,3.661195397206));
#426 = CARTESIAN_POINT('',(0.404215267016,3.774547223405));
#427 = CARTESIAN_POINT('',(0.42429101334,3.988996889694));
#428 = CARTESIAN_POINT('',(0.431710791199,4.089303479981));
#429 = CARTESIAN_POINT('',(0.437302814455,4.191026487812));
#430 = CARTESIAN_POINT('',(0.441041010416,4.293686276303));
#431 = CARTESIAN_POINT('',(0.442911044074,4.396824313965));
#432 = CARTESIAN_POINT('',(0.442911044074,4.603536822659));
#433 = CARTESIAN_POINT('',(0.441027898483,4.707035346622));
#434 = CARTESIAN_POINT('',(0.437263517435,4.810050614145));
#435 = CARTESIAN_POINT('',(0.431632430225,4.912119427513));
#436 = CARTESIAN_POINT('',(0.424161043392,5.012757107507));
#437 = CARTESIAN_POINT('',(0.404240717654,5.22475286055));
#438 = CARTESIAN_POINT('',(0.391221892706,5.335461195148));
#439 = CARTESIAN_POINT('',(0.375869710968,5.443012436506));
#440 = CARTESIAN_POINT('',(0.358214830635,5.546736524324));
#441 = CARTESIAN_POINT('',(0.338281661159,5.645797826014));
#442 = CARTESIAN_POINT('',(0.308992371861,5.76898854922));
#443 = CARTESIAN_POINT('',(0.301661960221,5.798262691326));
#444 = CARTESIAN_POINT('',(0.294099664437,5.826921496539));
#445 = CARTESIAN_POINT('',(0.286305821901,5.854927596315));
#446 = CARTESIAN_POINT('',(0.278280951358,5.88223998889));
#447 = CARTESIAN_POINT('',(0.258947664731,5.944475165411));
#448 = CARTESIAN_POINT('',(0.247452227922,5.978815008819));
#449 = CARTESIAN_POINT('',(0.235544281341,6.011713491683));
#450 = CARTESIAN_POINT('',(0.223229552709,6.043043903717));
#451 = CARTESIAN_POINT('',(0.210514546649,6.072672425295));
#452 = CARTESIAN_POINT('',(0.168398735343,6.161945169832));
#453 = CARTESIAN_POINT('',(0.13722089612,6.214925001604));
#454 = CARTESIAN_POINT('',(0.104300575049,6.256707101853));
#455 = CARTESIAN_POINT('',(7.012381668029E-02,6.285440044324));
#456 = CARTESIAN_POINT('',(3.518646687366E-02,6.3));
#457 = CARTESIAN_POINT('',(0.,6.3));
#458 = ( GEOMETRIC_REPRESENTATION_CONTEXT(2) 
PARAMETRIC_REPRESENTATION_CONTEXT() REPRESENTATION_CONTEXT('2D SPACE',''
  ) );
#459 = PCURVE('',#232,#460);
#460 = DEFINITIONAL_REPRESENTATION('',(#461),#514);
#461 = B_SPLINE_CURVE_WITH_KNOTS('',6,(#462,#463,#464,#465,#466,#467,
    #468,#469,#470,#471,#472,#473,#474,#475,#476,#477,#478,#479,#480,
    #481,#482,#483,#484,#485,#486,#487,#488,#489,#490,#491,#492,#493,
    #494,#495,#496,#497,#498,#499,#500,#501,#502,#503,#504,#505,#506,
    #507,#508,#509,#510,#511,#512,#513),.UNSPECIFIED.,.F.,.F.,(7,5,5,5,5
    ,5,5,5,5,5,7),(0.,0.13278859924,0.1917567554,0.235011257291,
    0.378428032468,0.500001571104,0.622000642722,0.762048515075,
    0.806846653995,0.866963650049,1.),.UNSPECIFIED.);
#462 = CARTESIAN_POINT('',(1.570796326795,2.5));
#463 = CARTESIAN_POINT('',(1.652741148902,2.5));
#464 = CARTESIAN_POINT('',(1.734114427332,2.493783840692));
#465 = CARTESIAN_POINT('',(1.814534948813,2.481514294525));
#466 = CARTESIAN_POINT('',(1.893592894441,2.463976310641));
#467 = CARTESIAN_POINT('',(1.970771288544,2.442520779653));
#468 = CARTESIAN_POINT('',(2.07838706619,2.408115022391));
#469 = CARTESIAN_POINT('',(2.111081370577,2.397027523651));
#470 = CARTESIAN_POINT('',(2.14339484599,2.385531767577));
#471 = CARTESIAN_POINT('',(2.175343361639,2.373724109556));
#472 = CARTESIAN_POINT('',(2.206940974607,2.361697129564));
#473 = CARTESIAN_POINT('',(2.261130298312,2.340619765109));
#474 = CARTESIAN_POINT('',(2.283881805694,2.331628797245));
#475 = CARTESIAN_POINT('',(2.306463798938,2.322598648865));
#476 = CARTESIAN_POINT('',(2.328885113466,2.313560713706));
#477 = CARTESIAN_POINT('',(2.351154767837,2.304544669204));
#478 = CARTESIAN_POINT('',(2.44664799369,2.265849722528));
#479 = CARTESIAN_POINT('',(2.518483349131,2.236654852315));
#480 = CARTESIAN_POINT('',(2.58908987564,2.209027057727));
#481 = CARTESIAN_POINT('',(2.658738904602,2.183827637643));
#482 = CARTESIAN_POINT('',(2.727691308603,2.161754740115));
#483 = CARTESIAN_POINT('',(2.854306845698,2.127752300932));
#484 = CARTESIAN_POINT('',(2.912073037277,2.114793922431));
#485 = CARTESIAN_POINT('',(2.969601800972,2.104828354187));
#486 = CARTESIAN_POINT('',(3.026973886145,2.098099060622));
#487 = CARTESIAN_POINT('',(3.084272828015,2.094733192202));
#488 = CARTESIAN_POINT('',(3.199113110623,2.094733192202));
#489 = CARTESIAN_POINT('',(3.256612323301,2.098122658542));
#490 = CARTESIAN_POINT('',(3.314185466305,2.104899095213));
#491 = CARTESIAN_POINT('',(3.371917036203,2.114933567976));
#492 = CARTESIAN_POINT('',(3.429888704324,2.127979263214));
#493 = CARTESIAN_POINT('',(3.555110433233,2.161703637511));
#494 = CARTESIAN_POINT('',(3.622444513041,2.183221352065));
#495 = CARTESIAN_POINT('',(3.690440049754,2.207725545263));
#496 = CARTESIAN_POINT('',(3.759339395244,2.234567685943));
#497 = CARTESIAN_POINT('',(3.829394251602,2.262950999299));
#498 = CARTESIAN_POINT('',(3.923751039089,2.301190630246));
#499 = CARTESIAN_POINT('',(3.946768899977,2.310519747249));
#500 = CARTESIAN_POINT('',(3.96994716703,2.319879779567));
#501 = CARTESIAN_POINT('',(3.993295887572,2.329238069965));
#502 = CARTESIAN_POINT('',(4.016824882071,2.338559984625));
#503 = CARTESIAN_POINT('',(4.0723733418,2.360220540323));
#504 = CARTESIAN_POINT('',(4.10455234078,2.372503634694));
#505 = CARTESIAN_POINT('',(4.137094622077,2.384565837459));
#506 = CARTESIAN_POINT('',(4.170015227237,2.396309365746));
#507 = CARTESIAN_POINT('',(4.203331130796,2.407632301737));
#508 = CARTESIAN_POINT('',(4.311707016729,2.442324466247));
#509 = CARTESIAN_POINT('',(4.389014562696,2.46384810729));
#510 = CARTESIAN_POINT('',(4.468206679395,2.481445969289));
#511 = CARTESIAN_POINT('',(4.548767011459,2.493760006002));
#512 = CARTESIAN_POINT('',(4.630287224346,2.5));
#513 = CARTESIAN_POINT('',(4.712388980385,2.5));
#514 = ( GEOMETRIC_REPRESENTATION_CONTEXT(2) 
PARAMETRIC_REPRESENTATION_CONTEXT() REPRESENTATION_CONTEXT('2D SPACE',''
  ) );
#515 = ORIENTED_EDGE('',*,*,#516,.F.);
#516 = EDGE_CURVE('',#132,#169,#517,.T.);
#517 = SEAM_CURVE('',#518,(#522,#529),.PCURVE_S1.);
#518 = LINE('',#519,#520);
#519 = CARTESIAN_POINT('',(4.2,4.5,-2.027904033446E-15));
#520 = VECTOR('',#521,1.);
#521 = DIRECTION('',(0.,-1.,2.22044604925E-16));
#522 = PCURVE('',#148,#523);
#523 = DEFINITIONAL_REPRESENTATION('',(#524),#528);
#524 = LINE('',#525,#526);
#525 = CARTESIAN_POINT('',(6.28318530718,-0.));
#526 = VECTOR('',#527,1.);
#527 = DIRECTION('',(0.,1.));
#528 = ( GEOMETRIC_REPRESENTATION_CONTEXT(2) 
PARAMETRIC_REPRESENTATION_CONTEXT() REPRESENTATION_CONTEXT('2D SPACE',''
  ) );
#529 = PCURVE('',#148,#530);
#530 = DEFINITIONAL_REPRESENTATION('',(#531),#535);
#531 = LINE('',#532,#533);
#532 = CARTESIAN_POINT('',(0.,-0.));
#533 = VECTOR('',#534,1.);
#534 = DIRECTION('',(0.,1.));
#535 = ( GEOMETRIC_REPRESENTATION_CONTEXT(2) 
PARAMETRIC_REPRESENTATION_CONTEXT() REPRESENTATION_CONTEXT('2D SPACE',''
  ) );
#536 = ORIENTED_EDGE('',*,*,#131,.T.);
#537 = ORIENTED_EDGE('',*,*,#516,.T.);
#538 = ADVANCED_FACE('',(#539),#283,.F.);
#539 = FACE_BOUND('',#540,.F.);
#540 = EDGE_LOOP('',(#541,#569,#597,#625,#646,#647));
#541 = ORIENTED_EDGE('',*,*,#542,.T.);
#542 = EDGE_CURVE('',#543,#545,#547,.T.);
#543 = VERTEX_POINT('',#544);
#544 = CARTESIAN_POINT('',(2.4,-5.7,-1.8));
#545 = VERTEX_POINT('',#546);
#546 = CARTESIAN_POINT('',(2.4,-6.1,-1.8));
#547 = SURFACE_CURVE('',#548,(#552,#558),.PCURVE_S1.);
#548 = LINE('',#549,#550);
#549 = CARTESIAN_POINT('',(2.4,35.,-1.8));
#550 = VECTOR('',#551,1.);
#551 = DIRECTION('',(0.,-1.,2.22044604925E-16));
#552 = PCURVE('',#283,#553);
#553 = DEFINITIONAL_REPRESENTATION('',(#554),#557);
#554 = B_SPLINE_CURVE_WITH_KNOTS('',1,(#555,#556),.UNSPECIFIED.,.F.,.F.,
  (2,2),(40.6999976,42.48),.PIECEWISE_BEZIER_KNOTS.);
#555 = CARTESIAN_POINT('',(-1.195290068526,-3.032230647034));
#556 = CARTESIAN_POINT('',(-1.195290068526,-4.812233047034));
#557 = ( GEOMETRIC_REPRESENTATION_CONTEXT(2) 
PARAMETRIC_REPRESENTATION_CONTEXT() REPRESENTATION_CONTEXT('2D SPACE',''
  ) );
#558 = PCURVE('',#559,#564);
#559 = CYLINDRICAL_SURFACE('',#560,3.);
#560 = AXIS2_PLACEMENT_3D('',#561,#562,#563);
#561 = CARTESIAN_POINT('',(0.,35.,-7.771561172376E-15));
#562 = DIRECTION('',(0.,-1.,2.22044604925E-16));
#563 = DIRECTION('',(1.,0.,0.));
#564 = DEFINITIONAL_REPRESENTATION('',(#565),#568);
#565 = B_SPLINE_CURVE_WITH_KNOTS('',1,(#566,#567),.UNSPECIFIED.,.F.,.F.,
  (2,2),(40.6999976,42.48),.PIECEWISE_BEZIER_KNOTS.);
#566 = CARTESIAN_POINT('',(5.639684198386,40.6999976));
#567 = CARTESIAN_POINT('',(5.639684198386,42.48));
#568 = ( GEOMETRIC_REPRESENTATION_CONTEXT(2) 
PARAMETRIC_REPRESENTATION_CONTEXT() REPRESENTATION_CONTEXT('2D SPACE',''
  ) );
#569 = ORIENTED_EDGE('',*,*,#570,.T.);
#570 = EDGE_CURVE('',#545,#571,#573,.T.);
#571 = VERTEX_POINT('',#572);
#572 = CARTESIAN_POINT('',(6.7,-1.8,-1.8));
#573 = SURFACE_CURVE('',#574,(#578,#585),.PCURVE_S1.);
#574 = LINE('',#575,#576);
#575 = CARTESIAN_POINT('',(1.7,-6.8,-1.8));
#576 = VECTOR('',#577,1.);
#577 = DIRECTION('',(0.707106781187,0.707106781187,0.));
#578 = PCURVE('',#283,#579);
#579 = DEFINITIONAL_REPRESENTATION('',(#580),#584);
#580 = LINE('',#581,#582);
#581 = CARTESIAN_POINT('',(-1.895290068526,-4.132233047034));
#582 = VECTOR('',#583,1.);
#583 = DIRECTION('',(0.707106781187,0.707106781187));
#584 = ( GEOMETRIC_REPRESENTATION_CONTEXT(2) 
PARAMETRIC_REPRESENTATION_CONTEXT() REPRESENTATION_CONTEXT('2D SPACE',''
  ) );
#585 = PCURVE('',#586,#591);
#586 = PLANE('',#587);
#587 = AXIS2_PLACEMENT_3D('',#588,#589,#590);
#588 = CARTESIAN_POINT('',(1.7,-6.8,0.));
#589 = DIRECTION('',(0.707106781187,-0.707106781187,0.));
#590 = DIRECTION('',(0.707106781187,0.707106781187,0.));
#591 = DEFINITIONAL_REPRESENTATION('',(#592),#596);
#592 = LINE('',#593,#594);
#593 = CARTESIAN_POINT('',(0.,-1.8));
#594 = VECTOR('',#595,1.);
#595 = DIRECTION('',(1.,0.));
#596 = ( GEOMETRIC_REPRESENTATION_CONTEXT(2) 
PARAMETRIC_REPRESENTATION_CONTEXT() REPRESENTATION_CONTEXT('2D SPACE',''
  ) );
#597 = ORIENTED_EDGE('',*,*,#598,.T.);
#598 = EDGE_CURVE('',#571,#599,#601,.T.);
#599 = VERTEX_POINT('',#600);
#600 = CARTESIAN_POINT('',(6.7,-2.204364214117E-16,-1.8));
#601 = SURFACE_CURVE('',#602,(#606,#613),.PCURVE_S1.);
#602 = LINE('',#603,#604);
#603 = CARTESIAN_POINT('',(6.7,-1.8,-1.8));
#604 = VECTOR('',#605,1.);
#605 = DIRECTION('',(0.,1.,0.));
#606 = PCURVE('',#283,#607);
#607 = DEFINITIONAL_REPRESENTATION('',(#608),#612);
#608 = LINE('',#609,#610);
#609 = CARTESIAN_POINT('',(3.104709931474,0.867766952966));
#610 = VECTOR('',#611,1.);
#611 = DIRECTION('',(0.,1.));
#612 = ( GEOMETRIC_REPRESENTATION_CONTEXT(2) 
PARAMETRIC_REPRESENTATION_CONTEXT() REPRESENTATION_CONTEXT('2D SPACE',''
  ) );
#613 = PCURVE('',#614,#619);
#614 = PLANE('',#615);
#615 = AXIS2_PLACEMENT_3D('',#616,#617,#618);
#616 = CARTESIAN_POINT('',(6.7,0.,5.551115123126E-16));
#617 = DIRECTION('',(1.,0.,2.22044604925E-16));
#618 = DIRECTION('',(2.22044604925E-16,0.,-1.));
#619 = DEFINITIONAL_REPRESENTATION('',(#620),#624);
#620 = LINE('',#621,#622);
#621 = CARTESIAN_POINT('',(1.8,-1.8));
#622 = VECTOR('',#623,1.);
#623 = DIRECTION('',(0.,1.));
#624 = ( GEOMETRIC_REPRESENTATION_CONTEXT(2) 
PARAMETRIC_REPRESENTATION_CONTEXT() REPRESENTATION_CONTEXT('2D SPACE',''
  ) );
#625 = ORIENTED_EDGE('',*,*,#626,.F.);
#626 = EDGE_CURVE('',#167,#599,#627,.T.);
#627 = SURFACE_CURVE('',#628,(#632,#639),.PCURVE_S1.);
#628 = LINE('',#629,#630);
#629 = CARTESIAN_POINT('',(1.7,-4.40872847693E-16,-1.8));
#630 = VECTOR('',#631,1.);
#631 = DIRECTION('',(1.,0.,2.22044604925E-16));
#632 = PCURVE('',#283,#633);
#633 = DEFINITIONAL_REPRESENTATION('',(#634),#638);
#634 = LINE('',#635,#636);
#635 = CARTESIAN_POINT('',(-1.895290068526,2.667766952966));
#636 = VECTOR('',#637,1.);
#637 = DIRECTION('',(1.,0.));
#638 = ( GEOMETRIC_REPRESENTATION_CONTEXT(2) 
PARAMETRIC_REPRESENTATION_CONTEXT() REPRESENTATION_CONTEXT('2D SPACE',''
  ) );
#639 = PCURVE('',#232,#640);
#640 = DEFINITIONAL_REPRESENTATION('',(#641),#645);
#641 = LINE('',#642,#643);
#642 = CARTESIAN_POINT('',(0.,-0.));
#643 = VECTOR('',#644,1.);
#644 = DIRECTION('',(0.,1.));
#645 = ( GEOMETRIC_REPRESENTATION_CONTEXT(2) 
PARAMETRIC_REPRESENTATION_CONTEXT() REPRESENTATION_CONTEXT('2D SPACE',''
  ) );
#646 = ORIENTED_EDGE('',*,*,#268,.T.);
#647 = ORIENTED_EDGE('',*,*,#648,.T.);
#648 = EDGE_CURVE('',#269,#543,#649,.T.);
#649 = SURFACE_CURVE('',#650,(#655,#662),.PCURVE_S1.);
#650 = HYPERBOLA('',#651,1.8,1.8);
#651 = AXIS2_PLACEMENT_3D('',#652,#653,#654);
#652 = CARTESIAN_POINT('',(0.,-8.7,-1.8));
#653 = DIRECTION('',(0.,0.,1.));
#654 = DIRECTION('',(0.,1.,-0.));
#655 = PCURVE('',#283,#656);
#656 = DEFINITIONAL_REPRESENTATION('',(#657),#661);
#657 = ( BOUNDED_CURVE() B_SPLINE_CURVE(2,(#658,#659,#660),
.UNSPECIFIED.,.F.,.F.) B_SPLINE_CURVE_WITH_KNOTS((3,3),(-1.490996308995,
-1.098612288668),.PIECEWISE_BEZIER_KNOTS.) CURVE() 
GEOMETRIC_REPRESENTATION_ITEM() RATIONAL_B_SPLINE_CURVE((1.,
1.019307464209,1.)) REPRESENTATION_ITEM('') );
#658 = CARTESIAN_POINT('',(0.199443123676,-1.832233047034));
#659 = CARTESIAN_POINT('',(-0.614151238442,-2.567321982966));
#660 = CARTESIAN_POINT('',(-1.195290068526,-3.032233047034));
#661 = ( GEOMETRIC_REPRESENTATION_CONTEXT(2) 
PARAMETRIC_REPRESENTATION_CONTEXT() REPRESENTATION_CONTEXT('2D SPACE',''
  ) );
#662 = PCURVE('',#311,#663);
#663 = DEFINITIONAL_REPRESENTATION('',(#664),#671);
#664 = B_SPLINE_CURVE_WITH_KNOTS('',5,(#665,#666,#667,#668,#669,#670),
  .UNSPECIFIED.,.F.,.F.,(6,6),(-1.490996308995,-1.098612288668),
  .PIECEWISE_BEZIER_KNOTS.);
#665 = CARTESIAN_POINT('',(0.442911044074,1.2));
#666 = CARTESIAN_POINT('',(0.476543960102,0.902201466795));
#667 = CARTESIAN_POINT('',(0.51315808667,0.636735229459));
#668 = CARTESIAN_POINT('',(0.553024421422,0.399783057119));
#669 = CARTESIAN_POINT('',(0.596415026354,0.188344329757));
#670 = CARTESIAN_POINT('',(0.643501108793,-8.881784197001E-16));
#671 = ( GEOMETRIC_REPRESENTATION_CONTEXT(2) 
PARAMETRIC_REPRESENTATION_CONTEXT() REPRESENTATION_CONTEXT('2D SPACE',''
  ) );
#672 = ADVANCED_FACE('',(#673),#586,.T.);
#673 = FACE_BOUND('',#674,.T.);
#674 = EDGE_LOOP('',(#675,#702,#703,#726,#749,#776,#808,#840,#867));
#675 = ORIENTED_EDGE('',*,*,#676,.F.);
#676 = EDGE_CURVE('',#545,#677,#679,.T.);
#677 = VERTEX_POINT('',#678);
#678 = CARTESIAN_POINT('',(2.8,-5.7,-1.077032961427));
#679 = SURFACE_CURVE('',#680,(#685,#692),.PCURVE_S1.);
#680 = ELLIPSE('',#681,4.242640687119,3.);
#681 = AXIS2_PLACEMENT_3D('',#682,#683,#684);
#682 = CARTESIAN_POINT('',(0.,-8.5,1.887379141863E-15));
#683 = DIRECTION('',(0.707106781187,-0.707106781187,0.));
#684 = DIRECTION('',(-0.707106781187,-0.707106781187,3.140184917368E-16)
  );
#685 = PCURVE('',#586,#686);
#686 = DEFINITIONAL_REPRESENTATION('',(#687),#691);
#687 = ELLIPSE('',#688,4.242640687119,3.);
#688 = AXIS2_PLACEMENT_2D('',#689,#690);
#689 = CARTESIAN_POINT('',(-2.404163056034,1.887379141863E-15));
#690 = DIRECTION('',(-1.,3.140184917368E-16));
#691 = ( GEOMETRIC_REPRESENTATION_CONTEXT(2) 
PARAMETRIC_REPRESENTATION_CONTEXT() REPRESENTATION_CONTEXT('2D SPACE',''
  ) );
#692 = PCURVE('',#559,#693);
#693 = DEFINITIONAL_REPRESENTATION('',(#694),#701);
#694 = B_SPLINE_CURVE_WITH_KNOTS('',5,(#695,#696,#697,#698,#699,#700),
  .UNSPECIFIED.,.F.,.F.,(6,6),(2.337790334657,2.774386861382),
  .PIECEWISE_BEZIER_KNOTS.);
#695 = CARTESIAN_POINT('',(5.479382988247,41.418077811252));
#696 = CARTESIAN_POINT('',(5.566702293592,41.229468111707));
#697 = CARTESIAN_POINT('',(5.654021598937,41.060700334458));
#698 = CARTESIAN_POINT('',(5.741340904282,40.914773853415));
#699 = CARTESIAN_POINT('',(5.828660209627,40.794042825207));
#700 = CARTESIAN_POINT('',(5.915979514972,40.6999976));
#701 = ( GEOMETRIC_REPRESENTATION_CONTEXT(2) 
PARAMETRIC_REPRESENTATION_CONTEXT() REPRESENTATION_CONTEXT('2D SPACE',''
  ) );
#702 = ORIENTED_EDGE('',*,*,#570,.T.);
#703 = ORIENTED_EDGE('',*,*,#704,.F.);
#704 = EDGE_CURVE('',#705,#571,#707,.T.);
#705 = VERTEX_POINT('',#706);
#706 = CARTESIAN_POINT('',(6.7,-1.8,1.8));
#707 = SURFACE_CURVE('',#708,(#712,#719),.PCURVE_S1.);
#708 = LINE('',#709,#710);
#709 = CARTESIAN_POINT('',(6.7,-1.8,1.8));
#710 = VECTOR('',#711,1.);
#711 = DIRECTION('',(0.,0.,-1.));
#712 = PCURVE('',#586,#713);
#713 = DEFINITIONAL_REPRESENTATION('',(#714),#718);
#714 = LINE('',#715,#716);
#715 = CARTESIAN_POINT('',(7.071067811865,1.8));
#716 = VECTOR('',#717,1.);
#717 = DIRECTION('',(0.,-1.));
#718 = ( GEOMETRIC_REPRESENTATION_CONTEXT(2) 
PARAMETRIC_REPRESENTATION_CONTEXT() REPRESENTATION_CONTEXT('2D SPACE',''
  ) );
#719 = PCURVE('',#614,#720);
#720 = DEFINITIONAL_REPRESENTATION('',(#721),#725);
#721 = LINE('',#722,#723);
#722 = CARTESIAN_POINT('',(-1.8,-1.8));
#723 = VECTOR('',#724,1.);
#724 = DIRECTION('',(1.,0.));
#725 = ( GEOMETRIC_REPRESENTATION_CONTEXT(2) 
PARAMETRIC_REPRESENTATION_CONTEXT() REPRESENTATION_CONTEXT('2D SPACE',''
  ) );
#726 = ORIENTED_EDGE('',*,*,#727,.F.);
#727 = EDGE_CURVE('',#728,#705,#730,.T.);
#728 = VERTEX_POINT('',#729);
#729 = CARTESIAN_POINT('',(2.4,-6.1,1.8));
#730 = SURFACE_CURVE('',#731,(#735,#742),.PCURVE_S1.);
#731 = LINE('',#732,#733);
#732 = CARTESIAN_POINT('',(1.7,-6.8,1.8));
#733 = VECTOR('',#734,1.);
#734 = DIRECTION('',(0.707106781187,0.707106781187,0.));
#735 = PCURVE('',#586,#736);
#736 = DEFINITIONAL_REPRESENTATION('',(#737),#741);
#737 = LINE('',#738,#739);
#738 = CARTESIAN_POINT('',(0.,1.8));
#739 = VECTOR('',#740,1.);
#740 = DIRECTION('',(1.,0.));
#741 = ( GEOMETRIC_REPRESENTATION_CONTEXT(2) 
PARAMETRIC_REPRESENTATION_CONTEXT() REPRESENTATION_CONTEXT('2D SPACE',''
  ) );
#742 = PCURVE('',#337,#743);
#743 = DEFINITIONAL_REPRESENTATION('',(#744),#748);
#744 = LINE('',#745,#746);
#745 = CARTESIAN_POINT('',(-1.895290068526,-4.132233047034));
#746 = VECTOR('',#747,1.);
#747 = DIRECTION('',(0.707106781187,0.707106781187));
#748 = ( GEOMETRIC_REPRESENTATION_CONTEXT(2) 
PARAMETRIC_REPRESENTATION_CONTEXT() REPRESENTATION_CONTEXT('2D SPACE',''
  ) );
#749 = ORIENTED_EDGE('',*,*,#750,.F.);
#750 = EDGE_CURVE('',#751,#728,#753,.T.);
#751 = VERTEX_POINT('',#752);
#752 = CARTESIAN_POINT('',(2.8,-5.7,1.077032961427));
#753 = SURFACE_CURVE('',#754,(#759,#766),.PCURVE_S1.);
#754 = ELLIPSE('',#755,4.242640687119,3.);
#755 = AXIS2_PLACEMENT_3D('',#756,#757,#758);
#756 = CARTESIAN_POINT('',(0.,-8.5,1.887379141863E-15));
#757 = DIRECTION('',(0.707106781187,-0.707106781187,0.));
#758 = DIRECTION('',(-0.707106781187,-0.707106781187,3.140184917368E-16)
  );
#759 = PCURVE('',#586,#760);
#760 = DEFINITIONAL_REPRESENTATION('',(#761),#765);
#761 = ELLIPSE('',#762,4.242640687119,3.);
#762 = AXIS2_PLACEMENT_2D('',#763,#764);
#763 = CARTESIAN_POINT('',(-2.404163056034,1.887379141863E-15));
#764 = DIRECTION('',(-1.,3.140184917368E-16));
#765 = ( GEOMETRIC_REPRESENTATION_CONTEXT(2) 
PARAMETRIC_REPRESENTATION_CONTEXT() REPRESENTATION_CONTEXT('2D SPACE',''
  ) );
#766 = PCURVE('',#559,#767);
#767 = DEFINITIONAL_REPRESENTATION('',(#768),#775);
#768 = B_SPLINE_CURVE_WITH_KNOTS('',5,(#769,#770,#771,#772,#773,#774),
  .UNSPECIFIED.,.F.,.F.,(6,6),(3.508798445797,3.945394972523),
  .PIECEWISE_BEZIER_KNOTS.);
#769 = CARTESIAN_POINT('',(0.367205792207,40.6999976));
#770 = CARTESIAN_POINT('',(0.454525097552,40.794042825207));
#771 = CARTESIAN_POINT('',(0.541844402898,40.914773853415));
#772 = CARTESIAN_POINT('',(0.629163708243,41.060700334458));
#773 = CARTESIAN_POINT('',(0.716483013588,41.229468111707));
#774 = CARTESIAN_POINT('',(0.803802318933,41.418077811252));
#775 = ( GEOMETRIC_REPRESENTATION_CONTEXT(2) 
PARAMETRIC_REPRESENTATION_CONTEXT() REPRESENTATION_CONTEXT('2D SPACE',''
  ) );
#776 = ORIENTED_EDGE('',*,*,#777,.T.);
#777 = EDGE_CURVE('',#751,#778,#780,.T.);
#778 = VERTEX_POINT('',#779);
#779 = CARTESIAN_POINT('',(4.,-4.5,1.280624847487));
#780 = SURFACE_CURVE('',#781,(#786,#793),.PCURVE_S1.);
#781 = PARABOLA('',#782,7.071067811865E-02);
#782 = AXIS2_PLACEMENT_3D('',#783,#784,#785);
#783 = CARTESIAN_POINT('',(-1.E-01,-8.6,-7.993605777301E-16));
#784 = DIRECTION('',(0.707106781187,-0.707106781187,0.));
#785 = DIRECTION('',(0.707106781187,0.707106781187,3.140184917368E-16));
#786 = PCURVE('',#586,#787);
#787 = DEFINITIONAL_REPRESENTATION('',(#788),#792);
#788 = B_SPLINE_CURVE_WITH_KNOTS('',2,(#789,#790,#791),.UNSPECIFIED.,.F.
  ,.F.,(3,3),(1.077032961427,1.280624847487),.PIECEWISE_BEZIER_KNOTS.);
#789 = CARTESIAN_POINT('',(1.55563491861,1.077032961427));
#790 = CARTESIAN_POINT('',(2.330889723823,1.178828904457));
#791 = CARTESIAN_POINT('',(3.252691193458,1.280624847487));
#792 = ( GEOMETRIC_REPRESENTATION_CONTEXT(2) 
PARAMETRIC_REPRESENTATION_CONTEXT() REPRESENTATION_CONTEXT('2D SPACE',''
  ) );
#793 = PCURVE('',#794,#799);
#794 = CONICAL_SURFACE('',#795,3.,0.785398163397);
#795 = AXIS2_PLACEMENT_3D('',#796,#797,#798);
#796 = CARTESIAN_POINT('',(0.,-5.7,-1.33226762955E-16));
#797 = DIRECTION('',(0.,1.,2.22044604925E-16));
#798 = DIRECTION('',(1.,0.,-0.));
#799 = DEFINITIONAL_REPRESENTATION('',(#800),#807);
#800 = B_SPLINE_CURVE_WITH_KNOTS('',5,(#801,#802,#803,#804,#805,#806),
  .UNSPECIFIED.,.F.,.F.,(6,6),(1.077032961427,1.280624847487),
  .PIECEWISE_BEZIER_KNOTS.);
#801 = CARTESIAN_POINT('',(5.915977286622,-6.883382752676E-15));
#802 = CARTESIAN_POINT('',(5.929550079026,0.219275171965));
#803 = CARTESIAN_POINT('',(5.941882960954,0.448912757948));
#804 = CARTESIAN_POINT('',(5.953198819527,0.688912757948));
#805 = CARTESIAN_POINT('',(5.963645815721,0.939275171965));
#806 = CARTESIAN_POINT('',(5.973340667438,1.2));
#807 = ( GEOMETRIC_REPRESENTATION_CONTEXT(2) 
PARAMETRIC_REPRESENTATION_CONTEXT() REPRESENTATION_CONTEXT('2D SPACE',''
  ) );
#808 = ORIENTED_EDGE('',*,*,#809,.F.);
#809 = EDGE_CURVE('',#810,#778,#812,.T.);
#810 = VERTEX_POINT('',#811);
#811 = CARTESIAN_POINT('',(4.2,-4.3,-7.391151010614E-17));
#812 = SURFACE_CURVE('',#813,(#818,#825),.PCURVE_S1.);
#813 = ELLIPSE('',#814,5.939696961967,4.2);
#814 = AXIS2_PLACEMENT_3D('',#815,#816,#817);
#815 = CARTESIAN_POINT('',(0.,-8.5,1.887379141863E-15));
#816 = DIRECTION('',(0.707106781187,-0.707106781187,0.));
#817 = DIRECTION('',(-0.707106781187,-0.707106781187,3.140184917368E-16)
  );
#818 = PCURVE('',#586,#819);
#819 = DEFINITIONAL_REPRESENTATION('',(#820),#824);
#820 = ELLIPSE('',#821,5.939696961967,4.2);
#821 = AXIS2_PLACEMENT_2D('',#822,#823);
#822 = CARTESIAN_POINT('',(-2.404163056034,1.887379141863E-15));
#823 = DIRECTION('',(-1.,3.140184917368E-16));
#824 = ( GEOMETRIC_REPRESENTATION_CONTEXT(2) 
PARAMETRIC_REPRESENTATION_CONTEXT() REPRESENTATION_CONTEXT('2D SPACE',''
  ) );
#825 = PCURVE('',#826,#831);
#826 = CYLINDRICAL_SURFACE('',#827,4.2);
#827 = AXIS2_PLACEMENT_3D('',#828,#829,#830);
#828 = CARTESIAN_POINT('',(0.,4.5,-9.992007221626E-16));
#829 = DIRECTION('',(0.,-1.,2.22044604925E-16));
#830 = DIRECTION('',(1.,0.,0.));
#831 = DEFINITIONAL_REPRESENTATION('',(#832),#839);
#832 = B_SPLINE_CURVE_WITH_KNOTS('',5,(#833,#834,#835,#836,#837,#838),
  .UNSPECIFIED.,.F.,.F.,(6,6),(3.14159265359,3.451437293331),
  .PIECEWISE_BEZIER_KNOTS.);
#833 = CARTESIAN_POINT('',(6.28318530718,8.8));
#834 = CARTESIAN_POINT('',(6.345154235128,8.8));
#835 = CARTESIAN_POINT('',(6.407123163076,8.820160665367));
#836 = CARTESIAN_POINT('',(6.469092091025,8.860482731168));
#837 = CARTESIAN_POINT('',(6.531061018973,8.920641051095));
#838 = CARTESIAN_POINT('',(6.593029946921,9.));
#839 = ( GEOMETRIC_REPRESENTATION_CONTEXT(2) 
PARAMETRIC_REPRESENTATION_CONTEXT() REPRESENTATION_CONTEXT('2D SPACE',''
  ) );
#840 = ORIENTED_EDGE('',*,*,#841,.F.);
#841 = EDGE_CURVE('',#842,#810,#844,.T.);
#842 = VERTEX_POINT('',#843);
#843 = CARTESIAN_POINT('',(4.,-4.5,-1.280624847487));
#844 = SURFACE_CURVE('',#845,(#850,#857),.PCURVE_S1.);
#845 = ELLIPSE('',#846,5.939696961967,4.2);
#846 = AXIS2_PLACEMENT_3D('',#847,#848,#849);
#847 = CARTESIAN_POINT('',(0.,-8.5,1.887379141863E-15));
#848 = DIRECTION('',(0.707106781187,-0.707106781187,0.));
#849 = DIRECTION('',(-0.707106781187,-0.707106781187,3.140184917368E-16)
  );
#850 = PCURVE('',#586,#851);
#851 = DEFINITIONAL_REPRESENTATION('',(#852),#856);
#852 = ELLIPSE('',#853,5.939696961967,4.2);
#853 = AXIS2_PLACEMENT_2D('',#854,#855);
#854 = CARTESIAN_POINT('',(-2.404163056034,1.887379141863E-15));
#855 = DIRECTION('',(-1.,3.140184917368E-16));
#856 = ( GEOMETRIC_REPRESENTATION_CONTEXT(2) 
PARAMETRIC_REPRESENTATION_CONTEXT() REPRESENTATION_CONTEXT('2D SPACE',''
  ) );
#857 = PCURVE('',#826,#858);
#858 = DEFINITIONAL_REPRESENTATION('',(#859),#866);
#859 = B_SPLINE_CURVE_WITH_KNOTS('',5,(#860,#861,#862,#863,#864,#865),
  .UNSPECIFIED.,.F.,.F.,(6,6),(2.831748013848,3.14159265359),
  .PIECEWISE_BEZIER_KNOTS.);
#860 = CARTESIAN_POINT('',(5.973340667438,9.));
#861 = CARTESIAN_POINT('',(6.035309595386,8.920641051095));
#862 = CARTESIAN_POINT('',(6.097278523335,8.860482731168));
#863 = CARTESIAN_POINT('',(6.159247451283,8.820160665367));
#864 = CARTESIAN_POINT('',(6.221216379231,8.8));
#865 = CARTESIAN_POINT('',(6.28318530718,8.8));
#866 = ( GEOMETRIC_REPRESENTATION_CONTEXT(2) 
PARAMETRIC_REPRESENTATION_CONTEXT() REPRESENTATION_CONTEXT('2D SPACE',''
  ) );
#867 = ORIENTED_EDGE('',*,*,#868,.T.);
#868 = EDGE_CURVE('',#842,#677,#869,.T.);
#869 = SURFACE_CURVE('',#870,(#875,#882),.PCURVE_S1.);
#870 = PARABOLA('',#871,7.071067811865E-02);
#871 = AXIS2_PLACEMENT_3D('',#872,#873,#874);
#872 = CARTESIAN_POINT('',(-1.E-01,-8.6,-7.993605777301E-16));
#873 = DIRECTION('',(0.707106781187,-0.707106781187,0.));
#874 = DIRECTION('',(0.707106781187,0.707106781187,3.140184917368E-16));
#875 = PCURVE('',#586,#876);
#876 = DEFINITIONAL_REPRESENTATION('',(#877),#881);
#877 = B_SPLINE_CURVE_WITH_KNOTS('',2,(#878,#879,#880),.UNSPECIFIED.,.F.
  ,.F.,(3,3),(-1.280624847487,-1.077032961427),
  .PIECEWISE_BEZIER_KNOTS.);
#878 = CARTESIAN_POINT('',(3.252691193458,-1.280624847487));
#879 = CARTESIAN_POINT('',(2.330889723823,-1.178828904457));
#880 = CARTESIAN_POINT('',(1.55563491861,-1.077032961427));
#881 = ( GEOMETRIC_REPRESENTATION_CONTEXT(2) 
PARAMETRIC_REPRESENTATION_CONTEXT() REPRESENTATION_CONTEXT('2D SPACE',''
  ) );
#882 = PCURVE('',#794,#883);
#883 = DEFINITIONAL_REPRESENTATION('',(#884),#891);
#884 = B_SPLINE_CURVE_WITH_KNOTS('',5,(#885,#886,#887,#888,#889,#890),
  .UNSPECIFIED.,.F.,.F.,(6,6),(-1.280624847487,-1.077032961427),
  .PIECEWISE_BEZIER_KNOTS.);
#885 = CARTESIAN_POINT('',(6.593029946921,1.2));
#886 = CARTESIAN_POINT('',(6.602724798638,0.939275171965));
#887 = CARTESIAN_POINT('',(6.613171794832,0.688912757948));
#888 = CARTESIAN_POINT('',(6.624487653405,0.448912757948));
#889 = CARTESIAN_POINT('',(6.636820535333,0.219275171965));
#890 = CARTESIAN_POINT('',(6.650393327737,-6.439293542826E-15));
#891 = ( GEOMETRIC_REPRESENTATION_CONTEXT(2) 
PARAMETRIC_REPRESENTATION_CONTEXT() REPRESENTATION_CONTEXT('2D SPACE',''
  ) );
#892 = ADVANCED_FACE('',(#893),#826,.T.);
#893 = FACE_BOUND('',#894,.T.);
#894 = EDGE_LOOP('',(#895,#896,#897));
#895 = ORIENTED_EDGE('',*,*,#841,.T.);
#896 = ORIENTED_EDGE('',*,*,#809,.T.);
#897 = ORIENTED_EDGE('',*,*,#898,.F.);
#898 = EDGE_CURVE('',#842,#778,#899,.T.);
#899 = SURFACE_CURVE('',#900,(#905,#912),.PCURVE_S1.);
#900 = CIRCLE('',#901,4.2);
#901 = AXIS2_PLACEMENT_3D('',#902,#903,#904);
#902 = CARTESIAN_POINT('',(0.,-4.5,9.992007221626E-16));
#903 = DIRECTION('',(0.,-1.,0.));
#904 = DIRECTION('',(0.952380952381,0.,-0.304910677973));
#905 = PCURVE('',#826,#906);
#906 = DEFINITIONAL_REPRESENTATION('',(#907),#911);
#907 = LINE('',#908,#909);
#908 = CARTESIAN_POINT('',(5.973340667438,9.));
#909 = VECTOR('',#910,1.);
#910 = DIRECTION('',(1.,0.));
#911 = ( GEOMETRIC_REPRESENTATION_CONTEXT(2) 
PARAMETRIC_REPRESENTATION_CONTEXT() REPRESENTATION_CONTEXT('2D SPACE',''
  ) );
#912 = PCURVE('',#794,#913);
#913 = DEFINITIONAL_REPRESENTATION('',(#914),#918);
#914 = LINE('',#915,#916);
#915 = CARTESIAN_POINT('',(6.593029946921,1.2));
#916 = VECTOR('',#917,1.);
#917 = DIRECTION('',(-1.,-0.));
#918 = ( GEOMETRIC_REPRESENTATION_CONTEXT(2) 
PARAMETRIC_REPRESENTATION_CONTEXT() REPRESENTATION_CONTEXT('2D SPACE',''
  ) );
#919 = ADVANCED_FACE('',(#920),#794,.T.);
#920 = FACE_BOUND('',#921,.T.);
#921 = EDGE_LOOP('',(#922,#923,#924,#947,#968));
#922 = ORIENTED_EDGE('',*,*,#898,.T.);
#923 = ORIENTED_EDGE('',*,*,#777,.F.);
#924 = ORIENTED_EDGE('',*,*,#925,.T.);
#925 = EDGE_CURVE('',#751,#926,#928,.T.);
#926 = VERTEX_POINT('',#927);
#927 = CARTESIAN_POINT('',(3.,-5.7,6.015613165334E-16));
#928 = SURFACE_CURVE('',#929,(#934,#940),.PCURVE_S1.);
#929 = CIRCLE('',#930,3.);
#930 = AXIS2_PLACEMENT_3D('',#931,#932,#933);
#931 = CARTESIAN_POINT('',(0.,-5.7,-1.33226762955E-16));
#932 = DIRECTION('',(0.,1.,2.22044604925E-16));
#933 = DIRECTION('',(1.,0.,-0.));
#934 = PCURVE('',#794,#935);
#935 = DEFINITIONAL_REPRESENTATION('',(#936),#939);
#936 = B_SPLINE_CURVE_WITH_KNOTS('',1,(#937,#938),.UNSPECIFIED.,.F.,.F.,
  (2,2),(5.915977286622,6.28318530718),.PIECEWISE_BEZIER_KNOTS.);
#937 = CARTESIAN_POINT('',(5.915977286622,0.));
#938 = CARTESIAN_POINT('',(6.28318530718,0.));
#939 = ( GEOMETRIC_REPRESENTATION_CONTEXT(2) 
PARAMETRIC_REPRESENTATION_CONTEXT() REPRESENTATION_CONTEXT('2D SPACE',''
  ) );
#940 = PCURVE('',#559,#941);
#941 = DEFINITIONAL_REPRESENTATION('',(#942),#946);
#942 = LINE('',#943,#944);
#943 = CARTESIAN_POINT('',(6.28318530718,40.7));
#944 = VECTOR('',#945,1.);
#945 = DIRECTION('',(-1.,0.));
#946 = ( GEOMETRIC_REPRESENTATION_CONTEXT(2) 
PARAMETRIC_REPRESENTATION_CONTEXT() REPRESENTATION_CONTEXT('2D SPACE',''
  ) );
#947 = ORIENTED_EDGE('',*,*,#948,.T.);
#948 = EDGE_CURVE('',#926,#677,#949,.T.);
#949 = SURFACE_CURVE('',#950,(#955,#961),.PCURVE_S1.);
#950 = CIRCLE('',#951,3.);
#951 = AXIS2_PLACEMENT_3D('',#952,#953,#954);
#952 = CARTESIAN_POINT('',(0.,-5.7,-1.33226762955E-16));
#953 = DIRECTION('',(0.,1.,2.22044604925E-16));
#954 = DIRECTION('',(1.,0.,-0.));
#955 = PCURVE('',#794,#956);
#956 = DEFINITIONAL_REPRESENTATION('',(#957),#960);
#957 = B_SPLINE_CURVE_WITH_KNOTS('',1,(#958,#959),.UNSPECIFIED.,.F.,.F.,
  (2,2),(0.,0.367208020558),.PIECEWISE_BEZIER_KNOTS.);
#958 = CARTESIAN_POINT('',(6.28318530718,0.));
#959 = CARTESIAN_POINT('',(6.650393327737,0.));
#960 = ( GEOMETRIC_REPRESENTATION_CONTEXT(2) 
PARAMETRIC_REPRESENTATION_CONTEXT() REPRESENTATION_CONTEXT('2D SPACE',''
  ) );
#961 = PCURVE('',#559,#962);
#962 = DEFINITIONAL_REPRESENTATION('',(#963),#967);
#963 = LINE('',#964,#965);
#964 = CARTESIAN_POINT('',(6.28318530718,40.7));
#965 = VECTOR('',#966,1.);
#966 = DIRECTION('',(-1.,0.));
#967 = ( GEOMETRIC_REPRESENTATION_CONTEXT(2) 
PARAMETRIC_REPRESENTATION_CONTEXT() REPRESENTATION_CONTEXT('2D SPACE',''
  ) );
#968 = ORIENTED_EDGE('',*,*,#868,.F.);
#969 = ADVANCED_FACE('',(#970),#614,.T.);
#970 = FACE_BOUND('',#971,.T.);
#971 = EDGE_LOOP('',(#972,#996,#1017,#1018));
#972 = ORIENTED_EDGE('',*,*,#973,.T.);
#973 = EDGE_CURVE('',#599,#974,#976,.T.);
#974 = VERTEX_POINT('',#975);
#975 = CARTESIAN_POINT('',(6.7,0.,1.8));
#976 = SURFACE_CURVE('',#977,(#982,#989),.PCURVE_S1.);
#977 = CIRCLE('',#978,1.8);
#978 = AXIS2_PLACEMENT_3D('',#979,#980,#981);
#979 = CARTESIAN_POINT('',(6.7,0.,5.551115123126E-16));
#980 = DIRECTION('',(1.,-0.,2.22044604925E-16));
#981 = DIRECTION('',(2.22044604925E-16,0.,-1.));
#982 = PCURVE('',#614,#983);
#983 = DEFINITIONAL_REPRESENTATION('',(#984),#988);
#984 = CIRCLE('',#985,1.8);
#985 = AXIS2_PLACEMENT_2D('',#986,#987);
#986 = CARTESIAN_POINT('',(0.,0.));
#987 = DIRECTION('',(1.,0.));
#988 = ( GEOMETRIC_REPRESENTATION_CONTEXT(2) 
PARAMETRIC_REPRESENTATION_CONTEXT() REPRESENTATION_CONTEXT('2D SPACE',''
  ) );
#989 = PCURVE('',#232,#990);
#990 = DEFINITIONAL_REPRESENTATION('',(#991),#995);
#991 = LINE('',#992,#993);
#992 = CARTESIAN_POINT('',(0.,5.));
#993 = VECTOR('',#994,1.);
#994 = DIRECTION('',(1.,0.));
#995 = ( GEOMETRIC_REPRESENTATION_CONTEXT(2) 
PARAMETRIC_REPRESENTATION_CONTEXT() REPRESENTATION_CONTEXT('2D SPACE',''
  ) );
#996 = ORIENTED_EDGE('',*,*,#997,.F.);
#997 = EDGE_CURVE('',#705,#974,#998,.T.);
#998 = SURFACE_CURVE('',#999,(#1003,#1010),.PCURVE_S1.);
#999 = LINE('',#1000,#1001);
#1000 = CARTESIAN_POINT('',(6.7,-1.8,1.8));
#1001 = VECTOR('',#1002,1.);
#1002 = DIRECTION('',(0.,1.,0.));
#1003 = PCURVE('',#614,#1004);
#1004 = DEFINITIONAL_REPRESENTATION('',(#1005),#1009);
#1005 = LINE('',#1006,#1007);
#1006 = CARTESIAN_POINT('',(-1.8,-1.8));
#1007 = VECTOR('',#1008,1.);
#1008 = DIRECTION('',(0.,1.));
#1009 = ( GEOMETRIC_REPRESENTATION_CONTEXT(2) 
PARAMETRIC_REPRESENTATION_CONTEXT() REPRESENTATION_CONTEXT('2D SPACE',''
  ) );
#1010 = PCURVE('',#337,#1011);
#1011 = DEFINITIONAL_REPRESENTATION('',(#1012),#1016);
#1012 = LINE('',#1013,#1014);
#1013 = CARTESIAN_POINT('',(3.104709931474,0.867766952966));
#1014 = VECTOR('',#1015,1.);
#1015 = DIRECTION('',(0.,1.));
#1016 = ( GEOMETRIC_REPRESENTATION_CONTEXT(2) 
PARAMETRIC_REPRESENTATION_CONTEXT() REPRESENTATION_CONTEXT('2D SPACE',''
  ) );
#1017 = ORIENTED_EDGE('',*,*,#704,.T.);
#1018 = ORIENTED_EDGE('',*,*,#598,.T.);
#1019 = ADVANCED_FACE('',(#1020),#559,.T.);
#1020 = FACE_BOUND('',#1021,.T.);
#1021 = EDGE_LOOP('',(#1022,#1045,#1046,#1047,#1068,#1090,#1091,#1092,
    #1093,#1094));
#1022 = ORIENTED_EDGE('',*,*,#1023,.F.);
#1023 = EDGE_CURVE('',#926,#1024,#1026,.T.);
#1024 = VERTEX_POINT('',#1025);
#1025 = CARTESIAN_POINT('',(3.,-31.5,6.25961697565E-15));
#1026 = SEAM_CURVE('',#1027,(#1031,#1038),.PCURVE_S1.);
#1027 = LINE('',#1028,#1029);
#1028 = CARTESIAN_POINT('',(3.,35.,-8.506349251865E-15));
#1029 = VECTOR('',#1030,1.);
#1030 = DIRECTION('',(0.,-1.,2.22044604925E-16));
#1031 = PCURVE('',#559,#1032);
#1032 = DEFINITIONAL_REPRESENTATION('',(#1033),#1037);
#1033 = LINE('',#1034,#1035);
#1034 = CARTESIAN_POINT('',(0.,-0.));
#1035 = VECTOR('',#1036,1.);
#1036 = DIRECTION('',(0.,1.));
#1037 = ( GEOMETRIC_REPRESENTATION_CONTEXT(2) 
PARAMETRIC_REPRESENTATION_CONTEXT() REPRESENTATION_CONTEXT('2D SPACE',''
  ) );
#1038 = PCURVE('',#559,#1039);
#1039 = DEFINITIONAL_REPRESENTATION('',(#1040),#1044);
#1040 = LINE('',#1041,#1042);
#1041 = CARTESIAN_POINT('',(6.28318530718,-0.));
#1042 = VECTOR('',#1043,1.);
#1043 = DIRECTION('',(0.,1.));
#1044 = ( GEOMETRIC_REPRESENTATION_CONTEXT(2) 
PARAMETRIC_REPRESENTATION_CONTEXT() REPRESENTATION_CONTEXT('2D SPACE',''
  ) );
#1045 = ORIENTED_EDGE('',*,*,#925,.F.);
#1046 = ORIENTED_EDGE('',*,*,#750,.T.);
#1047 = ORIENTED_EDGE('',*,*,#1048,.F.);
#1048 = EDGE_CURVE('',#1049,#728,#1051,.T.);
#1049 = VERTEX_POINT('',#1050);
#1050 = CARTESIAN_POINT('',(2.4,-5.7,1.8));
#1051 = SURFACE_CURVE('',#1052,(#1056,#1062),.PCURVE_S1.);
#1052 = LINE('',#1053,#1054);
#1053 = CARTESIAN_POINT('',(2.4,35.,1.8));
#1054 = VECTOR('',#1055,1.);
#1055 = DIRECTION('',(0.,-1.,2.22044604925E-16));
#1056 = PCURVE('',#559,#1057);
#1057 = DEFINITIONAL_REPRESENTATION('',(#1058),#1061);
#1058 = B_SPLINE_CURVE_WITH_KNOTS('',1,(#1059,#1060),.UNSPECIFIED.,.F.,
  .F.,(2,2),(40.6999976,42.48),.PIECEWISE_BEZIER_KNOTS.);
#1059 = CARTESIAN_POINT('',(0.643501108793,40.6999976));
#1060 = CARTESIAN_POINT('',(0.643501108793,42.48));
#1061 = ( GEOMETRIC_REPRESENTATION_CONTEXT(2) 
PARAMETRIC_REPRESENTATION_CONTEXT() REPRESENTATION_CONTEXT('2D SPACE',''
  ) );
#1062 = PCURVE('',#337,#1063);
#1063 = DEFINITIONAL_REPRESENTATION('',(#1064),#1067);
#1064 = B_SPLINE_CURVE_WITH_KNOTS('',1,(#1065,#1066),.UNSPECIFIED.,.F.,
  .F.,(2,2),(40.6999976,42.48),.PIECEWISE_BEZIER_KNOTS.);
#1065 = CARTESIAN_POINT('',(-1.195290068526,-3.032230647034));
#1066 = CARTESIAN_POINT('',(-1.195290068526,-4.812233047034));
#1067 = ( GEOMETRIC_REPRESENTATION_CONTEXT(2) 
PARAMETRIC_REPRESENTATION_CONTEXT() REPRESENTATION_CONTEXT('2D SPACE',''
  ) );
#1068 = ORIENTED_EDGE('',*,*,#1069,.F.);
#1069 = EDGE_CURVE('',#543,#1049,#1070,.T.);
#1070 = SURFACE_CURVE('',#1071,(#1076,#1083),.PCURVE_S1.);
#1071 = CIRCLE('',#1072,3.);
#1072 = AXIS2_PLACEMENT_3D('',#1073,#1074,#1075);
#1073 = CARTESIAN_POINT('',(0.,-5.7,-1.33226762955E-16));
#1074 = DIRECTION('',(0.,1.,2.22044604925E-16));
#1075 = DIRECTION('',(1.,0.,-0.));
#1076 = PCURVE('',#559,#1077);
#1077 = DEFINITIONAL_REPRESENTATION('',(#1078),#1082);
#1078 = LINE('',#1079,#1080);
#1079 = CARTESIAN_POINT('',(6.28318530718,40.7));
#1080 = VECTOR('',#1081,1.);
#1081 = DIRECTION('',(-1.,0.));
#1082 = ( GEOMETRIC_REPRESENTATION_CONTEXT(2) 
PARAMETRIC_REPRESENTATION_CONTEXT() REPRESENTATION_CONTEXT('2D SPACE',''
  ) );
#1083 = PCURVE('',#311,#1084);
#1084 = DEFINITIONAL_REPRESENTATION('',(#1085),#1089);
#1085 = LINE('',#1086,#1087);
#1086 = CARTESIAN_POINT('',(0.,0.));
#1087 = VECTOR('',#1088,1.);
#1088 = DIRECTION('',(1.,0.));
#1089 = ( GEOMETRIC_REPRESENTATION_CONTEXT(2) 
PARAMETRIC_REPRESENTATION_CONTEXT() REPRESENTATION_CONTEXT('2D SPACE',''
  ) );
#1090 = ORIENTED_EDGE('',*,*,#542,.T.);
#1091 = ORIENTED_EDGE('',*,*,#676,.T.);
#1092 = ORIENTED_EDGE('',*,*,#948,.F.);
#1093 = ORIENTED_EDGE('',*,*,#1023,.T.);
#1094 = ORIENTED_EDGE('',*,*,#1095,.F.);
#1095 = EDGE_CURVE('',#1024,#1024,#1096,.T.);
#1096 = SURFACE_CURVE('',#1097,(#1102,#1109),.PCURVE_S1.);
#1097 = CIRCLE('',#1098,3.);
#1098 = AXIS2_PLACEMENT_3D('',#1099,#1100,#1101);
#1099 = CARTESIAN_POINT('',(0.,-31.5,6.994405055138E-15));
#1100 = DIRECTION('',(0.,-1.,2.22044604925E-16));
#1101 = DIRECTION('',(1.,0.,0.));
#1102 = PCURVE('',#559,#1103);
#1103 = DEFINITIONAL_REPRESENTATION('',(#1104),#1108);
#1104 = LINE('',#1105,#1106);
#1105 = CARTESIAN_POINT('',(0.,66.5));
#1106 = VECTOR('',#1107,1.);
#1107 = DIRECTION('',(1.,0.));
#1108 = ( GEOMETRIC_REPRESENTATION_CONTEXT(2) 
PARAMETRIC_REPRESENTATION_CONTEXT() REPRESENTATION_CONTEXT('2D SPACE',''
  ) );
#1109 = PCURVE('',#1110,#1115);
#1110 = PLANE('',#1111);
#1111 = AXIS2_PLACEMENT_3D('',#1112,#1113,#1114);
#1112 = CARTESIAN_POINT('',(0.,-31.5,-7.771561172376E-16));
#1113 = DIRECTION('',(0.,-1.,2.22044604925E-16));
#1114 = DIRECTION('',(1.,0.,0.));
#1115 = DEFINITIONAL_REPRESENTATION('',(#1116),#1120);
#1116 = CIRCLE('',#1117,3.);
#1117 = AXIS2_PLACEMENT_2D('',#1118,#1119);
#1118 = CARTESIAN_POINT('',(0.,7.771561172376E-15));
#1119 = DIRECTION('',(1.,0.));
#1120 = ( GEOMETRIC_REPRESENTATION_CONTEXT(2) 
PARAMETRIC_REPRESENTATION_CONTEXT() REPRESENTATION_CONTEXT('2D SPACE',''
  ) );
#1121 = ADVANCED_FACE('',(#1122,#1153),#1110,.F.);
#1122 = FACE_BOUND('',#1123,.F.);
#1123 = EDGE_LOOP('',(#1124));
#1124 = ORIENTED_EDGE('',*,*,#1125,.T.);
#1125 = EDGE_CURVE('',#1126,#1126,#1128,.T.);
#1126 = VERTEX_POINT('',#1127);
#1127 = CARTESIAN_POINT('',(16.5,-31.5,-4.818490554424E-15));
#1128 = SURFACE_CURVE('',#1129,(#1134,#1141),.PCURVE_S1.);
#1129 = CIRCLE('',#1130,16.5);
#1130 = AXIS2_PLACEMENT_3D('',#1131,#1132,#1133);
#1131 = CARTESIAN_POINT('',(0.,-31.5,-7.771561172376E-16));
#1132 = DIRECTION('',(0.,-1.,2.22044604925E-16));
#1133 = DIRECTION('',(1.,0.,0.));
#1134 = PCURVE('',#1110,#1135);
#1135 = DEFINITIONAL_REPRESENTATION('',(#1136),#1140);
#1136 = CIRCLE('',#1137,16.5);
#1137 = AXIS2_PLACEMENT_2D('',#1138,#1139);
#1138 = CARTESIAN_POINT('',(0.,0.));
#1139 = DIRECTION('',(1.,0.));
#1140 = ( GEOMETRIC_REPRESENTATION_CONTEXT(2) 
PARAMETRIC_REPRESENTATION_CONTEXT() REPRESENTATION_CONTEXT('2D SPACE',''
  ) );
#1141 = PCURVE('',#1142,#1147);
#1142 = CYLINDRICAL_SURFACE('',#1143,16.5);
#1143 = AXIS2_PLACEMENT_3D('',#1144,#1145,#1146);
#1144 = CARTESIAN_POINT('',(0.,-31.5,-7.771561172376E-16));
#1145 = DIRECTION('',(0.,-1.,2.22044604925E-16));
#1146 = DIRECTION('',(1.,0.,0.));
#1147 = DEFINITIONAL_REPRESENTATION('',(#1148),#1152);
#1148 = LINE('',#1149,#1150);
#1149 = CARTESIAN_POINT('',(0.,0.));
#1150 = VECTOR('',#1151,1.);
#1151 = DIRECTION('',(1.,0.));
#1152 = ( GEOMETRIC_REPRESENTATION_CONTEXT(2) 
PARAMETRIC_REPRESENTATION_CONTEXT() REPRESENTATION_CONTEXT('2D SPACE',''
  ) );
#1153 = FACE_BOUND('',#1154,.F.);
#1154 = EDGE_LOOP('',(#1155));
#1155 = ORIENTED_EDGE('',*,*,#1095,.F.);
#1156 = ADVANCED_FACE('',(#1157),#1142,.T.);
#1157 = FACE_BOUND('',#1158,.T.);
#1158 = EDGE_LOOP('',(#1159,#1188,#1209,#1210));
#1159 = ORIENTED_EDGE('',*,*,#1160,.F.);
#1160 = EDGE_CURVE('',#1161,#1161,#1163,.T.);
#1161 = VERTEX_POINT('',#1162);
#1162 = CARTESIAN_POINT('',(16.5,-38.5,-3.264178319949E-15));
#1163 = SURFACE_CURVE('',#1164,(#1169,#1176),.PCURVE_S1.);
#1164 = CIRCLE('',#1165,16.5);
#1165 = AXIS2_PLACEMENT_3D('',#1166,#1167,#1168);
#1166 = CARTESIAN_POINT('',(0.,-38.5,7.771561172376E-16));
#1167 = DIRECTION('',(0.,-1.,2.22044604925E-16));
#1168 = DIRECTION('',(1.,0.,0.));
#1169 = PCURVE('',#1142,#1170);
#1170 = DEFINITIONAL_REPRESENTATION('',(#1171),#1175);
#1171 = LINE('',#1172,#1173);
#1172 = CARTESIAN_POINT('',(0.,7.));
#1173 = VECTOR('',#1174,1.);
#1174 = DIRECTION('',(1.,0.));
#1175 = ( GEOMETRIC_REPRESENTATION_CONTEXT(2) 
PARAMETRIC_REPRESENTATION_CONTEXT() REPRESENTATION_CONTEXT('2D SPACE',''
  ) );
#1176 = PCURVE('',#1177,#1182);
#1177 = PLANE('',#1178);
#1178 = AXIS2_PLACEMENT_3D('',#1179,#1180,#1181);
#1179 = CARTESIAN_POINT('',(0.,-38.5,7.771561172376E-16));
#1180 = DIRECTION('',(0.,-1.,2.22044604925E-16));
#1181 = DIRECTION('',(1.,0.,0.));
#1182 = DEFINITIONAL_REPRESENTATION('',(#1183),#1187);
#1183 = CIRCLE('',#1184,16.5);
#1184 = AXIS2_PLACEMENT_2D('',#1185,#1186);
#1185 = CARTESIAN_POINT('',(0.,0.));
#1186 = DIRECTION('',(1.,0.));
#1187 = ( GEOMETRIC_REPRESENTATION_CONTEXT(2) 
PARAMETRIC_REPRESENTATION_CONTEXT() REPRESENTATION_CONTEXT('2D SPACE',''
  ) );
#1188 = ORIENTED_EDGE('',*,*,#1189,.F.);
#1189 = EDGE_CURVE('',#1126,#1161,#1190,.T.);
#1190 = SEAM_CURVE('',#1191,(#1195,#1202),.PCURVE_S1.);
#1191 = LINE('',#1192,#1193);
#1192 = CARTESIAN_POINT('',(16.5,-31.5,-4.818490554424E-15));
#1193 = VECTOR('',#1194,1.);
#1194 = DIRECTION('',(0.,-1.,2.22044604925E-16));
#1195 = PCURVE('',#1142,#1196);
#1196 = DEFINITIONAL_REPRESENTATION('',(#1197),#1201);
#1197 = LINE('',#1198,#1199);
#1198 = CARTESIAN_POINT('',(6.28318530718,-0.));
#1199 = VECTOR('',#1200,1.);
#1200 = DIRECTION('',(0.,1.));
#1201 = ( GEOMETRIC_REPRESENTATION_CONTEXT(2) 
PARAMETRIC_REPRESENTATION_CONTEXT() REPRESENTATION_CONTEXT('2D SPACE',''
  ) );
#1202 = PCURVE('',#1142,#1203);
#1203 = DEFINITIONAL_REPRESENTATION('',(#1204),#1208);
#1204 = LINE('',#1205,#1206);
#1205 = CARTESIAN_POINT('',(0.,-0.));
#1206 = VECTOR('',#1207,1.);
#1207 = DIRECTION('',(0.,1.));
#1208 = ( GEOMETRIC_REPRESENTATION_CONTEXT(2) 
PARAMETRIC_REPRESENTATION_CONTEXT() REPRESENTATION_CONTEXT('2D SPACE',''
  ) );
#1209 = ORIENTED_EDGE('',*,*,#1125,.T.);
#1210 = ORIENTED_EDGE('',*,*,#1189,.T.);
#1211 = ADVANCED_FACE('',(#1212),#1177,.T.);
#1212 = FACE_BOUND('',#1213,.T.);
#1213 = EDGE_LOOP('',(#1214));
#1214 = ORIENTED_EDGE('',*,*,#1160,.T.);
#1215 = ADVANCED_FACE('',(#1216),#311,.T.);
#1216 = FACE_BOUND('',#1217,.T.);
#1217 = EDGE_LOOP('',(#1218,#1243,#1244,#1245));
#1218 = ORIENTED_EDGE('',*,*,#1219,.F.);
#1219 = EDGE_CURVE('',#295,#1049,#1220,.T.);
#1220 = SURFACE_CURVE('',#1221,(#1226,#1236),.PCURVE_S1.);
#1221 = HYPERBOLA('',#1222,1.8,1.8);
#1222 = AXIS2_PLACEMENT_3D('',#1223,#1224,#1225);
#1223 = CARTESIAN_POINT('',(0.,-8.7,1.8));
#1224 = DIRECTION('',(0.,0.,1.));
#1225 = DIRECTION('',(0.,1.,-0.));
#1226 = PCURVE('',#311,#1227);
#1227 = DEFINITIONAL_REPRESENTATION('',(#1228),#1235);
#1228 = B_SPLINE_CURVE_WITH_KNOTS('',5,(#1229,#1230,#1231,#1232,#1233,
    #1234),.UNSPECIFIED.,.F.,.F.,(6,6),(-1.490996308995,-1.098612288668)
  ,.PIECEWISE_BEZIER_KNOTS.);
#1229 = CARTESIAN_POINT('',(5.840274263106,1.2));
#1230 = CARTESIAN_POINT('',(5.806641347078,0.902201466795));
#1231 = CARTESIAN_POINT('',(5.77002722051,0.636735229459));
#1232 = CARTESIAN_POINT('',(5.730160885757,0.399783057119));
#1233 = CARTESIAN_POINT('',(5.686770280826,0.188344329757));
#1234 = CARTESIAN_POINT('',(5.639684198386,0.));
#1235 = ( GEOMETRIC_REPRESENTATION_CONTEXT(2) 
PARAMETRIC_REPRESENTATION_CONTEXT() REPRESENTATION_CONTEXT('2D SPACE',''
  ) );
#1236 = PCURVE('',#337,#1237);
#1237 = DEFINITIONAL_REPRESENTATION('',(#1238),#1242);
#1238 = ( BOUNDED_CURVE() B_SPLINE_CURVE(2,(#1239,#1240,#1241),
.UNSPECIFIED.,.F.,.F.) B_SPLINE_CURVE_WITH_KNOTS((3,3),(-1.490996308995,
-1.098612288668),.PIECEWISE_BEZIER_KNOTS.) CURVE() 
GEOMETRIC_REPRESENTATION_ITEM() RATIONAL_B_SPLINE_CURVE((1.,
1.019307464209,1.)) REPRESENTATION_ITEM('') );
#1239 = CARTESIAN_POINT('',(0.199443123676,-1.832233047034));
#1240 = CARTESIAN_POINT('',(-0.614151238442,-2.567321982966));
#1241 = CARTESIAN_POINT('',(-1.195290068526,-3.032233047034));
#1242 = ( GEOMETRIC_REPRESENTATION_CONTEXT(2) 
PARAMETRIC_REPRESENTATION_CONTEXT() REPRESENTATION_CONTEXT('2D SPACE',''
  ) );
#1243 = ORIENTED_EDGE('',*,*,#294,.T.);
#1244 = ORIENTED_EDGE('',*,*,#648,.T.);
#1245 = ORIENTED_EDGE('',*,*,#1069,.T.);
#1246 = ADVANCED_FACE('',(#1247),#337,.T.);
#1247 = FACE_BOUND('',#1248,.T.);
#1248 = EDGE_LOOP('',(#1249,#1250,#1251,#1252,#1273,#1274));
#1249 = ORIENTED_EDGE('',*,*,#1048,.T.);
#1250 = ORIENTED_EDGE('',*,*,#727,.T.);
#1251 = ORIENTED_EDGE('',*,*,#997,.T.);
#1252 = ORIENTED_EDGE('',*,*,#1253,.T.);
#1253 = EDGE_CURVE('',#974,#323,#1254,.T.);
#1254 = SURFACE_CURVE('',#1255,(#1259,#1266),.PCURVE_S1.);
#1255 = LINE('',#1256,#1257);
#1256 = CARTESIAN_POINT('',(6.7,0.,1.8));
#1257 = VECTOR('',#1258,1.);
#1258 = DIRECTION('',(-1.,0.,0.));
#1259 = PCURVE('',#337,#1260);
#1260 = DEFINITIONAL_REPRESENTATION('',(#1261),#1265);
#1261 = LINE('',#1262,#1263);
#1262 = CARTESIAN_POINT('',(3.104709931474,2.667766952966));
#1263 = VECTOR('',#1264,1.);
#1264 = DIRECTION('',(-1.,0.));
#1265 = ( GEOMETRIC_REPRESENTATION_CONTEXT(2) 
PARAMETRIC_REPRESENTATION_CONTEXT() REPRESENTATION_CONTEXT('2D SPACE',''
  ) );
#1266 = PCURVE('',#232,#1267);
#1267 = DEFINITIONAL_REPRESENTATION('',(#1268),#1272);
#1268 = LINE('',#1269,#1270);
#1269 = CARTESIAN_POINT('',(3.14159265359,5.));
#1270 = VECTOR('',#1271,1.);
#1271 = DIRECTION('',(0.,-1.));
#1272 = ( GEOMETRIC_REPRESENTATION_CONTEXT(2) 
PARAMETRIC_REPRESENTATION_CONTEXT() REPRESENTATION_CONTEXT('2D SPACE',''
  ) );
#1273 = ORIENTED_EDGE('',*,*,#322,.T.);
#1274 = ORIENTED_EDGE('',*,*,#1219,.T.);
#1275 = ADVANCED_FACE('',(#1276),#232,.T.);
#1276 = FACE_BOUND('',#1277,.T.);
#1277 = EDGE_LOOP('',(#1278,#1279,#1280,#1281,#1282));
#1278 = ORIENTED_EDGE('',*,*,#626,.F.);
#1279 = ORIENTED_EDGE('',*,*,#166,.T.);
#1280 = ORIENTED_EDGE('',*,*,#348,.T.);
#1281 = ORIENTED_EDGE('',*,*,#1253,.F.);
#1282 = ORIENTED_EDGE('',*,*,#973,.F.);
#1283 = ADVANCED_FACE('',(#1284,#1287),#61,.T.);
#1284 = FACE_BOUND('',#1285,.T.);
#1285 = EDGE_LOOP('',(#1286));
#1286 = ORIENTED_EDGE('',*,*,#39,.F.);
#1287 = FACE_BOUND('',#1288,.T.);
#1288 = EDGE_LOOP('',(#1289,#1317,#1343,#1369));
#1289 = ORIENTED_EDGE('',*,*,#1290,.F.);
#1290 = EDGE_CURVE('',#1291,#1293,#1295,.T.);
#1291 = VERTEX_POINT('',#1292);
#1292 = CARTESIAN_POINT('',(-1.7,31.3,1.7));
#1293 = VERTEX_POINT('',#1294);
#1294 = CARTESIAN_POINT('',(1.7,31.3,1.7));
#1295 = SURFACE_CURVE('',#1296,(#1300,#1306),.PCURVE_S1.);
#1296 = LINE('',#1297,#1298);
#1297 = CARTESIAN_POINT('',(-10.85,31.3,1.7));
#1298 = VECTOR('',#1299,1.);
#1299 = DIRECTION('',(1.,0.,-0.));
#1300 = PCURVE('',#61,#1301);
#1301 = DEFINITIONAL_REPRESENTATION('',(#1302),#1305);
#1302 = B_SPLINE_CURVE_WITH_KNOTS('',1,(#1303,#1304),.UNSPECIFIED.,.F.,
  .F.,(2,2),(9.15,12.55),.PIECEWISE_BEZIER_KNOTS.);
#1303 = CARTESIAN_POINT('',(21.7,18.3));
#1304 = CARTESIAN_POINT('',(21.7,21.7));
#1305 = ( GEOMETRIC_REPRESENTATION_CONTEXT(2) 
PARAMETRIC_REPRESENTATION_CONTEXT() REPRESENTATION_CONTEXT('2D SPACE',''
  ) );
#1306 = PCURVE('',#1307,#1312);
#1307 = PLANE('',#1308);
#1308 = AXIS2_PLACEMENT_3D('',#1309,#1310,#1311);
#1309 = CARTESIAN_POINT('',(-1.7,31.,1.7));
#1310 = DIRECTION('',(0.,0.,1.));
#1311 = DIRECTION('',(1.,0.,-0.));
#1312 = DEFINITIONAL_REPRESENTATION('',(#1313),#1316);
#1313 = B_SPLINE_CURVE_WITH_KNOTS('',1,(#1314,#1315),.UNSPECIFIED.,.F.,
  .F.,(2,2),(9.15,12.55),.PIECEWISE_BEZIER_KNOTS.);
#1314 = CARTESIAN_POINT('',(0.,0.3));
#1315 = CARTESIAN_POINT('',(3.4,0.3));
#1316 = ( GEOMETRIC_REPRESENTATION_CONTEXT(2) 
PARAMETRIC_REPRESENTATION_CONTEXT() REPRESENTATION_CONTEXT('2D SPACE',''
  ) );
#1317 = ORIENTED_EDGE('',*,*,#1318,.T.);
#1318 = EDGE_CURVE('',#1291,#1319,#1321,.T.);
#1319 = VERTEX_POINT('',#1320);
#1320 = CARTESIAN_POINT('',(-1.7,31.3,-1.7));
#1321 = SURFACE_CURVE('',#1322,(#1326,#1332),.PCURVE_S1.);
#1322 = LINE('',#1323,#1324);
#1323 = CARTESIAN_POINT('',(-1.7,31.3,-10.85));
#1324 = VECTOR('',#1325,1.);
#1325 = DIRECTION('',(-0.,0.,-1.));
#1326 = PCURVE('',#61,#1327);
#1327 = DEFINITIONAL_REPRESENTATION('',(#1328),#1331);
#1328 = B_SPLINE_CURVE_WITH_KNOTS('',1,(#1329,#1330),.UNSPECIFIED.,.F.,
  .F.,(2,2),(-12.55,-9.15),.PIECEWISE_BEZIER_KNOTS.);
#1329 = CARTESIAN_POINT('',(21.7,18.3));
#1330 = CARTESIAN_POINT('',(18.3,18.3));
#1331 = ( GEOMETRIC_REPRESENTATION_CONTEXT(2) 
PARAMETRIC_REPRESENTATION_CONTEXT() REPRESENTATION_CONTEXT('2D SPACE',''
  ) );
#1332 = PCURVE('',#1333,#1338);
#1333 = PLANE('',#1334);
#1334 = AXIS2_PLACEMENT_3D('',#1335,#1336,#1337);
#1335 = CARTESIAN_POINT('',(-1.7,31.,-1.7));
#1336 = DIRECTION('',(1.,0.,-0.));
#1337 = DIRECTION('',(0.,0.,1.));
#1338 = DEFINITIONAL_REPRESENTATION('',(#1339),#1342);
#1339 = B_SPLINE_CURVE_WITH_KNOTS('',1,(#1340,#1341),.UNSPECIFIED.,.F.,
  .F.,(2,2),(-12.55,-9.15),.PIECEWISE_BEZIER_KNOTS.);
#1340 = CARTESIAN_POINT('',(3.4,-0.3));
#1341 = CARTESIAN_POINT('',(0.,-0.3));
#1342 = ( GEOMETRIC_REPRESENTATION_CONTEXT(2) 
PARAMETRIC_REPRESENTATION_CONTEXT() REPRESENTATION_CONTEXT('2D SPACE',''
  ) );
#1343 = ORIENTED_EDGE('',*,*,#1344,.T.);
#1344 = EDGE_CURVE('',#1319,#1345,#1347,.T.);
#1345 = VERTEX_POINT('',#1346);
#1346 = CARTESIAN_POINT('',(1.7,31.3,-1.7));
#1347 = SURFACE_CURVE('',#1348,(#1352,#1358),.PCURVE_S1.);
#1348 = LINE('',#1349,#1350);
#1349 = CARTESIAN_POINT('',(-10.85,31.3,-1.7));
#1350 = VECTOR('',#1351,1.);
#1351 = DIRECTION('',(1.,0.,-0.));
#1352 = PCURVE('',#61,#1353);
#1353 = DEFINITIONAL_REPRESENTATION('',(#1354),#1357);
#1354 = B_SPLINE_CURVE_WITH_KNOTS('',1,(#1355,#1356),.UNSPECIFIED.,.F.,
  .F.,(2,2),(9.15,12.55),.PIECEWISE_BEZIER_KNOTS.);
#1355 = CARTESIAN_POINT('',(18.3,18.3));
#1356 = CARTESIAN_POINT('',(18.3,21.7));
#1357 = ( GEOMETRIC_REPRESENTATION_CONTEXT(2) 
PARAMETRIC_REPRESENTATION_CONTEXT() REPRESENTATION_CONTEXT('2D SPACE',''
  ) );
#1358 = PCURVE('',#1359,#1364);
#1359 = PLANE('',#1360);
#1360 = AXIS2_PLACEMENT_3D('',#1361,#1362,#1363);
#1361 = CARTESIAN_POINT('',(-1.7,31.,-1.7));
#1362 = DIRECTION('',(0.,0.,1.));
#1363 = DIRECTION('',(1.,0.,-0.));
#1364 = DEFINITIONAL_REPRESENTATION('',(#1365),#1368);
#1365 = B_SPLINE_CURVE_WITH_KNOTS('',1,(#1366,#1367),.UNSPECIFIED.,.F.,
  .F.,(2,2),(9.15,12.55),.PIECEWISE_BEZIER_KNOTS.);
#1366 = CARTESIAN_POINT('',(0.,0.3));
#1367 = CARTESIAN_POINT('',(3.4,0.3));
#1368 = ( GEOMETRIC_REPRESENTATION_CONTEXT(2) 
PARAMETRIC_REPRESENTATION_CONTEXT() REPRESENTATION_CONTEXT('2D SPACE',''
  ) );
#1369 = ORIENTED_EDGE('',*,*,#1370,.F.);
#1370 = EDGE_CURVE('',#1293,#1345,#1371,.T.);
#1371 = SURFACE_CURVE('',#1372,(#1376,#1382),.PCURVE_S1.);
#1372 = LINE('',#1373,#1374);
#1373 = CARTESIAN_POINT('',(1.7,31.3,-10.85));
#1374 = VECTOR('',#1375,1.);
#1375 = DIRECTION('',(-0.,0.,-1.));
#1376 = PCURVE('',#61,#1377);
#1377 = DEFINITIONAL_REPRESENTATION('',(#1378),#1381);
#1378 = B_SPLINE_CURVE_WITH_KNOTS('',1,(#1379,#1380),.UNSPECIFIED.,.F.,
  .F.,(2,2),(-12.55,-9.15),.PIECEWISE_BEZIER_KNOTS.);
#1379 = CARTESIAN_POINT('',(21.7,21.7));
#1380 = CARTESIAN_POINT('',(18.3,21.7));
#1381 = ( GEOMETRIC_REPRESENTATION_CONTEXT(2) 
PARAMETRIC_REPRESENTATION_CONTEXT() REPRESENTATION_CONTEXT('2D SPACE',''
  ) );
#1382 = PCURVE('',#1383,#1388);
#1383 = PLANE('',#1384);
#1384 = AXIS2_PLACEMENT_3D('',#1385,#1386,#1387);
#1385 = CARTESIAN_POINT('',(1.7,31.,-1.7));
#1386 = DIRECTION('',(1.,0.,-0.));
#1387 = DIRECTION('',(0.,0.,1.));
#1388 = DEFINITIONAL_REPRESENTATION('',(#1389),#1392);
#1389 = B_SPLINE_CURVE_WITH_KNOTS('',1,(#1390,#1391),.UNSPECIFIED.,.F.,
  .F.,(2,2),(-12.55,-9.15),.PIECEWISE_BEZIER_KNOTS.);
#1390 = CARTESIAN_POINT('',(3.4,-0.3));
#1391 = CARTESIAN_POINT('',(0.,-0.3));
#1392 = ( GEOMETRIC_REPRESENTATION_CONTEXT(2) 
PARAMETRIC_REPRESENTATION_CONTEXT() REPRESENTATION_CONTEXT('2D SPACE',''
  ) );
#1393 = ADVANCED_FACE('',(#1394),#1333,.F.);
#1394 = FACE_BOUND('',#1395,.F.);
#1395 = EDGE_LOOP('',(#1396,#1419,#1420,#1443));
#1396 = ORIENTED_EDGE('',*,*,#1397,.F.);
#1397 = EDGE_CURVE('',#1291,#1398,#1400,.T.);
#1398 = VERTEX_POINT('',#1399);
#1399 = CARTESIAN_POINT('',(-1.7,37.,1.7));
#1400 = SURFACE_CURVE('',#1401,(#1405,#1412),.PCURVE_S1.);
#1401 = LINE('',#1402,#1403);
#1402 = CARTESIAN_POINT('',(-1.7,31.,1.7));
#1403 = VECTOR('',#1404,1.);
#1404 = DIRECTION('',(-0.,1.,0.));
#1405 = PCURVE('',#1333,#1406);
#1406 = DEFINITIONAL_REPRESENTATION('',(#1407),#1411);
#1407 = LINE('',#1408,#1409);
#1408 = CARTESIAN_POINT('',(3.4,0.));
#1409 = VECTOR('',#1410,1.);
#1410 = DIRECTION('',(0.,-1.));
#1411 = ( GEOMETRIC_REPRESENTATION_CONTEXT(2) 
PARAMETRIC_REPRESENTATION_CONTEXT() REPRESENTATION_CONTEXT('2D SPACE',''
  ) );
#1412 = PCURVE('',#1307,#1413);
#1413 = DEFINITIONAL_REPRESENTATION('',(#1414),#1418);
#1414 = LINE('',#1415,#1416);
#1415 = CARTESIAN_POINT('',(0.,0.));
#1416 = VECTOR('',#1417,1.);
#1417 = DIRECTION('',(0.,1.));
#1418 = ( GEOMETRIC_REPRESENTATION_CONTEXT(2) 
PARAMETRIC_REPRESENTATION_CONTEXT() REPRESENTATION_CONTEXT('2D SPACE',''
  ) );
#1419 = ORIENTED_EDGE('',*,*,#1318,.T.);
#1420 = ORIENTED_EDGE('',*,*,#1421,.T.);
#1421 = EDGE_CURVE('',#1319,#1422,#1424,.T.);
#1422 = VERTEX_POINT('',#1423);
#1423 = CARTESIAN_POINT('',(-1.7,37.,-1.7));
#1424 = SURFACE_CURVE('',#1425,(#1429,#1436),.PCURVE_S1.);
#1425 = LINE('',#1426,#1427);
#1426 = CARTESIAN_POINT('',(-1.7,31.,-1.7));
#1427 = VECTOR('',#1428,1.);
#1428 = DIRECTION('',(-0.,1.,0.));
#1429 = PCURVE('',#1333,#1430);
#1430 = DEFINITIONAL_REPRESENTATION('',(#1431),#1435);
#1431 = LINE('',#1432,#1433);
#1432 = CARTESIAN_POINT('',(0.,0.));
#1433 = VECTOR('',#1434,1.);
#1434 = DIRECTION('',(0.,-1.));
#1435 = ( GEOMETRIC_REPRESENTATION_CONTEXT(2) 
PARAMETRIC_REPRESENTATION_CONTEXT() REPRESENTATION_CONTEXT('2D SPACE',''
  ) );
#1436 = PCURVE('',#1359,#1437);
#1437 = DEFINITIONAL_REPRESENTATION('',(#1438),#1442);
#1438 = LINE('',#1439,#1440);
#1439 = CARTESIAN_POINT('',(0.,0.));
#1440 = VECTOR('',#1441,1.);
#1441 = DIRECTION('',(0.,1.));
#1442 = ( GEOMETRIC_REPRESENTATION_CONTEXT(2) 
PARAMETRIC_REPRESENTATION_CONTEXT() REPRESENTATION_CONTEXT('2D SPACE',''
  ) );
#1443 = ORIENTED_EDGE('',*,*,#1444,.T.);
#1444 = EDGE_CURVE('',#1422,#1398,#1445,.T.);
#1445 = SURFACE_CURVE('',#1446,(#1450,#1457),.PCURVE_S1.);
#1446 = LINE('',#1447,#1448);
#1447 = CARTESIAN_POINT('',(-1.7,37.,-1.7));
#1448 = VECTOR('',#1449,1.);
#1449 = DIRECTION('',(0.,0.,1.));
#1450 = PCURVE('',#1333,#1451);
#1451 = DEFINITIONAL_REPRESENTATION('',(#1452),#1456);
#1452 = LINE('',#1453,#1454);
#1453 = CARTESIAN_POINT('',(0.,-6.));
#1454 = VECTOR('',#1455,1.);
#1455 = DIRECTION('',(1.,0.));
#1456 = ( GEOMETRIC_REPRESENTATION_CONTEXT(2) 
PARAMETRIC_REPRESENTATION_CONTEXT() REPRESENTATION_CONTEXT('2D SPACE',''
  ) );
#1457 = PCURVE('',#1458,#1463);
#1458 = PLANE('',#1459);
#1459 = AXIS2_PLACEMENT_3D('',#1460,#1461,#1462);
#1460 = CARTESIAN_POINT('',(-1.7,37.,-1.7));
#1461 = DIRECTION('',(-0.,1.,0.));
#1462 = DIRECTION('',(0.,0.,1.));
#1463 = DEFINITIONAL_REPRESENTATION('',(#1464),#1468);
#1464 = LINE('',#1465,#1466);
#1465 = CARTESIAN_POINT('',(0.,0.));
#1466 = VECTOR('',#1467,1.);
#1467 = DIRECTION('',(1.,0.));
#1468 = ( GEOMETRIC_REPRESENTATION_CONTEXT(2) 
PARAMETRIC_REPRESENTATION_CONTEXT() REPRESENTATION_CONTEXT('2D SPACE',''
  ) );
#1469 = ADVANCED_FACE('',(#1470),#1458,.T.);
#1470 = FACE_BOUND('',#1471,.T.);
#1471 = EDGE_LOOP('',(#1472,#1495,#1496,#1519));
#1472 = ORIENTED_EDGE('',*,*,#1473,.F.);
#1473 = EDGE_CURVE('',#1422,#1474,#1476,.T.);
#1474 = VERTEX_POINT('',#1475);
#1475 = CARTESIAN_POINT('',(1.7,37.,-1.7));
#1476 = SURFACE_CURVE('',#1477,(#1481,#1488),.PCURVE_S1.);
#1477 = LINE('',#1478,#1479);
#1478 = CARTESIAN_POINT('',(-1.7,37.,-1.7));
#1479 = VECTOR('',#1480,1.);
#1480 = DIRECTION('',(1.,0.,-0.));
#1481 = PCURVE('',#1458,#1482);
#1482 = DEFINITIONAL_REPRESENTATION('',(#1483),#1487);
#1483 = LINE('',#1484,#1485);
#1484 = CARTESIAN_POINT('',(0.,0.));
#1485 = VECTOR('',#1486,1.);
#1486 = DIRECTION('',(0.,1.));
#1487 = ( GEOMETRIC_REPRESENTATION_CONTEXT(2) 
PARAMETRIC_REPRESENTATION_CONTEXT() REPRESENTATION_CONTEXT('2D SPACE',''
  ) );
#1488 = PCURVE('',#1359,#1489);
#1489 = DEFINITIONAL_REPRESENTATION('',(#1490),#1494);
#1490 = LINE('',#1491,#1492);
#1491 = CARTESIAN_POINT('',(0.,6.));
#1492 = VECTOR('',#1493,1.);
#1493 = DIRECTION('',(1.,0.));
#1494 = ( GEOMETRIC_REPRESENTATION_CONTEXT(2) 
PARAMETRIC_REPRESENTATION_CONTEXT() REPRESENTATION_CONTEXT('2D SPACE',''
  ) );
#1495 = ORIENTED_EDGE('',*,*,#1444,.T.);
#1496 = ORIENTED_EDGE('',*,*,#1497,.T.);
#1497 = EDGE_CURVE('',#1398,#1498,#1500,.T.);
#1498 = VERTEX_POINT('',#1499);
#1499 = CARTESIAN_POINT('',(1.7,37.,1.7));
#1500 = SURFACE_CURVE('',#1501,(#1505,#1512),.PCURVE_S1.);
#1501 = LINE('',#1502,#1503);
#1502 = CARTESIAN_POINT('',(-1.7,37.,1.7));
#1503 = VECTOR('',#1504,1.);
#1504 = DIRECTION('',(1.,0.,-0.));
#1505 = PCURVE('',#1458,#1506);
#1506 = DEFINITIONAL_REPRESENTATION('',(#1507),#1511);
#1507 = LINE('',#1508,#1509);
#1508 = CARTESIAN_POINT('',(3.4,0.));
#1509 = VECTOR('',#1510,1.);
#1510 = DIRECTION('',(0.,1.));
#1511 = ( GEOMETRIC_REPRESENTATION_CONTEXT(2) 
PARAMETRIC_REPRESENTATION_CONTEXT() REPRESENTATION_CONTEXT('2D SPACE',''
  ) );
#1512 = PCURVE('',#1307,#1513);
#1513 = DEFINITIONAL_REPRESENTATION('',(#1514),#1518);
#1514 = LINE('',#1515,#1516);
#1515 = CARTESIAN_POINT('',(0.,6.));
#1516 = VECTOR('',#1517,1.);
#1517 = DIRECTION('',(1.,0.));
#1518 = ( GEOMETRIC_REPRESENTATION_CONTEXT(2) 
PARAMETRIC_REPRESENTATION_CONTEXT() REPRESENTATION_CONTEXT('2D SPACE',''
  ) );
#1519 = ORIENTED_EDGE('',*,*,#1520,.F.);
#1520 = EDGE_CURVE('',#1474,#1498,#1521,.T.);
#1521 = SURFACE_CURVE('',#1522,(#1526,#1533),.PCURVE_S1.);
#1522 = LINE('',#1523,#1524);
#1523 = CARTESIAN_POINT('',(1.7,37.,-1.7));
#1524 = VECTOR('',#1525,1.);
#1525 = DIRECTION('',(0.,0.,1.));
#1526 = PCURVE('',#1458,#1527);
#1527 = DEFINITIONAL_REPRESENTATION('',(#1528),#1532);
#1528 = LINE('',#1529,#1530);
#1529 = CARTESIAN_POINT('',(0.,3.4));
#1530 = VECTOR('',#1531,1.);
#1531 = DIRECTION('',(1.,0.));
#1532 = ( GEOMETRIC_REPRESENTATION_CONTEXT(2) 
PARAMETRIC_REPRESENTATION_CONTEXT() REPRESENTATION_CONTEXT('2D SPACE',''
  ) );
#1533 = PCURVE('',#1383,#1534);
#1534 = DEFINITIONAL_REPRESENTATION('',(#1535),#1539);
#1535 = LINE('',#1536,#1537);
#1536 = CARTESIAN_POINT('',(0.,-6.));
#1537 = VECTOR('',#1538,1.);
#1538 = DIRECTION('',(1.,0.));
#1539 = ( GEOMETRIC_REPRESENTATION_CONTEXT(2) 
PARAMETRIC_REPRESENTATION_CONTEXT() REPRESENTATION_CONTEXT('2D SPACE',''
  ) );
#1540 = ADVANCED_FACE('',(#1541),#1359,.F.);
#1541 = FACE_BOUND('',#1542,.F.);
#1542 = EDGE_LOOP('',(#1543,#1544,#1545,#1566));
#1543 = ORIENTED_EDGE('',*,*,#1421,.F.);
#1544 = ORIENTED_EDGE('',*,*,#1344,.T.);
#1545 = ORIENTED_EDGE('',*,*,#1546,.T.);
#1546 = EDGE_CURVE('',#1345,#1474,#1547,.T.);
#1547 = SURFACE_CURVE('',#1548,(#1552,#1559),.PCURVE_S1.);
#1548 = LINE('',#1549,#1550);
#1549 = CARTESIAN_POINT('',(1.7,31.,-1.7));
#1550 = VECTOR('',#1551,1.);
#1551 = DIRECTION('',(-0.,1.,0.));
#1552 = PCURVE('',#1359,#1553);
#1553 = DEFINITIONAL_REPRESENTATION('',(#1554),#1558);
#1554 = LINE('',#1555,#1556);
#1555 = CARTESIAN_POINT('',(3.4,0.));
#1556 = VECTOR('',#1557,1.);
#1557 = DIRECTION('',(0.,1.));
#1558 = ( GEOMETRIC_REPRESENTATION_CONTEXT(2) 
PARAMETRIC_REPRESENTATION_CONTEXT() REPRESENTATION_CONTEXT('2D SPACE',''
  ) );
#1559 = PCURVE('',#1383,#1560);
#1560 = DEFINITIONAL_REPRESENTATION('',(#1561),#1565);
#1561 = LINE('',#1562,#1563);
#1562 = CARTESIAN_POINT('',(0.,0.));
#1563 = VECTOR('',#1564,1.);
#1564 = DIRECTION('',(0.,-1.));
#1565 = ( GEOMETRIC_REPRESENTATION_CONTEXT(2) 
PARAMETRIC_REPRESENTATION_CONTEXT() REPRESENTATION_CONTEXT('2D SPACE',''
  ) );
#1566 = ORIENTED_EDGE('',*,*,#1473,.F.);
#1567 = ADVANCED_FACE('',(#1568),#1383,.T.);
#1568 = FACE_BOUND('',#1569,.T.);
#1569 = EDGE_LOOP('',(#1570,#1591,#1592,#1593));
#1570 = ORIENTED_EDGE('',*,*,#1571,.F.);
#1571 = EDGE_CURVE('',#1293,#1498,#1572,.T.);
#1572 = SURFACE_CURVE('',#1573,(#1577,#1584),.PCURVE_S1.);
#1573 = LINE('',#1574,#1575);
#1574 = CARTESIAN_POINT('',(1.7,31.,1.7));
#1575 = VECTOR('',#1576,1.);
#1576 = DIRECTION('',(-0.,1.,0.));
#1577 = PCURVE('',#1383,#1578);
#1578 = DEFINITIONAL_REPRESENTATION('',(#1579),#1583);
#1579 = LINE('',#1580,#1581);
#1580 = CARTESIAN_POINT('',(3.4,0.));
#1581 = VECTOR('',#1582,1.);
#1582 = DIRECTION('',(0.,-1.));
#1583 = ( GEOMETRIC_REPRESENTATION_CONTEXT(2) 
PARAMETRIC_REPRESENTATION_CONTEXT() REPRESENTATION_CONTEXT('2D SPACE',''
  ) );
#1584 = PCURVE('',#1307,#1585);
#1585 = DEFINITIONAL_REPRESENTATION('',(#1586),#1590);
#1586 = LINE('',#1587,#1588);
#1587 = CARTESIAN_POINT('',(3.4,0.));
#1588 = VECTOR('',#1589,1.);
#1589 = DIRECTION('',(0.,1.));
#1590 = ( GEOMETRIC_REPRESENTATION_CONTEXT(2) 
PARAMETRIC_REPRESENTATION_CONTEXT() REPRESENTATION_CONTEXT('2D SPACE',''
  ) );
#1591 = ORIENTED_EDGE('',*,*,#1370,.T.);
#1592 = ORIENTED_EDGE('',*,*,#1546,.T.);
#1593 = ORIENTED_EDGE('',*,*,#1520,.T.);
#1594 = ADVANCED_FACE('',(#1595),#1307,.T.);
#1595 = FACE_BOUND('',#1596,.T.);
#1596 = EDGE_LOOP('',(#1597,#1598,#1599,#1600));
#1597 = ORIENTED_EDGE('',*,*,#1397,.F.);
#1598 = ORIENTED_EDGE('',*,*,#1290,.T.);
#1599 = ORIENTED_EDGE('',*,*,#1571,.T.);
#1600 = ORIENTED_EDGE('',*,*,#1497,.F.);
#1601 = ( GEOMETRIC_REPRESENTATION_CONTEXT(3) 
GLOBAL_UNCERTAINTY_ASSIGNED_CONTEXT((#1605)) 
GLOBAL_UNIT_ASSIGNED_CONTEXT((#1602,#1603,#1604)) REPRESENTATION_CONTEXT
('Context #1','3D Context with UNIT and UNCERTAINTY') );
#1602 = ( LENGTH_UNIT() NAMED_UNIT(*) SI_UNIT(.MILLI.,.METRE.) );
#1603 = ( NAMED_UNIT(*) PLANE_ANGLE_UNIT() SI_UNIT($,.RADIAN.) );
#1604 = ( NAMED_UNIT(*) SI_UNIT($,.STERADIAN.) SOLID_ANGLE_UNIT() );
#1605 = UNCERTAINTY_MEASURE_WITH_UNIT(LENGTH_MEASURE(1.E-06),#1602,
  'distance_accuracy_value','confusion accuracy');
#1606 = CONTEXT_DEPENDENT_SHAPE_REPRESENTATION(#1607,#1609);
#1607 = ( REPRESENTATION_RELATIONSHIP('','',#32,#10) 
REPRESENTATION_RELATIONSHIP_WITH_TRANSFORMATION(#1608) 
SHAPE_REPRESENTATION_RELATIONSHIP() );
#1608 = ITEM_DEFINED_TRANSFORMATION('','',#11,#15);
#1609 = PRODUCT_DEFINITION_SHAPE('Placement','Placement of an item',
  #1610);
#1610 = NEXT_ASSEMBLY_USAGE_OCCURRENCE('14','=>[0:1:1:2]','',#5,#27,$);
#1611 = PRODUCT_RELATED_PRODUCT_CATEGORY('part',$,(#29));

#1612=DESCRIPTIVE_REPRESENTATION_ITEM('cadgen:generator','cadgen');
#1613=REPRESENTATION('cadgen:generator',(#1612),#19);
#1614=PROPERTY_DEFINITION('cadgen metadata','cadgen:generator',#5);
#1615=PROPERTY_DEFINITION_REPRESENTATION(#1614,#1613);
#1616=DESCRIPTIVE_REPRESENTATION_ITEM('cadgen:entryKind','part');
#1617=REPRESENTATION('cadgen:entryKind',(#1616),#19);
#1618=PROPERTY_DEFINITION('cadgen metadata','cadgen:entryKind',#5);
#1619=PROPERTY_DEFINITION_REPRESENTATION(#1618,#1617);
#1620=DESCRIPTIVE_REPRESENTATION_ITEM('cadgen:sourcePath','part_rear_wheelset.step.py');
#1621=REPRESENTATION('cadgen:sourcePath',(#1620),#19);
#1622=PROPERTY_DEFINITION('cadgen metadata','cadgen:sourcePath',#5);
#1623=PROPERTY_DEFINITION_REPRESENTATION(#1622,#1621);
#1624=DESCRIPTIVE_REPRESENTATION_ITEM('cadgen:sourceHash','114b66a542a7b7c21af5800c43dcf42f9791afae6d1e27a963a2b6abe775845c');
#1625=REPRESENTATION('cadgen:sourceHash',(#1624),#19);
#1626=PROPERTY_DEFINITION('cadgen metadata','cadgen:sourceHash',#5);
#1627=PROPERTY_DEFINITION_REPRESENTATION(#1626,#1625);
ENDSEC;
END-ISO-10303-21;
