ISO-10303-21;
HEADER;
FILE_DESCRIPTION(('Open CASCADE Model'),'2;1');
FILE_NAME('lane_22_cocoa_brown','1970-01-01T00:00:00',('Author'),(
    'Open CASCADE'),'Open CASCADE STEP processor 7.9','cadgen','Unknown'
  );
FILE_SCHEMA(('AUTOMOTIVE_DESIGN { 1 0 10303 214 1 1 1 1 }'));
ENDSEC;
DATA;
#1 = APPLICATION_PROTOCOL_DEFINITION('international standard',
  'automotive_design',2000,#2);
#2 = APPLICATION_CONTEXT(
  'core data for automotive mechanical design processes');
#3 = SHAPE_DEFINITION_REPRESENTATION(#4,#10);
#4 = PRODUCT_DEFINITION_SHAPE('','',#5);
#5 = PRODUCT_DEFINITION('design','',#6,#9);
#6 = PRODUCT_DEFINITION_FORMATION('','',#7);
#7 = PRODUCT('=>[0:1:1:2]','=>[0:1:1:2]','',(#8));
#8 = PRODUCT_CONTEXT('',#2,'mechanical');
#9 = PRODUCT_DEFINITION_CONTEXT('part definition',#2,'design');
#10 = SHAPE_REPRESENTATION('',(#11,#15),#19);
#11 = AXIS2_PLACEMENT_3D('',#12,#13,#14);
#12 = CARTESIAN_POINT('',(0.,0.,0.));
#13 = DIRECTION('',(0.,0.,1.));
#14 = DIRECTION('',(1.,0.,-0.));
#15 = AXIS2_PLACEMENT_3D('',#16,#17,#18);
#16 = CARTESIAN_POINT('',(0.,0.,6.));
#17 = DIRECTION('',(0.,-1.224646799147E-16,-1.));
#18 = DIRECTION('',(1.,0.,0.));
#19 = ( GEOMETRIC_REPRESENTATION_CONTEXT(3) 
GLOBAL_UNCERTAINTY_ASSIGNED_CONTEXT((#23)) GLOBAL_UNIT_ASSIGNED_CONTEXT(
(#20,#21,#22)) REPRESENTATION_CONTEXT('Context #1',
  '3D Context with UNIT and UNCERTAINTY') );
#20 = ( LENGTH_UNIT() NAMED_UNIT(*) SI_UNIT(.MILLI.,.METRE.) );
#21 = ( NAMED_UNIT(*) PLANE_ANGLE_UNIT() SI_UNIT($,.RADIAN.) );
#22 = ( NAMED_UNIT(*) SI_UNIT($,.STERADIAN.) SOLID_ANGLE_UNIT() );
#23 = UNCERTAINTY_MEASURE_WITH_UNIT(LENGTH_MEASURE(1.E-07),#20,
  'distance_accuracy_value','confusion accuracy');
#24 = PRODUCT_RELATED_PRODUCT_CATEGORY('part',$,(#7));
#25 = SHAPE_DEFINITION_REPRESENTATION(#26,#32);
#26 = PRODUCT_DEFINITION_SHAPE('','',#27);
#27 = PRODUCT_DEFINITION('design','',#28,#31);
#28 = PRODUCT_DEFINITION_FORMATION('','',#29);
#29 = PRODUCT('lane_22_cocoa_brown','lane_22_cocoa_brown','',(#30));
#30 = PRODUCT_CONTEXT('',#2,'mechanical');
#31 = PRODUCT_DEFINITION_CONTEXT('part definition',#2,'design');
#32 = ADVANCED_BREP_SHAPE_REPRESENTATION('',(#11,#33),#1426);
#33 = MANIFOLD_SOLID_BREP('',#34);
#34 = CLOSED_SHELL('',(#35,#155,#306,#471,#607,#687,#735,#810,#842,#919,
    #1015,#1042,#1194,#1201,#1208,#1284,#1338,#1387,#1419));
#35 = ADVANCED_FACE('',(#36),#50,.F.);
#36 = FACE_BOUND('',#37,.F.);
#37 = EDGE_LOOP('',(#38,#73,#101,#129));
#38 = ORIENTED_EDGE('',*,*,#39,.F.);
#39 = EDGE_CURVE('',#40,#42,#44,.T.);
#40 = VERTEX_POINT('',#41);
#41 = CARTESIAN_POINT('',(-48.0293384276,-63.41439229548,5.4));
#42 = VERTEX_POINT('',#43);
#43 = CARTESIAN_POINT('',(-48.0293384276,-63.41439229548,5.85));
#44 = SURFACE_CURVE('',#45,(#49,#61),.PCURVE_S1.);
#45 = LINE('',#46,#47);
#46 = CARTESIAN_POINT('',(-48.0293384276,-63.41439229548,3.8));
#47 = VECTOR('',#48,1.);
#48 = DIRECTION('',(0.,0.,1.));
#49 = PCURVE('',#50,#55);
#50 = PLANE('',#51);
#51 = AXIS2_PLACEMENT_3D('',#52,#53,#54);
#52 = CARTESIAN_POINT('',(-15.7326294268,-21.32450166636,3.8));
#53 = DIRECTION('',(0.793353340291,-0.608761429009,0.));
#54 = DIRECTION('',(-0.608761429009,-0.793353340291,0.));
#55 = DEFINITIONAL_REPRESENTATION('',(#56),#60);
#56 = LINE('',#57,#58);
#57 = CARTESIAN_POINT('',(53.053146046716,0.));
#58 = VECTOR('',#59,1.);
#59 = DIRECTION('',(0.,-1.));
#60 = ( GEOMETRIC_REPRESENTATION_CONTEXT(2) 
PARAMETRIC_REPRESENTATION_CONTEXT() REPRESENTATION_CONTEXT('2D SPACE',''
  ) );
#61 = PCURVE('',#62,#67);
#62 = CYLINDRICAL_SURFACE('',#63,79.55);
#63 = AXIS2_PLACEMENT_3D('',#64,#65,#66);
#64 = CARTESIAN_POINT('',(-1.438265108513E-13,-1.974719895879E-13,3.8));
#65 = DIRECTION('',(-0.,-0.,-1.));
#66 = DIRECTION('',(-0.603762896639,-0.797163950918,0.));
#67 = DEFINITIONAL_REPRESENTATION('',(#68),#72);
#68 = LINE('',#69,#70);
#69 = CARTESIAN_POINT('',(-0.,0.));
#70 = VECTOR('',#71,1.);
#71 = DIRECTION('',(-0.,-1.));
#72 = ( GEOMETRIC_REPRESENTATION_CONTEXT(2) 
PARAMETRIC_REPRESENTATION_CONTEXT() REPRESENTATION_CONTEXT('2D SPACE',''
  ) );
#73 = ORIENTED_EDGE('',*,*,#74,.F.);
#74 = EDGE_CURVE('',#75,#40,#77,.T.);
#75 = VERTEX_POINT('',#76);
#76 = CARTESIAN_POINT('',(-15.7326294268,-21.32450166636,5.4));
#77 = SURFACE_CURVE('',#78,(#82,#89),.PCURVE_S1.);
#78 = LINE('',#79,#80);
#79 = CARTESIAN_POINT('',(0.396676670146,-0.304380714504,5.4));
#80 = VECTOR('',#81,1.);
#81 = DIRECTION('',(-0.608761429009,-0.793353340291,0.));
#82 = PCURVE('',#50,#83);
#83 = DEFINITIONAL_REPRESENTATION('',(#84),#88);
#84 = LINE('',#85,#86);
#85 = CARTESIAN_POINT('',(-26.49528259898,-1.6));
#86 = VECTOR('',#87,1.);
#87 = DIRECTION('',(1.,0.));
#88 = ( GEOMETRIC_REPRESENTATION_CONTEXT(2) 
PARAMETRIC_REPRESENTATION_CONTEXT() REPRESENTATION_CONTEXT('2D SPACE',''
  ) );
#89 = PCURVE('',#90,#95);
#90 = PLANE('',#91);
#91 = AXIS2_PLACEMENT_3D('',#92,#93,#94);
#92 = CARTESIAN_POINT('',(0.87268867432,-0.66963757191,3.8));
#93 = DIRECTION('',(-0.742839880637,0.570001088159,-0.351123441588));
#94 = DIRECTION('',(-0.278564955239,0.21375040806,0.936329177569));
#95 = DEFINITIONAL_REPRESENTATION('',(#96),#100);
#96 = LINE('',#97,#98);
#97 = CARTESIAN_POINT('',(1.708800749064,0.));
#98 = VECTOR('',#99,1.);
#99 = DIRECTION('',(0.,-1.));
#100 = ( GEOMETRIC_REPRESENTATION_CONTEXT(2) 
PARAMETRIC_REPRESENTATION_CONTEXT() REPRESENTATION_CONTEXT('2D SPACE',''
  ) );
#101 = ORIENTED_EDGE('',*,*,#102,.T.);
#102 = EDGE_CURVE('',#75,#103,#105,.T.);
#103 = VERTEX_POINT('',#104);
#104 = CARTESIAN_POINT('',(-15.7326294268,-21.32450166636,5.85));
#105 = SURFACE_CURVE('',#106,(#110,#117),.PCURVE_S1.);
#106 = LINE('',#107,#108);
#107 = CARTESIAN_POINT('',(-15.7326294268,-21.32450166636,3.8));
#108 = VECTOR('',#109,1.);
#109 = DIRECTION('',(0.,0.,1.));
#110 = PCURVE('',#50,#111);
#111 = DEFINITIONAL_REPRESENTATION('',(#112),#116);
#112 = LINE('',#113,#114);
#113 = CARTESIAN_POINT('',(1.081377527983E-15,-0.));
#114 = VECTOR('',#115,1.);
#115 = DIRECTION('',(0.,-1.));
#116 = ( GEOMETRIC_REPRESENTATION_CONTEXT(2) 
PARAMETRIC_REPRESENTATION_CONTEXT() REPRESENTATION_CONTEXT('2D SPACE',''
  ) );
#117 = PCURVE('',#118,#123);
#118 = CYLINDRICAL_SURFACE('',#119,26.500000000001);
#119 = AXIS2_PLACEMENT_3D('',#120,#121,#122);
#120 = CARTESIAN_POINT('',(3.992782352435E-13,6.949911794761E-13,3.8));
#121 = DIRECTION('',(0.,0.,-1.));
#122 = DIRECTION('',(-0.400046998216,-0.916494625854,-0.));
#123 = DEFINITIONAL_REPRESENTATION('',(#124),#128);
#124 = LINE('',#125,#126);
#125 = CARTESIAN_POINT('',(0.224061299399,0.));
#126 = VECTOR('',#127,1.);
#127 = DIRECTION('',(0.,-1.));
#128 = ( GEOMETRIC_REPRESENTATION_CONTEXT(2) 
PARAMETRIC_REPRESENTATION_CONTEXT() REPRESENTATION_CONTEXT('2D SPACE',''
  ) );
#129 = ORIENTED_EDGE('',*,*,#130,.T.);
#130 = EDGE_CURVE('',#103,#42,#131,.T.);
#131 = SURFACE_CURVE('',#132,(#136,#143),.PCURVE_S1.);
#132 = LINE('',#133,#134);
#133 = CARTESIAN_POINT('',(-15.7326294268,-21.32450166636,5.85));
#134 = VECTOR('',#135,1.);
#135 = DIRECTION('',(-0.608761429009,-0.793353340291,0.));
#136 = PCURVE('',#50,#137);
#137 = DEFINITIONAL_REPRESENTATION('',(#138),#142);
#138 = LINE('',#139,#140);
#139 = CARTESIAN_POINT('',(0.,-2.05));
#140 = VECTOR('',#141,1.);
#141 = DIRECTION('',(1.,0.));
#142 = ( GEOMETRIC_REPRESENTATION_CONTEXT(2) 
PARAMETRIC_REPRESENTATION_CONTEXT() REPRESENTATION_CONTEXT('2D SPACE',''
  ) );
#143 = PCURVE('',#144,#149);
#144 = CYLINDRICAL_SURFACE('',#145,0.15);
#145 = AXIS2_PLACEMENT_3D('',#146,#147,#148);
#146 = CARTESIAN_POINT('',(-15.61362642575,-21.41581588071,5.85));
#147 = DIRECTION('',(-0.608761429009,-0.793353340291,0.));
#148 = DIRECTION('',(-0.793353340291,0.608761429009,0.));
#149 = DEFINITIONAL_REPRESENTATION('',(#150),#154);
#150 = LINE('',#151,#152);
#151 = CARTESIAN_POINT('',(-0.,0.));
#152 = VECTOR('',#153,1.);
#153 = DIRECTION('',(-0.,1.));
#154 = ( GEOMETRIC_REPRESENTATION_CONTEXT(2) 
PARAMETRIC_REPRESENTATION_CONTEXT() REPRESENTATION_CONTEXT('2D SPACE',''
  ) );
#155 = ADVANCED_FACE('',(#156),#62,.T.);
#156 = FACE_BOUND('',#157,.F.);
#157 = EDGE_LOOP('',(#158,#159,#188,#216,#248,#281));
#158 = ORIENTED_EDGE('',*,*,#39,.T.);
#159 = ORIENTED_EDGE('',*,*,#160,.T.);
#160 = EDGE_CURVE('',#42,#161,#163,.T.);
#161 = VERTEX_POINT('',#162);
#162 = CARTESIAN_POINT('',(-30.90380547964,-73.30182335301,5.85));
#163 = SURFACE_CURVE('',#164,(#169,#176),.PCURVE_S1.);
#164 = CIRCLE('',#165,79.55);
#165 = AXIS2_PLACEMENT_3D('',#166,#167,#168);
#166 = CARTESIAN_POINT('',(-1.42108547152E-13,-1.989519660128E-13,5.85)
  );
#167 = DIRECTION('',(0.,0.,1.));
#168 = DIRECTION('',(-0.603762896639,-0.797163950918,0.));
#169 = PCURVE('',#62,#170);
#170 = DEFINITIONAL_REPRESENTATION('',(#171),#175);
#171 = LINE('',#172,#173);
#172 = CARTESIAN_POINT('',(-5.445798734201E-18,-2.05));
#173 = VECTOR('',#174,1.);
#174 = DIRECTION('',(-1.,0.));
#175 = ( GEOMETRIC_REPRESENTATION_CONTEXT(2) 
PARAMETRIC_REPRESENTATION_CONTEXT() REPRESENTATION_CONTEXT('2D SPACE',''
  ) );
#176 = PCURVE('',#177,#182);
#177 = TOROIDAL_SURFACE('',#178,79.4,0.15);
#178 = AXIS2_PLACEMENT_3D('',#179,#180,#181);
#179 = CARTESIAN_POINT('',(-1.42108547152E-13,-1.989519660128E-13,5.85)
  );
#180 = DIRECTION('',(0.,0.,1.));
#181 = DIRECTION('',(-0.603762896639,-0.797163950918,0.));
#182 = DEFINITIONAL_REPRESENTATION('',(#183),#187);
#183 = LINE('',#184,#185);
#184 = CARTESIAN_POINT('',(0.,0.));
#185 = VECTOR('',#186,1.);
#186 = DIRECTION('',(1.,0.));
#187 = ( GEOMETRIC_REPRESENTATION_CONTEXT(2) 
PARAMETRIC_REPRESENTATION_CONTEXT() REPRESENTATION_CONTEXT('2D SPACE',''
  ) );
#188 = ORIENTED_EDGE('',*,*,#189,.F.);
#189 = EDGE_CURVE('',#190,#161,#192,.T.);
#190 = VERTEX_POINT('',#191);
#191 = CARTESIAN_POINT('',(-30.90380547964,-73.30182335301,5.4));
#192 = SURFACE_CURVE('',#193,(#197,#204),.PCURVE_S1.);
#193 = LINE('',#194,#195);
#194 = CARTESIAN_POINT('',(-30.90380547964,-73.30182335301,3.8));
#195 = VECTOR('',#196,1.);
#196 = DIRECTION('',(0.,0.,1.));
#197 = PCURVE('',#62,#198);
#198 = DEFINITIONAL_REPRESENTATION('',(#199),#203);
#199 = LINE('',#200,#201);
#200 = CARTESIAN_POINT('',(-0.249228594783,0.));
#201 = VECTOR('',#202,1.);
#202 = DIRECTION('',(-0.,-1.));
#203 = ( GEOMETRIC_REPRESENTATION_CONTEXT(2) 
PARAMETRIC_REPRESENTATION_CONTEXT() REPRESENTATION_CONTEXT('2D SPACE',''
  ) );
#204 = PCURVE('',#205,#210);
#205 = PLANE('',#206);
#206 = AXIS2_PLACEMENT_3D('',#207,#208,#209);
#207 = CARTESIAN_POINT('',(-30.90380547964,-73.30182335301,3.8));
#208 = DIRECTION('',(-0.923879532511,0.382683432365,0.));
#209 = DIRECTION('',(0.382683432365,0.923879532511,0.));
#210 = DEFINITIONAL_REPRESENTATION('',(#211),#215);
#211 = LINE('',#212,#213);
#212 = CARTESIAN_POINT('',(-1.359564664814E-15,0.));
#213 = VECTOR('',#214,1.);
#214 = DIRECTION('',(0.,-1.));
#215 = ( GEOMETRIC_REPRESENTATION_CONTEXT(2) 
PARAMETRIC_REPRESENTATION_CONTEXT() REPRESENTATION_CONTEXT('2D SPACE',''
  ) );
#216 = ORIENTED_EDGE('',*,*,#217,.T.);
#217 = EDGE_CURVE('',#190,#218,#220,.T.);
#218 = VERTEX_POINT('',#219);
#219 = CARTESIAN_POINT('',(-31.04197248402,-73.2434191194,5.));
#220 = SURFACE_CURVE('',#221,(#226,#236),.PCURVE_S1.);
#221 = ELLIPSE('',#222,226.55849931333,79.55);
#222 = AXIS2_PLACEMENT_3D('',#223,#224,#225);
#223 = CARTESIAN_POINT('',(-1.438265108513E-13,-1.974719895879E-13,
    6.733333333333));
#224 = DIRECTION('',(0.865055362849,-0.358317663496,-0.351123441588));
#225 = DIRECTION('',(-0.324395761068,0.134369123811,-0.936329177569));
#226 = PCURVE('',#62,#227);
#227 = DEFINITIONAL_REPRESENTATION('',(#228),#235);
#228 = B_SPLINE_CURVE_WITH_KNOTS('',5,(#229,#230,#231,#232,#233,#234),
  .UNSPECIFIED.,.F.,.F.,(6,6),(4.718674376893,4.720560035797),
  .PIECEWISE_BEZIER_KNOTS.);
#229 = CARTESIAN_POINT('',(-0.249228594783,-1.6));
#230 = CARTESIAN_POINT('',(-0.248851463003,-1.519999358496));
#231 = CARTESIAN_POINT('',(-0.248474331222,-1.439998954039));
#232 = CARTESIAN_POINT('',(-0.248097199441,-1.359998810334));
#233 = CARTESIAN_POINT('',(-0.24772006766,-1.279998951086));
#234 = CARTESIAN_POINT('',(-0.247342935879,-1.1999994));
#235 = ( GEOMETRIC_REPRESENTATION_CONTEXT(2) 
PARAMETRIC_REPRESENTATION_CONTEXT() REPRESENTATION_CONTEXT('2D SPACE',''
  ) );
#236 = PCURVE('',#237,#242);
#237 = PLANE('',#238);
#238 = AXIS2_PLACEMENT_3D('',#239,#240,#241);
#239 = CARTESIAN_POINT('',(-0.461939766256,0.191341716183,5.4));
#240 = DIRECTION('',(0.865055362849,-0.358317663496,-0.351123441588));
#241 = DIRECTION('',(-0.324395761068,0.134369123811,-0.936329177569));
#242 = DEFINITIONAL_REPRESENTATION('',(#243),#247);
#243 = ELLIPSE('',#244,226.55849931333,79.55);
#244 = AXIS2_PLACEMENT_2D('',#245,#246);
#245 = CARTESIAN_POINT('',(-1.424000624219,-2.37487577131E-13));
#246 = DIRECTION('',(1.,-6.181708791204E-18));
#247 = ( GEOMETRIC_REPRESENTATION_CONTEXT(2) 
PARAMETRIC_REPRESENTATION_CONTEXT() REPRESENTATION_CONTEXT('2D SPACE',''
  ) );
#248 = ORIENTED_EDGE('',*,*,#249,.T.);
#249 = EDGE_CURVE('',#218,#250,#252,.T.);
#250 = VERTEX_POINT('',#251);
#251 = CARTESIAN_POINT('',(-47.90967537542,-63.50484631444,5.));
#252 = SURFACE_CURVE('',#253,(#258,#265),.PCURVE_S1.);
#253 = CIRCLE('',#254,79.55);
#254 = AXIS2_PLACEMENT_3D('',#255,#256,#257);
#255 = CARTESIAN_POINT('',(-1.438265108513E-13,-1.974719895879E-13,5.));
#256 = DIRECTION('',(-0.,0.,-1.));
#257 = DIRECTION('',(-0.603762896639,-0.797163950918,0.));
#258 = PCURVE('',#62,#259);
#259 = DEFINITIONAL_REPRESENTATION('',(#260),#264);
#260 = LINE('',#261,#262);
#261 = CARTESIAN_POINT('',(-6.28318530718,-1.2));
#262 = VECTOR('',#263,1.);
#263 = DIRECTION('',(1.,-0.));
#264 = ( GEOMETRIC_REPRESENTATION_CONTEXT(2) 
PARAMETRIC_REPRESENTATION_CONTEXT() REPRESENTATION_CONTEXT('2D SPACE',''
  ) );
#265 = PCURVE('',#266,#271);
#266 = PLANE('',#267);
#267 = AXIS2_PLACEMENT_3D('',#268,#269,#270);
#268 = CARTESIAN_POINT('',(0.,0.,5.));
#269 = DIRECTION('',(0.,0.,1.));
#270 = DIRECTION('',(1.,0.,-0.));
#271 = DEFINITIONAL_REPRESENTATION('',(#272),#280);
#272 = ( BOUNDED_CURVE() B_SPLINE_CURVE(2,(#273,#274,#275,#276,#277,#278
,#279),.UNSPECIFIED.,.T.,.F.) B_SPLINE_CURVE_WITH_KNOTS((1,2,2,2,2,1),(
    -2.094395102393,0.,2.094395102393,4.188790204786,6.28318530718,
8.377580409573),.UNSPECIFIED.) CURVE() GEOMETRIC_REPRESENTATION_ITEM() 
RATIONAL_B_SPLINE_CURVE((1.,0.5,1.,0.5,1.,0.5,1.)) REPRESENTATION_ITEM(
  '') );
#273 = CARTESIAN_POINT('',(-48.0293384276,-63.41439229548));
#274 = CARTESIAN_POINT('',(-157.8662878145,19.774862115049));
#275 = CARTESIAN_POINT('',(-30.90380547964,73.301823353014));
#276 = CARTESIAN_POINT('',(96.058676855217,126.82878459097));
#277 = CARTESIAN_POINT('',(78.93314390725,-9.887431057525));
#278 = CARTESIAN_POINT('',(61.807610959283,-146.603646706));
#279 = CARTESIAN_POINT('',(-48.0293384276,-63.41439229548));
#280 = ( GEOMETRIC_REPRESENTATION_CONTEXT(2) 
PARAMETRIC_REPRESENTATION_CONTEXT() REPRESENTATION_CONTEXT('2D SPACE',''
  ) );
#281 = ORIENTED_EDGE('',*,*,#282,.T.);
#282 = EDGE_CURVE('',#250,#40,#283,.T.);
#283 = SURFACE_CURVE('',#284,(#289,#299),.PCURVE_S1.);
#284 = ELLIPSE('',#285,226.55849931333,79.55);
#285 = AXIS2_PLACEMENT_3D('',#286,#287,#288);
#286 = CARTESIAN_POINT('',(-1.438265108513E-13,-1.974719895879E-13,
    6.733333333333));
#287 = DIRECTION('',(-0.742839880637,0.570001088159,-0.351123441588));
#288 = DIRECTION('',(0.278564955239,-0.21375040806,-0.936329177569));
#289 = PCURVE('',#62,#290);
#290 = DEFINITIONAL_REPRESENTATION('',(#291),#298);
#291 = B_SPLINE_CURVE_WITH_KNOTS('',5,(#292,#293,#294,#295,#296,#297),
  .UNSPECIFIED.,.F.,.F.,(6,6),(1.562625271382,1.564510930287),
  .PIECEWISE_BEZIER_KNOTS.);
#292 = CARTESIAN_POINT('',(-1.885658904573E-03,-1.1999994));
#293 = CARTESIAN_POINT('',(-1.508527123658E-03,-1.279998951086));
#294 = CARTESIAN_POINT('',(-1.131395342744E-03,-1.359998810334));
#295 = CARTESIAN_POINT('',(-7.542635618285E-04,-1.439998954039));
#296 = CARTESIAN_POINT('',(-3.771317809146E-04,-1.519999358496));
#297 = CARTESIAN_POINT('',(-1.659689653331E-16,-1.6));
#298 = ( GEOMETRIC_REPRESENTATION_CONTEXT(2) 
PARAMETRIC_REPRESENTATION_CONTEXT() REPRESENTATION_CONTEXT('2D SPACE',''
  ) );
#299 = PCURVE('',#90,#300);
#300 = DEFINITIONAL_REPRESENTATION('',(#301),#305);
#301 = ELLIPSE('',#302,226.55849931333,79.55);
#302 = AXIS2_PLACEMENT_2D('',#303,#304);
#303 = CARTESIAN_POINT('',(3.132801373283,-2.44141402262E-13));
#304 = DIRECTION('',(-1.,4.989161079481E-17));
#305 = ( GEOMETRIC_REPRESENTATION_CONTEXT(2) 
PARAMETRIC_REPRESENTATION_CONTEXT() REPRESENTATION_CONTEXT('2D SPACE',''
  ) );
#306 = ADVANCED_FACE('',(#307),#144,.T.);
#307 = FACE_BOUND('',#308,.F.);
#308 = EDGE_LOOP('',(#309,#379,#407,#470));
#309 = ORIENTED_EDGE('',*,*,#310,.T.);
#310 = EDGE_CURVE('',#103,#311,#313,.T.);
#311 = VERTEX_POINT('',#312);
#312 = CARTESIAN_POINT('',(-15.7029861461,-21.53227173558,6.));
#313 = SURFACE_CURVE('',#314,(#332,#353),.PCURVE_S1.);
#314 = B_SPLINE_CURVE_WITH_KNOTS('',6,(#315,#316,#317,#318,#319,#320,
    #321,#322,#323,#324,#325,#326,#327,#328,#329,#330,#331),
  .UNSPECIFIED.,.F.,.F.,(7,5,5,7),(0.,0.497953520665,0.939320056868,1.),
  .UNSPECIFIED.);
#315 = CARTESIAN_POINT('',(-15.7326294268,-21.32450166636,5.85));
#316 = CARTESIAN_POINT('',(-15.7326294268,-21.32450166636,5.869658279631
    ));
#317 = CARTESIAN_POINT('',(-15.73202357148,-21.32879049406,
    5.889317919178));
#318 = CARTESIAN_POINT('',(-15.73081164963,-21.33736981941,
    5.908354911071));
#319 = CARTESIAN_POINT('',(-15.72902668984,-21.34999195861,
    5.926149949914));
#320 = CARTESIAN_POINT('',(-15.7267317899,-21.36618504098,5.942170238184
    ));
#321 = CARTESIAN_POINT('',(-15.72159808209,-21.40231500566,
    5.968267607747));
#322 = CARTESIAN_POINT('',(-15.7188506044,-21.42161821214,5.97881403728)
  );
#323 = CARTESIAN_POINT('',(-15.71582557342,-21.44282441381,
    5.987358211726));
#324 = CARTESIAN_POINT('',(-15.71259279375,-21.46542780423,
    5.993692611066));
#325 = CARTESIAN_POINT('',(-15.70922920344,-21.48887960914,
    5.997693500854));
#326 = CARTESIAN_POINT('',(-15.7053443654,-21.51589231174,5.999550612818
    ));
#327 = CARTESIAN_POINT('',(-15.70487384745,-21.51916279233,5.9997303052)
  );
#328 = CARTESIAN_POINT('',(-15.70440255945,-21.52243741753,
    5.999865136792));
#329 = CARTESIAN_POINT('',(-15.70393070821,-21.52571474549,
    5.999955045476));
#330 = CARTESIAN_POINT('',(-15.70345850106,-21.52899333305,
    6.000000000005));
#331 = CARTESIAN_POINT('',(-15.70298614589,-21.53227173574,6.));
#332 = PCURVE('',#144,#333);
#333 = DEFINITIONAL_REPRESENTATION('',(#334),#352);
#334 = B_SPLINE_CURVE_WITH_KNOTS('',6,(#335,#336,#337,#338,#339,#340,
    #341,#342,#343,#344,#345,#346,#347,#348,#349,#350,#351),
  .UNSPECIFIED.,.F.,.F.,(7,5,5,7),(0.,0.497953520665,0.939320056868,1.),
  .UNSPECIFIED.);
#335 = CARTESIAN_POINT('',(0.,7.105427357601E-15));
#336 = CARTESIAN_POINT('',(-0.131055197538,7.105427357601E-15));
#337 = CARTESIAN_POINT('',(-0.262119608772,3.033734425083E-03));
#338 = CARTESIAN_POINT('',(-0.393083789319,9.102399574422E-03));
#339 = CARTESIAN_POINT('',(-0.523877714709,1.802960119806E-02));
#340 = CARTESIAN_POINT('',(-0.654462607848,2.9479390625E-02));
#341 = CARTESIAN_POINT('',(-0.900369603993,5.501801548534E-02));
#342 = CARTESIAN_POINT('',(-1.015745382559,6.865972037902E-02));
#343 = CARTESIAN_POINT('',(-1.130955477829,8.364220912334E-02));
#344 = CARTESIAN_POINT('',(-1.24602939012,9.960669284804E-02));
#345 = CARTESIAN_POINT('',(-1.361015175113,0.116164636558));
#346 = CARTESIAN_POINT('',(-1.491778208392,0.135230314844));
#347 = CARTESIAN_POINT('',(-1.507582353818,0.137538528358));
#348 = CARTESIAN_POINT('',(-1.523386091139,0.139849561248));
#349 = CARTESIAN_POINT('',(-1.53918956707,0.142162395498));
#350 = CARTESIAN_POINT('',(-1.55499292971,0.14447601239));
#351 = CARTESIAN_POINT('',(-1.570796328535,0.146789392505));
#352 = ( GEOMETRIC_REPRESENTATION_CONTEXT(2) 
PARAMETRIC_REPRESENTATION_CONTEXT() REPRESENTATION_CONTEXT('2D SPACE',''
  ) );
#353 = PCURVE('',#354,#359);
#354 = TOROIDAL_SURFACE('',#355,26.650000000001,0.15);
#355 = AXIS2_PLACEMENT_3D('',#356,#357,#358);
#356 = CARTESIAN_POINT('',(3.979039320257E-13,6.963318810449E-13,5.85));
#357 = DIRECTION('',(0.,0.,1.));
#358 = DIRECTION('',(-0.400046998216,-0.916494625854,0.));
#359 = DEFINITIONAL_REPRESENTATION('',(#360),#378);
#360 = B_SPLINE_CURVE_WITH_KNOTS('',6,(#361,#362,#363,#364,#365,#366,
    #367,#368,#369,#370,#371,#372,#373,#374,#375,#376,#377),
  .UNSPECIFIED.,.F.,.F.,(7,5,5,7),(0.,0.497953520665,0.939320056868,1.),
  .UNSPECIFIED.);
#361 = CARTESIAN_POINT('',(-0.224061299399,3.14159265359));
#362 = CARTESIAN_POINT('',(-0.224061299399,3.010537456052));
#363 = CARTESIAN_POINT('',(-0.223946819053,2.879473044817));
#364 = CARTESIAN_POINT('',(-0.223717811883,2.748508864271));
#365 = CARTESIAN_POINT('',(-0.223381038868,2.617714938881));
#366 = CARTESIAN_POINT('',(-0.222949367069,2.487130045742));
#367 = CARTESIAN_POINT('',(-0.221987238262,2.241223049597));
#368 = CARTESIAN_POINT('',(-0.221473557411,2.12584727103));
#369 = CARTESIAN_POINT('',(-0.220909745776,2.010637175761));
#370 = CARTESIAN_POINT('',(-0.220309429738,1.89556326347));
#371 = CARTESIAN_POINT('',(-0.219687301409,1.780577478477));
#372 = CARTESIAN_POINT('',(-0.218971509888,1.649814445198));
#373 = CARTESIAN_POINT('',(-0.218884860763,1.634010300334));
#374 = CARTESIAN_POINT('',(-0.218798115048,1.618206562783));
#375 = CARTESIAN_POINT('',(-0.218711310992,1.602403085834));
#376 = CARTESIAN_POINT('',(-0.218624486836,1.586599722756));
#377 = CARTESIAN_POINT('',(-0.218537680812,1.570796326795));
#378 = ( GEOMETRIC_REPRESENTATION_CONTEXT(2) 
PARAMETRIC_REPRESENTATION_CONTEXT() REPRESENTATION_CONTEXT('2D SPACE',''
  ) );
#379 = ORIENTED_EDGE('',*,*,#380,.T.);
#380 = EDGE_CURVE('',#311,#381,#383,.T.);
#381 = VERTEX_POINT('',#382);
#382 = CARTESIAN_POINT('',(-47.81835810688,-63.3858393331,6.));
#383 = SURFACE_CURVE('',#384,(#388,#395),.PCURVE_S1.);
#384 = LINE('',#385,#386);
#385 = CARTESIAN_POINT('',(-15.61362642575,-21.41581588071,6.));
#386 = VECTOR('',#387,1.);
#387 = DIRECTION('',(-0.608761429009,-0.793353340291,0.));
#388 = PCURVE('',#144,#389);
#389 = DEFINITIONAL_REPRESENTATION('',(#390),#394);
#390 = LINE('',#391,#392);
#391 = CARTESIAN_POINT('',(-1.570796326795,0.));
#392 = VECTOR('',#393,1.);
#393 = DIRECTION('',(-0.,1.));
#394 = ( GEOMETRIC_REPRESENTATION_CONTEXT(2) 
PARAMETRIC_REPRESENTATION_CONTEXT() REPRESENTATION_CONTEXT('2D SPACE',''
  ) );
#395 = PCURVE('',#396,#401);
#396 = PLANE('',#397);
#397 = AXIS2_PLACEMENT_3D('',#398,#399,#400);
#398 = CARTESIAN_POINT('',(-27.73101691098,-48.03153023538,6.));
#399 = DIRECTION('',(0.,0.,1.));
#400 = DIRECTION('',(1.,0.,-0.));
#401 = DEFINITIONAL_REPRESENTATION('',(#402),#406);
#402 = LINE('',#403,#404);
#403 = CARTESIAN_POINT('',(12.117390485229,26.615714354662));
#404 = VECTOR('',#405,1.);
#405 = DIRECTION('',(-0.608761429009,-0.793353340291));
#406 = ( GEOMETRIC_REPRESENTATION_CONTEXT(2) 
PARAMETRIC_REPRESENTATION_CONTEXT() REPRESENTATION_CONTEXT('2D SPACE',''
  ) );
#407 = ORIENTED_EDGE('',*,*,#408,.F.);
#408 = EDGE_CURVE('',#42,#381,#409,.T.);
#409 = SURFACE_CURVE('',#410,(#428,#449),.PCURVE_S1.);
#410 = B_SPLINE_CURVE_WITH_KNOTS('',6,(#411,#412,#413,#414,#415,#416,
    #417,#418,#419,#420,#421,#422,#423,#424,#425,#426,#427),
  .UNSPECIFIED.,.F.,.F.,(7,5,5,7),(0.,0.497848009614,0.939297719964,1.),
  .UNSPECIFIED.);
#411 = CARTESIAN_POINT('',(-48.0293384276,-63.41439229549,5.85));
#412 = CARTESIAN_POINT('',(-48.0293384276,-63.41439229549,5.869660302234
    ));
#413 = CARTESIAN_POINT('',(-48.02499098813,-63.41380603769,
    5.889322016145));
#414 = CARTESIAN_POINT('',(-48.01629438944,-63.41263329847,
    5.908360162761));
#415 = CARTESIAN_POINT('',(-48.00349815832,-63.41090705007,
    5.926154627698));
#416 = CARTESIAN_POINT('',(-47.98707726,-63.40869010879,5.942172866895)
  );
#417 = CARTESIAN_POINT('',(-47.95041896471,-63.40373633737,
    5.968270180872));
#418 = CARTESIAN_POINT('',(-47.93082371783,-63.40108673037,
    5.978817381711));
#419 = CARTESIAN_POINT('',(-47.90928928735,-63.39817258317,
    5.987360826143));
#420 = CARTESIAN_POINT('',(-47.88632649856,-63.39506219629,5.99369389129
    ));
#421 = CARTESIAN_POINT('',(-47.86249044655,-63.39183020675,
    5.997693774035));
#422 = CARTESIAN_POINT('',(-47.83502073859,-63.38810182181,
    5.999550615158));
#423 = CARTESIAN_POINT('',(-47.83169417447,-63.38765025712,5.999730308)
  );
#424 = CARTESIAN_POINT('',(-47.8283631643,-63.38719802618,5.999865138822
    ));
#425 = CARTESIAN_POINT('',(-47.82502917187,-63.38674532744,
    5.999955046357));
#426 = CARTESIAN_POINT('',(-47.82169366248,-63.3862923625,6.00000000004)
  );
#427 = CARTESIAN_POINT('',(-47.81835810291,-63.38583933609,6.));
#428 = PCURVE('',#144,#429);
#429 = DEFINITIONAL_REPRESENTATION('',(#430),#448);
#430 = B_SPLINE_CURVE_WITH_KNOTS('',6,(#431,#432,#433,#434,#435,#436,
    #437,#438,#439,#440,#441,#442,#443,#444,#445,#446,#447),
  .UNSPECIFIED.,.F.,.F.,(7,5,5,7),(0.,0.497848009614,0.939297719964,1.),
  .UNSPECIFIED.);
#431 = CARTESIAN_POINT('',(0.,53.053146046716));
#432 = CARTESIAN_POINT('',(-0.131068681562,53.053146046716));
#433 = CARTESIAN_POINT('',(-0.262146924044,53.050034383673));
#434 = CARTESIAN_POINT('',(-0.393120040578,53.043809833246));
#435 = CARTESIAN_POINT('',(-0.52391404815,53.034650456366));
#436 = CARTESIAN_POINT('',(-0.654487381333,53.022895229076));
#437 = CARTESIAN_POINT('',(-0.900393846163,52.996648981742));
#438 = CARTESIAN_POINT('',(-1.015783583457,52.982618076685));
#439 = CARTESIAN_POINT('',(-1.130996723474,52.967196797602));
#440 = CARTESIAN_POINT('',(-1.24606359057,52.950750301661));
#441 = CARTESIAN_POINT('',(-1.361034441419,52.933675722879));
#442 = CARTESIAN_POINT('',(-1.4917783689,52.913995297558));
#443 = CARTESIAN_POINT('',(-1.507582621896,52.911611963281));
#444 = CARTESIAN_POINT('',(-1.523386384611,52.909225393843));
#445 = CARTESIAN_POINT('',(-1.539189812901,52.906836637791));
#446 = CARTESIAN_POINT('',(-1.554993076677,52.904446747076));
#447 = CARTESIAN_POINT('',(-1.570796359908,52.902056777053));
#448 = ( GEOMETRIC_REPRESENTATION_CONTEXT(2) 
PARAMETRIC_REPRESENTATION_CONTEXT() REPRESENTATION_CONTEXT('2D SPACE',''
  ) );
#449 = PCURVE('',#177,#450);
#450 = DEFINITIONAL_REPRESENTATION('',(#451),#469);
#451 = B_SPLINE_CURVE_WITH_KNOTS('',6,(#452,#453,#454,#455,#456,#457,
    #458,#459,#460,#461,#462,#463,#464,#465,#466,#467,#468),
  .UNSPECIFIED.,.F.,.F.,(7,5,5,7),(0.,0.497848009614,0.939297719964,1.),
  .UNSPECIFIED.);
#452 = CARTESIAN_POINT('',(3.907985046681E-14,0.));
#453 = CARTESIAN_POINT('',(3.907985046681E-14,0.131068681562));
#454 = CARTESIAN_POINT('',(3.911583570293E-05,0.262146924044));
#455 = CARTESIAN_POINT('',(1.17362754632E-04,0.393120040578));
#456 = CARTESIAN_POINT('',(2.325142847015E-04,0.52391404815));
#457 = CARTESIAN_POINT('',(3.803309216712E-04,0.654487381333));
#458 = CARTESIAN_POINT('',(7.10446955817E-04,0.900393846163));
#459 = CARTESIAN_POINT('',(8.869513364331E-04,1.015783583457));
#460 = CARTESIAN_POINT('',(1.080987117409E-03,1.130996723474));
#461 = CARTESIAN_POINT('',(1.287974309339E-03,1.246063590571));
#462 = CARTESIAN_POINT('',(1.502924512518E-03,1.361034441419));
#463 = CARTESIAN_POINT('',(1.750744484192E-03,1.4917783689));
#464 = CARTESIAN_POINT('',(1.780757009001E-03,1.5075826112));
#465 = CARTESIAN_POINT('',(1.810811318997E-03,1.523386378295));
#466 = CARTESIAN_POINT('',(1.840894214983E-03,1.539189825938));
#467 = CARTESIAN_POINT('',(1.870992500233E-03,1.554993098065));
#468 = CARTESIAN_POINT('',(1.901092980481E-03,1.570796326795));
#469 = ( GEOMETRIC_REPRESENTATION_CONTEXT(2) 
PARAMETRIC_REPRESENTATION_CONTEXT() REPRESENTATION_CONTEXT('2D SPACE',''
  ) );
#470 = ORIENTED_EDGE('',*,*,#130,.F.);
#471 = ADVANCED_FACE('',(#472),#118,.F.);
#472 = FACE_BOUND('',#473,.F.);
#473 = EDGE_LOOP('',(#474,#503,#526,#548,#549,#576));
#474 = ORIENTED_EDGE('',*,*,#475,.F.);
#475 = EDGE_CURVE('',#476,#478,#480,.T.);
#476 = VERTEX_POINT('',#477);
#477 = CARTESIAN_POINT('',(-10.60124545271,-24.28710758512,5.4));
#478 = VERTEX_POINT('',#479);
#479 = CARTESIAN_POINT('',(-11.1486379418,-24.04075439836,3.8));
#480 = SURFACE_CURVE('',#481,(#486,#496),.PCURVE_S1.);
#481 = ELLIPSE('',#482,75.47203308364,26.500000000001);
#482 = AXIS2_PLACEMENT_3D('',#483,#484,#485);
#483 = CARTESIAN_POINT('',(3.992782352435E-13,6.949911794761E-13,
    6.733333333334));
#484 = DIRECTION('',(0.865055362849,-0.358317663496,-0.351123441588));
#485 = DIRECTION('',(-0.324395761068,0.134369123811,-0.936329177569));
#486 = PCURVE('',#118,#487);
#487 = DEFINITIONAL_REPRESENTATION('',(#488),#495);
#488 = B_SPLINE_CURVE_WITH_KNOTS('',5,(#489,#490,#491,#492,#493,#494),
  .UNSPECIFIED.,.F.,.F.,(6,6),(4.731258024585,4.753910352452),
  .PIECEWISE_BEZIER_KNOTS.);
#489 = CARTESIAN_POINT('',(0.,-1.6));
#490 = CARTESIAN_POINT('',(4.530465573409E-03,-1.27990409154));
#491 = CARTESIAN_POINT('',(9.060931146816E-03,-0.959842391611));
#492 = CARTESIAN_POINT('',(1.359139672022E-02,-0.639828587726));
#493 = CARTESIAN_POINT('',(1.812186229363E-02,-0.319876364471));
#494 = CARTESIAN_POINT('',(2.265232786704E-02,5.999999714845E-07));
#495 = ( GEOMETRIC_REPRESENTATION_CONTEXT(2) 
PARAMETRIC_REPRESENTATION_CONTEXT() REPRESENTATION_CONTEXT('2D SPACE',''
  ) );
#496 = PCURVE('',#237,#497);
#497 = DEFINITIONAL_REPRESENTATION('',(#498),#502);
#498 = ELLIPSE('',#499,75.47203308364,26.500000000001);
#499 = AXIS2_PLACEMENT_2D('',#500,#501);
#500 = CARTESIAN_POINT('',(-1.42400062422,7.948907558159E-13));
#501 = DIRECTION('',(1.,-6.181708791204E-18));
#502 = ( GEOMETRIC_REPRESENTATION_CONTEXT(2) 
PARAMETRIC_REPRESENTATION_CONTEXT() REPRESENTATION_CONTEXT('2D SPACE',''
  ) );
#503 = ORIENTED_EDGE('',*,*,#504,.T.);
#504 = EDGE_CURVE('',#476,#505,#507,.T.);
#505 = VERTEX_POINT('',#506);
#506 = CARTESIAN_POINT('',(-10.60124545271,-24.28710758512,5.85));
#507 = SURFACE_CURVE('',#508,(#512,#519),.PCURVE_S1.);
#508 = LINE('',#509,#510);
#509 = CARTESIAN_POINT('',(-10.60124545271,-24.28710758512,3.8));
#510 = VECTOR('',#511,1.);
#511 = DIRECTION('',(0.,0.,1.));
#512 = PCURVE('',#118,#513);
#513 = DEFINITIONAL_REPRESENTATION('',(#514),#518);
#514 = LINE('',#515,#516);
#515 = CARTESIAN_POINT('',(0.,0.));
#516 = VECTOR('',#517,1.);
#517 = DIRECTION('',(0.,-1.));
#518 = ( GEOMETRIC_REPRESENTATION_CONTEXT(2) 
PARAMETRIC_REPRESENTATION_CONTEXT() REPRESENTATION_CONTEXT('2D SPACE',''
  ) );
#519 = PCURVE('',#205,#520);
#520 = DEFINITIONAL_REPRESENTATION('',(#521),#525);
#521 = LINE('',#522,#523);
#522 = CARTESIAN_POINT('',(53.053146046716,0.));
#523 = VECTOR('',#524,1.);
#524 = DIRECTION('',(0.,-1.));
#525 = ( GEOMETRIC_REPRESENTATION_CONTEXT(2) 
PARAMETRIC_REPRESENTATION_CONTEXT() REPRESENTATION_CONTEXT('2D SPACE',''
  ) );
#526 = ORIENTED_EDGE('',*,*,#527,.T.);
#527 = EDGE_CURVE('',#505,#103,#528,.T.);
#528 = SURFACE_CURVE('',#529,(#534,#541),.PCURVE_S1.);
#529 = CIRCLE('',#530,26.500000000001);
#530 = AXIS2_PLACEMENT_3D('',#531,#532,#533);
#531 = CARTESIAN_POINT('',(3.979039320257E-13,6.963318810449E-13,5.85));
#532 = DIRECTION('',(-0.,0.,-1.));
#533 = DIRECTION('',(-0.400046998216,-0.916494625854,0.));
#534 = PCURVE('',#118,#535);
#535 = DEFINITIONAL_REPRESENTATION('',(#536),#540);
#536 = LINE('',#537,#538);
#537 = CARTESIAN_POINT('',(8.930205011453E-17,-2.05));
#538 = VECTOR('',#539,1.);
#539 = DIRECTION('',(1.,0.));
#540 = ( GEOMETRIC_REPRESENTATION_CONTEXT(2) 
PARAMETRIC_REPRESENTATION_CONTEXT() REPRESENTATION_CONTEXT('2D SPACE',''
  ) );
#541 = PCURVE('',#354,#542);
#542 = DEFINITIONAL_REPRESENTATION('',(#543),#547);
#543 = LINE('',#544,#545);
#544 = CARTESIAN_POINT('',(-0.,3.14159265359));
#545 = VECTOR('',#546,1.);
#546 = DIRECTION('',(-1.,0.));
#547 = ( GEOMETRIC_REPRESENTATION_CONTEXT(2) 
PARAMETRIC_REPRESENTATION_CONTEXT() REPRESENTATION_CONTEXT('2D SPACE',''
  ) );
#548 = ORIENTED_EDGE('',*,*,#102,.F.);
#549 = ORIENTED_EDGE('',*,*,#550,.F.);
#550 = EDGE_CURVE('',#551,#75,#553,.T.);
#551 = VERTEX_POINT('',#552);
#552 = CARTESIAN_POINT('',(-15.24558506422,-21.67538087438,3.8));
#553 = SURFACE_CURVE('',#554,(#559,#569),.PCURVE_S1.);
#554 = ELLIPSE('',#555,75.47203308364,26.500000000001);
#555 = AXIS2_PLACEMENT_3D('',#556,#557,#558);
#556 = CARTESIAN_POINT('',(3.992782352435E-13,6.949911794761E-13,
    6.733333333334));
#557 = DIRECTION('',(-0.742839880637,0.570001088159,-0.351123441588));
#558 = DIRECTION('',(0.278564955239,-0.21375040806,-0.936329177569));
#559 = PCURVE('',#118,#560);
#560 = DEFINITIONAL_REPRESENTATION('',(#561),#568);
#561 = B_SPLINE_CURVE_WITH_KNOTS('',5,(#562,#563,#564,#565,#566,#567),
  .UNSPECIFIED.,.F.,.F.,(6,6),(1.529274954728,1.551927282595),
  .PIECEWISE_BEZIER_KNOTS.);
#562 = CARTESIAN_POINT('',(0.201408971532,5.999999990181E-07));
#563 = CARTESIAN_POINT('',(0.205939437105,-0.319876364471));
#564 = CARTESIAN_POINT('',(0.210469902679,-0.639828587725));
#565 = CARTESIAN_POINT('',(0.215000368252,-0.959842391611));
#566 = CARTESIAN_POINT('',(0.219530833826,-1.27990409154));
#567 = CARTESIAN_POINT('',(0.224061299399,-1.6));
#568 = ( GEOMETRIC_REPRESENTATION_CONTEXT(2) 
PARAMETRIC_REPRESENTATION_CONTEXT() REPRESENTATION_CONTEXT('2D SPACE',''
  ) );
#569 = PCURVE('',#90,#570);
#570 = DEFINITIONAL_REPRESENTATION('',(#571),#575);
#571 = ELLIPSE('',#572,75.47203308364,26.500000000001);
#572 = AXIS2_PLACEMENT_2D('',#573,#574);
#573 = CARTESIAN_POINT('',(3.132801373283,7.945224359292E-13));
#574 = DIRECTION('',(-1.,4.989161079481E-17));
#575 = ( GEOMETRIC_REPRESENTATION_CONTEXT(2) 
PARAMETRIC_REPRESENTATION_CONTEXT() REPRESENTATION_CONTEXT('2D SPACE',''
  ) );
#576 = ORIENTED_EDGE('',*,*,#577,.F.);
#577 = EDGE_CURVE('',#478,#551,#578,.T.);
#578 = SURFACE_CURVE('',#579,(#584,#591),.PCURVE_S1.);
#579 = CIRCLE('',#580,26.500000000001);
#580 = AXIS2_PLACEMENT_3D('',#581,#582,#583);
#581 = CARTESIAN_POINT('',(3.992782352435E-13,6.949911794761E-13,3.8));
#582 = DIRECTION('',(0.,0.,-1.));
#583 = DIRECTION('',(-0.400046998216,-0.916494625854,-0.));
#584 = PCURVE('',#118,#585);
#585 = DEFINITIONAL_REPRESENTATION('',(#586),#590);
#586 = LINE('',#587,#588);
#587 = CARTESIAN_POINT('',(0.,0.));
#588 = VECTOR('',#589,1.);
#589 = DIRECTION('',(1.,0.));
#590 = ( GEOMETRIC_REPRESENTATION_CONTEXT(2) 
PARAMETRIC_REPRESENTATION_CONTEXT() REPRESENTATION_CONTEXT('2D SPACE',''
  ) );
#591 = PCURVE('',#592,#597);
#592 = PLANE('',#593);
#593 = AXIS2_PLACEMENT_3D('',#594,#595,#596);
#594 = CARTESIAN_POINT('',(-27.73101691098,-48.03153023538,3.8));
#595 = DIRECTION('',(0.,0.,1.));
#596 = DIRECTION('',(1.,0.,-0.));
#597 = DEFINITIONAL_REPRESENTATION('',(#598),#606);
#598 = ( BOUNDED_CURVE() B_SPLINE_CURVE(2,(#599,#600,#601,#602,#603,#604
,#605),.UNSPECIFIED.,.T.,.F.) B_SPLINE_CURVE_WITH_KNOTS((1,2,2,2,2,1),(
    -2.094395102393,0.,2.094395102393,4.188790204786,6.28318530718,
8.377580409573),.UNSPECIFIED.) CURVE() GEOMETRIC_REPRESENTATION_ITEM() 
RATIONAL_B_SPLINE_CURVE((1.,0.5,1.,0.5,1.,0.5,1.)) REPRESENTATION_ITEM(
  '') );
#599 = CARTESIAN_POINT('',(17.12977145827,23.744422650261));
#600 = CARTESIAN_POINT('',(-24.93673284805,42.106318397877));
#601 = CARTESIAN_POINT('',(11.998387484186,69.356031901751));
#602 = CARTESIAN_POINT('',(48.933507816424,96.605745405625));
#603 = CARTESIAN_POINT('',(54.064891790508,50.994136154135));
#604 = CARTESIAN_POINT('',(59.196275764592,5.382526902645));
#605 = CARTESIAN_POINT('',(17.12977145827,23.744422650261));
#606 = ( GEOMETRIC_REPRESENTATION_CONTEXT(2) 
PARAMETRIC_REPRESENTATION_CONTEXT() REPRESENTATION_CONTEXT('2D SPACE',''
  ) );
#607 = ADVANCED_FACE('',(#608),#90,.T.);
#608 = FACE_BOUND('',#609,.T.);
#609 = EDGE_LOOP('',(#610,#611,#634,#666,#685,#686));
#610 = ORIENTED_EDGE('',*,*,#550,.F.);
#611 = ORIENTED_EDGE('',*,*,#612,.T.);
#612 = EDGE_CURVE('',#551,#613,#615,.T.);
#613 = VERTEX_POINT('',#614);
#614 = CARTESIAN_POINT('',(-45.66230478754,-61.3152217764,3.8));
#615 = SURFACE_CURVE('',#616,(#620,#627),.PCURVE_S1.);
#616 = LINE('',#617,#618);
#617 = CARTESIAN_POINT('',(0.87268867432,-0.66963757191,3.8));
#618 = VECTOR('',#619,1.);
#619 = DIRECTION('',(-0.608761429009,-0.793353340291,0.));
#620 = PCURVE('',#90,#621);
#621 = DEFINITIONAL_REPRESENTATION('',(#622),#626);
#622 = LINE('',#623,#624);
#623 = CARTESIAN_POINT('',(0.,0.));
#624 = VECTOR('',#625,1.);
#625 = DIRECTION('',(0.,-1.));
#626 = ( GEOMETRIC_REPRESENTATION_CONTEXT(2) 
PARAMETRIC_REPRESENTATION_CONTEXT() REPRESENTATION_CONTEXT('2D SPACE',''
  ) );
#627 = PCURVE('',#592,#628);
#628 = DEFINITIONAL_REPRESENTATION('',(#629),#633);
#629 = LINE('',#630,#631);
#630 = CARTESIAN_POINT('',(28.603705585308,47.361892663472));
#631 = VECTOR('',#632,1.);
#632 = DIRECTION('',(-0.608761429009,-0.793353340291));
#633 = ( GEOMETRIC_REPRESENTATION_CONTEXT(2) 
PARAMETRIC_REPRESENTATION_CONTEXT() REPRESENTATION_CONTEXT('2D SPACE',''
  ) );
#634 = ORIENTED_EDGE('',*,*,#635,.T.);
#635 = EDGE_CURVE('',#613,#636,#638,.T.);
#636 = VERTEX_POINT('',#637);
#637 = CARTESIAN_POINT('',(-46.02244938979,-61.04536552568,5.));
#638 = SURFACE_CURVE('',#639,(#644,#651),.PCURVE_S1.);
#639 = ELLIPSE('',#640,217.72969544317,76.45);
#640 = AXIS2_PLACEMENT_3D('',#641,#642,#643);
#641 = CARTESIAN_POINT('',(0.,0.,6.733333333333));
#642 = DIRECTION('',(-0.742839880637,0.570001088159,-0.351123441588));
#643 = DIRECTION('',(-0.278564955239,0.21375040806,0.936329177569));
#644 = PCURVE('',#90,#645);
#645 = DEFINITIONAL_REPRESENTATION('',(#646),#650);
#646 = ELLIPSE('',#647,217.72969544317,76.45);
#647 = AXIS2_PLACEMENT_2D('',#648,#649);
#648 = CARTESIAN_POINT('',(3.132801373283,3.506018373621E-17));
#649 = DIRECTION('',(1.,-4.989161079481E-17));
#650 = ( GEOMETRIC_REPRESENTATION_CONTEXT(2) 
PARAMETRIC_REPRESENTATION_CONTEXT() REPRESENTATION_CONTEXT('2D SPACE',''
  ) );
#651 = PCURVE('',#652,#657);
#652 = CYLINDRICAL_SURFACE('',#653,76.45);
#653 = AXIS2_PLACEMENT_3D('',#654,#655,#656);
#654 = CARTESIAN_POINT('',(0.,0.,2.8));
#655 = DIRECTION('',(0.,0.,1.));
#656 = DIRECTION('',(1.,0.,-0.));
#657 = DEFINITIONAL_REPRESENTATION('',(#658),#665);
#658 = B_SPLINE_CURVE_WITH_KNOTS('',5,(#659,#660,#661,#662,#663,#664),
  .UNSPECIFIED.,.F.,.F.,(6,6),(4.697999991715,4.70388659181),
  .PIECEWISE_BEZIER_KNOTS.);
#659 = CARTESIAN_POINT('',(4.072279499557,0.9999994));
#660 = CARTESIAN_POINT('',(4.071102179538,1.239990861453));
#661 = CARTESIAN_POINT('',(4.069924859519,1.47998740521));
#662 = CARTESIAN_POINT('',(4.0687475395,1.719988338254));
#663 = CARTESIAN_POINT('',(4.067570219481,1.959992967538));
#664 = CARTESIAN_POINT('',(4.066392899462,2.2000006));
#665 = ( GEOMETRIC_REPRESENTATION_CONTEXT(2) 
PARAMETRIC_REPRESENTATION_CONTEXT() REPRESENTATION_CONTEXT('2D SPACE',''
  ) );
#666 = ORIENTED_EDGE('',*,*,#667,.T.);
#667 = EDGE_CURVE('',#636,#250,#668,.T.);
#668 = SURFACE_CURVE('',#669,(#673,#679),.PCURVE_S1.);
#669 = LINE('',#670,#671);
#670 = CARTESIAN_POINT('',(0.515679671189,-0.395694928856,5.));
#671 = VECTOR('',#672,1.);
#672 = DIRECTION('',(-0.608761429009,-0.793353340291,0.));
#673 = PCURVE('',#90,#674);
#674 = DEFINITIONAL_REPRESENTATION('',(#675),#678);
#675 = B_SPLINE_CURVE_WITH_KNOTS('',1,(#676,#677),.UNSPECIFIED.,.F.,.F.,
  (2,2),(76.333265878726,79.743912451626),.PIECEWISE_BEZIER_KNOTS.);
#676 = CARTESIAN_POINT('',(1.281600561798,-76.33326587872));
#677 = CARTESIAN_POINT('',(1.281600561798,-79.74391245162));
#678 = ( GEOMETRIC_REPRESENTATION_CONTEXT(2) 
PARAMETRIC_REPRESENTATION_CONTEXT() REPRESENTATION_CONTEXT('2D SPACE',''
  ) );
#679 = PCURVE('',#266,#680);
#680 = DEFINITIONAL_REPRESENTATION('',(#681),#684);
#681 = B_SPLINE_CURVE_WITH_KNOTS('',1,(#682,#683),.UNSPECIFIED.,.F.,.F.,
  (2,2),(76.333265878726,79.743912451626),.PIECEWISE_BEZIER_KNOTS.);
#682 = CARTESIAN_POINT('',(-45.95306834604,-60.95494638908));
#683 = CARTESIAN_POINT('',(-48.0293384276,-63.66079424024));
#684 = ( GEOMETRIC_REPRESENTATION_CONTEXT(2) 
PARAMETRIC_REPRESENTATION_CONTEXT() REPRESENTATION_CONTEXT('2D SPACE',''
  ) );
#685 = ORIENTED_EDGE('',*,*,#282,.T.);
#686 = ORIENTED_EDGE('',*,*,#74,.F.);
#687 = ADVANCED_FACE('',(#688),#266,.F.);
#688 = FACE_BOUND('',#689,.F.);
#689 = EDGE_LOOP('',(#690,#714,#715,#716));
#690 = ORIENTED_EDGE('',*,*,#691,.F.);
#691 = EDGE_CURVE('',#636,#692,#694,.T.);
#692 = VERTEX_POINT('',#693);
#693 = CARTESIAN_POINT('',(-29.85561263365,-70.37929307878,5.));
#694 = SURFACE_CURVE('',#695,(#700,#707),.PCURVE_S1.);
#695 = CIRCLE('',#696,76.45);
#696 = AXIS2_PLACEMENT_3D('',#697,#698,#699);
#697 = CARTESIAN_POINT('',(0.,0.,5.));
#698 = DIRECTION('',(0.,0.,1.));
#699 = DIRECTION('',(1.,0.,-0.));
#700 = PCURVE('',#266,#701);
#701 = DEFINITIONAL_REPRESENTATION('',(#702),#706);
#702 = CIRCLE('',#703,76.45);
#703 = AXIS2_PLACEMENT_2D('',#704,#705);
#704 = CARTESIAN_POINT('',(0.,0.));
#705 = DIRECTION('',(1.,0.));
#706 = ( GEOMETRIC_REPRESENTATION_CONTEXT(2) 
PARAMETRIC_REPRESENTATION_CONTEXT() REPRESENTATION_CONTEXT('2D SPACE',''
  ) );
#707 = PCURVE('',#652,#708);
#708 = DEFINITIONAL_REPRESENTATION('',(#709),#713);
#709 = LINE('',#710,#711);
#710 = CARTESIAN_POINT('',(0.,2.2));
#711 = VECTOR('',#712,1.);
#712 = DIRECTION('',(1.,0.));
#713 = ( GEOMETRIC_REPRESENTATION_CONTEXT(2) 
PARAMETRIC_REPRESENTATION_CONTEXT() REPRESENTATION_CONTEXT('2D SPACE',''
  ) );
#714 = ORIENTED_EDGE('',*,*,#667,.T.);
#715 = ORIENTED_EDGE('',*,*,#249,.F.);
#716 = ORIENTED_EDGE('',*,*,#717,.T.);
#717 = EDGE_CURVE('',#218,#692,#718,.T.);
#718 = SURFACE_CURVE('',#719,(#723,#729),.PCURVE_S1.);
#719 = LINE('',#720,#721);
#720 = CARTESIAN_POINT('',(-0.600521696132,0.248744231037,5.));
#721 = VECTOR('',#722,1.);
#722 = DIRECTION('',(0.382683432365,0.923879532511,-0.));
#723 = PCURVE('',#266,#724);
#724 = DEFINITIONAL_REPRESENTATION('',(#725),#728);
#725 = B_SPLINE_CURVE_WITH_KNOTS('',1,(#726,#727),.UNSPECIFIED.,.F.,.F.,
  (2,2),(-79.61056068005,-76.08623289256),.PIECEWISE_BEZIER_KNOTS.);
#726 = CARTESIAN_POINT('',(-31.06616430968,-73.30182335301));
#727 = CARTESIAN_POINT('',(-29.71746245518,-70.04576904429));
#728 = ( GEOMETRIC_REPRESENTATION_CONTEXT(2) 
PARAMETRIC_REPRESENTATION_CONTEXT() REPRESENTATION_CONTEXT('2D SPACE',''
  ) );
#729 = PCURVE('',#237,#730);
#730 = DEFINITIONAL_REPRESENTATION('',(#731),#734);
#731 = B_SPLINE_CURVE_WITH_KNOTS('',1,(#732,#733),.UNSPECIFIED.,.F.,.F.,
  (2,2),(-79.61056068005,-76.08623289256),.PIECEWISE_BEZIER_KNOTS.);
#732 = CARTESIAN_POINT('',(0.427200187266,-79.61056068005));
#733 = CARTESIAN_POINT('',(0.427200187266,-76.08623289256));
#734 = ( GEOMETRIC_REPRESENTATION_CONTEXT(2) 
PARAMETRIC_REPRESENTATION_CONTEXT() REPRESENTATION_CONTEXT('2D SPACE',''
  ) );
#735 = ADVANCED_FACE('',(#736),#237,.T.);
#736 = FACE_BOUND('',#737,.T.);
#737 = EDGE_LOOP('',(#738,#739,#760,#761,#762,#789));
#738 = ORIENTED_EDGE('',*,*,#475,.F.);
#739 = ORIENTED_EDGE('',*,*,#740,.T.);
#740 = EDGE_CURVE('',#476,#190,#741,.T.);
#741 = SURFACE_CURVE('',#742,(#746,#753),.PCURVE_S1.);
#742 = LINE('',#743,#744);
#743 = CARTESIAN_POINT('',(-0.461939766256,0.191341716183,5.4));
#744 = VECTOR('',#745,1.);
#745 = DIRECTION('',(-0.382683432365,-0.923879532511,0.));
#746 = PCURVE('',#237,#747);
#747 = DEFINITIONAL_REPRESENTATION('',(#748),#752);
#748 = LINE('',#749,#750);
#749 = CARTESIAN_POINT('',(0.,0.));
#750 = VECTOR('',#751,1.);
#751 = DIRECTION('',(0.,-1.));
#752 = ( GEOMETRIC_REPRESENTATION_CONTEXT(2) 
PARAMETRIC_REPRESENTATION_CONTEXT() REPRESENTATION_CONTEXT('2D SPACE',''
  ) );
#753 = PCURVE('',#205,#754);
#754 = DEFINITIONAL_REPRESENTATION('',(#755),#759);
#755 = LINE('',#756,#757);
#756 = CARTESIAN_POINT('',(79.5484286457,-1.6));
#757 = VECTOR('',#758,1.);
#758 = DIRECTION('',(-1.,-0.));
#759 = ( GEOMETRIC_REPRESENTATION_CONTEXT(2) 
PARAMETRIC_REPRESENTATION_CONTEXT() REPRESENTATION_CONTEXT('2D SPACE',''
  ) );
#760 = ORIENTED_EDGE('',*,*,#217,.T.);
#761 = ORIENTED_EDGE('',*,*,#717,.T.);
#762 = ORIENTED_EDGE('',*,*,#763,.T.);
#763 = EDGE_CURVE('',#692,#764,#766,.T.);
#764 = VERTEX_POINT('',#765);
#765 = CARTESIAN_POINT('',(-30.26938730327,-70.20232682955,3.8));
#766 = SURFACE_CURVE('',#767,(#772,#779),.PCURVE_S1.);
#767 = ELLIPSE('',#768,217.72969544317,76.45);
#768 = AXIS2_PLACEMENT_3D('',#769,#770,#771);
#769 = CARTESIAN_POINT('',(0.,0.,6.733333333333));
#770 = DIRECTION('',(0.865055362849,-0.358317663496,-0.351123441588));
#771 = DIRECTION('',(0.324395761068,-0.134369123811,0.936329177569));
#772 = PCURVE('',#237,#773);
#773 = DEFINITIONAL_REPRESENTATION('',(#774),#778);
#774 = ELLIPSE('',#775,217.72969544317,76.45);
#775 = AXIS2_PLACEMENT_2D('',#776,#777);
#776 = CARTESIAN_POINT('',(-1.42400062422,-9.05288235983E-18));
#777 = DIRECTION('',(-1.,6.181708791204E-18));
#778 = ( GEOMETRIC_REPRESENTATION_CONTEXT(2) 
PARAMETRIC_REPRESENTATION_CONTEXT() REPRESENTATION_CONTEXT('2D SPACE',''
  ) );
#779 = PCURVE('',#652,#780);
#780 = DEFINITIONAL_REPRESENTATION('',(#781),#788);
#781 = B_SPLINE_CURVE_WITH_KNOTS('',5,(#782,#783,#784,#785,#786,#787),
  .UNSPECIFIED.,.F.,.F.,(6,6),(1.57929871537,1.585185315465),
  .PIECEWISE_BEZIER_KNOTS.);
#782 = CARTESIAN_POINT('',(4.311187510111,2.2000006));
#783 = CARTESIAN_POINT('',(4.310010190092,1.959992967538));
#784 = CARTESIAN_POINT('',(4.308832870073,1.719988338254));
#785 = CARTESIAN_POINT('',(4.307655550054,1.47998740521));
#786 = CARTESIAN_POINT('',(4.306478230035,1.239990861454));
#787 = CARTESIAN_POINT('',(4.305300910016,0.9999994));
#788 = ( GEOMETRIC_REPRESENTATION_CONTEXT(2) 
PARAMETRIC_REPRESENTATION_CONTEXT() REPRESENTATION_CONTEXT('2D SPACE',''
  ) );
#789 = ORIENTED_EDGE('',*,*,#790,.F.);
#790 = EDGE_CURVE('',#478,#764,#791,.T.);
#791 = SURFACE_CURVE('',#792,(#796,#803),.PCURVE_S1.);
#792 = LINE('',#793,#794);
#793 = CARTESIAN_POINT('',(-1.016267485762,0.420951775602,3.8));
#794 = VECTOR('',#795,1.);
#795 = DIRECTION('',(-0.382683432365,-0.923879532511,0.));
#796 = PCURVE('',#237,#797);
#797 = DEFINITIONAL_REPRESENTATION('',(#798),#802);
#798 = LINE('',#799,#800);
#799 = CARTESIAN_POINT('',(1.708800749064,0.));
#800 = VECTOR('',#801,1.);
#801 = DIRECTION('',(0.,-1.));
#802 = ( GEOMETRIC_REPRESENTATION_CONTEXT(2) 
PARAMETRIC_REPRESENTATION_CONTEXT() REPRESENTATION_CONTEXT('2D SPACE',''
  ) );
#803 = PCURVE('',#592,#804);
#804 = DEFINITIONAL_REPRESENTATION('',(#805),#809);
#805 = LINE('',#806,#807);
#806 = CARTESIAN_POINT('',(26.714749425225,48.452482010983));
#807 = VECTOR('',#808,1.);
#808 = DIRECTION('',(-0.382683432365,-0.923879532511));
#809 = ( GEOMETRIC_REPRESENTATION_CONTEXT(2) 
PARAMETRIC_REPRESENTATION_CONTEXT() REPRESENTATION_CONTEXT('2D SPACE',''
  ) );
#810 = ADVANCED_FACE('',(#811),#205,.F.);
#811 = FACE_BOUND('',#812,.F.);
#812 = EDGE_LOOP('',(#813,#814,#815,#816));
#813 = ORIENTED_EDGE('',*,*,#504,.F.);
#814 = ORIENTED_EDGE('',*,*,#740,.T.);
#815 = ORIENTED_EDGE('',*,*,#189,.T.);
#816 = ORIENTED_EDGE('',*,*,#817,.T.);
#817 = EDGE_CURVE('',#161,#505,#818,.T.);
#818 = SURFACE_CURVE('',#819,(#823,#830),.PCURVE_S1.);
#819 = LINE('',#820,#821);
#820 = CARTESIAN_POINT('',(-30.90380547964,-73.30182335301,5.85));
#821 = VECTOR('',#822,1.);
#822 = DIRECTION('',(0.382683432365,0.923879532511,0.));
#823 = PCURVE('',#205,#824);
#824 = DEFINITIONAL_REPRESENTATION('',(#825),#829);
#825 = LINE('',#826,#827);
#826 = CARTESIAN_POINT('',(0.,-2.05));
#827 = VECTOR('',#828,1.);
#828 = DIRECTION('',(1.,0.));
#829 = ( GEOMETRIC_REPRESENTATION_CONTEXT(2) 
PARAMETRIC_REPRESENTATION_CONTEXT() REPRESENTATION_CONTEXT('2D SPACE',''
  ) );
#830 = PCURVE('',#831,#836);
#831 = CYLINDRICAL_SURFACE('',#832,0.15);
#832 = AXIS2_PLACEMENT_3D('',#833,#834,#835);
#833 = CARTESIAN_POINT('',(-31.04238740951,-73.24442083815,5.85));
#834 = DIRECTION('',(0.382683432365,0.923879532511,0.));
#835 = DIRECTION('',(0.,-0.,1.));
#836 = DEFINITIONAL_REPRESENTATION('',(#837),#841);
#837 = LINE('',#838,#839);
#838 = CARTESIAN_POINT('',(1.570796326795,0.));
#839 = VECTOR('',#840,1.);
#840 = DIRECTION('',(0.,1.));
#841 = ( GEOMETRIC_REPRESENTATION_CONTEXT(2) 
PARAMETRIC_REPRESENTATION_CONTEXT() REPRESENTATION_CONTEXT('2D SPACE',''
  ) );
#842 = ADVANCED_FACE('',(#843),#177,.T.);
#843 = FACE_BOUND('',#844,.T.);
#844 = EDGE_LOOP('',(#845,#846,#847,#897));
#845 = ORIENTED_EDGE('',*,*,#408,.F.);
#846 = ORIENTED_EDGE('',*,*,#160,.T.);
#847 = ORIENTED_EDGE('',*,*,#848,.T.);
#848 = EDGE_CURVE('',#161,#849,#851,.T.);
#849 = VERTEX_POINT('',#850);
#850 = CARTESIAN_POINT('',(-30.98456804922,-73.10483255437,6.));
#851 = SURFACE_CURVE('',#852,(#865,#881),.PCURVE_S1.);
#852 = B_SPLINE_CURVE_WITH_KNOTS('',6,(#853,#854,#855,#856,#857,#858,
    #859,#860,#861,#862,#863,#864),.UNSPECIFIED.,.F.,.F.,(7,5,7),(0.,
    0.499847256308,1.),.UNSPECIFIED.);
#853 = CARTESIAN_POINT('',(-30.90380547963,-73.30182335301,5.85));
#854 = CARTESIAN_POINT('',(-30.90380547963,-73.30182335301,5.86973928096
    ));
#855 = CARTESIAN_POINT('',(-30.90548489672,-73.29773256284,
    5.889479997857));
#856 = CARTESIAN_POINT('',(-30.90884441303,-73.28954934295,
    5.908589589045));
#857 = CARTESIAN_POINT('',(-30.91378624449,-73.27751008434,
    5.926440447471));
#858 = CARTESIAN_POINT('',(-30.92012440091,-73.2620645611,5.942494328765
    ));
#859 = CARTESIAN_POINT('',(-30.93511711695,-73.2255156421,5.970189924887
    ));
#860 = CARTESIAN_POINT('',(-30.9437735142,-73.20440777394,5.981830012275
    ));
#861 = CARTESIAN_POINT('',(-30.95334787018,-73.1810533497,5.990844097879
    ));
#862 = CARTESIAN_POINT('',(-30.96354833362,-73.15616116322,
    5.996948797873));
#863 = CARTESIAN_POINT('',(-30.97405902168,-73.13050024157,
    5.999999756968));
#864 = CARTESIAN_POINT('',(-30.98456804922,-73.10483255437,6.));
#865 = PCURVE('',#177,#866);
#866 = DEFINITIONAL_REPRESENTATION('',(#867),#880);
#867 = B_SPLINE_CURVE_WITH_KNOTS('',6,(#868,#869,#870,#871,#872,#873,
    #874,#875,#876,#877,#878,#879),.UNSPECIFIED.,.F.,.F.,(7,5,7),(0.,
    0.499847256308,1.),.UNSPECIFIED.);
#868 = CARTESIAN_POINT('',(0.249228594783,0.));
#869 = CARTESIAN_POINT('',(0.249228594783,0.1315952064));
#870 = CARTESIAN_POINT('',(0.249189164061,0.263200138343));
#871 = CARTESIAN_POINT('',(0.249110287005,0.394698576298));
#872 = CARTESIAN_POINT('',(0.248994226537,0.52601579195));
#873 = CARTESIAN_POINT('',(0.248845289531,0.657110072288));
#874 = CARTESIAN_POINT('',(0.248492744981,0.918899426551));
#875 = CARTESIAN_POINT('',(0.24828909436,1.049600846674));
#876 = CARTESIAN_POINT('',(0.248063697471,1.180077363409));
#877 = CARTESIAN_POINT('',(0.247823367908,1.31037901997));
#878 = CARTESIAN_POINT('',(0.247575514615,1.440585876953));
#879 = CARTESIAN_POINT('',(0.247327501866,1.570796326795));
#880 = ( GEOMETRIC_REPRESENTATION_CONTEXT(2) 
PARAMETRIC_REPRESENTATION_CONTEXT() REPRESENTATION_CONTEXT('2D SPACE',''
  ) );
#881 = PCURVE('',#831,#882);
#882 = DEFINITIONAL_REPRESENTATION('',(#883),#896);
#883 = B_SPLINE_CURVE_WITH_KNOTS('',6,(#884,#885,#886,#887,#888,#889,
    #890,#891,#892,#893,#894,#895),.UNSPECIFIED.,.F.,.F.,(7,5,7),(0.,
    0.499847256308,1.),.UNSPECIFIED.);
#884 = CARTESIAN_POINT('',(1.570796326795,-1.42108547152E-14));
#885 = CARTESIAN_POINT('',(1.439201120395,-1.420964603284E-14));
#886 = CARTESIAN_POINT('',(1.307596188451,3.136712216444E-03));
#887 = CARTESIAN_POINT('',(1.176097750497,9.41139035069E-03));
#888 = CARTESIAN_POINT('',(1.044780534845,1.864305793595E-02));
#889 = CARTESIAN_POINT('',(0.913686254507,3.048735327358E-02));
#890 = CARTESIAN_POINT('',(0.651896900244,5.851668744237E-02));
#891 = CARTESIAN_POINT('',(0.52119548012,7.470515499966E-02));
#892 = CARTESIAN_POINT('',(0.390718963387,9.261788214055E-02));
#893 = CARTESIAN_POINT('',(0.260417306826,0.111711715385));
#894 = CARTESIAN_POINT('',(0.130210449842,0.131397049498));
#895 = CARTESIAN_POINT('',(0.,0.151089269623));
#896 = ( GEOMETRIC_REPRESENTATION_CONTEXT(2) 
PARAMETRIC_REPRESENTATION_CONTEXT() REPRESENTATION_CONTEXT('2D SPACE',''
  ) );
#897 = ORIENTED_EDGE('',*,*,#898,.F.);
#898 = EDGE_CURVE('',#381,#849,#899,.T.);
#899 = SURFACE_CURVE('',#900,(#905,#912),.PCURVE_S1.);
#900 = CIRCLE('',#901,79.4);
#901 = AXIS2_PLACEMENT_3D('',#902,#903,#904);
#902 = CARTESIAN_POINT('',(-1.42108547152E-13,-1.989519660128E-13,6.));
#903 = DIRECTION('',(0.,0.,1.));
#904 = DIRECTION('',(-0.603762896639,-0.797163950918,0.));
#905 = PCURVE('',#177,#906);
#906 = DEFINITIONAL_REPRESENTATION('',(#907),#911);
#907 = LINE('',#908,#909);
#908 = CARTESIAN_POINT('',(0.,1.570796326795));
#909 = VECTOR('',#910,1.);
#910 = DIRECTION('',(1.,0.));
#911 = ( GEOMETRIC_REPRESENTATION_CONTEXT(2) 
PARAMETRIC_REPRESENTATION_CONTEXT() REPRESENTATION_CONTEXT('2D SPACE',''
  ) );
#912 = PCURVE('',#396,#913);
#913 = DEFINITIONAL_REPRESENTATION('',(#914),#918);
#914 = CIRCLE('',#915,79.4);
#915 = AXIS2_PLACEMENT_2D('',#916,#917);
#916 = CARTESIAN_POINT('',(27.731016910987,48.031530235382));
#917 = DIRECTION('',(-0.603762896639,-0.797163950918));
#918 = ( GEOMETRIC_REPRESENTATION_CONTEXT(2) 
PARAMETRIC_REPRESENTATION_CONTEXT() REPRESENTATION_CONTEXT('2D SPACE',''
  ) );
#919 = ADVANCED_FACE('',(#920),#354,.T.);
#920 = FACE_BOUND('',#921,.F.);
#921 = EDGE_LOOP('',(#922,#987,#1013,#1014));
#922 = ORIENTED_EDGE('',*,*,#923,.F.);
#923 = EDGE_CURVE('',#924,#505,#926,.T.);
#924 = VERTEX_POINT('',#925);
#925 = CARTESIAN_POINT('',(-10.79600125115,-24.36532078559,6.));
#926 = SURFACE_CURVE('',#927,(#945,#966),.PCURVE_S1.);
#927 = B_SPLINE_CURVE_WITH_KNOTS('',6,(#928,#929,#930,#931,#932,#933,
    #934,#935,#936,#937,#938,#939,#940,#941,#942,#943,#944),
  .UNSPECIFIED.,.F.,.F.,(7,5,5,7),(0.,6.067994046935E-02,0.502046476924,
    1.),.UNSPECIFIED.);
#928 = CARTESIAN_POINT('',(-10.79600125115,-24.36532078559,6.));
#929 = CARTESIAN_POINT('',(-10.79292589381,-24.3640906556,6.000000000003
    ));
#930 = CARTESIAN_POINT('',(-10.78985045024,-24.3628603053,5.999955045475
    ));
#931 = CARTESIAN_POINT('',(-10.78677627544,-24.36163027664,
    5.999865136798));
#932 = CARTESIAN_POINT('',(-10.78370472296,-24.36040111149,
    5.999730305216));
#933 = CARTESIAN_POINT('',(-10.78063714487,-24.3591733517,5.999550612847
    ));
#934 = CARTESIAN_POINT('',(-10.7553010393,-24.34903136888,5.997693500959
    ));
#935 = CARTESIAN_POINT('',(-10.73330938532,-24.34021842108,
    5.993692611228));
#936 = CARTESIAN_POINT('',(-10.71211788513,-24.33171639517,
    5.987358211943));
#937 = CARTESIAN_POINT('',(-10.69224026025,-24.323733048,5.978814037548)
  );
#938 = CARTESIAN_POINT('',(-10.67414945417,-24.31646083022,
    5.968267608062));
#939 = CARTESIAN_POINT('',(-10.64029313282,-24.30284176919,
    5.942170238528));
#940 = CARTESIAN_POINT('',(-10.62512206203,-24.29673266959,5.92614995022
    ));
#941 = CARTESIAN_POINT('',(-10.61329848884,-24.29196742047,
    5.908354911316));
#942 = CARTESIAN_POINT('',(-10.60526261414,-24.28872731288,
    5.889317919347));
#943 = CARTESIAN_POINT('',(-10.60124545271,-24.28710758512,
    5.869658279715));
#944 = CARTESIAN_POINT('',(-10.60124545271,-24.28710758512,5.85));
#945 = PCURVE('',#354,#946);
#946 = DEFINITIONAL_REPRESENTATION('',(#947),#965);
#947 = B_SPLINE_CURVE_WITH_KNOTS('',6,(#948,#949,#950,#951,#952,#953,
    #954,#955,#956,#957,#958,#959,#960,#961,#962,#963,#964),
  .UNSPECIFIED.,.F.,.F.,(7,5,5,7),(0.,6.067994046935E-02,0.502046476924,
    1.),.UNSPECIFIED.);
#948 = CARTESIAN_POINT('',(-5.523618577704E-03,1.570796326795));
#949 = CARTESIAN_POINT('',(-5.436812565261E-03,1.586599723455));
#950 = CARTESIAN_POINT('',(-5.349988411922E-03,1.602403085616));
#951 = CARTESIAN_POINT('',(-5.263184357289E-03,1.618206561366));
#952 = CARTESIAN_POINT('',(-5.176438645609E-03,1.634010298102));
#953 = CARTESIAN_POINT('',(-5.089789525786E-03,1.649814442539));
#954 = CARTESIAN_POINT('',(-4.373998008165E-03,1.780577475118));
#955 = CARTESIAN_POINT('',(-3.751869679033E-03,1.895563260111));
#956 = CARTESIAN_POINT('',(-3.15155364031E-03,2.010637172402));
#957 = CARTESIAN_POINT('',(-2.587742003992E-03,2.125847267671));
#958 = CARTESIAN_POINT('',(-2.074061151401E-03,2.241223046236));
#959 = CARTESIAN_POINT('',(-1.111932339433E-03,2.487130042936));
#960 = CARTESIAN_POINT('',(-6.802605363383E-04,2.617714936633));
#961 = CARTESIAN_POINT('',(-3.43487519193E-04,2.748508862582));
#962 = CARTESIAN_POINT('',(-1.144803474036E-04,2.879473043691));
#963 = CARTESIAN_POINT('',(0.,3.010537455488));
#964 = CARTESIAN_POINT('',(0.,3.14159265359));
#965 = ( GEOMETRIC_REPRESENTATION_CONTEXT(2) 
PARAMETRIC_REPRESENTATION_CONTEXT() REPRESENTATION_CONTEXT('2D SPACE',''
  ) );
#966 = PCURVE('',#831,#967);
#967 = DEFINITIONAL_REPRESENTATION('',(#968),#986);
#968 = B_SPLINE_CURVE_WITH_KNOTS('',6,(#969,#970,#971,#972,#973,#974,
    #975,#976,#977,#978,#979,#980,#981,#982,#983,#984,#985),
  .UNSPECIFIED.,.F.,.F.,(7,5,5,7),(0.,6.067994046935E-02,0.502046476924,
    1.),.UNSPECIFIED.);
#969 = CARTESIAN_POINT('',(-1.90167881442E-11,52.906356654205));
#970 = CARTESIAN_POINT('',(1.580339667199E-02,52.908670034432));
#971 = CARTESIAN_POINT('',(3.160675882895E-02,52.910983651189));
#972 = CARTESIAN_POINT('',(4.741023456714E-02,52.91329648526));
#973 = CARTESIAN_POINT('',(6.321397130096E-02,52.915607518029));
#974 = CARTESIAN_POINT('',(7.901811574393E-02,52.917915731484));
#975 = CARTESIAN_POINT('',(0.209781148323,52.936981409674));
#976 = CARTESIAN_POINT('',(0.324766933317,52.953539353396));
#977 = CARTESIAN_POINT('',(0.439840845608,52.969503837142));
#978 = CARTESIAN_POINT('',(0.555050940876,52.984486325914));
#979 = CARTESIAN_POINT('',(0.670426719441,52.998128030842));
#980 = CARTESIAN_POINT('',(0.916333716141,53.023666655845));
#981 = CARTESIAN_POINT('',(1.046918609838,53.035116445365));
#982 = CARTESIAN_POINT('',(1.177712535788,53.044043647064));
#983 = CARTESIAN_POINT('',(1.308676716896,53.050112312265));
#984 = CARTESIAN_POINT('',(1.439741128694,53.053146046716));
#985 = CARTESIAN_POINT('',(1.570796326795,53.053146046716));
#986 = ( GEOMETRIC_REPRESENTATION_CONTEXT(2) 
PARAMETRIC_REPRESENTATION_CONTEXT() REPRESENTATION_CONTEXT('2D SPACE',''
  ) );
#987 = ORIENTED_EDGE('',*,*,#988,.T.);
#988 = EDGE_CURVE('',#924,#311,#989,.T.);
#989 = SURFACE_CURVE('',#990,(#995,#1002),.PCURVE_S1.);
#990 = CIRCLE('',#991,26.650000000001);
#991 = AXIS2_PLACEMENT_3D('',#992,#993,#994);
#992 = CARTESIAN_POINT('',(3.979039320257E-13,6.963318810449E-13,6.));
#993 = DIRECTION('',(-0.,0.,-1.));
#994 = DIRECTION('',(-0.400046998216,-0.916494625854,0.));
#995 = PCURVE('',#354,#996);
#996 = DEFINITIONAL_REPRESENTATION('',(#997),#1001);
#997 = LINE('',#998,#999);
#998 = CARTESIAN_POINT('',(-0.,1.570796326795));
#999 = VECTOR('',#1000,1.);
#1000 = DIRECTION('',(-1.,0.));
#1001 = ( GEOMETRIC_REPRESENTATION_CONTEXT(2) 
PARAMETRIC_REPRESENTATION_CONTEXT() REPRESENTATION_CONTEXT('2D SPACE',''
  ) );
#1002 = PCURVE('',#396,#1003);
#1003 = DEFINITIONAL_REPRESENTATION('',(#1004),#1012);
#1004 = ( BOUNDED_CURVE() B_SPLINE_CURVE(2,(#1005,#1006,#1007,#1008,
#1009,#1010,#1011),.UNSPECIFIED.,.T.,.F.) B_SPLINE_CURVE_WITH_KNOTS((1,2
    ,2,2,2,1),(-2.094395102393,0.,2.094395102393,4.188790204786,
6.28318530718,8.377580409573),.UNSPECIFIED.) CURVE() 
GEOMETRIC_REPRESENTATION_ITEM() RATIONAL_B_SPLINE_CURVE((1.,0.5,1.,0.5,
1.,0.5,1.)) REPRESENTATION_ITEM('') );
#1005 = CARTESIAN_POINT('',(17.069764408537,23.606948456383));
#1006 = CARTESIAN_POINT('',(-25.23485218631,42.072779462948));
#1007 = CARTESIAN_POINT('',(11.909334864789,69.476736628165));
#1008 = CARTESIAN_POINT('',(49.053521915889,96.880693793381));
#1009 = CARTESIAN_POINT('',(54.213951459637,51.0109056216));
#1010 = CARTESIAN_POINT('',(59.374381003385,5.141117449818));
#1011 = CARTESIAN_POINT('',(17.069764408537,23.606948456383));
#1012 = ( GEOMETRIC_REPRESENTATION_CONTEXT(2) 
PARAMETRIC_REPRESENTATION_CONTEXT() REPRESENTATION_CONTEXT('2D SPACE',''
  ) );
#1013 = ORIENTED_EDGE('',*,*,#310,.F.);
#1014 = ORIENTED_EDGE('',*,*,#527,.F.);
#1015 = ADVANCED_FACE('',(#1016),#396,.T.);
#1016 = FACE_BOUND('',#1017,.T.);
#1017 = EDGE_LOOP('',(#1018,#1019,#1020,#1041));
#1018 = ORIENTED_EDGE('',*,*,#380,.T.);
#1019 = ORIENTED_EDGE('',*,*,#898,.T.);
#1020 = ORIENTED_EDGE('',*,*,#1021,.T.);
#1021 = EDGE_CURVE('',#849,#924,#1022,.T.);
#1022 = SURFACE_CURVE('',#1023,(#1027,#1034),.PCURVE_S1.);
#1023 = LINE('',#1024,#1025);
#1024 = CARTESIAN_POINT('',(-31.04238740951,-73.24442083815,6.));
#1025 = VECTOR('',#1026,1.);
#1026 = DIRECTION('',(0.382683432365,0.923879532511,0.));
#1027 = PCURVE('',#396,#1028);
#1028 = DEFINITIONAL_REPRESENTATION('',(#1029),#1033);
#1029 = LINE('',#1030,#1031);
#1030 = CARTESIAN_POINT('',(-3.311370498531,-25.21289060277));
#1031 = VECTOR('',#1032,1.);
#1032 = DIRECTION('',(0.382683432365,0.923879532511));
#1033 = ( GEOMETRIC_REPRESENTATION_CONTEXT(2) 
PARAMETRIC_REPRESENTATION_CONTEXT() REPRESENTATION_CONTEXT('2D SPACE',''
  ) );
#1034 = PCURVE('',#831,#1035);
#1035 = DEFINITIONAL_REPRESENTATION('',(#1036),#1040);
#1036 = LINE('',#1037,#1038);
#1037 = CARTESIAN_POINT('',(0.,0.));
#1038 = VECTOR('',#1039,1.);
#1039 = DIRECTION('',(0.,1.));
#1040 = ( GEOMETRIC_REPRESENTATION_CONTEXT(2) 
PARAMETRIC_REPRESENTATION_CONTEXT() REPRESENTATION_CONTEXT('2D SPACE',''
  ) );
#1041 = ORIENTED_EDGE('',*,*,#988,.T.);
#1042 = ADVANCED_FACE('',(#1043,#1070),#592,.F.);
#1043 = FACE_BOUND('',#1044,.F.);
#1044 = EDGE_LOOP('',(#1045,#1067,#1068,#1069));
#1045 = ORIENTED_EDGE('',*,*,#1046,.T.);
#1046 = EDGE_CURVE('',#613,#764,#1047,.T.);
#1047 = SURFACE_CURVE('',#1048,(#1053,#1060),.PCURVE_S1.);
#1048 = CIRCLE('',#1049,76.45);
#1049 = AXIS2_PLACEMENT_3D('',#1050,#1051,#1052);
#1050 = CARTESIAN_POINT('',(0.,0.,3.8));
#1051 = DIRECTION('',(0.,0.,1.));
#1052 = DIRECTION('',(1.,0.,-0.));
#1053 = PCURVE('',#592,#1054);
#1054 = DEFINITIONAL_REPRESENTATION('',(#1055),#1059);
#1055 = CIRCLE('',#1056,76.45);
#1056 = AXIS2_PLACEMENT_2D('',#1057,#1058);
#1057 = CARTESIAN_POINT('',(27.731016910987,48.031530235382));
#1058 = DIRECTION('',(1.,0.));
#1059 = ( GEOMETRIC_REPRESENTATION_CONTEXT(2) 
PARAMETRIC_REPRESENTATION_CONTEXT() REPRESENTATION_CONTEXT('2D SPACE',''
  ) );
#1060 = PCURVE('',#652,#1061);
#1061 = DEFINITIONAL_REPRESENTATION('',(#1062),#1066);
#1062 = LINE('',#1063,#1064);
#1063 = CARTESIAN_POINT('',(0.,1.));
#1064 = VECTOR('',#1065,1.);
#1065 = DIRECTION('',(1.,0.));
#1066 = ( GEOMETRIC_REPRESENTATION_CONTEXT(2) 
PARAMETRIC_REPRESENTATION_CONTEXT() REPRESENTATION_CONTEXT('2D SPACE',''
  ) );
#1067 = ORIENTED_EDGE('',*,*,#790,.F.);
#1068 = ORIENTED_EDGE('',*,*,#577,.T.);
#1069 = ORIENTED_EDGE('',*,*,#612,.T.);
#1070 = FACE_BOUND('',#1071,.F.);
#1071 = EDGE_LOOP('',(#1072,#1102,#1135,#1163));
#1072 = ORIENTED_EDGE('',*,*,#1073,.T.);
#1073 = EDGE_CURVE('',#1074,#1076,#1078,.T.);
#1074 = VERTEX_POINT('',#1075);
#1075 = CARTESIAN_POINT('',(-27.01102725426,-60.38447156901,3.8));
#1076 = VERTEX_POINT('',#1077);
#1077 = CARTESIAN_POINT('',(-29.21102725426,-64.19498334566,3.8));
#1078 = SURFACE_CURVE('',#1079,(#1083,#1090),.PCURVE_S1.);
#1079 = LINE('',#1080,#1081);
#1080 = CARTESIAN_POINT('',(-27.01102725426,-60.38447156901,3.8));
#1081 = VECTOR('',#1082,1.);
#1082 = DIRECTION('',(-0.5,-0.866025403784,0.));
#1083 = PCURVE('',#592,#1084);
#1084 = DEFINITIONAL_REPRESENTATION('',(#1085),#1089);
#1085 = LINE('',#1086,#1087);
#1086 = CARTESIAN_POINT('',(0.719989656721,-12.35294133363));
#1087 = VECTOR('',#1088,1.);
#1088 = DIRECTION('',(-0.5,-0.866025403784));
#1089 = ( GEOMETRIC_REPRESENTATION_CONTEXT(2) 
PARAMETRIC_REPRESENTATION_CONTEXT() REPRESENTATION_CONTEXT('2D SPACE',''
  ) );
#1090 = PCURVE('',#1091,#1096);
#1091 = PLANE('',#1092);
#1092 = AXIS2_PLACEMENT_3D('',#1093,#1094,#1095);
#1093 = CARTESIAN_POINT('',(-27.01102725426,-60.38447156901,3.));
#1094 = DIRECTION('',(0.866025403784,-0.5,0.));
#1095 = DIRECTION('',(-0.5,-0.866025403784,0.));
#1096 = DEFINITIONAL_REPRESENTATION('',(#1097),#1101);
#1097 = LINE('',#1098,#1099);
#1098 = CARTESIAN_POINT('',(0.,-0.8));
#1099 = VECTOR('',#1100,1.);
#1100 = DIRECTION('',(1.,0.));
#1101 = ( GEOMETRIC_REPRESENTATION_CONTEXT(2) 
PARAMETRIC_REPRESENTATION_CONTEXT() REPRESENTATION_CONTEXT('2D SPACE',''
  ) );
#1102 = ORIENTED_EDGE('',*,*,#1103,.T.);
#1103 = EDGE_CURVE('',#1076,#1104,#1106,.T.);
#1104 = VERTEX_POINT('',#1105);
#1105 = CARTESIAN_POINT('',(-30.59666790032,-63.39498334566,3.8));
#1106 = SURFACE_CURVE('',#1107,(#1112,#1123),.PCURVE_S1.);
#1107 = CIRCLE('',#1108,0.8);
#1108 = AXIS2_PLACEMENT_3D('',#1109,#1110,#1111);
#1109 = CARTESIAN_POINT('',(-29.90384757729,-63.79498334566,3.8));
#1110 = DIRECTION('',(0.,0.,-1.));
#1111 = DIRECTION('',(0.5,0.866025403784,0.));
#1112 = PCURVE('',#592,#1113);
#1113 = DEFINITIONAL_REPRESENTATION('',(#1114),#1122);
#1114 = ( BOUNDED_CURVE() B_SPLINE_CURVE(2,(#1115,#1116,#1117,#1118,
#1119,#1120,#1121),.UNSPECIFIED.,.T.,.F.) B_SPLINE_CURVE_WITH_KNOTS((1,2
    ,2,2,2,1),(-2.094395102393,0.,2.094395102393,4.188790204786,
6.28318530718,8.377580409573),.UNSPECIFIED.) CURVE() 
GEOMETRIC_REPRESENTATION_ITEM() RATIONAL_B_SPLINE_CURVE((1.,0.5,1.,0.5,
1.,0.5,1.)) REPRESENTATION_ITEM('') );
#1115 = CARTESIAN_POINT('',(-1.772830666306,-15.07063278725));
#1116 = CARTESIAN_POINT('',(-0.572830666306,-15.76345311028));
#1117 = CARTESIAN_POINT('',(-1.772830666306,-16.45627343331));
#1118 = CARTESIAN_POINT('',(-2.972830666306,-17.14909375634));
#1119 = CARTESIAN_POINT('',(-2.972830666306,-15.76345311028));
#1120 = CARTESIAN_POINT('',(-2.972830666306,-14.37781246423));
#1121 = CARTESIAN_POINT('',(-1.772830666306,-15.07063278725));
#1122 = ( GEOMETRIC_REPRESENTATION_CONTEXT(2) 
PARAMETRIC_REPRESENTATION_CONTEXT() REPRESENTATION_CONTEXT('2D SPACE',''
  ) );
#1123 = PCURVE('',#1124,#1129);
#1124 = CYLINDRICAL_SURFACE('',#1125,0.8);
#1125 = AXIS2_PLACEMENT_3D('',#1126,#1127,#1128);
#1126 = CARTESIAN_POINT('',(-29.90384757729,-63.79498334566,3.));
#1127 = DIRECTION('',(0.,0.,-1.));
#1128 = DIRECTION('',(0.5,0.866025403784,0.));
#1129 = DEFINITIONAL_REPRESENTATION('',(#1130),#1134);
#1130 = LINE('',#1131,#1132);
#1131 = CARTESIAN_POINT('',(0.,-0.8));
#1132 = VECTOR('',#1133,1.);
#1133 = DIRECTION('',(1.,0.));
#1134 = ( GEOMETRIC_REPRESENTATION_CONTEXT(2) 
PARAMETRIC_REPRESENTATION_CONTEXT() REPRESENTATION_CONTEXT('2D SPACE',''
  ) );
#1135 = ORIENTED_EDGE('',*,*,#1136,.T.);
#1136 = EDGE_CURVE('',#1104,#1137,#1139,.T.);
#1137 = VERTEX_POINT('',#1138);
#1138 = CARTESIAN_POINT('',(-28.39666790032,-59.58447156901,3.8));
#1139 = SURFACE_CURVE('',#1140,(#1144,#1151),.PCURVE_S1.);
#1140 = LINE('',#1141,#1142);
#1141 = CARTESIAN_POINT('',(-30.59666790032,-63.39498334566,3.8));
#1142 = VECTOR('',#1143,1.);
#1143 = DIRECTION('',(0.5,0.866025403784,0.));
#1144 = PCURVE('',#592,#1145);
#1145 = DEFINITIONAL_REPRESENTATION('',(#1146),#1150);
#1146 = LINE('',#1147,#1148);
#1147 = CARTESIAN_POINT('',(-2.865650989334,-15.36345311028));
#1148 = VECTOR('',#1149,1.);
#1149 = DIRECTION('',(0.5,0.866025403784));
#1150 = ( GEOMETRIC_REPRESENTATION_CONTEXT(2) 
PARAMETRIC_REPRESENTATION_CONTEXT() REPRESENTATION_CONTEXT('2D SPACE',''
  ) );
#1151 = PCURVE('',#1152,#1157);
#1152 = PLANE('',#1153);
#1153 = AXIS2_PLACEMENT_3D('',#1154,#1155,#1156);
#1154 = CARTESIAN_POINT('',(-29.49666790032,-61.48972745734,3.));
#1155 = DIRECTION('',(0.866025403784,-0.5,0.));
#1156 = DIRECTION('',(-0.5,-0.866025403784,0.));
#1157 = DEFINITIONAL_REPRESENTATION('',(#1158),#1162);
#1158 = LINE('',#1159,#1160);
#1159 = CARTESIAN_POINT('',(2.2,-0.8));
#1160 = VECTOR('',#1161,1.);
#1161 = DIRECTION('',(-1.,0.));
#1162 = ( GEOMETRIC_REPRESENTATION_CONTEXT(2) 
PARAMETRIC_REPRESENTATION_CONTEXT() REPRESENTATION_CONTEXT('2D SPACE',''
  ) );
#1163 = ORIENTED_EDGE('',*,*,#1164,.T.);
#1164 = EDGE_CURVE('',#1137,#1074,#1165,.T.);
#1165 = SURFACE_CURVE('',#1166,(#1171,#1182),.PCURVE_S1.);
#1166 = CIRCLE('',#1167,0.8);
#1167 = AXIS2_PLACEMENT_3D('',#1168,#1169,#1170);
#1168 = CARTESIAN_POINT('',(-27.70384757729,-59.98447156901,3.8));
#1169 = DIRECTION('',(-0.,0.,-1.));
#1170 = DIRECTION('',(-0.5,-0.866025403784,0.));
#1171 = PCURVE('',#592,#1172);
#1172 = DEFINITIONAL_REPRESENTATION('',(#1173),#1181);
#1173 = ( BOUNDED_CURVE() B_SPLINE_CURVE(2,(#1174,#1175,#1176,#1177,
#1178,#1179,#1180),.UNSPECIFIED.,.T.,.F.) B_SPLINE_CURVE_WITH_KNOTS((1,2
    ,2,2,2,1),(-2.094395102393,0.,2.094395102393,4.188790204786,
6.28318530718,8.377580409573),.UNSPECIFIED.) CURVE() 
GEOMETRIC_REPRESENTATION_ITEM() RATIONAL_B_SPLINE_CURVE((1.,0.5,1.,0.5,
1.,0.5,1.)) REPRESENTATION_ITEM('') );
#1174 = CARTESIAN_POINT('',(-0.372830666306,-12.64576165666));
#1175 = CARTESIAN_POINT('',(-1.572830666306,-11.95294133363));
#1176 = CARTESIAN_POINT('',(-0.372830666306,-11.2601210106));
#1177 = CARTESIAN_POINT('',(0.827169333694,-10.56730068757));
#1178 = CARTESIAN_POINT('',(0.827169333694,-11.95294133363));
#1179 = CARTESIAN_POINT('',(0.827169333694,-13.33858197968));
#1180 = CARTESIAN_POINT('',(-0.372830666306,-12.64576165666));
#1181 = ( GEOMETRIC_REPRESENTATION_CONTEXT(2) 
PARAMETRIC_REPRESENTATION_CONTEXT() REPRESENTATION_CONTEXT('2D SPACE',''
  ) );
#1182 = PCURVE('',#1183,#1188);
#1183 = CYLINDRICAL_SURFACE('',#1184,0.8);
#1184 = AXIS2_PLACEMENT_3D('',#1185,#1186,#1187);
#1185 = CARTESIAN_POINT('',(-27.70384757729,-59.98447156901,3.));
#1186 = DIRECTION('',(0.,-0.,-1.));
#1187 = DIRECTION('',(-0.5,-0.866025403784,0.));
#1188 = DEFINITIONAL_REPRESENTATION('',(#1189),#1193);
#1189 = LINE('',#1190,#1191);
#1190 = CARTESIAN_POINT('',(0.,-0.8));
#1191 = VECTOR('',#1192,1.);
#1192 = DIRECTION('',(1.,0.));
#1193 = ( GEOMETRIC_REPRESENTATION_CONTEXT(2) 
PARAMETRIC_REPRESENTATION_CONTEXT() REPRESENTATION_CONTEXT('2D SPACE',''
  ) );
#1194 = ADVANCED_FACE('',(#1195),#652,.T.);
#1195 = FACE_BOUND('',#1196,.T.);
#1196 = EDGE_LOOP('',(#1197,#1198,#1199,#1200));
#1197 = ORIENTED_EDGE('',*,*,#691,.F.);
#1198 = ORIENTED_EDGE('',*,*,#635,.F.);
#1199 = ORIENTED_EDGE('',*,*,#1046,.T.);
#1200 = ORIENTED_EDGE('',*,*,#763,.F.);
#1201 = ADVANCED_FACE('',(#1202),#831,.T.);
#1202 = FACE_BOUND('',#1203,.T.);
#1203 = EDGE_LOOP('',(#1204,#1205,#1206,#1207));
#1204 = ORIENTED_EDGE('',*,*,#848,.F.);
#1205 = ORIENTED_EDGE('',*,*,#817,.T.);
#1206 = ORIENTED_EDGE('',*,*,#923,.F.);
#1207 = ORIENTED_EDGE('',*,*,#1021,.F.);
#1208 = ADVANCED_FACE('',(#1209),#1091,.T.);
#1209 = FACE_BOUND('',#1210,.T.);
#1210 = EDGE_LOOP('',(#1211,#1234,#1235,#1258));
#1211 = ORIENTED_EDGE('',*,*,#1212,.T.);
#1212 = EDGE_CURVE('',#1213,#1074,#1215,.T.);
#1213 = VERTEX_POINT('',#1214);
#1214 = CARTESIAN_POINT('',(-27.01102725426,-60.38447156901,3.));
#1215 = SURFACE_CURVE('',#1216,(#1220,#1227),.PCURVE_S1.);
#1216 = LINE('',#1217,#1218);
#1217 = CARTESIAN_POINT('',(-27.01102725426,-60.38447156901,3.));
#1218 = VECTOR('',#1219,1.);
#1219 = DIRECTION('',(0.,0.,1.));
#1220 = PCURVE('',#1091,#1221);
#1221 = DEFINITIONAL_REPRESENTATION('',(#1222),#1226);
#1222 = LINE('',#1223,#1224);
#1223 = CARTESIAN_POINT('',(0.,0.));
#1224 = VECTOR('',#1225,1.);
#1225 = DIRECTION('',(0.,-1.));
#1226 = ( GEOMETRIC_REPRESENTATION_CONTEXT(2) 
PARAMETRIC_REPRESENTATION_CONTEXT() REPRESENTATION_CONTEXT('2D SPACE',''
  ) );
#1227 = PCURVE('',#1183,#1228);
#1228 = DEFINITIONAL_REPRESENTATION('',(#1229),#1233);
#1229 = LINE('',#1230,#1231);
#1230 = CARTESIAN_POINT('',(4.712388980385,0.));
#1231 = VECTOR('',#1232,1.);
#1232 = DIRECTION('',(0.,-1.));
#1233 = ( GEOMETRIC_REPRESENTATION_CONTEXT(2) 
PARAMETRIC_REPRESENTATION_CONTEXT() REPRESENTATION_CONTEXT('2D SPACE',''
  ) );
#1234 = ORIENTED_EDGE('',*,*,#1073,.T.);
#1235 = ORIENTED_EDGE('',*,*,#1236,.F.);
#1236 = EDGE_CURVE('',#1237,#1076,#1239,.T.);
#1237 = VERTEX_POINT('',#1238);
#1238 = CARTESIAN_POINT('',(-29.21102725426,-64.19498334566,3.));
#1239 = SURFACE_CURVE('',#1240,(#1244,#1251),.PCURVE_S1.);
#1240 = LINE('',#1241,#1242);
#1241 = CARTESIAN_POINT('',(-29.21102725426,-64.19498334566,3.));
#1242 = VECTOR('',#1243,1.);
#1243 = DIRECTION('',(0.,0.,1.));
#1244 = PCURVE('',#1091,#1245);
#1245 = DEFINITIONAL_REPRESENTATION('',(#1246),#1250);
#1246 = LINE('',#1247,#1248);
#1247 = CARTESIAN_POINT('',(4.4,0.));
#1248 = VECTOR('',#1249,1.);
#1249 = DIRECTION('',(0.,-1.));
#1250 = ( GEOMETRIC_REPRESENTATION_CONTEXT(2) 
PARAMETRIC_REPRESENTATION_CONTEXT() REPRESENTATION_CONTEXT('2D SPACE',''
  ) );
#1251 = PCURVE('',#1124,#1252);
#1252 = DEFINITIONAL_REPRESENTATION('',(#1253),#1257);
#1253 = LINE('',#1254,#1255);
#1254 = CARTESIAN_POINT('',(1.570796326795,0.));
#1255 = VECTOR('',#1256,1.);
#1256 = DIRECTION('',(0.,-1.));
#1257 = ( GEOMETRIC_REPRESENTATION_CONTEXT(2) 
PARAMETRIC_REPRESENTATION_CONTEXT() REPRESENTATION_CONTEXT('2D SPACE',''
  ) );
#1258 = ORIENTED_EDGE('',*,*,#1259,.T.);
#1259 = EDGE_CURVE('',#1237,#1213,#1260,.T.);
#1260 = SURFACE_CURVE('',#1261,(#1265,#1272),.PCURVE_S1.);
#1261 = LINE('',#1262,#1263);
#1262 = CARTESIAN_POINT('',(-29.21102725426,-64.19498334566,3.));
#1263 = VECTOR('',#1264,1.);
#1264 = DIRECTION('',(0.5,0.866025403784,0.));
#1265 = PCURVE('',#1091,#1266);
#1266 = DEFINITIONAL_REPRESENTATION('',(#1267),#1271);
#1267 = LINE('',#1268,#1269);
#1268 = CARTESIAN_POINT('',(4.4,0.));
#1269 = VECTOR('',#1270,1.);
#1270 = DIRECTION('',(-1.,0.));
#1271 = ( GEOMETRIC_REPRESENTATION_CONTEXT(2) 
PARAMETRIC_REPRESENTATION_CONTEXT() REPRESENTATION_CONTEXT('2D SPACE',''
  ) );
#1272 = PCURVE('',#1273,#1278);
#1273 = PLANE('',#1274);
#1274 = AXIS2_PLACEMENT_3D('',#1275,#1276,#1277);
#1275 = CARTESIAN_POINT('',(-28.80384757729,-61.88972745734,3.));
#1276 = DIRECTION('',(0.,0.,1.));
#1277 = DIRECTION('',(-0.5,-0.866025403784,0.));
#1278 = DEFINITIONAL_REPRESENTATION('',(#1279),#1283);
#1279 = LINE('',#1280,#1281);
#1280 = CARTESIAN_POINT('',(2.2,0.8));
#1281 = VECTOR('',#1282,1.);
#1282 = DIRECTION('',(-1.,0.));
#1283 = ( GEOMETRIC_REPRESENTATION_CONTEXT(2) 
PARAMETRIC_REPRESENTATION_CONTEXT() REPRESENTATION_CONTEXT('2D SPACE',''
  ) );
#1284 = ADVANCED_FACE('',(#1285),#1183,.T.);
#1285 = FACE_BOUND('',#1286,.T.);
#1286 = EDGE_LOOP('',(#1287,#1310,#1311,#1312));
#1287 = ORIENTED_EDGE('',*,*,#1288,.T.);
#1288 = EDGE_CURVE('',#1289,#1137,#1291,.T.);
#1289 = VERTEX_POINT('',#1290);
#1290 = CARTESIAN_POINT('',(-28.39666790032,-59.58447156901,3.));
#1291 = SURFACE_CURVE('',#1292,(#1296,#1303),.PCURVE_S1.);
#1292 = LINE('',#1293,#1294);
#1293 = CARTESIAN_POINT('',(-28.39666790032,-59.58447156901,3.));
#1294 = VECTOR('',#1295,1.);
#1295 = DIRECTION('',(0.,0.,1.));
#1296 = PCURVE('',#1183,#1297);
#1297 = DEFINITIONAL_REPRESENTATION('',(#1298),#1302);
#1298 = LINE('',#1299,#1300);
#1299 = CARTESIAN_POINT('',(1.570796326795,0.));
#1300 = VECTOR('',#1301,1.);
#1301 = DIRECTION('',(0.,-1.));
#1302 = ( GEOMETRIC_REPRESENTATION_CONTEXT(2) 
PARAMETRIC_REPRESENTATION_CONTEXT() REPRESENTATION_CONTEXT('2D SPACE',''
  ) );
#1303 = PCURVE('',#1152,#1304);
#1304 = DEFINITIONAL_REPRESENTATION('',(#1305),#1309);
#1305 = LINE('',#1306,#1307);
#1306 = CARTESIAN_POINT('',(-2.2,0.));
#1307 = VECTOR('',#1308,1.);
#1308 = DIRECTION('',(0.,-1.));
#1309 = ( GEOMETRIC_REPRESENTATION_CONTEXT(2) 
PARAMETRIC_REPRESENTATION_CONTEXT() REPRESENTATION_CONTEXT('2D SPACE',''
  ) );
#1310 = ORIENTED_EDGE('',*,*,#1164,.T.);
#1311 = ORIENTED_EDGE('',*,*,#1212,.F.);
#1312 = ORIENTED_EDGE('',*,*,#1313,.F.);
#1313 = EDGE_CURVE('',#1289,#1213,#1314,.T.);
#1314 = SURFACE_CURVE('',#1315,(#1320,#1327),.PCURVE_S1.);
#1315 = CIRCLE('',#1316,0.8);
#1316 = AXIS2_PLACEMENT_3D('',#1317,#1318,#1319);
#1317 = CARTESIAN_POINT('',(-27.70384757729,-59.98447156901,3.));
#1318 = DIRECTION('',(-0.,0.,-1.));
#1319 = DIRECTION('',(-0.5,-0.866025403784,0.));
#1320 = PCURVE('',#1183,#1321);
#1321 = DEFINITIONAL_REPRESENTATION('',(#1322),#1326);
#1322 = LINE('',#1323,#1324);
#1323 = CARTESIAN_POINT('',(0.,0.));
#1324 = VECTOR('',#1325,1.);
#1325 = DIRECTION('',(1.,0.));
#1326 = ( GEOMETRIC_REPRESENTATION_CONTEXT(2) 
PARAMETRIC_REPRESENTATION_CONTEXT() REPRESENTATION_CONTEXT('2D SPACE',''
  ) );
#1327 = PCURVE('',#1273,#1328);
#1328 = DEFINITIONAL_REPRESENTATION('',(#1329),#1337);
#1329 = ( BOUNDED_CURVE() B_SPLINE_CURVE(2,(#1330,#1331,#1332,#1333,
#1334,#1335,#1336),.UNSPECIFIED.,.T.,.F.) B_SPLINE_CURVE_WITH_KNOTS((1,2
    ,2,2,2,1),(-2.094395102393,0.,2.094395102393,4.188790204786,
6.28318530718,8.377580409573),.UNSPECIFIED.) CURVE() 
GEOMETRIC_REPRESENTATION_ITEM() RATIONAL_B_SPLINE_CURVE((1.,0.5,1.,0.5,
1.,0.5,1.)) REPRESENTATION_ITEM('') );
#1330 = CARTESIAN_POINT('',(-1.4,0.));
#1331 = CARTESIAN_POINT('',(-1.4,-1.385640646055));
#1332 = CARTESIAN_POINT('',(-2.6,-0.692820323028));
#1333 = CARTESIAN_POINT('',(-3.8,-1.959434878636E-16));
#1334 = CARTESIAN_POINT('',(-2.6,0.692820323028));
#1335 = CARTESIAN_POINT('',(-1.4,1.385640646055));
#1336 = CARTESIAN_POINT('',(-1.4,0.));
#1337 = ( GEOMETRIC_REPRESENTATION_CONTEXT(2) 
PARAMETRIC_REPRESENTATION_CONTEXT() REPRESENTATION_CONTEXT('2D SPACE',''
  ) );
#1338 = ADVANCED_FACE('',(#1339),#1152,.F.);
#1339 = FACE_BOUND('',#1340,.F.);
#1340 = EDGE_LOOP('',(#1341,#1364,#1385,#1386));
#1341 = ORIENTED_EDGE('',*,*,#1342,.F.);
#1342 = EDGE_CURVE('',#1343,#1104,#1345,.T.);
#1343 = VERTEX_POINT('',#1344);
#1344 = CARTESIAN_POINT('',(-30.59666790032,-63.39498334566,3.));
#1345 = SURFACE_CURVE('',#1346,(#1350,#1357),.PCURVE_S1.);
#1346 = LINE('',#1347,#1348);
#1347 = CARTESIAN_POINT('',(-30.59666790032,-63.39498334566,3.));
#1348 = VECTOR('',#1349,1.);
#1349 = DIRECTION('',(0.,0.,1.));
#1350 = PCURVE('',#1152,#1351);
#1351 = DEFINITIONAL_REPRESENTATION('',(#1352),#1356);
#1352 = LINE('',#1353,#1354);
#1353 = CARTESIAN_POINT('',(2.2,0.));
#1354 = VECTOR('',#1355,1.);
#1355 = DIRECTION('',(0.,-1.));
#1356 = ( GEOMETRIC_REPRESENTATION_CONTEXT(2) 
PARAMETRIC_REPRESENTATION_CONTEXT() REPRESENTATION_CONTEXT('2D SPACE',''
  ) );
#1357 = PCURVE('',#1124,#1358);
#1358 = DEFINITIONAL_REPRESENTATION('',(#1359),#1363);
#1359 = LINE('',#1360,#1361);
#1360 = CARTESIAN_POINT('',(4.712388980385,0.));
#1361 = VECTOR('',#1362,1.);
#1362 = DIRECTION('',(0.,-1.));
#1363 = ( GEOMETRIC_REPRESENTATION_CONTEXT(2) 
PARAMETRIC_REPRESENTATION_CONTEXT() REPRESENTATION_CONTEXT('2D SPACE',''
  ) );
#1364 = ORIENTED_EDGE('',*,*,#1365,.F.);
#1365 = EDGE_CURVE('',#1289,#1343,#1366,.T.);
#1366 = SURFACE_CURVE('',#1367,(#1371,#1378),.PCURVE_S1.);
#1367 = LINE('',#1368,#1369);
#1368 = CARTESIAN_POINT('',(-28.39666790032,-59.58447156901,3.));
#1369 = VECTOR('',#1370,1.);
#1370 = DIRECTION('',(-0.5,-0.866025403784,0.));
#1371 = PCURVE('',#1152,#1372);
#1372 = DEFINITIONAL_REPRESENTATION('',(#1373),#1377);
#1373 = LINE('',#1374,#1375);
#1374 = CARTESIAN_POINT('',(-2.2,0.));
#1375 = VECTOR('',#1376,1.);
#1376 = DIRECTION('',(1.,0.));
#1377 = ( GEOMETRIC_REPRESENTATION_CONTEXT(2) 
PARAMETRIC_REPRESENTATION_CONTEXT() REPRESENTATION_CONTEXT('2D SPACE',''
  ) );
#1378 = PCURVE('',#1273,#1379);
#1379 = DEFINITIONAL_REPRESENTATION('',(#1380),#1384);
#1380 = LINE('',#1381,#1382);
#1381 = CARTESIAN_POINT('',(-2.2,-0.8));
#1382 = VECTOR('',#1383,1.);
#1383 = DIRECTION('',(1.,0.));
#1384 = ( GEOMETRIC_REPRESENTATION_CONTEXT(2) 
PARAMETRIC_REPRESENTATION_CONTEXT() REPRESENTATION_CONTEXT('2D SPACE',''
  ) );
#1385 = ORIENTED_EDGE('',*,*,#1288,.T.);
#1386 = ORIENTED_EDGE('',*,*,#1136,.F.);
#1387 = ADVANCED_FACE('',(#1388),#1124,.T.);
#1388 = FACE_BOUND('',#1389,.T.);
#1389 = EDGE_LOOP('',(#1390,#1391,#1392,#1393));
#1390 = ORIENTED_EDGE('',*,*,#1236,.T.);
#1391 = ORIENTED_EDGE('',*,*,#1103,.T.);
#1392 = ORIENTED_EDGE('',*,*,#1342,.F.);
#1393 = ORIENTED_EDGE('',*,*,#1394,.F.);
#1394 = EDGE_CURVE('',#1237,#1343,#1395,.T.);
#1395 = SURFACE_CURVE('',#1396,(#1401,#1408),.PCURVE_S1.);
#1396 = CIRCLE('',#1397,0.8);
#1397 = AXIS2_PLACEMENT_3D('',#1398,#1399,#1400);
#1398 = CARTESIAN_POINT('',(-29.90384757729,-63.79498334566,3.));
#1399 = DIRECTION('',(0.,0.,-1.));
#1400 = DIRECTION('',(0.5,0.866025403784,0.));
#1401 = PCURVE('',#1124,#1402);
#1402 = DEFINITIONAL_REPRESENTATION('',(#1403),#1407);
#1403 = LINE('',#1404,#1405);
#1404 = CARTESIAN_POINT('',(0.,0.));
#1405 = VECTOR('',#1406,1.);
#1406 = DIRECTION('',(1.,0.));
#1407 = ( GEOMETRIC_REPRESENTATION_CONTEXT(2) 
PARAMETRIC_REPRESENTATION_CONTEXT() REPRESENTATION_CONTEXT('2D SPACE',''
  ) );
#1408 = PCURVE('',#1273,#1409);
#1409 = DEFINITIONAL_REPRESENTATION('',(#1410),#1418);
#1410 = ( BOUNDED_CURVE() B_SPLINE_CURVE(2,(#1411,#1412,#1413,#1414,
#1415,#1416,#1417),.UNSPECIFIED.,.T.,.F.) B_SPLINE_CURVE_WITH_KNOTS((1,2
    ,2,2,2,1),(-2.094395102393,0.,2.094395102393,4.188790204786,
6.28318530718,8.377580409573),.UNSPECIFIED.) CURVE() 
GEOMETRIC_REPRESENTATION_ITEM() RATIONAL_B_SPLINE_CURVE((1.,0.5,1.,0.5,
1.,0.5,1.)) REPRESENTATION_ITEM('') );
#1411 = CARTESIAN_POINT('',(1.4,0.));
#1412 = CARTESIAN_POINT('',(1.4,1.385640646055));
#1413 = CARTESIAN_POINT('',(2.6,0.692820323028));
#1414 = CARTESIAN_POINT('',(3.8,1.959434878636E-16));
#1415 = CARTESIAN_POINT('',(2.6,-0.692820323028));
#1416 = CARTESIAN_POINT('',(1.4,-1.385640646055));
#1417 = CARTESIAN_POINT('',(1.4,0.));
#1418 = ( GEOMETRIC_REPRESENTATION_CONTEXT(2) 
PARAMETRIC_REPRESENTATION_CONTEXT() REPRESENTATION_CONTEXT('2D SPACE',''
  ) );
#1419 = ADVANCED_FACE('',(#1420),#1273,.F.);
#1420 = FACE_BOUND('',#1421,.T.);
#1421 = EDGE_LOOP('',(#1422,#1423,#1424,#1425));
#1422 = ORIENTED_EDGE('',*,*,#1394,.T.);
#1423 = ORIENTED_EDGE('',*,*,#1365,.F.);
#1424 = ORIENTED_EDGE('',*,*,#1313,.T.);
#1425 = ORIENTED_EDGE('',*,*,#1259,.F.);
#1426 = ( GEOMETRIC_REPRESENTATION_CONTEXT(3) 
GLOBAL_UNCERTAINTY_ASSIGNED_CONTEXT((#1430)) 
GLOBAL_UNIT_ASSIGNED_CONTEXT((#1427,#1428,#1429)) REPRESENTATION_CONTEXT
('Context #1','3D Context with UNIT and UNCERTAINTY') );
#1427 = ( LENGTH_UNIT() NAMED_UNIT(*) SI_UNIT(.MILLI.,.METRE.) );
#1428 = ( NAMED_UNIT(*) PLANE_ANGLE_UNIT() SI_UNIT($,.RADIAN.) );
#1429 = ( NAMED_UNIT(*) SI_UNIT($,.STERADIAN.) SOLID_ANGLE_UNIT() );
#1430 = UNCERTAINTY_MEASURE_WITH_UNIT(LENGTH_MEASURE(1.E-07),#1427,
  'distance_accuracy_value','confusion accuracy');
#1431 = CONTEXT_DEPENDENT_SHAPE_REPRESENTATION(#1432,#1434);
#1432 = ( REPRESENTATION_RELATIONSHIP('','',#32,#10) 
REPRESENTATION_RELATIONSHIP_WITH_TRANSFORMATION(#1433) 
SHAPE_REPRESENTATION_RELATIONSHIP() );
#1433 = ITEM_DEFINED_TRANSFORMATION('','',#11,#15);
#1434 = PRODUCT_DEFINITION_SHAPE('Placement','Placement of an item',
  #1435);
#1435 = NEXT_ASSEMBLY_USAGE_OCCURRENCE('107','=>[0:1:1:2]','',#5,#27,$);
#1436 = PRODUCT_RELATED_PRODUCT_CATEGORY('part',$,(#29));
#1437 = MECHANICAL_DESIGN_GEOMETRIC_PRESENTATION_REPRESENTATION('',(
    #1438),#1426);
#1438 = STYLED_ITEM('color',(#1439),#33);
#1439 = PRESENTATION_STYLE_ASSIGNMENT((#1440));
#1440 = SURFACE_STYLE_USAGE(.BOTH.,#1441);
#1441 = SURFACE_SIDE_STYLE('',(#1442));
#1442 = SURFACE_STYLE_FILL_AREA(#1443);
#1443 = FILL_AREA_STYLE('',(#1444));
#1444 = FILL_AREA_STYLE_COLOUR('',#1445);
#1445 = COLOUR_RGB('',0.556999999688,0.235000001234,2.40000002319E-02);

#1446=DESCRIPTIVE_REPRESENTATION_ITEM('cadgen:generator','cadgen');
#1447=REPRESENTATION('cadgen:generator',(#1446),#19);
#1448=PROPERTY_DEFINITION('cadgen metadata','cadgen:generator',#5);
#1449=PROPERTY_DEFINITION_REPRESENTATION(#1448,#1447);
#1450=DESCRIPTIVE_REPRESENTATION_ITEM('cadgen:entryKind','part');
#1451=REPRESENTATION('cadgen:entryKind',(#1450),#19);
#1452=PROPERTY_DEFINITION('cadgen metadata','cadgen:entryKind',#5);
#1453=PROPERTY_DEFINITION_REPRESENTATION(#1452,#1451);
#1454=DESCRIPTIVE_REPRESENTATION_ITEM('cadgen:sourcePath','part_lane_22_cocoa_brown.step.py');
#1455=REPRESENTATION('cadgen:sourcePath',(#1454),#19);
#1456=PROPERTY_DEFINITION('cadgen metadata','cadgen:sourcePath',#5);
#1457=PROPERTY_DEFINITION_REPRESENTATION(#1456,#1455);
#1458=DESCRIPTIVE_REPRESENTATION_ITEM('cadgen:sourceHash','1e0e732059712fccb2451a3bf3d96e952c70c666dcdcad7ce240188bbc57860c');
#1459=REPRESENTATION('cadgen:sourceHash',(#1458),#19);
#1460=PROPERTY_DEFINITION('cadgen metadata','cadgen:sourceHash',#5);
#1461=PROPERTY_DEFINITION_REPRESENTATION(#1460,#1459);
ENDSEC;
END-ISO-10303-21;
