ISO-10303-21;
HEADER;
FILE_DESCRIPTION(('Open CASCADE Model'),'2;1');
FILE_NAME('lane_12_cocoa_brown','1970-01-01T00:00:00',('Author'),(
    'Open CASCADE'),'Open CASCADE STEP processor 7.9','cadgen','Unknown'
  );
FILE_SCHEMA(('AUTOMOTIVE_DESIGN { 1 0 10303 214 1 1 1 1 }'));
ENDSEC;
DATA;
#1 = APPLICATION_PROTOCOL_DEFINITION('international standard',
  'automotive_design',2000,#2);
#2 = APPLICATION_CONTEXT(
  'core data for automotive mechanical design processes');
#3 = SHAPE_DEFINITION_REPRESENTATION(#4,#10);
#4 = PRODUCT_DEFINITION_SHAPE('','',#5);
#5 = PRODUCT_DEFINITION('design','',#6,#9);
#6 = PRODUCT_DEFINITION_FORMATION('','',#7);
#7 = PRODUCT('=>[0:1:1:2]','=>[0:1:1:2]','',(#8));
#8 = PRODUCT_CONTEXT('',#2,'mechanical');
#9 = PRODUCT_DEFINITION_CONTEXT('part definition',#2,'design');
#10 = SHAPE_REPRESENTATION('',(#11,#15),#19);
#11 = AXIS2_PLACEMENT_3D('',#12,#13,#14);
#12 = CARTESIAN_POINT('',(0.,0.,0.));
#13 = DIRECTION('',(0.,0.,1.));
#14 = DIRECTION('',(1.,0.,-0.));
#15 = AXIS2_PLACEMENT_3D('',#16,#17,#18);
#16 = CARTESIAN_POINT('',(0.,0.,8.8));
#17 = DIRECTION('',(0.,-1.224646799147E-16,-1.));
#18 = DIRECTION('',(1.,0.,0.));
#19 = ( GEOMETRIC_REPRESENTATION_CONTEXT(3) 
GLOBAL_UNCERTAINTY_ASSIGNED_CONTEXT((#23)) GLOBAL_UNIT_ASSIGNED_CONTEXT(
(#20,#21,#22)) REPRESENTATION_CONTEXT('Context #1',
  '3D Context with UNIT and UNCERTAINTY') );
#20 = ( LENGTH_UNIT() NAMED_UNIT(*) SI_UNIT(.MILLI.,.METRE.) );
#21 = ( NAMED_UNIT(*) PLANE_ANGLE_UNIT() SI_UNIT($,.RADIAN.) );
#22 = ( NAMED_UNIT(*) SI_UNIT($,.STERADIAN.) SOLID_ANGLE_UNIT() );
#23 = UNCERTAINTY_MEASURE_WITH_UNIT(LENGTH_MEASURE(1.E-07),#20,
  'distance_accuracy_value','confusion accuracy');
#24 = PRODUCT_RELATED_PRODUCT_CATEGORY('part',$,(#7));
#25 = SHAPE_DEFINITION_REPRESENTATION(#26,#32);
#26 = PRODUCT_DEFINITION_SHAPE('','',#27);
#27 = PRODUCT_DEFINITION('design','',#28,#31);
#28 = PRODUCT_DEFINITION_FORMATION('','',#29);
#29 = PRODUCT('lane_12_cocoa_brown','lane_12_cocoa_brown','',(#30));
#30 = PRODUCT_CONTEXT('',#2,'mechanical');
#31 = PRODUCT_DEFINITION_CONTEXT('part definition',#2,'design');
#32 = ADVANCED_BREP_SHAPE_REPRESENTATION('',(#11,#33),#1411);
#33 = MANIFOLD_SOLID_BREP('',#34);
#34 = CLOSED_SHELL('',(#35,#155,#306,#456,#592,#672,#720,#795,#827,#904,
    #1000,#1027,#1179,#1186,#1193,#1269,#1323,#1372,#1404));
#35 = ADVANCED_FACE('',(#36),#50,.F.);
#36 = FACE_BOUND('',#37,.F.);
#37 = EDGE_LOOP('',(#38,#73,#101,#129));
#38 = ORIENTED_EDGE('',*,*,#39,.F.);
#39 = EDGE_CURVE('',#40,#42,#44,.T.);
#40 = VERTEX_POINT('',#41);
#41 = CARTESIAN_POINT('',(11.182263972436,89.151441224754,8.));
#42 = VERTEX_POINT('',#43);
#43 = CARTESIAN_POINT('',(11.182263972436,89.151441224754,8.65));
#44 = SURFACE_CURVE('',#45,(#49,#61),.PCURVE_S1.);
#45 = LINE('',#46,#47);
#46 = CARTESIAN_POINT('',(11.182263972436,89.151441224754,6.));
#47 = VECTOR('',#48,1.);
#48 = DIRECTION('',(0.,0.,1.));
#49 = PCURVE('',#50,#55);
#50 = PLANE('',#51);
#51 = AXIS2_PLACEMENT_3D('',#52,#53,#54);
#52 = CARTESIAN_POINT('',(2.912904355432,26.339418904298,6.));
#53 = DIRECTION('',(-0.991444861374,0.13052619222,0.));
#54 = DIRECTION('',(0.13052619222,0.991444861374,0.));
#55 = DEFINITIONAL_REPRESENTATION('',(#56),#60);
#56 = LINE('',#57,#58);
#57 = CARTESIAN_POINT('',(63.354024785019,0.));
#58 = VECTOR('',#59,1.);
#59 = DIRECTION('',(0.,-1.));
#60 = ( GEOMETRIC_REPRESENTATION_CONTEXT(2) 
PARAMETRIC_REPRESENTATION_CONTEXT() REPRESENTATION_CONTEXT('2D SPACE',''
  ) );
#61 = PCURVE('',#62,#67);
#62 = CYLINDRICAL_SURFACE('',#63,89.850000000002);
#63 = AXIS2_PLACEMENT_3D('',#64,#65,#66);
#64 = CARTESIAN_POINT('',(3.761951393255E-15,-2.145541445957E-12,6.));
#65 = DIRECTION('',(-0.,-0.,-1.));
#66 = DIRECTION('',(0.124454802142,0.992225277961,-0.));
#67 = DEFINITIONAL_REPRESENTATION('',(#68),#72);
#68 = LINE('',#69,#70);
#69 = CARTESIAN_POINT('',(-0.,0.));
#70 = VECTOR('',#71,1.);
#71 = DIRECTION('',(-0.,-1.));
#72 = ( GEOMETRIC_REPRESENTATION_CONTEXT(2) 
PARAMETRIC_REPRESENTATION_CONTEXT() REPRESENTATION_CONTEXT('2D SPACE',''
  ) );
#73 = ORIENTED_EDGE('',*,*,#74,.F.);
#74 = EDGE_CURVE('',#75,#40,#77,.T.);
#75 = VERTEX_POINT('',#76);
#76 = CARTESIAN_POINT('',(2.912904355432,26.339418904298,8.));
#77 = SURFACE_CURVE('',#78,(#82,#89),.PCURVE_S1.);
#78 = LINE('',#79,#80);
#79 = CARTESIAN_POINT('',(-0.545294673756,7.178940572103E-02,8.));
#80 = VECTOR('',#81,1.);
#81 = DIRECTION('',(0.13052619222,0.991444861374,0.));
#82 = PCURVE('',#50,#83);
#83 = DEFINITIONAL_REPRESENTATION('',(#84),#88);
#84 = LINE('',#85,#86);
#85 = CARTESIAN_POINT('',(-26.49429183805,-2.));
#86 = VECTOR('',#87,1.);
#87 = DIRECTION('',(1.,0.));
#88 = ( GEOMETRIC_REPRESENTATION_CONTEXT(2) 
PARAMETRIC_REPRESENTATION_CONTEXT() REPRESENTATION_CONTEXT('2D SPACE',''
  ) );
#89 = PCURVE('',#90,#95);
#90 = PLANE('',#91);
#91 = AXIS2_PLACEMENT_3D('',#92,#93,#94);
#92 = CARTESIAN_POINT('',(-1.14016159058,0.150105121053,6.));
#93 = DIRECTION('',(0.949631948571,-0.125021417818,-0.287347885566));
#94 = DIRECTION('',(0.284889584571,-3.750642534546E-02,0.957826285221));
#95 = DEFINITIONAL_REPRESENTATION('',(#96),#100);
#96 = LINE('',#97,#98);
#97 = CARTESIAN_POINT('',(2.088061301782,0.));
#98 = VECTOR('',#99,1.);
#99 = DIRECTION('',(0.,-1.));
#100 = ( GEOMETRIC_REPRESENTATION_CONTEXT(2) 
PARAMETRIC_REPRESENTATION_CONTEXT() REPRESENTATION_CONTEXT('2D SPACE',''
  ) );
#101 = ORIENTED_EDGE('',*,*,#102,.T.);
#102 = EDGE_CURVE('',#75,#103,#105,.T.);
#103 = VERTEX_POINT('',#104);
#104 = CARTESIAN_POINT('',(2.912904355432,26.339418904298,8.65));
#105 = SURFACE_CURVE('',#106,(#110,#117),.PCURVE_S1.);
#106 = LINE('',#107,#108);
#107 = CARTESIAN_POINT('',(2.912904355432,26.339418904298,6.));
#108 = VECTOR('',#109,1.);
#109 = DIRECTION('',(0.,0.,1.));
#110 = PCURVE('',#50,#111);
#111 = DEFINITIONAL_REPRESENTATION('',(#112),#116);
#112 = LINE('',#113,#114);
#113 = CARTESIAN_POINT('',(3.580284994347E-15,0.));
#114 = VECTOR('',#115,1.);
#115 = DIRECTION('',(0.,-1.));
#116 = ( GEOMETRIC_REPRESENTATION_CONTEXT(2) 
PARAMETRIC_REPRESENTATION_CONTEXT() REPRESENTATION_CONTEXT('2D SPACE',''
  ) );
#117 = PCURVE('',#118,#123);
#118 = CYLINDRICAL_SURFACE('',#119,26.5);
#119 = AXIS2_PLACEMENT_3D('',#120,#121,#122);
#120 = CARTESIAN_POINT('',(2.146610870732E-15,3.064552617765E-13,6.));
#121 = DIRECTION('',(0.,0.,-1.));
#122 = DIRECTION('',(-9.48999291152E-02,0.995486817318,0.));
#123 = DEFINITIONAL_REPRESENTATION('',(#124),#128);
#124 = LINE('',#125,#126);
#125 = CARTESIAN_POINT('',(0.205186440839,0.));
#126 = VECTOR('',#127,1.);
#127 = DIRECTION('',(0.,-1.));
#128 = ( GEOMETRIC_REPRESENTATION_CONTEXT(2) 
PARAMETRIC_REPRESENTATION_CONTEXT() REPRESENTATION_CONTEXT('2D SPACE',''
  ) );
#129 = ORIENTED_EDGE('',*,*,#130,.T.);
#130 = EDGE_CURVE('',#103,#42,#131,.T.);
#131 = SURFACE_CURVE('',#132,(#136,#143),.PCURVE_S1.);
#132 = LINE('',#133,#134);
#133 = CARTESIAN_POINT('',(2.912904355432,26.339418904298,8.65));
#134 = VECTOR('',#135,1.);
#135 = DIRECTION('',(0.13052619222,0.991444861374,0.));
#136 = PCURVE('',#50,#137);
#137 = DEFINITIONAL_REPRESENTATION('',(#138),#142);
#138 = LINE('',#139,#140);
#139 = CARTESIAN_POINT('',(-3.552713678801E-15,-2.65));
#140 = VECTOR('',#141,1.);
#141 = DIRECTION('',(1.,0.));
#142 = ( GEOMETRIC_REPRESENTATION_CONTEXT(2) 
PARAMETRIC_REPRESENTATION_CONTEXT() REPRESENTATION_CONTEXT('2D SPACE',''
  ) );
#143 = PCURVE('',#144,#149);
#144 = CYLINDRICAL_SURFACE('',#145,0.15);
#145 = AXIS2_PLACEMENT_3D('',#146,#147,#148);
#146 = CARTESIAN_POINT('',(2.764187626226,26.358997833131,8.65));
#147 = DIRECTION('',(0.13052619222,0.991444861374,0.));
#148 = DIRECTION('',(0.991444861374,-0.13052619222,-0.));
#149 = DEFINITIONAL_REPRESENTATION('',(#150),#154);
#150 = LINE('',#151,#152);
#151 = CARTESIAN_POINT('',(-0.,0.));
#152 = VECTOR('',#153,1.);
#153 = DIRECTION('',(-0.,1.));
#154 = ( GEOMETRIC_REPRESENTATION_CONTEXT(2) 
PARAMETRIC_REPRESENTATION_CONTEXT() REPRESENTATION_CONTEXT('2D SPACE',''
  ) );
#155 = ADVANCED_FACE('',(#156),#62,.T.);
#156 = FACE_BOUND('',#157,.F.);
#157 = EDGE_LOOP('',(#158,#159,#188,#216,#248,#281));
#158 = ORIENTED_EDGE('',*,*,#39,.T.);
#159 = ORIENTED_EDGE('',*,*,#160,.T.);
#160 = EDGE_CURVE('',#42,#161,#163,.T.);
#161 = VERTEX_POINT('',#162);
#162 = CARTESIAN_POINT('',(-10.78525019795,89.20034124468,8.65));
#163 = SURFACE_CURVE('',#164,(#169,#176),.PCURVE_S1.);
#164 = CIRCLE('',#165,89.850000000002);
#165 = AXIS2_PLACEMENT_3D('',#166,#167,#168);
#166 = CARTESIAN_POINT('',(3.774758283726E-15,-2.145839061996E-12,8.65)
  );
#167 = DIRECTION('',(0.,0.,1.));
#168 = DIRECTION('',(0.124454802142,0.992225277961,-0.));
#169 = PCURVE('',#62,#170);
#170 = DEFINITIONAL_REPRESENTATION('',(#171),#175);
#171 = LINE('',#172,#173);
#172 = CARTESIAN_POINT('',(-0.,-2.65));
#173 = VECTOR('',#174,1.);
#174 = DIRECTION('',(-1.,0.));
#175 = ( GEOMETRIC_REPRESENTATION_CONTEXT(2) 
PARAMETRIC_REPRESENTATION_CONTEXT() REPRESENTATION_CONTEXT('2D SPACE',''
  ) );
#176 = PCURVE('',#177,#182);
#177 = TOROIDAL_SURFACE('',#178,89.700000000002,0.15);
#178 = AXIS2_PLACEMENT_3D('',#179,#180,#181);
#179 = CARTESIAN_POINT('',(3.774758283726E-15,-2.145839061996E-12,8.65)
  );
#180 = DIRECTION('',(0.,0.,1.));
#181 = DIRECTION('',(0.124454802142,0.992225277961,-0.));
#182 = DEFINITIONAL_REPRESENTATION('',(#183),#187);
#183 = LINE('',#184,#185);
#184 = CARTESIAN_POINT('',(0.,0.));
#185 = VECTOR('',#186,1.);
#186 = DIRECTION('',(1.,0.));
#187 = ( GEOMETRIC_REPRESENTATION_CONTEXT(2) 
PARAMETRIC_REPRESENTATION_CONTEXT() REPRESENTATION_CONTEXT('2D SPACE',''
  ) );
#188 = ORIENTED_EDGE('',*,*,#189,.F.);
#189 = EDGE_CURVE('',#190,#161,#192,.T.);
#190 = VERTEX_POINT('',#191);
#191 = CARTESIAN_POINT('',(-10.78525019795,89.20034124468,8.));
#192 = SURFACE_CURVE('',#193,(#197,#204),.PCURVE_S1.);
#193 = LINE('',#194,#195);
#194 = CARTESIAN_POINT('',(-10.78525019795,89.20034124468,6.));
#195 = VECTOR('',#196,1.);
#196 = DIRECTION('',(0.,0.,1.));
#197 = PCURVE('',#62,#198);
#198 = DEFINITIONAL_REPRESENTATION('',(#199),#203);
#199 = LINE('',#200,#201);
#200 = CARTESIAN_POINT('',(-0.245104661743,0.));
#201 = VECTOR('',#202,1.);
#202 = DIRECTION('',(-0.,-1.));
#203 = ( GEOMETRIC_REPRESENTATION_CONTEXT(2) 
PARAMETRIC_REPRESENTATION_CONTEXT() REPRESENTATION_CONTEXT('2D SPACE',''
  ) );
#204 = PCURVE('',#205,#210);
#205 = PLANE('',#206);
#206 = AXIS2_PLACEMENT_3D('',#207,#208,#209);
#207 = CARTESIAN_POINT('',(-10.78525019795,89.20034124468,6.));
#208 = DIRECTION('',(0.991444861374,0.13052619222,-0.));
#209 = DIRECTION('',(0.13052619222,-0.991444861374,0.));
#210 = DEFINITIONAL_REPRESENTATION('',(#211),#215);
#211 = LINE('',#212,#213);
#212 = CARTESIAN_POINT('',(0.,0.));
#213 = VECTOR('',#214,1.);
#214 = DIRECTION('',(0.,-1.));
#215 = ( GEOMETRIC_REPRESENTATION_CONTEXT(2) 
PARAMETRIC_REPRESENTATION_CONTEXT() REPRESENTATION_CONTEXT('2D SPACE',''
  ) );
#216 = ORIENTED_EDGE('',*,*,#217,.T.);
#217 = EDGE_CURVE('',#190,#218,#220,.T.);
#218 = VERTEX_POINT('',#219);
#219 = CARTESIAN_POINT('',(-10.72567808171,89.207523952229,7.8));
#220 = SURFACE_CURVE('',#221,(#226,#236),.PCURVE_S1.);
#221 = ELLIPSE('',#222,312.68717994187,89.850000000002);
#222 = AXIS2_PLACEMENT_3D('',#223,#224,#225);
#223 = CARTESIAN_POINT('',(3.761951393255E-15,-2.145541445957E-12,
    11.166666666668));
#224 = DIRECTION('',(-0.949631948571,-0.125021417818,-0.287347885566));
#225 = DIRECTION('',(0.284889584571,3.750642534546E-02,-0.957826285221)
  );
#226 = PCURVE('',#62,#227);
#227 = DEFINITIONAL_REPRESENTATION('',(#228),#235);
#228 = B_SPLINE_CURVE_WITH_KNOTS('',5,(#229,#230,#231,#232,#233,#234),
  .UNSPECIFIED.,.F.,.F.,(6,6),(4.722962354912,4.723630176285),
  .PIECEWISE_BEZIER_KNOTS.);
#229 = CARTESIAN_POINT('',(-0.245104661743,-2.));
#230 = CARTESIAN_POINT('',(-0.244971097468,-1.959999735798));
#231 = CARTESIAN_POINT('',(-0.244837533194,-1.919999542211));
#232 = CARTESIAN_POINT('',(-0.244703968919,-1.879999420723));
#233 = CARTESIAN_POINT('',(-0.244570404644,-1.839999372825));
#234 = CARTESIAN_POINT('',(-0.24443684037,-1.7999994));
#235 = ( GEOMETRIC_REPRESENTATION_CONTEXT(2) 
PARAMETRIC_REPRESENTATION_CONTEXT() REPRESENTATION_CONTEXT('2D SPACE',''
  ) );
#236 = PCURVE('',#237,#242);
#237 = PLANE('',#238);
#238 = AXIS2_PLACEMENT_3D('',#239,#240,#241);
#239 = CARTESIAN_POINT('',(0.941872618305,0.123999882609,8.));
#240 = DIRECTION('',(-0.949631948571,-0.125021417818,-0.287347885566));
#241 = DIRECTION('',(0.284889584571,3.750642534546E-02,-0.957826285221)
  );
#242 = DEFINITIONAL_REPRESENTATION('',(#243),#247);
#243 = ELLIPSE('',#244,312.68717994187,89.850000000002);
#244 = AXIS2_PLACEMENT_2D('',#245,#246);
#245 = CARTESIAN_POINT('',(-3.306097061156,2.12768187311E-12));
#246 = DIRECTION('',(1.,1.225204842261E-18));
#247 = ( GEOMETRIC_REPRESENTATION_CONTEXT(2) 
PARAMETRIC_REPRESENTATION_CONTEXT() REPRESENTATION_CONTEXT('2D SPACE',''
  ) );
#248 = ORIENTED_EDGE('',*,*,#249,.T.);
#249 = EDGE_CURVE('',#218,#250,#252,.T.);
#250 = VERTEX_POINT('',#251);
#251 = CARTESIAN_POINT('',(11.122726725312,89.158888789587,7.8));
#252 = SURFACE_CURVE('',#253,(#258,#265),.PCURVE_S1.);
#253 = CIRCLE('',#254,89.850000000002);
#254 = AXIS2_PLACEMENT_3D('',#255,#256,#257);
#255 = CARTESIAN_POINT('',(3.761951393255E-15,-2.145541445957E-12,7.8));
#256 = DIRECTION('',(0.,-0.,-1.));
#257 = DIRECTION('',(0.124454802142,0.992225277961,-0.));
#258 = PCURVE('',#62,#259);
#259 = DEFINITIONAL_REPRESENTATION('',(#260),#264);
#260 = LINE('',#261,#262);
#261 = CARTESIAN_POINT('',(-6.28318530718,-1.8));
#262 = VECTOR('',#263,1.);
#263 = DIRECTION('',(1.,-0.));
#264 = ( GEOMETRIC_REPRESENTATION_CONTEXT(2) 
PARAMETRIC_REPRESENTATION_CONTEXT() REPRESENTATION_CONTEXT('2D SPACE',''
  ) );
#265 = PCURVE('',#266,#271);
#266 = PLANE('',#267);
#267 = AXIS2_PLACEMENT_3D('',#268,#269,#270);
#268 = CARTESIAN_POINT('',(0.,0.,7.8));
#269 = DIRECTION('',(0.,0.,1.));
#270 = DIRECTION('',(1.,0.,-0.));
#271 = DEFINITIONAL_REPRESENTATION('',(#272),#280);
#272 = ( BOUNDED_CURVE() B_SPLINE_CURVE(2,(#273,#274,#275,#276,#277,#278
,#279),.UNSPECIFIED.,.T.,.F.) B_SPLINE_CURVE_WITH_KNOTS((1,2,2,2,2,1),(
    -2.094395102393,0.,2.094395102393,4.188790204786,6.28318530718,
8.377580409573),.UNSPECIFIED.) CURVE() GEOMETRIC_REPRESENTATION_ITEM() 
RATIONAL_B_SPLINE_CURVE((1.,0.5,1.,0.5,1.,0.5,1.)) REPRESENTATION_ITEM(
  '') );
#273 = CARTESIAN_POINT('',(11.182263972436,89.151441224754));
#274 = CARTESIAN_POINT('',(165.5970897417,69.783191880848));
#275 = CARTESIAN_POINT('',(71.616280898416,-54.25984528433));
#276 = CARTESIAN_POINT('',(-22.36452794487,-178.3028824495));
#277 = CARTESIAN_POINT('',(-82.79854487085,-34.89159594042));
#278 = CARTESIAN_POINT('',(-143.2325617968,108.51969056865));
#279 = CARTESIAN_POINT('',(11.182263972436,89.151441224754));
#280 = ( GEOMETRIC_REPRESENTATION_CONTEXT(2) 
PARAMETRIC_REPRESENTATION_CONTEXT() REPRESENTATION_CONTEXT('2D SPACE',''
  ) );
#281 = ORIENTED_EDGE('',*,*,#282,.T.);
#282 = EDGE_CURVE('',#250,#40,#283,.T.);
#283 = SURFACE_CURVE('',#284,(#289,#299),.PCURVE_S1.);
#284 = ELLIPSE('',#285,312.68717994187,89.850000000002);
#285 = AXIS2_PLACEMENT_3D('',#286,#287,#288);
#286 = CARTESIAN_POINT('',(3.761951393255E-15,-2.145541445957E-12,
    9.833333333334));
#287 = DIRECTION('',(0.949631948571,-0.125021417818,-0.287347885566));
#288 = DIRECTION('',(-0.284889584571,3.750642534546E-02,-0.957826285221)
  );
#289 = PCURVE('',#62,#290);
#290 = DEFINITIONAL_REPRESENTATION('',(#291),#298);
#291 = B_SPLINE_CURVE_WITH_KNOTS('',5,(#292,#293,#294,#295,#296,#297),
  .UNSPECIFIED.,.F.,.F.,(6,6),(1.564007179704,1.564674975266),
  .PIECEWISE_BEZIER_KNOTS.);
#292 = CARTESIAN_POINT('',(-6.677955620217E-04,-1.7999994));
#293 = CARTESIAN_POINT('',(-5.342364496174E-04,-1.839999432296));
#294 = CARTESIAN_POINT('',(-4.00677337213E-04,-1.879999509931));
#295 = CARTESIAN_POINT('',(-2.671182248081E-04,-1.919999631418));
#296 = CARTESIAN_POINT('',(-1.335591124044E-04,-1.959999795269));
#297 = CARTESIAN_POINT('',(0.,-2.));
#298 = ( GEOMETRIC_REPRESENTATION_CONTEXT(2) 
PARAMETRIC_REPRESENTATION_CONTEXT() REPRESENTATION_CONTEXT('2D SPACE',''
  ) );
#299 = PCURVE('',#90,#300);
#300 = DEFINITIONAL_REPRESENTATION('',(#301),#305);
#301 = ELLIPSE('',#302,312.68717994187,89.850000000002);
#302 = AXIS2_PLACEMENT_2D('',#303,#304);
#303 = CARTESIAN_POINT('',(4.002117495083,2.126671377411E-12));
#304 = DIRECTION('',(-1.,4.791961561276E-18));
#305 = ( GEOMETRIC_REPRESENTATION_CONTEXT(2) 
PARAMETRIC_REPRESENTATION_CONTEXT() REPRESENTATION_CONTEXT('2D SPACE',''
  ) );
#306 = ADVANCED_FACE('',(#307),#144,.T.);
#307 = FACE_BOUND('',#308,.F.);
#308 = EDGE_LOOP('',(#309,#379,#407,#455));
#309 = ORIENTED_EDGE('',*,*,#310,.T.);
#310 = EDGE_CURVE('',#103,#311,#313,.T.);
#311 = VERTEX_POINT('',#312);
#312 = CARTESIAN_POINT('',(2.783311453295,26.504257721241,8.8));
#313 = SURFACE_CURVE('',#314,(#332,#353),.PCURVE_S1.);
#314 = B_SPLINE_CURVE_WITH_KNOTS('',6,(#315,#316,#317,#318,#319,#320,
    #321,#322,#323,#324,#325,#326,#327,#328,#329,#330,#331),
  .UNSPECIFIED.,.F.,.F.,(7,5,5,7),(0.,0.497959770924,0.939321238984,1.),
  .UNSPECIFIED.);
#315 = CARTESIAN_POINT('',(2.912904355432,26.339418904298,8.65));
#316 = CARTESIAN_POINT('',(2.912904355432,26.339418904298,8.669658137593
    ));
#317 = CARTESIAN_POINT('',(2.910234547202,26.342824489425,8.68931763077)
  );
#318 = CARTESIAN_POINT('',(2.904893915753,26.349636993874,8.708354545859
    ));
#319 = CARTESIAN_POINT('',(2.897034890335,26.359658843407,8.726149631735
    ));
#320 = CARTESIAN_POINT('',(2.886948063243,26.37251366272,8.742170062613)
  );
#321 = CARTESIAN_POINT('',(2.864430852369,26.401188643705,8.768267468245
    ));
#322 = CARTESIAN_POINT('',(2.852396608273,26.41650639801,8.778813865274)
  );
#323 = CARTESIAN_POINT('',(2.83917010697,26.43333101518,8.787358084818)
  );
#324 = CARTESIAN_POINT('',(2.825064784819,26.451260041384,8.793692553212
    ));
#325 = CARTESIAN_POINT('',(2.810421773362,26.469857397444,8.797693488694
    ));
#326 = CARTESIAN_POINT('',(2.793546274925,26.491273331177,8.799550612663
    ));
#327 = CARTESIAN_POINT('',(2.791502991914,26.493866097907,8.799730304999
    ));
#328 = CARTESIAN_POINT('',(2.789456965865,26.496462062035,8.799865136596
    ));
#329 = CARTESIAN_POINT('',(2.787409097125,26.499060080099,8.799955045319
    ));
#330 = CARTESIAN_POINT('',(2.785360292402,26.501659011807,8.799999999913
    ));
#331 = CARTESIAN_POINT('',(2.783311464761,26.504257720037,8.8));
#332 = PCURVE('',#144,#333);
#333 = DEFINITIONAL_REPRESENTATION('',(#334),#352);
#334 = B_SPLINE_CURVE_WITH_KNOTS('',6,(#335,#336,#337,#338,#339,#340,
    #341,#342,#343,#344,#345,#346,#347,#348,#349,#350,#351),
  .UNSPECIFIED.,.F.,.F.,(7,5,5,7),(0.,0.497959770924,0.939321238984,1.),
  .UNSPECIFIED.);
#335 = CARTESIAN_POINT('',(0.,0.));
#336 = CARTESIAN_POINT('',(-0.131054250619,0.));
#337 = CARTESIAN_POINT('',(-0.262117686181,3.02796997178E-03));
#338 = CARTESIAN_POINT('',(-0.39308126644,9.08510021375E-03));
#339 = CARTESIAN_POINT('',(-0.523875232959,1.799540277215E-02));
#340 = CARTESIAN_POINT('',(-0.654460953753,2.942365219208E-02));
#341 = CARTESIAN_POINT('',(-0.900368289286,5.491422894451E-02));
#342 = CARTESIAN_POINT('',(-1.015743397057,6.853015367984E-02));
#343 = CARTESIAN_POINT('',(-1.130953429942,8.348442906624E-02));
#344 = CARTESIAN_POINT('',(-1.24602777793,9.941895597588E-02));
#345 = CARTESIAN_POINT('',(-1.361014321228,0.115945912548));
#346 = CARTESIAN_POINT('',(-1.491778197164,0.134975935447));
#347 = CARTESIAN_POINT('',(-1.507582322446,0.137279818746));
#348 = CARTESIAN_POINT('',(-1.523386059138,0.139586514052));
#349 = CARTESIAN_POINT('',(-1.539189553297,0.141895005202));
#350 = CARTESIAN_POINT('',(-1.554992921323,0.14420428001));
#351 = CARTESIAN_POINT('',(-1.570796249965,0.146513330261));
#352 = ( GEOMETRIC_REPRESENTATION_CONTEXT(2) 
PARAMETRIC_REPRESENTATION_CONTEXT() REPRESENTATION_CONTEXT('2D SPACE',''
  ) );
#353 = PCURVE('',#354,#359);
#354 = TOROIDAL_SURFACE('',#355,26.65,0.15);
#355 = AXIS2_PLACEMENT_3D('',#356,#357,#358);
#356 = CARTESIAN_POINT('',(2.137179322403E-15,3.055333763768E-13,8.65));
#357 = DIRECTION('',(0.,0.,1.));
#358 = DIRECTION('',(-9.48999291152E-02,0.995486817318,0.));
#359 = DEFINITIONAL_REPRESENTATION('',(#360),#378);
#360 = B_SPLINE_CURVE_WITH_KNOTS('',6,(#361,#362,#363,#364,#365,#366,
    #367,#368,#369,#370,#371,#372,#373,#374,#375,#376,#377),
  .UNSPECIFIED.,.F.,.F.,(7,5,5,7),(0.,0.497959770924,0.939321238984,1.),
  .UNSPECIFIED.);
#361 = CARTESIAN_POINT('',(-0.205186440839,3.14159265359));
#362 = CARTESIAN_POINT('',(-0.205186440839,3.010538402971));
#363 = CARTESIAN_POINT('',(-0.205072178018,2.879474967409));
#364 = CARTESIAN_POINT('',(-0.204843606131,2.74851138715));
#365 = CARTESIAN_POINT('',(-0.204507470618,2.617717420631));
#366 = CARTESIAN_POINT('',(-0.204076610897,2.487131699836));
#367 = CARTESIAN_POINT('',(-0.20311629223,2.241224364304));
#368 = CARTESIAN_POINT('',(-0.202603582131,2.125849256533));
#369 = CARTESIAN_POINT('',(-0.202040832193,2.010639223648));
#370 = CARTESIAN_POINT('',(-0.201441642617,1.89556487566));
#371 = CARTESIAN_POINT('',(-0.200820678557,1.780578332362));
#372 = CARTESIAN_POINT('',(-0.200106225663,1.649814456426));
#373 = CARTESIAN_POINT('',(-0.200019739238,1.634010306327));
#374 = CARTESIAN_POINT('',(-0.199933156276,1.618206579795));
#375 = CARTESIAN_POINT('',(-0.199846514958,1.602403130541));
#376 = CARTESIAN_POINT('',(-0.199759853635,1.586599781891));
#377 = CARTESIAN_POINT('',(-0.199673210829,1.570796326795));
#378 = ( GEOMETRIC_REPRESENTATION_CONTEXT(2) 
PARAMETRIC_REPRESENTATION_CONTEXT() REPRESENTATION_CONTEXT('2D SPACE',''
  ) );
#379 = ORIENTED_EDGE('',*,*,#380,.T.);
#380 = EDGE_CURVE('',#311,#381,#383,.T.);
#381 = VERTEX_POINT('',#382);
#382 = CARTESIAN_POINT('',(11.013831524082,89.021264398789,8.8));
#383 = SURFACE_CURVE('',#384,(#388,#395),.PCURVE_S1.);
#384 = LINE('',#385,#386);
#385 = CARTESIAN_POINT('',(2.764187626226,26.358997833131,8.8));
#386 = VECTOR('',#387,1.);
#387 = DIRECTION('',(0.13052619222,0.991444861374,0.));
#388 = PCURVE('',#144,#389);
#389 = DEFINITIONAL_REPRESENTATION('',(#390),#394);
#390 = LINE('',#391,#392);
#391 = CARTESIAN_POINT('',(-1.570796326795,0.));
#392 = VECTOR('',#393,1.);
#393 = DIRECTION('',(-0.,1.));
#394 = ( GEOMETRIC_REPRESENTATION_CONTEXT(2) 
PARAMETRIC_REPRESENTATION_CONTEXT() REPRESENTATION_CONTEXT('2D SPACE',''
  ) );
#395 = PCURVE('',#396,#401);
#396 = PLANE('',#397);
#397 = AXIS2_PLACEMENT_3D('',#398,#399,#400);
#398 = CARTESIAN_POINT('',(0.198533587976,61.20561623141,8.8));
#399 = DIRECTION('',(0.,0.,1.));
#400 = DIRECTION('',(1.,0.,-0.));
#401 = DEFINITIONAL_REPRESENTATION('',(#402),#406);
#402 = LINE('',#403,#404);
#403 = CARTESIAN_POINT('',(2.56565403825,-34.84661839827));
#404 = VECTOR('',#405,1.);
#405 = DIRECTION('',(0.13052619222,0.991444861374));
#406 = ( GEOMETRIC_REPRESENTATION_CONTEXT(2) 
PARAMETRIC_REPRESENTATION_CONTEXT() REPRESENTATION_CONTEXT('2D SPACE',''
  ) );
#407 = ORIENTED_EDGE('',*,*,#408,.F.);
#408 = EDGE_CURVE('',#42,#381,#409,.T.);
#409 = SURFACE_CURVE('',#410,(#423,#439),.PCURVE_S1.);
#410 = B_SPLINE_CURVE_WITH_KNOTS('',6,(#411,#412,#413,#414,#415,#416,
    #417,#418,#419,#420,#421,#422),.UNSPECIFIED.,.F.,.F.,(7,5,7),(0.,
    0.499848438347,1.),.UNSPECIFIED.);
#411 = CARTESIAN_POINT('',(11.182263972433,89.151441224754,8.65));
#412 = CARTESIAN_POINT('',(11.182263972433,89.151441224754,
    8.669739262334));
#413 = CARTESIAN_POINT('',(11.178764233303,89.148738720506,
    8.689479960386));
#414 = CARTESIAN_POINT('',(11.171763344458,89.143332632214,
    8.708589539064));
#415 = CARTESIAN_POINT('',(11.161464189173,89.135378864015,
    8.726440399025));
#416 = CARTESIAN_POINT('',(11.148252731556,89.125174070177,
    8.742494297057));
#417 = CARTESIAN_POINT('',(11.116995057035,89.101024497202,
    8.770189876762));
#418 = CARTESIAN_POINT('',(11.098945036167,89.087076782287,
    8.781829951314));
#419 = CARTESIAN_POINT('',(11.078976861211,89.071643383281,
    8.790844052493));
#420 = CARTESIAN_POINT('',(11.057697671525,89.055192239292,
    8.796948779578));
#421 = CARTESIAN_POINT('',(11.035765534133,89.038231336246,
    8.799999757047));
#422 = CARTESIAN_POINT('',(11.013831524082,89.021264398789,8.8));
#423 = PCURVE('',#144,#424);
#424 = DEFINITIONAL_REPRESENTATION('',(#425),#438);
#425 = B_SPLINE_CURVE_WITH_KNOTS('',6,(#426,#427,#428,#429,#430,#431,
    #432,#433,#434,#435,#436,#437),.UNSPECIFIED.,.F.,.F.,(7,5,7),(0.,
    0.499848438347,1.),.UNSPECIFIED.);
#426 = CARTESIAN_POINT('',(0.,63.354024785019));
#427 = CARTESIAN_POINT('',(-0.131595082227,63.354024785019));
#428 = CARTESIAN_POINT('',(-0.26319988843,63.350888593446));
#429 = CARTESIAN_POINT('',(-0.394698231901,63.344614955626));
#430 = CARTESIAN_POINT('',(-0.526015421008,63.335384923494));
#431 = CARTESIAN_POINT('',(-0.657109781494,63.323542991826));
#432 = CARTESIAN_POINT('',(-0.918898962722,63.295520076562));
#433 = CARTESIAN_POINT('',(-1.049600127644,63.279335685789));
#434 = CARTESIAN_POINT('',(-1.18007657174,63.261427951808));
#435 = CARTESIAN_POINT('',(-1.310378347942,63.242340058033));
#436 = CARTESIAN_POINT('',(-1.440585490725,63.222661539483));
#437 = CARTESIAN_POINT('',(-1.570796326795,63.202976793716));
#438 = ( GEOMETRIC_REPRESENTATION_CONTEXT(2) 
PARAMETRIC_REPRESENTATION_CONTEXT() REPRESENTATION_CONTEXT('2D SPACE',''
  ) );
#439 = PCURVE('',#177,#440);
#440 = DEFINITIONAL_REPRESENTATION('',(#441),#454);
#441 = B_SPLINE_CURVE_WITH_KNOTS('',6,(#442,#443,#444,#445,#446,#447,
    #448,#449,#450,#451,#452,#453),.UNSPECIFIED.,.F.,.F.,(7,5,7),(0.,
    0.499848438347,1.),.UNSPECIFIED.);
#442 = CARTESIAN_POINT('',(3.37507799486E-14,0.));
#443 = CARTESIAN_POINT('',(3.37507799486E-14,0.131595082227));
#444 = CARTESIAN_POINT('',(3.490476475676E-05,0.263199888429));
#445 = CARTESIAN_POINT('',(1.047281424462E-04,0.394698231902));
#446 = CARTESIAN_POINT('',(2.074645541699E-04,0.526015421007));
#447 = CARTESIAN_POINT('',(3.392971293863E-04,0.657109781494));
#448 = CARTESIAN_POINT('',(6.513361882021E-04,0.918898962722));
#449 = CARTESIAN_POINT('',(8.315805724166E-04,1.049600127644));
#450 = CARTESIAN_POINT('',(1.03106089072E-03,1.18007657174));
#451 = CARTESIAN_POINT('',(1.243742834543E-03,1.310378347942));
#452 = CARTESIAN_POINT('',(1.46306726996E-03,1.440585490725));
#453 = CARTESIAN_POINT('',(1.682518093342E-03,1.570796326795));
#454 = ( GEOMETRIC_REPRESENTATION_CONTEXT(2) 
PARAMETRIC_REPRESENTATION_CONTEXT() REPRESENTATION_CONTEXT('2D SPACE',''
  ) );
#455 = ORIENTED_EDGE('',*,*,#130,.F.);
#456 = ADVANCED_FACE('',(#457),#118,.F.);
#457 = FACE_BOUND('',#458,.F.);
#458 = EDGE_LOOP('',(#459,#488,#511,#533,#534,#561));
#459 = ORIENTED_EDGE('',*,*,#460,.F.);
#460 = EDGE_CURVE('',#461,#463,#465,.T.);
#461 = VERTEX_POINT('',#462);
#462 = CARTESIAN_POINT('',(-2.514848121553,26.380400658927,8.));
#463 = VERTEX_POINT('',#464);
#464 = CARTESIAN_POINT('',(-1.916282712566,26.430623537206,6.));
#465 = SURFACE_CURVE('',#466,(#471,#481),.PCURVE_S1.);
#466 = ELLIPSE('',#467,92.222707495375,26.5);
#467 = AXIS2_PLACEMENT_3D('',#468,#469,#470);
#468 = CARTESIAN_POINT('',(2.146610870732E-15,3.064552617765E-13,
    11.166666666667));
#469 = DIRECTION('',(-0.949631948571,-0.125021417818,-0.287347885566));
#470 = DIRECTION('',(0.284889584571,3.750642534546E-02,-0.957826285221)
  );
#471 = PCURVE('',#118,#472);
#472 = DEFINITIONAL_REPRESENTATION('',(#473),#480);
#473 = B_SPLINE_CURVE_WITH_KNOTS('',5,(#474,#475,#476,#477,#478,#479),
  .UNSPECIFIED.,.F.,.F.,(6,6),(4.748245720031,4.770912955473),
  .PIECEWISE_BEZIER_KNOTS.);
#474 = CARTESIAN_POINT('',(0.,-2.));
#475 = CARTESIAN_POINT('',(4.533447088412E-03,-1.599802912937));
#476 = CARTESIAN_POINT('',(9.066894176823E-03,-1.199687178105));
#477 = CARTESIAN_POINT('',(1.360034126524E-02,-0.799669930728));
#478 = CARTESIAN_POINT('',(1.813378835365E-02,-0.399768299063));
#479 = CARTESIAN_POINT('',(2.266723544206E-02,5.999999856954E-07));
#480 = ( GEOMETRIC_REPRESENTATION_CONTEXT(2) 
PARAMETRIC_REPRESENTATION_CONTEXT() REPRESENTATION_CONTEXT('2D SPACE',''
  ) );
#481 = PCURVE('',#237,#482);
#482 = DEFINITIONAL_REPRESENTATION('',(#483),#487);
#483 = ELLIPSE('',#484,92.222707495375,26.5);
#484 = AXIS2_PLACEMENT_2D('',#485,#486);
#485 = CARTESIAN_POINT('',(-3.306097061155,-3.035630981119E-13));
#486 = DIRECTION('',(1.,1.225204842261E-18));
#487 = ( GEOMETRIC_REPRESENTATION_CONTEXT(2) 
PARAMETRIC_REPRESENTATION_CONTEXT() REPRESENTATION_CONTEXT('2D SPACE',''
  ) );
#488 = ORIENTED_EDGE('',*,*,#489,.T.);
#489 = EDGE_CURVE('',#461,#490,#492,.T.);
#490 = VERTEX_POINT('',#491);
#491 = CARTESIAN_POINT('',(-2.514848121553,26.380400658927,8.65));
#492 = SURFACE_CURVE('',#493,(#497,#504),.PCURVE_S1.);
#493 = LINE('',#494,#495);
#494 = CARTESIAN_POINT('',(-2.514848121553,26.380400658927,6.));
#495 = VECTOR('',#496,1.);
#496 = DIRECTION('',(0.,0.,1.));
#497 = PCURVE('',#118,#498);
#498 = DEFINITIONAL_REPRESENTATION('',(#499),#503);
#499 = LINE('',#500,#501);
#500 = CARTESIAN_POINT('',(0.,0.));
#501 = VECTOR('',#502,1.);
#502 = DIRECTION('',(0.,-1.));
#503 = ( GEOMETRIC_REPRESENTATION_CONTEXT(2) 
PARAMETRIC_REPRESENTATION_CONTEXT() REPRESENTATION_CONTEXT('2D SPACE',''
  ) );
#504 = PCURVE('',#205,#505);
#505 = DEFINITIONAL_REPRESENTATION('',(#506),#510);
#506 = LINE('',#507,#508);
#507 = CARTESIAN_POINT('',(63.362011376715,0.));
#508 = VECTOR('',#509,1.);
#509 = DIRECTION('',(0.,-1.));
#510 = ( GEOMETRIC_REPRESENTATION_CONTEXT(2) 
PARAMETRIC_REPRESENTATION_CONTEXT() REPRESENTATION_CONTEXT('2D SPACE',''
  ) );
#511 = ORIENTED_EDGE('',*,*,#512,.T.);
#512 = EDGE_CURVE('',#490,#103,#513,.T.);
#513 = SURFACE_CURVE('',#514,(#519,#526),.PCURVE_S1.);
#514 = CIRCLE('',#515,26.5);
#515 = AXIS2_PLACEMENT_3D('',#516,#517,#518);
#516 = CARTESIAN_POINT('',(2.137179322403E-15,3.055333763768E-13,8.65));
#517 = DIRECTION('',(-0.,0.,-1.));
#518 = DIRECTION('',(-9.48999291152E-02,0.995486817318,0.));
#519 = PCURVE('',#118,#520);
#520 = DEFINITIONAL_REPRESENTATION('',(#521),#525);
#521 = LINE('',#522,#523);
#522 = CARTESIAN_POINT('',(0.,-2.65));
#523 = VECTOR('',#524,1.);
#524 = DIRECTION('',(1.,0.));
#525 = ( GEOMETRIC_REPRESENTATION_CONTEXT(2) 
PARAMETRIC_REPRESENTATION_CONTEXT() REPRESENTATION_CONTEXT('2D SPACE',''
  ) );
#526 = PCURVE('',#354,#527);
#527 = DEFINITIONAL_REPRESENTATION('',(#528),#532);
#528 = LINE('',#529,#530);
#529 = CARTESIAN_POINT('',(-0.,3.14159265359));
#530 = VECTOR('',#531,1.);
#531 = DIRECTION('',(-1.,0.));
#532 = ( GEOMETRIC_REPRESENTATION_CONTEXT(2) 
PARAMETRIC_REPRESENTATION_CONTEXT() REPRESENTATION_CONTEXT('2D SPACE',''
  ) );
#533 = ORIENTED_EDGE('',*,*,#102,.F.);
#534 = ORIENTED_EDGE('',*,*,#535,.F.);
#535 = EDGE_CURVE('',#536,#75,#538,.T.);
#536 = VERTEX_POINT('',#537);
#537 = CARTESIAN_POINT('',(2.315523970476,26.398642933722,6.));
#538 = SURFACE_CURVE('',#539,(#544,#554),.PCURVE_S1.);
#539 = ELLIPSE('',#540,92.222707495376,26.5);
#540 = AXIS2_PLACEMENT_3D('',#541,#542,#543);
#541 = CARTESIAN_POINT('',(2.146610870732E-15,3.064552617765E-13,
    9.833333333333));
#542 = DIRECTION('',(0.949631948571,-0.125021417818,-0.287347885566));
#543 = DIRECTION('',(-0.284889584571,3.750642534546E-02,-0.957826285221)
  );
#544 = PCURVE('',#118,#545);
#545 = DEFINITIONAL_REPRESENTATION('',(#546),#553);
#546 = B_SPLINE_CURVE_WITH_KNOTS('',5,(#547,#548,#549,#550,#551,#552),
  .UNSPECIFIED.,.F.,.F.,(6,6),(1.527386461161,1.550040119481),
  .PIECEWISE_BEZIER_KNOTS.);
#547 = CARTESIAN_POINT('',(0.182532782519,6.000000016826E-07));
#548 = CARTESIAN_POINT('',(0.187063514183,-0.399837004007));
#549 = CARTESIAN_POINT('',(0.191594245847,-0.799772969107));
#550 = CARTESIAN_POINT('',(0.196124977511,-1.199790195972));
#551 = CARTESIAN_POINT('',(0.200655709175,-1.599871576859));
#552 = CARTESIAN_POINT('',(0.205186440839,-2.));
#553 = ( GEOMETRIC_REPRESENTATION_CONTEXT(2) 
PARAMETRIC_REPRESENTATION_CONTEXT() REPRESENTATION_CONTEXT('2D SPACE',''
  ) );
#554 = PCURVE('',#90,#555);
#555 = DEFINITIONAL_REPRESENTATION('',(#556),#560);
#556 = ELLIPSE('',#557,92.222707495376,26.5);
#557 = AXIS2_PLACEMENT_2D('',#558,#559);
#558 = CARTESIAN_POINT('',(4.002117495082,-3.041255900017E-13));
#559 = DIRECTION('',(-1.,4.791961561276E-18));
#560 = ( GEOMETRIC_REPRESENTATION_CONTEXT(2) 
PARAMETRIC_REPRESENTATION_CONTEXT() REPRESENTATION_CONTEXT('2D SPACE',''
  ) );
#561 = ORIENTED_EDGE('',*,*,#562,.F.);
#562 = EDGE_CURVE('',#463,#536,#563,.T.);
#563 = SURFACE_CURVE('',#564,(#569,#576),.PCURVE_S1.);
#564 = CIRCLE('',#565,26.5);
#565 = AXIS2_PLACEMENT_3D('',#566,#567,#568);
#566 = CARTESIAN_POINT('',(2.146610870732E-15,3.064552617765E-13,6.));
#567 = DIRECTION('',(0.,0.,-1.));
#568 = DIRECTION('',(-9.48999291152E-02,0.995486817318,0.));
#569 = PCURVE('',#118,#570);
#570 = DEFINITIONAL_REPRESENTATION('',(#571),#575);
#571 = LINE('',#572,#573);
#572 = CARTESIAN_POINT('',(0.,0.));
#573 = VECTOR('',#574,1.);
#574 = DIRECTION('',(1.,0.));
#575 = ( GEOMETRIC_REPRESENTATION_CONTEXT(2) 
PARAMETRIC_REPRESENTATION_CONTEXT() REPRESENTATION_CONTEXT('2D SPACE',''
  ) );
#576 = PCURVE('',#577,#582);
#577 = PLANE('',#578);
#578 = AXIS2_PLACEMENT_3D('',#579,#580,#581);
#579 = CARTESIAN_POINT('',(0.198533587976,61.20561623141,6.));
#580 = DIRECTION('',(0.,0.,1.));
#581 = DIRECTION('',(1.,0.,-0.));
#582 = DEFINITIONAL_REPRESENTATION('',(#583),#591);
#583 = ( BOUNDED_CURVE() B_SPLINE_CURVE(2,(#584,#585,#586,#587,#588,#589
,#590),.UNSPECIFIED.,.T.,.F.) B_SPLINE_CURVE_WITH_KNOTS((1,2,2,2,2,1),(
    -2.094395102393,0.,2.094395102393,4.188790204786,6.28318530718,
8.377580409573),.UNSPECIFIED.) CURVE() GEOMETRIC_REPRESENTATION_ITEM() 
RATIONAL_B_SPLINE_CURVE((1.,0.5,1.,0.5,1.,0.5,1.)) REPRESENTATION_ITEM(
  '') );
#584 = CARTESIAN_POINT('',(-2.713381709529,-34.82521557248));
#585 = CARTESIAN_POINT('',(42.978812555756,-30.46937085263));
#586 = CARTESIAN_POINT('',(23.904987605443,-72.21789420094));
#587 = CARTESIAN_POINT('',(4.83116265513,-113.9664175492));
#588 = CARTESIAN_POINT('',(-21.78720665984,-76.57373892079));
#589 = CARTESIAN_POINT('',(-48.40557597481,-39.18106029233));
#590 = CARTESIAN_POINT('',(-2.713381709529,-34.82521557248));
#591 = ( GEOMETRIC_REPRESENTATION_CONTEXT(2) 
PARAMETRIC_REPRESENTATION_CONTEXT() REPRESENTATION_CONTEXT('2D SPACE',''
  ) );
#592 = ADVANCED_FACE('',(#593),#90,.T.);
#593 = FACE_BOUND('',#594,.T.);
#594 = EDGE_LOOP('',(#595,#596,#619,#651,#670,#671));
#595 = ORIENTED_EDGE('',*,*,#535,.F.);
#596 = ORIENTED_EDGE('',*,*,#597,.T.);
#597 = EDGE_CURVE('',#536,#598,#600,.T.);
#598 = VERTEX_POINT('',#599);
#599 = CARTESIAN_POINT('',(9.868699433843,83.770706523727,6.));
#600 = SURFACE_CURVE('',#601,(#605,#612),.PCURVE_S1.);
#601 = LINE('',#602,#603);
#602 = CARTESIAN_POINT('',(-1.14016159058,0.150105121053,6.));
#603 = VECTOR('',#604,1.);
#604 = DIRECTION('',(0.13052619222,0.991444861374,0.));
#605 = PCURVE('',#90,#606);
#606 = DEFINITIONAL_REPRESENTATION('',(#607),#611);
#607 = LINE('',#608,#609);
#608 = CARTESIAN_POINT('',(0.,0.));
#609 = VECTOR('',#610,1.);
#610 = DIRECTION('',(0.,-1.));
#611 = ( GEOMETRIC_REPRESENTATION_CONTEXT(2) 
PARAMETRIC_REPRESENTATION_CONTEXT() REPRESENTATION_CONTEXT('2D SPACE',''
  ) );
#612 = PCURVE('',#577,#613);
#613 = DEFINITIONAL_REPRESENTATION('',(#614),#618);
#614 = LINE('',#615,#616);
#615 = CARTESIAN_POINT('',(-1.338695178556,-61.05551111035));
#616 = VECTOR('',#617,1.);
#617 = DIRECTION('',(0.13052619222,0.991444861374));
#618 = ( GEOMETRIC_REPRESENTATION_CONTEXT(2) 
PARAMETRIC_REPRESENTATION_CONTEXT() REPRESENTATION_CONTEXT('2D SPACE',''
  ) );
#619 = ORIENTED_EDGE('',*,*,#620,.T.);
#620 = EDGE_CURVE('',#598,#621,#623,.T.);
#621 = VERTEX_POINT('',#622);
#622 = CARTESIAN_POINT('',(10.404815044167,83.705808184956,7.8));
#623 = SURFACE_CURVE('',#624,(#629,#636),.PCURVE_S1.);
#624 = ELLIPSE('',#625,293.54661800886,84.35);
#625 = AXIS2_PLACEMENT_3D('',#626,#627,#628);
#626 = CARTESIAN_POINT('',(0.,0.,9.833333333333));
#627 = DIRECTION('',(0.949631948571,-0.125021417818,-0.287347885566));
#628 = DIRECTION('',(0.284889584571,-3.750642534546E-02,0.957826285221)
  );
#629 = PCURVE('',#90,#630);
#630 = DEFINITIONAL_REPRESENTATION('',(#631),#635);
#631 = ELLIPSE('',#632,293.54661800886,84.35);
#632 = AXIS2_PLACEMENT_2D('',#633,#634);
#633 = CARTESIAN_POINT('',(4.002117495082,-2.323294523378E-17));
#634 = DIRECTION('',(1.,-4.791961561276E-18));
#635 = ( GEOMETRIC_REPRESENTATION_CONTEXT(2) 
PARAMETRIC_REPRESENTATION_CONTEXT() REPRESENTATION_CONTEXT('2D SPACE',''
  ) );
#636 = PCURVE('',#637,#642);
#637 = CYLINDRICAL_SURFACE('',#638,84.35);
#638 = AXIS2_PLACEMENT_3D('',#639,#640,#641);
#639 = CARTESIAN_POINT('',(0.,0.,5.));
#640 = DIRECTION('',(0.,0.,1.));
#641 = DIRECTION('',(1.,0.,-0.));
#642 = DEFINITIONAL_REPRESENTATION('',(#643),#650);
#643 = B_SPLINE_CURVE_WITH_KNOTS('',5,(#644,#645,#646,#647,#648,#649),
  .UNSPECIFIED.,.F.,.F.,(6,6),(4.698754886616,4.705157147105),
  .PIECEWISE_BEZIER_KNOTS.);
#644 = CARTESIAN_POINT('',(1.453530726664,0.9999994));
#645 = CARTESIAN_POINT('',(1.452250274566,1.359986386867));
#646 = CARTESIAN_POINT('',(1.450969822469,1.719981229949));
#647 = CARTESIAN_POINT('',(1.449689370371,2.07998269962));
#648 = CARTESIAN_POINT('',(1.448408918273,2.439989566207));
#649 = CARTESIAN_POINT('',(1.447128466175,2.8000006));
#650 = ( GEOMETRIC_REPRESENTATION_CONTEXT(2) 
PARAMETRIC_REPRESENTATION_CONTEXT() REPRESENTATION_CONTEXT('2D SPACE',''
  ) );
#651 = ORIENTED_EDGE('',*,*,#652,.T.);
#652 = EDGE_CURVE('',#621,#250,#653,.T.);
#653 = SURFACE_CURVE('',#654,(#658,#664),.PCURVE_S1.);
#654 = LINE('',#655,#656);
#655 = CARTESIAN_POINT('',(-0.604781365438,7.962097725423E-02,7.8));
#656 = VECTOR('',#657,1.);
#657 = DIRECTION('',(0.13052619222,0.991444861374,-0.));
#658 = PCURVE('',#90,#659);
#659 = DEFINITIONAL_REPRESENTATION('',(#660),#663);
#660 = B_SPLINE_CURVE_WITH_KNOTS('',1,(#661,#662),.UNSPECIFIED.,.F.,.F.,
  (2,2),(84.340307707197,90.304061869837),.PIECEWISE_BEZIER_KNOTS.);
#661 = CARTESIAN_POINT('',(1.879255171604,-84.34030770719));
#662 = CARTESIAN_POINT('',(1.879255171604,-90.30406186983));
#663 = ( GEOMETRIC_REPRESENTATION_CONTEXT(2) 
PARAMETRIC_REPRESENTATION_CONTEXT() REPRESENTATION_CONTEXT('2D SPACE',''
  ) );
#664 = PCURVE('',#266,#665);
#665 = DEFINITIONAL_REPRESENTATION('',(#666),#669);
#666 = B_SPLINE_CURVE_WITH_KNOTS('',1,(#667,#668),.UNSPECIFIED.,.F.,.F.,
  (2,2),(84.340307707197,90.304061869837),.PIECEWISE_BEZIER_KNOTS.);
#667 = CARTESIAN_POINT('',(10.40383785025,83.69838566024));
#668 = CARTESIAN_POINT('',(11.182263972436,89.611119079286));
#669 = ( GEOMETRIC_REPRESENTATION_CONTEXT(2) 
PARAMETRIC_REPRESENTATION_CONTEXT() REPRESENTATION_CONTEXT('2D SPACE',''
  ) );
#670 = ORIENTED_EDGE('',*,*,#282,.T.);
#671 = ORIENTED_EDGE('',*,*,#74,.F.);
#672 = ADVANCED_FACE('',(#673),#266,.F.);
#673 = FACE_BOUND('',#674,.F.);
#674 = EDGE_LOOP('',(#675,#699,#700,#701));
#675 = ORIENTED_EDGE('',*,*,#676,.F.);
#676 = EDGE_CURVE('',#621,#677,#679,.T.);
#677 = VERTEX_POINT('',#678);
#678 = CARTESIAN_POINT('',(-10.00773570595,83.754210198889,7.8));
#679 = SURFACE_CURVE('',#680,(#685,#692),.PCURVE_S1.);
#680 = CIRCLE('',#681,84.35);
#681 = AXIS2_PLACEMENT_3D('',#682,#683,#684);
#682 = CARTESIAN_POINT('',(0.,0.,7.8));
#683 = DIRECTION('',(0.,0.,1.));
#684 = DIRECTION('',(1.,0.,-0.));
#685 = PCURVE('',#266,#686);
#686 = DEFINITIONAL_REPRESENTATION('',(#687),#691);
#687 = CIRCLE('',#688,84.35);
#688 = AXIS2_PLACEMENT_2D('',#689,#690);
#689 = CARTESIAN_POINT('',(0.,0.));
#690 = DIRECTION('',(1.,0.));
#691 = ( GEOMETRIC_REPRESENTATION_CONTEXT(2) 
PARAMETRIC_REPRESENTATION_CONTEXT() REPRESENTATION_CONTEXT('2D SPACE',''
  ) );
#692 = PCURVE('',#637,#693);
#693 = DEFINITIONAL_REPRESENTATION('',(#694),#698);
#694 = LINE('',#695,#696);
#695 = CARTESIAN_POINT('',(0.,2.8));
#696 = VECTOR('',#697,1.);
#697 = DIRECTION('',(1.,0.));
#698 = ( GEOMETRIC_REPRESENTATION_CONTEXT(2) 
PARAMETRIC_REPRESENTATION_CONTEXT() REPRESENTATION_CONTEXT('2D SPACE',''
  ) );
#699 = ORIENTED_EDGE('',*,*,#652,.T.);
#700 = ORIENTED_EDGE('',*,*,#249,.F.);
#701 = ORIENTED_EDGE('',*,*,#702,.T.);
#702 = EDGE_CURVE('',#218,#677,#703,.T.);
#703 = SURFACE_CURVE('',#704,(#708,#714),.PCURVE_S1.);
#704 = LINE('',#705,#706);
#705 = CARTESIAN_POINT('',(1.001359309988,0.131831454142,7.8));
#706 = VECTOR('',#707,1.);
#707 = DIRECTION('',(0.13052619222,-0.991444861374,0.));
#708 = PCURVE('',#266,#709);
#709 = DEFINITIONAL_REPRESENTATION('',(#710),#713);
#710 = B_SPLINE_CURVE_WITH_KNOTS('',1,(#711,#712),.UNSPECIFIED.,.F.,.F.,
  (2,2),(-90.30072284707,-84.29513328155),.PIECEWISE_BEZIER_KNOTS.);
#711 = CARTESIAN_POINT('',(-10.78525019795,89.660019099213));
#712 = CARTESIAN_POINT('',(-10.00136345993,83.705808184956));
#713 = ( GEOMETRIC_REPRESENTATION_CONTEXT(2) 
PARAMETRIC_REPRESENTATION_CONTEXT() REPRESENTATION_CONTEXT('2D SPACE',''
  ) );
#714 = PCURVE('',#237,#715);
#715 = DEFINITIONAL_REPRESENTATION('',(#716),#719);
#716 = B_SPLINE_CURVE_WITH_KNOTS('',1,(#717,#718),.UNSPECIFIED.,.F.,.F.,
  (2,2),(-90.30072284707,-84.29513328155),.PIECEWISE_BEZIER_KNOTS.);
#717 = CARTESIAN_POINT('',(0.208806130178,-90.30072284707));
#718 = CARTESIAN_POINT('',(0.208806130178,-84.29513328155));
#719 = ( GEOMETRIC_REPRESENTATION_CONTEXT(2) 
PARAMETRIC_REPRESENTATION_CONTEXT() REPRESENTATION_CONTEXT('2D SPACE',''
  ) );
#720 = ADVANCED_FACE('',(#721),#237,.T.);
#721 = FACE_BOUND('',#722,.T.);
#722 = EDGE_LOOP('',(#723,#724,#745,#746,#747,#774));
#723 = ORIENTED_EDGE('',*,*,#460,.F.);
#724 = ORIENTED_EDGE('',*,*,#725,.T.);
#725 = EDGE_CURVE('',#461,#190,#726,.T.);
#726 = SURFACE_CURVE('',#727,(#731,#738),.PCURVE_S1.);
#727 = LINE('',#728,#729);
#728 = CARTESIAN_POINT('',(0.941872618305,0.123999882609,8.));
#729 = VECTOR('',#730,1.);
#730 = DIRECTION('',(-0.13052619222,0.991444861374,0.));
#731 = PCURVE('',#237,#732);
#732 = DEFINITIONAL_REPRESENTATION('',(#733),#737);
#733 = LINE('',#734,#735);
#734 = CARTESIAN_POINT('',(0.,0.));
#735 = VECTOR('',#736,1.);
#736 = DIRECTION('',(0.,-1.));
#737 = ( GEOMETRIC_REPRESENTATION_CONTEXT(2) 
PARAMETRIC_REPRESENTATION_CONTEXT() REPRESENTATION_CONTEXT('2D SPACE',''
  ) );
#738 = PCURVE('',#205,#739);
#739 = DEFINITIONAL_REPRESENTATION('',(#740),#744);
#740 = LINE('',#741,#742);
#741 = CARTESIAN_POINT('',(89.844977600309,-2.));
#742 = VECTOR('',#743,1.);
#743 = DIRECTION('',(-1.,-0.));
#744 = ( GEOMETRIC_REPRESENTATION_CONTEXT(2) 
PARAMETRIC_REPRESENTATION_CONTEXT() REPRESENTATION_CONTEXT('2D SPACE',''
  ) );
#745 = ORIENTED_EDGE('',*,*,#217,.T.);
#746 = ORIENTED_EDGE('',*,*,#702,.T.);
#747 = ORIENTED_EDGE('',*,*,#748,.T.);
#748 = EDGE_CURVE('',#677,#749,#751,.T.);
#749 = VERTEX_POINT('',#750);
#750 = CARTESIAN_POINT('',(-9.471285764681,83.816569041949,6.));
#751 = SURFACE_CURVE('',#752,(#757,#764),.PCURVE_S1.);
#752 = ELLIPSE('',#753,293.54661800886,84.35);
#753 = AXIS2_PLACEMENT_3D('',#754,#755,#756);
#754 = CARTESIAN_POINT('',(0.,0.,11.166666666667));
#755 = DIRECTION('',(-0.949631948571,-0.125021417818,-0.287347885566));
#756 = DIRECTION('',(-0.284889584571,-3.750642534546E-02,0.957826285221)
  );
#757 = PCURVE('',#237,#758);
#758 = DEFINITIONAL_REPRESENTATION('',(#759),#763);
#759 = ELLIPSE('',#760,293.54661800886,84.35);
#760 = AXIS2_PLACEMENT_2D('',#761,#762);
#761 = CARTESIAN_POINT('',(-3.306097061155,-1.202468488564E-17));
#762 = DIRECTION('',(-1.,-1.225204842261E-18));
#763 = ( GEOMETRIC_REPRESENTATION_CONTEXT(2) 
PARAMETRIC_REPRESENTATION_CONTEXT() REPRESENTATION_CONTEXT('2D SPACE',''
  ) );
#764 = PCURVE('',#637,#765);
#765 = DEFINITIONAL_REPRESENTATION('',(#766),#773);
#766 = B_SPLINE_CURVE_WITH_KNOTS('',5,(#767,#768,#769,#770,#771,#772),
  .UNSPECIFIED.,.F.,.F.,(6,6),(1.582770529003,1.589173178305),
  .PIECEWISE_BEZIER_KNOTS.);
#767 = CARTESIAN_POINT('',(1.689721818486,2.8000006));
#768 = CARTESIAN_POINT('',(1.688441288626,2.439984099021));
#769 = CARTESIAN_POINT('',(1.687160758765,2.079974498684));
#770 = CARTESIAN_POINT('',(1.685880228905,1.719973028862));
#771 = CARTESIAN_POINT('',(1.684599699045,1.359980919383));
#772 = CARTESIAN_POINT('',(1.683319169185,0.9999994));
#773 = ( GEOMETRIC_REPRESENTATION_CONTEXT(2) 
PARAMETRIC_REPRESENTATION_CONTEXT() REPRESENTATION_CONTEXT('2D SPACE',''
  ) );
#774 = ORIENTED_EDGE('',*,*,#775,.F.);
#775 = EDGE_CURVE('',#463,#749,#776,.T.);
#776 = SURFACE_CURVE('',#777,(#781,#788),.PCURVE_S1.);
#777 = LINE('',#778,#779);
#778 = CARTESIAN_POINT('',(1.536739535129,0.202315597941,6.));
#779 = VECTOR('',#780,1.);
#780 = DIRECTION('',(-0.13052619222,0.991444861374,0.));
#781 = PCURVE('',#237,#782);
#782 = DEFINITIONAL_REPRESENTATION('',(#783),#787);
#783 = LINE('',#784,#785);
#784 = CARTESIAN_POINT('',(2.088061301782,0.));
#785 = VECTOR('',#786,1.);
#786 = DIRECTION('',(0.,-1.));
#787 = ( GEOMETRIC_REPRESENTATION_CONTEXT(2) 
PARAMETRIC_REPRESENTATION_CONTEXT() REPRESENTATION_CONTEXT('2D SPACE',''
  ) );
#788 = PCURVE('',#577,#789);
#789 = DEFINITIONAL_REPRESENTATION('',(#790),#794);
#790 = LINE('',#791,#792);
#791 = CARTESIAN_POINT('',(1.338205947153,-61.00330063346));
#792 = VECTOR('',#793,1.);
#793 = DIRECTION('',(-0.13052619222,0.991444861374));
#794 = ( GEOMETRIC_REPRESENTATION_CONTEXT(2) 
PARAMETRIC_REPRESENTATION_CONTEXT() REPRESENTATION_CONTEXT('2D SPACE',''
  ) );
#795 = ADVANCED_FACE('',(#796),#205,.F.);
#796 = FACE_BOUND('',#797,.F.);
#797 = EDGE_LOOP('',(#798,#799,#800,#801));
#798 = ORIENTED_EDGE('',*,*,#489,.F.);
#799 = ORIENTED_EDGE('',*,*,#725,.T.);
#800 = ORIENTED_EDGE('',*,*,#189,.T.);
#801 = ORIENTED_EDGE('',*,*,#802,.T.);
#802 = EDGE_CURVE('',#161,#490,#803,.T.);
#803 = SURFACE_CURVE('',#804,(#808,#815),.PCURVE_S1.);
#804 = LINE('',#805,#806);
#805 = CARTESIAN_POINT('',(-10.78525019795,89.20034124468,8.65));
#806 = VECTOR('',#807,1.);
#807 = DIRECTION('',(0.13052619222,-0.991444861374,0.));
#808 = PCURVE('',#205,#809);
#809 = DEFINITIONAL_REPRESENTATION('',(#810),#814);
#810 = LINE('',#811,#812);
#811 = CARTESIAN_POINT('',(0.,-2.65));
#812 = VECTOR('',#813,1.);
#813 = DIRECTION('',(1.,0.));
#814 = ( GEOMETRIC_REPRESENTATION_CONTEXT(2) 
PARAMETRIC_REPRESENTATION_CONTEXT() REPRESENTATION_CONTEXT('2D SPACE',''
  ) );
#815 = PCURVE('',#816,#821);
#816 = CYLINDRICAL_SURFACE('',#817,0.15);
#817 = AXIS2_PLACEMENT_3D('',#818,#819,#820);
#818 = CARTESIAN_POINT('',(-10.63653346875,89.219920173513,8.65));
#819 = DIRECTION('',(0.13052619222,-0.991444861374,0.));
#820 = DIRECTION('',(0.,0.,1.));
#821 = DEFINITIONAL_REPRESENTATION('',(#822),#826);
#822 = LINE('',#823,#824);
#823 = CARTESIAN_POINT('',(1.570796326795,0.));
#824 = VECTOR('',#825,1.);
#825 = DIRECTION('',(0.,1.));
#826 = ( GEOMETRIC_REPRESENTATION_CONTEXT(2) 
PARAMETRIC_REPRESENTATION_CONTEXT() REPRESENTATION_CONTEXT('2D SPACE',''
  ) );
#827 = ADVANCED_FACE('',(#828),#177,.T.);
#828 = FACE_BOUND('',#829,.T.);
#829 = EDGE_LOOP('',(#830,#831,#832,#882));
#830 = ORIENTED_EDGE('',*,*,#408,.F.);
#831 = ORIENTED_EDGE('',*,*,#160,.T.);
#832 = ORIENTED_EDGE('',*,*,#833,.T.);
#833 = EDGE_CURVE('',#161,#834,#836,.T.);
#834 = VERTEX_POINT('',#835);
#835 = CARTESIAN_POINT('',(-10.61672970092,89.069495622562,8.8));
#836 = SURFACE_CURVE('',#837,(#850,#866),.PCURVE_S1.);
#837 = B_SPLINE_CURVE_WITH_KNOTS('',6,(#838,#839,#840,#841,#842,#843,
    #844,#845,#846,#847,#848,#849),.UNSPECIFIED.,.F.,.F.,(7,5,7),(0.,
    0.499832633183,1.),.UNSPECIFIED.);
#838 = CARTESIAN_POINT('',(-10.78525019795,89.200341244681,8.65));
#839 = CARTESIAN_POINT('',(-10.78525019795,89.200341244681,
    8.669739622077));
#840 = CARTESIAN_POINT('',(-10.78174850508,89.197624767482,
    8.689480690751));
#841 = CARTESIAN_POINT('',(-10.77474369746,89.192190719592,
    8.708590464147));
#842 = CARTESIAN_POINT('',(-10.76443896238,89.184195956604,
    8.726441205118));
#843 = CARTESIAN_POINT('',(-10.75122069942,89.173938832776,
    8.742494742119));
#844 = CARTESIAN_POINT('',(-10.71994670653,89.149665234593,8.77019031107
    ));
#845 = CARTESIAN_POINT('',(-10.70188685864,89.135645566917,
    8.781830459393));
#846 = CARTESIAN_POINT('',(-10.6819081383,89.120132792243,8.790844382347
    ));
#847 = CARTESIAN_POINT('',(-10.66061802336,89.103597266079,
    8.796948885157));
#848 = CARTESIAN_POINT('',(-10.63867481049,89.086549493561,
    8.799999757697));
#849 = CARTESIAN_POINT('',(-10.61672970092,89.069495622562,8.8));
#850 = PCURVE('',#177,#851);
#851 = DEFINITIONAL_REPRESENTATION('',(#852),#865);
#852 = B_SPLINE_CURVE_WITH_KNOTS('',6,(#853,#854,#855,#856,#857,#858,
    #859,#860,#861,#862,#863,#864),.UNSPECIFIED.,.F.,.F.,(7,5,7),(0.,
    0.499832633183,1.),.UNSPECIFIED.);
#853 = CARTESIAN_POINT('',(0.245104661743,0.));
#854 = CARTESIAN_POINT('',(0.245104661743,0.131597480515));
#855 = CARTESIAN_POINT('',(0.245069599956,0.263204757211));
#856 = CARTESIAN_POINT('',(0.244999462367,0.394704624101));
#857 = CARTESIAN_POINT('',(0.244896265452,0.526021715717));
#858 = CARTESIAN_POINT('',(0.244763845397,0.657113985954));
#859 = CARTESIAN_POINT('',(0.244450413398,0.918903070398));
#860 = CARTESIAN_POINT('',(0.24426936025,1.04960623079));
#861 = CARTESIAN_POINT('',(0.244068987968,1.180082704676));
#862 = CARTESIAN_POINT('',(0.243855357969,1.310382982558));
#863 = CARTESIAN_POINT('',(0.24363505751,1.440587787413));
#864 = CARTESIAN_POINT('',(0.243414629669,1.570796326795));
#865 = ( GEOMETRIC_REPRESENTATION_CONTEXT(2) 
PARAMETRIC_REPRESENTATION_CONTEXT() REPRESENTATION_CONTEXT('2D SPACE',''
  ) );
#866 = PCURVE('',#816,#867);
#867 = DEFINITIONAL_REPRESENTATION('',(#868),#881);
#868 = B_SPLINE_CURVE_WITH_KNOTS('',6,(#869,#870,#871,#872,#873,#874,
    #875,#876,#877,#878,#879,#880),.UNSPECIFIED.,.F.,.F.,(7,5,7),(0.,
    0.499832633183,1.),.UNSPECIFIED.);
#869 = CARTESIAN_POINT('',(1.570796326795,2.84217094304E-14));
#870 = CARTESIAN_POINT('',(1.439198846279,2.842050072715E-14));
#871 = CARTESIAN_POINT('',(1.307591569584,3.150299996854E-03));
#872 = CARTESIAN_POINT('',(1.176091702694,9.452169719328E-03));
#873 = CARTESIAN_POINT('',(1.044774611078,1.87235742343E-02));
#874 = CARTESIAN_POINT('',(0.913682340841,3.061827647741E-02));
#875 = CARTESIAN_POINT('',(0.651893256397,5.876628587E-02));
#876 = CARTESIAN_POINT('',(0.521190096005,7.502329652279E-02));
#877 = CARTESIAN_POINT('',(0.39071362212,9.301110355059E-02));
#878 = CARTESIAN_POINT('',(0.260413344238,0.112184083631));
#879 = CARTESIAN_POINT('',(0.130208539382,0.131950174113));
#880 = CARTESIAN_POINT('',(0.,0.151722558472));
#881 = ( GEOMETRIC_REPRESENTATION_CONTEXT(2) 
PARAMETRIC_REPRESENTATION_CONTEXT() REPRESENTATION_CONTEXT('2D SPACE',''
  ) );
#882 = ORIENTED_EDGE('',*,*,#883,.F.);
#883 = EDGE_CURVE('',#381,#834,#884,.T.);
#884 = SURFACE_CURVE('',#885,(#890,#897),.PCURVE_S1.);
#885 = CIRCLE('',#886,89.700000000002);
#886 = AXIS2_PLACEMENT_3D('',#887,#888,#889);
#887 = CARTESIAN_POINT('',(3.774758283726E-15,-2.145839061996E-12,8.8));
#888 = DIRECTION('',(0.,0.,1.));
#889 = DIRECTION('',(0.124454802142,0.992225277961,-0.));
#890 = PCURVE('',#177,#891);
#891 = DEFINITIONAL_REPRESENTATION('',(#892),#896);
#892 = LINE('',#893,#894);
#893 = CARTESIAN_POINT('',(0.,1.570796326795));
#894 = VECTOR('',#895,1.);
#895 = DIRECTION('',(1.,0.));
#896 = ( GEOMETRIC_REPRESENTATION_CONTEXT(2) 
PARAMETRIC_REPRESENTATION_CONTEXT() REPRESENTATION_CONTEXT('2D SPACE',''
  ) );
#897 = PCURVE('',#396,#898);
#898 = DEFINITIONAL_REPRESENTATION('',(#899),#903);
#899 = CIRCLE('',#900,89.700000000002);
#900 = AXIS2_PLACEMENT_2D('',#901,#902);
#901 = CARTESIAN_POINT('',(-0.198533587976,-61.20561623141));
#902 = DIRECTION('',(0.124454802142,0.992225277961));
#903 = ( GEOMETRIC_REPRESENTATION_CONTEXT(2) 
PARAMETRIC_REPRESENTATION_CONTEXT() REPRESENTATION_CONTEXT('2D SPACE',''
  ) );
#904 = ADVANCED_FACE('',(#905),#354,.T.);
#905 = FACE_BOUND('',#906,.F.);
#906 = EDGE_LOOP('',(#907,#972,#998,#999));
#907 = ORIENTED_EDGE('',*,*,#908,.F.);
#908 = EDGE_CURVE('',#909,#490,#911,.T.);
#909 = VERTEX_POINT('',#910);
#910 = CARTESIAN_POINT('',(-2.384969247033,26.543067299969,8.8));
#911 = SURFACE_CURVE('',#912,(#930,#951),.PCURVE_S1.);
#912 = B_SPLINE_CURVE_WITH_KNOTS('',6,(#913,#914,#915,#916,#917,#918,
    #919,#920,#921,#922,#923,#924,#925,#926,#927,#928,#929),
  .UNSPECIFIED.,.F.,.F.,(7,5,5,7),(0.,6.066960948089E-02,0.501991099444,
    1.),.UNSPECIFIED.);
#913 = CARTESIAN_POINT('',(-2.384969265671,26.543067298295,8.8));
#914 = CARTESIAN_POINT('',(-2.387022582389,26.540502727221,
    8.799999999857));
#915 = CARTESIAN_POINT('',(-2.389075885047,26.537937945529,
    8.799955045174));
#916 = CARTESIAN_POINT('',(-2.391128251635,26.535374070858,
    8.799865136315));
#917 = CARTESIAN_POINT('',(-2.393178769702,26.532812226573,
    8.799730304601));
#918 = CARTESIAN_POINT('',(-2.395226536367,26.530253541762,8.79955061231
    ));
#919 = CARTESIAN_POINT('',(-2.412139963537,26.509118061895,
    8.797693393568));
#920 = CARTESIAN_POINT('',(-2.426815942491,26.490764441367,
    8.793692098513));
#921 = CARTESIAN_POINT('',(-2.440952672311,26.473071091843,
    8.787357086632));
#922 = CARTESIAN_POINT('',(-2.454208116996,26.456468499439,
    8.778812512392));
#923 = CARTESIAN_POINT('',(-2.466268200443,26.441353683664,
    8.768266371817));
#924 = CARTESIAN_POINT('',(-2.488835464613,26.413056724095,
    8.742168682763));
#925 = CARTESIAN_POINT('',(-2.498944862669,26.400371354919,
    8.726147129281));
#926 = CARTESIAN_POINT('',(-2.506820836566,26.390482525298,
    8.708351673149));
#927 = CARTESIAN_POINT('',(-2.512172690566,26.383760853087,
    8.689315362209));
#928 = CARTESIAN_POINT('',(-2.514848121553,26.380400658927,
    8.669657020373));
#929 = CARTESIAN_POINT('',(-2.514848121553,26.380400658927,8.65));
#930 = PCURVE('',#354,#931);
#931 = DEFINITIONAL_REPRESENTATION('',(#932),#950);
#932 = B_SPLINE_CURVE_WITH_KNOTS('',6,(#933,#934,#935,#936,#937,#938,
    #939,#940,#941,#942,#943,#944,#945,#946,#947,#948,#949),
  .UNSPECIFIED.,.F.,.F.,(7,5,5,7),(0.,6.066960948089E-02,0.501991099444,
    1.),.UNSPECIFIED.);
#933 = CARTESIAN_POINT('',(-5.430786223477E-03,1.570796326795));
#934 = CARTESIAN_POINT('',(-5.345435862186E-03,1.58659982646));
#935 = CARTESIAN_POINT('',(-5.260067098259E-03,1.602403176262));
#936 = CARTESIAN_POINT('',(-5.174718135136E-03,1.618206616003));
#937 = CARTESIAN_POINT('',(-5.089426891364E-03,1.634010336643));
#938 = CARTESIAN_POINT('',(-5.004231000595E-03,1.649814480302));
#939 = CARTESIAN_POINT('',(-4.300403101663E-03,1.78058503732));
#940 = CARTESIAN_POINT('',(-3.688680165307E-03,1.895577552738));
#941 = CARTESIAN_POINT('',(-3.098431047885E-03,2.010655330974));
#942 = CARTESIAN_POINT('',(-2.544106815062E-03,2.125864870883));
#943 = CARTESIAN_POINT('',(-2.039099998306E-03,2.241234694941));
#944 = CARTESIAN_POINT('',(-1.093147006184E-03,2.487144702443));
#945 = CARTESIAN_POINT('',(-6.687321305883E-04,2.617736939685));
#946 = CARTESIAN_POINT('',(-3.376551992398E-04,2.748531231655));
#947 = CARTESIAN_POINT('',(-1.125369168715E-04,2.879490090115));
#948 = CARTESIAN_POINT('',(0.,3.010545851106));
#949 = CARTESIAN_POINT('',(0.,3.14159265359));
#950 = ( GEOMETRIC_REPRESENTATION_CONTEXT(2) 
PARAMETRIC_REPRESENTATION_CONTEXT() REPRESENTATION_CONTEXT('2D SPACE',''
  ) );
#951 = PCURVE('',#816,#952);
#952 = DEFINITIONAL_REPRESENTATION('',(#953),#971);
#953 = B_SPLINE_CURVE_WITH_KNOTS('',6,(#954,#955,#956,#957,#958,#959,
    #960,#961,#962,#963,#964,#965,#966,#967,#968,#969,#970),
  .UNSPECIFIED.,.F.,.F.,(7,5,5,7),(0.,6.066960948089E-02,0.501991099444,
    1.),.UNSPECIFIED.);
#954 = CARTESIAN_POINT('',(1.246499362987E-07,63.217688965505));
#955 = CARTESIAN_POINT('',(1.580341915376E-02,63.219963584705));
#956 = CARTESIAN_POINT('',(3.16068003925E-02,63.222238414557));
#957 = CARTESIAN_POINT('',(4.741031298649E-02,63.224512467329));
#958 = CARTESIAN_POINT('',(6.321405011315E-02,63.226784748365));
#959 = CARTESIAN_POINT('',(7.901815350696E-02,63.229054256088));
#960 = CARTESIAN_POINT('',(0.209788710525,63.247801273749));
#961 = CARTESIAN_POINT('',(0.324781225943,63.264082276859));
#962 = CARTESIAN_POINT('',(0.439859004179,63.279779043811));
#963 = CARTESIAN_POINT('',(0.555068544088,63.294509416015));
#964 = CARTESIAN_POINT('',(0.670438368146,63.307920765676));
#965 = CARTESIAN_POINT('',(0.916348375648,63.333030021772));
#966 = CARTESIAN_POINT('',(1.04694061289,63.344287324622));
#967 = CARTESIAN_POINT('',(1.17773490486,63.353063533051));
#968 = CARTESIAN_POINT('',(1.30869376332,63.359029143302));
#969 = CARTESIAN_POINT('',(1.439749524311,63.362011376715));
#970 = CARTESIAN_POINT('',(1.570796326795,63.362011376715));
#971 = ( GEOMETRIC_REPRESENTATION_CONTEXT(2) 
PARAMETRIC_REPRESENTATION_CONTEXT() REPRESENTATION_CONTEXT('2D SPACE',''
  ) );
#972 = ORIENTED_EDGE('',*,*,#973,.T.);
#973 = EDGE_CURVE('',#909,#311,#974,.T.);
#974 = SURFACE_CURVE('',#975,(#980,#987),.PCURVE_S1.);
#975 = CIRCLE('',#976,26.65);
#976 = AXIS2_PLACEMENT_3D('',#977,#978,#979);
#977 = CARTESIAN_POINT('',(2.137179322403E-15,3.055333763768E-13,8.8));
#978 = DIRECTION('',(-0.,0.,-1.));
#979 = DIRECTION('',(-9.48999291152E-02,0.995486817318,0.));
#980 = PCURVE('',#354,#981);
#981 = DEFINITIONAL_REPRESENTATION('',(#982),#986);
#982 = LINE('',#983,#984);
#983 = CARTESIAN_POINT('',(-0.,1.570796326795));
#984 = VECTOR('',#985,1.);
#985 = DIRECTION('',(-1.,0.));
#986 = ( GEOMETRIC_REPRESENTATION_CONTEXT(2) 
PARAMETRIC_REPRESENTATION_CONTEXT() REPRESENTATION_CONTEXT('2D SPACE',''
  ) );
#987 = PCURVE('',#396,#988);
#988 = DEFINITIONAL_REPRESENTATION('',(#989),#997);
#989 = ( BOUNDED_CURVE() B_SPLINE_CURVE(2,(#990,#991,#992,#993,#994,#995
,#996),.UNSPECIFIED.,.T.,.F.) B_SPLINE_CURVE_WITH_KNOTS((1,2,2,2,2,1),(
    -2.094395102393,0.,2.094395102393,4.188790204786,6.28318530718,
8.377580409573),.UNSPECIFIED.) CURVE() GEOMETRIC_REPRESENTATION_ITEM() 
RATIONAL_B_SPLINE_CURVE((1.,0.5,1.,0.5,1.,0.5,1.)) REPRESENTATION_ITEM(
  '') );
#990 = CARTESIAN_POINT('',(-2.727616698896,-34.67589254988));
#991 = CARTESIAN_POINT('',(43.223212628268,-30.2953921052));
#992 = CARTESIAN_POINT('',(24.041422631066,-72.28022784983));
#993 = CARTESIAN_POINT('',(4.859632633864,-114.2650635944));
#994 = CARTESIAN_POINT('',(-21.90940669609,-76.66072829451));
#995 = CARTESIAN_POINT('',(-48.67844602606,-39.05639299456));
#996 = CARTESIAN_POINT('',(-2.727616698896,-34.67589254988));
#997 = ( GEOMETRIC_REPRESENTATION_CONTEXT(2) 
PARAMETRIC_REPRESENTATION_CONTEXT() REPRESENTATION_CONTEXT('2D SPACE',''
  ) );
#998 = ORIENTED_EDGE('',*,*,#310,.F.);
#999 = ORIENTED_EDGE('',*,*,#512,.F.);
#1000 = ADVANCED_FACE('',(#1001),#396,.T.);
#1001 = FACE_BOUND('',#1002,.T.);
#1002 = EDGE_LOOP('',(#1003,#1004,#1005,#1026));
#1003 = ORIENTED_EDGE('',*,*,#380,.T.);
#1004 = ORIENTED_EDGE('',*,*,#883,.T.);
#1005 = ORIENTED_EDGE('',*,*,#1006,.T.);
#1006 = EDGE_CURVE('',#834,#909,#1007,.T.);
#1007 = SURFACE_CURVE('',#1008,(#1012,#1019),.PCURVE_S1.);
#1008 = LINE('',#1009,#1010);
#1009 = CARTESIAN_POINT('',(-10.63653346875,89.219920173513,8.8));
#1010 = VECTOR('',#1011,1.);
#1011 = DIRECTION('',(0.13052619222,-0.991444861374,0.));
#1012 = PCURVE('',#396,#1013);
#1013 = DEFINITIONAL_REPRESENTATION('',(#1014),#1018);
#1014 = LINE('',#1015,#1016);
#1015 = CARTESIAN_POINT('',(-10.83506705672,28.014303942104));
#1016 = VECTOR('',#1017,1.);
#1017 = DIRECTION('',(0.13052619222,-0.991444861374));
#1018 = ( GEOMETRIC_REPRESENTATION_CONTEXT(2) 
PARAMETRIC_REPRESENTATION_CONTEXT() REPRESENTATION_CONTEXT('2D SPACE',''
  ) );
#1019 = PCURVE('',#816,#1020);
#1020 = DEFINITIONAL_REPRESENTATION('',(#1021),#1025);
#1021 = LINE('',#1022,#1023);
#1022 = CARTESIAN_POINT('',(0.,0.));
#1023 = VECTOR('',#1024,1.);
#1024 = DIRECTION('',(0.,1.));
#1025 = ( GEOMETRIC_REPRESENTATION_CONTEXT(2) 
PARAMETRIC_REPRESENTATION_CONTEXT() REPRESENTATION_CONTEXT('2D SPACE',''
  ) );
#1026 = ORIENTED_EDGE('',*,*,#973,.T.);
#1027 = ADVANCED_FACE('',(#1028,#1055),#577,.F.);
#1028 = FACE_BOUND('',#1029,.F.);
#1029 = EDGE_LOOP('',(#1030,#1052,#1053,#1054));
#1030 = ORIENTED_EDGE('',*,*,#1031,.T.);
#1031 = EDGE_CURVE('',#598,#749,#1032,.T.);
#1032 = SURFACE_CURVE('',#1033,(#1038,#1045),.PCURVE_S1.);
#1033 = CIRCLE('',#1034,84.35);
#1034 = AXIS2_PLACEMENT_3D('',#1035,#1036,#1037);
#1035 = CARTESIAN_POINT('',(0.,0.,6.));
#1036 = DIRECTION('',(0.,0.,1.));
#1037 = DIRECTION('',(1.,0.,-0.));
#1038 = PCURVE('',#577,#1039);
#1039 = DEFINITIONAL_REPRESENTATION('',(#1040),#1044);
#1040 = CIRCLE('',#1041,84.35);
#1041 = AXIS2_PLACEMENT_2D('',#1042,#1043);
#1042 = CARTESIAN_POINT('',(-0.198533587976,-61.20561623141));
#1043 = DIRECTION('',(1.,0.));
#1044 = ( GEOMETRIC_REPRESENTATION_CONTEXT(2) 
PARAMETRIC_REPRESENTATION_CONTEXT() REPRESENTATION_CONTEXT('2D SPACE',''
  ) );
#1045 = PCURVE('',#637,#1046);
#1046 = DEFINITIONAL_REPRESENTATION('',(#1047),#1051);
#1047 = LINE('',#1048,#1049);
#1048 = CARTESIAN_POINT('',(0.,1.));
#1049 = VECTOR('',#1050,1.);
#1050 = DIRECTION('',(1.,0.));
#1051 = ( GEOMETRIC_REPRESENTATION_CONTEXT(2) 
PARAMETRIC_REPRESENTATION_CONTEXT() REPRESENTATION_CONTEXT('2D SPACE',''
  ) );
#1052 = ORIENTED_EDGE('',*,*,#775,.F.);
#1053 = ORIENTED_EDGE('',*,*,#562,.T.);
#1054 = ORIENTED_EDGE('',*,*,#597,.T.);
#1055 = FACE_BOUND('',#1056,.F.);
#1056 = EDGE_LOOP('',(#1057,#1087,#1120,#1148));
#1057 = ORIENTED_EDGE('',*,*,#1058,.T.);
#1058 = EDGE_CURVE('',#1059,#1061,#1063,.T.);
#1059 = VERTEX_POINT('',#1060);
#1060 = CARTESIAN_POINT('',(-7.8,75.8,6.));
#1061 = VERTEX_POINT('',#1062);
#1062 = CARTESIAN_POINT('',(-7.8,81.2,6.));
#1063 = SURFACE_CURVE('',#1064,(#1068,#1075),.PCURVE_S1.);
#1064 = LINE('',#1065,#1066);
#1065 = CARTESIAN_POINT('',(-7.8,75.8,6.));
#1066 = VECTOR('',#1067,1.);
#1067 = DIRECTION('',(2.22044604925E-16,1.,0.));
#1068 = PCURVE('',#577,#1069);
#1069 = DEFINITIONAL_REPRESENTATION('',(#1070),#1074);
#1070 = LINE('',#1071,#1072);
#1071 = CARTESIAN_POINT('',(-7.998533587976,14.59438376859));
#1072 = VECTOR('',#1073,1.);
#1073 = DIRECTION('',(2.22044604925E-16,1.));
#1074 = ( GEOMETRIC_REPRESENTATION_CONTEXT(2) 
PARAMETRIC_REPRESENTATION_CONTEXT() REPRESENTATION_CONTEXT('2D SPACE',''
  ) );
#1075 = PCURVE('',#1076,#1081);
#1076 = PLANE('',#1077);
#1077 = AXIS2_PLACEMENT_3D('',#1078,#1079,#1080);
#1078 = CARTESIAN_POINT('',(-7.8,75.8,4.8));
#1079 = DIRECTION('',(-1.,2.22044604925E-16,0.));
#1080 = DIRECTION('',(2.22044604925E-16,1.,0.));
#1081 = DEFINITIONAL_REPRESENTATION('',(#1082),#1086);
#1082 = LINE('',#1083,#1084);
#1083 = CARTESIAN_POINT('',(0.,-1.2));
#1084 = VECTOR('',#1085,1.);
#1085 = DIRECTION('',(1.,0.));
#1086 = ( GEOMETRIC_REPRESENTATION_CONTEXT(2) 
PARAMETRIC_REPRESENTATION_CONTEXT() REPRESENTATION_CONTEXT('2D SPACE',''
  ) );
#1087 = ORIENTED_EDGE('',*,*,#1088,.T.);
#1088 = EDGE_CURVE('',#1061,#1089,#1091,.T.);
#1089 = VERTEX_POINT('',#1090);
#1090 = CARTESIAN_POINT('',(-6.2,81.2,6.));
#1091 = SURFACE_CURVE('',#1092,(#1097,#1108),.PCURVE_S1.);
#1092 = CIRCLE('',#1093,0.8);
#1093 = AXIS2_PLACEMENT_3D('',#1094,#1095,#1096);
#1094 = CARTESIAN_POINT('',(-7.,81.2,6.));
#1095 = DIRECTION('',(-0.,0.,-1.));
#1096 = DIRECTION('',(-2.22044604925E-16,-1.,0.));
#1097 = PCURVE('',#577,#1098);
#1098 = DEFINITIONAL_REPRESENTATION('',(#1099),#1107);
#1099 = ( BOUNDED_CURVE() B_SPLINE_CURVE(2,(#1100,#1101,#1102,#1103,
#1104,#1105,#1106),.UNSPECIFIED.,.T.,.F.) B_SPLINE_CURVE_WITH_KNOTS((1,2
    ,2,2,2,1),(-2.094395102393,0.,2.094395102393,4.188790204786,
6.28318530718,8.377580409573),.UNSPECIFIED.) CURVE() 
GEOMETRIC_REPRESENTATION_ITEM() RATIONAL_B_SPLINE_CURVE((1.,0.5,1.,0.5,
1.,0.5,1.)) REPRESENTATION_ITEM('') );
#1100 = CARTESIAN_POINT('',(-7.198533587976,19.19438376859));
#1101 = CARTESIAN_POINT('',(-8.584174234031,19.19438376859));
#1102 = CARTESIAN_POINT('',(-7.891353911004,20.39438376859));
#1103 = CARTESIAN_POINT('',(-7.198533587976,21.59438376859));
#1104 = CARTESIAN_POINT('',(-6.505713264948,20.39438376859));
#1105 = CARTESIAN_POINT('',(-5.812892941921,19.19438376859));
#1106 = CARTESIAN_POINT('',(-7.198533587976,19.19438376859));
#1107 = ( GEOMETRIC_REPRESENTATION_CONTEXT(2) 
PARAMETRIC_REPRESENTATION_CONTEXT() REPRESENTATION_CONTEXT('2D SPACE',''
  ) );
#1108 = PCURVE('',#1109,#1114);
#1109 = CYLINDRICAL_SURFACE('',#1110,0.8);
#1110 = AXIS2_PLACEMENT_3D('',#1111,#1112,#1113);
#1111 = CARTESIAN_POINT('',(-7.,81.2,4.8));
#1112 = DIRECTION('',(-0.,0.,-1.));
#1113 = DIRECTION('',(-2.22044604925E-16,-1.,0.));
#1114 = DEFINITIONAL_REPRESENTATION('',(#1115),#1119);
#1115 = LINE('',#1116,#1117);
#1116 = CARTESIAN_POINT('',(0.,-1.2));
#1117 = VECTOR('',#1118,1.);
#1118 = DIRECTION('',(1.,0.));
#1119 = ( GEOMETRIC_REPRESENTATION_CONTEXT(2) 
PARAMETRIC_REPRESENTATION_CONTEXT() REPRESENTATION_CONTEXT('2D SPACE',''
  ) );
#1120 = ORIENTED_EDGE('',*,*,#1121,.T.);
#1121 = EDGE_CURVE('',#1089,#1122,#1124,.T.);
#1122 = VERTEX_POINT('',#1123);
#1123 = CARTESIAN_POINT('',(-6.2,75.8,6.));
#1124 = SURFACE_CURVE('',#1125,(#1129,#1136),.PCURVE_S1.);
#1125 = LINE('',#1126,#1127);
#1126 = CARTESIAN_POINT('',(-6.2,81.2,6.));
#1127 = VECTOR('',#1128,1.);
#1128 = DIRECTION('',(-2.22044604925E-16,-1.,0.));
#1129 = PCURVE('',#577,#1130);
#1130 = DEFINITIONAL_REPRESENTATION('',(#1131),#1135);
#1131 = LINE('',#1132,#1133);
#1132 = CARTESIAN_POINT('',(-6.398533587976,19.99438376859));
#1133 = VECTOR('',#1134,1.);
#1134 = DIRECTION('',(-2.22044604925E-16,-1.));
#1135 = ( GEOMETRIC_REPRESENTATION_CONTEXT(2) 
PARAMETRIC_REPRESENTATION_CONTEXT() REPRESENTATION_CONTEXT('2D SPACE',''
  ) );
#1136 = PCURVE('',#1137,#1142);
#1137 = PLANE('',#1138);
#1138 = AXIS2_PLACEMENT_3D('',#1139,#1140,#1141);
#1139 = CARTESIAN_POINT('',(-6.2,78.5,4.8));
#1140 = DIRECTION('',(-1.,2.22044604925E-16,0.));
#1141 = DIRECTION('',(2.22044604925E-16,1.,0.));
#1142 = DEFINITIONAL_REPRESENTATION('',(#1143),#1147);
#1143 = LINE('',#1144,#1145);
#1144 = CARTESIAN_POINT('',(2.7,-1.2));
#1145 = VECTOR('',#1146,1.);
#1146 = DIRECTION('',(-1.,0.));
#1147 = ( GEOMETRIC_REPRESENTATION_CONTEXT(2) 
PARAMETRIC_REPRESENTATION_CONTEXT() REPRESENTATION_CONTEXT('2D SPACE',''
  ) );
#1148 = ORIENTED_EDGE('',*,*,#1149,.T.);
#1149 = EDGE_CURVE('',#1122,#1059,#1150,.T.);
#1150 = SURFACE_CURVE('',#1151,(#1156,#1167),.PCURVE_S1.);
#1151 = CIRCLE('',#1152,0.8);
#1152 = AXIS2_PLACEMENT_3D('',#1153,#1154,#1155);
#1153 = CARTESIAN_POINT('',(-7.,75.8,6.));
#1154 = DIRECTION('',(0.,0.,-1.));
#1155 = DIRECTION('',(2.22044604925E-16,1.,0.));
#1156 = PCURVE('',#577,#1157);
#1157 = DEFINITIONAL_REPRESENTATION('',(#1158),#1166);
#1158 = ( BOUNDED_CURVE() B_SPLINE_CURVE(2,(#1159,#1160,#1161,#1162,
#1163,#1164,#1165),.UNSPECIFIED.,.T.,.F.) B_SPLINE_CURVE_WITH_KNOTS((1,2
    ,2,2,2,1),(-2.094395102393,0.,2.094395102393,4.188790204786,
6.28318530718,8.377580409573),.UNSPECIFIED.) CURVE() 
GEOMETRIC_REPRESENTATION_ITEM() RATIONAL_B_SPLINE_CURVE((1.,0.5,1.,0.5,
1.,0.5,1.)) REPRESENTATION_ITEM('') );
#1159 = CARTESIAN_POINT('',(-7.198533587976,15.39438376859));
#1160 = CARTESIAN_POINT('',(-5.812892941921,15.39438376859));
#1161 = CARTESIAN_POINT('',(-6.505713264948,14.19438376859));
#1162 = CARTESIAN_POINT('',(-7.198533587976,12.99438376859));
#1163 = CARTESIAN_POINT('',(-7.891353911004,14.19438376859));
#1164 = CARTESIAN_POINT('',(-8.584174234031,15.39438376859));
#1165 = CARTESIAN_POINT('',(-7.198533587976,15.39438376859));
#1166 = ( GEOMETRIC_REPRESENTATION_CONTEXT(2) 
PARAMETRIC_REPRESENTATION_CONTEXT() REPRESENTATION_CONTEXT('2D SPACE',''
  ) );
#1167 = PCURVE('',#1168,#1173);
#1168 = CYLINDRICAL_SURFACE('',#1169,0.8);
#1169 = AXIS2_PLACEMENT_3D('',#1170,#1171,#1172);
#1170 = CARTESIAN_POINT('',(-7.,75.8,4.8));
#1171 = DIRECTION('',(0.,0.,-1.));
#1172 = DIRECTION('',(2.22044604925E-16,1.,0.));
#1173 = DEFINITIONAL_REPRESENTATION('',(#1174),#1178);
#1174 = LINE('',#1175,#1176);
#1175 = CARTESIAN_POINT('',(0.,-1.2));
#1176 = VECTOR('',#1177,1.);
#1177 = DIRECTION('',(1.,0.));
#1178 = ( GEOMETRIC_REPRESENTATION_CONTEXT(2) 
PARAMETRIC_REPRESENTATION_CONTEXT() REPRESENTATION_CONTEXT('2D SPACE',''
  ) );
#1179 = ADVANCED_FACE('',(#1180),#637,.T.);
#1180 = FACE_BOUND('',#1181,.T.);
#1181 = EDGE_LOOP('',(#1182,#1183,#1184,#1185));
#1182 = ORIENTED_EDGE('',*,*,#676,.F.);
#1183 = ORIENTED_EDGE('',*,*,#620,.F.);
#1184 = ORIENTED_EDGE('',*,*,#1031,.T.);
#1185 = ORIENTED_EDGE('',*,*,#748,.F.);
#1186 = ADVANCED_FACE('',(#1187),#816,.T.);
#1187 = FACE_BOUND('',#1188,.T.);
#1188 = EDGE_LOOP('',(#1189,#1190,#1191,#1192));
#1189 = ORIENTED_EDGE('',*,*,#833,.F.);
#1190 = ORIENTED_EDGE('',*,*,#802,.T.);
#1191 = ORIENTED_EDGE('',*,*,#908,.F.);
#1192 = ORIENTED_EDGE('',*,*,#1006,.F.);
#1193 = ADVANCED_FACE('',(#1194),#1076,.T.);
#1194 = FACE_BOUND('',#1195,.T.);
#1195 = EDGE_LOOP('',(#1196,#1219,#1220,#1243));
#1196 = ORIENTED_EDGE('',*,*,#1197,.T.);
#1197 = EDGE_CURVE('',#1198,#1059,#1200,.T.);
#1198 = VERTEX_POINT('',#1199);
#1199 = CARTESIAN_POINT('',(-7.8,75.8,4.8));
#1200 = SURFACE_CURVE('',#1201,(#1205,#1212),.PCURVE_S1.);
#1201 = LINE('',#1202,#1203);
#1202 = CARTESIAN_POINT('',(-7.8,75.8,4.8));
#1203 = VECTOR('',#1204,1.);
#1204 = DIRECTION('',(0.,0.,1.));
#1205 = PCURVE('',#1076,#1206);
#1206 = DEFINITIONAL_REPRESENTATION('',(#1207),#1211);
#1207 = LINE('',#1208,#1209);
#1208 = CARTESIAN_POINT('',(0.,0.));
#1209 = VECTOR('',#1210,1.);
#1210 = DIRECTION('',(0.,-1.));
#1211 = ( GEOMETRIC_REPRESENTATION_CONTEXT(2) 
PARAMETRIC_REPRESENTATION_CONTEXT() REPRESENTATION_CONTEXT('2D SPACE',''
  ) );
#1212 = PCURVE('',#1168,#1213);
#1213 = DEFINITIONAL_REPRESENTATION('',(#1214),#1218);
#1214 = LINE('',#1215,#1216);
#1215 = CARTESIAN_POINT('',(4.712388980385,0.));
#1216 = VECTOR('',#1217,1.);
#1217 = DIRECTION('',(0.,-1.));
#1218 = ( GEOMETRIC_REPRESENTATION_CONTEXT(2) 
PARAMETRIC_REPRESENTATION_CONTEXT() REPRESENTATION_CONTEXT('2D SPACE',''
  ) );
#1219 = ORIENTED_EDGE('',*,*,#1058,.T.);
#1220 = ORIENTED_EDGE('',*,*,#1221,.F.);
#1221 = EDGE_CURVE('',#1222,#1061,#1224,.T.);
#1222 = VERTEX_POINT('',#1223);
#1223 = CARTESIAN_POINT('',(-7.8,81.2,4.8));
#1224 = SURFACE_CURVE('',#1225,(#1229,#1236),.PCURVE_S1.);
#1225 = LINE('',#1226,#1227);
#1226 = CARTESIAN_POINT('',(-7.8,81.2,4.8));
#1227 = VECTOR('',#1228,1.);
#1228 = DIRECTION('',(0.,0.,1.));
#1229 = PCURVE('',#1076,#1230);
#1230 = DEFINITIONAL_REPRESENTATION('',(#1231),#1235);
#1231 = LINE('',#1232,#1233);
#1232 = CARTESIAN_POINT('',(5.4,0.));
#1233 = VECTOR('',#1234,1.);
#1234 = DIRECTION('',(0.,-1.));
#1235 = ( GEOMETRIC_REPRESENTATION_CONTEXT(2) 
PARAMETRIC_REPRESENTATION_CONTEXT() REPRESENTATION_CONTEXT('2D SPACE',''
  ) );
#1236 = PCURVE('',#1109,#1237);
#1237 = DEFINITIONAL_REPRESENTATION('',(#1238),#1242);
#1238 = LINE('',#1239,#1240);
#1239 = CARTESIAN_POINT('',(1.570796326795,0.));
#1240 = VECTOR('',#1241,1.);
#1241 = DIRECTION('',(0.,-1.));
#1242 = ( GEOMETRIC_REPRESENTATION_CONTEXT(2) 
PARAMETRIC_REPRESENTATION_CONTEXT() REPRESENTATION_CONTEXT('2D SPACE',''
  ) );
#1243 = ORIENTED_EDGE('',*,*,#1244,.T.);
#1244 = EDGE_CURVE('',#1222,#1198,#1245,.T.);
#1245 = SURFACE_CURVE('',#1246,(#1250,#1257),.PCURVE_S1.);
#1246 = LINE('',#1247,#1248);
#1247 = CARTESIAN_POINT('',(-7.8,81.2,4.8));
#1248 = VECTOR('',#1249,1.);
#1249 = DIRECTION('',(-2.22044604925E-16,-1.,0.));
#1250 = PCURVE('',#1076,#1251);
#1251 = DEFINITIONAL_REPRESENTATION('',(#1252),#1256);
#1252 = LINE('',#1253,#1254);
#1253 = CARTESIAN_POINT('',(5.4,0.));
#1254 = VECTOR('',#1255,1.);
#1255 = DIRECTION('',(-1.,0.));
#1256 = ( GEOMETRIC_REPRESENTATION_CONTEXT(2) 
PARAMETRIC_REPRESENTATION_CONTEXT() REPRESENTATION_CONTEXT('2D SPACE',''
  ) );
#1257 = PCURVE('',#1258,#1263);
#1258 = PLANE('',#1259);
#1259 = AXIS2_PLACEMENT_3D('',#1260,#1261,#1262);
#1260 = CARTESIAN_POINT('',(-7.,78.5,4.8));
#1261 = DIRECTION('',(0.,0.,1.));
#1262 = DIRECTION('',(2.22044604925E-16,1.,0.));
#1263 = DEFINITIONAL_REPRESENTATION('',(#1264),#1268);
#1264 = LINE('',#1265,#1266);
#1265 = CARTESIAN_POINT('',(2.7,0.8));
#1266 = VECTOR('',#1267,1.);
#1267 = DIRECTION('',(-1.,0.));
#1268 = ( GEOMETRIC_REPRESENTATION_CONTEXT(2) 
PARAMETRIC_REPRESENTATION_CONTEXT() REPRESENTATION_CONTEXT('2D SPACE',''
  ) );
#1269 = ADVANCED_FACE('',(#1270),#1168,.T.);
#1270 = FACE_BOUND('',#1271,.T.);
#1271 = EDGE_LOOP('',(#1272,#1295,#1296,#1297));
#1272 = ORIENTED_EDGE('',*,*,#1273,.T.);
#1273 = EDGE_CURVE('',#1274,#1122,#1276,.T.);
#1274 = VERTEX_POINT('',#1275);
#1275 = CARTESIAN_POINT('',(-6.2,75.8,4.8));
#1276 = SURFACE_CURVE('',#1277,(#1281,#1288),.PCURVE_S1.);
#1277 = LINE('',#1278,#1279);
#1278 = CARTESIAN_POINT('',(-6.2,75.8,4.8));
#1279 = VECTOR('',#1280,1.);
#1280 = DIRECTION('',(0.,0.,1.));
#1281 = PCURVE('',#1168,#1282);
#1282 = DEFINITIONAL_REPRESENTATION('',(#1283),#1287);
#1283 = LINE('',#1284,#1285);
#1284 = CARTESIAN_POINT('',(1.570796326795,0.));
#1285 = VECTOR('',#1286,1.);
#1286 = DIRECTION('',(0.,-1.));
#1287 = ( GEOMETRIC_REPRESENTATION_CONTEXT(2) 
PARAMETRIC_REPRESENTATION_CONTEXT() REPRESENTATION_CONTEXT('2D SPACE',''
  ) );
#1288 = PCURVE('',#1137,#1289);
#1289 = DEFINITIONAL_REPRESENTATION('',(#1290),#1294);
#1290 = LINE('',#1291,#1292);
#1291 = CARTESIAN_POINT('',(-2.7,0.));
#1292 = VECTOR('',#1293,1.);
#1293 = DIRECTION('',(0.,-1.));
#1294 = ( GEOMETRIC_REPRESENTATION_CONTEXT(2) 
PARAMETRIC_REPRESENTATION_CONTEXT() REPRESENTATION_CONTEXT('2D SPACE',''
  ) );
#1295 = ORIENTED_EDGE('',*,*,#1149,.T.);
#1296 = ORIENTED_EDGE('',*,*,#1197,.F.);
#1297 = ORIENTED_EDGE('',*,*,#1298,.F.);
#1298 = EDGE_CURVE('',#1274,#1198,#1299,.T.);
#1299 = SURFACE_CURVE('',#1300,(#1305,#1312),.PCURVE_S1.);
#1300 = CIRCLE('',#1301,0.8);
#1301 = AXIS2_PLACEMENT_3D('',#1302,#1303,#1304);
#1302 = CARTESIAN_POINT('',(-7.,75.8,4.8));
#1303 = DIRECTION('',(0.,0.,-1.));
#1304 = DIRECTION('',(2.22044604925E-16,1.,0.));
#1305 = PCURVE('',#1168,#1306);
#1306 = DEFINITIONAL_REPRESENTATION('',(#1307),#1311);
#1307 = LINE('',#1308,#1309);
#1308 = CARTESIAN_POINT('',(0.,0.));
#1309 = VECTOR('',#1310,1.);
#1310 = DIRECTION('',(1.,0.));
#1311 = ( GEOMETRIC_REPRESENTATION_CONTEXT(2) 
PARAMETRIC_REPRESENTATION_CONTEXT() REPRESENTATION_CONTEXT('2D SPACE',''
  ) );
#1312 = PCURVE('',#1258,#1313);
#1313 = DEFINITIONAL_REPRESENTATION('',(#1314),#1322);
#1314 = ( BOUNDED_CURVE() B_SPLINE_CURVE(2,(#1315,#1316,#1317,#1318,
#1319,#1320,#1321),.UNSPECIFIED.,.T.,.F.) B_SPLINE_CURVE_WITH_KNOTS((1,2
    ,2,2,2,1),(-2.094395102393,0.,2.094395102393,4.188790204786,
6.28318530718,8.377580409573),.UNSPECIFIED.) CURVE() 
GEOMETRIC_REPRESENTATION_ITEM() RATIONAL_B_SPLINE_CURVE((1.,0.5,1.,0.5,
1.,0.5,1.)) REPRESENTATION_ITEM('') );
#1315 = CARTESIAN_POINT('',(-1.9,0.));
#1316 = CARTESIAN_POINT('',(-1.9,-1.385640646055));
#1317 = CARTESIAN_POINT('',(-3.1,-0.692820323028));
#1318 = CARTESIAN_POINT('',(-4.3,-1.959434878636E-16));
#1319 = CARTESIAN_POINT('',(-3.1,0.692820323028));
#1320 = CARTESIAN_POINT('',(-1.9,1.385640646055));
#1321 = CARTESIAN_POINT('',(-1.9,0.));
#1322 = ( GEOMETRIC_REPRESENTATION_CONTEXT(2) 
PARAMETRIC_REPRESENTATION_CONTEXT() REPRESENTATION_CONTEXT('2D SPACE',''
  ) );
#1323 = ADVANCED_FACE('',(#1324),#1137,.F.);
#1324 = FACE_BOUND('',#1325,.F.);
#1325 = EDGE_LOOP('',(#1326,#1349,#1370,#1371));
#1326 = ORIENTED_EDGE('',*,*,#1327,.F.);
#1327 = EDGE_CURVE('',#1328,#1089,#1330,.T.);
#1328 = VERTEX_POINT('',#1329);
#1329 = CARTESIAN_POINT('',(-6.2,81.2,4.8));
#1330 = SURFACE_CURVE('',#1331,(#1335,#1342),.PCURVE_S1.);
#1331 = LINE('',#1332,#1333);
#1332 = CARTESIAN_POINT('',(-6.2,81.2,4.8));
#1333 = VECTOR('',#1334,1.);
#1334 = DIRECTION('',(0.,0.,1.));
#1335 = PCURVE('',#1137,#1336);
#1336 = DEFINITIONAL_REPRESENTATION('',(#1337),#1341);
#1337 = LINE('',#1338,#1339);
#1338 = CARTESIAN_POINT('',(2.7,0.));
#1339 = VECTOR('',#1340,1.);
#1340 = DIRECTION('',(0.,-1.));
#1341 = ( GEOMETRIC_REPRESENTATION_CONTEXT(2) 
PARAMETRIC_REPRESENTATION_CONTEXT() REPRESENTATION_CONTEXT('2D SPACE',''
  ) );
#1342 = PCURVE('',#1109,#1343);
#1343 = DEFINITIONAL_REPRESENTATION('',(#1344),#1348);
#1344 = LINE('',#1345,#1346);
#1345 = CARTESIAN_POINT('',(4.712388980385,0.));
#1346 = VECTOR('',#1347,1.);
#1347 = DIRECTION('',(0.,-1.));
#1348 = ( GEOMETRIC_REPRESENTATION_CONTEXT(2) 
PARAMETRIC_REPRESENTATION_CONTEXT() REPRESENTATION_CONTEXT('2D SPACE',''
  ) );
#1349 = ORIENTED_EDGE('',*,*,#1350,.F.);
#1350 = EDGE_CURVE('',#1274,#1328,#1351,.T.);
#1351 = SURFACE_CURVE('',#1352,(#1356,#1363),.PCURVE_S1.);
#1352 = LINE('',#1353,#1354);
#1353 = CARTESIAN_POINT('',(-6.2,75.8,4.8));
#1354 = VECTOR('',#1355,1.);
#1355 = DIRECTION('',(2.22044604925E-16,1.,0.));
#1356 = PCURVE('',#1137,#1357);
#1357 = DEFINITIONAL_REPRESENTATION('',(#1358),#1362);
#1358 = LINE('',#1359,#1360);
#1359 = CARTESIAN_POINT('',(-2.7,0.));
#1360 = VECTOR('',#1361,1.);
#1361 = DIRECTION('',(1.,0.));
#1362 = ( GEOMETRIC_REPRESENTATION_CONTEXT(2) 
PARAMETRIC_REPRESENTATION_CONTEXT() REPRESENTATION_CONTEXT('2D SPACE',''
  ) );
#1363 = PCURVE('',#1258,#1364);
#1364 = DEFINITIONAL_REPRESENTATION('',(#1365),#1369);
#1365 = LINE('',#1366,#1367);
#1366 = CARTESIAN_POINT('',(-2.7,-0.8));
#1367 = VECTOR('',#1368,1.);
#1368 = DIRECTION('',(1.,0.));
#1369 = ( GEOMETRIC_REPRESENTATION_CONTEXT(2) 
PARAMETRIC_REPRESENTATION_CONTEXT() REPRESENTATION_CONTEXT('2D SPACE',''
  ) );
#1370 = ORIENTED_EDGE('',*,*,#1273,.T.);
#1371 = ORIENTED_EDGE('',*,*,#1121,.F.);
#1372 = ADVANCED_FACE('',(#1373),#1109,.T.);
#1373 = FACE_BOUND('',#1374,.T.);
#1374 = EDGE_LOOP('',(#1375,#1376,#1377,#1378));
#1375 = ORIENTED_EDGE('',*,*,#1221,.T.);
#1376 = ORIENTED_EDGE('',*,*,#1088,.T.);
#1377 = ORIENTED_EDGE('',*,*,#1327,.F.);
#1378 = ORIENTED_EDGE('',*,*,#1379,.F.);
#1379 = EDGE_CURVE('',#1222,#1328,#1380,.T.);
#1380 = SURFACE_CURVE('',#1381,(#1386,#1393),.PCURVE_S1.);
#1381 = CIRCLE('',#1382,0.8);
#1382 = AXIS2_PLACEMENT_3D('',#1383,#1384,#1385);
#1383 = CARTESIAN_POINT('',(-7.,81.2,4.8));
#1384 = DIRECTION('',(-0.,0.,-1.));
#1385 = DIRECTION('',(-2.22044604925E-16,-1.,0.));
#1386 = PCURVE('',#1109,#1387);
#1387 = DEFINITIONAL_REPRESENTATION('',(#1388),#1392);
#1388 = LINE('',#1389,#1390);
#1389 = CARTESIAN_POINT('',(0.,0.));
#1390 = VECTOR('',#1391,1.);
#1391 = DIRECTION('',(1.,0.));
#1392 = ( GEOMETRIC_REPRESENTATION_CONTEXT(2) 
PARAMETRIC_REPRESENTATION_CONTEXT() REPRESENTATION_CONTEXT('2D SPACE',''
  ) );
#1393 = PCURVE('',#1258,#1394);
#1394 = DEFINITIONAL_REPRESENTATION('',(#1395),#1403);
#1395 = ( BOUNDED_CURVE() B_SPLINE_CURVE(2,(#1396,#1397,#1398,#1399,
#1400,#1401,#1402),.UNSPECIFIED.,.T.,.F.) B_SPLINE_CURVE_WITH_KNOTS((1,2
    ,2,2,2,1),(-2.094395102393,0.,2.094395102393,4.188790204786,
6.28318530718,8.377580409573),.UNSPECIFIED.) CURVE() 
GEOMETRIC_REPRESENTATION_ITEM() RATIONAL_B_SPLINE_CURVE((1.,0.5,1.,0.5,
1.,0.5,1.)) REPRESENTATION_ITEM('') );
#1396 = CARTESIAN_POINT('',(1.9,0.));
#1397 = CARTESIAN_POINT('',(1.9,1.385640646055));
#1398 = CARTESIAN_POINT('',(3.1,0.692820323028));
#1399 = CARTESIAN_POINT('',(4.3,1.959434878636E-16));
#1400 = CARTESIAN_POINT('',(3.1,-0.692820323028));
#1401 = CARTESIAN_POINT('',(1.9,-1.385640646055));
#1402 = CARTESIAN_POINT('',(1.9,0.));
#1403 = ( GEOMETRIC_REPRESENTATION_CONTEXT(2) 
PARAMETRIC_REPRESENTATION_CONTEXT() REPRESENTATION_CONTEXT('2D SPACE',''
  ) );
#1404 = ADVANCED_FACE('',(#1405),#1258,.F.);
#1405 = FACE_BOUND('',#1406,.T.);
#1406 = EDGE_LOOP('',(#1407,#1408,#1409,#1410));
#1407 = ORIENTED_EDGE('',*,*,#1379,.T.);
#1408 = ORIENTED_EDGE('',*,*,#1350,.F.);
#1409 = ORIENTED_EDGE('',*,*,#1298,.T.);
#1410 = ORIENTED_EDGE('',*,*,#1244,.F.);
#1411 = ( GEOMETRIC_REPRESENTATION_CONTEXT(3) 
GLOBAL_UNCERTAINTY_ASSIGNED_CONTEXT((#1415)) 
GLOBAL_UNIT_ASSIGNED_CONTEXT((#1412,#1413,#1414)) REPRESENTATION_CONTEXT
('Context #1','3D Context with UNIT and UNCERTAINTY') );
#1412 = ( LENGTH_UNIT() NAMED_UNIT(*) SI_UNIT(.MILLI.,.METRE.) );
#1413 = ( NAMED_UNIT(*) PLANE_ANGLE_UNIT() SI_UNIT($,.RADIAN.) );
#1414 = ( NAMED_UNIT(*) SI_UNIT($,.STERADIAN.) SOLID_ANGLE_UNIT() );
#1415 = UNCERTAINTY_MEASURE_WITH_UNIT(LENGTH_MEASURE(1.E-07),#1412,
  'distance_accuracy_value','confusion accuracy');
#1416 = CONTEXT_DEPENDENT_SHAPE_REPRESENTATION(#1417,#1419);
#1417 = ( REPRESENTATION_RELATIONSHIP('','',#32,#10) 
REPRESENTATION_RELATIONSHIP_WITH_TRANSFORMATION(#1418) 
SHAPE_REPRESENTATION_RELATIONSHIP() );
#1418 = ITEM_DEFINED_TRANSFORMATION('','',#11,#15);
#1419 = PRODUCT_DEFINITION_SHAPE('Placement','Placement of an item',
  #1420);
#1420 = NEXT_ASSEMBLY_USAGE_OCCURRENCE('82','=>[0:1:1:2]','',#5,#27,$);
#1421 = PRODUCT_RELATED_PRODUCT_CATEGORY('part',$,(#29));
#1422 = MECHANICAL_DESIGN_GEOMETRIC_PRESENTATION_REPRESENTATION('',(
    #1423),#1411);
#1423 = STYLED_ITEM('color',(#1424),#33);
#1424 = PRESENTATION_STYLE_ASSIGNMENT((#1425));
#1425 = SURFACE_STYLE_USAGE(.BOTH.,#1426);
#1426 = SURFACE_SIDE_STYLE('',(#1427));
#1427 = SURFACE_STYLE_FILL_AREA(#1428);
#1428 = FILL_AREA_STYLE('',(#1429));
#1429 = FILL_AREA_STYLE_COLOUR('',#1430);
#1430 = COLOUR_RGB('',0.599999994755,0.389999993588,0.199999998682);

#1431=DESCRIPTIVE_REPRESENTATION_ITEM('cadgen:generator','cadgen');
#1432=REPRESENTATION('cadgen:generator',(#1431),#19);
#1433=PROPERTY_DEFINITION('cadgen metadata','cadgen:generator',#5);
#1434=PROPERTY_DEFINITION_REPRESENTATION(#1433,#1432);
#1435=DESCRIPTIVE_REPRESENTATION_ITEM('cadgen:entryKind','part');
#1436=REPRESENTATION('cadgen:entryKind',(#1435),#19);
#1437=PROPERTY_DEFINITION('cadgen metadata','cadgen:entryKind',#5);
#1438=PROPERTY_DEFINITION_REPRESENTATION(#1437,#1436);
#1439=DESCRIPTIVE_REPRESENTATION_ITEM('cadgen:sourcePath','part_lane_12_cocoa_brown.step.py');
#1440=REPRESENTATION('cadgen:sourcePath',(#1439),#19);
#1441=PROPERTY_DEFINITION('cadgen metadata','cadgen:sourcePath',#5);
#1442=PROPERTY_DEFINITION_REPRESENTATION(#1441,#1440);
#1443=DESCRIPTIVE_REPRESENTATION_ITEM('cadgen:sourceHash','ac3f2b1782e14a189924e19ecc98bd41f265cc0e8cd1c0b07bcf8955126ee990');
#1444=REPRESENTATION('cadgen:sourceHash',(#1443),#19);
#1445=PROPERTY_DEFINITION('cadgen metadata','cadgen:sourceHash',#5);
#1446=PROPERTY_DEFINITION_REPRESENTATION(#1445,#1444);
ENDSEC;
END-ISO-10303-21;
