ISO-10303-21;
HEADER;
FILE_DESCRIPTION(('Open CASCADE Model'),'2;1');
FILE_NAME('lane_19_yellow','1970-01-01T00:00:00',('Author'),(
    'Open CASCADE'),'Open CASCADE STEP processor 7.9','cadgen','Unknown'
  );
FILE_SCHEMA(('AUTOMOTIVE_DESIGN { 1 0 10303 214 1 1 1 1 }'));
ENDSEC;
DATA;
#1 = APPLICATION_PROTOCOL_DEFINITION('international standard',
  'automotive_design',2000,#2);
#2 = APPLICATION_CONTEXT(
  'core data for automotive mechanical design processes');
#3 = SHAPE_DEFINITION_REPRESENTATION(#4,#10);
#4 = PRODUCT_DEFINITION_SHAPE('','',#5);
#5 = PRODUCT_DEFINITION('design','',#6,#9);
#6 = PRODUCT_DEFINITION_FORMATION('','',#7);
#7 = PRODUCT('=>[0:1:1:2]','=>[0:1:1:2]','',(#8));
#8 = PRODUCT_CONTEXT('',#2,'mechanical');
#9 = PRODUCT_DEFINITION_CONTEXT('part definition',#2,'design');
#10 = SHAPE_REPRESENTATION('',(#11,#15),#19);
#11 = AXIS2_PLACEMENT_3D('',#12,#13,#14);
#12 = CARTESIAN_POINT('',(0.,0.,0.));
#13 = DIRECTION('',(0.,0.,1.));
#14 = DIRECTION('',(1.,0.,-0.));
#15 = AXIS2_PLACEMENT_3D('',#16,#17,#18);
#16 = CARTESIAN_POINT('',(0.,0.,8.8));
#17 = DIRECTION('',(0.,-1.224646799147E-16,-1.));
#18 = DIRECTION('',(1.,0.,0.));
#19 = ( GEOMETRIC_REPRESENTATION_CONTEXT(3) 
GLOBAL_UNCERTAINTY_ASSIGNED_CONTEXT((#23)) GLOBAL_UNIT_ASSIGNED_CONTEXT(
(#20,#21,#22)) REPRESENTATION_CONTEXT('Context #1',
  '3D Context with UNIT and UNCERTAINTY') );
#20 = ( LENGTH_UNIT() NAMED_UNIT(*) SI_UNIT(.MILLI.,.METRE.) );
#21 = ( NAMED_UNIT(*) PLANE_ANGLE_UNIT() SI_UNIT($,.RADIAN.) );
#22 = ( NAMED_UNIT(*) SI_UNIT($,.STERADIAN.) SOLID_ANGLE_UNIT() );
#23 = UNCERTAINTY_MEASURE_WITH_UNIT(LENGTH_MEASURE(1.E-07),#20,
  'distance_accuracy_value','confusion accuracy');
#24 = PRODUCT_RELATED_PRODUCT_CATEGORY('part',$,(#7));
#25 = SHAPE_DEFINITION_REPRESENTATION(#26,#32);
#26 = PRODUCT_DEFINITION_SHAPE('','',#27);
#27 = PRODUCT_DEFINITION('design','',#28,#31);
#28 = PRODUCT_DEFINITION_FORMATION('','',#29);
#29 = PRODUCT('lane_19_yellow','lane_19_yellow','',(#30));
#30 = PRODUCT_CONTEXT('',#2,'mechanical');
#31 = PRODUCT_DEFINITION_CONTEXT('part definition',#2,'design');
#32 = ADVANCED_BREP_SHAPE_REPRESENTATION('',(#11,#33),#1426);
#33 = MANIFOLD_SOLID_BREP('',#34);
#34 = CLOSED_SHELL('',(#35,#155,#306,#471,#607,#687,#735,#810,#842,#919,
    #1015,#1042,#1194,#1201,#1208,#1284,#1338,#1387,#1419));
#35 = ADVANCED_FACE('',(#36),#50,.F.);
#36 = FACE_BOUND('',#37,.F.);
#37 = EDGE_LOOP('',(#38,#73,#101,#129));
#38 = ORIENTED_EDGE('',*,*,#39,.F.);
#39 = EDGE_CURVE('',#40,#42,#44,.T.);
#40 = VERTEX_POINT('',#41);
#41 = CARTESIAN_POINT('',(-88.95234147946,-12.66899543456,8.));
#42 = VERTEX_POINT('',#43);
#43 = CARTESIAN_POINT('',(-88.95234147946,-12.66899543456,8.65));
#44 = SURFACE_CURVE('',#45,(#49,#61),.PCURVE_S1.);
#45 = LINE('',#46,#47);
#46 = CARTESIAN_POINT('',(-88.95234147946,-12.66899543456,6.));
#47 = VECTOR('',#48,1.);
#48 = DIRECTION('',(0.,0.,1.));
#49 = PCURVE('',#50,#55);
#50 = PLANE('',#51);
#51 = AXIS2_PLACEMENT_3D('',#52,#53,#54);
#52 = CARTESIAN_POINT('',(-26.1324008937,-4.398593358163,6.));
#53 = DIRECTION('',(0.13052619222,-0.991444861374,0.));
#54 = DIRECTION('',(-0.991444861374,-0.13052619222,0.));
#55 = DEFINITIONAL_REPRESENTATION('',(#56),#60);
#56 = LINE('',#57,#58);
#57 = CARTESIAN_POINT('',(63.362011376715,0.));
#58 = VECTOR('',#59,1.);
#59 = DIRECTION('',(0.,-1.));
#60 = ( GEOMETRIC_REPRESENTATION_CONTEXT(2) 
PARAMETRIC_REPRESENTATION_CONTEXT() REPRESENTATION_CONTEXT('2D SPACE',''
  ) );
#61 = PCURVE('',#62,#67);
#62 = CYLINDRICAL_SURFACE('',#63,89.850000000001);
#63 = AXIS2_PLACEMENT_3D('',#64,#65,#66);
#64 = CARTESIAN_POINT('',(8.711363766662E-13,2.605341190208E-13,6.));
#65 = DIRECTION('',(-0.,-0.,-1.));
#66 = DIRECTION('',(-0.990009365381,-0.141001618637,0.));
#67 = DEFINITIONAL_REPRESENTATION('',(#68),#72);
#68 = LINE('',#69,#70);
#69 = CARTESIAN_POINT('',(-0.,0.));
#70 = VECTOR('',#71,1.);
#71 = DIRECTION('',(-0.,-1.));
#72 = ( GEOMETRIC_REPRESENTATION_CONTEXT(2) 
PARAMETRIC_REPRESENTATION_CONTEXT() REPRESENTATION_CONTEXT('2D SPACE',''
  ) );
#73 = ORIENTED_EDGE('',*,*,#74,.F.);
#74 = EDGE_CURVE('',#75,#40,#77,.T.);
#75 = VERTEX_POINT('',#76);
#76 = CARTESIAN_POINT('',(-26.1324008937,-4.398593358163,8.));
#77 = SURFACE_CURVE('',#78,(#82,#89),.PCURVE_S1.);
#78 = LINE('',#79,#80);
#79 = CARTESIAN_POINT('',(0.123999882609,-0.941872618305,8.));
#80 = VECTOR('',#81,1.);
#81 = DIRECTION('',(-0.991444861374,-0.13052619222,0.));
#82 = PCURVE('',#50,#83);
#83 = DEFINITIONAL_REPRESENTATION('',(#84),#88);
#84 = LINE('',#85,#86);
#85 = CARTESIAN_POINT('',(-26.48296622359,-2.));
#86 = VECTOR('',#87,1.);
#87 = DIRECTION('',(1.,0.));
#88 = ( GEOMETRIC_REPRESENTATION_CONTEXT(2) 
PARAMETRIC_REPRESENTATION_CONTEXT() REPRESENTATION_CONTEXT('2D SPACE',''
  ) );
#89 = PCURVE('',#90,#95);
#90 = PLANE('',#91);
#91 = AXIS2_PLACEMENT_3D('',#92,#93,#94);
#92 = CARTESIAN_POINT('',(0.202315597941,-1.536739535129,6.));
#93 = DIRECTION('',(-0.125021417818,0.949631948571,-0.287347885566));
#94 = DIRECTION('',(-3.750642534546E-02,0.284889584571,0.957826285221));
#95 = DEFINITIONAL_REPRESENTATION('',(#96),#100);
#96 = LINE('',#97,#98);
#97 = CARTESIAN_POINT('',(2.088061301782,0.));
#98 = VECTOR('',#99,1.);
#99 = DIRECTION('',(0.,-1.));
#100 = ( GEOMETRIC_REPRESENTATION_CONTEXT(2) 
PARAMETRIC_REPRESENTATION_CONTEXT() REPRESENTATION_CONTEXT('2D SPACE',''
  ) );
#101 = ORIENTED_EDGE('',*,*,#102,.T.);
#102 = EDGE_CURVE('',#75,#103,#105,.T.);
#103 = VERTEX_POINT('',#104);
#104 = CARTESIAN_POINT('',(-26.1324008937,-4.398593358163,8.65));
#105 = SURFACE_CURVE('',#106,(#110,#117),.PCURVE_S1.);
#106 = LINE('',#107,#108);
#107 = CARTESIAN_POINT('',(-26.1324008937,-4.398593358163,6.));
#108 = VECTOR('',#109,1.);
#109 = DIRECTION('',(0.,0.,1.));
#110 = PCURVE('',#50,#111);
#111 = DEFINITIONAL_REPRESENTATION('',(#112),#116);
#112 = LINE('',#113,#114);
#113 = CARTESIAN_POINT('',(0.,0.));
#114 = VECTOR('',#115,1.);
#115 = DIRECTION('',(0.,-1.));
#116 = ( GEOMETRIC_REPRESENTATION_CONTEXT(2) 
PARAMETRIC_REPRESENTATION_CONTEXT() REPRESENTATION_CONTEXT('2D SPACE',''
  ) );
#117 = PCURVE('',#118,#123);
#118 = CYLINDRICAL_SURFACE('',#119,26.499999999999);
#119 = AXIS2_PLACEMENT_3D('',#120,#121,#122);
#120 = CARTESIAN_POINT('',(-4.883232723612E-13,-1.358174253458E-13,6.));
#121 = DIRECTION('',(0.,0.,-1.));
#122 = DIRECTION('',(-0.931623013032,-0.363426143237,-0.));
#123 = DEFINITIONAL_REPRESENTATION('',(#124),#128);
#124 = LINE('',#125,#126);
#125 = CARTESIAN_POINT('',(0.205186440839,0.));
#126 = VECTOR('',#127,1.);
#127 = DIRECTION('',(0.,-1.));
#128 = ( GEOMETRIC_REPRESENTATION_CONTEXT(2) 
PARAMETRIC_REPRESENTATION_CONTEXT() REPRESENTATION_CONTEXT('2D SPACE',''
  ) );
#129 = ORIENTED_EDGE('',*,*,#130,.T.);
#130 = EDGE_CURVE('',#103,#42,#131,.T.);
#131 = SURFACE_CURVE('',#132,(#136,#143),.PCURVE_S1.);
#132 = LINE('',#133,#134);
#133 = CARTESIAN_POINT('',(-26.1324008937,-4.398593358163,8.65));
#134 = VECTOR('',#135,1.);
#135 = DIRECTION('',(-0.991444861374,-0.13052619222,0.));
#136 = PCURVE('',#50,#137);
#137 = DEFINITIONAL_REPRESENTATION('',(#138),#142);
#138 = LINE('',#139,#140);
#139 = CARTESIAN_POINT('',(0.,-2.65));
#140 = VECTOR('',#141,1.);
#141 = DIRECTION('',(1.,0.));
#142 = ( GEOMETRIC_REPRESENTATION_CONTEXT(2) 
PARAMETRIC_REPRESENTATION_CONTEXT() REPRESENTATION_CONTEXT('2D SPACE',''
  ) );
#143 = PCURVE('',#144,#149);
#144 = CYLINDRICAL_SURFACE('',#145,0.15);
#145 = AXIS2_PLACEMENT_3D('',#146,#147,#148);
#146 = CARTESIAN_POINT('',(-26.11282196487,-4.547310087369,8.65));
#147 = DIRECTION('',(-0.991444861374,-0.13052619222,0.));
#148 = DIRECTION('',(-0.13052619222,0.991444861374,0.));
#149 = DEFINITIONAL_REPRESENTATION('',(#150),#154);
#150 = LINE('',#151,#152);
#151 = CARTESIAN_POINT('',(-0.,0.));
#152 = VECTOR('',#153,1.);
#153 = DIRECTION('',(-0.,1.));
#154 = ( GEOMETRIC_REPRESENTATION_CONTEXT(2) 
PARAMETRIC_REPRESENTATION_CONTEXT() REPRESENTATION_CONTEXT('2D SPACE',''
  ) );
#155 = ADVANCED_FACE('',(#156),#62,.T.);
#156 = FACE_BOUND('',#157,.F.);
#157 = EDGE_LOOP('',(#158,#159,#188,#216,#248,#281));
#158 = ORIENTED_EDGE('',*,*,#39,.T.);
#159 = ORIENTED_EDGE('',*,*,#160,.T.);
#160 = EDGE_CURVE('',#42,#161,#163,.T.);
#161 = VERTEX_POINT('',#162);
#162 = CARTESIAN_POINT('',(-83.21949664645,-33.87532845466,8.65));
#163 = SURFACE_CURVE('',#164,(#169,#176),.PCURVE_S1.);
#164 = CIRCLE('',#165,89.850000000001);
#165 = AXIS2_PLACEMENT_3D('',#166,#167,#168);
#166 = CARTESIAN_POINT('',(8.739675649849E-13,2.593480985524E-13,8.65));
#167 = DIRECTION('',(0.,0.,1.));
#168 = DIRECTION('',(-0.990009365381,-0.141001618637,0.));
#169 = PCURVE('',#62,#170);
#170 = DEFINITIONAL_REPRESENTATION('',(#171),#175);
#171 = LINE('',#172,#173);
#172 = CARTESIAN_POINT('',(-2.161712010401E-17,-2.65));
#173 = VECTOR('',#174,1.);
#174 = DIRECTION('',(-1.,0.));
#175 = ( GEOMETRIC_REPRESENTATION_CONTEXT(2) 
PARAMETRIC_REPRESENTATION_CONTEXT() REPRESENTATION_CONTEXT('2D SPACE',''
  ) );
#176 = PCURVE('',#177,#182);
#177 = TOROIDAL_SURFACE('',#178,89.700000000001,0.15);
#178 = AXIS2_PLACEMENT_3D('',#179,#180,#181);
#179 = CARTESIAN_POINT('',(8.739675649849E-13,2.593480985524E-13,8.65));
#180 = DIRECTION('',(0.,0.,1.));
#181 = DIRECTION('',(-0.990009365381,-0.141001618637,0.));
#182 = DEFINITIONAL_REPRESENTATION('',(#183),#187);
#183 = LINE('',#184,#185);
#184 = CARTESIAN_POINT('',(0.,0.));
#185 = VECTOR('',#186,1.);
#186 = DIRECTION('',(1.,0.));
#187 = ( GEOMETRIC_REPRESENTATION_CONTEXT(2) 
PARAMETRIC_REPRESENTATION_CONTEXT() REPRESENTATION_CONTEXT('2D SPACE',''
  ) );
#188 = ORIENTED_EDGE('',*,*,#189,.F.);
#189 = EDGE_CURVE('',#190,#161,#192,.T.);
#190 = VERTEX_POINT('',#191);
#191 = CARTESIAN_POINT('',(-83.21949664645,-33.87532845466,8.));
#192 = SURFACE_CURVE('',#193,(#197,#204),.PCURVE_S1.);
#193 = LINE('',#194,#195);
#194 = CARTESIAN_POINT('',(-83.21949664645,-33.87532845466,6.));
#195 = VECTOR('',#196,1.);
#196 = DIRECTION('',(0.,0.,1.));
#197 = PCURVE('',#62,#198);
#198 = DEFINITIONAL_REPRESENTATION('',(#199),#203);
#199 = LINE('',#200,#201);
#200 = CARTESIAN_POINT('',(-0.245104661743,0.));
#201 = VECTOR('',#202,1.);
#202 = DIRECTION('',(-0.,-1.));
#203 = ( GEOMETRIC_REPRESENTATION_CONTEXT(2) 
PARAMETRIC_REPRESENTATION_CONTEXT() REPRESENTATION_CONTEXT('2D SPACE',''
  ) );
#204 = PCURVE('',#205,#210);
#205 = PLANE('',#206);
#206 = AXIS2_PLACEMENT_3D('',#207,#208,#209);
#207 = CARTESIAN_POINT('',(-83.21949664645,-33.87532845466,6.));
#208 = DIRECTION('',(-0.382683432365,0.923879532511,0.));
#209 = DIRECTION('',(0.923879532511,0.382683432365,0.));
#210 = DEFINITIONAL_REPRESENTATION('',(#211),#215);
#211 = LINE('',#212,#213);
#212 = CARTESIAN_POINT('',(1.312911781087E-14,0.));
#213 = VECTOR('',#214,1.);
#214 = DIRECTION('',(0.,-1.));
#215 = ( GEOMETRIC_REPRESENTATION_CONTEXT(2) 
PARAMETRIC_REPRESENTATION_CONTEXT() REPRESENTATION_CONTEXT('2D SPACE',''
  ) );
#216 = ORIENTED_EDGE('',*,*,#217,.T.);
#217 = EDGE_CURVE('',#190,#218,#220,.T.);
#218 = VERTEX_POINT('',#219);
#219 = CARTESIAN_POINT('',(-83.24209981511,-33.81974746165,7.8));
#220 = SURFACE_CURVE('',#221,(#226,#236),.PCURVE_S1.);
#221 = ELLIPSE('',#222,312.68717994187,89.850000000001);
#222 = AXIS2_PLACEMENT_3D('',#223,#224,#225);
#223 = CARTESIAN_POINT('',(8.711363766662E-13,2.605341190208E-13,
    9.833333333334));
#224 = DIRECTION('',(0.366544250438,-0.884916100617,-0.287347885566));
#225 = DIRECTION('',(-0.109963275131,0.265474830185,-0.957826285221));
#226 = PCURVE('',#62,#227);
#227 = DEFINITIONAL_REPRESENTATION('',(#228),#235);
#228 = B_SPLINE_CURVE_WITH_KNOTS('',5,(#229,#230,#231,#232,#233,#234),
  .UNSPECIFIED.,.F.,.F.,(6,6),(4.718510331913,4.719178127475),
  .PIECEWISE_BEZIER_KNOTS.);
#229 = CARTESIAN_POINT('',(-0.245104661743,-2.));
#230 = CARTESIAN_POINT('',(-0.24497110263,-1.959999795269));
#231 = CARTESIAN_POINT('',(-0.244837543518,-1.919999631417));
#232 = CARTESIAN_POINT('',(-0.244703984406,-1.879999509932));
#233 = CARTESIAN_POINT('',(-0.244570425293,-1.839999432296));
#234 = CARTESIAN_POINT('',(-0.244436866181,-1.7999994));
#235 = ( GEOMETRIC_REPRESENTATION_CONTEXT(2) 
PARAMETRIC_REPRESENTATION_CONTEXT() REPRESENTATION_CONTEXT('2D SPACE',''
  ) );
#236 = PCURVE('',#237,#242);
#237 = PLANE('',#238);
#238 = AXIS2_PLACEMENT_3D('',#239,#240,#241);
#239 = CARTESIAN_POINT('',(-0.210475887801,0.508133742881,8.));
#240 = DIRECTION('',(0.366544250438,-0.884916100617,-0.287347885566));
#241 = DIRECTION('',(-0.109963275131,0.265474830185,-0.957826285221));
#242 = DEFINITIONAL_REPRESENTATION('',(#243),#247);
#243 = ELLIPSE('',#244,312.68717994187,89.850000000001);
#244 = AXIS2_PLACEMENT_2D('',#245,#246);
#245 = CARTESIAN_POINT('',(-1.914056193301,9.045672897505E-13));
#246 = DIRECTION('',(1.,-2.728215600797E-18));
#247 = ( GEOMETRIC_REPRESENTATION_CONTEXT(2) 
PARAMETRIC_REPRESENTATION_CONTEXT() REPRESENTATION_CONTEXT('2D SPACE',''
  ) );
#248 = ORIENTED_EDGE('',*,*,#249,.T.);
#249 = EDGE_CURVE('',#218,#250,#252,.T.);
#250 = VERTEX_POINT('',#251);
#251 = CARTESIAN_POINT('',(-88.94386104394,-12.72839670168,7.8));
#252 = SURFACE_CURVE('',#253,(#258,#265),.PCURVE_S1.);
#253 = CIRCLE('',#254,89.850000000001);
#254 = AXIS2_PLACEMENT_3D('',#255,#256,#257);
#255 = CARTESIAN_POINT('',(8.711363766662E-13,2.605341190208E-13,7.8));
#256 = DIRECTION('',(-0.,0.,-1.));
#257 = DIRECTION('',(-0.990009365381,-0.141001618637,0.));
#258 = PCURVE('',#62,#259);
#259 = DEFINITIONAL_REPRESENTATION('',(#260),#264);
#260 = LINE('',#261,#262);
#261 = CARTESIAN_POINT('',(-6.28318530718,-1.8));
#262 = VECTOR('',#263,1.);
#263 = DIRECTION('',(1.,-0.));
#264 = ( GEOMETRIC_REPRESENTATION_CONTEXT(2) 
PARAMETRIC_REPRESENTATION_CONTEXT() REPRESENTATION_CONTEXT('2D SPACE',''
  ) );
#265 = PCURVE('',#266,#271);
#266 = PLANE('',#267);
#267 = AXIS2_PLACEMENT_3D('',#268,#269,#270);
#268 = CARTESIAN_POINT('',(0.,0.,7.8));
#269 = DIRECTION('',(0.,0.,1.));
#270 = DIRECTION('',(1.,0.,-0.));
#271 = DEFINITIONAL_REPRESENTATION('',(#272),#280);
#272 = ( BOUNDED_CURVE() B_SPLINE_CURVE(2,(#273,#274,#275,#276,#277,#278
,#279),.UNSPECIFIED.,.T.,.F.) B_SPLINE_CURVE_WITH_KNOTS((1,2,2,2,2,1),(
    -2.094395102393,0.,2.094395102393,4.188790204786,6.28318530718,
8.377580409573),.UNSPECIFIED.) CURVE() GEOMETRIC_REPRESENTATION_ITEM() 
RATIONAL_B_SPLINE_CURVE((1.,0.5,1.,0.5,1.,0.5,1.)) REPRESENTATION_ITEM(
  '') );
#273 = CARTESIAN_POINT('',(-88.95234147946,-12.66899543456));
#274 = CARTESIAN_POINT('',(-110.8956852529,141.40097946007));
#275 = CARTESIAN_POINT('',(33.504498852966,83.369485164608));
#276 = CARTESIAN_POINT('',(177.90468295892,25.337990869139));
#277 = CARTESIAN_POINT('',(55.447842626499,-70.70048973003));
#278 = CARTESIAN_POINT('',(-67.00899770593,-166.7389703292));
#279 = CARTESIAN_POINT('',(-88.95234147946,-12.66899543456));
#280 = ( GEOMETRIC_REPRESENTATION_CONTEXT(2) 
PARAMETRIC_REPRESENTATION_CONTEXT() REPRESENTATION_CONTEXT('2D SPACE',''
  ) );
#281 = ORIENTED_EDGE('',*,*,#282,.T.);
#282 = EDGE_CURVE('',#250,#40,#283,.T.);
#283 = SURFACE_CURVE('',#284,(#289,#299),.PCURVE_S1.);
#284 = ELLIPSE('',#285,312.68717994187,89.850000000001);
#285 = AXIS2_PLACEMENT_3D('',#286,#287,#288);
#286 = CARTESIAN_POINT('',(8.711363766662E-13,2.605341190208E-13,
    11.166666666667));
#287 = DIRECTION('',(-0.125021417818,0.949631948571,-0.287347885566));
#288 = DIRECTION('',(3.750642534546E-02,-0.284889584571,-0.957826285221)
  );
#289 = PCURVE('',#62,#290);
#290 = DEFINITIONAL_REPRESENTATION('',(#291),#298);
#291 = B_SPLINE_CURVE_WITH_KNOTS('',5,(#292,#293,#294,#295,#296,#297),
  .UNSPECIFIED.,.F.,.F.,(6,6),(1.559555130894,1.560222952267),
  .PIECEWISE_BEZIER_KNOTS.);
#292 = CARTESIAN_POINT('',(-6.678213730527E-04,-1.7999994));
#293 = CARTESIAN_POINT('',(-5.342570984421E-04,-1.839999372825));
#294 = CARTESIAN_POINT('',(-4.006928238319E-04,-1.879999420724));
#295 = CARTESIAN_POINT('',(-2.671285492208E-04,-1.91999954221));
#296 = CARTESIAN_POINT('',(-1.335642746106E-04,-1.959999735798));
#297 = CARTESIAN_POINT('',(-6.11576173639E-17,-2.));
#298 = ( GEOMETRIC_REPRESENTATION_CONTEXT(2) 
PARAMETRIC_REPRESENTATION_CONTEXT() REPRESENTATION_CONTEXT('2D SPACE',''
  ) );
#299 = PCURVE('',#90,#300);
#300 = DEFINITIONAL_REPRESENTATION('',(#301),#305);
#301 = ELLIPSE('',#302,312.68717994187,89.850000000001);
#302 = AXIS2_PLACEMENT_2D('',#303,#304);
#303 = CARTESIAN_POINT('',(5.394158362938,8.976636173168E-13));
#304 = DIRECTION('',(-1.,1.418488545455E-20));
#305 = ( GEOMETRIC_REPRESENTATION_CONTEXT(2) 
PARAMETRIC_REPRESENTATION_CONTEXT() REPRESENTATION_CONTEXT('2D SPACE',''
  ) );
#306 = ADVANCED_FACE('',(#307),#144,.T.);
#307 = FACE_BOUND('',#308,.F.);
#308 = EDGE_LOOP('',(#309,#379,#407,#470));
#309 = ORIENTED_EDGE('',*,*,#310,.T.);
#310 = EDGE_CURVE('',#103,#311,#313,.T.);
#311 = VERTEX_POINT('',#312);
#312 = CARTESIAN_POINT('',(-26.25590967708,-4.566147942056,8.8));
#313 = SURFACE_CURVE('',#314,(#332,#353),.PCURVE_S1.);
#314 = B_SPLINE_CURVE_WITH_KNOTS('',6,(#315,#316,#317,#318,#319,#320,
    #321,#322,#323,#324,#325,#326,#327,#328,#329,#330,#331),
  .UNSPECIFIED.,.F.,.F.,(7,5,5,7),(0.,0.49800887912,0.93933035167,1.),
  .UNSPECIFIED.);
#315 = CARTESIAN_POINT('',(-26.1324008937,-4.398593358163,8.65));
#316 = CARTESIAN_POINT('',(-26.1324008937,-4.398593358163,8.669657020302
    ));
#317 = CARTESIAN_POINT('',(-26.13495413951,-4.402047308268,
    8.689315362067));
#318 = CARTESIAN_POINT('',(-26.14006161452,-4.408956499,8.708351672943)
  );
#319 = CARTESIAN_POINT('',(-26.14757503835,-4.419123522961,
    8.726147129024));
#320 = CARTESIAN_POINT('',(-26.15721165923,-4.432171666679,
    8.742168682474));
#321 = CARTESIAN_POINT('',(-26.17870358542,-4.461293761888,
    8.768266371552));
#322 = CARTESIAN_POINT('',(-26.19018199703,-4.476854910109,
    8.778812512166));
#323 = CARTESIAN_POINT('',(-26.20278810826,-4.493955753555,8.78735708645
    ));
#324 = CARTESIAN_POINT('',(-26.21621971659,-4.512190161796,
    8.793692098377));
#325 = CARTESIAN_POINT('',(-26.2301495298,-4.53111633542,8.797693393479)
  );
#326 = CARTESIAN_POINT('',(-26.2461873199,-4.552923718037,8.799550612429
    ));
#327 = CARTESIAN_POINT('',(-26.24812881646,-4.555563949522,
    8.799730304818));
#328 = CARTESIAN_POINT('',(-26.25007265764,-4.558207652702,8.79986513657
    ));
#329 = CARTESIAN_POINT('',(-26.25201798648,-4.56085366325,8.799955045405
    ));
#330 = CARTESIAN_POINT('',(-26.25396394557,-4.563500815423,
    8.800000000003));
#331 = CARTESIAN_POINT('',(-26.25590967708,-4.566147942056,8.8));
#332 = PCURVE('',#144,#333);
#333 = DEFINITIONAL_REPRESENTATION('',(#334),#352);
#334 = B_SPLINE_CURVE_WITH_KNOTS('',6,(#335,#336,#337,#338,#339,#340,
    #341,#342,#343,#344,#345,#346,#347,#348,#349,#350,#351),
  .UNSPECIFIED.,.F.,.F.,(7,5,5,7),(0.,0.49800887912,0.93933035167,1.),
  .UNSPECIFIED.);
#335 = CARTESIAN_POINT('',(0.,-7.105427357601E-15));
#336 = CARTESIAN_POINT('',(-0.131046802011,-7.105427357601E-15));
#337 = CARTESIAN_POINT('',(-0.262102562529,2.982233391857E-03));
#338 = CARTESIAN_POINT('',(-0.393061420518,8.947843599216E-03));
#339 = CARTESIAN_POINT('',(-0.523855712017,1.772405196698E-02));
#340 = CARTESIAN_POINT('',(-0.654447948791,2.89813547407E-02));
#341 = CARTESIAN_POINT('',(-0.900357955828,5.409061071823E-02));
#342 = CARTESIAN_POINT('',(-1.015727779887,6.7501960351E-02));
#343 = CARTESIAN_POINT('',(-1.130937319797,8.223233253132E-02));
#344 = CARTESIAN_POINT('',(-1.246015098032,9.792909946673E-02));
#345 = CARTESIAN_POINT('',(-1.361007613449,0.114210102566));
#346 = CARTESIAN_POINT('',(-1.49177818121,0.132957121762));
#347 = CARTESIAN_POINT('',(-1.507582315702,0.135226627915));
#348 = CARTESIAN_POINT('',(-1.523386055242,0.137498911775));
#349 = CARTESIAN_POINT('',(-1.539189541755,0.139772971734));
#350 = CARTESIAN_POINT('',(-1.554992917847,0.142047805567));
#351 = CARTESIAN_POINT('',(-1.570796326795,0.144322410437));
#352 = ( GEOMETRIC_REPRESENTATION_CONTEXT(2) 
PARAMETRIC_REPRESENTATION_CONTEXT() REPRESENTATION_CONTEXT('2D SPACE',''
  ) );
#353 = PCURVE('',#354,#359);
#354 = TOROIDAL_SURFACE('',#355,26.649999999999,0.15);
#355 = AXIS2_PLACEMENT_3D('',#356,#357,#358);
#356 = CARTESIAN_POINT('',(-4.902744876745E-13,-1.350031197944E-13,8.65)
  );
#357 = DIRECTION('',(0.,0.,1.));
#358 = DIRECTION('',(-0.931623013032,-0.363426143237,0.));
#359 = DEFINITIONAL_REPRESENTATION('',(#360),#378);
#360 = B_SPLINE_CURVE_WITH_KNOTS('',6,(#361,#362,#363,#364,#365,#366,
    #367,#368,#369,#370,#371,#372,#373,#374,#375,#376,#377),
  .UNSPECIFIED.,.F.,.F.,(7,5,5,7),(0.,0.49800887912,0.93933035167,1.),
  .UNSPECIFIED.);
#361 = CARTESIAN_POINT('',(-0.205186440839,3.14159265359));
#362 = CARTESIAN_POINT('',(-0.205186440839,3.010545851579));
#363 = CARTESIAN_POINT('',(-0.205073903923,2.879490091061));
#364 = CARTESIAN_POINT('',(-0.204848785642,2.748531233072));
#365 = CARTESIAN_POINT('',(-0.204517708713,2.617736941572));
#366 = CARTESIAN_POINT('',(-0.20409329384,2.487144704798));
#367 = CARTESIAN_POINT('',(-0.203147340852,2.241234697762));
#368 = CARTESIAN_POINT('',(-0.202642334037,2.125864873702));
#369 = CARTESIAN_POINT('',(-0.202088009805,2.010655333793));
#370 = CARTESIAN_POINT('',(-0.201497760688,1.895577555557));
#371 = CARTESIAN_POINT('',(-0.200886037752,1.78058504014));
#372 = CARTESIAN_POINT('',(-0.200182209795,1.64981447238));
#373 = CARTESIAN_POINT('',(-0.200097013727,1.634010337888));
#374 = CARTESIAN_POINT('',(-0.200011722474,1.618206598348));
#375 = CARTESIAN_POINT('',(-0.199926373669,1.602403111834));
#376 = CARTESIAN_POINT('',(-0.19984100494,1.586599735743));
#377 = CARTESIAN_POINT('',(-0.199755653913,1.570796326795));
#378 = ( GEOMETRIC_REPRESENTATION_CONTEXT(2) 
PARAMETRIC_REPRESENTATION_CONTEXT() REPRESENTATION_CONTEXT('2D SPACE',''
  ) );
#379 = ORIENTED_EDGE('',*,*,#380,.T.);
#380 = EDGE_CURVE('',#311,#381,#383,.T.);
#381 = VERTEX_POINT('',#382);
#382 = CARTESIAN_POINT('',(-88.78233799967,-12.79790839594,8.8));
#383 = SURFACE_CURVE('',#384,(#388,#395),.PCURVE_S1.);
#384 = LINE('',#385,#386);
#385 = CARTESIAN_POINT('',(-26.11282196487,-4.547310087369,8.8));
#386 = VECTOR('',#387,1.);
#387 = DIRECTION('',(-0.991444861374,-0.13052619222,0.));
#388 = PCURVE('',#144,#389);
#389 = DEFINITIONAL_REPRESENTATION('',(#390),#394);
#390 = LINE('',#391,#392);
#391 = CARTESIAN_POINT('',(-1.570796326795,0.));
#392 = VECTOR('',#393,1.);
#393 = DIRECTION('',(-0.,1.));
#394 = ( GEOMETRIC_REPRESENTATION_CONTEXT(2) 
PARAMETRIC_REPRESENTATION_CONTEXT() REPRESENTATION_CONTEXT('2D SPACE',''
  ) );
#395 = PCURVE('',#396,#401);
#396 = PLANE('',#397);
#397 = AXIS2_PLACEMENT_3D('',#398,#399,#400);
#398 = CARTESIAN_POINT('',(-59.06870115819,-16.03294786793,8.8));
#399 = DIRECTION('',(0.,0.,1.));
#400 = DIRECTION('',(1.,0.,-0.));
#401 = DEFINITIONAL_REPRESENTATION('',(#402),#406);
#402 = LINE('',#403,#404);
#403 = CARTESIAN_POINT('',(32.955879193319,11.485637780568));
#404 = VECTOR('',#405,1.);
#405 = DIRECTION('',(-0.991444861374,-0.13052619222));
#406 = ( GEOMETRIC_REPRESENTATION_CONTEXT(2) 
PARAMETRIC_REPRESENTATION_CONTEXT() REPRESENTATION_CONTEXT('2D SPACE',''
  ) );
#407 = ORIENTED_EDGE('',*,*,#408,.F.);
#408 = EDGE_CURVE('',#42,#381,#409,.T.);
#409 = SURFACE_CURVE('',#410,(#428,#449),.PCURVE_S1.);
#410 = B_SPLINE_CURVE_WITH_KNOTS('',6,(#411,#412,#413,#414,#415,#416,
    #417,#418,#419,#420,#421,#422,#423,#424,#425,#426,#427),
  .UNSPECIFIED.,.F.,.F.,(7,5,5,7),(0.,0.497833452025,0.939295080478,1.),
  .UNSPECIFIED.);
#411 = CARTESIAN_POINT('',(-88.95234147946,-12.66899543456,8.65));
#412 = CARTESIAN_POINT('',(-88.95234147946,-12.66899543456,
    8.669660641864));
#413 = CARTESIAN_POINT('',(-88.94883945084,-12.67165333777,
    8.689322705899));
#414 = CARTESIAN_POINT('',(-88.94183400274,-12.67697020895,
    8.708361035233));
#415 = CARTESIAN_POINT('',(-88.93152594635,-12.68479288987,
    8.726155386737));
#416 = CARTESIAN_POINT('',(-88.91829740714,-12.69482999497,
    8.742173286581));
#417 = CARTESIAN_POINT('',(-88.88876312145,-12.71723388951,
    8.768270506329));
#418 = CARTESIAN_POINT('',(-88.87297468114,-12.72920875993,
    8.778817778614));
#419 = CARTESIAN_POINT('',(-88.8556227186,-12.7423669145,8.787361116511)
  );
#420 = CARTESIAN_POINT('',(-88.83711840525,-12.75639564237,
    8.793694022722));
#421 = CARTESIAN_POINT('',(-88.81790869544,-12.77095548132,
    8.797693802306));
#422 = CARTESIAN_POINT('',(-88.79576852663,-12.78773234093,
    8.799550615604));
#423 = CARTESIAN_POINT('',(-88.79308729521,-12.78976399598,
    8.799730308289));
#424 = CARTESIAN_POINT('',(-88.79040244558,-12.79179832289,
    8.799865138967));
#425 = CARTESIAN_POINT('',(-88.78771515722,-12.79383442766,
    8.799955046403));
#426 = CARTESIAN_POINT('',(-88.78502661296,-12.79587141755,
    8.800000000042));
#427 = CARTESIAN_POINT('',(-88.78233799893,-12.79790840111,8.8));
#428 = PCURVE('',#144,#429);
#429 = DEFINITIONAL_REPRESENTATION('',(#430),#448);
#430 = B_SPLINE_CURVE_WITH_KNOTS('',6,(#431,#432,#433,#434,#435,#436,
    #437,#438,#439,#440,#441,#442,#443,#444,#445,#446,#447),
  .UNSPECIFIED.,.F.,.F.,(7,5,5,7),(0.,0.497833452025,0.939295080478,1.),
  .UNSPECIFIED.);
#431 = CARTESIAN_POINT('',(0.,63.362011376715));
#432 = CARTESIAN_POINT('',(-0.131070945757,63.362011376715));
#433 = CARTESIAN_POINT('',(-0.262151522005,63.358886234427));
#434 = CARTESIAN_POINT('',(-0.39312606816,63.352634709854));
#435 = CARTESIAN_POINT('',(-0.523919970304,63.343435905069));
#436 = CARTESIAN_POINT('',(-0.654491330815,63.331630642954));
#437 = CARTESIAN_POINT('',(-0.900396917354,63.305273322221));
#438 = CARTESIAN_POINT('',(-1.01578817533,63.291182988445));
#439 = CARTESIAN_POINT('',(-1.131001425131,63.275696958158));
#440 = CARTESIAN_POINT('',(-1.246067268125,63.259182068204));
#441 = CARTESIAN_POINT('',(-1.361036384656,63.242037140463));
#442 = CARTESIAN_POINT('',(-1.491778406835,63.222276203467));
#443 = CARTESIAN_POINT('',(-1.507582655107,63.219883094548));
#444 = CARTESIAN_POINT('',(-1.523386410235,63.217486747125));
#445 = CARTESIAN_POINT('',(-1.539189829335,63.215088213897));
#446 = CARTESIAN_POINT('',(-1.554993084272,63.212688551034));
#447 = CARTESIAN_POINT('',(-1.57079636165,63.210288818179));
#448 = ( GEOMETRIC_REPRESENTATION_CONTEXT(2) 
PARAMETRIC_REPRESENTATION_CONTEXT() REPRESENTATION_CONTEXT('2D SPACE',''
  ) );
#449 = PCURVE('',#177,#450);
#450 = DEFINITIONAL_REPRESENTATION('',(#451),#469);
#451 = B_SPLINE_CURVE_WITH_KNOTS('',6,(#452,#453,#454,#455,#456,#457,
    #458,#459,#460,#461,#462,#463,#464,#465,#466,#467,#468),
  .UNSPECIFIED.,.F.,.F.,(7,5,5,7),(0.,0.497833452025,0.939295080478,1.),
  .UNSPECIFIED.);
#452 = CARTESIAN_POINT('',(8.881784197001E-16,0.));
#453 = CARTESIAN_POINT('',(8.881784197001E-16,0.131070945757));
#454 = CARTESIAN_POINT('',(3.478178970262E-05,0.262151522005));
#455 = CARTESIAN_POINT('',(1.043590560963E-04,0.393126068159));
#456 = CARTESIAN_POINT('',(2.067478095036E-04,0.523919970304));
#457 = CARTESIAN_POINT('',(3.381718593412E-04,0.654491330814));
#458 = CARTESIAN_POINT('',(6.316632013794E-04,0.900396917354));
#459 = CARTESIAN_POINT('',(7.88582964347E-04,1.01578817533));
#460 = CARTESIAN_POINT('',(9.610783918843E-04,1.131001425132));
#461 = CARTESIAN_POINT('',(1.145074808271E-03,1.246067268125));
#462 = CARTESIAN_POINT('',(1.336136486727E-03,1.361036384656));
#463 = CARTESIAN_POINT('',(1.556401913262E-03,1.491778406835));
#464 = CARTESIAN_POINT('',(1.583077578219E-03,1.507582643848));
#465 = CARTESIAN_POINT('',(1.609790161236E-03,1.523386403586));
#466 = CARTESIAN_POINT('',(1.636527931804E-03,1.539189843058));
#467 = CARTESIAN_POINT('',(1.663279163233E-03,1.554993106785));
#468 = CARTESIAN_POINT('',(1.690032132633E-03,1.570796326795));
#469 = ( GEOMETRIC_REPRESENTATION_CONTEXT(2) 
PARAMETRIC_REPRESENTATION_CONTEXT() REPRESENTATION_CONTEXT('2D SPACE',''
  ) );
#470 = ORIENTED_EDGE('',*,*,#130,.F.);
#471 = ADVANCED_FACE('',(#472),#118,.F.);
#472 = FACE_BOUND('',#473,.F.);
#473 = EDGE_LOOP('',(#474,#503,#526,#548,#549,#576));
#474 = ORIENTED_EDGE('',*,*,#475,.F.);
#475 = EDGE_CURVE('',#476,#478,#480,.T.);
#476 = VERTEX_POINT('',#477);
#477 = CARTESIAN_POINT('',(-24.68800984536,-9.630792795788,8.));
#478 = VERTEX_POINT('',#479);
#479 = CARTESIAN_POINT('',(-24.89982928571,-9.069095960582,6.));
#480 = SURFACE_CURVE('',#481,(#486,#496),.PCURVE_S1.);
#481 = ELLIPSE('',#482,92.222707495375,26.499999999999);
#482 = AXIS2_PLACEMENT_3D('',#483,#484,#485);
#483 = CARTESIAN_POINT('',(-4.883232723612E-13,-1.358174253458E-13,
    9.833333333333));
#484 = DIRECTION('',(0.366544250438,-0.884916100617,-0.287347885566));
#485 = DIRECTION('',(-0.109963275131,0.265474830185,-0.957826285221));
#486 = PCURVE('',#118,#487);
#487 = DEFINITIONAL_REPRESENTATION('',(#488),#495);
#488 = B_SPLINE_CURVE_WITH_KNOTS('',5,(#489,#490,#491,#492,#493,#494),
  .UNSPECIFIED.,.F.,.F.,(6,6),(4.733145187699,4.755798846018),
  .PIECEWISE_BEZIER_KNOTS.);
#489 = CARTESIAN_POINT('',(0.,-2.));
#490 = CARTESIAN_POINT('',(4.530731663867E-03,-1.599871576859));
#491 = CARTESIAN_POINT('',(9.061463327735E-03,-1.199790195972));
#492 = CARTESIAN_POINT('',(1.35921949916E-02,-0.799772969107));
#493 = CARTESIAN_POINT('',(1.812292665547E-02,-0.399837004007));
#494 = CARTESIAN_POINT('',(2.265365831934E-02,5.999999910244E-07));
#495 = ( GEOMETRIC_REPRESENTATION_CONTEXT(2) 
PARAMETRIC_REPRESENTATION_CONTEXT() REPRESENTATION_CONTEXT('2D SPACE',''
  ) );
#496 = PCURVE('',#237,#497);
#497 = DEFINITIONAL_REPRESENTATION('',(#498),#502);
#498 = ELLIPSE('',#499,92.222707495375,26.499999999999);
#499 = AXIS2_PLACEMENT_2D('',#500,#501);
#500 = CARTESIAN_POINT('',(-1.9140561933,-5.031016778175E-13));
#501 = DIRECTION('',(1.,-2.728215600797E-18));
#502 = ( GEOMETRIC_REPRESENTATION_CONTEXT(2) 
PARAMETRIC_REPRESENTATION_CONTEXT() REPRESENTATION_CONTEXT('2D SPACE',''
  ) );
#503 = ORIENTED_EDGE('',*,*,#504,.T.);
#504 = EDGE_CURVE('',#476,#505,#507,.T.);
#505 = VERTEX_POINT('',#506);
#506 = CARTESIAN_POINT('',(-24.68800984536,-9.630792795788,8.65));
#507 = SURFACE_CURVE('',#508,(#512,#519),.PCURVE_S1.);
#508 = LINE('',#509,#510);
#509 = CARTESIAN_POINT('',(-24.68800984536,-9.630792795788,6.));
#510 = VECTOR('',#511,1.);
#511 = DIRECTION('',(0.,0.,1.));
#512 = PCURVE('',#118,#513);
#513 = DEFINITIONAL_REPRESENTATION('',(#514),#518);
#514 = LINE('',#515,#516);
#515 = CARTESIAN_POINT('',(0.,0.));
#516 = VECTOR('',#517,1.);
#517 = DIRECTION('',(0.,-1.));
#518 = ( GEOMETRIC_REPRESENTATION_CONTEXT(2) 
PARAMETRIC_REPRESENTATION_CONTEXT() REPRESENTATION_CONTEXT('2D SPACE',''
  ) );
#519 = PCURVE('',#205,#520);
#520 = DEFINITIONAL_REPRESENTATION('',(#521),#525);
#521 = LINE('',#522,#523);
#522 = CARTESIAN_POINT('',(63.354024785019,0.));
#523 = VECTOR('',#524,1.);
#524 = DIRECTION('',(0.,-1.));
#525 = ( GEOMETRIC_REPRESENTATION_CONTEXT(2) 
PARAMETRIC_REPRESENTATION_CONTEXT() REPRESENTATION_CONTEXT('2D SPACE',''
  ) );
#526 = ORIENTED_EDGE('',*,*,#527,.T.);
#527 = EDGE_CURVE('',#505,#103,#528,.T.);
#528 = SURFACE_CURVE('',#529,(#534,#541),.PCURVE_S1.);
#529 = CIRCLE('',#530,26.499999999999);
#530 = AXIS2_PLACEMENT_3D('',#531,#532,#533);
#531 = CARTESIAN_POINT('',(-4.902744876745E-13,-1.350031197944E-13,8.65)
  );
#532 = DIRECTION('',(-0.,0.,-1.));
#533 = DIRECTION('',(-0.931623013032,-0.363426143237,0.));
#534 = PCURVE('',#118,#535);
#535 = DEFINITIONAL_REPRESENTATION('',(#536),#540);
#536 = LINE('',#537,#538);
#537 = CARTESIAN_POINT('',(9.307349006132E-18,-2.65));
#538 = VECTOR('',#539,1.);
#539 = DIRECTION('',(1.,0.));
#540 = ( GEOMETRIC_REPRESENTATION_CONTEXT(2) 
PARAMETRIC_REPRESENTATION_CONTEXT() REPRESENTATION_CONTEXT('2D SPACE',''
  ) );
#541 = PCURVE('',#354,#542);
#542 = DEFINITIONAL_REPRESENTATION('',(#543),#547);
#543 = LINE('',#544,#545);
#544 = CARTESIAN_POINT('',(-0.,3.14159265359));
#545 = VECTOR('',#546,1.);
#546 = DIRECTION('',(-1.,0.));
#547 = ( GEOMETRIC_REPRESENTATION_CONTEXT(2) 
PARAMETRIC_REPRESENTATION_CONTEXT() REPRESENTATION_CONTEXT('2D SPACE',''
  ) );
#548 = ORIENTED_EDGE('',*,*,#102,.F.);
#549 = ORIENTED_EDGE('',*,*,#550,.F.);
#550 = EDGE_CURVE('',#551,#75,#553,.T.);
#551 = VERTEX_POINT('',#552);
#552 = CARTESIAN_POINT('',(-26.02599234132,-4.989761782825,6.));
#553 = SURFACE_CURVE('',#554,(#559,#569),.PCURVE_S1.);
#554 = ELLIPSE('',#555,92.222707495375,26.499999999999);
#555 = AXIS2_PLACEMENT_3D('',#556,#557,#558);
#556 = CARTESIAN_POINT('',(-4.883232723612E-13,-1.358174253458E-13,
    11.166666666666));
#557 = DIRECTION('',(-0.125021417818,0.949631948571,-0.287347885566));
#558 = DIRECTION('',(3.750642534546E-02,-0.284889584571,-0.957826285221)
  );
#559 = PCURVE('',#118,#560);
#560 = DEFINITIONAL_REPRESENTATION('',(#561),#568);
#561 = B_SPLINE_CURVE_WITH_KNOTS('',5,(#562,#563,#564,#565,#566,#567),
  .UNSPECIFIED.,.F.,.F.,(6,6),(1.512272351707,1.534939587149),
  .PIECEWISE_BEZIER_KNOTS.);
#562 = CARTESIAN_POINT('',(0.182519205397,6.000000034589E-07));
#563 = CARTESIAN_POINT('',(0.187052652485,-0.399768299063));
#564 = CARTESIAN_POINT('',(0.191586099573,-0.799669930728));
#565 = CARTESIAN_POINT('',(0.196119546662,-1.199687178105));
#566 = CARTESIAN_POINT('',(0.20065299375,-1.599802912937));
#567 = CARTESIAN_POINT('',(0.205186440839,-2.));
#568 = ( GEOMETRIC_REPRESENTATION_CONTEXT(2) 
PARAMETRIC_REPRESENTATION_CONTEXT() REPRESENTATION_CONTEXT('2D SPACE',''
  ) );
#569 = PCURVE('',#90,#570);
#570 = DEFINITIONAL_REPRESENTATION('',(#571),#575);
#571 = ELLIPSE('',#572,92.222707495375,26.499999999999);
#572 = AXIS2_PLACEMENT_2D('',#573,#574);
#573 = CARTESIAN_POINT('',(5.394158362937,-5.018826757096E-13));
#574 = DIRECTION('',(-1.,1.418488545455E-20));
#575 = ( GEOMETRIC_REPRESENTATION_CONTEXT(2) 
PARAMETRIC_REPRESENTATION_CONTEXT() REPRESENTATION_CONTEXT('2D SPACE',''
  ) );
#576 = ORIENTED_EDGE('',*,*,#577,.F.);
#577 = EDGE_CURVE('',#478,#551,#578,.T.);
#578 = SURFACE_CURVE('',#579,(#584,#591),.PCURVE_S1.);
#579 = CIRCLE('',#580,26.499999999999);
#580 = AXIS2_PLACEMENT_3D('',#581,#582,#583);
#581 = CARTESIAN_POINT('',(-4.883232723612E-13,-1.358174253458E-13,6.));
#582 = DIRECTION('',(0.,0.,-1.));
#583 = DIRECTION('',(-0.931623013032,-0.363426143237,-0.));
#584 = PCURVE('',#118,#585);
#585 = DEFINITIONAL_REPRESENTATION('',(#586),#590);
#586 = LINE('',#587,#588);
#587 = CARTESIAN_POINT('',(0.,0.));
#588 = VECTOR('',#589,1.);
#589 = DIRECTION('',(1.,0.));
#590 = ( GEOMETRIC_REPRESENTATION_CONTEXT(2) 
PARAMETRIC_REPRESENTATION_CONTEXT() REPRESENTATION_CONTEXT('2D SPACE',''
  ) );
#591 = PCURVE('',#592,#597);
#592 = PLANE('',#593);
#593 = AXIS2_PLACEMENT_3D('',#594,#595,#596);
#594 = CARTESIAN_POINT('',(-59.06870115819,-16.03294786793,6.));
#595 = DIRECTION('',(0.,0.,1.));
#596 = DIRECTION('',(1.,0.,-0.));
#597 = DEFINITIONAL_REPRESENTATION('',(#598),#606);
#598 = ( BOUNDED_CURVE() B_SPLINE_CURVE(2,(#599,#600,#601,#602,#603,#604
,#605),.UNSPECIFIED.,.T.,.F.) B_SPLINE_CURVE_WITH_KNOTS((1,2,2,2,2,1),(
    -2.094395102393,0.,2.094395102393,4.188790204786,6.28318530718,
8.377580409573),.UNSPECIFIED.) CURVE() GEOMETRIC_REPRESENTATION_ITEM() 
RATIONAL_B_SPLINE_CURVE((1.,0.5,1.,0.5,1.,0.5,1.)) REPRESENTATION_ITEM(
  '') );
#599 = CARTESIAN_POINT('',(34.380691312835,6.402155072149));
#600 = CARTESIAN_POINT('',(17.699668873362,49.163042462072));
#601 = CARTESIAN_POINT('',(63.072194861138,42.228787960792));
#602 = CARTESIAN_POINT('',(108.44472084891,35.294533459512));
#603 = CARTESIAN_POINT('',(79.753217300611,-0.532099429131));
#604 = CARTESIAN_POINT('',(51.061713752308,-36.35873231777));
#605 = CARTESIAN_POINT('',(34.380691312835,6.402155072149));
#606 = ( GEOMETRIC_REPRESENTATION_CONTEXT(2) 
PARAMETRIC_REPRESENTATION_CONTEXT() REPRESENTATION_CONTEXT('2D SPACE',''
  ) );
#607 = ADVANCED_FACE('',(#608),#90,.T.);
#608 = FACE_BOUND('',#609,.T.);
#609 = EDGE_LOOP('',(#610,#611,#634,#666,#685,#686));
#610 = ORIENTED_EDGE('',*,*,#550,.F.);
#611 = ORIENTED_EDGE('',*,*,#612,.T.);
#612 = EDGE_CURVE('',#551,#613,#615,.T.);
#613 = VERTEX_POINT('',#614);
#614 = CARTESIAN_POINT('',(-83.41193784606,-12.54476483493,6.));
#615 = SURFACE_CURVE('',#616,(#620,#627),.PCURVE_S1.);
#616 = LINE('',#617,#618);
#617 = CARTESIAN_POINT('',(0.202315597941,-1.536739535129,6.));
#618 = VECTOR('',#619,1.);
#619 = DIRECTION('',(-0.991444861374,-0.13052619222,0.));
#620 = PCURVE('',#90,#621);
#621 = DEFINITIONAL_REPRESENTATION('',(#622),#626);
#622 = LINE('',#623,#624);
#623 = CARTESIAN_POINT('',(0.,0.));
#624 = VECTOR('',#625,1.);
#625 = DIRECTION('',(0.,-1.));
#626 = ( GEOMETRIC_REPRESENTATION_CONTEXT(2) 
PARAMETRIC_REPRESENTATION_CONTEXT() REPRESENTATION_CONTEXT('2D SPACE',''
  ) );
#627 = PCURVE('',#592,#628);
#628 = DEFINITIONAL_REPRESENTATION('',(#629),#633);
#629 = LINE('',#630,#631);
#630 = CARTESIAN_POINT('',(59.271016756136,14.496208332807));
#631 = VECTOR('',#632,1.);
#632 = DIRECTION('',(-0.991444861374,-0.13052619222));
#633 = ( GEOMETRIC_REPRESENTATION_CONTEXT(2) 
PARAMETRIC_REPRESENTATION_CONTEXT() REPRESENTATION_CONTEXT('2D SPACE',''
  ) );
#634 = ORIENTED_EDGE('',*,*,#635,.T.);
#635 = EDGE_CURVE('',#613,#636,#638,.T.);
#636 = VERTEX_POINT('',#637);
#637 = CARTESIAN_POINT('',(-83.4905472906,-12.01045432593,7.8));
#638 = SURFACE_CURVE('',#639,(#644,#651),.PCURVE_S1.);
#639 = ELLIPSE('',#640,293.54661800886,84.35);
#640 = AXIS2_PLACEMENT_3D('',#641,#642,#643);
#641 = CARTESIAN_POINT('',(0.,0.,11.166666666667));
#642 = DIRECTION('',(-0.125021417818,0.949631948571,-0.287347885566));
#643 = DIRECTION('',(-3.750642534546E-02,0.284889584571,0.957826285221)
  );
#644 = PCURVE('',#90,#645);
#645 = DEFINITIONAL_REPRESENTATION('',(#646),#650);
#646 = ELLIPSE('',#647,293.54661800886,84.35);
#647 = AXIS2_PLACEMENT_2D('',#648,#649);
#648 = CARTESIAN_POINT('',(5.394158362937,6.98997904159E-18));
#649 = DIRECTION('',(1.,-1.418488545455E-20));
#650 = ( GEOMETRIC_REPRESENTATION_CONTEXT(2) 
PARAMETRIC_REPRESENTATION_CONTEXT() REPRESENTATION_CONTEXT('2D SPACE',''
  ) );
#651 = PCURVE('',#652,#657);
#652 = CYLINDRICAL_SURFACE('',#653,84.35);
#653 = AXIS2_PLACEMENT_3D('',#654,#655,#656);
#654 = CARTESIAN_POINT('',(0.,0.,5.));
#655 = DIRECTION('',(0.,0.,1.));
#656 = DIRECTION('',(1.,0.,-0.));
#657 = DEFINITIONAL_REPRESENTATION('',(#658),#665);
#658 = B_SPLINE_CURVE_WITH_KNOTS('',5,(#659,#660,#661,#662,#663,#664),
  .UNSPECIFIED.,.F.,.F.,(6,6),(4.694012128875,4.700414778176),
  .PIECEWISE_BEZIER_KNOTS.);
#659 = CARTESIAN_POINT('',(3.290869198999,0.9999994));
#660 = CARTESIAN_POINT('',(3.289588669139,1.359980919383));
#661 = CARTESIAN_POINT('',(3.288308139279,1.719973028862));
#662 = CARTESIAN_POINT('',(3.287027609418,2.079974498683));
#663 = CARTESIAN_POINT('',(3.285747079558,2.439984099021));
#664 = CARTESIAN_POINT('',(3.284466549698,2.8000006));
#665 = ( GEOMETRIC_REPRESENTATION_CONTEXT(2) 
PARAMETRIC_REPRESENTATION_CONTEXT() REPRESENTATION_CONTEXT('2D SPACE',''
  ) );
#666 = ORIENTED_EDGE('',*,*,#667,.T.);
#667 = EDGE_CURVE('',#636,#250,#668,.T.);
#668 = SURFACE_CURVE('',#669,(#673,#679),.PCURVE_S1.);
#669 = LINE('',#670,#671);
#670 = CARTESIAN_POINT('',(0.131831454142,-1.001359309988,7.8));
#671 = VECTOR('',#672,1.);
#672 = DIRECTION('',(-0.991444861374,-0.13052619222,0.));
#673 = PCURVE('',#90,#674);
#674 = DEFINITIONAL_REPRESENTATION('',(#675),#678);
#675 = B_SPLINE_CURVE_WITH_KNOTS('',1,(#676,#677),.UNSPECIFIED.,.F.,.F.,
  (2,2),(83.888904850323,89.852876750164),.PIECEWISE_BEZIER_KNOTS.);
#676 = CARTESIAN_POINT('',(1.879255171604,-83.88890485032));
#677 = CARTESIAN_POINT('',(1.879255171604,-89.85287675016));
#678 = ( GEOMETRIC_REPRESENTATION_CONTEXT(2) 
PARAMETRIC_REPRESENTATION_CONTEXT() REPRESENTATION_CONTEXT('2D SPACE',''
  ) );
#679 = PCURVE('',#266,#680);
#680 = DEFINITIONAL_REPRESENTATION('',(#681),#684);
#681 = B_SPLINE_CURVE_WITH_KNOTS('',1,(#682,#683),.UNSPECIFIED.,.F.,.F.,
  (2,2),(83.888904850323,89.852876750164),.PIECEWISE_BEZIER_KNOTS.);
#682 = CARTESIAN_POINT('',(-83.03939218598,-11.95105862961));
#683 = CARTESIAN_POINT('',(-88.95234147946,-12.7295131722));
#684 = ( GEOMETRIC_REPRESENTATION_CONTEXT(2) 
PARAMETRIC_REPRESENTATION_CONTEXT() REPRESENTATION_CONTEXT('2D SPACE',''
  ) );
#685 = ORIENTED_EDGE('',*,*,#282,.T.);
#686 = ORIENTED_EDGE('',*,*,#74,.F.);
#687 = ADVANCED_FACE('',(#688),#266,.F.);
#688 = FACE_BOUND('',#689,.F.);
#689 = EDGE_LOOP('',(#690,#714,#715,#716));
#690 = ORIENTED_EDGE('',*,*,#691,.F.);
#691 = EDGE_CURVE('',#636,#692,#694,.T.);
#692 = VERTEX_POINT('',#693);
#693 = CARTESIAN_POINT('',(-78.16063764204,-31.71493691288,7.8));
#694 = SURFACE_CURVE('',#695,(#700,#707),.PCURVE_S1.);
#695 = CIRCLE('',#696,84.35);
#696 = AXIS2_PLACEMENT_3D('',#697,#698,#699);
#697 = CARTESIAN_POINT('',(0.,0.,7.8));
#698 = DIRECTION('',(0.,0.,1.));
#699 = DIRECTION('',(1.,0.,-0.));
#700 = PCURVE('',#266,#701);
#701 = DEFINITIONAL_REPRESENTATION('',(#702),#706);
#702 = CIRCLE('',#703,84.35);
#703 = AXIS2_PLACEMENT_2D('',#704,#705);
#704 = CARTESIAN_POINT('',(0.,0.));
#705 = DIRECTION('',(1.,0.));
#706 = ( GEOMETRIC_REPRESENTATION_CONTEXT(2) 
PARAMETRIC_REPRESENTATION_CONTEXT() REPRESENTATION_CONTEXT('2D SPACE',''
  ) );
#707 = PCURVE('',#652,#708);
#708 = DEFINITIONAL_REPRESENTATION('',(#709),#713);
#709 = LINE('',#710,#711);
#710 = CARTESIAN_POINT('',(0.,2.8));
#711 = VECTOR('',#712,1.);
#712 = DIRECTION('',(1.,0.));
#713 = ( GEOMETRIC_REPRESENTATION_CONTEXT(2) 
PARAMETRIC_REPRESENTATION_CONTEXT() REPRESENTATION_CONTEXT('2D SPACE',''
  ) );
#714 = ORIENTED_EDGE('',*,*,#667,.T.);
#715 = ORIENTED_EDGE('',*,*,#249,.F.);
#716 = ORIENTED_EDGE('',*,*,#717,.T.);
#717 = EDGE_CURVE('',#218,#692,#718,.T.);
#718 = SURFACE_CURVE('',#719,(#723,#729),.PCURVE_S1.);
#719 = LINE('',#720,#721);
#720 = CARTESIAN_POINT('',(-0.233436893743,0.563566514832,7.8));
#721 = VECTOR('',#722,1.);
#722 = DIRECTION('',(0.923879532511,0.382683432365,-0.));
#723 = PCURVE('',#266,#724);
#724 = DEFINITIONAL_REPRESENTATION('',(#725),#728);
#725 = B_SPLINE_CURVE_WITH_KNOTS('',1,(#726,#727),.UNSPECIFIED.,.F.,.F.,
  (2,2),(-89.99316943681,-84.3233540433),.PIECEWISE_BEZIER_KNOTS.);
#726 = CARTESIAN_POINT('',(-83.37628420223,-33.87532845466));
#727 = CARTESIAN_POINT('',(-78.13805780705,-31.70558403899));
#728 = ( GEOMETRIC_REPRESENTATION_CONTEXT(2) 
PARAMETRIC_REPRESENTATION_CONTEXT() REPRESENTATION_CONTEXT('2D SPACE',''
  ) );
#729 = PCURVE('',#237,#730);
#730 = DEFINITIONAL_REPRESENTATION('',(#731),#734);
#731 = B_SPLINE_CURVE_WITH_KNOTS('',1,(#732,#733),.UNSPECIFIED.,.F.,.F.,
  (2,2),(-89.99316943681,-84.3233540433),.PIECEWISE_BEZIER_KNOTS.);
#732 = CARTESIAN_POINT('',(0.208806130178,-89.99316943681));
#733 = CARTESIAN_POINT('',(0.208806130178,-84.3233540433));
#734 = ( GEOMETRIC_REPRESENTATION_CONTEXT(2) 
PARAMETRIC_REPRESENTATION_CONTEXT() REPRESENTATION_CONTEXT('2D SPACE',''
  ) );
#735 = ADVANCED_FACE('',(#736),#237,.T.);
#736 = FACE_BOUND('',#737,.T.);
#737 = EDGE_LOOP('',(#738,#739,#760,#761,#762,#789));
#738 = ORIENTED_EDGE('',*,*,#475,.F.);
#739 = ORIENTED_EDGE('',*,*,#740,.T.);
#740 = EDGE_CURVE('',#476,#190,#741,.T.);
#741 = SURFACE_CURVE('',#742,(#746,#753),.PCURVE_S1.);
#742 = LINE('',#743,#744);
#743 = CARTESIAN_POINT('',(-0.210475887801,0.508133742881,8.));
#744 = VECTOR('',#745,1.);
#745 = DIRECTION('',(-0.923879532511,-0.382683432365,0.));
#746 = PCURVE('',#237,#747);
#747 = DEFINITIONAL_REPRESENTATION('',(#748),#752);
#748 = LINE('',#749,#750);
#749 = CARTESIAN_POINT('',(0.,0.));
#750 = VECTOR('',#751,1.);
#751 = DIRECTION('',(0.,-1.));
#752 = ( GEOMETRIC_REPRESENTATION_CONTEXT(2) 
PARAMETRIC_REPRESENTATION_CONTEXT() REPRESENTATION_CONTEXT('2D SPACE',''
  ) );
#753 = PCURVE('',#205,#754);
#754 = DEFINITIONAL_REPRESENTATION('',(#755),#759);
#755 = LINE('',#756,#757);
#756 = CARTESIAN_POINT('',(89.848316623073,-2.));
#757 = VECTOR('',#758,1.);
#758 = DIRECTION('',(-1.,-0.));
#759 = ( GEOMETRIC_REPRESENTATION_CONTEXT(2) 
PARAMETRIC_REPRESENTATION_CONTEXT() REPRESENTATION_CONTEXT('2D SPACE',''
  ) );
#760 = ORIENTED_EDGE('',*,*,#217,.T.);
#761 = ORIENTED_EDGE('',*,*,#717,.T.);
#762 = ORIENTED_EDGE('',*,*,#763,.T.);
#763 = EDGE_CURVE('',#692,#764,#766,.T.);
#764 = VERTEX_POINT('',#765);
#765 = CARTESIAN_POINT('',(-78.36208155388,-31.21388592506,6.));
#766 = SURFACE_CURVE('',#767,(#772,#779),.PCURVE_S1.);
#767 = ELLIPSE('',#768,293.54661800886,84.35);
#768 = AXIS2_PLACEMENT_3D('',#769,#770,#771);
#769 = CARTESIAN_POINT('',(0.,0.,9.833333333333));
#770 = DIRECTION('',(0.366544250438,-0.884916100617,-0.287347885566));
#771 = DIRECTION('',(0.109963275131,-0.265474830185,0.957826285221));
#772 = PCURVE('',#237,#773);
#773 = DEFINITIONAL_REPRESENTATION('',(#774),#778);
#774 = ELLIPSE('',#775,293.54661800886,84.35);
#775 = AXIS2_PLACEMENT_2D('',#776,#777);
#776 = CARTESIAN_POINT('',(-1.9140561933,1.632763416917E-17));
#777 = DIRECTION('',(-1.,2.728215600797E-18));
#778 = ( GEOMETRIC_REPRESENTATION_CONTEXT(2) 
PARAMETRIC_REPRESENTATION_CONTEXT() REPRESENTATION_CONTEXT('2D SPACE',''
  ) );
#779 = PCURVE('',#652,#780);
#780 = DEFINITIONAL_REPRESENTATION('',(#781),#788);
#781 = B_SPLINE_CURVE_WITH_KNOTS('',5,(#782,#783,#784,#785,#786,#787),
  .UNSPECIFIED.,.F.,.F.,(6,6),(1.578028160075,1.584430420564),
  .PIECEWISE_BEZIER_KNOTS.);
#782 = CARTESIAN_POINT('',(3.527059902009,2.8000006));
#783 = CARTESIAN_POINT('',(3.525779449911,2.439989566207));
#784 = CARTESIAN_POINT('',(3.524498997813,2.079982699621));
#785 = CARTESIAN_POINT('',(3.523218545715,1.719981229948));
#786 = CARTESIAN_POINT('',(3.521938093617,1.359986386867));
#787 = CARTESIAN_POINT('',(3.52065764152,0.9999994));
#788 = ( GEOMETRIC_REPRESENTATION_CONTEXT(2) 
PARAMETRIC_REPRESENTATION_CONTEXT() REPRESENTATION_CONTEXT('2D SPACE',''
  ) );
#789 = ORIENTED_EDGE('',*,*,#790,.F.);
#790 = EDGE_CURVE('',#478,#764,#791,.T.);
#791 = SURFACE_CURVE('',#792,(#796,#803),.PCURVE_S1.);
#792 = LINE('',#793,#794);
#793 = CARTESIAN_POINT('',(-0.44008594722,1.062461462388,6.));
#794 = VECTOR('',#795,1.);
#795 = DIRECTION('',(-0.923879532511,-0.382683432365,0.));
#796 = PCURVE('',#237,#797);
#797 = DEFINITIONAL_REPRESENTATION('',(#798),#802);
#798 = LINE('',#799,#800);
#799 = CARTESIAN_POINT('',(2.088061301782,0.));
#800 = VECTOR('',#801,1.);
#801 = DIRECTION('',(0.,-1.));
#802 = ( GEOMETRIC_REPRESENTATION_CONTEXT(2) 
PARAMETRIC_REPRESENTATION_CONTEXT() REPRESENTATION_CONTEXT('2D SPACE',''
  ) );
#803 = PCURVE('',#592,#804);
#804 = DEFINITIONAL_REPRESENTATION('',(#805),#809);
#805 = LINE('',#806,#807);
#806 = CARTESIAN_POINT('',(58.628615210975,17.095409330325));
#807 = VECTOR('',#808,1.);
#808 = DIRECTION('',(-0.923879532511,-0.382683432365));
#809 = ( GEOMETRIC_REPRESENTATION_CONTEXT(2) 
PARAMETRIC_REPRESENTATION_CONTEXT() REPRESENTATION_CONTEXT('2D SPACE',''
  ) );
#810 = ADVANCED_FACE('',(#811),#205,.F.);
#811 = FACE_BOUND('',#812,.F.);
#812 = EDGE_LOOP('',(#813,#814,#815,#816));
#813 = ORIENTED_EDGE('',*,*,#504,.F.);
#814 = ORIENTED_EDGE('',*,*,#740,.T.);
#815 = ORIENTED_EDGE('',*,*,#189,.T.);
#816 = ORIENTED_EDGE('',*,*,#817,.T.);
#817 = EDGE_CURVE('',#161,#505,#818,.T.);
#818 = SURFACE_CURVE('',#819,(#823,#830),.PCURVE_S1.);
#819 = LINE('',#820,#821);
#820 = CARTESIAN_POINT('',(-83.21949664645,-33.87532845466,8.65));
#821 = VECTOR('',#822,1.);
#822 = DIRECTION('',(0.923879532511,0.382683432365,0.));
#823 = PCURVE('',#205,#824);
#824 = DEFINITIONAL_REPRESENTATION('',(#825),#829);
#825 = LINE('',#826,#827);
#826 = CARTESIAN_POINT('',(0.,-2.65));
#827 = VECTOR('',#828,1.);
#828 = DIRECTION('',(1.,0.));
#829 = ( GEOMETRIC_REPRESENTATION_CONTEXT(2) 
PARAMETRIC_REPRESENTATION_CONTEXT() REPRESENTATION_CONTEXT('2D SPACE',''
  ) );
#830 = PCURVE('',#831,#836);
#831 = CYLINDRICAL_SURFACE('',#832,0.15);
#832 = AXIS2_PLACEMENT_3D('',#833,#834,#835);
#833 = CARTESIAN_POINT('',(-83.2768991613,-33.73674652478,8.65));
#834 = DIRECTION('',(0.923879532511,0.382683432365,0.));
#835 = DIRECTION('',(0.,-0.,1.));
#836 = DEFINITIONAL_REPRESENTATION('',(#837),#841);
#837 = LINE('',#838,#839);
#838 = CARTESIAN_POINT('',(1.570796326795,0.));
#839 = VECTOR('',#840,1.);
#840 = DIRECTION('',(0.,1.));
#841 = ( GEOMETRIC_REPRESENTATION_CONTEXT(2) 
PARAMETRIC_REPRESENTATION_CONTEXT() REPRESENTATION_CONTEXT('2D SPACE',''
  ) );
#842 = ADVANCED_FACE('',(#843),#177,.T.);
#843 = FACE_BOUND('',#844,.T.);
#844 = EDGE_LOOP('',(#845,#846,#847,#897));
#845 = ORIENTED_EDGE('',*,*,#408,.F.);
#846 = ORIENTED_EDGE('',*,*,#160,.T.);
#847 = ORIENTED_EDGE('',*,*,#848,.T.);
#848 = EDGE_CURVE('',#161,#849,#851,.T.);
#849 = VERTEX_POINT('',#850);
#850 = CARTESIAN_POINT('',(-83.13734901371,-33.67894296102,8.8));
#851 = SURFACE_CURVE('',#852,(#865,#881),.PCURVE_S1.);
#852 = B_SPLINE_CURVE_WITH_KNOTS('',6,(#853,#854,#855,#856,#857,#858,
    #859,#860,#861,#862,#863,#864),.UNSPECIFIED.,.F.,.F.,(7,5,7),(0.,
    0.499848463999,1.),.UNSPECIFIED.);
#853 = CARTESIAN_POINT('',(-83.21949664645,-33.87532845466,8.65));
#854 = CARTESIAN_POINT('',(-83.21949664645,-33.87532845466,
    8.669739263347));
#855 = CARTESIAN_POINT('',(-83.21779202677,-33.87124850624,
    8.689479962412));
#856 = CARTESIAN_POINT('',(-83.21438210947,-33.86308696748,
    8.708589542006));
#857 = CARTESIAN_POINT('',(-83.20936497639,-33.85108015948,
    8.726440402689));
#858 = CARTESIAN_POINT('',(-83.20292727869,-33.83567767489,
    8.742494301177));
#859 = CARTESIAN_POINT('',(-83.18769066333,-33.79923470894,
    8.770189879747));
#860 = CARTESIAN_POINT('',(-83.1788898947,-33.77818979398,8.781829953164
    ));
#861 = CARTESIAN_POINT('',(-83.16915052039,-33.75490756145,
    8.790844053432));
#862 = CARTESIAN_POINT('',(-83.15876739559,-33.73009557439,
    8.796948779891));
#863 = CARTESIAN_POINT('',(-83.14806087671,-33.70452095304,
    8.799999757047));
#864 = CARTESIAN_POINT('',(-83.13734901371,-33.67894296102,8.8));
#865 = PCURVE('',#177,#866);
#866 = DEFINITIONAL_REPRESENTATION('',(#867),#880);
#867 = B_SPLINE_CURVE_WITH_KNOTS('',6,(#868,#869,#870,#871,#872,#873,
    #874,#875,#876,#877,#878,#879),.UNSPECIFIED.,.F.,.F.,(7,5,7),(0.,
    0.499848463999,1.),.UNSPECIFIED.);
#868 = CARTESIAN_POINT('',(0.245104661743,0.));
#869 = CARTESIAN_POINT('',(0.245104661743,0.13159508898));
#870 = CARTESIAN_POINT('',(0.245069756974,0.263199901939));
#871 = CARTESIAN_POINT('',(0.24499993359,0.394698252145));
#872 = CARTESIAN_POINT('',(0.244897197168,0.526015447964));
#873 = CARTESIAN_POINT('',(0.24476536458,0.65710981513));
#874 = CARTESIAN_POINT('',(0.244453325508,0.91889899624));
#875 = CARTESIAN_POINT('',(0.24427308113,1.049600154412));
#876 = CARTESIAN_POINT('',(0.244073600819,1.180076591789));
#877 = CARTESIAN_POINT('',(0.243860918886,1.310378361298));
#878 = CARTESIAN_POINT('',(0.243641594462,1.440585497403));
#879 = CARTESIAN_POINT('',(0.24342214365,1.570796326795));
#880 = ( GEOMETRIC_REPRESENTATION_CONTEXT(2) 
PARAMETRIC_REPRESENTATION_CONTEXT() REPRESENTATION_CONTEXT('2D SPACE',''
  ) );
#881 = PCURVE('',#831,#882);
#882 = DEFINITIONAL_REPRESENTATION('',(#883),#896);
#883 = B_SPLINE_CURVE_WITH_KNOTS('',6,(#884,#885,#886,#887,#888,#889,
    #890,#891,#892,#893,#894,#895),.UNSPECIFIED.,.F.,.F.,(7,5,7),(0.,
    0.499848463999,1.),.UNSPECIFIED.);
#884 = CARTESIAN_POINT('',(1.570796326795,0.));
#885 = CARTESIAN_POINT('',(1.439201237815,-1.208681283769E-18));
#886 = CARTESIAN_POINT('',(1.307596424856,3.136191894424E-03));
#887 = CARTESIAN_POINT('',(1.176098074649,9.409830358863E-03));
#888 = CARTESIAN_POINT('',(1.044780878831,1.863986341952E-02));
#889 = CARTESIAN_POINT('',(0.913686511664,3.048179623137E-02));
#890 = CARTESIAN_POINT('',(0.651897330555,5.85047126067E-02));
#891 = CARTESIAN_POINT('',(0.521196172383,7.468910290352E-02));
#892 = CARTESIAN_POINT('',(0.390719735006,9.259683614748E-02));
#893 = CARTESIAN_POINT('',(0.260417965497,0.111684729005));
#894 = CARTESIAN_POINT('',(0.130210829392,0.131363246545));
#895 = CARTESIAN_POINT('',(0.,0.151047991303));
#896 = ( GEOMETRIC_REPRESENTATION_CONTEXT(2) 
PARAMETRIC_REPRESENTATION_CONTEXT() REPRESENTATION_CONTEXT('2D SPACE',''
  ) );
#897 = ORIENTED_EDGE('',*,*,#898,.F.);
#898 = EDGE_CURVE('',#381,#849,#899,.T.);
#899 = SURFACE_CURVE('',#900,(#905,#912),.PCURVE_S1.);
#900 = CIRCLE('',#901,89.700000000001);
#901 = AXIS2_PLACEMENT_3D('',#902,#903,#904);
#902 = CARTESIAN_POINT('',(8.739675649849E-13,2.593480985524E-13,8.8));
#903 = DIRECTION('',(0.,0.,1.));
#904 = DIRECTION('',(-0.990009365381,-0.141001618637,0.));
#905 = PCURVE('',#177,#906);
#906 = DEFINITIONAL_REPRESENTATION('',(#907),#911);
#907 = LINE('',#908,#909);
#908 = CARTESIAN_POINT('',(0.,1.570796326795));
#909 = VECTOR('',#910,1.);
#910 = DIRECTION('',(1.,0.));
#911 = ( GEOMETRIC_REPRESENTATION_CONTEXT(2) 
PARAMETRIC_REPRESENTATION_CONTEXT() REPRESENTATION_CONTEXT('2D SPACE',''
  ) );
#912 = PCURVE('',#396,#913);
#913 = DEFINITIONAL_REPRESENTATION('',(#914),#918);
#914 = CIRCLE('',#915,89.700000000001);
#915 = AXIS2_PLACEMENT_2D('',#916,#917);
#916 = CARTESIAN_POINT('',(59.068701158196,16.032947867937));
#917 = DIRECTION('',(-0.990009365381,-0.141001618637));
#918 = ( GEOMETRIC_REPRESENTATION_CONTEXT(2) 
PARAMETRIC_REPRESENTATION_CONTEXT() REPRESENTATION_CONTEXT('2D SPACE',''
  ) );
#919 = ADVANCED_FACE('',(#920),#354,.T.);
#920 = FACE_BOUND('',#921,.F.);
#921 = EDGE_LOOP('',(#922,#987,#1013,#1014));
#922 = ORIENTED_EDGE('',*,*,#923,.F.);
#923 = EDGE_CURVE('',#924,#505,#926,.T.);
#924 = VERTEX_POINT('',#925);
#925 = CARTESIAN_POINT('',(-24.880773027,-9.548279089907,8.8));
#926 = SURFACE_CURVE('',#927,(#945,#966),.PCURVE_S1.);
#927 = B_SPLINE_CURVE_WITH_KNOTS('',6,(#928,#929,#930,#931,#932,#933,
    #934,#935,#936,#937,#938,#939,#940,#941,#942,#943,#944),
  .UNSPECIFIED.,.F.,.F.,(7,5,5,7),(0.,6.067877744091E-02,0.502040234804,
    1.),.UNSPECIFIED.);
#928 = CARTESIAN_POINT('',(-24.880773027,-9.548279089906,8.8));
#929 = CARTESIAN_POINT('',(-24.87773259633,-9.549585523188,
    8.800000000003));
#930 = CARTESIAN_POINT('',(-24.87469194969,-9.550891862024,
    8.799955045472));
#931 = CARTESIAN_POINT('',(-24.87165242675,-9.552197530706,
    8.799865136786));
#932 = CARTESIAN_POINT('',(-24.86861536613,-9.55350195453,8.7997303052)
  );
#933 = CARTESIAN_POINT('',(-24.86558210535,-9.5548045598,8.799550612848)
  );
#934 = CARTESIAN_POINT('',(-24.84052820056,-9.565562188448,
    8.797693489008));
#935 = CARTESIAN_POINT('',(-24.81877464374,-9.574892901474,
    8.793692553695));
#936 = CARTESIAN_POINT('',(-24.7978058082,-9.583877223022,8.787358085465
    ));
#937 = CARTESIAN_POINT('',(-24.77813120541,-9.592298510919,
    8.778813866075));
#938 = CARTESIAN_POINT('',(-24.76022069923,-9.599958171606,
    8.768267469185));
#939 = CARTESIAN_POINT('',(-24.72669491095,-9.614286496169,
    8.742170063639));
#940 = CARTESIAN_POINT('',(-24.71166744567,-9.620702551057,
    8.726149632646));
#941 = CARTESIAN_POINT('',(-24.69995301663,-9.62569994128,8.70835454659)
  );
#942 = CARTESIAN_POINT('',(-24.6919903853,-9.629095389311,8.689317631273
    ));
#943 = CARTESIAN_POINT('',(-24.68800984536,-9.630792795788,
    8.669658137845));
#944 = CARTESIAN_POINT('',(-24.68800984536,-9.630792795788,8.65));
#945 = PCURVE('',#354,#946);
#946 = DEFINITIONAL_REPRESENTATION('',(#947),#965);
#947 = B_SPLINE_CURVE_WITH_KNOTS('',6,(#948,#949,#950,#951,#952,#953,
    #954,#955,#956,#957,#958,#959,#960,#961,#962,#963,#964),
  .UNSPECIFIED.,.F.,.F.,(7,5,5,7),(0.,6.067877744091E-02,0.502040234804,
    1.),.UNSPECIFIED.);
#948 = CARTESIAN_POINT('',(-5.513230441991E-03,1.5707963268));
#949 = CARTESIAN_POINT('',(-5.426587241407E-03,1.586599724017));
#950 = CARTESIAN_POINT('',(-5.339925949321E-03,1.602403086912));
#951 = CARTESIAN_POINT('',(-5.253284736713E-03,1.618206563038));
#952 = CARTESIAN_POINT('',(-5.166701779071E-03,1.634010299259));
#953 = CARTESIAN_POINT('',(-5.080215256386E-03,1.649814441748));
#954 = CARTESIAN_POINT('',(-4.365762335609E-03,1.780578322352));
#955 = CARTESIAN_POINT('',(-3.744798274314E-03,1.895564865653));
#956 = CARTESIAN_POINT('',(-3.145608696248E-03,2.010639213641));
#957 = CARTESIAN_POINT('',(-2.582858755083E-03,2.125849246524));
#958 = CARTESIAN_POINT('',(-2.070148652652E-03,2.241224354291));
#959 = CARTESIAN_POINT('',(-1.109829969359E-03,2.487131691476));
#960 = CARTESIAN_POINT('',(-6.7897023765E-04,2.617717413931));
#961 = CARTESIAN_POINT('',(-3.428347168164E-04,2.748511382119));
#962 = CARTESIAN_POINT('',(-1.142628234074E-04,2.879474964052));
#963 = CARTESIAN_POINT('',(1.42108547152E-14,3.010538401293));
#964 = CARTESIAN_POINT('',(1.42108547152E-14,3.14159265359));
#965 = ( GEOMETRIC_REPRESENTATION_CONTEXT(2) 
PARAMETRIC_REPRESENTATION_CONTEXT() REPRESENTATION_CONTEXT('2D SPACE',''
  ) );
#966 = PCURVE('',#831,#967);
#967 = DEFINITIONAL_REPRESENTATION('',(#968),#986);
#968 = B_SPLINE_CURVE_WITH_KNOTS('',6,(#969,#970,#971,#972,#973,#974,
    #975,#976,#977,#978,#979,#980,#981,#982,#983,#984,#985),
  .UNSPECIFIED.,.F.,.F.,(7,5,5,7),(0.,6.067877744091E-02,0.502040234804,
    1.),.UNSPECIFIED.);
#969 = CARTESIAN_POINT('',(0.,63.207511455061));
#970 = CARTESIAN_POINT('',(1.580339722551E-02,63.209820496356));
#971 = CARTESIAN_POINT('',(3.160676011939E-02,63.212129773323));
#972 = CARTESIAN_POINT('',(4.741023624244E-02,63.214438268579));
#973 = CARTESIAN_POINT('',(6.321397246214E-02,63.216744965343));
#974 = CARTESIAN_POINT('',(7.901811495274E-02,63.219048847434));
#975 = CARTESIAN_POINT('',(0.209781995557,63.238078871029));
#976 = CARTESIAN_POINT('',(0.324768538858,63.25460582764));
#977 = CARTESIAN_POINT('',(0.439842886846,63.27054035461));
#978 = CARTESIAN_POINT('',(0.555052919729,63.285494630079));
#979 = CARTESIAN_POINT('',(0.670428027496,63.299110554917));
#980 = CARTESIAN_POINT('',(0.916335364681,63.324601132095));
#981 = CARTESIAN_POINT('',(1.046921087136,63.33602938179));
#982 = CARTESIAN_POINT('',(1.177715055324,63.344939684572));
#983 = CARTESIAN_POINT('',(1.308678637257,63.350996814969));
#984 = CARTESIAN_POINT('',(1.439742074498,63.354024785019));
#985 = CARTESIAN_POINT('',(1.570796326795,63.354024785019));
#986 = ( GEOMETRIC_REPRESENTATION_CONTEXT(2) 
PARAMETRIC_REPRESENTATION_CONTEXT() REPRESENTATION_CONTEXT('2D SPACE',''
  ) );
#987 = ORIENTED_EDGE('',*,*,#988,.T.);
#988 = EDGE_CURVE('',#924,#311,#989,.T.);
#989 = SURFACE_CURVE('',#990,(#995,#1002),.PCURVE_S1.);
#990 = CIRCLE('',#991,26.649999999999);
#991 = AXIS2_PLACEMENT_3D('',#992,#993,#994);
#992 = CARTESIAN_POINT('',(-4.902744876745E-13,-1.350031197944E-13,8.8)
  );
#993 = DIRECTION('',(-0.,0.,-1.));
#994 = DIRECTION('',(-0.931623013032,-0.363426143237,0.));
#995 = PCURVE('',#354,#996);
#996 = DEFINITIONAL_REPRESENTATION('',(#997),#1001);
#997 = LINE('',#998,#999);
#998 = CARTESIAN_POINT('',(-0.,1.570796326795));
#999 = VECTOR('',#1000,1.);
#1000 = DIRECTION('',(-1.,0.));
#1001 = ( GEOMETRIC_REPRESENTATION_CONTEXT(2) 
PARAMETRIC_REPRESENTATION_CONTEXT() REPRESENTATION_CONTEXT('2D SPACE',''
  ) );
#1002 = PCURVE('',#396,#1003);
#1003 = DEFINITIONAL_REPRESENTATION('',(#1004),#1012);
#1004 = ( BOUNDED_CURVE() B_SPLINE_CURVE(2,(#1005,#1006,#1007,#1008,
#1009,#1010,#1011),.UNSPECIFIED.,.T.,.F.) B_SPLINE_CURVE_WITH_KNOTS((1,2
    ,2,2,2,1),(-2.094395102393,0.,2.094395102393,4.188790204786,
6.28318530718,8.377580409573),.UNSPECIFIED.) CURVE() 
GEOMETRIC_REPRESENTATION_ITEM() RATIONAL_B_SPLINE_CURVE((1.,0.5,1.,0.5,
1.,0.5,1.)) REPRESENTATION_ITEM('') );
#1005 = CARTESIAN_POINT('',(34.24094786088,6.347641150663));
#1006 = CARTESIAN_POINT('',(17.465504539675,49.350571299398));
#1007 = CARTESIAN_POINT('',(63.094856146249,42.37706630094));
#1008 = CARTESIAN_POINT('',(108.72420775282,35.403561302483));
#1009 = CARTESIAN_POINT('',(79.870299467455,-0.625863847794));
#1010 = CARTESIAN_POINT('',(51.016391182086,-36.65528899807));
#1011 = CARTESIAN_POINT('',(34.24094786088,6.347641150663));
#1012 = ( GEOMETRIC_REPRESENTATION_CONTEXT(2) 
PARAMETRIC_REPRESENTATION_CONTEXT() REPRESENTATION_CONTEXT('2D SPACE',''
  ) );
#1013 = ORIENTED_EDGE('',*,*,#310,.F.);
#1014 = ORIENTED_EDGE('',*,*,#527,.F.);
#1015 = ADVANCED_FACE('',(#1016),#396,.T.);
#1016 = FACE_BOUND('',#1017,.T.);
#1017 = EDGE_LOOP('',(#1018,#1019,#1020,#1041));
#1018 = ORIENTED_EDGE('',*,*,#380,.T.);
#1019 = ORIENTED_EDGE('',*,*,#898,.T.);
#1020 = ORIENTED_EDGE('',*,*,#1021,.T.);
#1021 = EDGE_CURVE('',#849,#924,#1022,.T.);
#1022 = SURFACE_CURVE('',#1023,(#1027,#1034),.PCURVE_S1.);
#1023 = LINE('',#1024,#1025);
#1024 = CARTESIAN_POINT('',(-83.2768991613,-33.73674652478,8.8));
#1025 = VECTOR('',#1026,1.);
#1026 = DIRECTION('',(0.923879532511,0.382683432365,0.));
#1027 = PCURVE('',#396,#1028);
#1028 = DEFINITIONAL_REPRESENTATION('',(#1029),#1033);
#1029 = LINE('',#1030,#1031);
#1030 = CARTESIAN_POINT('',(-24.20819800311,-17.70379865684));
#1031 = VECTOR('',#1032,1.);
#1032 = DIRECTION('',(0.923879532511,0.382683432365));
#1033 = ( GEOMETRIC_REPRESENTATION_CONTEXT(2) 
PARAMETRIC_REPRESENTATION_CONTEXT() REPRESENTATION_CONTEXT('2D SPACE',''
  ) );
#1034 = PCURVE('',#831,#1035);
#1035 = DEFINITIONAL_REPRESENTATION('',(#1036),#1040);
#1036 = LINE('',#1037,#1038);
#1037 = CARTESIAN_POINT('',(0.,0.));
#1038 = VECTOR('',#1039,1.);
#1039 = DIRECTION('',(0.,1.));
#1040 = ( GEOMETRIC_REPRESENTATION_CONTEXT(2) 
PARAMETRIC_REPRESENTATION_CONTEXT() REPRESENTATION_CONTEXT('2D SPACE',''
  ) );
#1041 = ORIENTED_EDGE('',*,*,#988,.T.);
#1042 = ADVANCED_FACE('',(#1043,#1070),#592,.F.);
#1043 = FACE_BOUND('',#1044,.F.);
#1044 = EDGE_LOOP('',(#1045,#1067,#1068,#1069));
#1045 = ORIENTED_EDGE('',*,*,#1046,.T.);
#1046 = EDGE_CURVE('',#613,#764,#1047,.T.);
#1047 = SURFACE_CURVE('',#1048,(#1053,#1060),.PCURVE_S1.);
#1048 = CIRCLE('',#1049,84.35);
#1049 = AXIS2_PLACEMENT_3D('',#1050,#1051,#1052);
#1050 = CARTESIAN_POINT('',(0.,0.,6.));
#1051 = DIRECTION('',(0.,0.,1.));
#1052 = DIRECTION('',(1.,0.,-0.));
#1053 = PCURVE('',#592,#1054);
#1054 = DEFINITIONAL_REPRESENTATION('',(#1055),#1059);
#1055 = CIRCLE('',#1056,84.35);
#1056 = AXIS2_PLACEMENT_2D('',#1057,#1058);
#1057 = CARTESIAN_POINT('',(59.068701158195,16.032947867937));
#1058 = DIRECTION('',(1.,0.));
#1059 = ( GEOMETRIC_REPRESENTATION_CONTEXT(2) 
PARAMETRIC_REPRESENTATION_CONTEXT() REPRESENTATION_CONTEXT('2D SPACE',''
  ) );
#1060 = PCURVE('',#652,#1061);
#1061 = DEFINITIONAL_REPRESENTATION('',(#1062),#1066);
#1062 = LINE('',#1063,#1064);
#1063 = CARTESIAN_POINT('',(0.,1.));
#1064 = VECTOR('',#1065,1.);
#1065 = DIRECTION('',(1.,0.));
#1066 = ( GEOMETRIC_REPRESENTATION_CONTEXT(2) 
PARAMETRIC_REPRESENTATION_CONTEXT() REPRESENTATION_CONTEXT('2D SPACE',''
  ) );
#1067 = ORIENTED_EDGE('',*,*,#790,.F.);
#1068 = ORIENTED_EDGE('',*,*,#577,.T.);
#1069 = ORIENTED_EDGE('',*,*,#612,.T.);
#1070 = FACE_BOUND('',#1071,.F.);
#1071 = EDGE_LOOP('',(#1072,#1102,#1135,#1163));
#1072 = ORIENTED_EDGE('',*,*,#1073,.T.);
#1073 = EDGE_CURVE('',#1074,#1076,#1078,.T.);
#1074 = VERTEX_POINT('',#1075);
#1075 = CARTESIAN_POINT('',(-71.19838908091,-27.15270506382,6.));
#1076 = VERTEX_POINT('',#1077);
#1077 = CARTESIAN_POINT('',(-76.41438854287,-28.55032790737,6.));
#1078 = SURFACE_CURVE('',#1079,(#1083,#1090),.PCURVE_S1.);
#1079 = LINE('',#1080,#1081);
#1080 = CARTESIAN_POINT('',(-71.19838908091,-27.15270506382,6.));
#1081 = VECTOR('',#1082,1.);
#1082 = DIRECTION('',(-0.965925826289,-0.258819045103,0.));
#1083 = PCURVE('',#592,#1084);
#1084 = DEFINITIONAL_REPRESENTATION('',(#1085),#1089);
#1085 = LINE('',#1086,#1087);
#1086 = CARTESIAN_POINT('',(-12.12968792271,-11.11975719588));
#1087 = VECTOR('',#1088,1.);
#1088 = DIRECTION('',(-0.965925826289,-0.258819045103));
#1089 = ( GEOMETRIC_REPRESENTATION_CONTEXT(2) 
PARAMETRIC_REPRESENTATION_CONTEXT() REPRESENTATION_CONTEXT('2D SPACE',''
  ) );
#1090 = PCURVE('',#1091,#1096);
#1091 = PLANE('',#1092);
#1092 = AXIS2_PLACEMENT_3D('',#1093,#1094,#1095);
#1093 = CARTESIAN_POINT('',(-71.19838908091,-27.15270506382,4.8));
#1094 = DIRECTION('',(0.258819045103,-0.965925826289,0.));
#1095 = DIRECTION('',(-0.965925826289,-0.258819045103,0.));
#1096 = DEFINITIONAL_REPRESENTATION('',(#1097),#1101);
#1097 = LINE('',#1098,#1099);
#1098 = CARTESIAN_POINT('',(0.,-1.2));
#1099 = VECTOR('',#1100,1.);
#1100 = DIRECTION('',(1.,0.));
#1101 = ( GEOMETRIC_REPRESENTATION_CONTEXT(2) 
PARAMETRIC_REPRESENTATION_CONTEXT() REPRESENTATION_CONTEXT('2D SPACE',''
  ) );
#1102 = ORIENTED_EDGE('',*,*,#1103,.T.);
#1103 = EDGE_CURVE('',#1076,#1104,#1106,.T.);
#1104 = VERTEX_POINT('',#1105);
#1105 = CARTESIAN_POINT('',(-76.82849901503,-27.00484658531,6.));
#1106 = SURFACE_CURVE('',#1107,(#1112,#1123),.PCURVE_S1.);
#1107 = CIRCLE('',#1108,0.8);
#1108 = AXIS2_PLACEMENT_3D('',#1109,#1110,#1111);
#1109 = CARTESIAN_POINT('',(-76.62144377895,-27.77758724634,6.));
#1110 = DIRECTION('',(0.,0.,-1.));
#1111 = DIRECTION('',(0.965925826289,0.258819045103,0.));
#1112 = PCURVE('',#592,#1113);
#1113 = DEFINITIONAL_REPRESENTATION('',(#1114),#1122);
#1114 = ( BOUNDED_CURVE() B_SPLINE_CURVE(2,(#1115,#1116,#1117,#1118,
#1119,#1120,#1121),.UNSPECIFIED.,.T.,.F.) B_SPLINE_CURVE_WITH_KNOTS((1,2
    ,2,2,2,1),(-2.094395102393,0.,2.094395102393,4.188790204786,
6.28318530718,8.377580409573),.UNSPECIFIED.) CURVE() 
GEOMETRIC_REPRESENTATION_ITEM() RATIONAL_B_SPLINE_CURVE((1.,0.5,1.,0.5,
1.,0.5,1.)) REPRESENTATION_ITEM('') );
#1115 = CARTESIAN_POINT('',(-16.78000195972,-11.53758414233));
#1116 = CARTESIAN_POINT('',(-16.42137177086,-12.87601022831));
#1117 = CARTESIAN_POINT('',(-17.75979785684,-12.51738003944));
#1118 = CARTESIAN_POINT('',(-19.09822394282,-12.15874985057));
#1119 = CARTESIAN_POINT('',(-18.1184280457,-11.17895395346));
#1120 = CARTESIAN_POINT('',(-17.13863214859,-10.19915805634));
#1121 = CARTESIAN_POINT('',(-16.78000195972,-11.53758414233));
#1122 = ( GEOMETRIC_REPRESENTATION_CONTEXT(2) 
PARAMETRIC_REPRESENTATION_CONTEXT() REPRESENTATION_CONTEXT('2D SPACE',''
  ) );
#1123 = PCURVE('',#1124,#1129);
#1124 = CYLINDRICAL_SURFACE('',#1125,0.8);
#1125 = AXIS2_PLACEMENT_3D('',#1126,#1127,#1128);
#1126 = CARTESIAN_POINT('',(-76.62144377895,-27.77758724634,4.8));
#1127 = DIRECTION('',(0.,0.,-1.));
#1128 = DIRECTION('',(0.965925826289,0.258819045103,0.));
#1129 = DEFINITIONAL_REPRESENTATION('',(#1130),#1134);
#1130 = LINE('',#1131,#1132);
#1131 = CARTESIAN_POINT('',(0.,-1.2));
#1132 = VECTOR('',#1133,1.);
#1133 = DIRECTION('',(1.,0.));
#1134 = ( GEOMETRIC_REPRESENTATION_CONTEXT(2) 
PARAMETRIC_REPRESENTATION_CONTEXT() REPRESENTATION_CONTEXT('2D SPACE',''
  ) );
#1135 = ORIENTED_EDGE('',*,*,#1136,.T.);
#1136 = EDGE_CURVE('',#1104,#1137,#1139,.T.);
#1137 = VERTEX_POINT('',#1138);
#1138 = CARTESIAN_POINT('',(-71.61249955307,-25.60722374176,6.));
#1139 = SURFACE_CURVE('',#1140,(#1144,#1151),.PCURVE_S1.);
#1140 = LINE('',#1141,#1142);
#1141 = CARTESIAN_POINT('',(-76.82849901503,-27.00484658531,6.));
#1142 = VECTOR('',#1143,1.);
#1143 = DIRECTION('',(0.965925826289,0.258819045103,0.));
#1144 = PCURVE('',#592,#1145);
#1145 = DEFINITIONAL_REPRESENTATION('',(#1146),#1150);
#1146 = LINE('',#1147,#1148);
#1147 = CARTESIAN_POINT('',(-17.75979785684,-10.97189871738));
#1148 = VECTOR('',#1149,1.);
#1149 = DIRECTION('',(0.965925826289,0.258819045103));
#1150 = ( GEOMETRIC_REPRESENTATION_CONTEXT(2) 
PARAMETRIC_REPRESENTATION_CONTEXT() REPRESENTATION_CONTEXT('2D SPACE',''
  ) );
#1151 = PCURVE('',#1152,#1157);
#1152 = PLANE('',#1153);
#1153 = AXIS2_PLACEMENT_3D('',#1154,#1155,#1156);
#1154 = CARTESIAN_POINT('',(-74.22049928405,-26.30603516354,4.8));
#1155 = DIRECTION('',(0.258819045103,-0.965925826289,0.));
#1156 = DIRECTION('',(-0.965925826289,-0.258819045103,0.));
#1157 = DEFINITIONAL_REPRESENTATION('',(#1158),#1162);
#1158 = LINE('',#1159,#1160);
#1159 = CARTESIAN_POINT('',(2.7,-1.2));
#1160 = VECTOR('',#1161,1.);
#1161 = DIRECTION('',(-1.,0.));
#1162 = ( GEOMETRIC_REPRESENTATION_CONTEXT(2) 
PARAMETRIC_REPRESENTATION_CONTEXT() REPRESENTATION_CONTEXT('2D SPACE',''
  ) );
#1163 = ORIENTED_EDGE('',*,*,#1164,.T.);
#1164 = EDGE_CURVE('',#1137,#1074,#1165,.T.);
#1165 = SURFACE_CURVE('',#1166,(#1171,#1182),.PCURVE_S1.);
#1166 = CIRCLE('',#1167,0.8);
#1167 = AXIS2_PLACEMENT_3D('',#1168,#1169,#1170);
#1168 = CARTESIAN_POINT('',(-71.40544431699,-26.37996440279,6.));
#1169 = DIRECTION('',(-0.,0.,-1.));
#1170 = DIRECTION('',(-0.965925826289,-0.258819045103,0.));
#1171 = PCURVE('',#592,#1172);
#1172 = DEFINITIONAL_REPRESENTATION('',(#1173),#1181);
#1173 = ( BOUNDED_CURVE() B_SPLINE_CURVE(2,(#1174,#1175,#1176,#1177,
#1178,#1179,#1180),.UNSPECIFIED.,.T.,.F.) B_SPLINE_CURVE_WITH_KNOTS((1,2
    ,2,2,2,1),(-2.094395102393,0.,2.094395102393,4.188790204786,
6.28318530718,8.377580409573),.UNSPECIFIED.) CURVE() 
GEOMETRIC_REPRESENTATION_ITEM() RATIONAL_B_SPLINE_CURVE((1.,0.5,1.,0.5,
1.,0.5,1.)) REPRESENTATION_ITEM('') );
#1174 = CARTESIAN_POINT('',(-13.10948381983,-10.55407177094));
#1175 = CARTESIAN_POINT('',(-13.46811400869,-9.215645684959));
#1176 = CARTESIAN_POINT('',(-12.12968792271,-9.574275873827));
#1177 = CARTESIAN_POINT('',(-10.79126183673,-9.932906062694));
#1178 = CARTESIAN_POINT('',(-11.77105773384,-10.9127019598));
#1179 = CARTESIAN_POINT('',(-12.75085363096,-11.89249785692));
#1180 = CARTESIAN_POINT('',(-13.10948381983,-10.55407177094));
#1181 = ( GEOMETRIC_REPRESENTATION_CONTEXT(2) 
PARAMETRIC_REPRESENTATION_CONTEXT() REPRESENTATION_CONTEXT('2D SPACE',''
  ) );
#1182 = PCURVE('',#1183,#1188);
#1183 = CYLINDRICAL_SURFACE('',#1184,0.8);
#1184 = AXIS2_PLACEMENT_3D('',#1185,#1186,#1187);
#1185 = CARTESIAN_POINT('',(-71.40544431699,-26.37996440279,4.8));
#1186 = DIRECTION('',(0.,-0.,-1.));
#1187 = DIRECTION('',(-0.965925826289,-0.258819045103,0.));
#1188 = DEFINITIONAL_REPRESENTATION('',(#1189),#1193);
#1189 = LINE('',#1190,#1191);
#1190 = CARTESIAN_POINT('',(0.,-1.2));
#1191 = VECTOR('',#1192,1.);
#1192 = DIRECTION('',(1.,0.));
#1193 = ( GEOMETRIC_REPRESENTATION_CONTEXT(2) 
PARAMETRIC_REPRESENTATION_CONTEXT() REPRESENTATION_CONTEXT('2D SPACE',''
  ) );
#1194 = ADVANCED_FACE('',(#1195),#652,.T.);
#1195 = FACE_BOUND('',#1196,.T.);
#1196 = EDGE_LOOP('',(#1197,#1198,#1199,#1200));
#1197 = ORIENTED_EDGE('',*,*,#691,.F.);
#1198 = ORIENTED_EDGE('',*,*,#635,.F.);
#1199 = ORIENTED_EDGE('',*,*,#1046,.T.);
#1200 = ORIENTED_EDGE('',*,*,#763,.F.);
#1201 = ADVANCED_FACE('',(#1202),#831,.T.);
#1202 = FACE_BOUND('',#1203,.T.);
#1203 = EDGE_LOOP('',(#1204,#1205,#1206,#1207));
#1204 = ORIENTED_EDGE('',*,*,#848,.F.);
#1205 = ORIENTED_EDGE('',*,*,#817,.T.);
#1206 = ORIENTED_EDGE('',*,*,#923,.F.);
#1207 = ORIENTED_EDGE('',*,*,#1021,.F.);
#1208 = ADVANCED_FACE('',(#1209),#1091,.T.);
#1209 = FACE_BOUND('',#1210,.T.);
#1210 = EDGE_LOOP('',(#1211,#1234,#1235,#1258));
#1211 = ORIENTED_EDGE('',*,*,#1212,.T.);
#1212 = EDGE_CURVE('',#1213,#1074,#1215,.T.);
#1213 = VERTEX_POINT('',#1214);
#1214 = CARTESIAN_POINT('',(-71.19838908091,-27.15270506382,4.8));
#1215 = SURFACE_CURVE('',#1216,(#1220,#1227),.PCURVE_S1.);
#1216 = LINE('',#1217,#1218);
#1217 = CARTESIAN_POINT('',(-71.19838908091,-27.15270506382,4.8));
#1218 = VECTOR('',#1219,1.);
#1219 = DIRECTION('',(0.,0.,1.));
#1220 = PCURVE('',#1091,#1221);
#1221 = DEFINITIONAL_REPRESENTATION('',(#1222),#1226);
#1222 = LINE('',#1223,#1224);
#1223 = CARTESIAN_POINT('',(0.,0.));
#1224 = VECTOR('',#1225,1.);
#1225 = DIRECTION('',(0.,-1.));
#1226 = ( GEOMETRIC_REPRESENTATION_CONTEXT(2) 
PARAMETRIC_REPRESENTATION_CONTEXT() REPRESENTATION_CONTEXT('2D SPACE',''
  ) );
#1227 = PCURVE('',#1183,#1228);
#1228 = DEFINITIONAL_REPRESENTATION('',(#1229),#1233);
#1229 = LINE('',#1230,#1231);
#1230 = CARTESIAN_POINT('',(4.712388980385,0.));
#1231 = VECTOR('',#1232,1.);
#1232 = DIRECTION('',(0.,-1.));
#1233 = ( GEOMETRIC_REPRESENTATION_CONTEXT(2) 
PARAMETRIC_REPRESENTATION_CONTEXT() REPRESENTATION_CONTEXT('2D SPACE',''
  ) );
#1234 = ORIENTED_EDGE('',*,*,#1073,.T.);
#1235 = ORIENTED_EDGE('',*,*,#1236,.F.);
#1236 = EDGE_CURVE('',#1237,#1076,#1239,.T.);
#1237 = VERTEX_POINT('',#1238);
#1238 = CARTESIAN_POINT('',(-76.41438854287,-28.55032790737,4.8));
#1239 = SURFACE_CURVE('',#1240,(#1244,#1251),.PCURVE_S1.);
#1240 = LINE('',#1241,#1242);
#1241 = CARTESIAN_POINT('',(-76.41438854287,-28.55032790737,4.8));
#1242 = VECTOR('',#1243,1.);
#1243 = DIRECTION('',(0.,0.,1.));
#1244 = PCURVE('',#1091,#1245);
#1245 = DEFINITIONAL_REPRESENTATION('',(#1246),#1250);
#1246 = LINE('',#1247,#1248);
#1247 = CARTESIAN_POINT('',(5.4,0.));
#1248 = VECTOR('',#1249,1.);
#1249 = DIRECTION('',(0.,-1.));
#1250 = ( GEOMETRIC_REPRESENTATION_CONTEXT(2) 
PARAMETRIC_REPRESENTATION_CONTEXT() REPRESENTATION_CONTEXT('2D SPACE',''
  ) );
#1251 = PCURVE('',#1124,#1252);
#1252 = DEFINITIONAL_REPRESENTATION('',(#1253),#1257);
#1253 = LINE('',#1254,#1255);
#1254 = CARTESIAN_POINT('',(1.570796326795,0.));
#1255 = VECTOR('',#1256,1.);
#1256 = DIRECTION('',(0.,-1.));
#1257 = ( GEOMETRIC_REPRESENTATION_CONTEXT(2) 
PARAMETRIC_REPRESENTATION_CONTEXT() REPRESENTATION_CONTEXT('2D SPACE',''
  ) );
#1258 = ORIENTED_EDGE('',*,*,#1259,.T.);
#1259 = EDGE_CURVE('',#1237,#1213,#1260,.T.);
#1260 = SURFACE_CURVE('',#1261,(#1265,#1272),.PCURVE_S1.);
#1261 = LINE('',#1262,#1263);
#1262 = CARTESIAN_POINT('',(-76.41438854287,-28.55032790737,4.8));
#1263 = VECTOR('',#1264,1.);
#1264 = DIRECTION('',(0.965925826289,0.258819045103,0.));
#1265 = PCURVE('',#1091,#1266);
#1266 = DEFINITIONAL_REPRESENTATION('',(#1267),#1271);
#1267 = LINE('',#1268,#1269);
#1268 = CARTESIAN_POINT('',(5.4,0.));
#1269 = VECTOR('',#1270,1.);
#1270 = DIRECTION('',(-1.,0.));
#1271 = ( GEOMETRIC_REPRESENTATION_CONTEXT(2) 
PARAMETRIC_REPRESENTATION_CONTEXT() REPRESENTATION_CONTEXT('2D SPACE',''
  ) );
#1272 = PCURVE('',#1273,#1278);
#1273 = PLANE('',#1274);
#1274 = AXIS2_PLACEMENT_3D('',#1275,#1276,#1277);
#1275 = CARTESIAN_POINT('',(-74.01344404797,-27.07877582457,4.8));
#1276 = DIRECTION('',(0.,0.,1.));
#1277 = DIRECTION('',(-0.965925826289,-0.258819045103,0.));
#1278 = DEFINITIONAL_REPRESENTATION('',(#1279),#1283);
#1279 = LINE('',#1280,#1281);
#1280 = CARTESIAN_POINT('',(2.7,0.8));
#1281 = VECTOR('',#1282,1.);
#1282 = DIRECTION('',(-1.,0.));
#1283 = ( GEOMETRIC_REPRESENTATION_CONTEXT(2) 
PARAMETRIC_REPRESENTATION_CONTEXT() REPRESENTATION_CONTEXT('2D SPACE',''
  ) );
#1284 = ADVANCED_FACE('',(#1285),#1183,.T.);
#1285 = FACE_BOUND('',#1286,.T.);
#1286 = EDGE_LOOP('',(#1287,#1310,#1311,#1312));
#1287 = ORIENTED_EDGE('',*,*,#1288,.T.);
#1288 = EDGE_CURVE('',#1289,#1137,#1291,.T.);
#1289 = VERTEX_POINT('',#1290);
#1290 = CARTESIAN_POINT('',(-71.61249955307,-25.60722374176,4.8));
#1291 = SURFACE_CURVE('',#1292,(#1296,#1303),.PCURVE_S1.);
#1292 = LINE('',#1293,#1294);
#1293 = CARTESIAN_POINT('',(-71.61249955307,-25.60722374176,4.8));
#1294 = VECTOR('',#1295,1.);
#1295 = DIRECTION('',(0.,0.,1.));
#1296 = PCURVE('',#1183,#1297);
#1297 = DEFINITIONAL_REPRESENTATION('',(#1298),#1302);
#1298 = LINE('',#1299,#1300);
#1299 = CARTESIAN_POINT('',(1.570796326795,0.));
#1300 = VECTOR('',#1301,1.);
#1301 = DIRECTION('',(0.,-1.));
#1302 = ( GEOMETRIC_REPRESENTATION_CONTEXT(2) 
PARAMETRIC_REPRESENTATION_CONTEXT() REPRESENTATION_CONTEXT('2D SPACE',''
  ) );
#1303 = PCURVE('',#1152,#1304);
#1304 = DEFINITIONAL_REPRESENTATION('',(#1305),#1309);
#1305 = LINE('',#1306,#1307);
#1306 = CARTESIAN_POINT('',(-2.7,0.));
#1307 = VECTOR('',#1308,1.);
#1308 = DIRECTION('',(0.,-1.));
#1309 = ( GEOMETRIC_REPRESENTATION_CONTEXT(2) 
PARAMETRIC_REPRESENTATION_CONTEXT() REPRESENTATION_CONTEXT('2D SPACE',''
  ) );
#1310 = ORIENTED_EDGE('',*,*,#1164,.T.);
#1311 = ORIENTED_EDGE('',*,*,#1212,.F.);
#1312 = ORIENTED_EDGE('',*,*,#1313,.F.);
#1313 = EDGE_CURVE('',#1289,#1213,#1314,.T.);
#1314 = SURFACE_CURVE('',#1315,(#1320,#1327),.PCURVE_S1.);
#1315 = CIRCLE('',#1316,0.8);
#1316 = AXIS2_PLACEMENT_3D('',#1317,#1318,#1319);
#1317 = CARTESIAN_POINT('',(-71.40544431699,-26.37996440279,4.8));
#1318 = DIRECTION('',(-0.,0.,-1.));
#1319 = DIRECTION('',(-0.965925826289,-0.258819045103,0.));
#1320 = PCURVE('',#1183,#1321);
#1321 = DEFINITIONAL_REPRESENTATION('',(#1322),#1326);
#1322 = LINE('',#1323,#1324);
#1323 = CARTESIAN_POINT('',(0.,0.));
#1324 = VECTOR('',#1325,1.);
#1325 = DIRECTION('',(1.,0.));
#1326 = ( GEOMETRIC_REPRESENTATION_CONTEXT(2) 
PARAMETRIC_REPRESENTATION_CONTEXT() REPRESENTATION_CONTEXT('2D SPACE',''
  ) );
#1327 = PCURVE('',#1273,#1328);
#1328 = DEFINITIONAL_REPRESENTATION('',(#1329),#1337);
#1329 = ( BOUNDED_CURVE() B_SPLINE_CURVE(2,(#1330,#1331,#1332,#1333,
#1334,#1335,#1336),.UNSPECIFIED.,.T.,.F.) B_SPLINE_CURVE_WITH_KNOTS((1,2
    ,2,2,2,1),(-2.094395102393,0.,2.094395102393,4.188790204786,
6.28318530718,8.377580409573),.UNSPECIFIED.) CURVE() 
GEOMETRIC_REPRESENTATION_ITEM() RATIONAL_B_SPLINE_CURVE((1.,0.5,1.,0.5,
1.,0.5,1.)) REPRESENTATION_ITEM('') );
#1330 = CARTESIAN_POINT('',(-1.9,0.));
#1331 = CARTESIAN_POINT('',(-1.9,-1.385640646055));
#1332 = CARTESIAN_POINT('',(-3.1,-0.692820323028));
#1333 = CARTESIAN_POINT('',(-4.3,-1.959434878636E-16));
#1334 = CARTESIAN_POINT('',(-3.1,0.692820323028));
#1335 = CARTESIAN_POINT('',(-1.9,1.385640646055));
#1336 = CARTESIAN_POINT('',(-1.9,0.));
#1337 = ( GEOMETRIC_REPRESENTATION_CONTEXT(2) 
PARAMETRIC_REPRESENTATION_CONTEXT() REPRESENTATION_CONTEXT('2D SPACE',''
  ) );
#1338 = ADVANCED_FACE('',(#1339),#1152,.F.);
#1339 = FACE_BOUND('',#1340,.F.);
#1340 = EDGE_LOOP('',(#1341,#1364,#1385,#1386));
#1341 = ORIENTED_EDGE('',*,*,#1342,.F.);
#1342 = EDGE_CURVE('',#1343,#1104,#1345,.T.);
#1343 = VERTEX_POINT('',#1344);
#1344 = CARTESIAN_POINT('',(-76.82849901503,-27.00484658531,4.8));
#1345 = SURFACE_CURVE('',#1346,(#1350,#1357),.PCURVE_S1.);
#1346 = LINE('',#1347,#1348);
#1347 = CARTESIAN_POINT('',(-76.82849901503,-27.00484658531,4.8));
#1348 = VECTOR('',#1349,1.);
#1349 = DIRECTION('',(0.,0.,1.));
#1350 = PCURVE('',#1152,#1351);
#1351 = DEFINITIONAL_REPRESENTATION('',(#1352),#1356);
#1352 = LINE('',#1353,#1354);
#1353 = CARTESIAN_POINT('',(2.7,0.));
#1354 = VECTOR('',#1355,1.);
#1355 = DIRECTION('',(0.,-1.));
#1356 = ( GEOMETRIC_REPRESENTATION_CONTEXT(2) 
PARAMETRIC_REPRESENTATION_CONTEXT() REPRESENTATION_CONTEXT('2D SPACE',''
  ) );
#1357 = PCURVE('',#1124,#1358);
#1358 = DEFINITIONAL_REPRESENTATION('',(#1359),#1363);
#1359 = LINE('',#1360,#1361);
#1360 = CARTESIAN_POINT('',(4.712388980385,0.));
#1361 = VECTOR('',#1362,1.);
#1362 = DIRECTION('',(0.,-1.));
#1363 = ( GEOMETRIC_REPRESENTATION_CONTEXT(2) 
PARAMETRIC_REPRESENTATION_CONTEXT() REPRESENTATION_CONTEXT('2D SPACE',''
  ) );
#1364 = ORIENTED_EDGE('',*,*,#1365,.F.);
#1365 = EDGE_CURVE('',#1289,#1343,#1366,.T.);
#1366 = SURFACE_CURVE('',#1367,(#1371,#1378),.PCURVE_S1.);
#1367 = LINE('',#1368,#1369);
#1368 = CARTESIAN_POINT('',(-71.61249955307,-25.60722374176,4.8));
#1369 = VECTOR('',#1370,1.);
#1370 = DIRECTION('',(-0.965925826289,-0.258819045103,0.));
#1371 = PCURVE('',#1152,#1372);
#1372 = DEFINITIONAL_REPRESENTATION('',(#1373),#1377);
#1373 = LINE('',#1374,#1375);
#1374 = CARTESIAN_POINT('',(-2.7,0.));
#1375 = VECTOR('',#1376,1.);
#1376 = DIRECTION('',(1.,0.));
#1377 = ( GEOMETRIC_REPRESENTATION_CONTEXT(2) 
PARAMETRIC_REPRESENTATION_CONTEXT() REPRESENTATION_CONTEXT('2D SPACE',''
  ) );
#1378 = PCURVE('',#1273,#1379);
#1379 = DEFINITIONAL_REPRESENTATION('',(#1380),#1384);
#1380 = LINE('',#1381,#1382);
#1381 = CARTESIAN_POINT('',(-2.7,-0.8));
#1382 = VECTOR('',#1383,1.);
#1383 = DIRECTION('',(1.,0.));
#1384 = ( GEOMETRIC_REPRESENTATION_CONTEXT(2) 
PARAMETRIC_REPRESENTATION_CONTEXT() REPRESENTATION_CONTEXT('2D SPACE',''
  ) );
#1385 = ORIENTED_EDGE('',*,*,#1288,.T.);
#1386 = ORIENTED_EDGE('',*,*,#1136,.F.);
#1387 = ADVANCED_FACE('',(#1388),#1124,.T.);
#1388 = FACE_BOUND('',#1389,.T.);
#1389 = EDGE_LOOP('',(#1390,#1391,#1392,#1393));
#1390 = ORIENTED_EDGE('',*,*,#1236,.T.);
#1391 = ORIENTED_EDGE('',*,*,#1103,.T.);
#1392 = ORIENTED_EDGE('',*,*,#1342,.F.);
#1393 = ORIENTED_EDGE('',*,*,#1394,.F.);
#1394 = EDGE_CURVE('',#1237,#1343,#1395,.T.);
#1395 = SURFACE_CURVE('',#1396,(#1401,#1408),.PCURVE_S1.);
#1396 = CIRCLE('',#1397,0.8);
#1397 = AXIS2_PLACEMENT_3D('',#1398,#1399,#1400);
#1398 = CARTESIAN_POINT('',(-76.62144377895,-27.77758724634,4.8));
#1399 = DIRECTION('',(0.,0.,-1.));
#1400 = DIRECTION('',(0.965925826289,0.258819045103,0.));
#1401 = PCURVE('',#1124,#1402);
#1402 = DEFINITIONAL_REPRESENTATION('',(#1403),#1407);
#1403 = LINE('',#1404,#1405);
#1404 = CARTESIAN_POINT('',(0.,0.));
#1405 = VECTOR('',#1406,1.);
#1406 = DIRECTION('',(1.,0.));
#1407 = ( GEOMETRIC_REPRESENTATION_CONTEXT(2) 
PARAMETRIC_REPRESENTATION_CONTEXT() REPRESENTATION_CONTEXT('2D SPACE',''
  ) );
#1408 = PCURVE('',#1273,#1409);
#1409 = DEFINITIONAL_REPRESENTATION('',(#1410),#1418);
#1410 = ( BOUNDED_CURVE() B_SPLINE_CURVE(2,(#1411,#1412,#1413,#1414,
#1415,#1416,#1417),.UNSPECIFIED.,.T.,.F.) B_SPLINE_CURVE_WITH_KNOTS((1,2
    ,2,2,2,1),(-2.094395102393,0.,2.094395102393,4.188790204786,
6.28318530718,8.377580409573),.UNSPECIFIED.) CURVE() 
GEOMETRIC_REPRESENTATION_ITEM() RATIONAL_B_SPLINE_CURVE((1.,0.5,1.,0.5,
1.,0.5,1.)) REPRESENTATION_ITEM('') );
#1411 = CARTESIAN_POINT('',(1.9,0.));
#1412 = CARTESIAN_POINT('',(1.9,1.385640646055));
#1413 = CARTESIAN_POINT('',(3.1,0.692820323028));
#1414 = CARTESIAN_POINT('',(4.3,1.959434878636E-16));
#1415 = CARTESIAN_POINT('',(3.1,-0.692820323028));
#1416 = CARTESIAN_POINT('',(1.9,-1.385640646055));
#1417 = CARTESIAN_POINT('',(1.9,0.));
#1418 = ( GEOMETRIC_REPRESENTATION_CONTEXT(2) 
PARAMETRIC_REPRESENTATION_CONTEXT() REPRESENTATION_CONTEXT('2D SPACE',''
  ) );
#1419 = ADVANCED_FACE('',(#1420),#1273,.F.);
#1420 = FACE_BOUND('',#1421,.T.);
#1421 = EDGE_LOOP('',(#1422,#1423,#1424,#1425));
#1422 = ORIENTED_EDGE('',*,*,#1394,.T.);
#1423 = ORIENTED_EDGE('',*,*,#1365,.F.);
#1424 = ORIENTED_EDGE('',*,*,#1313,.T.);
#1425 = ORIENTED_EDGE('',*,*,#1259,.F.);
#1426 = ( GEOMETRIC_REPRESENTATION_CONTEXT(3) 
GLOBAL_UNCERTAINTY_ASSIGNED_CONTEXT((#1430)) 
GLOBAL_UNIT_ASSIGNED_CONTEXT((#1427,#1428,#1429)) REPRESENTATION_CONTEXT
('Context #1','3D Context with UNIT and UNCERTAINTY') );
#1427 = ( LENGTH_UNIT() NAMED_UNIT(*) SI_UNIT(.MILLI.,.METRE.) );
#1428 = ( NAMED_UNIT(*) PLANE_ANGLE_UNIT() SI_UNIT($,.RADIAN.) );
#1429 = ( NAMED_UNIT(*) SI_UNIT($,.STERADIAN.) SOLID_ANGLE_UNIT() );
#1430 = UNCERTAINTY_MEASURE_WITH_UNIT(LENGTH_MEASURE(1.E-07),#1427,
  'distance_accuracy_value','confusion accuracy');
#1431 = CONTEXT_DEPENDENT_SHAPE_REPRESENTATION(#1432,#1434);
#1432 = ( REPRESENTATION_RELATIONSHIP('','',#32,#10) 
REPRESENTATION_RELATIONSHIP_WITH_TRANSFORMATION(#1433) 
SHAPE_REPRESENTATION_RELATIONSHIP() );
#1433 = ITEM_DEFINED_TRANSFORMATION('','',#11,#15);
#1434 = PRODUCT_DEFINITION_SHAPE('Placement','Placement of an item',
  #1435);
#1435 = NEXT_ASSEMBLY_USAGE_OCCURRENCE('89','=>[0:1:1:2]','',#5,#27,$);
#1436 = PRODUCT_RELATED_PRODUCT_CATEGORY('part',$,(#29));
#1437 = MECHANICAL_DESIGN_GEOMETRIC_PRESENTATION_REPRESENTATION('',(
    #1438),#1426);
#1438 = STYLED_ITEM('color',(#1439),#33);
#1439 = PRESENTATION_STYLE_ASSIGNMENT((#1440));
#1440 = SURFACE_STYLE_USAGE(.BOTH.,#1441);
#1441 = SURFACE_SIDE_STYLE('',(#1442));
#1442 = SURFACE_STYLE_FILL_AREA(#1443);
#1443 = FILL_AREA_STYLE('',(#1444));
#1444 = FILL_AREA_STYLE_COLOUR('',#1445);
#1445 = COLOUR_RGB('',1.,0.830000008529,9.999999991362E-02);

#1446=DESCRIPTIVE_REPRESENTATION_ITEM('cadgen:generator','cadgen');
#1447=REPRESENTATION('cadgen:generator',(#1446),#19);
#1448=PROPERTY_DEFINITION('cadgen metadata','cadgen:generator',#5);
#1449=PROPERTY_DEFINITION_REPRESENTATION(#1448,#1447);
#1450=DESCRIPTIVE_REPRESENTATION_ITEM('cadgen:entryKind','part');
#1451=REPRESENTATION('cadgen:entryKind',(#1450),#19);
#1452=PROPERTY_DEFINITION('cadgen metadata','cadgen:entryKind',#5);
#1453=PROPERTY_DEFINITION_REPRESENTATION(#1452,#1451);
#1454=DESCRIPTIVE_REPRESENTATION_ITEM('cadgen:sourcePath','part_lane_19_yellow.step.py');
#1455=REPRESENTATION('cadgen:sourcePath',(#1454),#19);
#1456=PROPERTY_DEFINITION('cadgen metadata','cadgen:sourcePath',#5);
#1457=PROPERTY_DEFINITION_REPRESENTATION(#1456,#1455);
#1458=DESCRIPTIVE_REPRESENTATION_ITEM('cadgen:sourceHash','c2753d8c4b64a92db7a90411324510ae4db6bb8a517ec0991cb9ef900514eecc');
#1459=REPRESENTATION('cadgen:sourceHash',(#1458),#19);
#1460=PROPERTY_DEFINITION('cadgen metadata','cadgen:sourceHash',#5);
#1461=PROPERTY_DEFINITION_REPRESENTATION(#1460,#1459);
ENDSEC;
END-ISO-10303-21;
