ISO-10303-21;
HEADER;
FILE_DESCRIPTION(('Open CASCADE Model'),'2;1');
FILE_NAME('lane_05_yellow','1970-01-01T00:00:00',('Author'),(
    'Open CASCADE'),'Open CASCADE STEP processor 7.9','cadgen','Unknown'
  );
FILE_SCHEMA(('AUTOMOTIVE_DESIGN { 1 0 10303 214 1 1 1 1 }'));
ENDSEC;
DATA;
#1 = APPLICATION_PROTOCOL_DEFINITION('international standard',
  'automotive_design',2000,#2);
#2 = APPLICATION_CONTEXT(
  'core data for automotive mechanical design processes');
#3 = SHAPE_DEFINITION_REPRESENTATION(#4,#10);
#4 = PRODUCT_DEFINITION_SHAPE('','',#5);
#5 = PRODUCT_DEFINITION('design','',#6,#9);
#6 = PRODUCT_DEFINITION_FORMATION('','',#7);
#7 = PRODUCT('=>[0:1:1:2]','=>[0:1:1:2]','',(#8));
#8 = PRODUCT_CONTEXT('',#2,'mechanical');
#9 = PRODUCT_DEFINITION_CONTEXT('part definition',#2,'design');
#10 = SHAPE_REPRESENTATION('',(#11,#15),#19);
#11 = AXIS2_PLACEMENT_3D('',#12,#13,#14);
#12 = CARTESIAN_POINT('',(0.,0.,0.));
#13 = DIRECTION('',(0.,0.,1.));
#14 = DIRECTION('',(1.,0.,-0.));
#15 = AXIS2_PLACEMENT_3D('',#16,#17,#18);
#16 = CARTESIAN_POINT('',(0.,0.,8.8));
#17 = DIRECTION('',(0.,-1.224646799147E-16,-1.));
#18 = DIRECTION('',(1.,0.,0.));
#19 = ( GEOMETRIC_REPRESENTATION_CONTEXT(3) 
GLOBAL_UNCERTAINTY_ASSIGNED_CONTEXT((#23)) GLOBAL_UNIT_ASSIGNED_CONTEXT(
(#20,#21,#22)) REPRESENTATION_CONTEXT('Context #1',
  '3D Context with UNIT and UNCERTAINTY') );
#20 = ( LENGTH_UNIT() NAMED_UNIT(*) SI_UNIT(.MILLI.,.METRE.) );
#21 = ( NAMED_UNIT(*) PLANE_ANGLE_UNIT() SI_UNIT($,.RADIAN.) );
#22 = ( NAMED_UNIT(*) SI_UNIT($,.STERADIAN.) SOLID_ANGLE_UNIT() );
#23 = UNCERTAINTY_MEASURE_WITH_UNIT(LENGTH_MEASURE(1.E-07),#20,
  'distance_accuracy_value','confusion accuracy');
#24 = PRODUCT_RELATED_PRODUCT_CATEGORY('part',$,(#7));
#25 = SHAPE_DEFINITION_REPRESENTATION(#26,#32);
#26 = PRODUCT_DEFINITION_SHAPE('','',#27);
#27 = PRODUCT_DEFINITION('design','',#28,#31);
#28 = PRODUCT_DEFINITION_FORMATION('','',#29);
#29 = PRODUCT('lane_05_yellow','lane_05_yellow','',(#30));
#30 = PRODUCT_CONTEXT('',#2,'mechanical');
#31 = PRODUCT_DEFINITION_CONTEXT('part definition',#2,'design');
#32 = ADVANCED_BREP_SHAPE_REPRESENTATION('',(#11,#33),#1426);
#33 = MANIFOLD_SOLID_BREP('',#34);
#34 = CLOSED_SHELL('',(#35,#155,#306,#471,#607,#687,#735,#810,#842,#919,
    #1015,#1042,#1194,#1201,#1208,#1284,#1338,#1387,#1419));
#35 = ADVANCED_FACE('',(#36),#50,.F.);
#36 = FACE_BOUND('',#37,.F.);
#37 = EDGE_LOOP('',(#38,#73,#101,#129));
#38 = ORIENTED_EDGE('',*,*,#39,.F.);
#39 = EDGE_CURVE('',#40,#42,#44,.T.);
#40 = VERTEX_POINT('',#41);
#41 = CARTESIAN_POINT('',(83.219496646452,-33.87532845466,8.));
#42 = VERTEX_POINT('',#43);
#43 = CARTESIAN_POINT('',(83.219496646452,-33.87532845466,8.65));
#44 = SURFACE_CURVE('',#45,(#49,#61),.PCURVE_S1.);
#45 = LINE('',#46,#47);
#46 = CARTESIAN_POINT('',(83.219496646452,-33.87532845466,6.));
#47 = VECTOR('',#48,1.);
#48 = DIRECTION('',(0.,0.,1.));
#49 = PCURVE('',#50,#55);
#50 = PLANE('',#51);
#51 = AXIS2_PLACEMENT_3D('',#52,#53,#54);
#52 = CARTESIAN_POINT('',(24.68800984536,-9.630792795788,6.));
#53 = DIRECTION('',(0.382683432365,0.923879532511,-0.));
#54 = DIRECTION('',(0.923879532511,-0.382683432365,0.));
#55 = DEFINITIONAL_REPRESENTATION('',(#56),#60);
#56 = LINE('',#57,#58);
#57 = CARTESIAN_POINT('',(63.354024785019,0.));
#58 = VECTOR('',#59,1.);
#59 = DIRECTION('',(0.,-1.));
#60 = ( GEOMETRIC_REPRESENTATION_CONTEXT(2) 
PARAMETRIC_REPRESENTATION_CONTEXT() REPRESENTATION_CONTEXT('2D SPACE',''
  ) );
#61 = PCURVE('',#62,#67);
#62 = CYLINDRICAL_SURFACE('',#63,89.850000000001);
#63 = AXIS2_PLACEMENT_3D('',#64,#65,#66);
#64 = CARTESIAN_POINT('',(-5.500281406319E-13,1.764520626067E-13,6.));
#65 = DIRECTION('',(-0.,-0.,-1.));
#66 = DIRECTION('',(0.92620474843,-0.377020906563,0.));
#67 = DEFINITIONAL_REPRESENTATION('',(#68),#72);
#68 = LINE('',#69,#70);
#69 = CARTESIAN_POINT('',(-0.,0.));
#70 = VECTOR('',#71,1.);
#71 = DIRECTION('',(-0.,-1.));
#72 = ( GEOMETRIC_REPRESENTATION_CONTEXT(2) 
PARAMETRIC_REPRESENTATION_CONTEXT() REPRESENTATION_CONTEXT('2D SPACE',''
  ) );
#73 = ORIENTED_EDGE('',*,*,#74,.F.);
#74 = EDGE_CURVE('',#75,#40,#77,.T.);
#75 = VERTEX_POINT('',#76);
#76 = CARTESIAN_POINT('',(24.68800984536,-9.630792795788,8.));
#77 = SURFACE_CURVE('',#78,(#82,#89),.PCURVE_S1.);
#78 = LINE('',#79,#80);
#79 = CARTESIAN_POINT('',(0.210475887801,0.508133742881,8.));
#80 = VECTOR('',#81,1.);
#81 = DIRECTION('',(0.923879532511,-0.382683432365,0.));
#82 = PCURVE('',#50,#83);
#83 = DEFINITIONAL_REPRESENTATION('',(#84),#88);
#84 = LINE('',#85,#86);
#85 = CARTESIAN_POINT('',(-26.49429183805,-2.));
#86 = VECTOR('',#87,1.);
#87 = DIRECTION('',(1.,0.));
#88 = ( GEOMETRIC_REPRESENTATION_CONTEXT(2) 
PARAMETRIC_REPRESENTATION_CONTEXT() REPRESENTATION_CONTEXT('2D SPACE',''
  ) );
#89 = PCURVE('',#90,#95);
#90 = PLANE('',#91);
#91 = AXIS2_PLACEMENT_3D('',#92,#93,#94);
#92 = CARTESIAN_POINT('',(0.44008594722,1.062461462388,6.));
#93 = DIRECTION('',(-0.366544250438,-0.884916100617,-0.287347885566));
#94 = DIRECTION('',(-0.109963275131,-0.265474830185,0.957826285221));
#95 = DEFINITIONAL_REPRESENTATION('',(#96),#100);
#96 = LINE('',#97,#98);
#97 = CARTESIAN_POINT('',(2.088061301782,0.));
#98 = VECTOR('',#99,1.);
#99 = DIRECTION('',(0.,-1.));
#100 = ( GEOMETRIC_REPRESENTATION_CONTEXT(2) 
PARAMETRIC_REPRESENTATION_CONTEXT() REPRESENTATION_CONTEXT('2D SPACE',''
  ) );
#101 = ORIENTED_EDGE('',*,*,#102,.T.);
#102 = EDGE_CURVE('',#75,#103,#105,.T.);
#103 = VERTEX_POINT('',#104);
#104 = CARTESIAN_POINT('',(24.68800984536,-9.630792795788,8.65));
#105 = SURFACE_CURVE('',#106,(#110,#117),.PCURVE_S1.);
#106 = LINE('',#107,#108);
#107 = CARTESIAN_POINT('',(24.68800984536,-9.630792795788,6.));
#108 = VECTOR('',#109,1.);
#109 = DIRECTION('',(0.,0.,1.));
#110 = PCURVE('',#50,#111);
#111 = DEFINITIONAL_REPRESENTATION('',(#112),#116);
#112 = LINE('',#113,#114);
#113 = CARTESIAN_POINT('',(0.,0.));
#114 = VECTOR('',#115,1.);
#115 = DIRECTION('',(0.,-1.));
#116 = ( GEOMETRIC_REPRESENTATION_CONTEXT(2) 
PARAMETRIC_REPRESENTATION_CONTEXT() REPRESENTATION_CONTEXT('2D SPACE',''
  ) );
#117 = PCURVE('',#118,#123);
#118 = CYLINDRICAL_SURFACE('',#119,26.500000000001);
#119 = AXIS2_PLACEMENT_3D('',#120,#121,#122);
#120 = CARTESIAN_POINT('',(-5.529096006766E-13,1.47156126679E-13,6.));
#121 = DIRECTION('',(0.,0.,-1.));
#122 = DIRECTION('',(0.988522267655,-0.151075234073,0.));
#123 = DEFINITIONAL_REPRESENTATION('',(#124),#128);
#124 = LINE('',#125,#126);
#125 = CARTESIAN_POINT('',(0.22028697317,0.));
#126 = VECTOR('',#127,1.);
#127 = DIRECTION('',(0.,-1.));
#128 = ( GEOMETRIC_REPRESENTATION_CONTEXT(2) 
PARAMETRIC_REPRESENTATION_CONTEXT() REPRESENTATION_CONTEXT('2D SPACE',''
  ) );
#129 = ORIENTED_EDGE('',*,*,#130,.T.);
#130 = EDGE_CURVE('',#103,#42,#131,.T.);
#131 = SURFACE_CURVE('',#132,(#136,#143),.PCURVE_S1.);
#132 = LINE('',#133,#134);
#133 = CARTESIAN_POINT('',(24.68800984536,-9.630792795788,8.65));
#134 = VECTOR('',#135,1.);
#135 = DIRECTION('',(0.923879532511,-0.382683432365,0.));
#136 = PCURVE('',#50,#137);
#137 = DEFINITIONAL_REPRESENTATION('',(#138),#142);
#138 = LINE('',#139,#140);
#139 = CARTESIAN_POINT('',(3.552713678801E-15,-2.65));
#140 = VECTOR('',#141,1.);
#141 = DIRECTION('',(1.,0.));
#142 = ( GEOMETRIC_REPRESENTATION_CONTEXT(2) 
PARAMETRIC_REPRESENTATION_CONTEXT() REPRESENTATION_CONTEXT('2D SPACE',''
  ) );
#143 = PCURVE('',#144,#149);
#144 = CYLINDRICAL_SURFACE('',#145,0.15);
#145 = AXIS2_PLACEMENT_3D('',#146,#147,#148);
#146 = CARTESIAN_POINT('',(24.745412360215,-9.492210865911,8.65));
#147 = DIRECTION('',(0.923879532511,-0.382683432365,0.));
#148 = DIRECTION('',(-0.382683432365,-0.923879532511,0.));
#149 = DEFINITIONAL_REPRESENTATION('',(#150),#154);
#150 = LINE('',#151,#152);
#151 = CARTESIAN_POINT('',(-0.,0.));
#152 = VECTOR('',#153,1.);
#153 = DIRECTION('',(-0.,1.));
#154 = ( GEOMETRIC_REPRESENTATION_CONTEXT(2) 
PARAMETRIC_REPRESENTATION_CONTEXT() REPRESENTATION_CONTEXT('2D SPACE',''
  ) );
#155 = ADVANCED_FACE('',(#156),#62,.T.);
#156 = FACE_BOUND('',#157,.F.);
#157 = EDGE_LOOP('',(#158,#159,#188,#216,#248,#281));
#158 = ORIENTED_EDGE('',*,*,#39,.T.);
#159 = ORIENTED_EDGE('',*,*,#160,.T.);
#160 = EDGE_CURVE('',#42,#161,#163,.T.);
#161 = VERTEX_POINT('',#162);
#162 = CARTESIAN_POINT('',(89.007862413312,-12.27285331994,8.65));
#163 = SURFACE_CURVE('',#164,(#169,#176),.PCURVE_S1.);
#164 = CIRCLE('',#165,89.850000000001);
#165 = AXIS2_PLACEMENT_3D('',#166,#167,#168);
#166 = CARTESIAN_POINT('',(-5.471179065353E-13,1.758593271006E-13,8.65)
  );
#167 = DIRECTION('',(0.,0.,1.));
#168 = DIRECTION('',(0.92620474843,-0.377020906563,0.));
#169 = PCURVE('',#62,#170);
#170 = DEFINITIONAL_REPRESENTATION('',(#171),#175);
#171 = LINE('',#172,#173);
#172 = CARTESIAN_POINT('',(-0.,-2.65));
#173 = VECTOR('',#174,1.);
#174 = DIRECTION('',(-1.,0.));
#175 = ( GEOMETRIC_REPRESENTATION_CONTEXT(2) 
PARAMETRIC_REPRESENTATION_CONTEXT() REPRESENTATION_CONTEXT('2D SPACE',''
  ) );
#176 = PCURVE('',#177,#182);
#177 = TOROIDAL_SURFACE('',#178,89.700000000001,0.15);
#178 = AXIS2_PLACEMENT_3D('',#179,#180,#181);
#179 = CARTESIAN_POINT('',(-5.471179065353E-13,1.758593271006E-13,8.65)
  );
#180 = DIRECTION('',(0.,0.,1.));
#181 = DIRECTION('',(0.92620474843,-0.377020906563,0.));
#182 = DEFINITIONAL_REPRESENTATION('',(#183),#187);
#183 = LINE('',#184,#185);
#184 = CARTESIAN_POINT('',(0.,0.));
#185 = VECTOR('',#186,1.);
#186 = DIRECTION('',(1.,0.));
#187 = ( GEOMETRIC_REPRESENTATION_CONTEXT(2) 
PARAMETRIC_REPRESENTATION_CONTEXT() REPRESENTATION_CONTEXT('2D SPACE',''
  ) );
#188 = ORIENTED_EDGE('',*,*,#189,.F.);
#189 = EDGE_CURVE('',#190,#161,#192,.T.);
#190 = VERTEX_POINT('',#191);
#191 = CARTESIAN_POINT('',(89.007862413312,-12.27285331994,8.));
#192 = SURFACE_CURVE('',#193,(#197,#204),.PCURVE_S1.);
#193 = LINE('',#194,#195);
#194 = CARTESIAN_POINT('',(89.007862413312,-12.27285331994,6.));
#195 = VECTOR('',#196,1.);
#196 = DIRECTION('',(0.,0.,1.));
#197 = PCURVE('',#62,#198);
#198 = DEFINITIONAL_REPRESENTATION('',(#199),#203);
#199 = LINE('',#200,#201);
#200 = CARTESIAN_POINT('',(-0.249556684742,0.));
#201 = VECTOR('',#202,1.);
#202 = DIRECTION('',(-0.,-1.));
#203 = ( GEOMETRIC_REPRESENTATION_CONTEXT(2) 
PARAMETRIC_REPRESENTATION_CONTEXT() REPRESENTATION_CONTEXT('2D SPACE',''
  ) );
#204 = PCURVE('',#205,#210);
#205 = PLANE('',#206);
#206 = AXIS2_PLACEMENT_3D('',#207,#208,#209);
#207 = CARTESIAN_POINT('',(89.007862413312,-12.27285331994,6.));
#208 = DIRECTION('',(-0.13052619222,-0.991444861374,0.));
#209 = DIRECTION('',(-0.991444861374,0.13052619222,0.));
#210 = DEFINITIONAL_REPRESENTATION('',(#211),#215);
#211 = LINE('',#212,#213);
#212 = CARTESIAN_POINT('',(0.,0.));
#213 = VECTOR('',#214,1.);
#214 = DIRECTION('',(0.,-1.));
#215 = ( GEOMETRIC_REPRESENTATION_CONTEXT(2) 
PARAMETRIC_REPRESENTATION_CONTEXT() REPRESENTATION_CONTEXT('2D SPACE',''
  ) );
#216 = ORIENTED_EDGE('',*,*,#217,.T.);
#217 = EDGE_CURVE('',#190,#218,#220,.T.);
#218 = VERTEX_POINT('',#219);
#219 = CARTESIAN_POINT('',(88.999646835079,-12.33228945618,7.8));
#220 = SURFACE_CURVE('',#221,(#226,#236),.PCURVE_S1.);
#221 = ELLIPSE('',#222,312.68717994187,89.850000000001);
#222 = AXIS2_PLACEMENT_3D('',#223,#224,#225);
#223 = CARTESIAN_POINT('',(-5.500281406319E-13,1.764520626067E-13,
    9.833333333334));
#224 = DIRECTION('',(0.125021417818,0.949631948571,-0.287347885566));
#225 = DIRECTION('',(-3.750642534546E-02,-0.284889584571,-0.957826285221
    ));
#226 = PCURVE('',#62,#227);
#227 = DEFINITIONAL_REPRESENTATION('',(#228),#235);
#228 = B_SPLINE_CURVE_WITH_KNOTS('',5,(#229,#230,#231,#232,#233,#234),
  .UNSPECIFIED.,.F.,.F.,(6,6),(4.718510331913,4.719178127475),
  .PIECEWISE_BEZIER_KNOTS.);
#229 = CARTESIAN_POINT('',(-0.249556684742,-2.));
#230 = CARTESIAN_POINT('',(-0.249423125629,-1.959999795269));
#231 = CARTESIAN_POINT('',(-0.249289566517,-1.919999631417));
#232 = CARTESIAN_POINT('',(-0.249156007405,-1.879999509932));
#233 = CARTESIAN_POINT('',(-0.249022448292,-1.839999432296));
#234 = CARTESIAN_POINT('',(-0.24888888918,-1.7999994));
#235 = ( GEOMETRIC_REPRESENTATION_CONTEXT(2) 
PARAMETRIC_REPRESENTATION_CONTEXT() REPRESENTATION_CONTEXT('2D SPACE',''
  ) );
#236 = PCURVE('',#237,#242);
#237 = PLANE('',#238);
#238 = AXIS2_PLACEMENT_3D('',#239,#240,#241);
#239 = CARTESIAN_POINT('',(-7.178940572103E-02,-0.545294673756,8.));
#240 = DIRECTION('',(0.125021417818,0.949631948571,-0.287347885566));
#241 = DIRECTION('',(-3.750642534546E-02,-0.284889584571,-0.957826285221
    ));
#242 = DEFINITIONAL_REPRESENTATION('',(#243),#247);
#243 = ELLIPSE('',#244,312.68717994187,89.850000000001);
#244 = AXIS2_PLACEMENT_2D('',#245,#246);
#245 = CARTESIAN_POINT('',(-1.914056193301,5.683504773726E-13));
#246 = DIRECTION('',(1.,-7.577704210316E-18));
#247 = ( GEOMETRIC_REPRESENTATION_CONTEXT(2) 
PARAMETRIC_REPRESENTATION_CONTEXT() REPRESENTATION_CONTEXT('2D SPACE',''
  ) );
#248 = ORIENTED_EDGE('',*,*,#249,.T.);
#249 = EDGE_CURVE('',#218,#250,#252,.T.);
#250 = VERTEX_POINT('',#251);
#251 = CARTESIAN_POINT('',(83.242099815116,-33.81974746165,7.8));
#252 = SURFACE_CURVE('',#253,(#258,#265),.PCURVE_S1.);
#253 = CIRCLE('',#254,89.850000000001);
#254 = AXIS2_PLACEMENT_3D('',#255,#256,#257);
#255 = CARTESIAN_POINT('',(-5.500281406319E-13,1.764520626067E-13,7.8));
#256 = DIRECTION('',(0.,-0.,-1.));
#257 = DIRECTION('',(0.92620474843,-0.377020906563,0.));
#258 = PCURVE('',#62,#259);
#259 = DEFINITIONAL_REPRESENTATION('',(#260),#264);
#260 = LINE('',#261,#262);
#261 = CARTESIAN_POINT('',(-6.28318530718,-1.8));
#262 = VECTOR('',#263,1.);
#263 = DIRECTION('',(1.,-0.));
#264 = ( GEOMETRIC_REPRESENTATION_CONTEXT(2) 
PARAMETRIC_REPRESENTATION_CONTEXT() REPRESENTATION_CONTEXT('2D SPACE',''
  ) );
#265 = PCURVE('',#266,#271);
#266 = PLANE('',#267);
#267 = AXIS2_PLACEMENT_3D('',#268,#269,#270);
#268 = CARTESIAN_POINT('',(0.,0.,7.8));
#269 = DIRECTION('',(0.,0.,1.));
#270 = DIRECTION('',(1.,0.,-0.));
#271 = DEFINITIONAL_REPRESENTATION('',(#272),#280);
#272 = ( BOUNDED_CURVE() B_SPLINE_CURVE(2,(#273,#274,#275,#276,#277,#278
,#279),.UNSPECIFIED.,.T.,.F.) B_SPLINE_CURVE_WITH_KNOTS((1,2,2,2,2,1),(
    -2.094395102393,0.,2.094395102393,4.188790204786,6.28318530718,
8.377580409573),.UNSPECIFIED.) CURVE() GEOMETRIC_REPRESENTATION_ITEM() 
RATIONAL_B_SPLINE_CURVE((1.,0.5,1.,0.5,1.,0.5,1.)) REPRESENTATION_ITEM(
  '') );
#273 = CARTESIAN_POINT('',(83.219496646452,-33.87532845466));
#274 = CARTESIAN_POINT('',(24.545706639894,-178.0157248266));
#275 = CARTESIAN_POINT('',(-70.9466433265,-55.13253395865));
#276 = CARTESIAN_POINT('',(-166.4389932929,67.750656909324));
#277 = CARTESIAN_POINT('',(-12.27285331994,89.007862413313));
#278 = CARTESIAN_POINT('',(141.89328665301,110.2650679173));
#279 = CARTESIAN_POINT('',(83.219496646452,-33.87532845466));
#280 = ( GEOMETRIC_REPRESENTATION_CONTEXT(2) 
PARAMETRIC_REPRESENTATION_CONTEXT() REPRESENTATION_CONTEXT('2D SPACE',''
  ) );
#281 = ORIENTED_EDGE('',*,*,#282,.T.);
#282 = EDGE_CURVE('',#250,#40,#283,.T.);
#283 = SURFACE_CURVE('',#284,(#289,#299),.PCURVE_S1.);
#284 = ELLIPSE('',#285,312.68717994187,89.850000000001);
#285 = AXIS2_PLACEMENT_3D('',#286,#287,#288);
#286 = CARTESIAN_POINT('',(-5.500281406319E-13,1.764520626067E-13,
    9.833333333333));
#287 = DIRECTION('',(-0.366544250438,-0.884916100617,-0.287347885566));
#288 = DIRECTION('',(0.109963275131,0.265474830185,-0.957826285221));
#289 = PCURVE('',#62,#290);
#290 = DEFINITIONAL_REPRESENTATION('',(#291),#298);
#291 = B_SPLINE_CURVE_WITH_KNOTS('',5,(#292,#293,#294,#295,#296,#297),
  .UNSPECIFIED.,.F.,.F.,(6,6),(1.564007179704,1.564674975266),
  .PIECEWISE_BEZIER_KNOTS.);
#292 = CARTESIAN_POINT('',(-6.677955620221E-04,-1.7999994));
#293 = CARTESIAN_POINT('',(-5.342364496177E-04,-1.839999432296));
#294 = CARTESIAN_POINT('',(-4.006773372131E-04,-1.879999509931));
#295 = CARTESIAN_POINT('',(-2.671182248091E-04,-1.919999631417));
#296 = CARTESIAN_POINT('',(-1.335591124044E-04,-1.959999795269));
#297 = CARTESIAN_POINT('',(-2.844826649882E-17,-2.));
#298 = ( GEOMETRIC_REPRESENTATION_CONTEXT(2) 
PARAMETRIC_REPRESENTATION_CONTEXT() REPRESENTATION_CONTEXT('2D SPACE',''
  ) );
#299 = PCURVE('',#90,#300);
#300 = DEFINITIONAL_REPRESENTATION('',(#301),#305);
#301 = ELLIPSE('',#302,312.68717994187,89.850000000001);
#302 = AXIS2_PLACEMENT_2D('',#303,#304);
#303 = CARTESIAN_POINT('',(4.002117495083,5.757528205315E-13));
#304 = DIRECTION('',(-1.,-1.554961971297E-17));
#305 = ( GEOMETRIC_REPRESENTATION_CONTEXT(2) 
PARAMETRIC_REPRESENTATION_CONTEXT() REPRESENTATION_CONTEXT('2D SPACE',''
  ) );
#306 = ADVANCED_FACE('',(#307),#144,.T.);
#307 = FACE_BOUND('',#308,.F.);
#308 = EDGE_LOOP('',(#309,#379,#407,#470));
#309 = ORIENTED_EDGE('',*,*,#310,.T.);
#310 = EDGE_CURVE('',#103,#311,#313,.T.);
#311 = VERTEX_POINT('',#312);
#312 = CARTESIAN_POINT('',(24.880773027003,-9.548279089907,8.8));
#313 = SURFACE_CURVE('',#314,(#332,#353),.PCURVE_S1.);
#314 = B_SPLINE_CURVE_WITH_KNOTS('',6,(#315,#316,#317,#318,#319,#320,
    #321,#322,#323,#324,#325,#326,#327,#328,#329,#330,#331),
  .UNSPECIFIED.,.F.,.F.,(7,5,5,7),(0.,0.497959802834,0.939321295967,1.),
  .UNSPECIFIED.);
#315 = CARTESIAN_POINT('',(24.68800984536,-9.630792795788,8.65));
#316 = CARTESIAN_POINT('',(24.68800984536,-9.630792795788,8.669658137737
    ));
#317 = CARTESIAN_POINT('',(24.691990385264,-9.629095389331,
    8.689317631057));
#318 = CARTESIAN_POINT('',(24.6999530165,-9.625699941335,8.708354546277)
  );
#319 = CARTESIAN_POINT('',(24.711667445414,-9.620702551167,
    8.726149632255));
#320 = CARTESIAN_POINT('',(24.726694910543,-9.614286496345,
    8.742170063199));
#321 = CARTESIAN_POINT('',(24.760220698582,-9.599958171885,
    8.768267468782));
#322 = CARTESIAN_POINT('',(24.778131204708,-9.592298511223,
    8.778813865732));
#323 = CARTESIAN_POINT('',(24.797805807449,-9.583877223346,
    8.787358085187));
#324 = CARTESIAN_POINT('',(24.818774642957,-9.574892901814,
    8.793692553488));
#325 = CARTESIAN_POINT('',(24.840528199747,-9.565562188797,
    8.797693488873));
#326 = CARTESIAN_POINT('',(24.865582100623,-9.554804561832,
    8.799550612507));
#327 = CARTESIAN_POINT('',(24.868615351534,-9.553501944594,
    8.799730304692));
#328 = CARTESIAN_POINT('',(24.871652420415,-9.552197550814,
    8.799865136235));
#329 = CARTESIAN_POINT('',(24.874691940242,-9.550891885357,
    8.799955044992));
#330 = CARTESIAN_POINT('',(24.87773255965,-9.549585493659,8.799999999699
    ));
#331 = CARTESIAN_POINT('',(24.880773013232,-9.548279125792,8.8));
#332 = PCURVE('',#144,#333);
#333 = DEFINITIONAL_REPRESENTATION('',(#334),#352);
#334 = B_SPLINE_CURVE_WITH_KNOTS('',6,(#335,#336,#337,#338,#339,#340,
    #341,#342,#343,#344,#345,#346,#347,#348,#349,#350,#351),
  .UNSPECIFIED.,.F.,.F.,(7,5,5,7),(0.,0.497959802834,0.939321295967,1.),
  .UNSPECIFIED.);
#335 = CARTESIAN_POINT('',(0.,0.));
#336 = CARTESIAN_POINT('',(-0.131054251577,0.));
#337 = CARTESIAN_POINT('',(-0.262117688098,3.027970016023E-03));
#338 = CARTESIAN_POINT('',(-0.393081269313,9.085100346747E-03));
#339 = CARTESIAN_POINT('',(-0.523875236786,1.799540303283E-02));
#340 = CARTESIAN_POINT('',(-0.654460958529,2.942365261006E-02));
#341 = CARTESIAN_POINT('',(-0.900368295006,5.491422960578E-02));
#342 = CARTESIAN_POINT('',(-1.015743402775,6.853015439944E-02));
#343 = CARTESIAN_POINT('',(-1.130953435658,8.348442983294E-02));
#344 = CARTESIAN_POINT('',(-1.246027783646,9.941895677743E-02));
#345 = CARTESIAN_POINT('',(-1.361014326946,0.115945913371));
#346 = CARTESIAN_POINT('',(-1.491778187146,0.13497593399));
#347 = CARTESIAN_POINT('',(-1.507582379297,0.137279802387));
#348 = CARTESIAN_POINT('',(-1.52338594993,0.139586518277));
#349 = CARTESIAN_POINT('',(-1.539189397469,0.141895011895));
#350 = CARTESIAN_POINT('',(-1.554993018994,0.144204243473));
#351 = CARTESIAN_POINT('',(-1.570796070636,0.146513330968));
#352 = ( GEOMETRIC_REPRESENTATION_CONTEXT(2) 
PARAMETRIC_REPRESENTATION_CONTEXT() REPRESENTATION_CONTEXT('2D SPACE',''
  ) );
#353 = PCURVE('',#354,#359);
#354 = TOROIDAL_SURFACE('',#355,26.650000000001,0.15);
#355 = AXIS2_PLACEMENT_3D('',#356,#357,#358);
#356 = CARTESIAN_POINT('',(-5.542233338929E-13,1.474376176702E-13,8.65)
  );
#357 = DIRECTION('',(0.,0.,1.));
#358 = DIRECTION('',(0.988522267655,-0.151075234073,0.));
#359 = DEFINITIONAL_REPRESENTATION('',(#360),#378);
#360 = B_SPLINE_CURVE_WITH_KNOTS('',6,(#361,#362,#363,#364,#365,#366,
    #367,#368,#369,#370,#371,#372,#373,#374,#375,#376,#377),
  .UNSPECIFIED.,.F.,.F.,(7,5,5,7),(0.,0.497959802834,0.939321295967,1.),
  .UNSPECIFIED.);
#361 = CARTESIAN_POINT('',(-0.22028697317,3.14159265359));
#362 = CARTESIAN_POINT('',(-0.22028697317,3.010538402012));
#363 = CARTESIAN_POINT('',(-0.220172710348,2.879474965491));
#364 = CARTESIAN_POINT('',(-0.219944138457,2.748511384276));
#365 = CARTESIAN_POINT('',(-0.21960800294,2.617717416804));
#366 = CARTESIAN_POINT('',(-0.219177143213,2.48713169506));
#367 = CARTESIAN_POINT('',(-0.218216824536,2.241224358584));
#368 = CARTESIAN_POINT('',(-0.217704114436,2.125849250815));
#369 = CARTESIAN_POINT('',(-0.217141364496,2.010639217931));
#370 = CARTESIAN_POINT('',(-0.216542174919,1.895564869943));
#371 = CARTESIAN_POINT('',(-0.215921210858,1.780578326644));
#372 = CARTESIAN_POINT('',(-0.215206758049,1.649814466443));
#373 = CARTESIAN_POINT('',(-0.21512027124,1.634010412818));
#374 = CARTESIAN_POINT('',(-0.215033689224,1.618206555046));
#375 = CARTESIAN_POINT('',(-0.214947048166,1.602403091367));
#376 = CARTESIAN_POINT('',(-0.214860385388,1.586600021711));
#377 = CARTESIAN_POINT('',(-0.214773744171,1.570796326795));
#378 = ( GEOMETRIC_REPRESENTATION_CONTEXT(2) 
PARAMETRIC_REPRESENTATION_CONTEXT() REPRESENTATION_CONTEXT('2D SPACE',''
  ) );
#379 = ORIENTED_EDGE('',*,*,#380,.T.);
#380 = EDGE_CURVE('',#311,#381,#383,.T.);
#381 = VERTEX_POINT('',#382);
#382 = CARTESIAN_POINT('',(83.137349013715,-33.67894296102,8.8));
#383 = SURFACE_CURVE('',#384,(#388,#395),.PCURVE_S1.);
#384 = LINE('',#385,#386);
#385 = CARTESIAN_POINT('',(24.745412360215,-9.492210865911,8.8));
#386 = VECTOR('',#387,1.);
#387 = DIRECTION('',(0.923879532511,-0.382683432365,0.));
#388 = PCURVE('',#144,#389);
#389 = DEFINITIONAL_REPRESENTATION('',(#390),#394);
#390 = LINE('',#391,#392);
#391 = CARTESIAN_POINT('',(-1.570796326795,0.));
#392 = VECTOR('',#393,1.);
#393 = DIRECTION('',(-0.,1.));
#394 = ( GEOMETRIC_REPRESENTATION_CONTEXT(2) 
PARAMETRIC_REPRESENTATION_CONTEXT() REPRESENTATION_CONTEXT('2D SPACE',''
  ) );
#395 = PCURVE('',#396,#401);
#396 = PLANE('',#397);
#397 = AXIS2_PLACEMENT_3D('',#398,#399,#400);
#398 = CARTESIAN_POINT('',(59.084866352522,-15.83174222405,8.8));
#399 = DIRECTION('',(0.,0.,1.));
#400 = DIRECTION('',(1.,0.,-0.));
#401 = DEFINITIONAL_REPRESENTATION('',(#402),#406);
#402 = LINE('',#403,#404);
#403 = CARTESIAN_POINT('',(-34.3394539923,6.339531358148));
#404 = VECTOR('',#405,1.);
#405 = DIRECTION('',(0.923879532511,-0.382683432365));
#406 = ( GEOMETRIC_REPRESENTATION_CONTEXT(2) 
PARAMETRIC_REPRESENTATION_CONTEXT() REPRESENTATION_CONTEXT('2D SPACE',''
  ) );
#407 = ORIENTED_EDGE('',*,*,#408,.F.);
#408 = EDGE_CURVE('',#42,#381,#409,.T.);
#409 = SURFACE_CURVE('',#410,(#428,#449),.PCURVE_S1.);
#410 = B_SPLINE_CURVE_WITH_KNOTS('',6,(#411,#412,#413,#414,#415,#416,
    #417,#418,#419,#420,#421,#422,#423,#424,#425,#426,#427),
  .UNSPECIFIED.,.F.,.F.,(7,5,5,7),(0.,0.497849284049,0.939298078414,1.),
  .UNSPECIFIED.);
#411 = CARTESIAN_POINT('',(83.219496646451,-33.87532845466,8.65));
#412 = CARTESIAN_POINT('',(83.219496646451,-33.87532845466,
    8.669660287485));
#413 = CARTESIAN_POINT('',(83.217805639068,-33.87128108672,
    8.689321986437));
#414 = CARTESIAN_POINT('',(83.214422962201,-33.86318474747,
    8.708360123991));
#415 = CARTESIAN_POINT('',(83.209445117764,-33.85127195062,
    8.726154593007));
#416 = CARTESIAN_POINT('',(83.203055837629,-33.83598525854,
    8.742172850356));
#417 = CARTESIAN_POINT('',(83.188788523722,-33.80186049043,
    8.768270154352));
#418 = CARTESIAN_POINT('',(83.181160789653,-33.78362006842,
    8.778817341162));
#419 = CARTESIAN_POINT('',(83.172776288475,-33.76357526359,
    8.787360792281));
#420 = CARTESIAN_POINT('',(83.163833232356,-33.74220181981,8.79369387466
    ));
#421 = CARTESIAN_POINT('',(83.154547356273,-33.7200165868,8.79769377205)
  );
#422 = CARTESIAN_POINT('',(83.143842883559,-33.69445053041,
    8.799550615837));
#423 = CARTESIAN_POINT('',(83.142546534429,-33.69135452657,
    8.799730308371));
#424 = CARTESIAN_POINT('',(83.141248401148,-33.6882544045,8.79986513899)
  );
#425 = CARTESIAN_POINT('',(83.139949053956,-33.68515152663,
    8.799955046408));
#426 = CARTESIAN_POINT('',(83.138649066443,-33.68204725605,
    8.800000000039));
#427 = CARTESIAN_POINT('',(83.137349015542,-33.67894295651,8.8));
#428 = PCURVE('',#144,#429);
#429 = DEFINITIONAL_REPRESENTATION('',(#430),#448);
#430 = B_SPLINE_CURVE_WITH_KNOTS('',6,(#431,#432,#433,#434,#435,#436,
    #437,#438,#439,#440,#441,#442,#443,#444,#445,#446,#447),
  .UNSPECIFIED.,.F.,.F.,(7,5,5,7),(0.,0.497849284049,0.939298078414,1.),
  .UNSPECIFIED.);
#431 = CARTESIAN_POINT('',(0.,63.354024785019));
#432 = CARTESIAN_POINT('',(-0.131068583233,63.354024785019));
#433 = CARTESIAN_POINT('',(-0.262146725889,63.350913637253));
#434 = CARTESIAN_POINT('',(-0.393119773394,63.344690116438));
#435 = CARTESIAN_POINT('',(-0.523913778926,63.335532357858));
#436 = CARTESIAN_POINT('',(-0.654487215312,63.32377946892));
#437 = CARTESIAN_POINT('',(-0.900393605301,63.297539206229));
#438 = CARTESIAN_POINT('',(-1.015783133335,63.283511791539));
#439 = CARTESIAN_POINT('',(-1.130996201861,63.268094707797));
#440 = CARTESIAN_POINT('',(-1.246063144636,63.251653138463));
#441 = CARTESIAN_POINT('',(-1.361034206949,63.234584186494));
#442 = CARTESIAN_POINT('',(-1.491778429755,63.214910837035));
#443 = CARTESIAN_POINT('',(-1.507582667023,63.21252837723));
#444 = CARTESIAN_POINT('',(-1.523386415962,63.210142693105));
#445 = CARTESIAN_POINT('',(-1.539189832324,63.207754832876));
#446 = CARTESIAN_POINT('',(-1.554993085644,63.205365848102));
#447 = CARTESIAN_POINT('',(-1.570796359243,63.202976793678));
#448 = ( GEOMETRIC_REPRESENTATION_CONTEXT(2) 
PARAMETRIC_REPRESENTATION_CONTEXT() REPRESENTATION_CONTEXT('2D SPACE',''
  ) );
#449 = PCURVE('',#177,#450);
#450 = DEFINITIONAL_REPRESENTATION('',(#451),#469);
#451 = B_SPLINE_CURVE_WITH_KNOTS('',6,(#452,#453,#454,#455,#456,#457,
    #458,#459,#460,#461,#462,#463,#464,#465,#466,#467,#468),
  .UNSPECIFIED.,.F.,.F.,(7,5,5,7),(0.,0.497849284049,0.939298078414,1.),
  .UNSPECIFIED.);
#452 = CARTESIAN_POINT('',(-3.37507799486E-14,0.));
#453 = CARTESIAN_POINT('',(-3.37507799486E-14,0.131068583233));
#454 = CARTESIAN_POINT('',(3.462603543802E-05,0.262146725889));
#455 = CARTESIAN_POINT('',(1.038916297684E-04,0.393119773395));
#456 = CARTESIAN_POINT('',(2.058235111386E-04,0.523913778926));
#457 = CARTESIAN_POINT('',(3.366645061744E-04,0.654487215313));
#458 = CARTESIAN_POINT('',(6.288523954829E-04,0.900393605302));
#459 = CARTESIAN_POINT('',(7.850714469129E-04,1.015783133335));
#460 = CARTESIAN_POINT('',(9.567988921866E-04,1.130996201861));
#461 = CARTESIAN_POINT('',(1.139978423475E-03,1.246063144637));
#462 = CARTESIAN_POINT('',(1.330193433193E-03,1.361034206949));
#463 = CARTESIAN_POINT('',(1.549482564633E-03,1.491778429755));
#464 = CARTESIAN_POINT('',(1.576039524216E-03,1.507582656541));
#465 = CARTESIAN_POINT('',(1.602633241697E-03,1.523386409772));
#466 = CARTESIAN_POINT('',(1.629252036494E-03,1.539189845099));
#467 = CARTESIAN_POINT('',(1.655884230407E-03,1.554993106602));
#468 = CARTESIAN_POINT('',(1.682518147603E-03,1.570796326795));
#469 = ( GEOMETRIC_REPRESENTATION_CONTEXT(2) 
PARAMETRIC_REPRESENTATION_CONTEXT() REPRESENTATION_CONTEXT('2D SPACE',''
  ) );
#470 = ORIENTED_EDGE('',*,*,#130,.F.);
#471 = ADVANCED_FACE('',(#472),#118,.F.);
#472 = FACE_BOUND('',#473,.F.);
#473 = EDGE_LOOP('',(#474,#503,#526,#548,#549,#576));
#474 = ORIENTED_EDGE('',*,*,#475,.F.);
#475 = EDGE_CURVE('',#476,#478,#480,.T.);
#476 = VERTEX_POINT('',#477);
#477 = CARTESIAN_POINT('',(26.195840092856,-4.003493702944,8.));
#478 = VERTEX_POINT('',#479);
#479 = CARTESIAN_POINT('',(26.098432691616,-4.595847151635,6.));
#480 = SURFACE_CURVE('',#481,(#486,#496),.PCURVE_S1.);
#481 = ELLIPSE('',#482,92.222707495379,26.500000000001);
#482 = AXIS2_PLACEMENT_3D('',#483,#484,#485);
#483 = CARTESIAN_POINT('',(-5.529096006766E-13,1.47156126679E-13,
    9.833333333334));
#484 = DIRECTION('',(0.125021417818,0.949631948571,-0.287347885566));
#485 = DIRECTION('',(-3.750642534546E-02,-0.284889584571,-0.957826285221
    ));
#486 = PCURVE('',#118,#487);
#487 = DEFINITIONAL_REPRESENTATION('',(#488),#495);
#488 = B_SPLINE_CURVE_WITH_KNOTS('',5,(#489,#490,#491,#492,#493,#494),
  .UNSPECIFIED.,.F.,.F.,(6,6),(4.733145187699,4.755798846018),
  .PIECEWISE_BEZIER_KNOTS.);
#489 = CARTESIAN_POINT('',(0.,-2.));
#490 = CARTESIAN_POINT('',(4.530731663867E-03,-1.599871576859));
#491 = CARTESIAN_POINT('',(9.061463327733E-03,-1.199790195972));
#492 = CARTESIAN_POINT('',(1.35921949916E-02,-0.799772969107));
#493 = CARTESIAN_POINT('',(1.812292665547E-02,-0.399837004007));
#494 = CARTESIAN_POINT('',(2.265365831933E-02,6.000000105644E-07));
#495 = ( GEOMETRIC_REPRESENTATION_CONTEXT(2) 
PARAMETRIC_REPRESENTATION_CONTEXT() REPRESENTATION_CONTEXT('2D SPACE',''
  ) );
#496 = PCURVE('',#237,#497);
#497 = DEFINITIONAL_REPRESENTATION('',(#498),#502);
#498 = ELLIPSE('',#499,92.222707495379,26.500000000001);
#499 = AXIS2_PLACEMENT_2D('',#500,#501);
#500 = CARTESIAN_POINT('',(-1.914056193301,5.673683336494E-13));
#501 = DIRECTION('',(1.,-7.577704210316E-18));
#502 = ( GEOMETRIC_REPRESENTATION_CONTEXT(2) 
PARAMETRIC_REPRESENTATION_CONTEXT() REPRESENTATION_CONTEXT('2D SPACE',''
  ) );
#503 = ORIENTED_EDGE('',*,*,#504,.T.);
#504 = EDGE_CURVE('',#476,#505,#507,.T.);
#505 = VERTEX_POINT('',#506);
#506 = CARTESIAN_POINT('',(26.195840092856,-4.003493702944,8.65));
#507 = SURFACE_CURVE('',#508,(#512,#519),.PCURVE_S1.);
#508 = LINE('',#509,#510);
#509 = CARTESIAN_POINT('',(26.195840092856,-4.003493702944,6.));
#510 = VECTOR('',#511,1.);
#511 = DIRECTION('',(0.,0.,1.));
#512 = PCURVE('',#118,#513);
#513 = DEFINITIONAL_REPRESENTATION('',(#514),#518);
#514 = LINE('',#515,#516);
#515 = CARTESIAN_POINT('',(0.,0.));
#516 = VECTOR('',#517,1.);
#517 = DIRECTION('',(0.,-1.));
#518 = ( GEOMETRIC_REPRESENTATION_CONTEXT(2) 
PARAMETRIC_REPRESENTATION_CONTEXT() REPRESENTATION_CONTEXT('2D SPACE',''
  ) );
#519 = PCURVE('',#205,#520);
#520 = DEFINITIONAL_REPRESENTATION('',(#521),#525);
#521 = LINE('',#522,#523);
#522 = CARTESIAN_POINT('',(63.354024785019,0.));
#523 = VECTOR('',#524,1.);
#524 = DIRECTION('',(0.,-1.));
#525 = ( GEOMETRIC_REPRESENTATION_CONTEXT(2) 
PARAMETRIC_REPRESENTATION_CONTEXT() REPRESENTATION_CONTEXT('2D SPACE',''
  ) );
#526 = ORIENTED_EDGE('',*,*,#527,.T.);
#527 = EDGE_CURVE('',#505,#103,#528,.T.);
#528 = SURFACE_CURVE('',#529,(#534,#541),.PCURVE_S1.);
#529 = CIRCLE('',#530,26.500000000001);
#530 = AXIS2_PLACEMENT_3D('',#531,#532,#533);
#531 = CARTESIAN_POINT('',(-5.542233338929E-13,1.474376176702E-13,8.65)
  );
#532 = DIRECTION('',(0.,-0.,-1.));
#533 = DIRECTION('',(0.988522267655,-0.151075234073,0.));
#534 = PCURVE('',#118,#535);
#535 = DEFINITIONAL_REPRESENTATION('',(#536),#540);
#536 = LINE('',#537,#538);
#537 = CARTESIAN_POINT('',(2.9159661851E-17,-2.65));
#538 = VECTOR('',#539,1.);
#539 = DIRECTION('',(1.,0.));
#540 = ( GEOMETRIC_REPRESENTATION_CONTEXT(2) 
PARAMETRIC_REPRESENTATION_CONTEXT() REPRESENTATION_CONTEXT('2D SPACE',''
  ) );
#541 = PCURVE('',#354,#542);
#542 = DEFINITIONAL_REPRESENTATION('',(#543),#547);
#543 = LINE('',#544,#545);
#544 = CARTESIAN_POINT('',(-0.,3.14159265359));
#545 = VECTOR('',#546,1.);
#546 = DIRECTION('',(-1.,0.));
#547 = ( GEOMETRIC_REPRESENTATION_CONTEXT(2) 
PARAMETRIC_REPRESENTATION_CONTEXT() REPRESENTATION_CONTEXT('2D SPACE',''
  ) );
#548 = ORIENTED_EDGE('',*,*,#102,.F.);
#549 = ORIENTED_EDGE('',*,*,#550,.F.);
#550 = EDGE_CURVE('',#551,#75,#553,.T.);
#551 = VERTEX_POINT('',#552);
#552 = CARTESIAN_POINT('',(24.899829285715,-9.069095960582,6.));
#553 = SURFACE_CURVE('',#554,(#559,#569),.PCURVE_S1.);
#554 = ELLIPSE('',#555,92.222707495379,26.500000000001);
#555 = AXIS2_PLACEMENT_3D('',#556,#557,#558);
#556 = CARTESIAN_POINT('',(-5.529096006766E-13,1.47156126679E-13,
    9.833333333334));
#557 = DIRECTION('',(-0.366544250438,-0.884916100617,-0.287347885566));
#558 = DIRECTION('',(0.109963275131,0.265474830185,-0.957826285221));
#559 = PCURVE('',#118,#560);
#560 = DEFINITIONAL_REPRESENTATION('',(#561),#568);
#561 = B_SPLINE_CURVE_WITH_KNOTS('',5,(#562,#563,#564,#565,#566,#567),
  .UNSPECIFIED.,.F.,.F.,(6,6),(1.527386461161,1.550040119481),
  .PIECEWISE_BEZIER_KNOTS.);
#562 = CARTESIAN_POINT('',(0.197633314851,6.000000070117E-07));
#563 = CARTESIAN_POINT('',(0.202164046515,-0.399837004007));
#564 = CARTESIAN_POINT('',(0.206694778179,-0.799772969107));
#565 = CARTESIAN_POINT('',(0.211225509843,-1.199790195972));
#566 = CARTESIAN_POINT('',(0.215756241506,-1.599871576859));
#567 = CARTESIAN_POINT('',(0.22028697317,-2.));
#568 = ( GEOMETRIC_REPRESENTATION_CONTEXT(2) 
PARAMETRIC_REPRESENTATION_CONTEXT() REPRESENTATION_CONTEXT('2D SPACE',''
  ) );
#569 = PCURVE('',#90,#570);
#570 = DEFINITIONAL_REPRESENTATION('',(#571),#575);
#571 = ELLIPSE('',#572,92.222707495379,26.500000000001);
#572 = AXIS2_PLACEMENT_2D('',#573,#574);
#573 = CARTESIAN_POINT('',(4.002117495083,5.672064200381E-13));
#574 = DIRECTION('',(-1.,-1.554961971297E-17));
#575 = ( GEOMETRIC_REPRESENTATION_CONTEXT(2) 
PARAMETRIC_REPRESENTATION_CONTEXT() REPRESENTATION_CONTEXT('2D SPACE',''
  ) );
#576 = ORIENTED_EDGE('',*,*,#577,.F.);
#577 = EDGE_CURVE('',#478,#551,#578,.T.);
#578 = SURFACE_CURVE('',#579,(#584,#591),.PCURVE_S1.);
#579 = CIRCLE('',#580,26.500000000001);
#580 = AXIS2_PLACEMENT_3D('',#581,#582,#583);
#581 = CARTESIAN_POINT('',(-5.529096006766E-13,1.47156126679E-13,6.));
#582 = DIRECTION('',(0.,0.,-1.));
#583 = DIRECTION('',(0.988522267655,-0.151075234073,0.));
#584 = PCURVE('',#118,#585);
#585 = DEFINITIONAL_REPRESENTATION('',(#586),#590);
#586 = LINE('',#587,#588);
#587 = CARTESIAN_POINT('',(0.,0.));
#588 = VECTOR('',#589,1.);
#589 = DIRECTION('',(1.,0.));
#590 = ( GEOMETRIC_REPRESENTATION_CONTEXT(2) 
PARAMETRIC_REPRESENTATION_CONTEXT() REPRESENTATION_CONTEXT('2D SPACE',''
  ) );
#591 = PCURVE('',#592,#597);
#592 = PLANE('',#593);
#593 = AXIS2_PLACEMENT_3D('',#594,#595,#596);
#594 = CARTESIAN_POINT('',(59.084866352522,-15.83174222405,6.));
#595 = DIRECTION('',(0.,0.,1.));
#596 = DIRECTION('',(1.,0.,-0.));
#597 = DEFINITIONAL_REPRESENTATION('',(#598),#606);
#598 = ( BOUNDED_CURVE() B_SPLINE_CURVE(2,(#599,#600,#601,#602,#603,#604
,#605),.UNSPECIFIED.,.T.,.F.) B_SPLINE_CURVE_WITH_KNOTS((1,2,2,2,2,1),(
    -2.094395102393,0.,2.094395102393,4.188790204786,6.28318530718,
8.377580409573),.UNSPECIFIED.) CURVE() GEOMETRIC_REPRESENTATION_ITEM() 
RATIONAL_B_SPLINE_CURVE((1.,0.5,1.,0.5,1.,0.5,1.)) REPRESENTATION_ITEM(
  '') );
#599 = CARTESIAN_POINT('',(-32.88902625966,11.828248521115));
#600 = CARTESIAN_POINT('',(-39.82328076094,-33.54427746666));
#601 = CARTESIAN_POINT('',(-75.64991364959,-4.852773918358));
#602 = CARTESIAN_POINT('',(-111.4765465382,23.838729629947));
#603 = CARTESIAN_POINT('',(-68.71565914831,40.51975206942));
#604 = CARTESIAN_POINT('',(-25.95477175838,57.200774508893));
#605 = CARTESIAN_POINT('',(-32.88902625966,11.828248521115));
#606 = ( GEOMETRIC_REPRESENTATION_CONTEXT(2) 
PARAMETRIC_REPRESENTATION_CONTEXT() REPRESENTATION_CONTEXT('2D SPACE',''
  ) );
#607 = ADVANCED_FACE('',(#608),#90,.T.);
#608 = FACE_BOUND('',#609,.T.);
#609 = EDGE_LOOP('',(#610,#611,#634,#666,#685,#686));
#610 = ORIENTED_EDGE('',*,*,#550,.F.);
#611 = ORIENTED_EDGE('',*,*,#612,.T.);
#612 = EDGE_CURVE('',#551,#613,#615,.T.);
#613 = VERTEX_POINT('',#614);
#614 = CARTESIAN_POINT('',(78.36208155388,-31.21388592506,6.));
#615 = SURFACE_CURVE('',#616,(#620,#627),.PCURVE_S1.);
#616 = LINE('',#617,#618);
#617 = CARTESIAN_POINT('',(0.44008594722,1.062461462388,6.));
#618 = VECTOR('',#619,1.);
#619 = DIRECTION('',(0.923879532511,-0.382683432365,0.));
#620 = PCURVE('',#90,#621);
#621 = DEFINITIONAL_REPRESENTATION('',(#622),#626);
#622 = LINE('',#623,#624);
#623 = CARTESIAN_POINT('',(0.,0.));
#624 = VECTOR('',#625,1.);
#625 = DIRECTION('',(0.,-1.));
#626 = ( GEOMETRIC_REPRESENTATION_CONTEXT(2) 
PARAMETRIC_REPRESENTATION_CONTEXT() REPRESENTATION_CONTEXT('2D SPACE',''
  ) );
#627 = PCURVE('',#592,#628);
#628 = DEFINITIONAL_REPRESENTATION('',(#629),#633);
#629 = LINE('',#630,#631);
#630 = CARTESIAN_POINT('',(-58.6447804053,16.894203686447));
#631 = VECTOR('',#632,1.);
#632 = DIRECTION('',(0.923879532511,-0.382683432365));
#633 = ( GEOMETRIC_REPRESENTATION_CONTEXT(2) 
PARAMETRIC_REPRESENTATION_CONTEXT() REPRESENTATION_CONTEXT('2D SPACE',''
  ) );
#634 = ORIENTED_EDGE('',*,*,#635,.T.);
#635 = EDGE_CURVE('',#613,#636,#638,.T.);
#636 = VERTEX_POINT('',#637);
#637 = CARTESIAN_POINT('',(78.160637642048,-31.71493691288,7.8));
#638 = SURFACE_CURVE('',#639,(#644,#651),.PCURVE_S1.);
#639 = ELLIPSE('',#640,293.54661800886,84.35);
#640 = AXIS2_PLACEMENT_3D('',#641,#642,#643);
#641 = CARTESIAN_POINT('',(0.,0.,9.833333333333));
#642 = DIRECTION('',(-0.366544250438,-0.884916100617,-0.287347885566));
#643 = DIRECTION('',(-0.109963275131,-0.265474830185,0.957826285221));
#644 = PCURVE('',#90,#645);
#645 = DEFINITIONAL_REPRESENTATION('',(#646),#650);
#646 = ELLIPSE('',#647,293.54661800886,84.35);
#647 = AXIS2_PLACEMENT_2D('',#648,#649);
#648 = CARTESIAN_POINT('',(4.002117495082,5.786170931327E-17));
#649 = DIRECTION('',(1.,1.554961971297E-17));
#650 = ( GEOMETRIC_REPRESENTATION_CONTEXT(2) 
PARAMETRIC_REPRESENTATION_CONTEXT() REPRESENTATION_CONTEXT('2D SPACE',''
  ) );
#651 = PCURVE('',#652,#657);
#652 = CYLINDRICAL_SURFACE('',#653,84.35);
#653 = AXIS2_PLACEMENT_3D('',#654,#655,#656);
#654 = CARTESIAN_POINT('',(0.,0.,5.));
#655 = DIRECTION('',(0.,0.,1.));
#656 = DIRECTION('',(1.,0.,-0.));
#657 = DEFINITIONAL_REPRESENTATION('',(#658),#665);
#658 = B_SPLINE_CURVE_WITH_KNOTS('',5,(#659,#660,#661,#662,#663,#664),
  .UNSPECIFIED.,.F.,.F.,(6,6),(4.698754886616,4.705157147105),
  .PIECEWISE_BEZIER_KNOTS.);
#659 = CARTESIAN_POINT('',(5.90412031925,0.9999994));
#660 = CARTESIAN_POINT('',(5.902839867152,1.359986386867));
#661 = CARTESIAN_POINT('',(5.901559415054,1.719981229949));
#662 = CARTESIAN_POINT('',(5.900278962956,2.07998269962));
#663 = CARTESIAN_POINT('',(5.898998510858,2.439989566207));
#664 = CARTESIAN_POINT('',(5.897718058761,2.8000006));
#665 = ( GEOMETRIC_REPRESENTATION_CONTEXT(2) 
PARAMETRIC_REPRESENTATION_CONTEXT() REPRESENTATION_CONTEXT('2D SPACE',''
  ) );
#666 = ORIENTED_EDGE('',*,*,#667,.T.);
#667 = EDGE_CURVE('',#636,#250,#668,.T.);
#668 = SURFACE_CURVE('',#669,(#673,#679),.PCURVE_S1.);
#669 = LINE('',#670,#671);
#670 = CARTESIAN_POINT('',(0.233436893743,0.563566514832,7.8));
#671 = VECTOR('',#672,1.);
#672 = DIRECTION('',(0.923879532511,-0.382683432365,0.));
#673 = PCURVE('',#90,#674);
#674 = DEFINITIONAL_REPRESENTATION('',(#675),#678);
#675 = B_SPLINE_CURVE_WITH_KNOTS('',1,(#676,#677),.UNSPECIFIED.,.F.,.F.,
  (2,2),(84.323354043309,89.993169436816),.PIECEWISE_BEZIER_KNOTS.);
#676 = CARTESIAN_POINT('',(1.879255171604,-84.3233540433));
#677 = CARTESIAN_POINT('',(1.879255171604,-89.99316943681));
#678 = ( GEOMETRIC_REPRESENTATION_CONTEXT(2) 
PARAMETRIC_REPRESENTATION_CONTEXT() REPRESENTATION_CONTEXT('2D SPACE',''
  ) );
#679 = PCURVE('',#266,#680);
#680 = DEFINITIONAL_REPRESENTATION('',(#681),#684);
#681 = B_SPLINE_CURVE_WITH_KNOTS('',1,(#682,#683),.UNSPECIFIED.,.F.,.F.,
  (2,2),(84.323354043309,89.993169436816),.PIECEWISE_BEZIER_KNOTS.);
#682 = CARTESIAN_POINT('',(78.138057807059,-31.70558403899));
#683 = CARTESIAN_POINT('',(83.376284202237,-33.87532845466));
#684 = ( GEOMETRIC_REPRESENTATION_CONTEXT(2) 
PARAMETRIC_REPRESENTATION_CONTEXT() REPRESENTATION_CONTEXT('2D SPACE',''
  ) );
#685 = ORIENTED_EDGE('',*,*,#282,.T.);
#686 = ORIENTED_EDGE('',*,*,#74,.F.);
#687 = ADVANCED_FACE('',(#688),#266,.F.);
#688 = FACE_BOUND('',#689,.F.);
#689 = EDGE_LOOP('',(#690,#714,#715,#716));
#690 = ORIENTED_EDGE('',*,*,#691,.F.);
#691 = EDGE_CURVE('',#636,#692,#694,.T.);
#692 = VERTEX_POINT('',#693);
#693 = CARTESIAN_POINT('',(83.546566230448,-11.61437777504,7.8));
#694 = SURFACE_CURVE('',#695,(#700,#707),.PCURVE_S1.);
#695 = CIRCLE('',#696,84.35);
#696 = AXIS2_PLACEMENT_3D('',#697,#698,#699);
#697 = CARTESIAN_POINT('',(0.,0.,7.8));
#698 = DIRECTION('',(0.,0.,1.));
#699 = DIRECTION('',(1.,0.,-0.));
#700 = PCURVE('',#266,#701);
#701 = DEFINITIONAL_REPRESENTATION('',(#702),#706);
#702 = CIRCLE('',#703,84.35);
#703 = AXIS2_PLACEMENT_2D('',#704,#705);
#704 = CARTESIAN_POINT('',(0.,0.));
#705 = DIRECTION('',(1.,0.));
#706 = ( GEOMETRIC_REPRESENTATION_CONTEXT(2) 
PARAMETRIC_REPRESENTATION_CONTEXT() REPRESENTATION_CONTEXT('2D SPACE',''
  ) );
#707 = PCURVE('',#652,#708);
#708 = DEFINITIONAL_REPRESENTATION('',(#709),#713);
#709 = LINE('',#710,#711);
#710 = CARTESIAN_POINT('',(0.,2.8));
#711 = VECTOR('',#712,1.);
#712 = DIRECTION('',(1.,0.));
#713 = ( GEOMETRIC_REPRESENTATION_CONTEXT(2) 
PARAMETRIC_REPRESENTATION_CONTEXT() REPRESENTATION_CONTEXT('2D SPACE',''
  ) );
#714 = ORIENTED_EDGE('',*,*,#667,.T.);
#715 = ORIENTED_EDGE('',*,*,#249,.F.);
#716 = ORIENTED_EDGE('',*,*,#717,.T.);
#717 = EDGE_CURVE('',#218,#692,#718,.T.);
#718 = SURFACE_CURVE('',#719,(#723,#729),.PCURVE_S1.);
#719 = LINE('',#720,#721);
#720 = CARTESIAN_POINT('',(-7.962097725423E-02,-0.604781365438,7.8));
#721 = VECTOR('',#722,1.);
#722 = DIRECTION('',(-0.991444861374,0.13052619222,0.));
#723 = PCURVE('',#266,#724);
#724 = DEFINITIONAL_REPRESENTATION('',(#725),#728);
#725 = B_SPLINE_CURVE_WITH_KNOTS('',1,(#726,#727),.UNSPECIFIED.,.F.,.F.,
  (2,2),(-89.85621577292,-83.89246161028),.PIECEWISE_BEZIER_KNOTS.);
#726 = CARTESIAN_POINT('',(89.007862413312,-12.33337105758));
#727 = CARTESIAN_POINT('',(83.095128994266,-11.55494493539));
#728 = ( GEOMETRIC_REPRESENTATION_CONTEXT(2) 
PARAMETRIC_REPRESENTATION_CONTEXT() REPRESENTATION_CONTEXT('2D SPACE',''
  ) );
#729 = PCURVE('',#237,#730);
#730 = DEFINITIONAL_REPRESENTATION('',(#731),#734);
#731 = B_SPLINE_CURVE_WITH_KNOTS('',1,(#732,#733),.UNSPECIFIED.,.F.,.F.,
  (2,2),(-89.85621577292,-83.89246161028),.PIECEWISE_BEZIER_KNOTS.);
#732 = CARTESIAN_POINT('',(0.208806130178,-89.85621577292));
#733 = CARTESIAN_POINT('',(0.208806130178,-83.89246161028));
#734 = ( GEOMETRIC_REPRESENTATION_CONTEXT(2) 
PARAMETRIC_REPRESENTATION_CONTEXT() REPRESENTATION_CONTEXT('2D SPACE',''
  ) );
#735 = ADVANCED_FACE('',(#736),#237,.T.);
#736 = FACE_BOUND('',#737,.T.);
#737 = EDGE_LOOP('',(#738,#739,#760,#761,#762,#789));
#738 = ORIENTED_EDGE('',*,*,#475,.F.);
#739 = ORIENTED_EDGE('',*,*,#740,.T.);
#740 = EDGE_CURVE('',#476,#190,#741,.T.);
#741 = SURFACE_CURVE('',#742,(#746,#753),.PCURVE_S1.);
#742 = LINE('',#743,#744);
#743 = CARTESIAN_POINT('',(-7.178940572103E-02,-0.545294673756,8.));
#744 = VECTOR('',#745,1.);
#745 = DIRECTION('',(0.991444861374,-0.13052619222,0.));
#746 = PCURVE('',#237,#747);
#747 = DEFINITIONAL_REPRESENTATION('',(#748),#752);
#748 = LINE('',#749,#750);
#749 = CARTESIAN_POINT('',(0.,0.));
#750 = VECTOR('',#751,1.);
#751 = DIRECTION('',(0.,-1.));
#752 = ( GEOMETRIC_REPRESENTATION_CONTEXT(2) 
PARAMETRIC_REPRESENTATION_CONTEXT() REPRESENTATION_CONTEXT('2D SPACE',''
  ) );
#753 = PCURVE('',#205,#754);
#754 = DEFINITIONAL_REPRESENTATION('',(#755),#759);
#755 = LINE('',#756,#757);
#756 = CARTESIAN_POINT('',(89.848316623073,-2.));
#757 = VECTOR('',#758,1.);
#758 = DIRECTION('',(-1.,-0.));
#759 = ( GEOMETRIC_REPRESENTATION_CONTEXT(2) 
PARAMETRIC_REPRESENTATION_CONTEXT() REPRESENTATION_CONTEXT('2D SPACE',''
  ) );
#760 = ORIENTED_EDGE('',*,*,#217,.T.);
#761 = ORIENTED_EDGE('',*,*,#717,.T.);
#762 = ORIENTED_EDGE('',*,*,#763,.T.);
#763 = EDGE_CURVE('',#692,#764,#766,.T.);
#764 = VERTEX_POINT('',#765);
#765 = CARTESIAN_POINT('',(83.470496281621,-12.149022615,6.));
#766 = SURFACE_CURVE('',#767,(#772,#779),.PCURVE_S1.);
#767 = ELLIPSE('',#768,293.54661800886,84.35);
#768 = AXIS2_PLACEMENT_3D('',#769,#770,#771);
#769 = CARTESIAN_POINT('',(0.,0.,9.833333333333));
#770 = DIRECTION('',(0.125021417818,0.949631948571,-0.287347885566));
#771 = DIRECTION('',(3.750642534546E-02,0.284889584571,0.957826285221));
#772 = PCURVE('',#237,#773);
#773 = DEFINITIONAL_REPRESENTATION('',(#774),#778);
#774 = ELLIPSE('',#775,293.54661800886,84.35);
#775 = AXIS2_PLACEMENT_2D('',#776,#777);
#776 = CARTESIAN_POINT('',(-1.9140561933,5.875034814031E-19));
#777 = DIRECTION('',(-1.,7.577704210316E-18));
#778 = ( GEOMETRIC_REPRESENTATION_CONTEXT(2) 
PARAMETRIC_REPRESENTATION_CONTEXT() REPRESENTATION_CONTEXT('2D SPACE',''
  ) );
#779 = PCURVE('',#652,#780);
#780 = DEFINITIONAL_REPRESENTATION('',(#781),#788);
#781 = B_SPLINE_CURVE_WITH_KNOTS('',5,(#782,#783,#784,#785,#786,#787),
  .UNSPECIFIED.,.F.,.F.,(6,6),(1.578028160075,1.584430420564),
  .PIECEWISE_BEZIER_KNOTS.);
#782 = CARTESIAN_POINT('',(6.14505378,2.8000006));
#783 = CARTESIAN_POINT('',(6.143773327903,2.439989566207));
#784 = CARTESIAN_POINT('',(6.142492875805,2.079982699621));
#785 = CARTESIAN_POINT('',(6.141212423707,1.719981229948));
#786 = CARTESIAN_POINT('',(6.139931971609,1.359986386867));
#787 = CARTESIAN_POINT('',(6.138651519511,0.9999994));
#788 = ( GEOMETRIC_REPRESENTATION_CONTEXT(2) 
PARAMETRIC_REPRESENTATION_CONTEXT() REPRESENTATION_CONTEXT('2D SPACE',''
  ) );
#789 = ORIENTED_EDGE('',*,*,#790,.F.);
#790 = EDGE_CURVE('',#478,#764,#791,.T.);
#791 = SURFACE_CURVE('',#792,(#796,#803),.PCURVE_S1.);
#792 = LINE('',#793,#794);
#793 = CARTESIAN_POINT('',(-0.150105121053,-1.14016159058,6.));
#794 = VECTOR('',#795,1.);
#795 = DIRECTION('',(0.991444861374,-0.13052619222,0.));
#796 = PCURVE('',#237,#797);
#797 = DEFINITIONAL_REPRESENTATION('',(#798),#802);
#798 = LINE('',#799,#800);
#799 = CARTESIAN_POINT('',(2.088061301782,0.));
#800 = VECTOR('',#801,1.);
#801 = DIRECTION('',(0.,-1.));
#802 = ( GEOMETRIC_REPRESENTATION_CONTEXT(2) 
PARAMETRIC_REPRESENTATION_CONTEXT() REPRESENTATION_CONTEXT('2D SPACE',''
  ) );
#803 = PCURVE('',#592,#804);
#804 = DEFINITIONAL_REPRESENTATION('',(#805),#809);
#805 = LINE('',#806,#807);
#806 = CARTESIAN_POINT('',(-59.23497147357,14.691580633479));
#807 = VECTOR('',#808,1.);
#808 = DIRECTION('',(0.991444861374,-0.13052619222));
#809 = ( GEOMETRIC_REPRESENTATION_CONTEXT(2) 
PARAMETRIC_REPRESENTATION_CONTEXT() REPRESENTATION_CONTEXT('2D SPACE',''
  ) );
#810 = ADVANCED_FACE('',(#811),#205,.F.);
#811 = FACE_BOUND('',#812,.F.);
#812 = EDGE_LOOP('',(#813,#814,#815,#816));
#813 = ORIENTED_EDGE('',*,*,#504,.F.);
#814 = ORIENTED_EDGE('',*,*,#740,.T.);
#815 = ORIENTED_EDGE('',*,*,#189,.T.);
#816 = ORIENTED_EDGE('',*,*,#817,.T.);
#817 = EDGE_CURVE('',#161,#505,#818,.T.);
#818 = SURFACE_CURVE('',#819,(#823,#830),.PCURVE_S1.);
#819 = LINE('',#820,#821);
#820 = CARTESIAN_POINT('',(89.007862413312,-12.27285331994,8.65));
#821 = VECTOR('',#822,1.);
#822 = DIRECTION('',(-0.991444861374,0.13052619222,0.));
#823 = PCURVE('',#205,#824);
#824 = DEFINITIONAL_REPRESENTATION('',(#825),#829);
#825 = LINE('',#826,#827);
#826 = CARTESIAN_POINT('',(0.,-2.65));
#827 = VECTOR('',#828,1.);
#828 = DIRECTION('',(1.,0.));
#829 = ( GEOMETRIC_REPRESENTATION_CONTEXT(2) 
PARAMETRIC_REPRESENTATION_CONTEXT() REPRESENTATION_CONTEXT('2D SPACE',''
  ) );
#830 = PCURVE('',#831,#836);
#831 = CYLINDRICAL_SURFACE('',#832,0.15);
#832 = AXIS2_PLACEMENT_3D('',#833,#834,#835);
#833 = CARTESIAN_POINT('',(88.988283484479,-12.42157004915,8.65));
#834 = DIRECTION('',(-0.991444861374,0.13052619222,0.));
#835 = DIRECTION('',(0.,0.,1.));
#836 = DEFINITIONAL_REPRESENTATION('',(#837),#841);
#837 = LINE('',#838,#839);
#838 = CARTESIAN_POINT('',(1.570796326795,0.));
#839 = VECTOR('',#840,1.);
#840 = DIRECTION('',(0.,1.));
#841 = ( GEOMETRIC_REPRESENTATION_CONTEXT(2) 
PARAMETRIC_REPRESENTATION_CONTEXT() REPRESENTATION_CONTEXT('2D SPACE',''
  ) );
#842 = ADVANCED_FACE('',(#843),#177,.T.);
#843 = FACE_BOUND('',#844,.T.);
#844 = EDGE_LOOP('',(#845,#846,#847,#897));
#845 = ORIENTED_EDGE('',*,*,#408,.F.);
#846 = ORIENTED_EDGE('',*,*,#160,.T.);
#847 = ORIENTED_EDGE('',*,*,#848,.T.);
#848 = EDGE_CURVE('',#161,#849,#851,.T.);
#849 = VERTEX_POINT('',#850);
#850 = CARTESIAN_POINT('',(88.838527729681,-12.40185433,8.8));
#851 = SURFACE_CURVE('',#852,(#865,#881),.PCURVE_S1.);
#852 = B_SPLINE_CURVE_WITH_KNOTS('',6,(#853,#854,#855,#856,#857,#858,
    #859,#860,#861,#862,#863,#864),.UNSPECIFIED.,.F.,.F.,(7,5,7),(0.,
    0.499848465946,1.),.UNSPECIFIED.);
#853 = CARTESIAN_POINT('',(89.007862413312,-12.27285331994,8.65));
#854 = CARTESIAN_POINT('',(89.007862413312,-12.27285331994,
    8.669739263424));
#855 = CARTESIAN_POINT('',(89.004346195132,-12.2755343491,8.689479962566
    ));
#856 = CARTESIAN_POINT('',(88.997312350693,-12.28089749039,8.70858954223
    ));
#857 = CARTESIAN_POINT('',(88.986963981914,-12.28878712466,
    8.726440402967));
#858 = CARTESIAN_POINT('',(88.973687529771,-12.29890721882,
    8.742494301489));
#859 = CARTESIAN_POINT('',(88.942270750728,-12.32284944551,
    8.770189879973));
#860 = CARTESIAN_POINT('',(88.924126604077,-12.3366744922,8.781829953304
    ));
#861 = CARTESIAN_POINT('',(88.904050942318,-12.35196780971,
    8.790844053503));
#862 = CARTESIAN_POINT('',(88.882652899021,-12.36826405835,
    8.796948779914));
#863 = CARTESIAN_POINT('',(88.860593471065,-12.38505907085,
    8.799999757047));
#864 = CARTESIAN_POINT('',(88.838527729694,-12.40185432991,8.8));
#865 = PCURVE('',#177,#866);
#866 = DEFINITIONAL_REPRESENTATION('',(#867),#880);
#867 = B_SPLINE_CURVE_WITH_KNOTS('',6,(#868,#869,#870,#871,#872,#873,
    #874,#875,#876,#877,#878,#879),.UNSPECIFIED.,.F.,.F.,(7,5,7),(0.,
    0.499848465946,1.),.UNSPECIFIED.);
#868 = CARTESIAN_POINT('',(0.249556684742,0.));
#869 = CARTESIAN_POINT('',(0.249556684742,0.131595089492));
#870 = CARTESIAN_POINT('',(0.249521779973,0.263199902964));
#871 = CARTESIAN_POINT('',(0.249451956588,0.394698253682));
#872 = CARTESIAN_POINT('',(0.249349220165,0.52601545001));
#873 = CARTESIAN_POINT('',(0.249217387576,0.657109817683));
#874 = CARTESIAN_POINT('',(0.248905348504,0.918898998784));
#875 = CARTESIAN_POINT('',(0.248725104125,1.049600156435));
#876 = CARTESIAN_POINT('',(0.248525623817,1.180076593312));
#877 = CARTESIAN_POINT('',(0.248312941884,1.310378362314));
#878 = CARTESIAN_POINT('',(0.248093617458,1.440585497891));
#879 = CARTESIAN_POINT('',(0.24787416665,1.570796326795));
#880 = ( GEOMETRIC_REPRESENTATION_CONTEXT(2) 
PARAMETRIC_REPRESENTATION_CONTEXT() REPRESENTATION_CONTEXT('2D SPACE',''
  ) );
#881 = PCURVE('',#831,#882);
#882 = DEFINITIONAL_REPRESENTATION('',(#883),#896);
#883 = B_SPLINE_CURVE_WITH_KNOTS('',6,(#884,#885,#886,#887,#888,#889,
    #890,#891,#892,#893,#894,#895),.UNSPECIFIED.,.F.,.F.,(7,5,7),(0.,
    0.499848465946,1.),.UNSPECIFIED.);
#884 = CARTESIAN_POINT('',(1.570796326795,-2.84217094304E-14));
#885 = CARTESIAN_POINT('',(1.439201237303,-2.842050074912E-14));
#886 = CARTESIAN_POINT('',(1.307596423831,3.136191918768E-03));
#887 = CARTESIAN_POINT('',(1.176098073113,9.409830432177E-03));
#888 = CARTESIAN_POINT('',(1.044780876785,1.863986356326E-02));
#889 = CARTESIAN_POINT('',(0.913686509112,3.048179646192E-02));
#890 = CARTESIAN_POINT('',(0.651897328011,5.850471292163E-02));
#891 = CARTESIAN_POINT('',(0.52119617036,7.468910318162E-02));
#892 = CARTESIAN_POINT('',(0.390719733483,9.259683637006E-02));
#893 = CARTESIAN_POINT('',(0.260417964481,0.111684729157));
#894 = CARTESIAN_POINT('',(0.130210828903,0.13136324662));
#895 = CARTESIAN_POINT('',(0.,0.151047991302));
#896 = ( GEOMETRIC_REPRESENTATION_CONTEXT(2) 
PARAMETRIC_REPRESENTATION_CONTEXT() REPRESENTATION_CONTEXT('2D SPACE',''
  ) );
#897 = ORIENTED_EDGE('',*,*,#898,.F.);
#898 = EDGE_CURVE('',#381,#849,#899,.T.);
#899 = SURFACE_CURVE('',#900,(#905,#912),.PCURVE_S1.);
#900 = CIRCLE('',#901,89.700000000001);
#901 = AXIS2_PLACEMENT_3D('',#902,#903,#904);
#902 = CARTESIAN_POINT('',(-5.471179065353E-13,1.758593271006E-13,8.8));
#903 = DIRECTION('',(0.,0.,1.));
#904 = DIRECTION('',(0.92620474843,-0.377020906563,0.));
#905 = PCURVE('',#177,#906);
#906 = DEFINITIONAL_REPRESENTATION('',(#907),#911);
#907 = LINE('',#908,#909);
#908 = CARTESIAN_POINT('',(0.,1.570796326795));
#909 = VECTOR('',#910,1.);
#910 = DIRECTION('',(1.,0.));
#911 = ( GEOMETRIC_REPRESENTATION_CONTEXT(2) 
PARAMETRIC_REPRESENTATION_CONTEXT() REPRESENTATION_CONTEXT('2D SPACE',''
  ) );
#912 = PCURVE('',#396,#913);
#913 = DEFINITIONAL_REPRESENTATION('',(#914),#918);
#914 = CIRCLE('',#915,89.700000000001);
#915 = AXIS2_PLACEMENT_2D('',#916,#917);
#916 = CARTESIAN_POINT('',(-59.08486635252,15.831742224059));
#917 = DIRECTION('',(0.92620474843,-0.377020906563));
#918 = ( GEOMETRIC_REPRESENTATION_CONTEXT(2) 
PARAMETRIC_REPRESENTATION_CONTEXT() REPRESENTATION_CONTEXT('2D SPACE',''
  ) );
#919 = ADVANCED_FACE('',(#920),#354,.T.);
#920 = FACE_BOUND('',#921,.F.);
#921 = EDGE_LOOP('',(#922,#923,#924,#989));
#922 = ORIENTED_EDGE('',*,*,#310,.F.);
#923 = ORIENTED_EDGE('',*,*,#527,.F.);
#924 = ORIENTED_EDGE('',*,*,#925,.F.);
#925 = EDGE_CURVE('',#926,#505,#928,.T.);
#926 = VERTEX_POINT('',#927);
#927 = CARTESIAN_POINT('',(26.321521052133,-4.171334259219,8.8));
#928 = SURFACE_CURVE('',#929,(#947,#968),.PCURVE_S1.);
#929 = B_SPLINE_CURVE_WITH_KNOTS('',6,(#930,#931,#932,#933,#934,#935,
    #936,#937,#938,#939,#940,#941,#942,#943,#944,#945,#946),
  .UNSPECIFIED.,.F.,.F.,(7,5,5,7),(0.,6.067877710304E-02,0.502040236003,
    1.),.UNSPECIFIED.);
#930 = CARTESIAN_POINT('',(26.321521052394,-4.171334257571,8.8));
#931 = CARTESIAN_POINT('',(26.319541177289,-4.168682639043,8.79999999999
    ));
#932 = CARTESIAN_POINT('',(26.31756106973,-4.166030992947,8.799955045447
    ));
#933 = CARTESIAN_POINT('',(26.315581600567,-4.163380488833,
    8.799865136749));
#934 = CARTESIAN_POINT('',(26.31360364097,-4.160732294281,8.799730305153
    ));
#935 = CARTESIAN_POINT('',(26.311628062429,-4.158087574897,
    8.799550612791));
#936 = CARTESIAN_POINT('',(26.295309558761,-4.136244242839,
    8.797693488862));
#937 = CARTESIAN_POINT('',(26.281135782468,-4.117286829938,
    8.793692553472));
#938 = CARTESIAN_POINT('',(26.267468398998,-4.099021761504,
    8.787358085166));
#939 = CARTESIAN_POINT('',(26.254640337156,-4.081891410903,
    8.778813865705));
#940 = CARTESIAN_POINT('',(26.24295921419,-4.066302697125,8.76826746875)
  );
#941 = CARTESIAN_POINT('',(26.221089192309,-4.037131110147,
    8.742170063164));
#942 = CARTESIAN_POINT('',(26.211283053171,-4.024060911125,
    8.726149632225));
#943 = CARTESIAN_POINT('',(26.203636755232,-4.013875829838,
    8.708354546252));
#944 = CARTESIAN_POINT('',(26.198438638303,-4.006953970004,8.68931763104
    ));
#945 = CARTESIAN_POINT('',(26.195840092856,-4.003493702944,
    8.669658137728));
#946 = CARTESIAN_POINT('',(26.195840092856,-4.003493702944,8.65));
#947 = PCURVE('',#354,#948);
#948 = DEFINITIONAL_REPRESENTATION('',(#949),#967);
#949 = B_SPLINE_CURVE_WITH_KNOTS('',6,(#950,#951,#952,#953,#954,#955,
    #956,#957,#958,#959,#960,#961,#962,#963,#964,#965,#966),
  .UNSPECIFIED.,.F.,.F.,(7,5,5,7),(0.,6.067877710304E-02,0.502040236003,
    1.),.UNSPECIFIED.);
#950 = CARTESIAN_POINT('',(-5.513230379414E-03,1.570796326795));
#951 = CARTESIAN_POINT('',(-5.426587233032E-03,1.586599732919));
#952 = CARTESIAN_POINT('',(-5.339925933551E-03,1.602403094284));
#953 = CARTESIAN_POINT('',(-5.253284702774E-03,1.618206567053));
#954 = CARTESIAN_POINT('',(-5.166701741646E-03,1.634010302402));
#955 = CARTESIAN_POINT('',(-5.080215230258E-03,1.649814446523));
#956 = CARTESIAN_POINT('',(-4.36576231056E-03,1.780578326981));
#957 = CARTESIAN_POINT('',(-3.744798249919E-03,1.895564870281));
#958 = CARTESIAN_POINT('',(-3.145608672899E-03,2.010639218269));
#959 = CARTESIAN_POINT('',(-2.582858733155E-03,2.125849251153));
#960 = CARTESIAN_POINT('',(-2.070148632492E-03,2.241224358922));
#961 = CARTESIAN_POINT('',(-1.109829956602E-03,2.487131695342));
#962 = CARTESIAN_POINT('',(-6.789702296661E-04,2.61771741703));
#963 = CARTESIAN_POINT('',(-3.428347128107E-04,2.748511384446));
#964 = CARTESIAN_POINT('',(-1.142628220006E-04,2.879474965605));
#965 = CARTESIAN_POINT('',(0.,3.010538402069));
#966 = CARTESIAN_POINT('',(0.,3.14159265359));
#967 = ( GEOMETRIC_REPRESENTATION_CONTEXT(2) 
PARAMETRIC_REPRESENTATION_CONTEXT() REPRESENTATION_CONTEXT('2D SPACE',''
  ) );
#968 = PCURVE('',#831,#969);
#969 = DEFINITIONAL_REPRESENTATION('',(#970),#988);
#970 = B_SPLINE_CURVE_WITH_KNOTS('',6,(#971,#972,#973,#974,#975,#976,
    #977,#978,#979,#980,#981,#982,#983,#984,#985,#986,#987),
  .UNSPECIFIED.,.F.,.F.,(7,5,5,7),(0.,6.067877710304E-02,0.502040236003,
    1.),.UNSPECIFIED.);
#971 = CARTESIAN_POINT('',(1.111407780622E-08,63.207511455017));
#972 = CARTESIAN_POINT('',(1.580339894593E-02,63.209820497685));
#973 = CARTESIAN_POINT('',(3.160676311357E-02,63.212129774418));
#974 = CARTESIAN_POINT('',(4.741024237766E-02,63.214438269157));
#975 = CARTESIAN_POINT('',(6.321397919704E-02,63.216744965787));
#976 = CARTESIAN_POINT('',(7.901811972868E-02,63.21904884813));
#977 = CARTESIAN_POINT('',(0.209782000186,63.238078871696));
#978 = CARTESIAN_POINT('',(0.324768543486,63.254605828289));
#979 = CARTESIAN_POINT('',(0.439842891474,63.270540355231));
#980 = CARTESIAN_POINT('',(0.555052924358,63.285494630662));
#981 = CARTESIAN_POINT('',(0.670428032127,63.299110555452));
#982 = CARTESIAN_POINT('',(0.916335368548,63.324601132433));
#983 = CARTESIAN_POINT('',(1.046921090235,63.336029382001));
#984 = CARTESIAN_POINT('',(1.177715057651,63.34493968468));
#985 = CARTESIAN_POINT('',(1.30867863881,63.350996815005));
#986 = CARTESIAN_POINT('',(1.439742075274,63.354024785019));
#987 = CARTESIAN_POINT('',(1.570796326795,63.354024785019));
#988 = ( GEOMETRIC_REPRESENTATION_CONTEXT(2) 
PARAMETRIC_REPRESENTATION_CONTEXT() REPRESENTATION_CONTEXT('2D SPACE',''
  ) );
#989 = ORIENTED_EDGE('',*,*,#990,.T.);
#990 = EDGE_CURVE('',#926,#311,#991,.T.);
#991 = SURFACE_CURVE('',#992,(#997,#1004),.PCURVE_S1.);
#992 = CIRCLE('',#993,26.650000000001);
#993 = AXIS2_PLACEMENT_3D('',#994,#995,#996);
#994 = CARTESIAN_POINT('',(-5.542233338929E-13,1.474376176702E-13,8.8));
#995 = DIRECTION('',(0.,-0.,-1.));
#996 = DIRECTION('',(0.988522267655,-0.151075234073,0.));
#997 = PCURVE('',#354,#998);
#998 = DEFINITIONAL_REPRESENTATION('',(#999),#1003);
#999 = LINE('',#1000,#1001);
#1000 = CARTESIAN_POINT('',(-0.,1.570796326795));
#1001 = VECTOR('',#1002,1.);
#1002 = DIRECTION('',(-1.,0.));
#1003 = ( GEOMETRIC_REPRESENTATION_CONTEXT(2) 
PARAMETRIC_REPRESENTATION_CONTEXT() REPRESENTATION_CONTEXT('2D SPACE',''
  ) );
#1004 = PCURVE('',#396,#1005);
#1005 = DEFINITIONAL_REPRESENTATION('',(#1006),#1014);
#1006 = ( BOUNDED_CURVE() B_SPLINE_CURVE(2,(#1007,#1008,#1009,#1010,
#1011,#1012,#1013),.UNSPECIFIED.,.T.,.F.) B_SPLINE_CURVE_WITH_KNOTS((1,2
    ,2,2,2,1),(-2.094395102393,0.,2.094395102393,4.188790204786,
6.28318530718,8.377580409573),.UNSPECIFIED.) CURVE() 
GEOMETRIC_REPRESENTATION_ITEM() RATIONAL_B_SPLINE_CURVE((1.,0.5,1.,0.5,
1.,0.5,1.)) REPRESENTATION_ITEM('') );
#1007 = CARTESIAN_POINT('',(-32.74074791951,11.805587236004));
#1008 = CARTESIAN_POINT('',(-39.71425291797,-33.82376437057));
#1009 = CARTESIAN_POINT('',(-75.74367806825,-4.969856085202));
#1010 = CARTESIAN_POINT('',(-111.7731032185,23.884052200169));
#1011 = CARTESIAN_POINT('',(-68.77017306979,40.659495521375));
#1012 = CARTESIAN_POINT('',(-25.76724292106,57.434938842581));
#1013 = CARTESIAN_POINT('',(-32.74074791951,11.805587236004));
#1014 = ( GEOMETRIC_REPRESENTATION_CONTEXT(2) 
PARAMETRIC_REPRESENTATION_CONTEXT() REPRESENTATION_CONTEXT('2D SPACE',''
  ) );
#1015 = ADVANCED_FACE('',(#1016),#396,.T.);
#1016 = FACE_BOUND('',#1017,.T.);
#1017 = EDGE_LOOP('',(#1018,#1019,#1020,#1041));
#1018 = ORIENTED_EDGE('',*,*,#380,.T.);
#1019 = ORIENTED_EDGE('',*,*,#898,.T.);
#1020 = ORIENTED_EDGE('',*,*,#1021,.T.);
#1021 = EDGE_CURVE('',#849,#926,#1022,.T.);
#1022 = SURFACE_CURVE('',#1023,(#1027,#1034),.PCURVE_S1.);
#1023 = LINE('',#1024,#1025);
#1024 = CARTESIAN_POINT('',(88.988283484479,-12.42157004915,8.8));
#1025 = VECTOR('',#1026,1.);
#1026 = DIRECTION('',(-0.991444861374,0.13052619222,0.));
#1027 = PCURVE('',#396,#1028);
#1028 = DEFINITIONAL_REPRESENTATION('',(#1029),#1033);
#1029 = LINE('',#1030,#1031);
#1030 = CARTESIAN_POINT('',(29.903417131957,3.410172174906));
#1031 = VECTOR('',#1032,1.);
#1032 = DIRECTION('',(-0.991444861374,0.13052619222));
#1033 = ( GEOMETRIC_REPRESENTATION_CONTEXT(2) 
PARAMETRIC_REPRESENTATION_CONTEXT() REPRESENTATION_CONTEXT('2D SPACE',''
  ) );
#1034 = PCURVE('',#831,#1035);
#1035 = DEFINITIONAL_REPRESENTATION('',(#1036),#1040);
#1036 = LINE('',#1037,#1038);
#1037 = CARTESIAN_POINT('',(0.,0.));
#1038 = VECTOR('',#1039,1.);
#1039 = DIRECTION('',(0.,1.));
#1040 = ( GEOMETRIC_REPRESENTATION_CONTEXT(2) 
PARAMETRIC_REPRESENTATION_CONTEXT() REPRESENTATION_CONTEXT('2D SPACE',''
  ) );
#1041 = ORIENTED_EDGE('',*,*,#990,.T.);
#1042 = ADVANCED_FACE('',(#1043,#1070),#592,.F.);
#1043 = FACE_BOUND('',#1044,.F.);
#1044 = EDGE_LOOP('',(#1045,#1067,#1068,#1069));
#1045 = ORIENTED_EDGE('',*,*,#1046,.T.);
#1046 = EDGE_CURVE('',#613,#764,#1047,.T.);
#1047 = SURFACE_CURVE('',#1048,(#1053,#1060),.PCURVE_S1.);
#1048 = CIRCLE('',#1049,84.35);
#1049 = AXIS2_PLACEMENT_3D('',#1050,#1051,#1052);
#1050 = CARTESIAN_POINT('',(0.,0.,6.));
#1051 = DIRECTION('',(0.,0.,1.));
#1052 = DIRECTION('',(1.,0.,-0.));
#1053 = PCURVE('',#592,#1054);
#1054 = DEFINITIONAL_REPRESENTATION('',(#1055),#1059);
#1055 = CIRCLE('',#1056,84.35);
#1056 = AXIS2_PLACEMENT_2D('',#1057,#1058);
#1057 = CARTESIAN_POINT('',(-59.08486635252,15.831742224059));
#1058 = DIRECTION('',(1.,0.));
#1059 = ( GEOMETRIC_REPRESENTATION_CONTEXT(2) 
PARAMETRIC_REPRESENTATION_CONTEXT() REPRESENTATION_CONTEXT('2D SPACE',''
  ) );
#1060 = PCURVE('',#652,#1061);
#1061 = DEFINITIONAL_REPRESENTATION('',(#1062),#1066);
#1062 = LINE('',#1063,#1064);
#1063 = CARTESIAN_POINT('',(0.,1.));
#1064 = VECTOR('',#1065,1.);
#1065 = DIRECTION('',(1.,0.));
#1066 = ( GEOMETRIC_REPRESENTATION_CONTEXT(2) 
PARAMETRIC_REPRESENTATION_CONTEXT() REPRESENTATION_CONTEXT('2D SPACE',''
  ) );
#1067 = ORIENTED_EDGE('',*,*,#790,.F.);
#1068 = ORIENTED_EDGE('',*,*,#577,.T.);
#1069 = ORIENTED_EDGE('',*,*,#612,.T.);
#1070 = FACE_BOUND('',#1071,.F.);
#1071 = EDGE_LOOP('',(#1072,#1102,#1135,#1163));
#1072 = ORIENTED_EDGE('',*,*,#1073,.T.);
#1073 = EDGE_CURVE('',#1074,#1076,#1078,.T.);
#1074 = VERTEX_POINT('',#1075);
#1075 = CARTESIAN_POINT('',(75.235966184511,-12.08426217371,6.));
#1076 = VERTEX_POINT('',#1077);
#1077 = CARTESIAN_POINT('',(80.451965646472,-13.48188501727,6.));
#1078 = SURFACE_CURVE('',#1079,(#1083,#1090),.PCURVE_S1.);
#1079 = LINE('',#1080,#1081);
#1080 = CARTESIAN_POINT('',(75.235966184511,-12.08426217371,6.));
#1081 = VECTOR('',#1082,1.);
#1082 = DIRECTION('',(0.965925826289,-0.258819045103,0.));
#1083 = PCURVE('',#592,#1084);
#1084 = DEFINITIONAL_REPRESENTATION('',(#1085),#1089);
#1085 = LINE('',#1086,#1087);
#1086 = CARTESIAN_POINT('',(16.151099831989,3.747480050343));
#1087 = VECTOR('',#1088,1.);
#1088 = DIRECTION('',(0.965925826289,-0.258819045103));
#1089 = ( GEOMETRIC_REPRESENTATION_CONTEXT(2) 
PARAMETRIC_REPRESENTATION_CONTEXT() REPRESENTATION_CONTEXT('2D SPACE',''
  ) );
#1090 = PCURVE('',#1091,#1096);
#1091 = PLANE('',#1092);
#1092 = AXIS2_PLACEMENT_3D('',#1093,#1094,#1095);
#1093 = CARTESIAN_POINT('',(75.235966184511,-12.08426217371,4.8));
#1094 = DIRECTION('',(0.258819045103,0.965925826289,0.));
#1095 = DIRECTION('',(0.965925826289,-0.258819045103,0.));
#1096 = DEFINITIONAL_REPRESENTATION('',(#1097),#1101);
#1097 = LINE('',#1098,#1099);
#1098 = CARTESIAN_POINT('',(0.,-1.2));
#1099 = VECTOR('',#1100,1.);
#1100 = DIRECTION('',(1.,0.));
#1101 = ( GEOMETRIC_REPRESENTATION_CONTEXT(2) 
PARAMETRIC_REPRESENTATION_CONTEXT() REPRESENTATION_CONTEXT('2D SPACE',''
  ) );
#1102 = ORIENTED_EDGE('',*,*,#1103,.T.);
#1103 = EDGE_CURVE('',#1076,#1104,#1106,.T.);
#1104 = VERTEX_POINT('',#1105);
#1105 = CARTESIAN_POINT('',(80.037855174308,-15.02736633933,6.));
#1106 = SURFACE_CURVE('',#1107,(#1112,#1123),.PCURVE_S1.);
#1107 = CIRCLE('',#1108,0.8);
#1108 = AXIS2_PLACEMENT_3D('',#1109,#1110,#1111);
#1109 = CARTESIAN_POINT('',(80.24491041039,-14.2546256783,6.));
#1110 = DIRECTION('',(0.,0.,-1.));
#1111 = DIRECTION('',(-0.965925826289,0.258819045103,0.));
#1112 = PCURVE('',#592,#1113);
#1113 = DEFINITIONAL_REPRESENTATION('',(#1114),#1122);
#1114 = ( BOUNDED_CURVE() B_SPLINE_CURVE(2,(#1115,#1116,#1117,#1118,
#1119,#1120,#1121),.UNSPECIFIED.,.T.,.F.) B_SPLINE_CURVE_WITH_KNOTS((1,2
    ,2,2,2,1),(-2.094395102393,0.,2.094395102393,4.188790204786,
6.28318530718,8.377580409573),.UNSPECIFIED.) CURVE() 
GEOMETRIC_REPRESENTATION_ITEM() RATIONAL_B_SPLINE_CURVE((1.,0.5,1.,0.5,
1.,0.5,1.)) REPRESENTATION_ITEM('') );
#1115 = CARTESIAN_POINT('',(20.387303396837,1.78417178184));
#1116 = CARTESIAN_POINT('',(20.745933585704,3.12259786782));
#1117 = CARTESIAN_POINT('',(21.725729482817,2.142801970707));
#1118 = CARTESIAN_POINT('',(22.70552537993,1.163006073594));
#1119 = CARTESIAN_POINT('',(21.36709929395,0.804375884727));
#1120 = CARTESIAN_POINT('',(20.028673207969,0.445745695859));
#1121 = CARTESIAN_POINT('',(20.387303396837,1.78417178184));
#1122 = ( GEOMETRIC_REPRESENTATION_CONTEXT(2) 
PARAMETRIC_REPRESENTATION_CONTEXT() REPRESENTATION_CONTEXT('2D SPACE',''
  ) );
#1123 = PCURVE('',#1124,#1129);
#1124 = CYLINDRICAL_SURFACE('',#1125,0.8);
#1125 = AXIS2_PLACEMENT_3D('',#1126,#1127,#1128);
#1126 = CARTESIAN_POINT('',(80.24491041039,-14.2546256783,4.8));
#1127 = DIRECTION('',(0.,0.,-1.));
#1128 = DIRECTION('',(-0.965925826289,0.258819045103,0.));
#1129 = DEFINITIONAL_REPRESENTATION('',(#1130),#1134);
#1130 = LINE('',#1131,#1132);
#1131 = CARTESIAN_POINT('',(0.,-1.2));
#1132 = VECTOR('',#1133,1.);
#1133 = DIRECTION('',(1.,0.));
#1134 = ( GEOMETRIC_REPRESENTATION_CONTEXT(2) 
PARAMETRIC_REPRESENTATION_CONTEXT() REPRESENTATION_CONTEXT('2D SPACE',''
  ) );
#1135 = ORIENTED_EDGE('',*,*,#1136,.T.);
#1136 = EDGE_CURVE('',#1104,#1137,#1139,.T.);
#1137 = VERTEX_POINT('',#1138);
#1138 = CARTESIAN_POINT('',(74.821855712347,-13.62974349577,6.));
#1139 = SURFACE_CURVE('',#1140,(#1144,#1151),.PCURVE_S1.);
#1140 = LINE('',#1141,#1142);
#1141 = CARTESIAN_POINT('',(80.037855174308,-15.02736633933,6.));
#1142 = VECTOR('',#1143,1.);
#1143 = DIRECTION('',(-0.965925826289,0.258819045103,0.));
#1144 = PCURVE('',#592,#1145);
#1145 = DEFINITIONAL_REPRESENTATION('',(#1146),#1150);
#1146 = LINE('',#1147,#1148);
#1147 = CARTESIAN_POINT('',(20.952988821786,0.804375884727));
#1148 = VECTOR('',#1149,1.);
#1149 = DIRECTION('',(-0.965925826289,0.258819045103));
#1150 = ( GEOMETRIC_REPRESENTATION_CONTEXT(2) 
PARAMETRIC_REPRESENTATION_CONTEXT() REPRESENTATION_CONTEXT('2D SPACE',''
  ) );
#1151 = PCURVE('',#1152,#1157);
#1152 = PLANE('',#1153);
#1153 = AXIS2_PLACEMENT_3D('',#1154,#1155,#1156);
#1154 = CARTESIAN_POINT('',(77.429855443327,-14.32855491755,4.8));
#1155 = DIRECTION('',(0.258819045103,0.965925826289,0.));
#1156 = DIRECTION('',(0.965925826289,-0.258819045103,0.));
#1157 = DEFINITIONAL_REPRESENTATION('',(#1158),#1162);
#1158 = LINE('',#1159,#1160);
#1159 = CARTESIAN_POINT('',(2.7,-1.2));
#1160 = VECTOR('',#1161,1.);
#1161 = DIRECTION('',(-1.,0.));
#1162 = ( GEOMETRIC_REPRESENTATION_CONTEXT(2) 
PARAMETRIC_REPRESENTATION_CONTEXT() REPRESENTATION_CONTEXT('2D SPACE',''
  ) );
#1163 = ORIENTED_EDGE('',*,*,#1164,.T.);
#1164 = EDGE_CURVE('',#1137,#1074,#1165,.T.);
#1165 = SURFACE_CURVE('',#1166,(#1171,#1182),.PCURVE_S1.);
#1166 = CIRCLE('',#1167,0.8);
#1167 = AXIS2_PLACEMENT_3D('',#1168,#1169,#1170);
#1168 = CARTESIAN_POINT('',(75.028910948429,-12.85700283474,6.));
#1169 = DIRECTION('',(0.,-0.,-1.));
#1170 = DIRECTION('',(0.965925826289,-0.258819045103,0.));
#1171 = PCURVE('',#592,#1172);
#1172 = DEFINITIONAL_REPRESENTATION('',(#1173),#1181);
#1173 = ( BOUNDED_CURVE() B_SPLINE_CURVE(2,(#1174,#1175,#1176,#1177,
#1178,#1179,#1180),.UNSPECIFIED.,.T.,.F.) B_SPLINE_CURVE_WITH_KNOTS((1,2
    ,2,2,2,1),(-2.094395102393,0.,2.094395102393,4.188790204786,
6.28318530718,8.377580409573),.UNSPECIFIED.) CURVE() 
GEOMETRIC_REPRESENTATION_ITEM() RATIONAL_B_SPLINE_CURVE((1.,0.5,1.,0.5,
1.,0.5,1.)) REPRESENTATION_ITEM('') );
#1174 = CARTESIAN_POINT('',(16.716785256938,2.76768415323));
#1175 = CARTESIAN_POINT('',(16.358155068071,1.429258067249));
#1176 = CARTESIAN_POINT('',(15.378359170958,2.409053964362));
#1177 = CARTESIAN_POINT('',(14.398563273844,3.388849861476));
#1178 = CARTESIAN_POINT('',(15.736989359825,3.747480050343));
#1179 = CARTESIAN_POINT('',(17.075415445805,4.10611023921));
#1180 = CARTESIAN_POINT('',(16.716785256938,2.76768415323));
#1181 = ( GEOMETRIC_REPRESENTATION_CONTEXT(2) 
PARAMETRIC_REPRESENTATION_CONTEXT() REPRESENTATION_CONTEXT('2D SPACE',''
  ) );
#1182 = PCURVE('',#1183,#1188);
#1183 = CYLINDRICAL_SURFACE('',#1184,0.8);
#1184 = AXIS2_PLACEMENT_3D('',#1185,#1186,#1187);
#1185 = CARTESIAN_POINT('',(75.028910948429,-12.85700283474,4.8));
#1186 = DIRECTION('',(0.,0.,-1.));
#1187 = DIRECTION('',(0.965925826289,-0.258819045103,0.));
#1188 = DEFINITIONAL_REPRESENTATION('',(#1189),#1193);
#1189 = LINE('',#1190,#1191);
#1190 = CARTESIAN_POINT('',(0.,-1.2));
#1191 = VECTOR('',#1192,1.);
#1192 = DIRECTION('',(1.,0.));
#1193 = ( GEOMETRIC_REPRESENTATION_CONTEXT(2) 
PARAMETRIC_REPRESENTATION_CONTEXT() REPRESENTATION_CONTEXT('2D SPACE',''
  ) );
#1194 = ADVANCED_FACE('',(#1195),#652,.T.);
#1195 = FACE_BOUND('',#1196,.T.);
#1196 = EDGE_LOOP('',(#1197,#1198,#1199,#1200));
#1197 = ORIENTED_EDGE('',*,*,#691,.F.);
#1198 = ORIENTED_EDGE('',*,*,#635,.F.);
#1199 = ORIENTED_EDGE('',*,*,#1046,.T.);
#1200 = ORIENTED_EDGE('',*,*,#763,.F.);
#1201 = ADVANCED_FACE('',(#1202),#831,.T.);
#1202 = FACE_BOUND('',#1203,.T.);
#1203 = EDGE_LOOP('',(#1204,#1205,#1206,#1207));
#1204 = ORIENTED_EDGE('',*,*,#848,.F.);
#1205 = ORIENTED_EDGE('',*,*,#817,.T.);
#1206 = ORIENTED_EDGE('',*,*,#925,.F.);
#1207 = ORIENTED_EDGE('',*,*,#1021,.F.);
#1208 = ADVANCED_FACE('',(#1209),#1091,.T.);
#1209 = FACE_BOUND('',#1210,.T.);
#1210 = EDGE_LOOP('',(#1211,#1234,#1235,#1258));
#1211 = ORIENTED_EDGE('',*,*,#1212,.T.);
#1212 = EDGE_CURVE('',#1213,#1074,#1215,.T.);
#1213 = VERTEX_POINT('',#1214);
#1214 = CARTESIAN_POINT('',(75.235966184511,-12.08426217371,4.8));
#1215 = SURFACE_CURVE('',#1216,(#1220,#1227),.PCURVE_S1.);
#1216 = LINE('',#1217,#1218);
#1217 = CARTESIAN_POINT('',(75.235966184511,-12.08426217371,4.8));
#1218 = VECTOR('',#1219,1.);
#1219 = DIRECTION('',(0.,0.,1.));
#1220 = PCURVE('',#1091,#1221);
#1221 = DEFINITIONAL_REPRESENTATION('',(#1222),#1226);
#1222 = LINE('',#1223,#1224);
#1223 = CARTESIAN_POINT('',(0.,0.));
#1224 = VECTOR('',#1225,1.);
#1225 = DIRECTION('',(0.,-1.));
#1226 = ( GEOMETRIC_REPRESENTATION_CONTEXT(2) 
PARAMETRIC_REPRESENTATION_CONTEXT() REPRESENTATION_CONTEXT('2D SPACE',''
  ) );
#1227 = PCURVE('',#1183,#1228);
#1228 = DEFINITIONAL_REPRESENTATION('',(#1229),#1233);
#1229 = LINE('',#1230,#1231);
#1230 = CARTESIAN_POINT('',(4.712388980385,0.));
#1231 = VECTOR('',#1232,1.);
#1232 = DIRECTION('',(0.,-1.));
#1233 = ( GEOMETRIC_REPRESENTATION_CONTEXT(2) 
PARAMETRIC_REPRESENTATION_CONTEXT() REPRESENTATION_CONTEXT('2D SPACE',''
  ) );
#1234 = ORIENTED_EDGE('',*,*,#1073,.T.);
#1235 = ORIENTED_EDGE('',*,*,#1236,.F.);
#1236 = EDGE_CURVE('',#1237,#1076,#1239,.T.);
#1237 = VERTEX_POINT('',#1238);
#1238 = CARTESIAN_POINT('',(80.451965646472,-13.48188501727,4.8));
#1239 = SURFACE_CURVE('',#1240,(#1244,#1251),.PCURVE_S1.);
#1240 = LINE('',#1241,#1242);
#1241 = CARTESIAN_POINT('',(80.451965646472,-13.48188501727,4.8));
#1242 = VECTOR('',#1243,1.);
#1243 = DIRECTION('',(0.,0.,1.));
#1244 = PCURVE('',#1091,#1245);
#1245 = DEFINITIONAL_REPRESENTATION('',(#1246),#1250);
#1246 = LINE('',#1247,#1248);
#1247 = CARTESIAN_POINT('',(5.4,0.));
#1248 = VECTOR('',#1249,1.);
#1249 = DIRECTION('',(0.,-1.));
#1250 = ( GEOMETRIC_REPRESENTATION_CONTEXT(2) 
PARAMETRIC_REPRESENTATION_CONTEXT() REPRESENTATION_CONTEXT('2D SPACE',''
  ) );
#1251 = PCURVE('',#1124,#1252);
#1252 = DEFINITIONAL_REPRESENTATION('',(#1253),#1257);
#1253 = LINE('',#1254,#1255);
#1254 = CARTESIAN_POINT('',(1.570796326795,0.));
#1255 = VECTOR('',#1256,1.);
#1256 = DIRECTION('',(0.,-1.));
#1257 = ( GEOMETRIC_REPRESENTATION_CONTEXT(2) 
PARAMETRIC_REPRESENTATION_CONTEXT() REPRESENTATION_CONTEXT('2D SPACE',''
  ) );
#1258 = ORIENTED_EDGE('',*,*,#1259,.T.);
#1259 = EDGE_CURVE('',#1237,#1213,#1260,.T.);
#1260 = SURFACE_CURVE('',#1261,(#1265,#1272),.PCURVE_S1.);
#1261 = LINE('',#1262,#1263);
#1262 = CARTESIAN_POINT('',(80.451965646472,-13.48188501727,4.8));
#1263 = VECTOR('',#1264,1.);
#1264 = DIRECTION('',(-0.965925826289,0.258819045103,0.));
#1265 = PCURVE('',#1091,#1266);
#1266 = DEFINITIONAL_REPRESENTATION('',(#1267),#1271);
#1267 = LINE('',#1268,#1269);
#1268 = CARTESIAN_POINT('',(5.4,0.));
#1269 = VECTOR('',#1270,1.);
#1270 = DIRECTION('',(-1.,0.));
#1271 = ( GEOMETRIC_REPRESENTATION_CONTEXT(2) 
PARAMETRIC_REPRESENTATION_CONTEXT() REPRESENTATION_CONTEXT('2D SPACE',''
  ) );
#1272 = PCURVE('',#1273,#1278);
#1273 = PLANE('',#1274);
#1274 = AXIS2_PLACEMENT_3D('',#1275,#1276,#1277);
#1275 = CARTESIAN_POINT('',(77.63691067941,-13.55581425652,4.8));
#1276 = DIRECTION('',(0.,0.,1.));
#1277 = DIRECTION('',(0.965925826289,-0.258819045103,0.));
#1278 = DEFINITIONAL_REPRESENTATION('',(#1279),#1283);
#1279 = LINE('',#1280,#1281);
#1280 = CARTESIAN_POINT('',(2.7,0.8));
#1281 = VECTOR('',#1282,1.);
#1282 = DIRECTION('',(-1.,0.));
#1283 = ( GEOMETRIC_REPRESENTATION_CONTEXT(2) 
PARAMETRIC_REPRESENTATION_CONTEXT() REPRESENTATION_CONTEXT('2D SPACE',''
  ) );
#1284 = ADVANCED_FACE('',(#1285),#1183,.T.);
#1285 = FACE_BOUND('',#1286,.T.);
#1286 = EDGE_LOOP('',(#1287,#1310,#1311,#1312));
#1287 = ORIENTED_EDGE('',*,*,#1288,.T.);
#1288 = EDGE_CURVE('',#1289,#1137,#1291,.T.);
#1289 = VERTEX_POINT('',#1290);
#1290 = CARTESIAN_POINT('',(74.821855712347,-13.62974349577,4.8));
#1291 = SURFACE_CURVE('',#1292,(#1296,#1303),.PCURVE_S1.);
#1292 = LINE('',#1293,#1294);
#1293 = CARTESIAN_POINT('',(74.821855712347,-13.62974349577,4.8));
#1294 = VECTOR('',#1295,1.);
#1295 = DIRECTION('',(0.,0.,1.));
#1296 = PCURVE('',#1183,#1297);
#1297 = DEFINITIONAL_REPRESENTATION('',(#1298),#1302);
#1298 = LINE('',#1299,#1300);
#1299 = CARTESIAN_POINT('',(1.570796326795,0.));
#1300 = VECTOR('',#1301,1.);
#1301 = DIRECTION('',(0.,-1.));
#1302 = ( GEOMETRIC_REPRESENTATION_CONTEXT(2) 
PARAMETRIC_REPRESENTATION_CONTEXT() REPRESENTATION_CONTEXT('2D SPACE',''
  ) );
#1303 = PCURVE('',#1152,#1304);
#1304 = DEFINITIONAL_REPRESENTATION('',(#1305),#1309);
#1305 = LINE('',#1306,#1307);
#1306 = CARTESIAN_POINT('',(-2.7,0.));
#1307 = VECTOR('',#1308,1.);
#1308 = DIRECTION('',(0.,-1.));
#1309 = ( GEOMETRIC_REPRESENTATION_CONTEXT(2) 
PARAMETRIC_REPRESENTATION_CONTEXT() REPRESENTATION_CONTEXT('2D SPACE',''
  ) );
#1310 = ORIENTED_EDGE('',*,*,#1164,.T.);
#1311 = ORIENTED_EDGE('',*,*,#1212,.F.);
#1312 = ORIENTED_EDGE('',*,*,#1313,.F.);
#1313 = EDGE_CURVE('',#1289,#1213,#1314,.T.);
#1314 = SURFACE_CURVE('',#1315,(#1320,#1327),.PCURVE_S1.);
#1315 = CIRCLE('',#1316,0.8);
#1316 = AXIS2_PLACEMENT_3D('',#1317,#1318,#1319);
#1317 = CARTESIAN_POINT('',(75.028910948429,-12.85700283474,4.8));
#1318 = DIRECTION('',(0.,-0.,-1.));
#1319 = DIRECTION('',(0.965925826289,-0.258819045103,0.));
#1320 = PCURVE('',#1183,#1321);
#1321 = DEFINITIONAL_REPRESENTATION('',(#1322),#1326);
#1322 = LINE('',#1323,#1324);
#1323 = CARTESIAN_POINT('',(0.,0.));
#1324 = VECTOR('',#1325,1.);
#1325 = DIRECTION('',(1.,0.));
#1326 = ( GEOMETRIC_REPRESENTATION_CONTEXT(2) 
PARAMETRIC_REPRESENTATION_CONTEXT() REPRESENTATION_CONTEXT('2D SPACE',''
  ) );
#1327 = PCURVE('',#1273,#1328);
#1328 = DEFINITIONAL_REPRESENTATION('',(#1329),#1337);
#1329 = ( BOUNDED_CURVE() B_SPLINE_CURVE(2,(#1330,#1331,#1332,#1333,
#1334,#1335,#1336),.UNSPECIFIED.,.T.,.F.) B_SPLINE_CURVE_WITH_KNOTS((1,2
    ,2,2,2,1),(-2.094395102393,0.,2.094395102393,4.188790204786,
6.28318530718,8.377580409573),.UNSPECIFIED.) CURVE() 
GEOMETRIC_REPRESENTATION_ITEM() RATIONAL_B_SPLINE_CURVE((1.,0.5,1.,0.5,
1.,0.5,1.)) REPRESENTATION_ITEM('') );
#1330 = CARTESIAN_POINT('',(-1.9,0.));
#1331 = CARTESIAN_POINT('',(-1.9,-1.385640646055));
#1332 = CARTESIAN_POINT('',(-3.1,-0.692820323028));
#1333 = CARTESIAN_POINT('',(-4.3,-1.959434878636E-16));
#1334 = CARTESIAN_POINT('',(-3.1,0.692820323028));
#1335 = CARTESIAN_POINT('',(-1.9,1.385640646055));
#1336 = CARTESIAN_POINT('',(-1.9,0.));
#1337 = ( GEOMETRIC_REPRESENTATION_CONTEXT(2) 
PARAMETRIC_REPRESENTATION_CONTEXT() REPRESENTATION_CONTEXT('2D SPACE',''
  ) );
#1338 = ADVANCED_FACE('',(#1339),#1152,.F.);
#1339 = FACE_BOUND('',#1340,.F.);
#1340 = EDGE_LOOP('',(#1341,#1364,#1385,#1386));
#1341 = ORIENTED_EDGE('',*,*,#1342,.F.);
#1342 = EDGE_CURVE('',#1343,#1104,#1345,.T.);
#1343 = VERTEX_POINT('',#1344);
#1344 = CARTESIAN_POINT('',(80.037855174308,-15.02736633933,4.8));
#1345 = SURFACE_CURVE('',#1346,(#1350,#1357),.PCURVE_S1.);
#1346 = LINE('',#1347,#1348);
#1347 = CARTESIAN_POINT('',(80.037855174308,-15.02736633933,4.8));
#1348 = VECTOR('',#1349,1.);
#1349 = DIRECTION('',(0.,0.,1.));
#1350 = PCURVE('',#1152,#1351);
#1351 = DEFINITIONAL_REPRESENTATION('',(#1352),#1356);
#1352 = LINE('',#1353,#1354);
#1353 = CARTESIAN_POINT('',(2.7,0.));
#1354 = VECTOR('',#1355,1.);
#1355 = DIRECTION('',(0.,-1.));
#1356 = ( GEOMETRIC_REPRESENTATION_CONTEXT(2) 
PARAMETRIC_REPRESENTATION_CONTEXT() REPRESENTATION_CONTEXT('2D SPACE',''
  ) );
#1357 = PCURVE('',#1124,#1358);
#1358 = DEFINITIONAL_REPRESENTATION('',(#1359),#1363);
#1359 = LINE('',#1360,#1361);
#1360 = CARTESIAN_POINT('',(4.712388980385,0.));
#1361 = VECTOR('',#1362,1.);
#1362 = DIRECTION('',(0.,-1.));
#1363 = ( GEOMETRIC_REPRESENTATION_CONTEXT(2) 
PARAMETRIC_REPRESENTATION_CONTEXT() REPRESENTATION_CONTEXT('2D SPACE',''
  ) );
#1364 = ORIENTED_EDGE('',*,*,#1365,.F.);
#1365 = EDGE_CURVE('',#1289,#1343,#1366,.T.);
#1366 = SURFACE_CURVE('',#1367,(#1371,#1378),.PCURVE_S1.);
#1367 = LINE('',#1368,#1369);
#1368 = CARTESIAN_POINT('',(74.821855712347,-13.62974349577,4.8));
#1369 = VECTOR('',#1370,1.);
#1370 = DIRECTION('',(0.965925826289,-0.258819045103,0.));
#1371 = PCURVE('',#1152,#1372);
#1372 = DEFINITIONAL_REPRESENTATION('',(#1373),#1377);
#1373 = LINE('',#1374,#1375);
#1374 = CARTESIAN_POINT('',(-2.7,0.));
#1375 = VECTOR('',#1376,1.);
#1376 = DIRECTION('',(1.,0.));
#1377 = ( GEOMETRIC_REPRESENTATION_CONTEXT(2) 
PARAMETRIC_REPRESENTATION_CONTEXT() REPRESENTATION_CONTEXT('2D SPACE',''
  ) );
#1378 = PCURVE('',#1273,#1379);
#1379 = DEFINITIONAL_REPRESENTATION('',(#1380),#1384);
#1380 = LINE('',#1381,#1382);
#1381 = CARTESIAN_POINT('',(-2.7,-0.8));
#1382 = VECTOR('',#1383,1.);
#1383 = DIRECTION('',(1.,0.));
#1384 = ( GEOMETRIC_REPRESENTATION_CONTEXT(2) 
PARAMETRIC_REPRESENTATION_CONTEXT() REPRESENTATION_CONTEXT('2D SPACE',''
  ) );
#1385 = ORIENTED_EDGE('',*,*,#1288,.T.);
#1386 = ORIENTED_EDGE('',*,*,#1136,.F.);
#1387 = ADVANCED_FACE('',(#1388),#1124,.T.);
#1388 = FACE_BOUND('',#1389,.T.);
#1389 = EDGE_LOOP('',(#1390,#1391,#1392,#1393));
#1390 = ORIENTED_EDGE('',*,*,#1236,.T.);
#1391 = ORIENTED_EDGE('',*,*,#1103,.T.);
#1392 = ORIENTED_EDGE('',*,*,#1342,.F.);
#1393 = ORIENTED_EDGE('',*,*,#1394,.F.);
#1394 = EDGE_CURVE('',#1237,#1343,#1395,.T.);
#1395 = SURFACE_CURVE('',#1396,(#1401,#1408),.PCURVE_S1.);
#1396 = CIRCLE('',#1397,0.8);
#1397 = AXIS2_PLACEMENT_3D('',#1398,#1399,#1400);
#1398 = CARTESIAN_POINT('',(80.24491041039,-14.2546256783,4.8));
#1399 = DIRECTION('',(0.,0.,-1.));
#1400 = DIRECTION('',(-0.965925826289,0.258819045103,0.));
#1401 = PCURVE('',#1124,#1402);
#1402 = DEFINITIONAL_REPRESENTATION('',(#1403),#1407);
#1403 = LINE('',#1404,#1405);
#1404 = CARTESIAN_POINT('',(0.,0.));
#1405 = VECTOR('',#1406,1.);
#1406 = DIRECTION('',(1.,0.));
#1407 = ( GEOMETRIC_REPRESENTATION_CONTEXT(2) 
PARAMETRIC_REPRESENTATION_CONTEXT() REPRESENTATION_CONTEXT('2D SPACE',''
  ) );
#1408 = PCURVE('',#1273,#1409);
#1409 = DEFINITIONAL_REPRESENTATION('',(#1410),#1418);
#1410 = ( BOUNDED_CURVE() B_SPLINE_CURVE(2,(#1411,#1412,#1413,#1414,
#1415,#1416,#1417),.UNSPECIFIED.,.T.,.F.) B_SPLINE_CURVE_WITH_KNOTS((1,2
    ,2,2,2,1),(-2.094395102393,0.,2.094395102393,4.188790204786,
6.28318530718,8.377580409573),.UNSPECIFIED.) CURVE() 
GEOMETRIC_REPRESENTATION_ITEM() RATIONAL_B_SPLINE_CURVE((1.,0.5,1.,0.5,
1.,0.5,1.)) REPRESENTATION_ITEM('') );
#1411 = CARTESIAN_POINT('',(1.9,0.));
#1412 = CARTESIAN_POINT('',(1.9,1.385640646055));
#1413 = CARTESIAN_POINT('',(3.1,0.692820323028));
#1414 = CARTESIAN_POINT('',(4.3,1.959434878636E-16));
#1415 = CARTESIAN_POINT('',(3.1,-0.692820323028));
#1416 = CARTESIAN_POINT('',(1.9,-1.385640646055));
#1417 = CARTESIAN_POINT('',(1.9,0.));
#1418 = ( GEOMETRIC_REPRESENTATION_CONTEXT(2) 
PARAMETRIC_REPRESENTATION_CONTEXT() REPRESENTATION_CONTEXT('2D SPACE',''
  ) );
#1419 = ADVANCED_FACE('',(#1420),#1273,.F.);
#1420 = FACE_BOUND('',#1421,.T.);
#1421 = EDGE_LOOP('',(#1422,#1423,#1424,#1425));
#1422 = ORIENTED_EDGE('',*,*,#1394,.T.);
#1423 = ORIENTED_EDGE('',*,*,#1365,.F.);
#1424 = ORIENTED_EDGE('',*,*,#1313,.T.);
#1425 = ORIENTED_EDGE('',*,*,#1259,.F.);
#1426 = ( GEOMETRIC_REPRESENTATION_CONTEXT(3) 
GLOBAL_UNCERTAINTY_ASSIGNED_CONTEXT((#1430)) 
GLOBAL_UNIT_ASSIGNED_CONTEXT((#1427,#1428,#1429)) REPRESENTATION_CONTEXT
('Context #1','3D Context with UNIT and UNCERTAINTY') );
#1427 = ( LENGTH_UNIT() NAMED_UNIT(*) SI_UNIT(.MILLI.,.METRE.) );
#1428 = ( NAMED_UNIT(*) PLANE_ANGLE_UNIT() SI_UNIT($,.RADIAN.) );
#1429 = ( NAMED_UNIT(*) SI_UNIT($,.STERADIAN.) SOLID_ANGLE_UNIT() );
#1430 = UNCERTAINTY_MEASURE_WITH_UNIT(LENGTH_MEASURE(1.E-07),#1427,
  'distance_accuracy_value','confusion accuracy');
#1431 = CONTEXT_DEPENDENT_SHAPE_REPRESENTATION(#1432,#1434);
#1432 = ( REPRESENTATION_RELATIONSHIP('','',#32,#10) 
REPRESENTATION_RELATIONSHIP_WITH_TRANSFORMATION(#1433) 
SHAPE_REPRESENTATION_RELATIONSHIP() );
#1433 = ITEM_DEFINED_TRANSFORMATION('','',#11,#15);
#1434 = PRODUCT_DEFINITION_SHAPE('Placement','Placement of an item',
  #1435);
#1435 = NEXT_ASSEMBLY_USAGE_OCCURRENCE('75','=>[0:1:1:2]','',#5,#27,$);
#1436 = PRODUCT_RELATED_PRODUCT_CATEGORY('part',$,(#29));
#1437 = MECHANICAL_DESIGN_GEOMETRIC_PRESENTATION_REPRESENTATION('',(
    #1438),#1426);
#1438 = STYLED_ITEM('color',(#1439),#33);
#1439 = PRESENTATION_STYLE_ASSIGNMENT((#1440));
#1440 = SURFACE_STYLE_USAGE(.BOTH.,#1441);
#1441 = SURFACE_SIDE_STYLE('',(#1442));
#1442 = SURFACE_STYLE_FILL_AREA(#1443);
#1443 = FILL_AREA_STYLE('',(#1444));
#1444 = FILL_AREA_STYLE_COLOUR('',#1445);
#1445 = COLOUR_RGB('',1.,0.830000008529,9.999999991362E-02);

#1446=DESCRIPTIVE_REPRESENTATION_ITEM('cadgen:generator','cadgen');
#1447=REPRESENTATION('cadgen:generator',(#1446),#19);
#1448=PROPERTY_DEFINITION('cadgen metadata','cadgen:generator',#5);
#1449=PROPERTY_DEFINITION_REPRESENTATION(#1448,#1447);
#1450=DESCRIPTIVE_REPRESENTATION_ITEM('cadgen:entryKind','part');
#1451=REPRESENTATION('cadgen:entryKind',(#1450),#19);
#1452=PROPERTY_DEFINITION('cadgen metadata','cadgen:entryKind',#5);
#1453=PROPERTY_DEFINITION_REPRESENTATION(#1452,#1451);
#1454=DESCRIPTIVE_REPRESENTATION_ITEM('cadgen:sourcePath','part_lane_05_yellow.step.py');
#1455=REPRESENTATION('cadgen:sourcePath',(#1454),#19);
#1456=PROPERTY_DEFINITION('cadgen metadata','cadgen:sourcePath',#5);
#1457=PROPERTY_DEFINITION_REPRESENTATION(#1456,#1455);
#1458=DESCRIPTIVE_REPRESENTATION_ITEM('cadgen:sourceHash','fe79278a30972f61f7bc710b85331bb86c4b5b5fee8c2e340cfd14a3c171949e');
#1459=REPRESENTATION('cadgen:sourceHash',(#1458),#19);
#1460=PROPERTY_DEFINITION('cadgen metadata','cadgen:sourceHash',#5);
#1461=PROPERTY_DEFINITION_REPRESENTATION(#1460,#1459);
ENDSEC;
END-ISO-10303-21;
