ISO-10303-21;
HEADER;
FILE_DESCRIPTION(('Open CASCADE Model'),'2;1');
FILE_NAME('lane_06_cocoa_brown','1970-01-01T00:00:00',('Author'),(
    'Open CASCADE'),'Open CASCADE STEP processor 7.9','cadgen','Unknown'
  );
FILE_SCHEMA(('AUTOMOTIVE_DESIGN { 1 0 10303 214 1 1 1 1 }'));
ENDSEC;
DATA;
#1 = APPLICATION_PROTOCOL_DEFINITION('international standard',
  'automotive_design',2000,#2);
#2 = APPLICATION_CONTEXT(
  'core data for automotive mechanical design processes');
#3 = SHAPE_DEFINITION_REPRESENTATION(#4,#10);
#4 = PRODUCT_DEFINITION_SHAPE('','',#5);
#5 = PRODUCT_DEFINITION('design','',#6,#9);
#6 = PRODUCT_DEFINITION_FORMATION('','',#7);
#7 = PRODUCT('=>[0:1:1:2]','=>[0:1:1:2]','',(#8));
#8 = PRODUCT_CONTEXT('',#2,'mechanical');
#9 = PRODUCT_DEFINITION_CONTEXT('part definition',#2,'design');
#10 = SHAPE_REPRESENTATION('',(#11,#15),#19);
#11 = AXIS2_PLACEMENT_3D('',#12,#13,#14);
#12 = CARTESIAN_POINT('',(0.,0.,0.));
#13 = DIRECTION('',(0.,0.,1.));
#14 = DIRECTION('',(1.,0.,-0.));
#15 = AXIS2_PLACEMENT_3D('',#16,#17,#18);
#16 = CARTESIAN_POINT('',(0.,0.,8.8));
#17 = DIRECTION('',(0.,-1.224646799147E-16,-1.));
#18 = DIRECTION('',(1.,0.,0.));
#19 = ( GEOMETRIC_REPRESENTATION_CONTEXT(3) 
GLOBAL_UNCERTAINTY_ASSIGNED_CONTEXT((#23)) GLOBAL_UNIT_ASSIGNED_CONTEXT(
(#20,#21,#22)) REPRESENTATION_CONTEXT('Context #1',
  '3D Context with UNIT and UNCERTAINTY') );
#20 = ( LENGTH_UNIT() NAMED_UNIT(*) SI_UNIT(.MILLI.,.METRE.) );
#21 = ( NAMED_UNIT(*) PLANE_ANGLE_UNIT() SI_UNIT($,.RADIAN.) );
#22 = ( NAMED_UNIT(*) SI_UNIT($,.STERADIAN.) SOLID_ANGLE_UNIT() );
#23 = UNCERTAINTY_MEASURE_WITH_UNIT(LENGTH_MEASURE(1.E-07),#20,
  'distance_accuracy_value','confusion accuracy');
#24 = PRODUCT_RELATED_PRODUCT_CATEGORY('part',$,(#7));
#25 = SHAPE_DEFINITION_REPRESENTATION(#26,#32);
#26 = PRODUCT_DEFINITION_SHAPE('','',#27);
#27 = PRODUCT_DEFINITION('design','',#28,#31);
#28 = PRODUCT_DEFINITION_FORMATION('','',#29);
#29 = PRODUCT('lane_06_cocoa_brown','lane_06_cocoa_brown','',(#30));
#30 = PRODUCT_CONTEXT('',#2,'mechanical');
#31 = PRODUCT_DEFINITION_CONTEXT('part definition',#2,'design');
#32 = ADVANCED_BREP_SHAPE_REPRESENTATION('',(#11,#33),#1515);
#33 = MANIFOLD_SOLID_BREP('',#34);
#34 = CLOSED_SHELL('',(#35,#155,#306,#489,#625,#705,#757,#832,#864,#986,
    #1100,#1127,#1283,#1290,#1297,#1373,#1427,#1476,#1508));
#35 = ADVANCED_FACE('',(#36),#50,.F.);
#36 = FACE_BOUND('',#37,.F.);
#37 = EDGE_LOOP('',(#38,#73,#101,#129));
#38 = ORIENTED_EDGE('',*,*,#39,.F.);
#39 = EDGE_CURVE('',#40,#42,#44,.T.);
#40 = VERTEX_POINT('',#41);
#41 = CARTESIAN_POINT('',(89.151441224754,-11.18226397243,8.));
#42 = VERTEX_POINT('',#43);
#43 = CARTESIAN_POINT('',(89.151441224754,-11.18226397243,8.65));
#44 = SURFACE_CURVE('',#45,(#49,#61),.PCURVE_S1.);
#45 = LINE('',#46,#47);
#46 = CARTESIAN_POINT('',(89.151441224754,-11.18226397243,6.));
#47 = VECTOR('',#48,1.);
#48 = DIRECTION('',(0.,0.,1.));
#49 = PCURVE('',#50,#55);
#50 = PLANE('',#51);
#51 = AXIS2_PLACEMENT_3D('',#52,#53,#54);
#52 = CARTESIAN_POINT('',(26.339418904298,-2.912904355432,6.));
#53 = DIRECTION('',(0.13052619222,0.991444861374,-0.));
#54 = DIRECTION('',(0.991444861374,-0.13052619222,0.));
#55 = DEFINITIONAL_REPRESENTATION('',(#56),#60);
#56 = LINE('',#57,#58);
#57 = CARTESIAN_POINT('',(63.354024785019,0.));
#58 = VECTOR('',#59,1.);
#59 = DIRECTION('',(0.,-1.));
#60 = ( GEOMETRIC_REPRESENTATION_CONTEXT(2) 
PARAMETRIC_REPRESENTATION_CONTEXT() REPRESENTATION_CONTEXT('2D SPACE',''
  ) );
#61 = PCURVE('',#62,#67);
#62 = CYLINDRICAL_SURFACE('',#63,89.850000000002);
#63 = AXIS2_PLACEMENT_3D('',#64,#65,#66);
#64 = CARTESIAN_POINT('',(-2.138450340197E-12,-6.526639129434E-15,6.));
#65 = DIRECTION('',(-0.,0.,-1.));
#66 = DIRECTION('',(0.992225277961,-0.124454802142,-0.));
#67 = DEFINITIONAL_REPRESENTATION('',(#68),#72);
#68 = LINE('',#69,#70);
#69 = CARTESIAN_POINT('',(-0.,0.));
#70 = VECTOR('',#71,1.);
#71 = DIRECTION('',(-0.,-1.));
#72 = ( GEOMETRIC_REPRESENTATION_CONTEXT(2) 
PARAMETRIC_REPRESENTATION_CONTEXT() REPRESENTATION_CONTEXT('2D SPACE',''
  ) );
#73 = ORIENTED_EDGE('',*,*,#74,.F.);
#74 = EDGE_CURVE('',#75,#40,#77,.T.);
#75 = VERTEX_POINT('',#76);
#76 = CARTESIAN_POINT('',(26.339418904298,-2.912904355432,8.));
#77 = SURFACE_CURVE('',#78,(#82,#89),.PCURVE_S1.);
#78 = LINE('',#79,#80);
#79 = CARTESIAN_POINT('',(7.178940572103E-02,0.545294673756,8.));
#80 = VECTOR('',#81,1.);
#81 = DIRECTION('',(0.991444861374,-0.13052619222,0.));
#82 = PCURVE('',#50,#83);
#83 = DEFINITIONAL_REPRESENTATION('',(#84),#88);
#84 = LINE('',#85,#86);
#85 = CARTESIAN_POINT('',(-26.49429183805,-2.));
#86 = VECTOR('',#87,1.);
#87 = DIRECTION('',(1.,0.));
#88 = ( GEOMETRIC_REPRESENTATION_CONTEXT(2) 
PARAMETRIC_REPRESENTATION_CONTEXT() REPRESENTATION_CONTEXT('2D SPACE',''
  ) );
#89 = PCURVE('',#90,#95);
#90 = PLANE('',#91);
#91 = AXIS2_PLACEMENT_3D('',#92,#93,#94);
#92 = CARTESIAN_POINT('',(0.150105121053,1.14016159058,6.));
#93 = DIRECTION('',(-0.125021417818,-0.949631948571,-0.287347885566));
#94 = DIRECTION('',(-3.750642534546E-02,-0.284889584571,0.957826285221)
  );
#95 = DEFINITIONAL_REPRESENTATION('',(#96),#100);
#96 = LINE('',#97,#98);
#97 = CARTESIAN_POINT('',(2.088061301782,0.));
#98 = VECTOR('',#99,1.);
#99 = DIRECTION('',(0.,-1.));
#100 = ( GEOMETRIC_REPRESENTATION_CONTEXT(2) 
PARAMETRIC_REPRESENTATION_CONTEXT() REPRESENTATION_CONTEXT('2D SPACE',''
  ) );
#101 = ORIENTED_EDGE('',*,*,#102,.T.);
#102 = EDGE_CURVE('',#75,#103,#105,.T.);
#103 = VERTEX_POINT('',#104);
#104 = CARTESIAN_POINT('',(26.339418904298,-2.912904355432,8.65));
#105 = SURFACE_CURVE('',#106,(#110,#117),.PCURVE_S1.);
#106 = LINE('',#107,#108);
#107 = CARTESIAN_POINT('',(26.339418904298,-2.912904355432,6.));
#108 = VECTOR('',#109,1.);
#109 = DIRECTION('',(0.,0.,1.));
#110 = PCURVE('',#50,#111);
#111 = DEFINITIONAL_REPRESENTATION('',(#112),#116);
#112 = LINE('',#113,#114);
#113 = CARTESIAN_POINT('',(0.,0.));
#114 = VECTOR('',#115,1.);
#115 = DIRECTION('',(0.,-1.));
#116 = ( GEOMETRIC_REPRESENTATION_CONTEXT(2) 
PARAMETRIC_REPRESENTATION_CONTEXT() REPRESENTATION_CONTEXT('2D SPACE',''
  ) );
#117 = PCURVE('',#118,#123);
#118 = CYLINDRICAL_SURFACE('',#119,26.5);
#119 = AXIS2_PLACEMENT_3D('',#120,#121,#122);
#120 = CARTESIAN_POINT('',(3.153257978834E-13,-1.685031811131E-15,6.));
#121 = DIRECTION('',(0.,0.,-1.));
#122 = DIRECTION('',(0.995486817318,9.48999291152E-02,0.));
#123 = DEFINITIONAL_REPRESENTATION('',(#124),#128);
#124 = LINE('',#125,#126);
#125 = CARTESIAN_POINT('',(0.205186440839,0.));
#126 = VECTOR('',#127,1.);
#127 = DIRECTION('',(0.,-1.));
#128 = ( GEOMETRIC_REPRESENTATION_CONTEXT(2) 
PARAMETRIC_REPRESENTATION_CONTEXT() REPRESENTATION_CONTEXT('2D SPACE',''
  ) );
#129 = ORIENTED_EDGE('',*,*,#130,.T.);
#130 = EDGE_CURVE('',#103,#42,#131,.T.);
#131 = SURFACE_CURVE('',#132,(#136,#143),.PCURVE_S1.);
#132 = LINE('',#133,#134);
#133 = CARTESIAN_POINT('',(26.339418904298,-2.912904355432,8.65));
#134 = VECTOR('',#135,1.);
#135 = DIRECTION('',(0.991444861374,-0.13052619222,0.));
#136 = PCURVE('',#50,#137);
#137 = DEFINITIONAL_REPRESENTATION('',(#138),#142);
#138 = LINE('',#139,#140);
#139 = CARTESIAN_POINT('',(-3.552713678801E-15,-2.65));
#140 = VECTOR('',#141,1.);
#141 = DIRECTION('',(1.,0.));
#142 = ( GEOMETRIC_REPRESENTATION_CONTEXT(2) 
PARAMETRIC_REPRESENTATION_CONTEXT() REPRESENTATION_CONTEXT('2D SPACE',''
  ) );
#143 = PCURVE('',#144,#149);
#144 = CYLINDRICAL_SURFACE('',#145,0.15);
#145 = AXIS2_PLACEMENT_3D('',#146,#147,#148);
#146 = CARTESIAN_POINT('',(26.358997833131,-2.764187626226,8.65));
#147 = DIRECTION('',(0.991444861374,-0.13052619222,0.));
#148 = DIRECTION('',(-0.13052619222,-0.991444861374,0.));
#149 = DEFINITIONAL_REPRESENTATION('',(#150),#154);
#150 = LINE('',#151,#152);
#151 = CARTESIAN_POINT('',(-0.,0.));
#152 = VECTOR('',#153,1.);
#153 = DIRECTION('',(-0.,1.));
#154 = ( GEOMETRIC_REPRESENTATION_CONTEXT(2) 
PARAMETRIC_REPRESENTATION_CONTEXT() REPRESENTATION_CONTEXT('2D SPACE',''
  ) );
#155 = ADVANCED_FACE('',(#156),#62,.T.);
#156 = FACE_BOUND('',#157,.F.);
#157 = EDGE_LOOP('',(#158,#159,#188,#216,#248,#281));
#158 = ORIENTED_EDGE('',*,*,#39,.T.);
#159 = ORIENTED_EDGE('',*,*,#160,.T.);
#160 = EDGE_CURVE('',#42,#161,#163,.T.);
#161 = VERTEX_POINT('',#162);
#162 = CARTESIAN_POINT('',(89.20034124468,10.785250197959,8.65));
#163 = SURFACE_CURVE('',#164,(#169,#176),.PCURVE_S1.);
#164 = CIRCLE('',#165,89.850000000002);
#165 = AXIS2_PLACEMENT_3D('',#166,#167,#168);
#166 = CARTESIAN_POINT('',(-2.138733634638E-12,-6.522560269673E-15,8.65)
  );
#167 = DIRECTION('',(0.,0.,1.));
#168 = DIRECTION('',(0.992225277961,-0.124454802142,0.));
#169 = PCURVE('',#62,#170);
#170 = DEFINITIONAL_REPRESENTATION('',(#171),#175);
#171 = LINE('',#172,#173);
#172 = CARTESIAN_POINT('',(-0.,-2.65));
#173 = VECTOR('',#174,1.);
#174 = DIRECTION('',(-1.,0.));
#175 = ( GEOMETRIC_REPRESENTATION_CONTEXT(2) 
PARAMETRIC_REPRESENTATION_CONTEXT() REPRESENTATION_CONTEXT('2D SPACE',''
  ) );
#176 = PCURVE('',#177,#182);
#177 = TOROIDAL_SURFACE('',#178,89.700000000002,0.15);
#178 = AXIS2_PLACEMENT_3D('',#179,#180,#181);
#179 = CARTESIAN_POINT('',(-2.138733634638E-12,-6.522560269673E-15,8.65)
  );
#180 = DIRECTION('',(-0.,-0.,-1.));
#181 = DIRECTION('',(0.992225277961,-0.124454802142,0.));
#182 = DEFINITIONAL_REPRESENTATION('',(#183),#187);
#183 = LINE('',#184,#185);
#184 = CARTESIAN_POINT('',(-0.,6.28318530718));
#185 = VECTOR('',#186,1.);
#186 = DIRECTION('',(-1.,0.));
#187 = ( GEOMETRIC_REPRESENTATION_CONTEXT(2) 
PARAMETRIC_REPRESENTATION_CONTEXT() REPRESENTATION_CONTEXT('2D SPACE',''
  ) );
#188 = ORIENTED_EDGE('',*,*,#189,.F.);
#189 = EDGE_CURVE('',#190,#161,#192,.T.);
#190 = VERTEX_POINT('',#191);
#191 = CARTESIAN_POINT('',(89.20034124468,10.785250197959,8.));
#192 = SURFACE_CURVE('',#193,(#197,#204),.PCURVE_S1.);
#193 = LINE('',#194,#195);
#194 = CARTESIAN_POINT('',(89.20034124468,10.785250197959,6.));
#195 = VECTOR('',#196,1.);
#196 = DIRECTION('',(0.,0.,1.));
#197 = PCURVE('',#62,#198);
#198 = DEFINITIONAL_REPRESENTATION('',(#199),#203);
#199 = LINE('',#200,#201);
#200 = CARTESIAN_POINT('',(-0.245104661743,0.));
#201 = VECTOR('',#202,1.);
#202 = DIRECTION('',(-0.,-1.));
#203 = ( GEOMETRIC_REPRESENTATION_CONTEXT(2) 
PARAMETRIC_REPRESENTATION_CONTEXT() REPRESENTATION_CONTEXT('2D SPACE',''
  ) );
#204 = PCURVE('',#205,#210);
#205 = PLANE('',#206);
#206 = AXIS2_PLACEMENT_3D('',#207,#208,#209);
#207 = CARTESIAN_POINT('',(89.20034124468,10.785250197959,6.));
#208 = DIRECTION('',(0.13052619222,-0.991444861374,0.));
#209 = DIRECTION('',(-0.991444861374,-0.13052619222,0.));
#210 = DEFINITIONAL_REPRESENTATION('',(#211),#215);
#211 = LINE('',#212,#213);
#212 = CARTESIAN_POINT('',(-1.432113997739E-14,0.));
#213 = VECTOR('',#214,1.);
#214 = DIRECTION('',(0.,-1.));
#215 = ( GEOMETRIC_REPRESENTATION_CONTEXT(2) 
PARAMETRIC_REPRESENTATION_CONTEXT() REPRESENTATION_CONTEXT('2D SPACE',''
  ) );
#216 = ORIENTED_EDGE('',*,*,#217,.T.);
#217 = EDGE_CURVE('',#190,#218,#220,.T.);
#218 = VERTEX_POINT('',#219);
#219 = CARTESIAN_POINT('',(89.207523952229,10.725678081712,7.8));
#220 = SURFACE_CURVE('',#221,(#226,#236),.PCURVE_S1.);
#221 = ELLIPSE('',#222,312.68717994187,89.850000000002);
#222 = AXIS2_PLACEMENT_3D('',#223,#224,#225);
#223 = CARTESIAN_POINT('',(-2.138450340197E-12,-6.526639129434E-15,
    11.166666666668));
#224 = DIRECTION('',(-0.125021417818,0.949631948571,-0.287347885566));
#225 = DIRECTION('',(3.750642534546E-02,-0.284889584571,-0.957826285221)
  );
#226 = PCURVE('',#62,#227);
#227 = DEFINITIONAL_REPRESENTATION('',(#228),#235);
#228 = B_SPLINE_CURVE_WITH_KNOTS('',5,(#229,#230,#231,#232,#233,#234),
  .UNSPECIFIED.,.F.,.F.,(6,6),(4.722962354912,4.723630176285),
  .PIECEWISE_BEZIER_KNOTS.);
#229 = CARTESIAN_POINT('',(-0.245104661743,-2.));
#230 = CARTESIAN_POINT('',(-0.244971097468,-1.959999735798));
#231 = CARTESIAN_POINT('',(-0.244837533194,-1.919999542211));
#232 = CARTESIAN_POINT('',(-0.244703968919,-1.879999420723));
#233 = CARTESIAN_POINT('',(-0.244570404644,-1.839999372825));
#234 = CARTESIAN_POINT('',(-0.24443684037,-1.7999994));
#235 = ( GEOMETRIC_REPRESENTATION_CONTEXT(2) 
PARAMETRIC_REPRESENTATION_CONTEXT() REPRESENTATION_CONTEXT('2D SPACE',''
  ) );
#236 = PCURVE('',#237,#242);
#237 = PLANE('',#238);
#238 = AXIS2_PLACEMENT_3D('',#239,#240,#241);
#239 = CARTESIAN_POINT('',(0.123999882609,-0.941872618305,8.));
#240 = DIRECTION('',(-0.125021417818,0.949631948571,-0.287347885566));
#241 = DIRECTION('',(3.750642534546E-02,-0.284889584571,-0.957826285221)
  );
#242 = DEFINITIONAL_REPRESENTATION('',(#243),#247);
#243 = ELLIPSE('',#244,312.68717994187,89.850000000002);
#244 = AXIS2_PLACEMENT_2D('',#245,#246);
#245 = CARTESIAN_POINT('',(-3.306097061156,2.121000653186E-12));
#246 = DIRECTION('',(1.,7.637067409577E-18));
#247 = ( GEOMETRIC_REPRESENTATION_CONTEXT(2) 
PARAMETRIC_REPRESENTATION_CONTEXT() REPRESENTATION_CONTEXT('2D SPACE',''
  ) );
#248 = ORIENTED_EDGE('',*,*,#249,.T.);
#249 = EDGE_CURVE('',#218,#250,#252,.T.);
#250 = VERTEX_POINT('',#251);
#251 = CARTESIAN_POINT('',(89.158888789587,-11.12272672531,7.8));
#252 = SURFACE_CURVE('',#253,(#258,#265),.PCURVE_S1.);
#253 = CIRCLE('',#254,89.850000000002);
#254 = AXIS2_PLACEMENT_3D('',#255,#256,#257);
#255 = CARTESIAN_POINT('',(-2.138450340197E-12,-6.526639129434E-15,7.8)
  );
#256 = DIRECTION('',(-0.,0.,-1.));
#257 = DIRECTION('',(0.992225277961,-0.124454802142,-0.));
#258 = PCURVE('',#62,#259);
#259 = DEFINITIONAL_REPRESENTATION('',(#260),#264);
#260 = LINE('',#261,#262);
#261 = CARTESIAN_POINT('',(-6.28318530718,-1.8));
#262 = VECTOR('',#263,1.);
#263 = DIRECTION('',(1.,-0.));
#264 = ( GEOMETRIC_REPRESENTATION_CONTEXT(2) 
PARAMETRIC_REPRESENTATION_CONTEXT() REPRESENTATION_CONTEXT('2D SPACE',''
  ) );
#265 = PCURVE('',#266,#271);
#266 = PLANE('',#267);
#267 = AXIS2_PLACEMENT_3D('',#268,#269,#270);
#268 = CARTESIAN_POINT('',(0.,0.,7.8));
#269 = DIRECTION('',(0.,0.,1.));
#270 = DIRECTION('',(1.,0.,-0.));
#271 = DEFINITIONAL_REPRESENTATION('',(#272),#280);
#272 = ( BOUNDED_CURVE() B_SPLINE_CURVE(2,(#273,#274,#275,#276,#277,#278
,#279),.UNSPECIFIED.,.T.,.F.) B_SPLINE_CURVE_WITH_KNOTS((1,2,2,2,2,1),(
    -2.094395102393,0.,2.094395102393,4.188790204786,6.28318530718,
8.377580409573),.UNSPECIFIED.) CURVE() GEOMETRIC_REPRESENTATION_ITEM() 
RATIONAL_B_SPLINE_CURVE((1.,0.5,1.,0.5,1.,0.5,1.)) REPRESENTATION_ITEM(
  '') );
#273 = CARTESIAN_POINT('',(89.151441224754,-11.18226397243));
#274 = CARTESIAN_POINT('',(69.783191880848,-165.5970897417));
#275 = CARTESIAN_POINT('',(-54.25984528433,-71.61628089841));
#276 = CARTESIAN_POINT('',(-178.3028824495,22.364527944871));
#277 = CARTESIAN_POINT('',(-34.89159594042,82.798544870852));
#278 = CARTESIAN_POINT('',(108.51969056865,143.23256179683));
#279 = CARTESIAN_POINT('',(89.151441224754,-11.18226397243));
#280 = ( GEOMETRIC_REPRESENTATION_CONTEXT(2) 
PARAMETRIC_REPRESENTATION_CONTEXT() REPRESENTATION_CONTEXT('2D SPACE',''
  ) );
#281 = ORIENTED_EDGE('',*,*,#282,.T.);
#282 = EDGE_CURVE('',#250,#40,#283,.T.);
#283 = SURFACE_CURVE('',#284,(#289,#299),.PCURVE_S1.);
#284 = ELLIPSE('',#285,312.68717994187,89.850000000002);
#285 = AXIS2_PLACEMENT_3D('',#286,#287,#288);
#286 = CARTESIAN_POINT('',(-2.138450340197E-12,-6.526639129434E-15,
    9.833333333334));
#287 = DIRECTION('',(-0.125021417818,-0.949631948571,-0.287347885566));
#288 = DIRECTION('',(3.750642534546E-02,0.284889584571,-0.957826285221)
  );
#289 = PCURVE('',#62,#290);
#290 = DEFINITIONAL_REPRESENTATION('',(#291),#298);
#291 = B_SPLINE_CURVE_WITH_KNOTS('',5,(#292,#293,#294,#295,#296,#297),
  .UNSPECIFIED.,.F.,.F.,(6,6),(1.564007179704,1.564674975266),
  .PIECEWISE_BEZIER_KNOTS.);
#292 = CARTESIAN_POINT('',(-6.677955620219E-04,-1.7999994));
#293 = CARTESIAN_POINT('',(-5.342364496176E-04,-1.839999432296));
#294 = CARTESIAN_POINT('',(-4.006773372129E-04,-1.879999509931));
#295 = CARTESIAN_POINT('',(-2.671182248085E-04,-1.919999631418));
#296 = CARTESIAN_POINT('',(-1.335591124045E-04,-1.959999795269));
#297 = CARTESIAN_POINT('',(-1.059170268784E-16,-2.));
#298 = ( GEOMETRIC_REPRESENTATION_CONTEXT(2) 
PARAMETRIC_REPRESENTATION_CONTEXT() REPRESENTATION_CONTEXT('2D SPACE',''
  ) );
#299 = PCURVE('',#90,#300);
#300 = DEFINITIONAL_REPRESENTATION('',(#301),#305);
#301 = ELLIPSE('',#302,312.68717994187,89.850000000002);
#302 = AXIS2_PLACEMENT_2D('',#303,#304);
#303 = CARTESIAN_POINT('',(4.002117495083,2.119283626958E-12));
#304 = DIRECTION('',(-1.,7.577704210316E-18));
#305 = ( GEOMETRIC_REPRESENTATION_CONTEXT(2) 
PARAMETRIC_REPRESENTATION_CONTEXT() REPRESENTATION_CONTEXT('2D SPACE',''
  ) );
#306 = ADVANCED_FACE('',(#307),#144,.T.);
#307 = FACE_BOUND('',#308,.F.);
#308 = EDGE_LOOP('',(#309,#397,#425,#488));
#309 = ORIENTED_EDGE('',*,*,#310,.T.);
#310 = EDGE_CURVE('',#103,#311,#313,.T.);
#311 = VERTEX_POINT('',#312);
#312 = CARTESIAN_POINT('',(26.504257721241,-2.783311453295,8.8));
#313 = SURFACE_CURVE('',#314,(#338,#365),.PCURVE_S1.);
#314 = B_SPLINE_CURVE_WITH_KNOTS('',8,(#315,#316,#317,#318,#319,#320,
    #321,#322,#323,#324,#325,#326,#327,#328,#329,#330,#331,#332,#333,
    #334,#335,#336,#337),.UNSPECIFIED.,.F.,.F.,(9,7,7,9),(0.,
    0.497959855703,0.939321395315,1.),.UNSPECIFIED.);
#315 = CARTESIAN_POINT('',(26.339418904298,-2.912904355433,8.65));
#316 = CARTESIAN_POINT('',(26.339418904298,-2.912904355433,
    8.664743603315));
#317 = CARTESIAN_POINT('',(26.341243324932,-2.911474100999,
    8.679487932836));
#318 = CARTESIAN_POINT('',(26.344892642697,-2.908613229639,
    8.694010155103));
#319 = CARTESIAN_POINT('',(26.350324710856,-2.904354259763,
    8.708088440059));
#320 = CARTESIAN_POINT('',(26.357456913792,-2.898760953424,
    8.721510719208));
#321 = CARTESIAN_POINT('',(26.366170059529,-2.891925399323,
    8.734081794741));
#322 = CARTESIAN_POINT('',(26.376314010395,-2.883963816103,
    8.745628799644));
#323 = CARTESIAN_POINT('',(26.397820246363,-2.867075907767,
    8.765201853827));
#324 = CARTESIAN_POINT('',(26.408913384643,-2.858361800355,
    8.773479379346));
#325 = CARTESIAN_POINT('',(26.420874002813,-2.848962240382,8.78073540163
    ));
#326 = CARTESIAN_POINT('',(26.43356767522,-2.838981787461,8.786884567126
    ));
#327 = CARTESIAN_POINT('',(26.446849392599,-2.828533505005,
    8.791858915064));
#328 = CARTESIAN_POINT('',(26.460566940256,-2.817736391108,8.79560844008
    ));
#329 = CARTESIAN_POINT('',(26.474564276241,-2.80671280943,8.798101654843
    ));
#330 = CARTESIAN_POINT('',(26.490626221235,-2.794056189783,
    8.799494497265));
#331 = CARTESIAN_POINT('',(26.492569887188,-2.792524546433,
    8.799638859258));
#332 = CARTESIAN_POINT('',(26.494515295074,-2.790991045875,
    8.799759205458));
#333 = CARTESIAN_POINT('',(26.496462728225,-2.789456906274,
    8.799855509257));
#334 = CARTESIAN_POINT('',(26.498410344443,-2.787920590606,
    8.799927750671));
#335 = CARTESIAN_POINT('',(26.500359750384,-2.786385033846,
    8.799975916329));
#336 = CARTESIAN_POINT('',(26.502308530762,-2.784847956519,
    8.799999999482));
#337 = CARTESIAN_POINT('',(26.504257712009,-2.783311541209,8.8));
#338 = PCURVE('',#144,#339);
#339 = DEFINITIONAL_REPRESENTATION('',(#340),#364);
#340 = B_SPLINE_CURVE_WITH_KNOTS('',8,(#341,#342,#343,#344,#345,#346,
    #347,#348,#349,#350,#351,#352,#353,#354,#355,#356,#357,#358,#359,
    #360,#361,#362,#363),.UNSPECIFIED.,.F.,.F.,(9,7,7,9),(0.,
    0.497959855703,0.939321395315,1.),.UNSPECIFIED.);
#341 = CARTESIAN_POINT('',(0.,3.552713678801E-15));
#342 = CARTESIAN_POINT('',(-9.829068876791E-02,3.552713678801E-15));
#343 = CARTESIAN_POINT('',(-0.196586298041,1.622126797102E-03));
#344 = CARTESIAN_POINT('',(-0.294847884874,4.866805497971E-03));
#345 = CARTESIAN_POINT('',(-0.393044923851,9.696494439587E-03));
#346 = CARTESIAN_POINT('',(-0.4911544333,1.603760741277E-02));
#347 = CARTESIAN_POINT('',(-0.589160114415,2.378399213172E-02));
#348 = CARTESIAN_POINT('',(-0.687051503303,3.280196494961E-02));
#349 = CARTESIAN_POINT('',(-0.871482005744,5.191989771795E-02));
#350 = CARTESIAN_POINT('',(-0.958049776281,6.178071340335E-02));
#351 = CARTESIAN_POINT('',(-1.044528225076,7.241211805549E-02));
#352 = CARTESIAN_POINT('',(-1.130924360999,8.369448381842E-02));
#353 = CARTESIAN_POINT('',(-1.217249789679,9.549879974011E-02));
#354 = CARTESIAN_POINT('',(-1.303520078938,0.107689685712));
#355 = CARTESIAN_POINT('',(-1.389754124212,0.120128406406));
#356 = CARTESIAN_POINT('',(-1.487826998706,0.134400918865));
#357 = CARTESIAN_POINT('',(-1.499679971686,0.136128036911));
#358 = CARTESIAN_POINT('',(-1.511534059035,0.137856639574));
#359 = CARTESIAN_POINT('',(-1.523383987358,0.139587166765));
#360 = CARTESIAN_POINT('',(-1.53524084721,0.141317591422));
#361 = CARTESIAN_POINT('',(-1.54708917384,0.143049889548));
#362 = CARTESIAN_POINT('',(-1.558944469218,0.144781368989));
#363 = CARTESIAN_POINT('',(-1.570795737681,0.14651333228));
#364 = ( GEOMETRIC_REPRESENTATION_CONTEXT(2) 
PARAMETRIC_REPRESENTATION_CONTEXT() REPRESENTATION_CONTEXT('2D SPACE',''
  ) );
#365 = PCURVE('',#366,#371);
#366 = TOROIDAL_SURFACE('',#367,26.65,0.15);
#367 = AXIS2_PLACEMENT_3D('',#368,#369,#370);
#368 = CARTESIAN_POINT('',(3.126388037344E-13,-1.693090112553E-15,8.65)
  );
#369 = DIRECTION('',(-0.,-0.,-1.));
#370 = DIRECTION('',(0.995486817318,9.48999291152E-02,-0.));
#371 = DEFINITIONAL_REPRESENTATION('',(#372),#396);
#372 = B_SPLINE_CURVE_WITH_KNOTS('',8,(#373,#374,#375,#376,#377,#378,
    #379,#380,#381,#382,#383,#384,#385,#386,#387,#388,#389,#390,#391,
    #392,#393,#394,#395),.UNSPECIFIED.,.F.,.F.,(9,7,7,9),(0.,
    0.497959855703,0.939321395315,1.),.UNSPECIFIED.);
#373 = CARTESIAN_POINT('',(0.205186440839,3.14159265359));
#374 = CARTESIAN_POINT('',(0.205186440839,3.239883342358));
#375 = CARTESIAN_POINT('',(0.205125228612,3.338178951631));
#376 = CARTESIAN_POINT('',(0.205002787643,3.436440538464));
#377 = CARTESIAN_POINT('',(0.204820556776,3.534637577441));
#378 = CARTESIAN_POINT('',(0.204581355464,3.632747086889));
#379 = CARTESIAN_POINT('',(0.204289246766,3.730752768005));
#380 = CARTESIAN_POINT('',(0.203949338108,3.828644156893));
#381 = CARTESIAN_POINT('',(0.203229099099,4.013074659334));
#382 = CARTESIAN_POINT('',(0.202857741347,4.099642429871));
#383 = CARTESIAN_POINT('',(0.202457533204,4.186120878666));
#384 = CARTESIAN_POINT('',(0.202033023667,4.272517014589));
#385 = CARTESIAN_POINT('',(0.201589106997,4.358842443269));
#386 = CARTESIAN_POINT('',(0.201130905662,4.445112732528));
#387 = CARTESIAN_POINT('',(0.200663653268,4.531346777801));
#388 = CARTESIAN_POINT('',(0.200127813774,4.629419652296));
#389 = CARTESIAN_POINT('',(0.200062979178,4.641273052891));
#390 = CARTESIAN_POINT('',(0.199998078255,4.653124881318));
#391 = CARTESIAN_POINT('',(0.199933155398,4.664980399777));
#392 = CARTESIAN_POINT('',(0.199868160499,4.676828861158));
#393 = CARTESIAN_POINT('',(0.19980319681,4.688685499512));
#394 = CARTESIAN_POINT('',(0.19973818874,4.700535251876));
#395 = CARTESIAN_POINT('',(0.199673213714,4.712388980385));
#396 = ( GEOMETRIC_REPRESENTATION_CONTEXT(2) 
PARAMETRIC_REPRESENTATION_CONTEXT() REPRESENTATION_CONTEXT('2D SPACE',''
  ) );
#397 = ORIENTED_EDGE('',*,*,#398,.T.);
#398 = EDGE_CURVE('',#311,#399,#401,.T.);
#399 = VERTEX_POINT('',#400);
#400 = CARTESIAN_POINT('',(89.021264398789,-11.01383152408,8.8));
#401 = SURFACE_CURVE('',#402,(#406,#413),.PCURVE_S1.);
#402 = LINE('',#403,#404);
#403 = CARTESIAN_POINT('',(26.358997833131,-2.764187626226,8.8));
#404 = VECTOR('',#405,1.);
#405 = DIRECTION('',(0.991444861374,-0.13052619222,0.));
#406 = PCURVE('',#144,#407);
#407 = DEFINITIONAL_REPRESENTATION('',(#408),#412);
#408 = LINE('',#409,#410);
#409 = CARTESIAN_POINT('',(-1.570796326795,0.));
#410 = VECTOR('',#411,1.);
#411 = DIRECTION('',(-0.,1.));
#412 = ( GEOMETRIC_REPRESENTATION_CONTEXT(2) 
PARAMETRIC_REPRESENTATION_CONTEXT() REPRESENTATION_CONTEXT('2D SPACE',''
  ) );
#413 = PCURVE('',#414,#419);
#414 = PLANE('',#415);
#415 = AXIS2_PLACEMENT_3D('',#416,#417,#418);
#416 = CARTESIAN_POINT('',(61.20561623141,-0.198533587976,8.8));
#417 = DIRECTION('',(0.,0.,1.));
#418 = DIRECTION('',(1.,0.,-0.));
#419 = DEFINITIONAL_REPRESENTATION('',(#420),#424);
#420 = LINE('',#421,#422);
#421 = CARTESIAN_POINT('',(-34.84661839827,-2.56565403825));
#422 = VECTOR('',#423,1.);
#423 = DIRECTION('',(0.991444861374,-0.13052619222));
#424 = ( GEOMETRIC_REPRESENTATION_CONTEXT(2) 
PARAMETRIC_REPRESENTATION_CONTEXT() REPRESENTATION_CONTEXT('2D SPACE',''
  ) );
#425 = ORIENTED_EDGE('',*,*,#426,.F.);
#426 = EDGE_CURVE('',#42,#399,#427,.T.);
#427 = SURFACE_CURVE('',#428,(#446,#467),.PCURVE_S1.);
#428 = B_SPLINE_CURVE_WITH_KNOTS('',6,(#429,#430,#431,#432,#433,#434,
    #435,#436,#437,#438,#439,#440,#441,#442,#443,#444,#445),
  .UNSPECIFIED.,.F.,.F.,(7,5,5,7),(0.,0.497849273786,0.939298102078,1.),
  .UNSPECIFIED.);
#429 = CARTESIAN_POINT('',(89.151441224754,-11.18226397243,8.65));
#430 = CARTESIAN_POINT('',(89.151441224754,-11.18226397243,
    8.669660285557));
#431 = CARTESIAN_POINT('',(89.148760301668,-11.17879218083,8.68932198258
    ));
#432 = CARTESIAN_POINT('',(89.143397400986,-11.17184722017,
    8.708360118389));
#433 = CARTESIAN_POINT('',(89.135505915292,-11.16162870497,
    8.726154586026));
#434 = CARTESIAN_POINT('',(89.125377859424,-11.14851656408,
    8.742172842501));
#435 = CARTESIAN_POINT('',(89.102764555454,-11.11924722557,
    8.768270147155));
#436 = CARTESIAN_POINT('',(89.090675762214,-11.10360253461,
    8.778817335035));
#437 = CARTESIAN_POINT('',(89.077388979306,-11.08641080927,
    8.787360787329));
#438 = CARTESIAN_POINT('',(89.063218796548,-11.06808028171,
    8.793693870958));
#439 = CARTESIAN_POINT('',(89.04850736847,-11.04905435412,8.797693769645
    ));
#440 = CARTESIAN_POINT('',(89.031550660607,-11.02712996279,
    8.799550614824));
#441 = CARTESIAN_POINT('',(89.029497188496,-11.02447496716,
    8.799730307475));
#442 = CARTESIAN_POINT('',(89.027440898816,-11.02181647711,
    8.799865138256));
#443 = CARTESIAN_POINT('',(89.025382743249,-11.0191556238,8.799955045877
    ));
#444 = CARTESIAN_POINT('',(89.023323647221,-11.01649356134,
    8.799999999751));
#445 = CARTESIAN_POINT('',(89.021264394881,-11.01383155567,8.8));
#446 = PCURVE('',#144,#447);
#447 = DEFINITIONAL_REPRESENTATION('',(#448),#466);
#448 = B_SPLINE_CURVE_WITH_KNOTS('',6,(#449,#450,#451,#452,#453,#454,
    #455,#456,#457,#458,#459,#460,#461,#462,#463,#464,#465),
  .UNSPECIFIED.,.F.,.F.,(7,5,5,7),(0.,0.497849273786,0.939298102078,1.),
  .UNSPECIFIED.);
#449 = CARTESIAN_POINT('',(0.,63.354024785019));
#450 = CARTESIAN_POINT('',(-0.13106857038,63.354024785019));
#451 = CARTESIAN_POINT('',(-0.262146700175,63.350913637864));
#452 = CARTESIAN_POINT('',(-0.393119734859,63.344690118269));
#453 = CARTESIAN_POINT('',(-0.523913727614,63.335532361451));
#454 = CARTESIAN_POINT('',(-0.654487151284,63.323779474683));
#455 = CARTESIAN_POINT('',(-0.900393528631,63.297539215358));
#456 = CARTESIAN_POINT('',(-1.015783056693,63.283511801481));
#457 = CARTESIAN_POINT('',(-1.130996125237,63.268094718396));
#458 = CARTESIAN_POINT('',(-1.246063068012,63.251653149553));
#459 = CARTESIAN_POINT('',(-1.361034130301,63.234584197899));
#460 = CARTESIAN_POINT('',(-1.491778345673,63.214910849705));
#461 = CARTESIAN_POINT('',(-1.507582628304,63.212528398863));
#462 = CARTESIAN_POINT('',(-1.523386251748,63.210142698443));
#463 = CARTESIAN_POINT('',(-1.539189663526,63.207754839631));
#464 = CARTESIAN_POINT('',(-1.554993144755,63.205365890579));
#465 = CARTESIAN_POINT('',(-1.570796114598,63.202976793964));
#466 = ( GEOMETRIC_REPRESENTATION_CONTEXT(2) 
PARAMETRIC_REPRESENTATION_CONTEXT() REPRESENTATION_CONTEXT('2D SPACE',''
  ) );
#467 = PCURVE('',#177,#468);
#468 = DEFINITIONAL_REPRESENTATION('',(#469),#487);
#469 = B_SPLINE_CURVE_WITH_KNOTS('',6,(#470,#471,#472,#473,#474,#475,
    #476,#477,#478,#479,#480,#481,#482,#483,#484,#485,#486),
  .UNSPECIFIED.,.F.,.F.,(7,5,5,7),(0.,0.497849273786,0.939298102078,1.),
  .UNSPECIFIED.);
#470 = CARTESIAN_POINT('',(-3.37507799486E-14,6.28318530718));
#471 = CARTESIAN_POINT('',(-3.37507799486E-14,6.1521167368));
#472 = CARTESIAN_POINT('',(-3.462602837701E-05,6.021038607005));
#473 = CARTESIAN_POINT('',(-1.038916096681E-04,5.89006557232));
#474 = CARTESIAN_POINT('',(-2.058234710383E-04,5.759271579566));
#475 = CARTESIAN_POINT('',(-3.366644420151E-04,5.628698155896));
#476 = CARTESIAN_POINT('',(-6.288522938114E-04,5.382791778549));
#477 = CARTESIAN_POINT('',(-7.850713361819E-04,5.267402250487));
#478 = CARTESIAN_POINT('',(-9.56798774105E-04,5.152189181942));
#479 = CARTESIAN_POINT('',(-1.139978299906E-03,5.037122239167));
#480 = CARTESIAN_POINT('',(-1.330193306091E-03,4.922151176879));
#481 = CARTESIAN_POINT('',(-1.549482423407E-03,4.791406961507));
#482 = CARTESIAN_POINT('',(-1.576039456072E-03,4.775602793627));
#483 = CARTESIAN_POINT('',(-1.60263296766E-03,4.759798932323));
#484 = CARTESIAN_POINT('',(-1.62925175594E-03,4.743995507176));
#485 = CARTESIAN_POINT('',(-1.655884323718E-03,4.728192483102));
#486 = CARTESIAN_POINT('',(-1.682517738486E-03,4.712388980385));
#487 = ( GEOMETRIC_REPRESENTATION_CONTEXT(2) 
PARAMETRIC_REPRESENTATION_CONTEXT() REPRESENTATION_CONTEXT('2D SPACE',''
  ) );
#488 = ORIENTED_EDGE('',*,*,#130,.F.);
#489 = ADVANCED_FACE('',(#490),#118,.F.);
#490 = FACE_BOUND('',#491,.F.);
#491 = EDGE_LOOP('',(#492,#521,#544,#566,#567,#594));
#492 = ORIENTED_EDGE('',*,*,#493,.F.);
#493 = EDGE_CURVE('',#494,#496,#498,.T.);
#494 = VERTEX_POINT('',#495);
#495 = CARTESIAN_POINT('',(26.380400658927,2.514848121553,8.));
#496 = VERTEX_POINT('',#497);
#497 = CARTESIAN_POINT('',(26.430623537206,1.916282712566,6.));
#498 = SURFACE_CURVE('',#499,(#504,#514),.PCURVE_S1.);
#499 = ELLIPSE('',#500,92.222707495375,26.5);
#500 = AXIS2_PLACEMENT_3D('',#501,#502,#503);
#501 = CARTESIAN_POINT('',(3.153257978834E-13,-1.685031811131E-15,
    11.166666666667));
#502 = DIRECTION('',(-0.125021417818,0.949631948571,-0.287347885566));
#503 = DIRECTION('',(3.750642534546E-02,-0.284889584571,-0.957826285221)
  );
#504 = PCURVE('',#118,#505);
#505 = DEFINITIONAL_REPRESENTATION('',(#506),#513);
#506 = B_SPLINE_CURVE_WITH_KNOTS('',5,(#507,#508,#509,#510,#511,#512),
  .UNSPECIFIED.,.F.,.F.,(6,6),(4.748245720031,4.770912955473),
  .PIECEWISE_BEZIER_KNOTS.);
#507 = CARTESIAN_POINT('',(0.,-2.));
#508 = CARTESIAN_POINT('',(4.533447088412E-03,-1.599802912937));
#509 = CARTESIAN_POINT('',(9.066894176823E-03,-1.199687178105));
#510 = CARTESIAN_POINT('',(1.360034126524E-02,-0.799669930728));
#511 = CARTESIAN_POINT('',(1.813378835365E-02,-0.399768299063));
#512 = CARTESIAN_POINT('',(2.266723544206E-02,5.999999848072E-07));
#513 = ( GEOMETRIC_REPRESENTATION_CONTEXT(2) 
PARAMETRIC_REPRESENTATION_CONTEXT() REPRESENTATION_CONTEXT('2D SPACE',''
  ) );
#514 = PCURVE('',#237,#515);
#515 = DEFINITIONAL_REPRESENTATION('',(#516),#520);
#516 = ELLIPSE('',#517,92.222707495375,26.5);
#517 = AXIS2_PLACEMENT_2D('',#518,#519);
#518 = CARTESIAN_POINT('',(-3.306097061155,-3.124324090759E-13));
#519 = DIRECTION('',(1.,7.637067409577E-18));
#520 = ( GEOMETRIC_REPRESENTATION_CONTEXT(2) 
PARAMETRIC_REPRESENTATION_CONTEXT() REPRESENTATION_CONTEXT('2D SPACE',''
  ) );
#521 = ORIENTED_EDGE('',*,*,#522,.T.);
#522 = EDGE_CURVE('',#494,#523,#525,.T.);
#523 = VERTEX_POINT('',#524);
#524 = CARTESIAN_POINT('',(26.380400658927,2.514848121553,8.65));
#525 = SURFACE_CURVE('',#526,(#530,#537),.PCURVE_S1.);
#526 = LINE('',#527,#528);
#527 = CARTESIAN_POINT('',(26.380400658927,2.514848121553,6.));
#528 = VECTOR('',#529,1.);
#529 = DIRECTION('',(0.,0.,1.));
#530 = PCURVE('',#118,#531);
#531 = DEFINITIONAL_REPRESENTATION('',(#532),#536);
#532 = LINE('',#533,#534);
#533 = CARTESIAN_POINT('',(0.,0.));
#534 = VECTOR('',#535,1.);
#535 = DIRECTION('',(0.,-1.));
#536 = ( GEOMETRIC_REPRESENTATION_CONTEXT(2) 
PARAMETRIC_REPRESENTATION_CONTEXT() REPRESENTATION_CONTEXT('2D SPACE',''
  ) );
#537 = PCURVE('',#205,#538);
#538 = DEFINITIONAL_REPRESENTATION('',(#539),#543);
#539 = LINE('',#540,#541);
#540 = CARTESIAN_POINT('',(63.362011376715,0.));
#541 = VECTOR('',#542,1.);
#542 = DIRECTION('',(0.,-1.));
#543 = ( GEOMETRIC_REPRESENTATION_CONTEXT(2) 
PARAMETRIC_REPRESENTATION_CONTEXT() REPRESENTATION_CONTEXT('2D SPACE',''
  ) );
#544 = ORIENTED_EDGE('',*,*,#545,.T.);
#545 = EDGE_CURVE('',#523,#103,#546,.T.);
#546 = SURFACE_CURVE('',#547,(#552,#559),.PCURVE_S1.);
#547 = CIRCLE('',#548,26.5);
#548 = AXIS2_PLACEMENT_3D('',#549,#550,#551);
#549 = CARTESIAN_POINT('',(3.126388037344E-13,-1.693090112553E-15,8.65)
  );
#550 = DIRECTION('',(0.,-0.,-1.));
#551 = DIRECTION('',(0.995486817318,9.48999291152E-02,-0.));
#552 = PCURVE('',#118,#553);
#553 = DEFINITIONAL_REPRESENTATION('',(#554),#558);
#554 = LINE('',#555,#556);
#555 = CARTESIAN_POINT('',(4.887984837E-18,-2.65));
#556 = VECTOR('',#557,1.);
#557 = DIRECTION('',(1.,0.));
#558 = ( GEOMETRIC_REPRESENTATION_CONTEXT(2) 
PARAMETRIC_REPRESENTATION_CONTEXT() REPRESENTATION_CONTEXT('2D SPACE',''
  ) );
#559 = PCURVE('',#366,#560);
#560 = DEFINITIONAL_REPRESENTATION('',(#561),#565);
#561 = LINE('',#562,#563);
#562 = CARTESIAN_POINT('',(0.,3.14159265359));
#563 = VECTOR('',#564,1.);
#564 = DIRECTION('',(1.,0.));
#565 = ( GEOMETRIC_REPRESENTATION_CONTEXT(2) 
PARAMETRIC_REPRESENTATION_CONTEXT() REPRESENTATION_CONTEXT('2D SPACE',''
  ) );
#566 = ORIENTED_EDGE('',*,*,#102,.F.);
#567 = ORIENTED_EDGE('',*,*,#568,.F.);
#568 = EDGE_CURVE('',#569,#75,#571,.T.);
#569 = VERTEX_POINT('',#570);
#570 = CARTESIAN_POINT('',(26.398642933722,-2.315523970476,6.));
#571 = SURFACE_CURVE('',#572,(#577,#587),.PCURVE_S1.);
#572 = ELLIPSE('',#573,92.222707495375,26.5);
#573 = AXIS2_PLACEMENT_3D('',#574,#575,#576);
#574 = CARTESIAN_POINT('',(3.153257978834E-13,-1.685031811131E-15,
    9.833333333333));
#575 = DIRECTION('',(-0.125021417818,-0.949631948571,-0.287347885566));
#576 = DIRECTION('',(3.750642534546E-02,0.284889584571,-0.957826285221)
  );
#577 = PCURVE('',#118,#578);
#578 = DEFINITIONAL_REPRESENTATION('',(#579),#586);
#579 = B_SPLINE_CURVE_WITH_KNOTS('',5,(#580,#581,#582,#583,#584,#585),
  .UNSPECIFIED.,.F.,.F.,(6,6),(1.527386461161,1.550040119481),
  .PIECEWISE_BEZIER_KNOTS.);
#580 = CARTESIAN_POINT('',(0.182532782519,6.000000052353E-07));
#581 = CARTESIAN_POINT('',(0.187063514183,-0.399837004007));
#582 = CARTESIAN_POINT('',(0.191594245847,-0.799772969107));
#583 = CARTESIAN_POINT('',(0.196124977511,-1.199790195972));
#584 = CARTESIAN_POINT('',(0.200655709175,-1.599871576859));
#585 = CARTESIAN_POINT('',(0.205186440839,-2.));
#586 = ( GEOMETRIC_REPRESENTATION_CONTEXT(2) 
PARAMETRIC_REPRESENTATION_CONTEXT() REPRESENTATION_CONTEXT('2D SPACE',''
  ) );
#587 = PCURVE('',#90,#588);
#588 = DEFINITIONAL_REPRESENTATION('',(#589),#593);
#589 = ELLIPSE('',#590,92.222707495375,26.5);
#590 = AXIS2_PLACEMENT_2D('',#591,#592);
#591 = CARTESIAN_POINT('',(4.002117495082,-3.129004344017E-13));
#592 = DIRECTION('',(-1.,7.577704210316E-18));
#593 = ( GEOMETRIC_REPRESENTATION_CONTEXT(2) 
PARAMETRIC_REPRESENTATION_CONTEXT() REPRESENTATION_CONTEXT('2D SPACE',''
  ) );
#594 = ORIENTED_EDGE('',*,*,#595,.F.);
#595 = EDGE_CURVE('',#496,#569,#596,.T.);
#596 = SURFACE_CURVE('',#597,(#602,#609),.PCURVE_S1.);
#597 = CIRCLE('',#598,26.5);
#598 = AXIS2_PLACEMENT_3D('',#599,#600,#601);
#599 = CARTESIAN_POINT('',(3.153257978834E-13,-1.685031811131E-15,6.));
#600 = DIRECTION('',(0.,0.,-1.));
#601 = DIRECTION('',(0.995486817318,9.48999291152E-02,0.));
#602 = PCURVE('',#118,#603);
#603 = DEFINITIONAL_REPRESENTATION('',(#604),#608);
#604 = LINE('',#605,#606);
#605 = CARTESIAN_POINT('',(0.,0.));
#606 = VECTOR('',#607,1.);
#607 = DIRECTION('',(1.,0.));
#608 = ( GEOMETRIC_REPRESENTATION_CONTEXT(2) 
PARAMETRIC_REPRESENTATION_CONTEXT() REPRESENTATION_CONTEXT('2D SPACE',''
  ) );
#609 = PCURVE('',#610,#615);
#610 = PLANE('',#611);
#611 = AXIS2_PLACEMENT_3D('',#612,#613,#614);
#612 = CARTESIAN_POINT('',(61.20561623141,-0.198533587976,6.));
#613 = DIRECTION('',(0.,0.,1.));
#614 = DIRECTION('',(1.,0.,-0.));
#615 = DEFINITIONAL_REPRESENTATION('',(#616),#624);
#616 = ( BOUNDED_CURVE() B_SPLINE_CURVE(2,(#617,#618,#619,#620,#621,#622
,#623),.UNSPECIFIED.,.T.,.F.) B_SPLINE_CURVE_WITH_KNOTS((1,2,2,2,2,1),(
    -2.094395102393,0.,2.094395102393,4.188790204786,6.28318530718,
8.377580409573),.UNSPECIFIED.) CURVE() GEOMETRIC_REPRESENTATION_ITEM() 
RATIONAL_B_SPLINE_CURVE((1.,0.5,1.,0.5,1.,0.5,1.)) REPRESENTATION_ITEM(
  '') );
#617 = CARTESIAN_POINT('',(-34.82521557248,2.713381709529));
#618 = CARTESIAN_POINT('',(-30.46937085263,-42.97881255575));
#619 = CARTESIAN_POINT('',(-72.21789420094,-23.90498760544));
#620 = CARTESIAN_POINT('',(-113.9664175492,-4.83116265513));
#621 = CARTESIAN_POINT('',(-76.57373892079,21.787206659842));
#622 = CARTESIAN_POINT('',(-39.18106029233,48.405575974813));
#623 = CARTESIAN_POINT('',(-34.82521557248,2.713381709529));
#624 = ( GEOMETRIC_REPRESENTATION_CONTEXT(2) 
PARAMETRIC_REPRESENTATION_CONTEXT() REPRESENTATION_CONTEXT('2D SPACE',''
  ) );
#625 = ADVANCED_FACE('',(#626),#90,.T.);
#626 = FACE_BOUND('',#627,.T.);
#627 = EDGE_LOOP('',(#628,#629,#652,#684,#703,#704));
#628 = ORIENTED_EDGE('',*,*,#568,.F.);
#629 = ORIENTED_EDGE('',*,*,#630,.T.);
#630 = EDGE_CURVE('',#569,#631,#633,.T.);
#631 = VERTEX_POINT('',#632);
#632 = CARTESIAN_POINT('',(83.770706523727,-9.868699433843,6.));
#633 = SURFACE_CURVE('',#634,(#638,#645),.PCURVE_S1.);
#634 = LINE('',#635,#636);
#635 = CARTESIAN_POINT('',(0.150105121053,1.14016159058,6.));
#636 = VECTOR('',#637,1.);
#637 = DIRECTION('',(0.991444861374,-0.13052619222,0.));
#638 = PCURVE('',#90,#639);
#639 = DEFINITIONAL_REPRESENTATION('',(#640),#644);
#640 = LINE('',#641,#642);
#641 = CARTESIAN_POINT('',(0.,0.));
#642 = VECTOR('',#643,1.);
#643 = DIRECTION('',(0.,-1.));
#644 = ( GEOMETRIC_REPRESENTATION_CONTEXT(2) 
PARAMETRIC_REPRESENTATION_CONTEXT() REPRESENTATION_CONTEXT('2D SPACE',''
  ) );
#645 = PCURVE('',#610,#646);
#646 = DEFINITIONAL_REPRESENTATION('',(#647),#651);
#647 = LINE('',#648,#649);
#648 = CARTESIAN_POINT('',(-61.05551111035,1.338695178556));
#649 = VECTOR('',#650,1.);
#650 = DIRECTION('',(0.991444861374,-0.13052619222));
#651 = ( GEOMETRIC_REPRESENTATION_CONTEXT(2) 
PARAMETRIC_REPRESENTATION_CONTEXT() REPRESENTATION_CONTEXT('2D SPACE',''
  ) );
#652 = ORIENTED_EDGE('',*,*,#653,.T.);
#653 = EDGE_CURVE('',#631,#654,#656,.T.);
#654 = VERTEX_POINT('',#655);
#655 = CARTESIAN_POINT('',(83.705808184956,-10.40481504416,7.8));
#656 = SURFACE_CURVE('',#657,(#662,#669),.PCURVE_S1.);
#657 = ELLIPSE('',#658,293.54661800886,84.35);
#658 = AXIS2_PLACEMENT_3D('',#659,#660,#661);
#659 = CARTESIAN_POINT('',(0.,0.,9.833333333333));
#660 = DIRECTION('',(-0.125021417818,-0.949631948571,-0.287347885566));
#661 = DIRECTION('',(-3.750642534546E-02,-0.284889584571,0.957826285221)
  );
#662 = PCURVE('',#90,#663);
#663 = DEFINITIONAL_REPRESENTATION('',(#664),#668);
#664 = ELLIPSE('',#665,293.54661800886,84.35);
#665 = AXIS2_PLACEMENT_2D('',#666,#667);
#666 = CARTESIAN_POINT('',(4.002117495082,-1.724087920246E-17));
#667 = DIRECTION('',(1.,-7.577704210316E-18));
#668 = ( GEOMETRIC_REPRESENTATION_CONTEXT(2) 
PARAMETRIC_REPRESENTATION_CONTEXT() REPRESENTATION_CONTEXT('2D SPACE',''
  ) );
#669 = PCURVE('',#670,#675);
#670 = CYLINDRICAL_SURFACE('',#671,84.35);
#671 = AXIS2_PLACEMENT_3D('',#672,#673,#674);
#672 = CARTESIAN_POINT('',(0.,0.,5.));
#673 = DIRECTION('',(0.,0.,1.));
#674 = DIRECTION('',(1.,0.,-0.));
#675 = DEFINITIONAL_REPRESENTATION('',(#676),#683);
#676 = B_SPLINE_CURVE_WITH_KNOTS('',5,(#677,#678,#679,#680,#681,#682),
  .UNSPECIFIED.,.F.,.F.,(6,6),(4.698754886616,4.705157147105),
  .PIECEWISE_BEZIER_KNOTS.);
#677 = CARTESIAN_POINT('',(6.165919707049,0.9999994));
#678 = CARTESIAN_POINT('',(6.164639254951,1.359986386867));
#679 = CARTESIAN_POINT('',(6.163358802853,1.719981229949));
#680 = CARTESIAN_POINT('',(6.162078350755,2.07998269962));
#681 = CARTESIAN_POINT('',(6.160797898658,2.439989566207));
#682 = CARTESIAN_POINT('',(6.15951744656,2.8000006));
#683 = ( GEOMETRIC_REPRESENTATION_CONTEXT(2) 
PARAMETRIC_REPRESENTATION_CONTEXT() REPRESENTATION_CONTEXT('2D SPACE',''
  ) );
#684 = ORIENTED_EDGE('',*,*,#685,.T.);
#685 = EDGE_CURVE('',#654,#250,#686,.T.);
#686 = SURFACE_CURVE('',#687,(#691,#697),.PCURVE_S1.);
#687 = LINE('',#688,#689);
#688 = CARTESIAN_POINT('',(7.962097725423E-02,0.604781365438,7.8));
#689 = VECTOR('',#690,1.);
#690 = DIRECTION('',(0.991444861374,-0.13052619222,0.));
#691 = PCURVE('',#90,#692);
#692 = DEFINITIONAL_REPRESENTATION('',(#693),#696);
#693 = B_SPLINE_CURVE_WITH_KNOTS('',1,(#694,#695),.UNSPECIFIED.,.F.,.F.,
  (2,2),(84.340307707197,90.304061869837),.PIECEWISE_BEZIER_KNOTS.);
#694 = CARTESIAN_POINT('',(1.879255171604,-84.34030770719));
#695 = CARTESIAN_POINT('',(1.879255171604,-90.30406186983));
#696 = ( GEOMETRIC_REPRESENTATION_CONTEXT(2) 
PARAMETRIC_REPRESENTATION_CONTEXT() REPRESENTATION_CONTEXT('2D SPACE',''
  ) );
#697 = PCURVE('',#266,#698);
#698 = DEFINITIONAL_REPRESENTATION('',(#699),#702);
#699 = B_SPLINE_CURVE_WITH_KNOTS('',1,(#700,#701),.UNSPECIFIED.,.F.,.F.,
  (2,2),(84.340307707197,90.304061869837),.PIECEWISE_BEZIER_KNOTS.);
#700 = CARTESIAN_POINT('',(83.69838566024,-10.40383785025));
#701 = CARTESIAN_POINT('',(89.611119079286,-11.18226397243));
#702 = ( GEOMETRIC_REPRESENTATION_CONTEXT(2) 
PARAMETRIC_REPRESENTATION_CONTEXT() REPRESENTATION_CONTEXT('2D SPACE',''
  ) );
#703 = ORIENTED_EDGE('',*,*,#282,.T.);
#704 = ORIENTED_EDGE('',*,*,#74,.F.);
#705 = ADVANCED_FACE('',(#706),#266,.F.);
#706 = FACE_BOUND('',#707,.F.);
#707 = EDGE_LOOP('',(#708,#709,#730,#756));
#708 = ORIENTED_EDGE('',*,*,#249,.F.);
#709 = ORIENTED_EDGE('',*,*,#710,.T.);
#710 = EDGE_CURVE('',#218,#711,#713,.T.);
#711 = VERTEX_POINT('',#712);
#712 = CARTESIAN_POINT('',(83.754210198889,10.007735705958,7.8));
#713 = SURFACE_CURVE('',#714,(#718,#724),.PCURVE_S1.);
#714 = LINE('',#715,#716);
#715 = CARTESIAN_POINT('',(0.131831454142,-1.001359309988,7.8));
#716 = VECTOR('',#717,1.);
#717 = DIRECTION('',(-0.991444861374,-0.13052619222,0.));
#718 = PCURVE('',#266,#719);
#719 = DEFINITIONAL_REPRESENTATION('',(#720),#723);
#720 = B_SPLINE_CURVE_WITH_KNOTS('',1,(#721,#722),.UNSPECIFIED.,.F.,.F.,
  (2,2),(-90.30072284707,-84.29513328155),.PIECEWISE_BEZIER_KNOTS.);
#721 = CARTESIAN_POINT('',(89.660019099213,10.785250197959));
#722 = CARTESIAN_POINT('',(83.705808184956,10.001363459935));
#723 = ( GEOMETRIC_REPRESENTATION_CONTEXT(2) 
PARAMETRIC_REPRESENTATION_CONTEXT() REPRESENTATION_CONTEXT('2D SPACE',''
  ) );
#724 = PCURVE('',#237,#725);
#725 = DEFINITIONAL_REPRESENTATION('',(#726),#729);
#726 = B_SPLINE_CURVE_WITH_KNOTS('',1,(#727,#728),.UNSPECIFIED.,.F.,.F.,
  (2,2),(-90.30072284707,-84.29513328155),.PIECEWISE_BEZIER_KNOTS.);
#727 = CARTESIAN_POINT('',(0.208806130178,-90.30072284707));
#728 = CARTESIAN_POINT('',(0.208806130178,-84.29513328155));
#729 = ( GEOMETRIC_REPRESENTATION_CONTEXT(2) 
PARAMETRIC_REPRESENTATION_CONTEXT() REPRESENTATION_CONTEXT('2D SPACE',''
  ) );
#730 = ORIENTED_EDGE('',*,*,#731,.T.);
#731 = EDGE_CURVE('',#711,#654,#732,.T.);
#732 = SURFACE_CURVE('',#733,(#738,#749),.PCURVE_S1.);
#733 = CIRCLE('',#734,84.35);
#734 = AXIS2_PLACEMENT_3D('',#735,#736,#737);
#735 = CARTESIAN_POINT('',(0.,0.,7.8));
#736 = DIRECTION('',(0.,0.,-1.));
#737 = DIRECTION('',(0.992852042747,0.119351670338,0.));
#738 = PCURVE('',#266,#739);
#739 = DEFINITIONAL_REPRESENTATION('',(#740),#748);
#740 = ( BOUNDED_CURVE() B_SPLINE_CURVE(2,(#741,#742,#743,#744,#745,#746
,#747),.UNSPECIFIED.,.T.,.F.) B_SPLINE_CURVE_WITH_KNOTS((1,2,2,2,2,1),(
    -2.094395102393,0.,2.094395102393,4.188790204786,6.28318530718,
8.377580409573),.UNSPECIFIED.) CURVE() GEOMETRIC_REPRESENTATION_ITEM() 
RATIONAL_B_SPLINE_CURVE((1.,0.5,1.,0.5,1.,0.5,1.)) REPRESENTATION_ITEM(
  '') );
#741 = CARTESIAN_POINT('',(83.747069805738,10.067313393));
#742 = CARTESIAN_POINT('',(101.18416809813,-134.9868664955));
#743 = CARTESIAN_POINT('',(-33.15498575667,-77.56074664077));
#744 = CARTESIAN_POINT('',(-167.4941396114,-20.134626786));
#745 = CARTESIAN_POINT('',(-50.59208404906,67.493433247778));
#746 = CARTESIAN_POINT('',(66.309971513343,155.12149328155));
#747 = CARTESIAN_POINT('',(83.747069805738,10.067313393));
#748 = ( GEOMETRIC_REPRESENTATION_CONTEXT(2) 
PARAMETRIC_REPRESENTATION_CONTEXT() REPRESENTATION_CONTEXT('2D SPACE',''
  ) );
#749 = PCURVE('',#670,#750);
#750 = DEFINITIONAL_REPRESENTATION('',(#751),#755);
#751 = LINE('',#752,#753);
#752 = CARTESIAN_POINT('',(6.402822166638,2.8));
#753 = VECTOR('',#754,1.);
#754 = DIRECTION('',(-1.,-0.));
#755 = ( GEOMETRIC_REPRESENTATION_CONTEXT(2) 
PARAMETRIC_REPRESENTATION_CONTEXT() REPRESENTATION_CONTEXT('2D SPACE',''
  ) );
#756 = ORIENTED_EDGE('',*,*,#685,.T.);
#757 = ADVANCED_FACE('',(#758),#237,.T.);
#758 = FACE_BOUND('',#759,.T.);
#759 = EDGE_LOOP('',(#760,#761,#782,#783,#784,#811));
#760 = ORIENTED_EDGE('',*,*,#493,.F.);
#761 = ORIENTED_EDGE('',*,*,#762,.T.);
#762 = EDGE_CURVE('',#494,#190,#763,.T.);
#763 = SURFACE_CURVE('',#764,(#768,#775),.PCURVE_S1.);
#764 = LINE('',#765,#766);
#765 = CARTESIAN_POINT('',(0.123999882609,-0.941872618305,8.));
#766 = VECTOR('',#767,1.);
#767 = DIRECTION('',(0.991444861374,0.13052619222,0.));
#768 = PCURVE('',#237,#769);
#769 = DEFINITIONAL_REPRESENTATION('',(#770),#774);
#770 = LINE('',#771,#772);
#771 = CARTESIAN_POINT('',(0.,0.));
#772 = VECTOR('',#773,1.);
#773 = DIRECTION('',(0.,-1.));
#774 = ( GEOMETRIC_REPRESENTATION_CONTEXT(2) 
PARAMETRIC_REPRESENTATION_CONTEXT() REPRESENTATION_CONTEXT('2D SPACE',''
  ) );
#775 = PCURVE('',#205,#776);
#776 = DEFINITIONAL_REPRESENTATION('',(#777),#781);
#777 = LINE('',#778,#779);
#778 = CARTESIAN_POINT('',(89.844977600309,-2.));
#779 = VECTOR('',#780,1.);
#780 = DIRECTION('',(-1.,0.));
#781 = ( GEOMETRIC_REPRESENTATION_CONTEXT(2) 
PARAMETRIC_REPRESENTATION_CONTEXT() REPRESENTATION_CONTEXT('2D SPACE',''
  ) );
#782 = ORIENTED_EDGE('',*,*,#217,.T.);
#783 = ORIENTED_EDGE('',*,*,#710,.T.);
#784 = ORIENTED_EDGE('',*,*,#785,.T.);
#785 = EDGE_CURVE('',#711,#786,#788,.T.);
#786 = VERTEX_POINT('',#787);
#787 = CARTESIAN_POINT('',(83.816569041949,9.471285764681,6.));
#788 = SURFACE_CURVE('',#789,(#794,#801),.PCURVE_S1.);
#789 = ELLIPSE('',#790,293.54661800886,84.35);
#790 = AXIS2_PLACEMENT_3D('',#791,#792,#793);
#791 = CARTESIAN_POINT('',(0.,0.,11.166666666667));
#792 = DIRECTION('',(-0.125021417818,0.949631948571,-0.287347885566));
#793 = DIRECTION('',(-3.750642534546E-02,0.284889584571,0.957826285221)
  );
#794 = PCURVE('',#237,#795);
#795 = DEFINITIONAL_REPRESENTATION('',(#796),#800);
#796 = ELLIPSE('',#797,293.54661800886,84.35);
#797 = AXIS2_PLACEMENT_2D('',#798,#799);
#798 = CARTESIAN_POINT('',(-3.306097061155,-2.106033889917E-17));
#799 = DIRECTION('',(-1.,-7.637067409577E-18));
#800 = ( GEOMETRIC_REPRESENTATION_CONTEXT(2) 
PARAMETRIC_REPRESENTATION_CONTEXT() REPRESENTATION_CONTEXT('2D SPACE',''
  ) );
#801 = PCURVE('',#670,#802);
#802 = DEFINITIONAL_REPRESENTATION('',(#803),#810);
#803 = B_SPLINE_CURVE_WITH_KNOTS('',5,(#804,#805,#806,#807,#808,#809),
  .UNSPECIFIED.,.F.,.F.,(6,6),(1.582770529003,1.589173178305),
  .PIECEWISE_BEZIER_KNOTS.);
#804 = CARTESIAN_POINT('',(6.402110798871,2.8000006));
#805 = CARTESIAN_POINT('',(6.40083026901,2.439984099021));
#806 = CARTESIAN_POINT('',(6.39954973915,2.079974498684));
#807 = CARTESIAN_POINT('',(6.39826920929,1.719973028862));
#808 = CARTESIAN_POINT('',(6.39698867943,1.359980919383));
#809 = CARTESIAN_POINT('',(6.395708149569,0.9999994));
#810 = ( GEOMETRIC_REPRESENTATION_CONTEXT(2) 
PARAMETRIC_REPRESENTATION_CONTEXT() REPRESENTATION_CONTEXT('2D SPACE',''
  ) );
#811 = ORIENTED_EDGE('',*,*,#812,.F.);
#812 = EDGE_CURVE('',#496,#786,#813,.T.);
#813 = SURFACE_CURVE('',#814,(#818,#825),.PCURVE_S1.);
#814 = LINE('',#815,#816);
#815 = CARTESIAN_POINT('',(0.202315597941,-1.536739535129,6.));
#816 = VECTOR('',#817,1.);
#817 = DIRECTION('',(0.991444861374,0.13052619222,0.));
#818 = PCURVE('',#237,#819);
#819 = DEFINITIONAL_REPRESENTATION('',(#820),#824);
#820 = LINE('',#821,#822);
#821 = CARTESIAN_POINT('',(2.088061301782,0.));
#822 = VECTOR('',#823,1.);
#823 = DIRECTION('',(0.,-1.));
#824 = ( GEOMETRIC_REPRESENTATION_CONTEXT(2) 
PARAMETRIC_REPRESENTATION_CONTEXT() REPRESENTATION_CONTEXT('2D SPACE',''
  ) );
#825 = PCURVE('',#610,#826);
#826 = DEFINITIONAL_REPRESENTATION('',(#827),#831);
#827 = LINE('',#828,#829);
#828 = CARTESIAN_POINT('',(-61.00330063346,-1.338205947153));
#829 = VECTOR('',#830,1.);
#830 = DIRECTION('',(0.991444861374,0.13052619222));
#831 = ( GEOMETRIC_REPRESENTATION_CONTEXT(2) 
PARAMETRIC_REPRESENTATION_CONTEXT() REPRESENTATION_CONTEXT('2D SPACE',''
  ) );
#832 = ADVANCED_FACE('',(#833),#205,.F.);
#833 = FACE_BOUND('',#834,.F.);
#834 = EDGE_LOOP('',(#835,#836,#837,#838));
#835 = ORIENTED_EDGE('',*,*,#522,.F.);
#836 = ORIENTED_EDGE('',*,*,#762,.T.);
#837 = ORIENTED_EDGE('',*,*,#189,.T.);
#838 = ORIENTED_EDGE('',*,*,#839,.T.);
#839 = EDGE_CURVE('',#161,#523,#840,.T.);
#840 = SURFACE_CURVE('',#841,(#845,#852),.PCURVE_S1.);
#841 = LINE('',#842,#843);
#842 = CARTESIAN_POINT('',(89.20034124468,10.785250197959,8.65));
#843 = VECTOR('',#844,1.);
#844 = DIRECTION('',(-0.991444861374,-0.13052619222,0.));
#845 = PCURVE('',#205,#846);
#846 = DEFINITIONAL_REPRESENTATION('',(#847),#851);
#847 = LINE('',#848,#849);
#848 = CARTESIAN_POINT('',(0.,-2.65));
#849 = VECTOR('',#850,1.);
#850 = DIRECTION('',(1.,0.));
#851 = ( GEOMETRIC_REPRESENTATION_CONTEXT(2) 
PARAMETRIC_REPRESENTATION_CONTEXT() REPRESENTATION_CONTEXT('2D SPACE',''
  ) );
#852 = PCURVE('',#853,#858);
#853 = CYLINDRICAL_SURFACE('',#854,0.15);
#854 = AXIS2_PLACEMENT_3D('',#855,#856,#857);
#855 = CARTESIAN_POINT('',(89.219920173513,10.636533468753,8.65));
#856 = DIRECTION('',(-0.991444861374,-0.13052619222,0.));
#857 = DIRECTION('',(-0.13052619222,0.991444861374,0.));
#858 = DEFINITIONAL_REPRESENTATION('',(#859),#863);
#859 = LINE('',#860,#861);
#860 = CARTESIAN_POINT('',(-0.,0.));
#861 = VECTOR('',#862,1.);
#862 = DIRECTION('',(-0.,1.));
#863 = ( GEOMETRIC_REPRESENTATION_CONTEXT(2) 
PARAMETRIC_REPRESENTATION_CONTEXT() REPRESENTATION_CONTEXT('2D SPACE',''
  ) );
#864 = ADVANCED_FACE('',(#865),#177,.T.);
#865 = FACE_BOUND('',#866,.F.);
#866 = EDGE_LOOP('',(#867,#962,#963,#964));
#867 = ORIENTED_EDGE('',*,*,#868,.F.);
#868 = EDGE_CURVE('',#161,#869,#871,.T.);
#869 = VERTEX_POINT('',#870);
#870 = CARTESIAN_POINT('',(89.069495622562,10.616729700922,8.8));
#871 = SURFACE_CURVE('',#872,(#900,#931),.PCURVE_S1.);
#872 = B_SPLINE_CURVE_WITH_KNOTS('',6,(#873,#874,#875,#876,#877,#878,
    #879,#880,#881,#882,#883,#884,#885,#886,#887,#888,#889,#890,#891,
    #892,#893,#894,#895,#896,#897,#898,#899),.UNSPECIFIED.,.F.,.F.,(7,5,
    5,5,5,7),(0.,0.494805801492,0.933582622873,0.963566758193,
    0.977559831697,1.),.UNSPECIFIED.);
#873 = CARTESIAN_POINT('',(89.200341244681,10.785250197958,8.65));
#874 = CARTESIAN_POINT('',(89.200341244681,10.785250197958,
    8.669660641432));
#875 = CARTESIAN_POINT('',(89.197646460885,10.781776469068,
    8.689322705037));
#876 = CARTESIAN_POINT('',(89.192255825399,10.774827622783,8.70836103398
    ));
#877 = CARTESIAN_POINT('',(89.184323666659,10.764603572386,
    8.726155385175));
#878 = CARTESIAN_POINT('',(89.17414367337,10.751484676001,8.742173284824
    ));
#879 = CARTESIAN_POINT('',(89.151414299306,10.722200140883,8.76827050472
    ));
#880 = CARTESIAN_POINT('',(89.139263161739,10.706546955431,
    8.778817777243));
#881 = CARTESIAN_POINT('',(89.12590803411,10.689346135893,8.787361115403
    ));
#882 = CARTESIAN_POINT('',(89.111665141993,10.671006156746,
    8.793694021894));
#883 = CARTESIAN_POINT('',(89.096878350847,10.651970593607,
    8.797693801768));
#884 = CARTESIAN_POINT('',(89.080871200803,10.631369016841,
    8.799437700463));
#885 = CARTESIAN_POINT('',(89.079846393003,10.63005008681,8.799538191743
    ));
#886 = CARTESIAN_POINT('',(89.078820780546,10.628730142835,
    8.799627615135));
#887 = CARTESIAN_POINT('',(89.077794474767,10.62740932826,8.79970596123)
  );
#888 = CARTESIAN_POINT('',(89.076767587097,10.626087786544,8.79977322249
    ));
#889 = CARTESIAN_POINT('',(89.075260778985,10.624148648428,
    8.799855607162));
#890 = CARTESIAN_POINT('',(89.074781224137,10.623531505514,
    8.799879405774));
#891 = CARTESIAN_POINT('',(89.074301576121,10.622914247438,
    8.799900788448));
#892 = CARTESIAN_POINT('',(89.07382184653,10.622296889124,8.79991975465)
  );
#893 = CARTESIAN_POINT('',(89.073342046963,10.6216794455,8.799936303939)
  );
#894 = CARTESIAN_POINT('',(89.072092658799,10.620071647407,
    8.799973098989));
#895 = CARTESIAN_POINT('',(89.071714675107,10.619866361645,
    8.799982012929));
#896 = CARTESIAN_POINT('',(89.071306383071,10.619312688313,
    8.799987317498));
#897 = CARTESIAN_POINT('',(89.070700226652,10.618110740467,
    8.799993620932));
#898 = CARTESIAN_POINT('',(89.06998294865,10.616794130116,8.8));
#899 = CARTESIAN_POINT('',(89.0694955907,10.616729968225,8.8));
#900 = PCURVE('',#177,#901);
#901 = DEFINITIONAL_REPRESENTATION('',(#902),#930);
#902 = B_SPLINE_CURVE_WITH_KNOTS('',6,(#903,#904,#905,#906,#907,#908,
    #909,#910,#911,#912,#913,#914,#915,#916,#917,#918,#919,#920,#921,
    #922,#923,#924,#925,#926,#927,#928,#929),.UNSPECIFIED.,.F.,.F.,(7,5,
    5,5,5,7),(0.,0.494805801492,0.933582622873,0.963566758193,
    0.977559831697,1.),.UNSPECIFIED.);
#903 = CARTESIAN_POINT('',(-0.245104661743,6.28318530718));
#904 = CARTESIAN_POINT('',(-0.245104661743,6.152114364297));
#905 = CARTESIAN_POINT('',(-0.245069879955,6.021033790926));
#906 = CARTESIAN_POINT('',(-0.245000302691,5.89005924764));
#907 = CARTESIAN_POINT('',(-0.244897913942,5.759265348354));
#908 = CARTESIAN_POINT('',(-0.244766489898,5.628693990687));
#909 = CARTESIAN_POINT('',(-0.244472998564,5.382788406975));
#910 = CARTESIAN_POINT('',(-0.244316078803,5.267397148992));
#911 = CARTESIAN_POINT('',(-0.244143583378,5.152183899187));
#912 = CARTESIAN_POINT('',(-0.243959586962,5.037118056193));
#913 = CARTESIAN_POINT('',(-0.243768525285,4.922148939668));
#914 = CARTESIAN_POINT('',(-0.243561654448,4.799357487795));
#915 = CARTESIAN_POINT('',(-0.243548410013,4.791503332609));
#916 = CARTESIAN_POINT('',(-0.243535155001,4.783649316623));
#917 = CARTESIAN_POINT('',(-0.243521890853,4.775795420643));
#918 = CARTESIAN_POINT('',(-0.243508619006,4.767941625388));
#919 = CARTESIAN_POINT('',(-0.243489144244,4.756422720067));
#920 = CARTESIAN_POINT('',(-0.243482946192,4.752757528638));
#921 = CARTESIAN_POINT('',(-0.243476746897,4.749092337209));
#922 = CARTESIAN_POINT('',(-0.243470546509,4.745427145781));
#923 = CARTESIAN_POINT('',(-0.243464345178,4.741761954352));
#924 = CARTESIAN_POINT('',(-0.24344819694,4.732219032593));
#925 = CARTESIAN_POINT('',(-0.243446423527,4.729554289457));
#926 = CARTESIAN_POINT('',(-0.24344083335,4.726414506271));
#927 = CARTESIAN_POINT('',(-0.24342832795,4.721453278219));
#928 = CARTESIAN_POINT('',(-0.243414699872,4.715665822911));
#929 = CARTESIAN_POINT('',(-0.24341463267,4.712388980385));
#930 = ( GEOMETRIC_REPRESENTATION_CONTEXT(2) 
PARAMETRIC_REPRESENTATION_CONTEXT() REPRESENTATION_CONTEXT('2D SPACE',''
  ) );
#931 = PCURVE('',#853,#932);
#932 = DEFINITIONAL_REPRESENTATION('',(#933),#961);
#933 = B_SPLINE_CURVE_WITH_KNOTS('',6,(#934,#935,#936,#937,#938,#939,
    #940,#941,#942,#943,#944,#945,#946,#947,#948,#949,#950,#951,#952,
    #953,#954,#955,#956,#957,#958,#959,#960),.UNSPECIFIED.,.F.,.F.,(7,5,
    5,5,5,7),(0.,0.494805801492,0.933582622873,0.963566758193,
    0.977559831697,1.),.UNSPECIFIED.);
#934 = CARTESIAN_POINT('',(0.,0.));
#935 = CARTESIAN_POINT('',(-0.131070942882,0.));
#936 = CARTESIAN_POINT('',(-0.262151516253,3.125142151316E-03));
#937 = CARTESIAN_POINT('',(-0.39312605954,9.376666449577E-03));
#938 = CARTESIAN_POINT('',(-0.523919958826,1.85754708391E-02));
#939 = CARTESIAN_POINT('',(-0.654491316493,3.038073246606E-02));
#940 = CARTESIAN_POINT('',(-0.900396900204,5.673805244338E-02));
#941 = CARTESIAN_POINT('',(-1.015788158187,7.082838603695E-02));
#942 = CARTESIAN_POINT('',(-1.131001407992,8.631441617554E-02));
#943 = CARTESIAN_POINT('',(-1.246067250986,0.102829306019));
#944 = CARTESIAN_POINT('',(-1.361036367512,0.11997423369));
#945 = CARTESIAN_POINT('',(-1.483827819385,0.138533485716));
#946 = CARTESIAN_POINT('',(-1.491681974571,0.139721681058));
#947 = CARTESIAN_POINT('',(-1.499535990556,0.140910806519));
#948 = CARTESIAN_POINT('',(-1.507389886537,0.142100733007));
#949 = CARTESIAN_POINT('',(-1.515243681792,0.143291331318));
#950 = CARTESIAN_POINT('',(-1.526762587112,0.145038356792));
#951 = CARTESIAN_POINT('',(-1.530427778541,0.145594362297));
#952 = CARTESIAN_POINT('',(-1.53409296997,0.146150475205));
#953 = CARTESIAN_POINT('',(-1.537758161399,0.146706682072));
#954 = CARTESIAN_POINT('',(-1.541423352828,0.147262969453));
#955 = CARTESIAN_POINT('',(-1.550966274587,0.148711528691));
#956 = CARTESIAN_POINT('',(-1.551994706957,0.149113073848));
#957 = CARTESIAN_POINT('',(-1.555299028617,0.149590141761));
#958 = CARTESIAN_POINT('',(-1.562716115515,0.150347998103));
#959 = CARTESIAN_POINT('',(-1.570794532294,0.151230991829));
#960 = CARTESIAN_POINT('',(-1.570794532293,0.151722555171));
#961 = ( GEOMETRIC_REPRESENTATION_CONTEXT(2) 
PARAMETRIC_REPRESENTATION_CONTEXT() REPRESENTATION_CONTEXT('2D SPACE',''
  ) );
#962 = ORIENTED_EDGE('',*,*,#160,.F.);
#963 = ORIENTED_EDGE('',*,*,#426,.T.);
#964 = ORIENTED_EDGE('',*,*,#965,.T.);
#965 = EDGE_CURVE('',#399,#869,#966,.T.);
#966 = SURFACE_CURVE('',#967,(#972,#979),.PCURVE_S1.);
#967 = CIRCLE('',#968,89.700000000002);
#968 = AXIS2_PLACEMENT_3D('',#969,#970,#971);
#969 = CARTESIAN_POINT('',(-2.138733634638E-12,-6.522560269673E-15,8.8)
  );
#970 = DIRECTION('',(0.,0.,1.));
#971 = DIRECTION('',(0.992225277961,-0.124454802142,0.));
#972 = PCURVE('',#177,#973);
#973 = DEFINITIONAL_REPRESENTATION('',(#974),#978);
#974 = LINE('',#975,#976);
#975 = CARTESIAN_POINT('',(-0.,4.712388980385));
#976 = VECTOR('',#977,1.);
#977 = DIRECTION('',(-1.,0.));
#978 = ( GEOMETRIC_REPRESENTATION_CONTEXT(2) 
PARAMETRIC_REPRESENTATION_CONTEXT() REPRESENTATION_CONTEXT('2D SPACE',''
  ) );
#979 = PCURVE('',#414,#980);
#980 = DEFINITIONAL_REPRESENTATION('',(#981),#985);
#981 = CIRCLE('',#982,89.700000000002);
#982 = AXIS2_PLACEMENT_2D('',#983,#984);
#983 = CARTESIAN_POINT('',(-61.20561623141,0.198533587976));
#984 = DIRECTION('',(0.992225277961,-0.124454802142));
#985 = ( GEOMETRIC_REPRESENTATION_CONTEXT(2) 
PARAMETRIC_REPRESENTATION_CONTEXT() REPRESENTATION_CONTEXT('2D SPACE',''
  ) );
#986 = ADVANCED_FACE('',(#987),#366,.T.);
#987 = FACE_BOUND('',#988,.T.);
#988 = EDGE_LOOP('',(#989,#1072,#1073,#1074));
#989 = ORIENTED_EDGE('',*,*,#990,.F.);
#990 = EDGE_CURVE('',#523,#991,#993,.T.);
#991 = VERTEX_POINT('',#992);
#992 = CARTESIAN_POINT('',(26.543067299969,2.384969247033,8.8));
#993 = SURFACE_CURVE('',#994,(#1018,#1045),.PCURVE_S1.);
#994 = B_SPLINE_CURVE_WITH_KNOTS('',8,(#995,#996,#997,#998,#999,#1000,
    #1001,#1002,#1003,#1004,#1005,#1006,#1007,#1008,#1009,#1010,#1011,
    #1012,#1013,#1014,#1015,#1016,#1017),.UNSPECIFIED.,.F.,.F.,(9,7,7,9)
  ,(0.,0.498008998767,0.939330575762,1.),.UNSPECIFIED.);
#995 = CARTESIAN_POINT('',(26.380400658927,2.514848121553,8.65));
#996 = CARTESIAN_POINT('',(26.380400658927,2.514848121553,8.664742765279
    ));
#997 = CARTESIAN_POINT('',(26.382200762941,2.513414854952,8.679486238486
    ));
#998 = CARTESIAN_POINT('',(26.385801429502,2.510547967457,8.694007793777
    ));
#999 = CARTESIAN_POINT('',(26.391161201886,2.506279953731,8.70808577569)
  );
#1000 = CARTESIAN_POINT('',(26.398198776752,2.500674560698,
    8.721508204249));
#1001 = CARTESIAN_POINT('',(26.406796787851,2.49382390696,8.73407986218)
  );
#1002 = CARTESIAN_POINT('',(26.416807304792,2.485844318332,
    8.745627764243));
#1003 = CARTESIAN_POINT('',(26.438030024469,2.468918870204,
    8.765201031034));
#1004 = CARTESIAN_POINT('',(26.448976097944,2.460186108562,
    8.773478184156));
#1005 = CARTESIAN_POINT('',(26.460778552179,2.450766181406,
    8.780734202416));
#1006 = CARTESIAN_POINT('',(26.473304825512,2.440763825496,
    8.786883608984));
#1007 = CARTESIAN_POINT('',(26.486411847308,2.430292348253,
    8.791858304454));
#1008 = CARTESIAN_POINT('',(26.499949375517,2.419471048504,
    8.795608155471));
#1009 = CARTESIAN_POINT('',(26.51376333423,2.40842263723,8.798101583346)
  );
#1010 = CARTESIAN_POINT('',(26.529614937902,2.395737571836,
    8.799494496856));
#1011 = CARTESIAN_POINT('',(26.531533059804,2.394202577397,8.79963885868
    ));
#1012 = CARTESIAN_POINT('',(26.533452849964,2.392665659553,
    8.799759204865));
#1013 = CARTESIAN_POINT('',(26.535374799169,2.391128281541,
    8.799855508737));
#1014 = CARTESIAN_POINT('',(26.537296650981,2.389588401142,
    8.799927750269));
#1015 = CARTESIAN_POINT('',(26.539220606724,2.388049665682,
    8.799975916056));
#1016 = CARTESIAN_POINT('',(26.541143669269,2.386509088257,
    8.799999999342));
#1017 = CARTESIAN_POINT('',(26.543067289918,2.384969358899,8.8));
#1018 = PCURVE('',#366,#1019);
#1019 = DEFINITIONAL_REPRESENTATION('',(#1020),#1044);
#1020 = B_SPLINE_CURVE_WITH_KNOTS('',8,(#1021,#1022,#1023,#1024,#1025,
    #1026,#1027,#1028,#1029,#1030,#1031,#1032,#1033,#1034,#1035,#1036,
    #1037,#1038,#1039,#1040,#1041,#1042,#1043),.UNSPECIFIED.,.F.,.F.,(9,
    7,7,9),(0.,0.498008998767,0.939330575762,1.),.UNSPECIFIED.);
#1021 = CARTESIAN_POINT('',(0.,3.14159265359));
#1022 = CARTESIAN_POINT('',(0.,3.239877755453));
#1023 = CARTESIAN_POINT('',(6.028763403698E-05,3.338167656516));
#1024 = CARTESIAN_POINT('',(1.808787766224E-04,3.436424549266));
#1025 = CARTESIAN_POINT('',(3.603606240201E-04,3.534618811277));
#1026 = CARTESIAN_POINT('',(5.959633917758E-04,3.632728145781));
#1027 = CARTESIAN_POINT('',(8.836933240488E-04,3.730736734213));
#1028 = CARTESIAN_POINT('',(1.218527014736E-03,3.828634400729));
#1029 = CARTESIAN_POINT('',(1.927991758826E-03,4.013066906356));
#1030 = CARTESIAN_POINT('',(2.293766758786E-03,4.099629631429));
#1031 = CARTESIAN_POINT('',(2.687971882131E-03,4.186105647973));
#1032 = CARTESIAN_POINT('',(3.106129237442E-03,4.272501741562));
#1033 = CARTESIAN_POINT('',(3.543418652265E-03,4.358829174581));
#1034 = CARTESIAN_POINT('',(3.994793125398E-03,4.445103061495));
#1035 = CARTESIAN_POINT('',(4.455094279146E-03,4.531341744126));
#1036 = CARTESIAN_POINT('',(4.982964995969E-03,4.62941962336));
#1037 = CARTESIAN_POINT('',(5.046831721707E-03,4.641273061061));
#1038 = CARTESIAN_POINT('',(5.110766271877E-03,4.653124574798));
#1039 = CARTESIAN_POINT('',(5.174715566243E-03,4.664980831664));
#1040 = CARTESIAN_POINT('',(5.238748319668E-03,4.676828167831));
#1041 = CARTESIAN_POINT('',(5.302735593215E-03,4.68868591397));
#1042 = CARTESIAN_POINT('',(5.366778942966E-03,4.700534925326));
#1043 = CARTESIAN_POINT('',(5.430782711154E-03,4.712388980385));
#1044 = ( GEOMETRIC_REPRESENTATION_CONTEXT(2) 
PARAMETRIC_REPRESENTATION_CONTEXT() REPRESENTATION_CONTEXT('2D SPACE',''
  ) );
#1045 = PCURVE('',#853,#1046);
#1046 = DEFINITIONAL_REPRESENTATION('',(#1047),#1071);
#1047 = B_SPLINE_CURVE_WITH_KNOTS('',8,(#1048,#1049,#1050,#1051,#1052,
    #1053,#1054,#1055,#1056,#1057,#1058,#1059,#1060,#1061,#1062,#1063,
    #1064,#1065,#1066,#1067,#1068,#1069,#1070),.UNSPECIFIED.,.F.,.F.,(9,
    7,7,9),(0.,0.498008998767,0.939330575762,1.),.UNSPECIFIED.);
#1048 = CARTESIAN_POINT('',(0.,63.362011376715));
#1049 = CARTESIAN_POINT('',(-9.82851018629E-02,63.362011376715));
#1050 = CARTESIAN_POINT('',(-0.196575002926,63.360413751672));
#1051 = CARTESIAN_POINT('',(-0.294831895676,63.357218093221));
#1052 = CARTESIAN_POINT('',(-0.393026157687,63.352461262013));
#1053 = CARTESIAN_POINT('',(-0.491135492191,63.346215545184));
#1054 = CARTESIAN_POINT('',(-0.589144080623,63.338585281009));
#1055 = CARTESIAN_POINT('',(-0.687041747139,63.329701950747));
#1056 = CARTESIAN_POINT('',(-0.871474252766,63.310870008675));
#1057 = CARTESIAN_POINT('',(-0.95803697784,63.3011574345));
#1058 = CARTESIAN_POINT('',(-1.044512994383,63.29068549912));
#1059 = CARTESIAN_POINT('',(-1.130909087972,63.279571959222));
#1060 = CARTESIAN_POINT('',(-1.217236520991,63.267943871866));
#1061 = CARTESIAN_POINT('',(-1.303510407905,63.255934622138));
#1062 = CARTESIAN_POINT('',(-1.389749090536,63.243680950811));
#1063 = CARTESIAN_POINT('',(-1.48782696977,63.229620693089));
#1064 = CARTESIAN_POINT('',(-1.499679864415,63.227919337966));
#1065 = CARTESIAN_POINT('',(-1.511534246904,63.22621657991));
#1066 = CARTESIAN_POINT('',(-1.523383404496,63.224511741346));
#1067 = CARTESIAN_POINT('',(-1.535241406411,63.222807325968));
#1068 = CARTESIAN_POINT('',(-1.547088596989,63.221100675212));
#1069 = CARTESIAN_POINT('',(-1.558944647731,63.21939515044));
#1070 = CARTESIAN_POINT('',(-1.570795578654,63.217688961642));
#1071 = ( GEOMETRIC_REPRESENTATION_CONTEXT(2) 
PARAMETRIC_REPRESENTATION_CONTEXT() REPRESENTATION_CONTEXT('2D SPACE',''
  ) );
#1072 = ORIENTED_EDGE('',*,*,#545,.T.);
#1073 = ORIENTED_EDGE('',*,*,#310,.T.);
#1074 = ORIENTED_EDGE('',*,*,#1075,.F.);
#1075 = EDGE_CURVE('',#991,#311,#1076,.T.);
#1076 = SURFACE_CURVE('',#1077,(#1082,#1089),.PCURVE_S1.);
#1077 = CIRCLE('',#1078,26.65);
#1078 = AXIS2_PLACEMENT_3D('',#1079,#1080,#1081);
#1079 = CARTESIAN_POINT('',(3.126388037344E-13,-1.693090112553E-15,8.8)
  );
#1080 = DIRECTION('',(0.,-0.,-1.));
#1081 = DIRECTION('',(0.995486817318,9.48999291152E-02,-0.));
#1082 = PCURVE('',#366,#1083);
#1083 = DEFINITIONAL_REPRESENTATION('',(#1084),#1088);
#1084 = LINE('',#1085,#1086);
#1085 = CARTESIAN_POINT('',(0.,4.712388980385));
#1086 = VECTOR('',#1087,1.);
#1087 = DIRECTION('',(1.,0.));
#1088 = ( GEOMETRIC_REPRESENTATION_CONTEXT(2) 
PARAMETRIC_REPRESENTATION_CONTEXT() REPRESENTATION_CONTEXT('2D SPACE',''
  ) );
#1089 = PCURVE('',#414,#1090);
#1090 = DEFINITIONAL_REPRESENTATION('',(#1091),#1099);
#1091 = ( BOUNDED_CURVE() B_SPLINE_CURVE(2,(#1092,#1093,#1094,#1095,
#1096,#1097,#1098),.UNSPECIFIED.,.T.,.F.) B_SPLINE_CURVE_WITH_KNOTS((1,2
    ,2,2,2,1),(-2.094395102393,0.,2.094395102393,4.188790204786,
6.28318530718,8.377580409573),.UNSPECIFIED.) CURVE() 
GEOMETRIC_REPRESENTATION_ITEM() RATIONAL_B_SPLINE_CURVE((1.,0.5,1.,0.5,
1.,0.5,1.)) REPRESENTATION_ITEM('') );
#1092 = CARTESIAN_POINT('',(-34.67589254988,2.727616698896));
#1093 = CARTESIAN_POINT('',(-30.2953921052,-43.22321262826));
#1094 = CARTESIAN_POINT('',(-72.28022784983,-24.04142263106));
#1095 = CARTESIAN_POINT('',(-114.2650635944,-4.859632633864));
#1096 = CARTESIAN_POINT('',(-76.66072829451,21.909406696098));
#1097 = CARTESIAN_POINT('',(-39.05639299456,48.67844602606));
#1098 = CARTESIAN_POINT('',(-34.67589254988,2.727616698896));
#1099 = ( GEOMETRIC_REPRESENTATION_CONTEXT(2) 
PARAMETRIC_REPRESENTATION_CONTEXT() REPRESENTATION_CONTEXT('2D SPACE',''
  ) );
#1100 = ADVANCED_FACE('',(#1101),#414,.T.);
#1101 = FACE_BOUND('',#1102,.T.);
#1102 = EDGE_LOOP('',(#1103,#1104,#1105,#1126));
#1103 = ORIENTED_EDGE('',*,*,#398,.T.);
#1104 = ORIENTED_EDGE('',*,*,#965,.T.);
#1105 = ORIENTED_EDGE('',*,*,#1106,.T.);
#1106 = EDGE_CURVE('',#869,#991,#1107,.T.);
#1107 = SURFACE_CURVE('',#1108,(#1112,#1119),.PCURVE_S1.);
#1108 = LINE('',#1109,#1110);
#1109 = CARTESIAN_POINT('',(89.219920173513,10.636533468753,8.8));
#1110 = VECTOR('',#1111,1.);
#1111 = DIRECTION('',(-0.991444861374,-0.13052619222,0.));
#1112 = PCURVE('',#414,#1113);
#1113 = DEFINITIONAL_REPRESENTATION('',(#1114),#1118);
#1114 = LINE('',#1115,#1116);
#1115 = CARTESIAN_POINT('',(28.014303942104,10.835067056729));
#1116 = VECTOR('',#1117,1.);
#1117 = DIRECTION('',(-0.991444861374,-0.13052619222));
#1118 = ( GEOMETRIC_REPRESENTATION_CONTEXT(2) 
PARAMETRIC_REPRESENTATION_CONTEXT() REPRESENTATION_CONTEXT('2D SPACE',''
  ) );
#1119 = PCURVE('',#853,#1120);
#1120 = DEFINITIONAL_REPRESENTATION('',(#1121),#1125);
#1121 = LINE('',#1122,#1123);
#1122 = CARTESIAN_POINT('',(-1.570796326795,0.));
#1123 = VECTOR('',#1124,1.);
#1124 = DIRECTION('',(-0.,1.));
#1125 = ( GEOMETRIC_REPRESENTATION_CONTEXT(2) 
PARAMETRIC_REPRESENTATION_CONTEXT() REPRESENTATION_CONTEXT('2D SPACE',''
  ) );
#1126 = ORIENTED_EDGE('',*,*,#1075,.T.);
#1127 = ADVANCED_FACE('',(#1128,#1159),#610,.F.);
#1128 = FACE_BOUND('',#1129,.F.);
#1129 = EDGE_LOOP('',(#1130,#1156,#1157,#1158));
#1130 = ORIENTED_EDGE('',*,*,#1131,.F.);
#1131 = EDGE_CURVE('',#786,#631,#1132,.T.);
#1132 = SURFACE_CURVE('',#1133,(#1138,#1149),.PCURVE_S1.);
#1133 = CIRCLE('',#1134,84.35);
#1134 = AXIS2_PLACEMENT_3D('',#1135,#1136,#1137);
#1135 = CARTESIAN_POINT('',(0.,0.,6.));
#1136 = DIRECTION('',(0.,0.,-1.));
#1137 = DIRECTION('',(0.992852042747,0.119351670338,0.));
#1138 = PCURVE('',#610,#1139);
#1139 = DEFINITIONAL_REPRESENTATION('',(#1140),#1148);
#1140 = ( BOUNDED_CURVE() B_SPLINE_CURVE(2,(#1141,#1142,#1143,#1144,
#1145,#1146,#1147),.UNSPECIFIED.,.T.,.F.) B_SPLINE_CURVE_WITH_KNOTS((1,2
    ,2,2,2,1),(-2.094395102393,0.,2.094395102393,4.188790204786,
6.28318530718,8.377580409573),.UNSPECIFIED.) CURVE() 
GEOMETRIC_REPRESENTATION_ITEM() RATIONAL_B_SPLINE_CURVE((1.,0.5,1.,0.5,
1.,0.5,1.)) REPRESENTATION_ITEM('') );
#1141 = CARTESIAN_POINT('',(22.541453574328,10.265846980976));
#1142 = CARTESIAN_POINT('',(39.978551866723,-134.7883329075));
#1143 = CARTESIAN_POINT('',(-94.36060198808,-77.3622130528));
#1144 = CARTESIAN_POINT('',(-228.6997558428,-19.93609319802));
#1145 = CARTESIAN_POINT('',(-111.7977002804,67.691966835753));
#1146 = CARTESIAN_POINT('',(5.104355281933,155.32002686953));
#1147 = CARTESIAN_POINT('',(22.541453574328,10.265846980976));
#1148 = ( GEOMETRIC_REPRESENTATION_CONTEXT(2) 
PARAMETRIC_REPRESENTATION_CONTEXT() REPRESENTATION_CONTEXT('2D SPACE',''
  ) );
#1149 = PCURVE('',#670,#1150);
#1150 = DEFINITIONAL_REPRESENTATION('',(#1151),#1155);
#1151 = LINE('',#1152,#1153);
#1152 = CARTESIAN_POINT('',(6.402822166638,1.));
#1153 = VECTOR('',#1154,1.);
#1154 = DIRECTION('',(-1.,-0.));
#1155 = ( GEOMETRIC_REPRESENTATION_CONTEXT(2) 
PARAMETRIC_REPRESENTATION_CONTEXT() REPRESENTATION_CONTEXT('2D SPACE',''
  ) );
#1156 = ORIENTED_EDGE('',*,*,#812,.F.);
#1157 = ORIENTED_EDGE('',*,*,#595,.T.);
#1158 = ORIENTED_EDGE('',*,*,#630,.T.);
#1159 = FACE_BOUND('',#1160,.F.);
#1160 = EDGE_LOOP('',(#1161,#1191,#1224,#1252));
#1161 = ORIENTED_EDGE('',*,*,#1162,.T.);
#1162 = EDGE_CURVE('',#1163,#1165,#1167,.T.);
#1163 = VERTEX_POINT('',#1164);
#1164 = CARTESIAN_POINT('',(75.8,7.8,6.));
#1165 = VERTEX_POINT('',#1166);
#1166 = CARTESIAN_POINT('',(81.2,7.8,6.));
#1167 = SURFACE_CURVE('',#1168,(#1172,#1179),.PCURVE_S1.);
#1168 = LINE('',#1169,#1170);
#1169 = CARTESIAN_POINT('',(75.8,7.8,6.));
#1170 = VECTOR('',#1171,1.);
#1171 = DIRECTION('',(1.,0.,0.));
#1172 = PCURVE('',#610,#1173);
#1173 = DEFINITIONAL_REPRESENTATION('',(#1174),#1178);
#1174 = LINE('',#1175,#1176);
#1175 = CARTESIAN_POINT('',(14.59438376859,7.998533587976));
#1176 = VECTOR('',#1177,1.);
#1177 = DIRECTION('',(1.,0.));
#1178 = ( GEOMETRIC_REPRESENTATION_CONTEXT(2) 
PARAMETRIC_REPRESENTATION_CONTEXT() REPRESENTATION_CONTEXT('2D SPACE',''
  ) );
#1179 = PCURVE('',#1180,#1185);
#1180 = PLANE('',#1181);
#1181 = AXIS2_PLACEMENT_3D('',#1182,#1183,#1184);
#1182 = CARTESIAN_POINT('',(75.8,7.8,4.8));
#1183 = DIRECTION('',(0.,1.,0.));
#1184 = DIRECTION('',(1.,0.,0.));
#1185 = DEFINITIONAL_REPRESENTATION('',(#1186),#1190);
#1186 = LINE('',#1187,#1188);
#1187 = CARTESIAN_POINT('',(0.,-1.2));
#1188 = VECTOR('',#1189,1.);
#1189 = DIRECTION('',(1.,0.));
#1190 = ( GEOMETRIC_REPRESENTATION_CONTEXT(2) 
PARAMETRIC_REPRESENTATION_CONTEXT() REPRESENTATION_CONTEXT('2D SPACE',''
  ) );
#1191 = ORIENTED_EDGE('',*,*,#1192,.T.);
#1192 = EDGE_CURVE('',#1165,#1193,#1195,.T.);
#1193 = VERTEX_POINT('',#1194);
#1194 = CARTESIAN_POINT('',(81.2,6.2,6.));
#1195 = SURFACE_CURVE('',#1196,(#1201,#1212),.PCURVE_S1.);
#1196 = CIRCLE('',#1197,0.8);
#1197 = AXIS2_PLACEMENT_3D('',#1198,#1199,#1200);
#1198 = CARTESIAN_POINT('',(81.2,7.,6.));
#1199 = DIRECTION('',(-0.,0.,-1.));
#1200 = DIRECTION('',(-1.,-0.,0.));
#1201 = PCURVE('',#610,#1202);
#1202 = DEFINITIONAL_REPRESENTATION('',(#1203),#1211);
#1203 = ( BOUNDED_CURVE() B_SPLINE_CURVE(2,(#1204,#1205,#1206,#1207,
#1208,#1209,#1210),.UNSPECIFIED.,.T.,.F.) B_SPLINE_CURVE_WITH_KNOTS((1,2
    ,2,2,2,1),(-2.094395102393,0.,2.094395102393,4.188790204786,
6.28318530718,8.377580409573),.UNSPECIFIED.) CURVE() 
GEOMETRIC_REPRESENTATION_ITEM() RATIONAL_B_SPLINE_CURVE((1.,0.5,1.,0.5,
1.,0.5,1.)) REPRESENTATION_ITEM('') );
#1204 = CARTESIAN_POINT('',(19.19438376859,7.198533587976));
#1205 = CARTESIAN_POINT('',(19.19438376859,8.584174234031));
#1206 = CARTESIAN_POINT('',(20.39438376859,7.891353911004));
#1207 = CARTESIAN_POINT('',(21.59438376859,7.198533587976));
#1208 = CARTESIAN_POINT('',(20.39438376859,6.505713264948));
#1209 = CARTESIAN_POINT('',(19.19438376859,5.812892941921));
#1210 = CARTESIAN_POINT('',(19.19438376859,7.198533587976));
#1211 = ( GEOMETRIC_REPRESENTATION_CONTEXT(2) 
PARAMETRIC_REPRESENTATION_CONTEXT() REPRESENTATION_CONTEXT('2D SPACE',''
  ) );
#1212 = PCURVE('',#1213,#1218);
#1213 = CYLINDRICAL_SURFACE('',#1214,0.8);
#1214 = AXIS2_PLACEMENT_3D('',#1215,#1216,#1217);
#1215 = CARTESIAN_POINT('',(81.2,7.,4.8));
#1216 = DIRECTION('',(-0.,0.,-1.));
#1217 = DIRECTION('',(-1.,-0.,0.));
#1218 = DEFINITIONAL_REPRESENTATION('',(#1219),#1223);
#1219 = LINE('',#1220,#1221);
#1220 = CARTESIAN_POINT('',(0.,-1.2));
#1221 = VECTOR('',#1222,1.);
#1222 = DIRECTION('',(1.,0.));
#1223 = ( GEOMETRIC_REPRESENTATION_CONTEXT(2) 
PARAMETRIC_REPRESENTATION_CONTEXT() REPRESENTATION_CONTEXT('2D SPACE',''
  ) );
#1224 = ORIENTED_EDGE('',*,*,#1225,.T.);
#1225 = EDGE_CURVE('',#1193,#1226,#1228,.T.);
#1226 = VERTEX_POINT('',#1227);
#1227 = CARTESIAN_POINT('',(75.8,6.2,6.));
#1228 = SURFACE_CURVE('',#1229,(#1233,#1240),.PCURVE_S1.);
#1229 = LINE('',#1230,#1231);
#1230 = CARTESIAN_POINT('',(81.2,6.2,6.));
#1231 = VECTOR('',#1232,1.);
#1232 = DIRECTION('',(-1.,0.,0.));
#1233 = PCURVE('',#610,#1234);
#1234 = DEFINITIONAL_REPRESENTATION('',(#1235),#1239);
#1235 = LINE('',#1236,#1237);
#1236 = CARTESIAN_POINT('',(19.99438376859,6.398533587976));
#1237 = VECTOR('',#1238,1.);
#1238 = DIRECTION('',(-1.,0.));
#1239 = ( GEOMETRIC_REPRESENTATION_CONTEXT(2) 
PARAMETRIC_REPRESENTATION_CONTEXT() REPRESENTATION_CONTEXT('2D SPACE',''
  ) );
#1240 = PCURVE('',#1241,#1246);
#1241 = PLANE('',#1242);
#1242 = AXIS2_PLACEMENT_3D('',#1243,#1244,#1245);
#1243 = CARTESIAN_POINT('',(78.5,6.2,4.8));
#1244 = DIRECTION('',(0.,1.,0.));
#1245 = DIRECTION('',(1.,0.,0.));
#1246 = DEFINITIONAL_REPRESENTATION('',(#1247),#1251);
#1247 = LINE('',#1248,#1249);
#1248 = CARTESIAN_POINT('',(2.7,-1.2));
#1249 = VECTOR('',#1250,1.);
#1250 = DIRECTION('',(-1.,0.));
#1251 = ( GEOMETRIC_REPRESENTATION_CONTEXT(2) 
PARAMETRIC_REPRESENTATION_CONTEXT() REPRESENTATION_CONTEXT('2D SPACE',''
  ) );
#1252 = ORIENTED_EDGE('',*,*,#1253,.T.);
#1253 = EDGE_CURVE('',#1226,#1163,#1254,.T.);
#1254 = SURFACE_CURVE('',#1255,(#1260,#1271),.PCURVE_S1.);
#1255 = CIRCLE('',#1256,0.8);
#1256 = AXIS2_PLACEMENT_3D('',#1257,#1258,#1259);
#1257 = CARTESIAN_POINT('',(75.8,7.,6.));
#1258 = DIRECTION('',(0.,0.,-1.));
#1259 = DIRECTION('',(1.,0.,0.));
#1260 = PCURVE('',#610,#1261);
#1261 = DEFINITIONAL_REPRESENTATION('',(#1262),#1270);
#1262 = ( BOUNDED_CURVE() B_SPLINE_CURVE(2,(#1263,#1264,#1265,#1266,
#1267,#1268,#1269),.UNSPECIFIED.,.T.,.F.) B_SPLINE_CURVE_WITH_KNOTS((1,2
    ,2,2,2,1),(-2.094395102393,0.,2.094395102393,4.188790204786,
6.28318530718,8.377580409573),.UNSPECIFIED.) CURVE() 
GEOMETRIC_REPRESENTATION_ITEM() RATIONAL_B_SPLINE_CURVE((1.,0.5,1.,0.5,
1.,0.5,1.)) REPRESENTATION_ITEM('') );
#1263 = CARTESIAN_POINT('',(15.39438376859,7.198533587976));
#1264 = CARTESIAN_POINT('',(15.39438376859,5.812892941921));
#1265 = CARTESIAN_POINT('',(14.19438376859,6.505713264948));
#1266 = CARTESIAN_POINT('',(12.99438376859,7.198533587976));
#1267 = CARTESIAN_POINT('',(14.19438376859,7.891353911004));
#1268 = CARTESIAN_POINT('',(15.39438376859,8.584174234031));
#1269 = CARTESIAN_POINT('',(15.39438376859,7.198533587976));
#1270 = ( GEOMETRIC_REPRESENTATION_CONTEXT(2) 
PARAMETRIC_REPRESENTATION_CONTEXT() REPRESENTATION_CONTEXT('2D SPACE',''
  ) );
#1271 = PCURVE('',#1272,#1277);
#1272 = CYLINDRICAL_SURFACE('',#1273,0.8);
#1273 = AXIS2_PLACEMENT_3D('',#1274,#1275,#1276);
#1274 = CARTESIAN_POINT('',(75.8,7.,4.8));
#1275 = DIRECTION('',(0.,0.,-1.));
#1276 = DIRECTION('',(1.,0.,0.));
#1277 = DEFINITIONAL_REPRESENTATION('',(#1278),#1282);
#1278 = LINE('',#1279,#1280);
#1279 = CARTESIAN_POINT('',(0.,-1.2));
#1280 = VECTOR('',#1281,1.);
#1281 = DIRECTION('',(1.,0.));
#1282 = ( GEOMETRIC_REPRESENTATION_CONTEXT(2) 
PARAMETRIC_REPRESENTATION_CONTEXT() REPRESENTATION_CONTEXT('2D SPACE',''
  ) );
#1283 = ADVANCED_FACE('',(#1284),#670,.T.);
#1284 = FACE_BOUND('',#1285,.T.);
#1285 = EDGE_LOOP('',(#1286,#1287,#1288,#1289));
#1286 = ORIENTED_EDGE('',*,*,#1131,.F.);
#1287 = ORIENTED_EDGE('',*,*,#785,.F.);
#1288 = ORIENTED_EDGE('',*,*,#731,.T.);
#1289 = ORIENTED_EDGE('',*,*,#653,.F.);
#1290 = ADVANCED_FACE('',(#1291),#853,.T.);
#1291 = FACE_BOUND('',#1292,.F.);
#1292 = EDGE_LOOP('',(#1293,#1294,#1295,#1296));
#1293 = ORIENTED_EDGE('',*,*,#868,.T.);
#1294 = ORIENTED_EDGE('',*,*,#1106,.T.);
#1295 = ORIENTED_EDGE('',*,*,#990,.F.);
#1296 = ORIENTED_EDGE('',*,*,#839,.F.);
#1297 = ADVANCED_FACE('',(#1298),#1180,.T.);
#1298 = FACE_BOUND('',#1299,.T.);
#1299 = EDGE_LOOP('',(#1300,#1323,#1324,#1347));
#1300 = ORIENTED_EDGE('',*,*,#1301,.T.);
#1301 = EDGE_CURVE('',#1302,#1163,#1304,.T.);
#1302 = VERTEX_POINT('',#1303);
#1303 = CARTESIAN_POINT('',(75.8,7.8,4.8));
#1304 = SURFACE_CURVE('',#1305,(#1309,#1316),.PCURVE_S1.);
#1305 = LINE('',#1306,#1307);
#1306 = CARTESIAN_POINT('',(75.8,7.8,4.8));
#1307 = VECTOR('',#1308,1.);
#1308 = DIRECTION('',(0.,0.,1.));
#1309 = PCURVE('',#1180,#1310);
#1310 = DEFINITIONAL_REPRESENTATION('',(#1311),#1315);
#1311 = LINE('',#1312,#1313);
#1312 = CARTESIAN_POINT('',(0.,0.));
#1313 = VECTOR('',#1314,1.);
#1314 = DIRECTION('',(0.,-1.));
#1315 = ( GEOMETRIC_REPRESENTATION_CONTEXT(2) 
PARAMETRIC_REPRESENTATION_CONTEXT() REPRESENTATION_CONTEXT('2D SPACE',''
  ) );
#1316 = PCURVE('',#1272,#1317);
#1317 = DEFINITIONAL_REPRESENTATION('',(#1318),#1322);
#1318 = LINE('',#1319,#1320);
#1319 = CARTESIAN_POINT('',(4.712388980385,0.));
#1320 = VECTOR('',#1321,1.);
#1321 = DIRECTION('',(0.,-1.));
#1322 = ( GEOMETRIC_REPRESENTATION_CONTEXT(2) 
PARAMETRIC_REPRESENTATION_CONTEXT() REPRESENTATION_CONTEXT('2D SPACE',''
  ) );
#1323 = ORIENTED_EDGE('',*,*,#1162,.T.);
#1324 = ORIENTED_EDGE('',*,*,#1325,.F.);
#1325 = EDGE_CURVE('',#1326,#1165,#1328,.T.);
#1326 = VERTEX_POINT('',#1327);
#1327 = CARTESIAN_POINT('',(81.2,7.8,4.8));
#1328 = SURFACE_CURVE('',#1329,(#1333,#1340),.PCURVE_S1.);
#1329 = LINE('',#1330,#1331);
#1330 = CARTESIAN_POINT('',(81.2,7.8,4.8));
#1331 = VECTOR('',#1332,1.);
#1332 = DIRECTION('',(0.,0.,1.));
#1333 = PCURVE('',#1180,#1334);
#1334 = DEFINITIONAL_REPRESENTATION('',(#1335),#1339);
#1335 = LINE('',#1336,#1337);
#1336 = CARTESIAN_POINT('',(5.4,0.));
#1337 = VECTOR('',#1338,1.);
#1338 = DIRECTION('',(0.,-1.));
#1339 = ( GEOMETRIC_REPRESENTATION_CONTEXT(2) 
PARAMETRIC_REPRESENTATION_CONTEXT() REPRESENTATION_CONTEXT('2D SPACE',''
  ) );
#1340 = PCURVE('',#1213,#1341);
#1341 = DEFINITIONAL_REPRESENTATION('',(#1342),#1346);
#1342 = LINE('',#1343,#1344);
#1343 = CARTESIAN_POINT('',(1.570796326795,0.));
#1344 = VECTOR('',#1345,1.);
#1345 = DIRECTION('',(0.,-1.));
#1346 = ( GEOMETRIC_REPRESENTATION_CONTEXT(2) 
PARAMETRIC_REPRESENTATION_CONTEXT() REPRESENTATION_CONTEXT('2D SPACE',''
  ) );
#1347 = ORIENTED_EDGE('',*,*,#1348,.T.);
#1348 = EDGE_CURVE('',#1326,#1302,#1349,.T.);
#1349 = SURFACE_CURVE('',#1350,(#1354,#1361),.PCURVE_S1.);
#1350 = LINE('',#1351,#1352);
#1351 = CARTESIAN_POINT('',(81.2,7.8,4.8));
#1352 = VECTOR('',#1353,1.);
#1353 = DIRECTION('',(-1.,0.,0.));
#1354 = PCURVE('',#1180,#1355);
#1355 = DEFINITIONAL_REPRESENTATION('',(#1356),#1360);
#1356 = LINE('',#1357,#1358);
#1357 = CARTESIAN_POINT('',(5.4,0.));
#1358 = VECTOR('',#1359,1.);
#1359 = DIRECTION('',(-1.,0.));
#1360 = ( GEOMETRIC_REPRESENTATION_CONTEXT(2) 
PARAMETRIC_REPRESENTATION_CONTEXT() REPRESENTATION_CONTEXT('2D SPACE',''
  ) );
#1361 = PCURVE('',#1362,#1367);
#1362 = PLANE('',#1363);
#1363 = AXIS2_PLACEMENT_3D('',#1364,#1365,#1366);
#1364 = CARTESIAN_POINT('',(78.5,7.,4.8));
#1365 = DIRECTION('',(0.,0.,1.));
#1366 = DIRECTION('',(1.,0.,0.));
#1367 = DEFINITIONAL_REPRESENTATION('',(#1368),#1372);
#1368 = LINE('',#1369,#1370);
#1369 = CARTESIAN_POINT('',(2.7,0.8));
#1370 = VECTOR('',#1371,1.);
#1371 = DIRECTION('',(-1.,0.));
#1372 = ( GEOMETRIC_REPRESENTATION_CONTEXT(2) 
PARAMETRIC_REPRESENTATION_CONTEXT() REPRESENTATION_CONTEXT('2D SPACE',''
  ) );
#1373 = ADVANCED_FACE('',(#1374),#1272,.T.);
#1374 = FACE_BOUND('',#1375,.T.);
#1375 = EDGE_LOOP('',(#1376,#1399,#1400,#1401));
#1376 = ORIENTED_EDGE('',*,*,#1377,.T.);
#1377 = EDGE_CURVE('',#1378,#1226,#1380,.T.);
#1378 = VERTEX_POINT('',#1379);
#1379 = CARTESIAN_POINT('',(75.8,6.2,4.8));
#1380 = SURFACE_CURVE('',#1381,(#1385,#1392),.PCURVE_S1.);
#1381 = LINE('',#1382,#1383);
#1382 = CARTESIAN_POINT('',(75.8,6.2,4.8));
#1383 = VECTOR('',#1384,1.);
#1384 = DIRECTION('',(0.,0.,1.));
#1385 = PCURVE('',#1272,#1386);
#1386 = DEFINITIONAL_REPRESENTATION('',(#1387),#1391);
#1387 = LINE('',#1388,#1389);
#1388 = CARTESIAN_POINT('',(1.570796326795,0.));
#1389 = VECTOR('',#1390,1.);
#1390 = DIRECTION('',(0.,-1.));
#1391 = ( GEOMETRIC_REPRESENTATION_CONTEXT(2) 
PARAMETRIC_REPRESENTATION_CONTEXT() REPRESENTATION_CONTEXT('2D SPACE',''
  ) );
#1392 = PCURVE('',#1241,#1393);
#1393 = DEFINITIONAL_REPRESENTATION('',(#1394),#1398);
#1394 = LINE('',#1395,#1396);
#1395 = CARTESIAN_POINT('',(-2.7,0.));
#1396 = VECTOR('',#1397,1.);
#1397 = DIRECTION('',(0.,-1.));
#1398 = ( GEOMETRIC_REPRESENTATION_CONTEXT(2) 
PARAMETRIC_REPRESENTATION_CONTEXT() REPRESENTATION_CONTEXT('2D SPACE',''
  ) );
#1399 = ORIENTED_EDGE('',*,*,#1253,.T.);
#1400 = ORIENTED_EDGE('',*,*,#1301,.F.);
#1401 = ORIENTED_EDGE('',*,*,#1402,.F.);
#1402 = EDGE_CURVE('',#1378,#1302,#1403,.T.);
#1403 = SURFACE_CURVE('',#1404,(#1409,#1416),.PCURVE_S1.);
#1404 = CIRCLE('',#1405,0.8);
#1405 = AXIS2_PLACEMENT_3D('',#1406,#1407,#1408);
#1406 = CARTESIAN_POINT('',(75.8,7.,4.8));
#1407 = DIRECTION('',(0.,0.,-1.));
#1408 = DIRECTION('',(1.,0.,0.));
#1409 = PCURVE('',#1272,#1410);
#1410 = DEFINITIONAL_REPRESENTATION('',(#1411),#1415);
#1411 = LINE('',#1412,#1413);
#1412 = CARTESIAN_POINT('',(0.,0.));
#1413 = VECTOR('',#1414,1.);
#1414 = DIRECTION('',(1.,0.));
#1415 = ( GEOMETRIC_REPRESENTATION_CONTEXT(2) 
PARAMETRIC_REPRESENTATION_CONTEXT() REPRESENTATION_CONTEXT('2D SPACE',''
  ) );
#1416 = PCURVE('',#1362,#1417);
#1417 = DEFINITIONAL_REPRESENTATION('',(#1418),#1426);
#1418 = ( BOUNDED_CURVE() B_SPLINE_CURVE(2,(#1419,#1420,#1421,#1422,
#1423,#1424,#1425),.UNSPECIFIED.,.T.,.F.) B_SPLINE_CURVE_WITH_KNOTS((1,2
    ,2,2,2,1),(-2.094395102393,0.,2.094395102393,4.188790204786,
6.28318530718,8.377580409573),.UNSPECIFIED.) CURVE() 
GEOMETRIC_REPRESENTATION_ITEM() RATIONAL_B_SPLINE_CURVE((1.,0.5,1.,0.5,
1.,0.5,1.)) REPRESENTATION_ITEM('') );
#1419 = CARTESIAN_POINT('',(-1.9,0.));
#1420 = CARTESIAN_POINT('',(-1.9,-1.385640646055));
#1421 = CARTESIAN_POINT('',(-3.1,-0.692820323028));
#1422 = CARTESIAN_POINT('',(-4.3,-1.959434878636E-16));
#1423 = CARTESIAN_POINT('',(-3.1,0.692820323028));
#1424 = CARTESIAN_POINT('',(-1.9,1.385640646055));
#1425 = CARTESIAN_POINT('',(-1.9,0.));
#1426 = ( GEOMETRIC_REPRESENTATION_CONTEXT(2) 
PARAMETRIC_REPRESENTATION_CONTEXT() REPRESENTATION_CONTEXT('2D SPACE',''
  ) );
#1427 = ADVANCED_FACE('',(#1428),#1241,.F.);
#1428 = FACE_BOUND('',#1429,.F.);
#1429 = EDGE_LOOP('',(#1430,#1453,#1474,#1475));
#1430 = ORIENTED_EDGE('',*,*,#1431,.F.);
#1431 = EDGE_CURVE('',#1432,#1193,#1434,.T.);
#1432 = VERTEX_POINT('',#1433);
#1433 = CARTESIAN_POINT('',(81.2,6.2,4.8));
#1434 = SURFACE_CURVE('',#1435,(#1439,#1446),.PCURVE_S1.);
#1435 = LINE('',#1436,#1437);
#1436 = CARTESIAN_POINT('',(81.2,6.2,4.8));
#1437 = VECTOR('',#1438,1.);
#1438 = DIRECTION('',(0.,0.,1.));
#1439 = PCURVE('',#1241,#1440);
#1440 = DEFINITIONAL_REPRESENTATION('',(#1441),#1445);
#1441 = LINE('',#1442,#1443);
#1442 = CARTESIAN_POINT('',(2.7,0.));
#1443 = VECTOR('',#1444,1.);
#1444 = DIRECTION('',(0.,-1.));
#1445 = ( GEOMETRIC_REPRESENTATION_CONTEXT(2) 
PARAMETRIC_REPRESENTATION_CONTEXT() REPRESENTATION_CONTEXT('2D SPACE',''
  ) );
#1446 = PCURVE('',#1213,#1447);
#1447 = DEFINITIONAL_REPRESENTATION('',(#1448),#1452);
#1448 = LINE('',#1449,#1450);
#1449 = CARTESIAN_POINT('',(4.712388980385,0.));
#1450 = VECTOR('',#1451,1.);
#1451 = DIRECTION('',(0.,-1.));
#1452 = ( GEOMETRIC_REPRESENTATION_CONTEXT(2) 
PARAMETRIC_REPRESENTATION_CONTEXT() REPRESENTATION_CONTEXT('2D SPACE',''
  ) );
#1453 = ORIENTED_EDGE('',*,*,#1454,.F.);
#1454 = EDGE_CURVE('',#1378,#1432,#1455,.T.);
#1455 = SURFACE_CURVE('',#1456,(#1460,#1467),.PCURVE_S1.);
#1456 = LINE('',#1457,#1458);
#1457 = CARTESIAN_POINT('',(75.8,6.2,4.8));
#1458 = VECTOR('',#1459,1.);
#1459 = DIRECTION('',(1.,0.,0.));
#1460 = PCURVE('',#1241,#1461);
#1461 = DEFINITIONAL_REPRESENTATION('',(#1462),#1466);
#1462 = LINE('',#1463,#1464);
#1463 = CARTESIAN_POINT('',(-2.7,0.));
#1464 = VECTOR('',#1465,1.);
#1465 = DIRECTION('',(1.,0.));
#1466 = ( GEOMETRIC_REPRESENTATION_CONTEXT(2) 
PARAMETRIC_REPRESENTATION_CONTEXT() REPRESENTATION_CONTEXT('2D SPACE',''
  ) );
#1467 = PCURVE('',#1362,#1468);
#1468 = DEFINITIONAL_REPRESENTATION('',(#1469),#1473);
#1469 = LINE('',#1470,#1471);
#1470 = CARTESIAN_POINT('',(-2.7,-0.8));
#1471 = VECTOR('',#1472,1.);
#1472 = DIRECTION('',(1.,0.));
#1473 = ( GEOMETRIC_REPRESENTATION_CONTEXT(2) 
PARAMETRIC_REPRESENTATION_CONTEXT() REPRESENTATION_CONTEXT('2D SPACE',''
  ) );
#1474 = ORIENTED_EDGE('',*,*,#1377,.T.);
#1475 = ORIENTED_EDGE('',*,*,#1225,.F.);
#1476 = ADVANCED_FACE('',(#1477),#1213,.T.);
#1477 = FACE_BOUND('',#1478,.T.);
#1478 = EDGE_LOOP('',(#1479,#1480,#1481,#1482));
#1479 = ORIENTED_EDGE('',*,*,#1325,.T.);
#1480 = ORIENTED_EDGE('',*,*,#1192,.T.);
#1481 = ORIENTED_EDGE('',*,*,#1431,.F.);
#1482 = ORIENTED_EDGE('',*,*,#1483,.F.);
#1483 = EDGE_CURVE('',#1326,#1432,#1484,.T.);
#1484 = SURFACE_CURVE('',#1485,(#1490,#1497),.PCURVE_S1.);
#1485 = CIRCLE('',#1486,0.8);
#1486 = AXIS2_PLACEMENT_3D('',#1487,#1488,#1489);
#1487 = CARTESIAN_POINT('',(81.2,7.,4.8));
#1488 = DIRECTION('',(-0.,0.,-1.));
#1489 = DIRECTION('',(-1.,-0.,0.));
#1490 = PCURVE('',#1213,#1491);
#1491 = DEFINITIONAL_REPRESENTATION('',(#1492),#1496);
#1492 = LINE('',#1493,#1494);
#1493 = CARTESIAN_POINT('',(0.,0.));
#1494 = VECTOR('',#1495,1.);
#1495 = DIRECTION('',(1.,0.));
#1496 = ( GEOMETRIC_REPRESENTATION_CONTEXT(2) 
PARAMETRIC_REPRESENTATION_CONTEXT() REPRESENTATION_CONTEXT('2D SPACE',''
  ) );
#1497 = PCURVE('',#1362,#1498);
#1498 = DEFINITIONAL_REPRESENTATION('',(#1499),#1507);
#1499 = ( BOUNDED_CURVE() B_SPLINE_CURVE(2,(#1500,#1501,#1502,#1503,
#1504,#1505,#1506),.UNSPECIFIED.,.T.,.F.) B_SPLINE_CURVE_WITH_KNOTS((1,2
    ,2,2,2,1),(-2.094395102393,0.,2.094395102393,4.188790204786,
6.28318530718,8.377580409573),.UNSPECIFIED.) CURVE() 
GEOMETRIC_REPRESENTATION_ITEM() RATIONAL_B_SPLINE_CURVE((1.,0.5,1.,0.5,
1.,0.5,1.)) REPRESENTATION_ITEM('') );
#1500 = CARTESIAN_POINT('',(1.9,0.));
#1501 = CARTESIAN_POINT('',(1.9,1.385640646055));
#1502 = CARTESIAN_POINT('',(3.1,0.692820323028));
#1503 = CARTESIAN_POINT('',(4.3,1.959434878636E-16));
#1504 = CARTESIAN_POINT('',(3.1,-0.692820323028));
#1505 = CARTESIAN_POINT('',(1.9,-1.385640646055));
#1506 = CARTESIAN_POINT('',(1.9,0.));
#1507 = ( GEOMETRIC_REPRESENTATION_CONTEXT(2) 
PARAMETRIC_REPRESENTATION_CONTEXT() REPRESENTATION_CONTEXT('2D SPACE',''
  ) );
#1508 = ADVANCED_FACE('',(#1509),#1362,.F.);
#1509 = FACE_BOUND('',#1510,.T.);
#1510 = EDGE_LOOP('',(#1511,#1512,#1513,#1514));
#1511 = ORIENTED_EDGE('',*,*,#1483,.T.);
#1512 = ORIENTED_EDGE('',*,*,#1454,.F.);
#1513 = ORIENTED_EDGE('',*,*,#1402,.T.);
#1514 = ORIENTED_EDGE('',*,*,#1348,.F.);
#1515 = ( GEOMETRIC_REPRESENTATION_CONTEXT(3) 
GLOBAL_UNCERTAINTY_ASSIGNED_CONTEXT((#1519)) 
GLOBAL_UNIT_ASSIGNED_CONTEXT((#1516,#1517,#1518)) REPRESENTATION_CONTEXT
('Context #1','3D Context with UNIT and UNCERTAINTY') );
#1516 = ( LENGTH_UNIT() NAMED_UNIT(*) SI_UNIT(.MILLI.,.METRE.) );
#1517 = ( NAMED_UNIT(*) PLANE_ANGLE_UNIT() SI_UNIT($,.RADIAN.) );
#1518 = ( NAMED_UNIT(*) SI_UNIT($,.STERADIAN.) SOLID_ANGLE_UNIT() );
#1519 = UNCERTAINTY_MEASURE_WITH_UNIT(LENGTH_MEASURE(1.E-07),#1516,
  'distance_accuracy_value','confusion accuracy');
#1520 = CONTEXT_DEPENDENT_SHAPE_REPRESENTATION(#1521,#1523);
#1521 = ( REPRESENTATION_RELATIONSHIP('','',#32,#10) 
REPRESENTATION_RELATIONSHIP_WITH_TRANSFORMATION(#1522) 
SHAPE_REPRESENTATION_RELATIONSHIP() );
#1522 = ITEM_DEFINED_TRANSFORMATION('','',#11,#15);
#1523 = PRODUCT_DEFINITION_SHAPE('Placement','Placement of an item',
  #1524);
#1524 = NEXT_ASSEMBLY_USAGE_OCCURRENCE('76','=>[0:1:1:2]','',#5,#27,$);
#1525 = PRODUCT_RELATED_PRODUCT_CATEGORY('part',$,(#29));
#1526 = MECHANICAL_DESIGN_GEOMETRIC_PRESENTATION_REPRESENTATION('',(
    #1527),#1515);
#1527 = STYLED_ITEM('color',(#1528),#33);
#1528 = PRESENTATION_STYLE_ASSIGNMENT((#1529));
#1529 = SURFACE_STYLE_USAGE(.BOTH.,#1530);
#1530 = SURFACE_SIDE_STYLE('',(#1531));
#1531 = SURFACE_STYLE_FILL_AREA(#1532);
#1532 = FILL_AREA_STYLE('',(#1533));
#1533 = FILL_AREA_STYLE_COLOUR('',#1534);
#1534 = COLOUR_RGB('',0.599999994755,0.389999993588,0.199999998682);

#1535=DESCRIPTIVE_REPRESENTATION_ITEM('cadgen:generator','cadgen');
#1536=REPRESENTATION('cadgen:generator',(#1535),#19);
#1537=PROPERTY_DEFINITION('cadgen metadata','cadgen:generator',#5);
#1538=PROPERTY_DEFINITION_REPRESENTATION(#1537,#1536);
#1539=DESCRIPTIVE_REPRESENTATION_ITEM('cadgen:entryKind','part');
#1540=REPRESENTATION('cadgen:entryKind',(#1539),#19);
#1541=PROPERTY_DEFINITION('cadgen metadata','cadgen:entryKind',#5);
#1542=PROPERTY_DEFINITION_REPRESENTATION(#1541,#1540);
#1543=DESCRIPTIVE_REPRESENTATION_ITEM('cadgen:sourcePath','part_lane_06_cocoa_brown.step.py');
#1544=REPRESENTATION('cadgen:sourcePath',(#1543),#19);
#1545=PROPERTY_DEFINITION('cadgen metadata','cadgen:sourcePath',#5);
#1546=PROPERTY_DEFINITION_REPRESENTATION(#1545,#1544);
#1547=DESCRIPTIVE_REPRESENTATION_ITEM('cadgen:sourceHash','7c676064ae1f4900cb9ca6850d468bb7a8045391b834635d0c3ec37f3f0120f5');
#1548=REPRESENTATION('cadgen:sourceHash',(#1547),#19);
#1549=PROPERTY_DEFINITION('cadgen metadata','cadgen:sourceHash',#5);
#1550=PROPERTY_DEFINITION_REPRESENTATION(#1549,#1548);
ENDSEC;
END-ISO-10303-21;
