ISO-10303-21;
HEADER;
FILE_DESCRIPTION(('Open CASCADE Model'),'2;1');
FILE_NAME('lane_08_cocoa_brown','1970-01-01T00:00:00',('Author'),(
    'Open CASCADE'),'Open CASCADE STEP processor 7.9','cadgen','Unknown'
  );
FILE_SCHEMA(('AUTOMOTIVE_DESIGN { 1 0 10303 214 1 1 1 1 }'));
ENDSEC;
DATA;
#1 = APPLICATION_PROTOCOL_DEFINITION('international standard',
  'automotive_design',2000,#2);
#2 = APPLICATION_CONTEXT(
  'core data for automotive mechanical design processes');
#3 = SHAPE_DEFINITION_REPRESENTATION(#4,#10);
#4 = PRODUCT_DEFINITION_SHAPE('','',#5);
#5 = PRODUCT_DEFINITION('design','',#6,#9);
#6 = PRODUCT_DEFINITION_FORMATION('','',#7);
#7 = PRODUCT('=>[0:1:1:2]','=>[0:1:1:2]','',(#8));
#8 = PRODUCT_CONTEXT('',#2,'mechanical');
#9 = PRODUCT_DEFINITION_CONTEXT('part definition',#2,'design');
#10 = SHAPE_REPRESENTATION('',(#11,#15),#19);
#11 = AXIS2_PLACEMENT_3D('',#12,#13,#14);
#12 = CARTESIAN_POINT('',(0.,0.,0.));
#13 = DIRECTION('',(0.,0.,1.));
#14 = DIRECTION('',(1.,0.,-0.));
#15 = AXIS2_PLACEMENT_3D('',#16,#17,#18);
#16 = CARTESIAN_POINT('',(0.,0.,8.8));
#17 = DIRECTION('',(0.,-1.224646799147E-16,-1.));
#18 = DIRECTION('',(1.,0.,0.));
#19 = ( GEOMETRIC_REPRESENTATION_CONTEXT(3) 
GLOBAL_UNCERTAINTY_ASSIGNED_CONTEXT((#23)) GLOBAL_UNIT_ASSIGNED_CONTEXT(
(#20,#21,#22)) REPRESENTATION_CONTEXT('Context #1',
  '3D Context with UNIT and UNCERTAINTY') );
#20 = ( LENGTH_UNIT() NAMED_UNIT(*) SI_UNIT(.MILLI.,.METRE.) );
#21 = ( NAMED_UNIT(*) PLANE_ANGLE_UNIT() SI_UNIT($,.RADIAN.) );
#22 = ( NAMED_UNIT(*) SI_UNIT($,.STERADIAN.) SOLID_ANGLE_UNIT() );
#23 = UNCERTAINTY_MEASURE_WITH_UNIT(LENGTH_MEASURE(1.E-07),#20,
  'distance_accuracy_value','confusion accuracy');
#24 = PRODUCT_RELATED_PRODUCT_CATEGORY('part',$,(#7));
#25 = SHAPE_DEFINITION_REPRESENTATION(#26,#32);
#26 = PRODUCT_DEFINITION_SHAPE('','',#27);
#27 = PRODUCT_DEFINITION('design','',#28,#31);
#28 = PRODUCT_DEFINITION_FORMATION('','',#29);
#29 = PRODUCT('lane_08_cocoa_brown','lane_08_cocoa_brown','',(#30));
#30 = PRODUCT_CONTEXT('',#2,'mechanical');
#31 = PRODUCT_DEFINITION_CONTEXT('part definition',#2,'design');
#32 = ADVANCED_BREP_SHAPE_REPRESENTATION('',(#11,#33),#1465);
#33 = MANIFOLD_SOLID_BREP('',#34);
#34 = CLOSED_SHELL('',(#35,#155,#306,#480,#616,#696,#744,#819,#851,#958,
    #1054,#1081,#1233,#1240,#1247,#1323,#1377,#1426,#1458));
#35 = ADVANCED_FACE('',(#36),#50,.F.);
#36 = FACE_BOUND('',#37,.F.);
#37 = EDGE_LOOP('',(#38,#73,#101,#129));
#38 = ORIENTED_EDGE('',*,*,#39,.F.);
#39 = EDGE_CURVE('',#40,#42,#44,.T.);
#40 = VERTEX_POINT('',#41);
#41 = CARTESIAN_POINT('',(82.79854487085,34.891595940424,8.));
#42 = VERTEX_POINT('',#43);
#43 = CARTESIAN_POINT('',(82.79854487085,34.891595940424,8.65));
#44 = SURFACE_CURVE('',#45,(#49,#61),.PCURVE_S1.);
#45 = LINE('',#46,#47);
#46 = CARTESIAN_POINT('',(82.79854487085,34.891595940424,6.));
#47 = VECTOR('',#48,1.);
#48 = DIRECTION('',(0.,0.,1.));
#49 = PCURVE('',#50,#55);
#50 = PLANE('',#51);
#51 = AXIS2_PLACEMENT_3D('',#52,#53,#54);
#52 = CARTESIAN_POINT('',(24.267058069759,10.64706028155,6.));
#53 = DIRECTION('',(-0.382683432365,0.923879532511,0.));
#54 = DIRECTION('',(0.923879532511,0.382683432365,0.));
#55 = DEFINITIONAL_REPRESENTATION('',(#56),#60);
#56 = LINE('',#57,#58);
#57 = CARTESIAN_POINT('',(63.354024785019,0.));
#58 = VECTOR('',#59,1.);
#59 = DIRECTION('',(0.,-1.));
#60 = ( GEOMETRIC_REPRESENTATION_CONTEXT(2) 
PARAMETRIC_REPRESENTATION_CONTEXT() REPRESENTATION_CONTEXT('2D SPACE',''
  ) );
#61 = PCURVE('',#62,#67);
#62 = CYLINDRICAL_SURFACE('',#63,89.85);
#63 = AXIS2_PLACEMENT_3D('',#64,#65,#66);
#64 = CARTESIAN_POINT('',(-1.932454854582E-13,-6.873747765696E-14,6.));
#65 = DIRECTION('',(-0.,-0.,-1.));
#66 = DIRECTION('',(0.921519698062,0.388331618703,-0.));
#67 = DEFINITIONAL_REPRESENTATION('',(#68),#72);
#68 = LINE('',#69,#70);
#69 = CARTESIAN_POINT('',(-0.,0.));
#70 = VECTOR('',#71,1.);
#71 = DIRECTION('',(-0.,-1.));
#72 = ( GEOMETRIC_REPRESENTATION_CONTEXT(2) 
PARAMETRIC_REPRESENTATION_CONTEXT() REPRESENTATION_CONTEXT('2D SPACE',''
  ) );
#73 = ORIENTED_EDGE('',*,*,#74,.F.);
#74 = EDGE_CURVE('',#75,#40,#77,.T.);
#75 = VERTEX_POINT('',#76);
#76 = CARTESIAN_POINT('',(24.267058069759,10.64706028155,8.));
#77 = SURFACE_CURVE('',#78,(#82,#89),.PCURVE_S1.);
#78 = LINE('',#79,#80);
#79 = CARTESIAN_POINT('',(-0.210475887801,0.508133742881,8.));
#80 = VECTOR('',#81,1.);
#81 = DIRECTION('',(0.923879532511,0.382683432365,0.));
#82 = PCURVE('',#50,#83);
#83 = DEFINITIONAL_REPRESENTATION('',(#84),#88);
#84 = LINE('',#85,#86);
#85 = CARTESIAN_POINT('',(-26.49429183805,-2.));
#86 = VECTOR('',#87,1.);
#87 = DIRECTION('',(1.,0.));
#88 = ( GEOMETRIC_REPRESENTATION_CONTEXT(2) 
PARAMETRIC_REPRESENTATION_CONTEXT() REPRESENTATION_CONTEXT('2D SPACE',''
  ) );
#89 = PCURVE('',#90,#95);
#90 = PLANE('',#91);
#91 = AXIS2_PLACEMENT_3D('',#92,#93,#94);
#92 = CARTESIAN_POINT('',(-0.44008594722,1.062461462388,6.));
#93 = DIRECTION('',(0.366544250438,-0.884916100617,-0.287347885566));
#94 = DIRECTION('',(0.109963275131,-0.265474830185,0.957826285221));
#95 = DEFINITIONAL_REPRESENTATION('',(#96),#100);
#96 = LINE('',#97,#98);
#97 = CARTESIAN_POINT('',(2.088061301782,0.));
#98 = VECTOR('',#99,1.);
#99 = DIRECTION('',(0.,-1.));
#100 = ( GEOMETRIC_REPRESENTATION_CONTEXT(2) 
PARAMETRIC_REPRESENTATION_CONTEXT() REPRESENTATION_CONTEXT('2D SPACE',''
  ) );
#101 = ORIENTED_EDGE('',*,*,#102,.T.);
#102 = EDGE_CURVE('',#75,#103,#105,.T.);
#103 = VERTEX_POINT('',#104);
#104 = CARTESIAN_POINT('',(24.267058069759,10.64706028155,8.65));
#105 = SURFACE_CURVE('',#106,(#110,#117),.PCURVE_S1.);
#106 = LINE('',#107,#108);
#107 = CARTESIAN_POINT('',(24.267058069759,10.64706028155,6.));
#108 = VECTOR('',#109,1.);
#109 = DIRECTION('',(0.,0.,1.));
#110 = PCURVE('',#50,#111);
#111 = DEFINITIONAL_REPRESENTATION('',(#112),#116);
#112 = LINE('',#113,#114);
#113 = CARTESIAN_POINT('',(0.,0.));
#114 = VECTOR('',#115,1.);
#115 = DIRECTION('',(0.,-1.));
#116 = ( GEOMETRIC_REPRESENTATION_CONTEXT(2) 
PARAMETRIC_REPRESENTATION_CONTEXT() REPRESENTATION_CONTEXT('2D SPACE',''
  ) );
#117 = PCURVE('',#118,#123);
#118 = CYLINDRICAL_SURFACE('',#119,26.500000000001);
#119 = AXIS2_PLACEMENT_3D('',#120,#121,#122);
#120 = CARTESIAN_POINT('',(-5.22410603731E-13,-3.094621295266E-13,6.));
#121 = DIRECTION('',(0.,0.,-1.));
#122 = DIRECTION('',(0.805817121295,0.59216447633,0.));
#123 = DEFINITIONAL_REPRESENTATION('',(#124),#128);
#124 = LINE('',#125,#126);
#125 = CARTESIAN_POINT('',(0.22028697317,0.));
#126 = VECTOR('',#127,1.);
#127 = DIRECTION('',(0.,-1.));
#128 = ( GEOMETRIC_REPRESENTATION_CONTEXT(2) 
PARAMETRIC_REPRESENTATION_CONTEXT() REPRESENTATION_CONTEXT('2D SPACE',''
  ) );
#129 = ORIENTED_EDGE('',*,*,#130,.T.);
#130 = EDGE_CURVE('',#103,#42,#131,.T.);
#131 = SURFACE_CURVE('',#132,(#136,#143),.PCURVE_S1.);
#132 = LINE('',#133,#134);
#133 = CARTESIAN_POINT('',(24.267058069759,10.64706028155,8.65));
#134 = VECTOR('',#135,1.);
#135 = DIRECTION('',(0.923879532511,0.382683432365,0.));
#136 = PCURVE('',#50,#137);
#137 = DEFINITIONAL_REPRESENTATION('',(#138),#142);
#138 = LINE('',#139,#140);
#139 = CARTESIAN_POINT('',(0.,-2.65));
#140 = VECTOR('',#141,1.);
#141 = DIRECTION('',(1.,0.));
#142 = ( GEOMETRIC_REPRESENTATION_CONTEXT(2) 
PARAMETRIC_REPRESENTATION_CONTEXT() REPRESENTATION_CONTEXT('2D SPACE',''
  ) );
#143 = PCURVE('',#144,#149);
#144 = CYLINDRICAL_SURFACE('',#145,0.15);
#145 = AXIS2_PLACEMENT_3D('',#146,#147,#148);
#146 = CARTESIAN_POINT('',(24.209655554904,10.785642211427,8.65));
#147 = DIRECTION('',(0.923879532511,0.382683432365,0.));
#148 = DIRECTION('',(0.382683432365,-0.923879532511,-0.));
#149 = DEFINITIONAL_REPRESENTATION('',(#150),#154);
#150 = LINE('',#151,#152);
#151 = CARTESIAN_POINT('',(-0.,0.));
#152 = VECTOR('',#153,1.);
#153 = DIRECTION('',(-0.,1.));
#154 = ( GEOMETRIC_REPRESENTATION_CONTEXT(2) 
PARAMETRIC_REPRESENTATION_CONTEXT() REPRESENTATION_CONTEXT('2D SPACE',''
  ) );
#155 = ADVANCED_FACE('',(#156),#62,.T.);
#156 = FACE_BOUND('',#157,.F.);
#157 = EDGE_LOOP('',(#158,#159,#188,#216,#248,#281));
#158 = ORIENTED_EDGE('',*,*,#39,.T.);
#159 = ORIENTED_EDGE('',*,*,#160,.T.);
#160 = EDGE_CURVE('',#42,#161,#163,.T.);
#161 = VERTEX_POINT('',#162);
#162 = CARTESIAN_POINT('',(71.616280898414,54.25984528433,8.65));
#163 = SURFACE_CURVE('',#164,(#169,#176),.PCURVE_S1.);
#164 = CIRCLE('',#165,89.85);
#165 = AXIS2_PLACEMENT_3D('',#166,#167,#168);
#166 = CARTESIAN_POINT('',(-1.918465386552E-13,-6.750155989721E-14,8.65)
  );
#167 = DIRECTION('',(0.,0.,1.));
#168 = DIRECTION('',(0.921519698062,0.388331618703,-0.));
#169 = PCURVE('',#62,#170);
#170 = DEFINITIONAL_REPRESENTATION('',(#171),#175);
#171 = LINE('',#172,#173);
#172 = CARTESIAN_POINT('',(-0.,-2.65));
#173 = VECTOR('',#174,1.);
#174 = DIRECTION('',(-1.,0.));
#175 = ( GEOMETRIC_REPRESENTATION_CONTEXT(2) 
PARAMETRIC_REPRESENTATION_CONTEXT() REPRESENTATION_CONTEXT('2D SPACE',''
  ) );
#176 = PCURVE('',#177,#182);
#177 = TOROIDAL_SURFACE('',#178,89.7,0.15);
#178 = AXIS2_PLACEMENT_3D('',#179,#180,#181);
#179 = CARTESIAN_POINT('',(-1.918465386552E-13,-6.750155989721E-14,8.65)
  );
#180 = DIRECTION('',(0.,0.,1.));
#181 = DIRECTION('',(0.921519698062,0.388331618703,-0.));
#182 = DEFINITIONAL_REPRESENTATION('',(#183),#187);
#183 = LINE('',#184,#185);
#184 = CARTESIAN_POINT('',(0.,0.));
#185 = VECTOR('',#186,1.);
#186 = DIRECTION('',(1.,0.));
#187 = ( GEOMETRIC_REPRESENTATION_CONTEXT(2) 
PARAMETRIC_REPRESENTATION_CONTEXT() REPRESENTATION_CONTEXT('2D SPACE',''
  ) );
#188 = ORIENTED_EDGE('',*,*,#189,.F.);
#189 = EDGE_CURVE('',#190,#161,#192,.T.);
#190 = VERTEX_POINT('',#191);
#191 = CARTESIAN_POINT('',(71.616280898414,54.25984528433,8.));
#192 = SURFACE_CURVE('',#193,(#197,#204),.PCURVE_S1.);
#193 = LINE('',#194,#195);
#194 = CARTESIAN_POINT('',(71.616280898414,54.25984528433,6.));
#195 = VECTOR('',#196,1.);
#196 = DIRECTION('',(0.,0.,1.));
#197 = PCURVE('',#62,#198);
#198 = DEFINITIONAL_REPRESENTATION('',(#199),#203);
#199 = LINE('',#200,#201);
#200 = CARTESIAN_POINT('',(-0.249556684742,0.));
#201 = VECTOR('',#202,1.);
#202 = DIRECTION('',(-0.,-1.));
#203 = ( GEOMETRIC_REPRESENTATION_CONTEXT(2) 
PARAMETRIC_REPRESENTATION_CONTEXT() REPRESENTATION_CONTEXT('2D SPACE',''
  ) );
#204 = PCURVE('',#205,#210);
#205 = PLANE('',#206);
#206 = AXIS2_PLACEMENT_3D('',#207,#208,#209);
#207 = CARTESIAN_POINT('',(71.616280898414,54.25984528433,6.));
#208 = DIRECTION('',(0.608761429009,-0.793353340291,0.));
#209 = DIRECTION('',(-0.793353340291,-0.608761429009,0.));
#210 = DEFINITIONAL_REPRESENTATION('',(#211),#215);
#211 = LINE('',#212,#213);
#212 = CARTESIAN_POINT('',(0.,0.));
#213 = VECTOR('',#214,1.);
#214 = DIRECTION('',(0.,-1.));
#215 = ( GEOMETRIC_REPRESENTATION_CONTEXT(2) 
PARAMETRIC_REPRESENTATION_CONTEXT() REPRESENTATION_CONTEXT('2D SPACE',''
  ) );
#216 = ORIENTED_EDGE('',*,*,#217,.T.);
#217 = EDGE_CURVE('',#190,#218,#220,.T.);
#218 = VERTEX_POINT('',#219);
#219 = CARTESIAN_POINT('',(71.652499302318,54.212008298266,7.8));
#220 = SURFACE_CURVE('',#221,(#226,#236),.PCURVE_S1.);
#221 = ELLIPSE('',#222,312.68717994187,89.85);
#222 = AXIS2_PLACEMENT_3D('',#223,#224,#225);
#223 = CARTESIAN_POINT('',(-1.932454854582E-13,-6.873747765696E-14,
    9.833333333334));
#224 = DIRECTION('',(-0.583087698133,0.759894682799,-0.287347885566));
#225 = DIRECTION('',(0.17492630944,-0.22796840484,-0.957826285221));
#226 = PCURVE('',#62,#227);
#227 = DEFINITIONAL_REPRESENTATION('',(#228),#235);
#228 = B_SPLINE_CURVE_WITH_KNOTS('',5,(#229,#230,#231,#232,#233,#234),
  .UNSPECIFIED.,.F.,.F.,(6,6),(4.718510331913,4.719178127475),
  .PIECEWISE_BEZIER_KNOTS.);
#229 = CARTESIAN_POINT('',(-0.249556684742,-2.));
#230 = CARTESIAN_POINT('',(-0.249423125629,-1.95999979527));
#231 = CARTESIAN_POINT('',(-0.249289566517,-1.919999631417));
#232 = CARTESIAN_POINT('',(-0.249156007405,-1.879999509931));
#233 = CARTESIAN_POINT('',(-0.249022448292,-1.839999432296));
#234 = CARTESIAN_POINT('',(-0.24888888918,-1.7999994));
#235 = ( GEOMETRIC_REPRESENTATION_CONTEXT(2) 
PARAMETRIC_REPRESENTATION_CONTEXT() REPRESENTATION_CONTEXT('2D SPACE',''
  ) );
#236 = PCURVE('',#237,#242);
#237 = PLANE('',#238);
#238 = AXIS2_PLACEMENT_3D('',#239,#240,#241);
#239 = CARTESIAN_POINT('',(0.334818785955,-0.43634433716,8.));
#240 = DIRECTION('',(-0.583087698133,0.759894682799,-0.287347885566));
#241 = DIRECTION('',(0.17492630944,-0.22796840484,-0.957826285221));
#242 = DEFINITIONAL_REPRESENTATION('',(#243),#247);
#243 = ELLIPSE('',#244,312.68717994187,89.85);
#244 = AXIS2_PLACEMENT_2D('',#245,#246);
#245 = CARTESIAN_POINT('',(-1.9140561933,1.951116673228E-13));
#246 = DIRECTION('',(1.,-2.673478322123E-17));
#247 = ( GEOMETRIC_REPRESENTATION_CONTEXT(2) 
PARAMETRIC_REPRESENTATION_CONTEXT() REPRESENTATION_CONTEXT('2D SPACE',''
  ) );
#248 = ORIENTED_EDGE('',*,*,#249,.T.);
#249 = EDGE_CURVE('',#218,#250,#252,.T.);
#250 = VERTEX_POINT('',#251);
#251 = CARTESIAN_POINT('',(82.77522602763,34.946880491321,7.8));
#252 = SURFACE_CURVE('',#253,(#258,#265),.PCURVE_S1.);
#253 = CIRCLE('',#254,89.85);
#254 = AXIS2_PLACEMENT_3D('',#255,#256,#257);
#255 = CARTESIAN_POINT('',(-1.932454854582E-13,-6.873747765696E-14,7.8)
  );
#256 = DIRECTION('',(0.,-0.,-1.));
#257 = DIRECTION('',(0.921519698062,0.388331618703,-0.));
#258 = PCURVE('',#62,#259);
#259 = DEFINITIONAL_REPRESENTATION('',(#260),#264);
#260 = LINE('',#261,#262);
#261 = CARTESIAN_POINT('',(-6.28318530718,-1.8));
#262 = VECTOR('',#263,1.);
#263 = DIRECTION('',(1.,-0.));
#264 = ( GEOMETRIC_REPRESENTATION_CONTEXT(2) 
PARAMETRIC_REPRESENTATION_CONTEXT() REPRESENTATION_CONTEXT('2D SPACE',''
  ) );
#265 = PCURVE('',#266,#271);
#266 = PLANE('',#267);
#267 = AXIS2_PLACEMENT_3D('',#268,#269,#270);
#268 = CARTESIAN_POINT('',(0.,0.,7.8));
#269 = DIRECTION('',(0.,0.,1.));
#270 = DIRECTION('',(1.,0.,-0.));
#271 = DEFINITIONAL_REPRESENTATION('',(#272),#280);
#272 = ( BOUNDED_CURVE() B_SPLINE_CURVE(2,(#273,#274,#275,#276,#277,#278
,#279),.UNSPECIFIED.,.T.,.F.) B_SPLINE_CURVE_WITH_KNOTS((1,2,2,2,2,1),(
    -2.094395102393,0.,2.094395102393,4.188790204786,6.28318530718,
8.377580409573),.UNSPECIFIED.) CURVE() GEOMETRIC_REPRESENTATION_ITEM() 
RATIONAL_B_SPLINE_CURVE((1.,0.5,1.,0.5,1.,0.5,1.)) REPRESENTATION_ITEM(
  '') );
#273 = CARTESIAN_POINT('',(82.79854487085,34.891595940424));
#274 = CARTESIAN_POINT('',(143.23256179682,-108.5196905686));
#275 = CARTESIAN_POINT('',(-11.18226397243,-89.15144122475));
#276 = CARTESIAN_POINT('',(-165.5970897417,-69.78319188084));
#277 = CARTESIAN_POINT('',(-71.61628089841,54.25984528433));
#278 = CARTESIAN_POINT('',(22.364527944871,178.3028824495));
#279 = CARTESIAN_POINT('',(82.79854487085,34.891595940424));
#280 = ( GEOMETRIC_REPRESENTATION_CONTEXT(2) 
PARAMETRIC_REPRESENTATION_CONTEXT() REPRESENTATION_CONTEXT('2D SPACE',''
  ) );
#281 = ORIENTED_EDGE('',*,*,#282,.T.);
#282 = EDGE_CURVE('',#250,#40,#283,.T.);
#283 = SURFACE_CURVE('',#284,(#289,#299),.PCURVE_S1.);
#284 = ELLIPSE('',#285,312.68717994187,89.85);
#285 = AXIS2_PLACEMENT_3D('',#286,#287,#288);
#286 = CARTESIAN_POINT('',(-1.932454854582E-13,-6.873747765696E-14,
    9.833333333333));
#287 = DIRECTION('',(0.366544250438,-0.884916100617,-0.287347885566));
#288 = DIRECTION('',(-0.109963275131,0.265474830185,-0.957826285221));
#289 = PCURVE('',#62,#290);
#290 = DEFINITIONAL_REPRESENTATION('',(#291),#298);
#291 = B_SPLINE_CURVE_WITH_KNOTS('',5,(#292,#293,#294,#295,#296,#297),
  .UNSPECIFIED.,.F.,.F.,(6,6),(1.564007179704,1.564674975266),
  .PIECEWISE_BEZIER_KNOTS.);
#292 = CARTESIAN_POINT('',(-6.677955620219E-04,-1.7999994));
#293 = CARTESIAN_POINT('',(-5.342364496175E-04,-1.839999432296));
#294 = CARTESIAN_POINT('',(-4.006773372128E-04,-1.879999509931));
#295 = CARTESIAN_POINT('',(-2.671182248086E-04,-1.919999631418));
#296 = CARTESIAN_POINT('',(-1.335591124044E-04,-1.959999795269));
#297 = CARTESIAN_POINT('',(0.,-2.));
#298 = ( GEOMETRIC_REPRESENTATION_CONTEXT(2) 
PARAMETRIC_REPRESENTATION_CONTEXT() REPRESENTATION_CONTEXT('2D SPACE',''
  ) );
#299 = PCURVE('',#90,#300);
#300 = DEFINITIONAL_REPRESENTATION('',(#301),#305);
#301 = ELLIPSE('',#302,312.68717994187,89.85);
#302 = AXIS2_PLACEMENT_2D('',#303,#304);
#303 = CARTESIAN_POINT('',(4.002117495082,2.048351659835E-13));
#304 = DIRECTION('',(-1.,1.554961971297E-17));
#305 = ( GEOMETRIC_REPRESENTATION_CONTEXT(2) 
PARAMETRIC_REPRESENTATION_CONTEXT() REPRESENTATION_CONTEXT('2D SPACE',''
  ) );
#306 = ADVANCED_FACE('',(#307),#144,.T.);
#307 = FACE_BOUND('',#308,.F.);
#308 = EDGE_LOOP('',(#309,#388,#416,#479));
#309 = ORIENTED_EDGE('',*,*,#310,.T.);
#310 = EDGE_CURVE('',#103,#311,#313,.T.);
#311 = VERTEX_POINT('',#312);
#312 = CARTESIAN_POINT('',(24.345016221692,10.841710435423,8.8));
#313 = SURFACE_CURVE('',#314,(#335,#359),.PCURVE_S1.);
#314 = B_SPLINE_CURVE_WITH_KNOTS('',7,(#315,#316,#317,#318,#319,#320,
    #321,#322,#323,#324,#325,#326,#327,#328,#329,#330,#331,#332,#333,
    #334),.UNSPECIFIED.,.F.,.F.,(8,6,6,8),(0.,0.497959690115,0.939321084
    ,1.),.UNSPECIFIED.);
#315 = CARTESIAN_POINT('',(24.267058069759,10.64706028155,8.65));
#316 = CARTESIAN_POINT('',(24.267058069759,10.64706028155,8.66684983232)
  );
#317 = CARTESIAN_POINT('',(24.268211226285,10.649928077523,
    8.683700632915));
#318 = CARTESIAN_POINT('',(24.270517909599,10.655664552954,
    8.700195868251));
#319 = CARTESIAN_POINT('',(24.273937545255,10.664171016691,
    8.715981011601));
#320 = CARTESIAN_POINT('',(24.278391406361,10.675255856535,
    8.730726898128));
#321 = CARTESIAN_POINT('',(24.283768867539,10.688649102216,
    8.744146483864));
#322 = CARTESIAN_POINT('',(24.295404287526,10.717653074263,
    8.766515688658));
#323 = CARTESIAN_POINT('',(24.301492940827,10.732839321526,
    8.775800609361));
#324 = CARTESIAN_POINT('',(24.308110950206,10.749357729483,
    8.783696276765));
#325 = CARTESIAN_POINT('',(24.315153075782,10.766949247434,
    8.790072857248));
#326 = CARTESIAN_POINT('',(24.322505344144,10.785332121395,
    8.794835677833));
#327 = CARTESIAN_POINT('',(24.330049424427,10.80421233146,8.797926726526
    ));
#328 = CARTESIAN_POINT('',(24.338714278801,10.825917404796,
    8.799518547519));
#329 = CARTESIAN_POINT('',(24.339762974783,10.828544567842,
    8.799678965248));
#330 = CARTESIAN_POINT('',(24.340812549702,10.831174843601,
    8.799807352711));
#331 = CARTESIAN_POINT('',(24.341863406243,10.833807167277,
    8.799903669985));
#332 = CARTESIAN_POINT('',(24.342913938119,10.836441299448,
    8.799967890382));
#333 = CARTESIAN_POINT('',(24.343965404822,10.839075821901,
    8.800000000456));
#334 = CARTESIAN_POINT('',(24.345016193963,10.841710497687,8.8));
#335 = PCURVE('',#144,#336);
#336 = DEFINITIONAL_REPRESENTATION('',(#337),#358);
#337 = B_SPLINE_CURVE_WITH_KNOTS('',7,(#338,#339,#340,#341,#342,#343,
    #344,#345,#346,#347,#348,#349,#350,#351,#352,#353,#354,#355,#356,
    #357),.UNSPECIFIED.,.F.,.F.,(8,6,6,8),(0.,0.497959690115,0.939321084
    ,1.),.UNSPECIFIED.);
#338 = CARTESIAN_POINT('',(0.,3.552713678801E-15));
#339 = CARTESIAN_POINT('',(-0.112332215469,3.552713678801E-15));
#340 = CARTESIAN_POINT('',(-0.224670991611,2.162835719219E-03));
#341 = CARTESIAN_POINT('',(-0.336954019714,6.489187328329E-03));
#342 = CARTESIAN_POINT('',(-0.449135826127,1.290380145932E-02));
#343 = CARTESIAN_POINT('',(-0.561185442156,2.126061713489E-02));
#344 = CARTESIAN_POINT('',(-0.673084125623,3.135411668179E-02));
#345 = CARTESIAN_POINT('',(-0.883861842436,5.320318263523E-02));
#346 = CARTESIAN_POINT('',(-0.982779085093,6.463989002809E-02));
#347 = CARTESIAN_POINT('',(-1.081577706103,7.707545449359E-02));
#348 = CARTESIAN_POINT('',(-1.180271012191,9.031351264836E-02));
#349 = CARTESIAN_POINT('',(-1.278881080556,0.10414094421));
#350 = CARTESIAN_POINT('',(-1.377437066678,0.118335909166));
#351 = CARTESIAN_POINT('',(-1.48952042579,0.134647362738));
#352 = CARTESIAN_POINT('',(-1.503066766632,0.136621603264));
#353 = CARTESIAN_POINT('',(-1.516613808391,0.138597847004));
#354 = CARTESIAN_POINT('',(-1.530158017674,0.140576058514));
#355 = CARTESIAN_POINT('',(-1.543706074927,0.142554662152));
#356 = CARTESIAN_POINT('',(-1.557250091448,0.144534278814));
#357 = CARTESIAN_POINT('',(-1.570796781036,0.146513328168));
#358 = ( GEOMETRIC_REPRESENTATION_CONTEXT(2) 
PARAMETRIC_REPRESENTATION_CONTEXT() REPRESENTATION_CONTEXT('2D SPACE',''
  ) );
#359 = PCURVE('',#360,#365);
#360 = TOROIDAL_SURFACE('',#361,26.650000000001,0.15);
#361 = AXIS2_PLACEMENT_3D('',#362,#363,#364);
#362 = CARTESIAN_POINT('',(-5.258016244625E-13,-3.090860900556E-13,8.65)
  );
#363 = DIRECTION('',(0.,0.,1.));
#364 = DIRECTION('',(0.805817121295,0.59216447633,-0.));
#365 = DEFINITIONAL_REPRESENTATION('',(#366),#387);
#366 = B_SPLINE_CURVE_WITH_KNOTS('',7,(#367,#368,#369,#370,#371,#372,
    #373,#374,#375,#376,#377,#378,#379,#380,#381,#382,#383,#384,#385,
    #386),.UNSPECIFIED.,.F.,.F.,(8,6,6,8),(0.,0.497959690115,0.939321084
    ,1.),.UNSPECIFIED.);
#367 = CARTESIAN_POINT('',(-0.22028697317,3.14159265359));
#368 = CARTESIAN_POINT('',(-0.22028697317,3.029260438121));
#369 = CARTESIAN_POINT('',(-0.220205356869,2.916921661978));
#370 = CARTESIAN_POINT('',(-0.22004209784,2.804638633875));
#371 = CARTESIAN_POINT('',(-0.21980008038,2.692456827463));
#372 = CARTESIAN_POINT('',(-0.219484900163,2.580407211434));
#373 = CARTESIAN_POINT('',(-0.219104415918,2.468508527967));
#374 = CARTESIAN_POINT('',(-0.218281285626,2.257730811153));
#375 = CARTESIAN_POINT('',(-0.217850603041,2.158813568497));
#376 = CARTESIAN_POINT('',(-0.217382543047,2.060014947486));
#377 = CARTESIAN_POINT('',(-0.216884568969,1.961321641398));
#378 = CARTESIAN_POINT('',(-0.216364756622,1.862711573034));
#379 = CARTESIAN_POINT('',(-0.215831482148,1.764155586912));
#380 = CARTESIAN_POINT('',(-0.21521909375,1.6520722278));
#381 = CARTESIAN_POINT('',(-0.215144982533,1.638525533366));
#382 = CARTESIAN_POINT('',(-0.215070791127,1.624980140077));
#383 = CARTESIAN_POINT('',(-0.214996562242,1.611432425501));
#384 = CARTESIAN_POINT('',(-0.214922279608,1.59788876059));
#385 = CARTESIAN_POINT('',(-0.214848011083,1.58434126006));
#386 = CARTESIAN_POINT('',(-0.214773740171,1.570796326795));
#387 = ( GEOMETRIC_REPRESENTATION_CONTEXT(2) 
PARAMETRIC_REPRESENTATION_CONTEXT() REPRESENTATION_CONTEXT('2D SPACE',''
  ) );
#388 = ORIENTED_EDGE('',*,*,#389,.T.);
#389 = EDGE_CURVE('',#311,#390,#392,.T.);
#390 = VERTEX_POINT('',#391);
#391 = CARTESIAN_POINT('',(82.601592208404,34.972374306537,8.8));
#392 = SURFACE_CURVE('',#393,(#397,#404),.PCURVE_S1.);
#393 = LINE('',#394,#395);
#394 = CARTESIAN_POINT('',(24.209655554904,10.785642211427,8.8));
#395 = VECTOR('',#396,1.);
#396 = DIRECTION('',(0.923879532511,0.382683432365,0.));
#397 = PCURVE('',#144,#398);
#398 = DEFINITIONAL_REPRESENTATION('',(#399),#403);
#399 = LINE('',#400,#401);
#400 = CARTESIAN_POINT('',(-1.570796326795,0.));
#401 = VECTOR('',#402,1.);
#402 = DIRECTION('',(-0.,1.));
#403 = ( GEOMETRIC_REPRESENTATION_CONTEXT(2) 
PARAMETRIC_REPRESENTATION_CONTEXT() REPRESENTATION_CONTEXT('2D SPACE',''
  ) );
#404 = PCURVE('',#405,#410);
#405 = PLANE('',#406);
#406 = AXIS2_PLACEMENT_3D('',#407,#408,#409);
#407 = CARTESIAN_POINT('',(52.974041947999,30.58457737874,8.8));
#408 = DIRECTION('',(0.,0.,1.));
#409 = DIRECTION('',(1.,0.,-0.));
#410 = DEFINITIONAL_REPRESENTATION('',(#411),#415);
#411 = LINE('',#412,#413);
#412 = CARTESIAN_POINT('',(-28.76438639309,-19.79893516731));
#413 = VECTOR('',#414,1.);
#414 = DIRECTION('',(0.923879532511,0.382683432365));
#415 = ( GEOMETRIC_REPRESENTATION_CONTEXT(2) 
PARAMETRIC_REPRESENTATION_CONTEXT() REPRESENTATION_CONTEXT('2D SPACE',''
  ) );
#416 = ORIENTED_EDGE('',*,*,#417,.F.);
#417 = EDGE_CURVE('',#42,#390,#418,.T.);
#418 = SURFACE_CURVE('',#419,(#437,#458),.PCURVE_S1.);
#419 = B_SPLINE_CURVE_WITH_KNOTS('',6,(#420,#421,#422,#423,#424,#425,
    #426,#427,#428,#429,#430,#431,#432,#433,#434,#435,#436),
  .UNSPECIFIED.,.F.,.F.,(7,5,5,7),(0.,0.49784925846,0.939298073162,1.),
  .UNSPECIFIED.);
#420 = CARTESIAN_POINT('',(82.798544870849,34.891595940427,8.65));
#421 = CARTESIAN_POINT('',(82.798544870849,34.891595940427,
    8.669660285557));
#422 = CARTESIAN_POINT('',(82.794487227553,34.893262138601,8.68932198258
    ));
#423 = CARTESIAN_POINT('',(82.786370338991,34.896595200626,
    8.708360118389));
#424 = CARTESIAN_POINT('',(82.774426854307,34.90149895153,8.726154586026
    ));
#425 = CARTESIAN_POINT('',(82.759099630192,34.9077903707,8.742172842501)
  );
#426 = CARTESIAN_POINT('',(82.724881265232,34.921831709424,
    8.768270147155));
#427 = CARTESIAN_POINT('',(82.706589717708,34.929336012602,
    8.778817335035));
#428 = CARTESIAN_POINT('',(82.686487163503,34.937581092035,
    8.787360787329));
#429 = CARTESIAN_POINT('',(82.665050161481,34.946370703182,
    8.793693870958));
#430 = CARTESIAN_POINT('',(82.642796727242,34.95549192577,8.797693769645
    ));
#431 = CARTESIAN_POINT('',(82.617149590229,34.966000652339,
    8.799550614938));
#432 = CARTESIAN_POINT('',(82.614043725696,34.967273195755,
    8.799730307658));
#433 = CARTESIAN_POINT('',(82.61093369016,34.968547396209,8.799865138461
    ));
#434 = CARTESIAN_POINT('',(82.607820850212,34.969822693492,
    8.799955046058));
#435 = CARTESIAN_POINT('',(82.604706570782,34.971098517982,
    8.799999999866));
#436 = CARTESIAN_POINT('',(82.60159221513,34.97237429065,8.8));
#437 = PCURVE('',#144,#438);
#438 = DEFINITIONAL_REPRESENTATION('',(#439),#457);
#439 = B_SPLINE_CURVE_WITH_KNOTS('',6,(#440,#441,#442,#443,#444,#445,
    #446,#447,#448,#449,#450,#451,#452,#453,#454,#455,#456),
  .UNSPECIFIED.,.F.,.F.,(7,5,5,7),(0.,0.49784925846,0.939298073162,1.),
  .UNSPECIFIED.);
#440 = CARTESIAN_POINT('',(0.,63.354024785019));
#441 = CARTESIAN_POINT('',(-0.13106857038,63.354024785019));
#442 = CARTESIAN_POINT('',(-0.262146700174,63.350913637864));
#443 = CARTESIAN_POINT('',(-0.39311973486,63.344690118269));
#444 = CARTESIAN_POINT('',(-0.523913727614,63.335532361451));
#445 = CARTESIAN_POINT('',(-0.654487151284,63.323779474683));
#446 = CARTESIAN_POINT('',(-0.900393528631,63.297539215358));
#447 = CARTESIAN_POINT('',(-1.015783056693,63.283511801481));
#448 = CARTESIAN_POINT('',(-1.130996125237,63.268094718396));
#449 = CARTESIAN_POINT('',(-1.246063068012,63.251653149553));
#450 = CARTESIAN_POINT('',(-1.361034130301,63.234584197899));
#451 = CARTESIAN_POINT('',(-1.491778353688,63.214910848499));
#452 = CARTESIAN_POINT('',(-1.507582567505,63.212528385108));
#453 = CARTESIAN_POINT('',(-1.52338632693,63.210142702334));
#454 = CARTESIAN_POINT('',(-1.539189787483,63.20775484836));
#455 = CARTESIAN_POINT('',(-1.554993060231,63.205365866231));
#456 = CARTESIAN_POINT('',(-1.570796211779,63.202976793851));
#457 = ( GEOMETRIC_REPRESENTATION_CONTEXT(2) 
PARAMETRIC_REPRESENTATION_CONTEXT() REPRESENTATION_CONTEXT('2D SPACE',''
  ) );
#458 = PCURVE('',#177,#459);
#459 = DEFINITIONAL_REPRESENTATION('',(#460),#478);
#460 = B_SPLINE_CURVE_WITH_KNOTS('',6,(#461,#462,#463,#464,#465,#466,
    #467,#468,#469,#470,#471,#472,#473,#474,#475,#476,#477),
  .UNSPECIFIED.,.F.,.F.,(7,5,5,7),(0.,0.49784925846,0.939298073162,1.),
  .UNSPECIFIED.);
#461 = CARTESIAN_POINT('',(3.37507799486E-14,0.));
#462 = CARTESIAN_POINT('',(3.37507799486E-14,0.13106857038));
#463 = CARTESIAN_POINT('',(3.462602837612E-05,0.262146700174));
#464 = CARTESIAN_POINT('',(1.038916096681E-04,0.39311973486));
#465 = CARTESIAN_POINT('',(2.058234710383E-04,0.523913727614));
#466 = CARTESIAN_POINT('',(3.366644420151E-04,0.654487151284));
#467 = CARTESIAN_POINT('',(6.288522938114E-04,0.900393528631));
#468 = CARTESIAN_POINT('',(7.850713361819E-04,1.015783056693));
#469 = CARTESIAN_POINT('',(9.56798774105E-04,1.130996125237));
#470 = CARTESIAN_POINT('',(1.139978299906E-03,1.246063068013));
#471 = CARTESIAN_POINT('',(1.330193306092E-03,1.361034130301));
#472 = CARTESIAN_POINT('',(1.54948243685E-03,1.491778353688));
#473 = CARTESIAN_POINT('',(1.576039357371E-03,1.507582604658));
#474 = CARTESIAN_POINT('',(1.602633092143E-03,1.52338634887));
#475 = CARTESIAN_POINT('',(1.629251960214E-03,1.539189742202));
#476 = CARTESIAN_POINT('',(1.655884186341E-03,1.554992985942));
#477 = CARTESIAN_POINT('',(1.682517901002E-03,1.570796326795));
#478 = ( GEOMETRIC_REPRESENTATION_CONTEXT(2) 
PARAMETRIC_REPRESENTATION_CONTEXT() REPRESENTATION_CONTEXT('2D SPACE',''
  ) );
#479 = ORIENTED_EDGE('',*,*,#130,.F.);
#480 = ADVANCED_FACE('',(#481),#118,.F.);
#481 = FACE_BOUND('',#482,.F.);
#482 = EDGE_LOOP('',(#483,#512,#535,#557,#558,#585));
#483 = ORIENTED_EDGE('',*,*,#484,.F.);
#484 = EDGE_CURVE('',#485,#487,#489,.T.);
#485 = VERTEX_POINT('',#486);
#486 = CARTESIAN_POINT('',(21.354153714326,15.692358622748,8.));
#487 = VERTEX_POINT('',#488);
#488 = CARTESIAN_POINT('',(21.7041334208,15.204624048365,6.));
#489 = SURFACE_CURVE('',#490,(#495,#505),.PCURVE_S1.);
#490 = ELLIPSE('',#491,92.222707495379,26.500000000001);
#491 = AXIS2_PLACEMENT_3D('',#492,#493,#494);
#492 = CARTESIAN_POINT('',(-5.22410603731E-13,-3.094621295266E-13,
    9.833333333334));
#493 = DIRECTION('',(-0.583087698133,0.759894682799,-0.287347885566));
#494 = DIRECTION('',(0.17492630944,-0.22796840484,-0.957826285221));
#495 = PCURVE('',#118,#496);
#496 = DEFINITIONAL_REPRESENTATION('',(#497),#504);
#497 = B_SPLINE_CURVE_WITH_KNOTS('',5,(#498,#499,#500,#501,#502,#503),
  .UNSPECIFIED.,.F.,.F.,(6,6),(4.733145187699,4.755798846018),
  .PIECEWISE_BEZIER_KNOTS.);
#498 = CARTESIAN_POINT('',(-8.881784197001E-16,-2.));
#499 = CARTESIAN_POINT('',(4.530731663866E-03,-1.599871576859));
#500 = CARTESIAN_POINT('',(9.061463327735E-03,-1.199790195972));
#501 = CARTESIAN_POINT('',(1.35921949916E-02,-0.799772969108));
#502 = CARTESIAN_POINT('',(1.812292665547E-02,-0.399837004007));
#503 = CARTESIAN_POINT('',(2.265365831933E-02,5.999999412865E-07));
#504 = ( GEOMETRIC_REPRESENTATION_CONTEXT(2) 
PARAMETRIC_REPRESENTATION_CONTEXT() REPRESENTATION_CONTEXT('2D SPACE',''
  ) );
#505 = PCURVE('',#237,#506);
#506 = DEFINITIONAL_REPRESENTATION('',(#507),#511);
#507 = ELLIPSE('',#508,92.222707495379,26.500000000001);
#508 = AXIS2_PLACEMENT_2D('',#509,#510);
#509 = CARTESIAN_POINT('',(-1.914056193301,6.02818053082E-13));
#510 = DIRECTION('',(1.,-2.673478322123E-17));
#511 = ( GEOMETRIC_REPRESENTATION_CONTEXT(2) 
PARAMETRIC_REPRESENTATION_CONTEXT() REPRESENTATION_CONTEXT('2D SPACE',''
  ) );
#512 = ORIENTED_EDGE('',*,*,#513,.T.);
#513 = EDGE_CURVE('',#485,#514,#516,.T.);
#514 = VERTEX_POINT('',#515);
#515 = CARTESIAN_POINT('',(21.354153714326,15.692358622748,8.65));
#516 = SURFACE_CURVE('',#517,(#521,#528),.PCURVE_S1.);
#517 = LINE('',#518,#519);
#518 = CARTESIAN_POINT('',(21.354153714326,15.692358622748,6.));
#519 = VECTOR('',#520,1.);
#520 = DIRECTION('',(0.,0.,1.));
#521 = PCURVE('',#118,#522);
#522 = DEFINITIONAL_REPRESENTATION('',(#523),#527);
#523 = LINE('',#524,#525);
#524 = CARTESIAN_POINT('',(0.,0.));
#525 = VECTOR('',#526,1.);
#526 = DIRECTION('',(0.,-1.));
#527 = ( GEOMETRIC_REPRESENTATION_CONTEXT(2) 
PARAMETRIC_REPRESENTATION_CONTEXT() REPRESENTATION_CONTEXT('2D SPACE',''
  ) );
#528 = PCURVE('',#205,#529);
#529 = DEFINITIONAL_REPRESENTATION('',(#530),#534);
#530 = LINE('',#531,#532);
#531 = CARTESIAN_POINT('',(63.354024785019,0.));
#532 = VECTOR('',#533,1.);
#533 = DIRECTION('',(0.,-1.));
#534 = ( GEOMETRIC_REPRESENTATION_CONTEXT(2) 
PARAMETRIC_REPRESENTATION_CONTEXT() REPRESENTATION_CONTEXT('2D SPACE',''
  ) );
#535 = ORIENTED_EDGE('',*,*,#536,.T.);
#536 = EDGE_CURVE('',#514,#103,#537,.T.);
#537 = SURFACE_CURVE('',#538,(#543,#550),.PCURVE_S1.);
#538 = CIRCLE('',#539,26.500000000001);
#539 = AXIS2_PLACEMENT_3D('',#540,#541,#542);
#540 = CARTESIAN_POINT('',(-5.258016244625E-13,-3.090860900556E-13,8.65)
  );
#541 = DIRECTION('',(0.,-0.,-1.));
#542 = DIRECTION('',(0.805817121295,0.59216447633,-0.));
#543 = PCURVE('',#118,#544);
#544 = DEFINITIONAL_REPRESENTATION('',(#545),#549);
#545 = LINE('',#546,#547);
#546 = CARTESIAN_POINT('',(1.204139388634E-17,-2.65));
#547 = VECTOR('',#548,1.);
#548 = DIRECTION('',(1.,0.));
#549 = ( GEOMETRIC_REPRESENTATION_CONTEXT(2) 
PARAMETRIC_REPRESENTATION_CONTEXT() REPRESENTATION_CONTEXT('2D SPACE',''
  ) );
#550 = PCURVE('',#360,#551);
#551 = DEFINITIONAL_REPRESENTATION('',(#552),#556);
#552 = LINE('',#553,#554);
#553 = CARTESIAN_POINT('',(-0.,3.14159265359));
#554 = VECTOR('',#555,1.);
#555 = DIRECTION('',(-1.,0.));
#556 = ( GEOMETRIC_REPRESENTATION_CONTEXT(2) 
PARAMETRIC_REPRESENTATION_CONTEXT() REPRESENTATION_CONTEXT('2D SPACE',''
  ) );
#557 = ORIENTED_EDGE('',*,*,#102,.F.);
#558 = ORIENTED_EDGE('',*,*,#559,.F.);
#559 = EDGE_CURVE('',#560,#75,#562,.T.);
#560 = VERTEX_POINT('',#561);
#561 = CARTESIAN_POINT('',(24.019657391276,11.194018885357,6.));
#562 = SURFACE_CURVE('',#563,(#568,#578),.PCURVE_S1.);
#563 = ELLIPSE('',#564,92.222707495379,26.500000000001);
#564 = AXIS2_PLACEMENT_3D('',#565,#566,#567);
#565 = CARTESIAN_POINT('',(-5.22410603731E-13,-3.094621295266E-13,
    9.833333333334));
#566 = DIRECTION('',(0.366544250438,-0.884916100617,-0.287347885566));
#567 = DIRECTION('',(-0.109963275131,0.265474830185,-0.957826285221));
#568 = PCURVE('',#118,#569);
#569 = DEFINITIONAL_REPRESENTATION('',(#570),#577);
#570 = B_SPLINE_CURVE_WITH_KNOTS('',5,(#571,#572,#573,#574,#575,#576),
  .UNSPECIFIED.,.F.,.F.,(6,6),(1.527386461161,1.550040119481),
  .PIECEWISE_BEZIER_KNOTS.);
#571 = CARTESIAN_POINT('',(0.197633314851,5.999999954653E-07));
#572 = CARTESIAN_POINT('',(0.202164046515,-0.399837004007));
#573 = CARTESIAN_POINT('',(0.206694778179,-0.799772969107));
#574 = CARTESIAN_POINT('',(0.211225509843,-1.199790195972));
#575 = CARTESIAN_POINT('',(0.215756241506,-1.599871576859));
#576 = CARTESIAN_POINT('',(0.22028697317,-2.));
#577 = ( GEOMETRIC_REPRESENTATION_CONTEXT(2) 
PARAMETRIC_REPRESENTATION_CONTEXT() REPRESENTATION_CONTEXT('2D SPACE',''
  ) );
#578 = PCURVE('',#90,#579);
#579 = DEFINITIONAL_REPRESENTATION('',(#580),#584);
#580 = ELLIPSE('',#581,92.222707495379,26.500000000001);
#581 = AXIS2_PLACEMENT_2D('',#582,#583);
#582 = CARTESIAN_POINT('',(4.002117495083,6.010518714169E-13));
#583 = DIRECTION('',(-1.,1.554961971297E-17));
#584 = ( GEOMETRIC_REPRESENTATION_CONTEXT(2) 
PARAMETRIC_REPRESENTATION_CONTEXT() REPRESENTATION_CONTEXT('2D SPACE',''
  ) );
#585 = ORIENTED_EDGE('',*,*,#586,.F.);
#586 = EDGE_CURVE('',#487,#560,#587,.T.);
#587 = SURFACE_CURVE('',#588,(#593,#600),.PCURVE_S1.);
#588 = CIRCLE('',#589,26.500000000001);
#589 = AXIS2_PLACEMENT_3D('',#590,#591,#592);
#590 = CARTESIAN_POINT('',(-5.22410603731E-13,-3.094621295266E-13,6.));
#591 = DIRECTION('',(0.,0.,-1.));
#592 = DIRECTION('',(0.805817121295,0.59216447633,0.));
#593 = PCURVE('',#118,#594);
#594 = DEFINITIONAL_REPRESENTATION('',(#595),#599);
#595 = LINE('',#596,#597);
#596 = CARTESIAN_POINT('',(0.,0.));
#597 = VECTOR('',#598,1.);
#598 = DIRECTION('',(1.,0.));
#599 = ( GEOMETRIC_REPRESENTATION_CONTEXT(2) 
PARAMETRIC_REPRESENTATION_CONTEXT() REPRESENTATION_CONTEXT('2D SPACE',''
  ) );
#600 = PCURVE('',#601,#606);
#601 = PLANE('',#602);
#602 = AXIS2_PLACEMENT_3D('',#603,#604,#605);
#603 = CARTESIAN_POINT('',(52.974041947999,30.58457737874,6.));
#604 = DIRECTION('',(0.,0.,1.));
#605 = DIRECTION('',(1.,0.,-0.));
#606 = DEFINITIONAL_REPRESENTATION('',(#607),#615);
#607 = ( BOUNDED_CURVE() B_SPLINE_CURVE(2,(#608,#609,#610,#611,#612,#613
,#614),.UNSPECIFIED.,.T.,.F.) B_SPLINE_CURVE_WITH_KNOTS((1,2,2,2,2,1),(
    -2.094395102393,0.,2.094395102393,4.188790204786,6.28318530718,
8.377580409573),.UNSPECIFIED.) CURVE() GEOMETRIC_REPRESENTATION_ITEM() 
RATIONAL_B_SPLINE_CURVE((1.,0.5,1.,0.5,1.,0.5,1.)) REPRESENTATION_ITEM(
  '') );
#608 = CARTESIAN_POINT('',(-31.61988823367,-14.89221875599));
#609 = CARTESIAN_POINT('',(-4.439925808481,-51.87869794184));
#610 = CARTESIAN_POINT('',(-50.06113759256,-56.92399628303));
#611 = CARTESIAN_POINT('',(-95.68234937665,-61.96929462423));
#612 = CARTESIAN_POINT('',(-77.24110001775,-19.93751709718));
#613 = CARTESIAN_POINT('',(-58.79985065886,22.094260429858));
#614 = CARTESIAN_POINT('',(-31.61988823367,-14.89221875599));
#615 = ( GEOMETRIC_REPRESENTATION_CONTEXT(2) 
PARAMETRIC_REPRESENTATION_CONTEXT() REPRESENTATION_CONTEXT('2D SPACE',''
  ) );
#616 = ADVANCED_FACE('',(#617),#90,.T.);
#617 = FACE_BOUND('',#618,.T.);
#618 = EDGE_LOOP('',(#619,#620,#643,#675,#694,#695));
#619 = ORIENTED_EDGE('',*,*,#559,.F.);
#620 = ORIENTED_EDGE('',*,*,#621,.T.);
#621 = EDGE_CURVE('',#560,#622,#624,.T.);
#622 = VERTEX_POINT('',#623);
#623 = CARTESIAN_POINT('',(77.481909659441,33.338808849841,6.));
#624 = SURFACE_CURVE('',#625,(#629,#636),.PCURVE_S1.);
#625 = LINE('',#626,#627);
#626 = CARTESIAN_POINT('',(-0.44008594722,1.062461462388,6.));
#627 = VECTOR('',#628,1.);
#628 = DIRECTION('',(0.923879532511,0.382683432365,0.));
#629 = PCURVE('',#90,#630);
#630 = DEFINITIONAL_REPRESENTATION('',(#631),#635);
#631 = LINE('',#632,#633);
#632 = CARTESIAN_POINT('',(0.,0.));
#633 = VECTOR('',#634,1.);
#634 = DIRECTION('',(0.,-1.));
#635 = ( GEOMETRIC_REPRESENTATION_CONTEXT(2) 
PARAMETRIC_REPRESENTATION_CONTEXT() REPRESENTATION_CONTEXT('2D SPACE',''
  ) );
#636 = PCURVE('',#601,#637);
#637 = DEFINITIONAL_REPRESENTATION('',(#638),#642);
#638 = LINE('',#639,#640);
#639 = CARTESIAN_POINT('',(-53.41412789521,-29.52211591635));
#640 = VECTOR('',#641,1.);
#641 = DIRECTION('',(0.923879532511,0.382683432365));
#642 = ( GEOMETRIC_REPRESENTATION_CONTEXT(2) 
PARAMETRIC_REPRESENTATION_CONTEXT() REPRESENTATION_CONTEXT('2D SPACE',''
  ) );
#643 = ORIENTED_EDGE('',*,*,#644,.T.);
#644 = EDGE_CURVE('',#622,#645,#647,.T.);
#645 = VERTEX_POINT('',#646);
#646 = CARTESIAN_POINT('',(77.693763854563,32.842069942551,7.8));
#647 = SURFACE_CURVE('',#648,(#653,#660),.PCURVE_S1.);
#648 = ELLIPSE('',#649,293.54661800886,84.35);
#649 = AXIS2_PLACEMENT_3D('',#650,#651,#652);
#650 = CARTESIAN_POINT('',(0.,0.,9.833333333333));
#651 = DIRECTION('',(0.366544250438,-0.884916100617,-0.287347885566));
#652 = DIRECTION('',(0.109963275131,-0.265474830185,0.957826285221));
#653 = PCURVE('',#90,#654);
#654 = DEFINITIONAL_REPRESENTATION('',(#655),#659);
#655 = ELLIPSE('',#656,293.54661800886,84.35);
#656 = AXIS2_PLACEMENT_2D('',#657,#658);
#657 = CARTESIAN_POINT('',(4.002117495082,-5.786170931327E-17));
#658 = DIRECTION('',(1.,-1.554961971297E-17));
#659 = ( GEOMETRIC_REPRESENTATION_CONTEXT(2) 
PARAMETRIC_REPRESENTATION_CONTEXT() REPRESENTATION_CONTEXT('2D SPACE',''
  ) );
#660 = PCURVE('',#661,#666);
#661 = CYLINDRICAL_SURFACE('',#662,84.35);
#662 = AXIS2_PLACEMENT_3D('',#663,#664,#665);
#663 = CARTESIAN_POINT('',(0.,0.,5.));
#664 = DIRECTION('',(0.,0.,1.));
#665 = DIRECTION('',(1.,0.,-0.));
#666 = DEFINITIONAL_REPRESENTATION('',(#667),#674);
#667 = B_SPLINE_CURVE_WITH_KNOTS('',5,(#668,#669,#670,#671,#672,#673),
  .UNSPECIFIED.,.F.,.F.,(6,6),(4.698754886616,4.705157147105),
  .PIECEWISE_BEZIER_KNOTS.);
#668 = CARTESIAN_POINT('',(0.406333175468,0.9999994));
#669 = CARTESIAN_POINT('',(0.40505272337,1.359986386867));
#670 = CARTESIAN_POINT('',(0.403772271272,1.719981229949));
#671 = CARTESIAN_POINT('',(0.402491819174,2.07998269962));
#672 = CARTESIAN_POINT('',(0.401211367076,2.439989566207));
#673 = CARTESIAN_POINT('',(0.399930914978,2.8000006));
#674 = ( GEOMETRIC_REPRESENTATION_CONTEXT(2) 
PARAMETRIC_REPRESENTATION_CONTEXT() REPRESENTATION_CONTEXT('2D SPACE',''
  ) );
#675 = ORIENTED_EDGE('',*,*,#676,.T.);
#676 = EDGE_CURVE('',#645,#250,#677,.T.);
#677 = SURFACE_CURVE('',#678,(#682,#688),.PCURVE_S1.);
#678 = LINE('',#679,#680);
#679 = CARTESIAN_POINT('',(-0.233436893743,0.563566514832,7.8));
#680 = VECTOR('',#681,1.);
#681 = DIRECTION('',(0.923879532511,0.382683432365,-0.));
#682 = PCURVE('',#90,#683);
#683 = DEFINITIONAL_REPRESENTATION('',(#684),#687);
#684 = B_SPLINE_CURVE_WITH_KNOTS('',1,(#685,#686),.UNSPECIFIED.,.F.,.F.,
  (2,2),(84.203354043309,89.873169436816),.PIECEWISE_BEZIER_KNOTS.);
#685 = CARTESIAN_POINT('',(1.879255171604,-84.2033540433));
#686 = CARTESIAN_POINT('',(1.879255171604,-89.87316943681));
#687 = ( GEOMETRIC_REPRESENTATION_CONTEXT(2) 
PARAMETRIC_REPRESENTATION_CONTEXT() REPRESENTATION_CONTEXT('2D SPACE',''
  ) );
#688 = PCURVE('',#266,#689);
#689 = DEFINITIONAL_REPRESENTATION('',(#690),#693);
#690 = B_SPLINE_CURVE_WITH_KNOTS('',1,(#691,#692),.UNSPECIFIED.,.F.,.F.,
  (2,2),(84.203354043309,89.873169436816),.PIECEWISE_BEZIER_KNOTS.);
#691 = CARTESIAN_POINT('',(77.560318475672,32.786795056778));
#692 = CARTESIAN_POINT('',(82.79854487085,34.956539472442));
#693 = ( GEOMETRIC_REPRESENTATION_CONTEXT(2) 
PARAMETRIC_REPRESENTATION_CONTEXT() REPRESENTATION_CONTEXT('2D SPACE',''
  ) );
#694 = ORIENTED_EDGE('',*,*,#282,.T.);
#695 = ORIENTED_EDGE('',*,*,#74,.F.);
#696 = ADVANCED_FACE('',(#697),#266,.F.);
#697 = FACE_BOUND('',#698,.F.);
#698 = EDGE_LOOP('',(#699,#723,#724,#725));
#699 = ORIENTED_EDGE('',*,*,#700,.F.);
#700 = EDGE_CURVE('',#645,#701,#703,.T.);
#701 = VERTEX_POINT('',#702);
#702 = CARTESIAN_POINT('',(67.288948810396,50.863738242405,7.8));
#703 = SURFACE_CURVE('',#704,(#709,#716),.PCURVE_S1.);
#704 = CIRCLE('',#705,84.35);
#705 = AXIS2_PLACEMENT_3D('',#706,#707,#708);
#706 = CARTESIAN_POINT('',(0.,0.,7.8));
#707 = DIRECTION('',(0.,0.,1.));
#708 = DIRECTION('',(1.,0.,-0.));
#709 = PCURVE('',#266,#710);
#710 = DEFINITIONAL_REPRESENTATION('',(#711),#715);
#711 = CIRCLE('',#712,84.35);
#712 = AXIS2_PLACEMENT_2D('',#713,#714);
#713 = CARTESIAN_POINT('',(0.,0.));
#714 = DIRECTION('',(1.,0.));
#715 = ( GEOMETRIC_REPRESENTATION_CONTEXT(2) 
PARAMETRIC_REPRESENTATION_CONTEXT() REPRESENTATION_CONTEXT('2D SPACE',''
  ) );
#716 = PCURVE('',#661,#717);
#717 = DEFINITIONAL_REPRESENTATION('',(#718),#722);
#718 = LINE('',#719,#720);
#719 = CARTESIAN_POINT('',(0.,2.8));
#720 = VECTOR('',#721,1.);
#721 = DIRECTION('',(1.,0.));
#722 = ( GEOMETRIC_REPRESENTATION_CONTEXT(2) 
PARAMETRIC_REPRESENTATION_CONTEXT() REPRESENTATION_CONTEXT('2D SPACE',''
  ) );
#723 = ORIENTED_EDGE('',*,*,#676,.T.);
#724 = ORIENTED_EDGE('',*,*,#249,.F.);
#725 = ORIENTED_EDGE('',*,*,#726,.T.);
#726 = EDGE_CURVE('',#218,#701,#727,.T.);
#727 = SURFACE_CURVE('',#728,(#732,#738),.PCURVE_S1.);
#728 = LINE('',#729,#730);
#729 = CARTESIAN_POINT('',(0.371344471695,-0.483945537578,7.8));
#730 = VECTOR('',#731,1.);
#731 = DIRECTION('',(-0.793353340291,-0.608761429009,0.));
#732 = PCURVE('',#266,#733);
#733 = DEFINITIONAL_REPRESENTATION('',(#734),#737);
#734 = B_SPLINE_CURVE_WITH_KNOTS('',1,(#735,#736),.UNSPECIFIED.,.F.,.F.,
  (2,2),(-89.92651014544,-84.30216723777),.PIECEWISE_BEZIER_KNOTS.);
#735 = CARTESIAN_POINT('',(71.714841676317,54.25984528433));
#736 = CARTESIAN_POINT('',(67.252750443573,50.835962258621));
#737 = ( GEOMETRIC_REPRESENTATION_CONTEXT(2) 
PARAMETRIC_REPRESENTATION_CONTEXT() REPRESENTATION_CONTEXT('2D SPACE',''
  ) );
#738 = PCURVE('',#237,#739);
#739 = DEFINITIONAL_REPRESENTATION('',(#740),#743);
#740 = B_SPLINE_CURVE_WITH_KNOTS('',1,(#741,#742),.UNSPECIFIED.,.F.,.F.,
  (2,2),(-89.92651014544,-84.30216723777),.PIECEWISE_BEZIER_KNOTS.);
#741 = CARTESIAN_POINT('',(0.208806130178,-89.92651014544));
#742 = CARTESIAN_POINT('',(0.208806130178,-84.30216723777));
#743 = ( GEOMETRIC_REPRESENTATION_CONTEXT(2) 
PARAMETRIC_REPRESENTATION_CONTEXT() REPRESENTATION_CONTEXT('2D SPACE',''
  ) );
#744 = ADVANCED_FACE('',(#745),#237,.T.);
#745 = FACE_BOUND('',#746,.T.);
#746 = EDGE_LOOP('',(#747,#748,#769,#770,#771,#798));
#747 = ORIENTED_EDGE('',*,*,#484,.F.);
#748 = ORIENTED_EDGE('',*,*,#749,.T.);
#749 = EDGE_CURVE('',#485,#190,#750,.T.);
#750 = SURFACE_CURVE('',#751,(#755,#762),.PCURVE_S1.);
#751 = LINE('',#752,#753);
#752 = CARTESIAN_POINT('',(0.334818785955,-0.43634433716,8.));
#753 = VECTOR('',#754,1.);
#754 = DIRECTION('',(0.793353340291,0.608761429009,0.));
#755 = PCURVE('',#237,#756);
#756 = DEFINITIONAL_REPRESENTATION('',(#757),#761);
#757 = LINE('',#758,#759);
#758 = CARTESIAN_POINT('',(0.,0.));
#759 = VECTOR('',#760,1.);
#760 = DIRECTION('',(0.,-1.));
#761 = ( GEOMETRIC_REPRESENTATION_CONTEXT(2) 
PARAMETRIC_REPRESENTATION_CONTEXT() REPRESENTATION_CONTEXT('2D SPACE',''
  ) );
#762 = PCURVE('',#205,#763);
#763 = DEFINITIONAL_REPRESENTATION('',(#764),#768);
#764 = LINE('',#765,#766);
#765 = CARTESIAN_POINT('',(89.848316623073,-2.));
#766 = VECTOR('',#767,1.);
#767 = DIRECTION('',(-1.,0.));
#768 = ( GEOMETRIC_REPRESENTATION_CONTEXT(2) 
PARAMETRIC_REPRESENTATION_CONTEXT() REPRESENTATION_CONTEXT('2D SPACE',''
  ) );
#769 = ORIENTED_EDGE('',*,*,#217,.T.);
#770 = ORIENTED_EDGE('',*,*,#726,.T.);
#771 = ORIENTED_EDGE('',*,*,#772,.T.);
#772 = EDGE_CURVE('',#701,#773,#775,.T.);
#773 = VERTEX_POINT('',#774);
#774 = CARTESIAN_POINT('',(67.613210225596,50.431897673886,6.));
#775 = SURFACE_CURVE('',#776,(#781,#788),.PCURVE_S1.);
#776 = ELLIPSE('',#777,293.54661800886,84.35);
#777 = AXIS2_PLACEMENT_3D('',#778,#779,#780);
#778 = CARTESIAN_POINT('',(0.,0.,9.833333333333));
#779 = DIRECTION('',(-0.583087698133,0.759894682799,-0.287347885566));
#780 = DIRECTION('',(-0.17492630944,0.22796840484,0.957826285221));
#781 = PCURVE('',#237,#782);
#782 = DEFINITIONAL_REPRESENTATION('',(#783),#787);
#783 = ELLIPSE('',#784,293.54661800886,84.35);
#784 = AXIS2_PLACEMENT_2D('',#785,#786);
#785 = CARTESIAN_POINT('',(-1.9140561933,-4.683190232519E-17));
#786 = DIRECTION('',(-1.,2.673478322123E-17));
#787 = ( GEOMETRIC_REPRESENTATION_CONTEXT(2) 
PARAMETRIC_REPRESENTATION_CONTEXT() REPRESENTATION_CONTEXT('2D SPACE',''
  ) );
#788 = PCURVE('',#661,#789);
#789 = DEFINITIONAL_REPRESENTATION('',(#790),#797);
#790 = B_SPLINE_CURVE_WITH_KNOTS('',5,(#791,#792,#793,#794,#795,#796),
  .UNSPECIFIED.,.F.,.F.,(6,6),(1.578028160075,1.584430420564),
  .PIECEWISE_BEZIER_KNOTS.);
#791 = CARTESIAN_POINT('',(0.647266636218,2.8000006));
#792 = CARTESIAN_POINT('',(0.64598618412,2.439989566207));
#793 = CARTESIAN_POINT('',(0.644705732023,2.079982699621));
#794 = CARTESIAN_POINT('',(0.643425279925,1.719981229948));
#795 = CARTESIAN_POINT('',(0.642144827827,1.359986386867));
#796 = CARTESIAN_POINT('',(0.640864375729,0.9999994));
#797 = ( GEOMETRIC_REPRESENTATION_CONTEXT(2) 
PARAMETRIC_REPRESENTATION_CONTEXT() REPRESENTATION_CONTEXT('2D SPACE',''
  ) );
#798 = ORIENTED_EDGE('',*,*,#799,.F.);
#799 = EDGE_CURVE('',#487,#773,#800,.T.);
#800 = SURFACE_CURVE('',#801,(#805,#812),.PCURVE_S1.);
#801 = LINE('',#802,#803);
#802 = CARTESIAN_POINT('',(0.70007564336,-0.912356341335,6.));
#803 = VECTOR('',#804,1.);
#804 = DIRECTION('',(0.793353340291,0.608761429009,0.));
#805 = PCURVE('',#237,#806);
#806 = DEFINITIONAL_REPRESENTATION('',(#807),#811);
#807 = LINE('',#808,#809);
#808 = CARTESIAN_POINT('',(2.088061301782,0.));
#809 = VECTOR('',#810,1.);
#810 = DIRECTION('',(0.,-1.));
#811 = ( GEOMETRIC_REPRESENTATION_CONTEXT(2) 
PARAMETRIC_REPRESENTATION_CONTEXT() REPRESENTATION_CONTEXT('2D SPACE',''
  ) );
#812 = PCURVE('',#601,#813);
#813 = DEFINITIONAL_REPRESENTATION('',(#814),#818);
#814 = LINE('',#815,#816);
#815 = CARTESIAN_POINT('',(-52.27396630463,-31.49693372007));
#816 = VECTOR('',#817,1.);
#817 = DIRECTION('',(0.793353340291,0.608761429009));
#818 = ( GEOMETRIC_REPRESENTATION_CONTEXT(2) 
PARAMETRIC_REPRESENTATION_CONTEXT() REPRESENTATION_CONTEXT('2D SPACE',''
  ) );
#819 = ADVANCED_FACE('',(#820),#205,.F.);
#820 = FACE_BOUND('',#821,.F.);
#821 = EDGE_LOOP('',(#822,#823,#824,#825));
#822 = ORIENTED_EDGE('',*,*,#513,.F.);
#823 = ORIENTED_EDGE('',*,*,#749,.T.);
#824 = ORIENTED_EDGE('',*,*,#189,.T.);
#825 = ORIENTED_EDGE('',*,*,#826,.T.);
#826 = EDGE_CURVE('',#161,#514,#827,.T.);
#827 = SURFACE_CURVE('',#828,(#832,#839),.PCURVE_S1.);
#828 = LINE('',#829,#830);
#829 = CARTESIAN_POINT('',(71.616280898414,54.25984528433,8.65));
#830 = VECTOR('',#831,1.);
#831 = DIRECTION('',(-0.793353340291,-0.608761429009,0.));
#832 = PCURVE('',#205,#833);
#833 = DEFINITIONAL_REPRESENTATION('',(#834),#838);
#834 = LINE('',#835,#836);
#835 = CARTESIAN_POINT('',(0.,-2.65));
#836 = VECTOR('',#837,1.);
#837 = DIRECTION('',(1.,0.));
#838 = ( GEOMETRIC_REPRESENTATION_CONTEXT(2) 
PARAMETRIC_REPRESENTATION_CONTEXT() REPRESENTATION_CONTEXT('2D SPACE',''
  ) );
#839 = PCURVE('',#840,#845);
#840 = CYLINDRICAL_SURFACE('',#841,0.15);
#841 = AXIS2_PLACEMENT_3D('',#842,#843,#844);
#842 = CARTESIAN_POINT('',(71.707595112766,54.140842283286,8.65));
#843 = DIRECTION('',(-0.793353340291,-0.608761429009,0.));
#844 = DIRECTION('',(0.,0.,1.));
#845 = DEFINITIONAL_REPRESENTATION('',(#846),#850);
#846 = LINE('',#847,#848);
#847 = CARTESIAN_POINT('',(1.570796326795,0.));
#848 = VECTOR('',#849,1.);
#849 = DIRECTION('',(0.,1.));
#850 = ( GEOMETRIC_REPRESENTATION_CONTEXT(2) 
PARAMETRIC_REPRESENTATION_CONTEXT() REPRESENTATION_CONTEXT('2D SPACE',''
  ) );
#851 = ADVANCED_FACE('',(#852),#177,.T.);
#852 = FACE_BOUND('',#853,.T.);
#853 = EDGE_LOOP('',(#854,#878,#879,#880));
#854 = ORIENTED_EDGE('',*,*,#855,.F.);
#855 = EDGE_CURVE('',#390,#856,#858,.T.);
#856 = VERTEX_POINT('',#857);
#857 = CARTESIAN_POINT('',(71.587760684321,54.048890092252,8.8));
#858 = SURFACE_CURVE('',#859,(#864,#871),.PCURVE_S1.);
#859 = CIRCLE('',#860,89.7);
#860 = AXIS2_PLACEMENT_3D('',#861,#862,#863);
#861 = CARTESIAN_POINT('',(-1.918465386552E-13,-6.750155989721E-14,8.8)
  );
#862 = DIRECTION('',(0.,0.,1.));
#863 = DIRECTION('',(0.921519698062,0.388331618703,-0.));
#864 = PCURVE('',#177,#865);
#865 = DEFINITIONAL_REPRESENTATION('',(#866),#870);
#866 = LINE('',#867,#868);
#867 = CARTESIAN_POINT('',(0.,1.570796326795));
#868 = VECTOR('',#869,1.);
#869 = DIRECTION('',(1.,0.));
#870 = ( GEOMETRIC_REPRESENTATION_CONTEXT(2) 
PARAMETRIC_REPRESENTATION_CONTEXT() REPRESENTATION_CONTEXT('2D SPACE',''
  ) );
#871 = PCURVE('',#405,#872);
#872 = DEFINITIONAL_REPRESENTATION('',(#873),#877);
#873 = CIRCLE('',#874,89.7);
#874 = AXIS2_PLACEMENT_2D('',#875,#876);
#875 = CARTESIAN_POINT('',(-52.97404194799,-30.58457737874));
#876 = DIRECTION('',(0.921519698062,0.388331618703));
#877 = ( GEOMETRIC_REPRESENTATION_CONTEXT(2) 
PARAMETRIC_REPRESENTATION_CONTEXT() REPRESENTATION_CONTEXT('2D SPACE',''
  ) );
#878 = ORIENTED_EDGE('',*,*,#417,.F.);
#879 = ORIENTED_EDGE('',*,*,#160,.T.);
#880 = ORIENTED_EDGE('',*,*,#881,.T.);
#881 = EDGE_CURVE('',#161,#856,#882,.T.);
#882 = SURFACE_CURVE('',#883,(#906,#932),.PCURVE_S1.);
#883 = B_SPLINE_CURVE_WITH_KNOTS('',6,(#884,#885,#886,#887,#888,#889,
    #890,#891,#892,#893,#894,#895,#896,#897,#898,#899,#900,#901,#902,
    #903,#904,#905),.UNSPECIFIED.,.F.,.F.,(7,5,5,5,7),(0.,0.49784942026,
    0.939298350844,0.969464493685,1.),.UNSPECIFIED.);
#884 = CARTESIAN_POINT('',(71.616280898414,54.259845284331,8.65));
#885 = CARTESIAN_POINT('',(71.616280898414,54.259845284331,
    8.669660286793));
#886 = CARTESIAN_POINT('',(71.615695046651,54.255498162508,
    8.689321985053));
#887 = CARTESIAN_POINT('',(71.614523118589,54.246802198732,
    8.708360121981));
#888 = CARTESIAN_POINT('',(71.612798148905,54.234006960538,
    8.726154590502));
#889 = CARTESIAN_POINT('',(71.610583065407,54.217587483561,
    8.742172847538));
#890 = CARTESIAN_POINT('',(71.605634038558,54.180932837854,
    8.768270151769));
#891 = CARTESIAN_POINT('',(71.602987181887,54.161339740708,
    8.778817338963));
#892 = CARTESIAN_POINT('',(71.600076352948,54.139807877781,
    8.787360790504));
#893 = CARTESIAN_POINT('',(71.596969878421,54.116848083437,
    8.793693873331));
#894 = CARTESIAN_POINT('',(71.593742371737,54.093015432489,
    8.797693771187));
#895 = CARTESIAN_POINT('',(71.590246007505,54.067220170311,
    8.799437700797));
#896 = CARTESIAN_POINT('',(71.590022157041,54.065568758037,
    8.799538192029));
#897 = CARTESIAN_POINT('',(71.589798120013,54.063916067648,
    8.799627615392));
#898 = CARTESIAN_POINT('',(71.589573920713,54.062262278634,
    8.799705961468));
#899 = CARTESIAN_POINT('',(71.589349583467,54.060607570638,
    8.799773222713));
#900 = CARTESIAN_POINT('',(71.588897933542,54.057276406461,
    8.799886251967));
#901 = CARTESIAN_POINT('',(71.588670561299,54.055599940408,
    8.799931746722));
#902 = CARTESIAN_POINT('',(71.588443390818,54.053922860358,
    8.799965871838));
#903 = CARTESIAN_POINT('',(71.588215480728,54.052245494859,
    8.799988623395));
#904 = CARTESIAN_POINT('',(71.587988434787,54.050567798688,
    8.799999999444));
#905 = CARTESIAN_POINT('',(71.587760599127,54.048890205091,8.8));
#906 = PCURVE('',#177,#907);
#907 = DEFINITIONAL_REPRESENTATION('',(#908),#931);
#908 = B_SPLINE_CURVE_WITH_KNOTS('',6,(#909,#910,#911,#912,#913,#914,
    #915,#916,#917,#918,#919,#920,#921,#922,#923,#924,#925,#926,#927,
    #928,#929,#930),.UNSPECIFIED.,.F.,.F.,(7,5,5,5,7),(0.,0.49784942026,
    0.939298350844,0.969464493685,1.),.UNSPECIFIED.);
#909 = CARTESIAN_POINT('',(0.249556684742,0.));
#910 = CARTESIAN_POINT('',(0.249556684742,0.131068578621));
#911 = CARTESIAN_POINT('',(0.249522058709,0.262146716662));
#912 = CARTESIAN_POINT('',(0.249452793119,0.393119759568));
#913 = CARTESIAN_POINT('',(0.249350861245,0.523913760514));
#914 = CARTESIAN_POINT('',(0.249220020259,0.654487192337));
#915 = CARTESIAN_POINT('',(0.248927832383,0.90039357779));
#916 = CARTESIAN_POINT('',(0.248771613335,1.015783105834));
#917 = CARTESIAN_POINT('',(0.248599885892,1.130996174366));
#918 = CARTESIAN_POINT('',(0.248416706363,1.246063117142));
#919 = CARTESIAN_POINT('',(0.248226491354,1.361034179446));
#920 = CARTESIAN_POINT('',(0.248020537197,1.483827845258));
#921 = CARTESIAN_POINT('',(0.248007351691,1.491681998918));
#922 = CARTESIAN_POINT('',(0.247994155655,1.499536014599));
#923 = CARTESIAN_POINT('',(0.247980950521,1.50738991133));
#924 = CARTESIAN_POINT('',(0.247967737724,1.515243708222));
#925 = CARTESIAN_POINT('',(0.247941137813,1.53104730402));
#926 = CARTESIAN_POINT('',(0.247927751002,1.538997369419));
#927 = CARTESIAN_POINT('',(0.247914356946,1.546945986538));
#928 = CARTESIAN_POINT('',(0.247900964892,1.554897748066));
#929 = CARTESIAN_POINT('',(0.247887563663,1.562845207011));
#930 = CARTESIAN_POINT('',(0.247874168225,1.570796326795));
#931 = ( GEOMETRIC_REPRESENTATION_CONTEXT(2) 
PARAMETRIC_REPRESENTATION_CONTEXT() REPRESENTATION_CONTEXT('2D SPACE',''
  ) );
#932 = PCURVE('',#840,#933);
#933 = DEFINITIONAL_REPRESENTATION('',(#934),#957);
#934 = B_SPLINE_CURVE_WITH_KNOTS('',6,(#935,#936,#937,#938,#939,#940,
    #941,#942,#943,#944,#945,#946,#947,#948,#949,#950,#951,#952,#953,
    #954,#955,#956),.UNSPECIFIED.,.F.,.F.,(7,5,5,5,7),(0.,0.49784942026,
    0.939298350844,0.969464493685,1.),.UNSPECIFIED.);
#935 = CARTESIAN_POINT('',(1.570796326795,1.42108547152E-14));
#936 = CARTESIAN_POINT('',(1.439727748174,1.421205856057E-14));
#937 = CARTESIAN_POINT('',(1.308649610133,3.111147546143E-03));
#938 = CARTESIAN_POINT('',(1.177676567228,9.334667923611E-03));
#939 = CARTESIAN_POINT('',(1.046882566281,1.849242587148E-02));
#940 = CARTESIAN_POINT('',(0.916309134458,3.024531403111E-02));
#941 = CARTESIAN_POINT('',(0.670402749005,5.648557551411E-02));
#942 = CARTESIAN_POINT('',(0.555013220961,7.051298991191E-02));
#943 = CARTESIAN_POINT('',(0.439800152429,8.593007341862E-02));
#944 = CARTESIAN_POINT('',(0.324733209654,0.102371642576));
#945 = CARTESIAN_POINT('',(0.209762147349,0.119440594433));
#946 = CARTESIAN_POINT('',(8.696848153699E-02,0.13791760734));
#947 = CARTESIAN_POINT('',(7.911432787686E-02,0.139100515949));
#948 = CARTESIAN_POINT('',(7.126031219569E-02,0.140284350637));
#949 = CARTESIAN_POINT('',(6.340641546501E-02,0.141468982863));
#950 = CARTESIAN_POINT('',(5.555261857311E-02,0.142654283972));
#951 = CARTESIAN_POINT('',(3.974902277487E-02,0.145040486212));
#952 = CARTESIAN_POINT('',(3.179950039239E-02,0.146241440612));
#953 = CARTESIAN_POINT('',(2.384862445723E-02,0.147442608719));
#954 = CARTESIAN_POINT('',(1.590104907494E-02,0.148644537369));
#955 = CARTESIAN_POINT('',(7.949122044444E-03,0.149845981742));
#956 = CARTESIAN_POINT('',(9.425632156258E-07,0.151047990199));
#957 = ( GEOMETRIC_REPRESENTATION_CONTEXT(2) 
PARAMETRIC_REPRESENTATION_CONTEXT() REPRESENTATION_CONTEXT('2D SPACE',''
  ) );
#958 = ADVANCED_FACE('',(#959),#360,.T.);
#959 = FACE_BOUND('',#960,.F.);
#960 = EDGE_LOOP('',(#961,#962,#963,#1028));
#961 = ORIENTED_EDGE('',*,*,#310,.F.);
#962 = ORIENTED_EDGE('',*,*,#536,.F.);
#963 = ORIENTED_EDGE('',*,*,#964,.F.);
#964 = EDGE_CURVE('',#965,#514,#967,.T.);
#965 = VERTEX_POINT('',#966);
#966 = CARTESIAN_POINT('',(21.561704768397,15.662547285818,8.8));
#967 = SURFACE_CURVE('',#968,(#986,#1007),.PCURVE_S1.);
#968 = B_SPLINE_CURVE_WITH_KNOTS('',6,(#969,#970,#971,#972,#973,#974,
    #975,#976,#977,#978,#979,#980,#981,#982,#983,#984,#985),
  .UNSPECIFIED.,.F.,.F.,(7,5,5,7),(0.,6.067878035064E-02,0.502040237699,
    1.),.UNSPECIFIED.);
#969 = CARTESIAN_POINT('',(21.561704768397,15.662547285818,8.8));
#970 = CARTESIAN_POINT('',(21.558429807917,15.663022282124,
    8.800000000003));
#971 = CARTESIAN_POINT('',(21.555154663271,15.663497131307,
    8.799955045468));
#972 = CARTESIAN_POINT('',(21.55188077749,15.663971624006,8.799865136773
    ));
#973 = CARTESIAN_POINT('',(21.548609592312,15.664445551558,
    8.799730305174));
#974 = CARTESIAN_POINT('',(21.545342548184,15.664918705995,
    8.799550612804));
#975 = CARTESIAN_POINT('',(21.518358055173,15.668825349641,
    8.797693488865));
#976 = CARTESIAN_POINT('',(21.494930766624,15.672207891526,
    8.793692553476));
#977 = CARTESIAN_POINT('',(21.472351113342,15.675458945742,
    8.787358085171));
#978 = CARTESIAN_POINT('',(21.451167316749,15.678501123298,
    8.778813865712));
#979 = CARTESIAN_POINT('',(21.431884630265,15.681264207259,
    8.768267468758));
#980 = CARTESIAN_POINT('',(21.395792762512,15.686427193454,
    8.742170063173));
#981 = CARTESIAN_POINT('',(21.379616748667,15.688735232333,
    8.726149632232));
#982 = CARTESIAN_POINT('',(21.367008059496,15.690530423253,
    8.708354546258));
#983 = CARTESIAN_POINT('',(21.358437941737,15.691749293551,
    8.689317631045));
#984 = CARTESIAN_POINT('',(21.354153714326,15.692358622748,8.66965813773
    ));
#985 = CARTESIAN_POINT('',(21.354153714326,15.692358622748,8.65));
#986 = PCURVE('',#360,#987);
#987 = DEFINITIONAL_REPRESENTATION('',(#988),#1006);
#988 = B_SPLINE_CURVE_WITH_KNOTS('',6,(#989,#990,#991,#992,#993,#994,
    #995,#996,#997,#998,#999,#1000,#1001,#1002,#1003,#1004,#1005),
  .UNSPECIFIED.,.F.,.F.,(7,5,5,7),(0.,6.067878035064E-02,0.502040237699,
    1.),.UNSPECIFIED.);
#989 = CARTESIAN_POINT('',(-5.513230441991E-03,1.570796326795));
#990 = CARTESIAN_POINT('',(-5.426587237277E-03,1.586599724774));
#991 = CARTESIAN_POINT('',(-5.33992594103E-03,1.602403088427));
#992 = CARTESIAN_POINT('',(-5.253284724261E-03,1.618206565309));
#993 = CARTESIAN_POINT('',(-5.166701762472E-03,1.634010302287));
#994 = CARTESIAN_POINT('',(-5.080215235662E-03,1.649814445535));
#995 = CARTESIAN_POINT('',(-4.365762311035E-03,1.780578326894));
#996 = CARTESIAN_POINT('',(-3.744798250381E-03,1.895564870194));
#997 = CARTESIAN_POINT('',(-3.14560867334E-03,2.010639218182));
#998 = CARTESIAN_POINT('',(-2.582858733568E-03,2.125849251065));
#999 = CARTESIAN_POINT('',(-2.070148632872E-03,2.241224358834));
#1000 = CARTESIAN_POINT('',(-1.109829956843E-03,2.487131695269));
#1001 = CARTESIAN_POINT('',(-6.789702298162E-04,2.617717416971));
#1002 = CARTESIAN_POINT('',(-3.42834712888E-04,2.748511384402));
#1003 = CARTESIAN_POINT('',(-1.142628220272E-04,2.879474965576));
#1004 = CARTESIAN_POINT('',(0.,3.010538402054));
#1005 = CARTESIAN_POINT('',(0.,3.14159265359));
#1006 = ( GEOMETRIC_REPRESENTATION_CONTEXT(2) 
PARAMETRIC_REPRESENTATION_CONTEXT() REPRESENTATION_CONTEXT('2D SPACE',''
  ) );
#1007 = PCURVE('',#840,#1008);
#1008 = DEFINITIONAL_REPRESENTATION('',(#1009),#1027);
#1009 = B_SPLINE_CURVE_WITH_KNOTS('',6,(#1010,#1011,#1012,#1013,#1014,
    #1015,#1016,#1017,#1018,#1019,#1020,#1021,#1022,#1023,#1024,#1025,
    #1026),.UNSPECIFIED.,.F.,.F.,(7,5,5,7),(0.,6.067878035064E-02,
    0.502040237699,1.),.UNSPECIFIED.);
#1010 = CARTESIAN_POINT('',(0.,63.207511455061));
#1011 = CARTESIAN_POINT('',(1.580339797919E-02,63.209820496467));
#1012 = CARTESIAN_POINT('',(3.160676163159E-02,63.212129773545));
#1013 = CARTESIAN_POINT('',(4.741023851401E-02,63.214438268911));
#1014 = CARTESIAN_POINT('',(6.321397549195E-02,63.216744965785));
#1015 = CARTESIAN_POINT('',(7.901811873968E-02,63.219048847986));
#1016 = CARTESIAN_POINT('',(0.209782000099,63.238078871683));
#1017 = CARTESIAN_POINT('',(0.324768543399,63.254605828276));
#1018 = CARTESIAN_POINT('',(0.439842891387,63.270540355219));
#1019 = CARTESIAN_POINT('',(0.55505292427,63.285494630651));
#1020 = CARTESIAN_POINT('',(0.670428032039,63.299110555442));
#1021 = CARTESIAN_POINT('',(0.916335368474,63.324601132427));
#1022 = CARTESIAN_POINT('',(1.046921090176,63.336029381997));
#1023 = CARTESIAN_POINT('',(1.177715057607,63.344939684678));
#1024 = CARTESIAN_POINT('',(1.308678638781,63.350996815005));
#1025 = CARTESIAN_POINT('',(1.43974207526,63.354024785019));
#1026 = CARTESIAN_POINT('',(1.570796326795,63.354024785019));
#1027 = ( GEOMETRIC_REPRESENTATION_CONTEXT(2) 
PARAMETRIC_REPRESENTATION_CONTEXT() REPRESENTATION_CONTEXT('2D SPACE',''
  ) );
#1028 = ORIENTED_EDGE('',*,*,#1029,.T.);
#1029 = EDGE_CURVE('',#965,#311,#1030,.T.);
#1030 = SURFACE_CURVE('',#1031,(#1036,#1043),.PCURVE_S1.);
#1031 = CIRCLE('',#1032,26.650000000001);
#1032 = AXIS2_PLACEMENT_3D('',#1033,#1034,#1035);
#1033 = CARTESIAN_POINT('',(-5.258016244625E-13,-3.090860900556E-13,8.8)
  );
#1034 = DIRECTION('',(0.,-0.,-1.));
#1035 = DIRECTION('',(0.805817121295,0.59216447633,-0.));
#1036 = PCURVE('',#360,#1037);
#1037 = DEFINITIONAL_REPRESENTATION('',(#1038),#1042);
#1038 = LINE('',#1039,#1040);
#1039 = CARTESIAN_POINT('',(-0.,1.570796326795));
#1040 = VECTOR('',#1041,1.);
#1041 = DIRECTION('',(-1.,0.));
#1042 = ( GEOMETRIC_REPRESENTATION_CONTEXT(2) 
PARAMETRIC_REPRESENTATION_CONTEXT() REPRESENTATION_CONTEXT('2D SPACE',''
  ) );
#1043 = PCURVE('',#405,#1044);
#1044 = DEFINITIONAL_REPRESENTATION('',(#1045),#1053);
#1045 = ( BOUNDED_CURVE() B_SPLINE_CURVE(2,(#1046,#1047,#1048,#1049,
#1050,#1051,#1052),.UNSPECIFIED.,.T.,.F.) B_SPLINE_CURVE_WITH_KNOTS((1,2
    ,2,2,2,1),(-2.094395102393,0.,2.094395102393,4.188790204786,
6.28318530718,8.377580409573),.UNSPECIFIED.) CURVE() 
GEOMETRIC_REPRESENTATION_ITEM() RATIONAL_B_SPLINE_CURVE((1.,0.5,1.,0.5,
1.,0.5,1.)) REPRESENTATION_ITEM('') );
#1046 = CARTESIAN_POINT('',(-31.49901566547,-14.80339408454));
#1047 = CARTESIAN_POINT('',(-4.165204396371,-51.99923069974));
#1048 = CARTESIAN_POINT('',(-50.0446494547,-57.07308733344));
#1049 = CARTESIAN_POINT('',(-95.92409451304,-62.14694396713));
#1050 = CARTESIAN_POINT('',(-77.37846072381,-19.87725071823));
#1051 = CARTESIAN_POINT('',(-58.83282693458,22.392442530661));
#1052 = CARTESIAN_POINT('',(-31.49901566547,-14.80339408454));
#1053 = ( GEOMETRIC_REPRESENTATION_CONTEXT(2) 
PARAMETRIC_REPRESENTATION_CONTEXT() REPRESENTATION_CONTEXT('2D SPACE',''
  ) );
#1054 = ADVANCED_FACE('',(#1055),#405,.T.);
#1055 = FACE_BOUND('',#1056,.T.);
#1056 = EDGE_LOOP('',(#1057,#1058,#1059,#1080));
#1057 = ORIENTED_EDGE('',*,*,#389,.T.);
#1058 = ORIENTED_EDGE('',*,*,#855,.T.);
#1059 = ORIENTED_EDGE('',*,*,#1060,.T.);
#1060 = EDGE_CURVE('',#856,#965,#1061,.T.);
#1061 = SURFACE_CURVE('',#1062,(#1066,#1073),.PCURVE_S1.);
#1062 = LINE('',#1063,#1064);
#1063 = CARTESIAN_POINT('',(71.707595112766,54.140842283286,8.8));
#1064 = VECTOR('',#1065,1.);
#1065 = DIRECTION('',(-0.793353340291,-0.608761429009,0.));
#1066 = PCURVE('',#405,#1067);
#1067 = DEFINITIONAL_REPRESENTATION('',(#1068),#1072);
#1068 = LINE('',#1069,#1070);
#1069 = CARTESIAN_POINT('',(18.733553164767,23.556264904546));
#1070 = VECTOR('',#1071,1.);
#1071 = DIRECTION('',(-0.793353340291,-0.608761429009));
#1072 = ( GEOMETRIC_REPRESENTATION_CONTEXT(2) 
PARAMETRIC_REPRESENTATION_CONTEXT() REPRESENTATION_CONTEXT('2D SPACE',''
  ) );
#1073 = PCURVE('',#840,#1074);
#1074 = DEFINITIONAL_REPRESENTATION('',(#1075),#1079);
#1075 = LINE('',#1076,#1077);
#1076 = CARTESIAN_POINT('',(0.,0.));
#1077 = VECTOR('',#1078,1.);
#1078 = DIRECTION('',(0.,1.));
#1079 = ( GEOMETRIC_REPRESENTATION_CONTEXT(2) 
PARAMETRIC_REPRESENTATION_CONTEXT() REPRESENTATION_CONTEXT('2D SPACE',''
  ) );
#1080 = ORIENTED_EDGE('',*,*,#1029,.T.);
#1081 = ADVANCED_FACE('',(#1082,#1109),#601,.F.);
#1082 = FACE_BOUND('',#1083,.F.);
#1083 = EDGE_LOOP('',(#1084,#1106,#1107,#1108));
#1084 = ORIENTED_EDGE('',*,*,#1085,.T.);
#1085 = EDGE_CURVE('',#622,#773,#1086,.T.);
#1086 = SURFACE_CURVE('',#1087,(#1092,#1099),.PCURVE_S1.);
#1087 = CIRCLE('',#1088,84.35);
#1088 = AXIS2_PLACEMENT_3D('',#1089,#1090,#1091);
#1089 = CARTESIAN_POINT('',(0.,0.,6.));
#1090 = DIRECTION('',(0.,0.,1.));
#1091 = DIRECTION('',(1.,0.,-0.));
#1092 = PCURVE('',#601,#1093);
#1093 = DEFINITIONAL_REPRESENTATION('',(#1094),#1098);
#1094 = CIRCLE('',#1095,84.35);
#1095 = AXIS2_PLACEMENT_2D('',#1096,#1097);
#1096 = CARTESIAN_POINT('',(-52.97404194799,-30.58457737874));
#1097 = DIRECTION('',(1.,0.));
#1098 = ( GEOMETRIC_REPRESENTATION_CONTEXT(2) 
PARAMETRIC_REPRESENTATION_CONTEXT() REPRESENTATION_CONTEXT('2D SPACE',''
  ) );
#1099 = PCURVE('',#661,#1100);
#1100 = DEFINITIONAL_REPRESENTATION('',(#1101),#1105);
#1101 = LINE('',#1102,#1103);
#1102 = CARTESIAN_POINT('',(0.,1.));
#1103 = VECTOR('',#1104,1.);
#1104 = DIRECTION('',(1.,0.));
#1105 = ( GEOMETRIC_REPRESENTATION_CONTEXT(2) 
PARAMETRIC_REPRESENTATION_CONTEXT() REPRESENTATION_CONTEXT('2D SPACE',''
  ) );
#1106 = ORIENTED_EDGE('',*,*,#799,.F.);
#1107 = ORIENTED_EDGE('',*,*,#586,.T.);
#1108 = ORIENTED_EDGE('',*,*,#621,.T.);
#1109 = FACE_BOUND('',#1110,.F.);
#1110 = EDGE_LOOP('',(#1111,#1141,#1174,#1202));
#1111 = ORIENTED_EDGE('',*,*,#1112,.T.);
#1112 = EDGE_CURVE('',#1113,#1115,#1117,.T.);
#1113 = VERTEX_POINT('',#1114);
#1114 = CARTESIAN_POINT('',(61.74472560686,44.654998149519,6.));
#1115 = VERTEX_POINT('',#1116);
#1116 = CARTESIAN_POINT('',(66.421262787296,47.354998149519,6.));
#1117 = SURFACE_CURVE('',#1118,(#1122,#1129),.PCURVE_S1.);
#1118 = LINE('',#1119,#1120);
#1119 = CARTESIAN_POINT('',(61.74472560686,44.654998149519,6.));
#1120 = VECTOR('',#1121,1.);
#1121 = DIRECTION('',(0.866025403784,0.5,0.));
#1122 = PCURVE('',#601,#1123);
#1123 = DEFINITIONAL_REPRESENTATION('',(#1124),#1128);
#1124 = LINE('',#1125,#1126);
#1125 = CARTESIAN_POINT('',(8.770683658862,14.070420770779));
#1126 = VECTOR('',#1127,1.);
#1127 = DIRECTION('',(0.866025403784,0.5));
#1128 = ( GEOMETRIC_REPRESENTATION_CONTEXT(2) 
PARAMETRIC_REPRESENTATION_CONTEXT() REPRESENTATION_CONTEXT('2D SPACE',''
  ) );
#1129 = PCURVE('',#1130,#1135);
#1130 = PLANE('',#1131);
#1131 = AXIS2_PLACEMENT_3D('',#1132,#1133,#1134);
#1132 = CARTESIAN_POINT('',(61.74472560686,44.654998149519,4.8));
#1133 = DIRECTION('',(-0.5,0.866025403784,0.));
#1134 = DIRECTION('',(0.866025403784,0.5,0.));
#1135 = DEFINITIONAL_REPRESENTATION('',(#1136),#1140);
#1136 = LINE('',#1137,#1138);
#1137 = CARTESIAN_POINT('',(0.,-1.2));
#1138 = VECTOR('',#1139,1.);
#1139 = DIRECTION('',(1.,0.));
#1140 = ( GEOMETRIC_REPRESENTATION_CONTEXT(2) 
PARAMETRIC_REPRESENTATION_CONTEXT() REPRESENTATION_CONTEXT('2D SPACE',''
  ) );
#1141 = ORIENTED_EDGE('',*,*,#1142,.T.);
#1142 = EDGE_CURVE('',#1115,#1143,#1145,.T.);
#1143 = VERTEX_POINT('',#1144);
#1144 = CARTESIAN_POINT('',(67.221262787296,45.969357503464,6.));
#1145 = SURFACE_CURVE('',#1146,(#1151,#1162),.PCURVE_S1.);
#1146 = CIRCLE('',#1147,0.8);
#1147 = AXIS2_PLACEMENT_3D('',#1148,#1149,#1150);
#1148 = CARTESIAN_POINT('',(66.821262787296,46.662177826491,6.));
#1149 = DIRECTION('',(-0.,0.,-1.));
#1150 = DIRECTION('',(-0.866025403784,-0.5,0.));
#1151 = PCURVE('',#601,#1152);
#1152 = DEFINITIONAL_REPRESENTATION('',(#1153),#1161);
#1153 = ( BOUNDED_CURVE() B_SPLINE_CURVE(2,(#1154,#1155,#1156,#1157,
#1158,#1159,#1160),.UNSPECIFIED.,.T.,.F.) B_SPLINE_CURVE_WITH_KNOTS((1,2
    ,2,2,2,1),(-2.094395102393,0.,2.094395102393,4.188790204786,
6.28318530718,8.377580409573),.UNSPECIFIED.) CURVE() 
GEOMETRIC_REPRESENTATION_ITEM() RATIONAL_B_SPLINE_CURVE((1.,0.5,1.,0.5,
1.,0.5,1.)) REPRESENTATION_ITEM('') );
#1154 = CARTESIAN_POINT('',(13.15440051627,15.677600447751));
#1155 = CARTESIAN_POINT('',(12.461580193242,16.877600447751));
#1156 = CARTESIAN_POINT('',(13.847220839298,16.877600447751));
#1157 = CARTESIAN_POINT('',(15.232861485353,16.877600447751));
#1158 = CARTESIAN_POINT('',(14.540041162325,15.677600447751));
#1159 = CARTESIAN_POINT('',(13.847220839298,14.477600447751));
#1160 = CARTESIAN_POINT('',(13.15440051627,15.677600447751));
#1161 = ( GEOMETRIC_REPRESENTATION_CONTEXT(2) 
PARAMETRIC_REPRESENTATION_CONTEXT() REPRESENTATION_CONTEXT('2D SPACE',''
  ) );
#1162 = PCURVE('',#1163,#1168);
#1163 = CYLINDRICAL_SURFACE('',#1164,0.8);
#1164 = AXIS2_PLACEMENT_3D('',#1165,#1166,#1167);
#1165 = CARTESIAN_POINT('',(66.821262787296,46.662177826491,4.8));
#1166 = DIRECTION('',(-0.,0.,-1.));
#1167 = DIRECTION('',(-0.866025403784,-0.5,0.));
#1168 = DEFINITIONAL_REPRESENTATION('',(#1169),#1173);
#1169 = LINE('',#1170,#1171);
#1170 = CARTESIAN_POINT('',(0.,-1.2));
#1171 = VECTOR('',#1172,1.);
#1172 = DIRECTION('',(1.,0.));
#1173 = ( GEOMETRIC_REPRESENTATION_CONTEXT(2) 
PARAMETRIC_REPRESENTATION_CONTEXT() REPRESENTATION_CONTEXT('2D SPACE',''
  ) );
#1174 = ORIENTED_EDGE('',*,*,#1175,.T.);
#1175 = EDGE_CURVE('',#1143,#1176,#1178,.T.);
#1176 = VERTEX_POINT('',#1177);
#1177 = CARTESIAN_POINT('',(62.54472560686,43.269357503464,6.));
#1178 = SURFACE_CURVE('',#1179,(#1183,#1190),.PCURVE_S1.);
#1179 = LINE('',#1180,#1181);
#1180 = CARTESIAN_POINT('',(67.221262787296,45.969357503464,6.));
#1181 = VECTOR('',#1182,1.);
#1182 = DIRECTION('',(-0.866025403784,-0.5,0.));
#1183 = PCURVE('',#601,#1184);
#1184 = DEFINITIONAL_REPRESENTATION('',(#1185),#1189);
#1185 = LINE('',#1186,#1187);
#1186 = CARTESIAN_POINT('',(14.247220839298,15.384780124724));
#1187 = VECTOR('',#1188,1.);
#1188 = DIRECTION('',(-0.866025403784,-0.5));
#1189 = ( GEOMETRIC_REPRESENTATION_CONTEXT(2) 
PARAMETRIC_REPRESENTATION_CONTEXT() REPRESENTATION_CONTEXT('2D SPACE',''
  ) );
#1190 = PCURVE('',#1191,#1196);
#1191 = PLANE('',#1192);
#1192 = AXIS2_PLACEMENT_3D('',#1193,#1194,#1195);
#1193 = CARTESIAN_POINT('',(64.882994197078,44.619357503464,4.8));
#1194 = DIRECTION('',(-0.5,0.866025403784,0.));
#1195 = DIRECTION('',(0.866025403784,0.5,0.));
#1196 = DEFINITIONAL_REPRESENTATION('',(#1197),#1201);
#1197 = LINE('',#1198,#1199);
#1198 = CARTESIAN_POINT('',(2.7,-1.2));
#1199 = VECTOR('',#1200,1.);
#1200 = DIRECTION('',(-1.,0.));
#1201 = ( GEOMETRIC_REPRESENTATION_CONTEXT(2) 
PARAMETRIC_REPRESENTATION_CONTEXT() REPRESENTATION_CONTEXT('2D SPACE',''
  ) );
#1202 = ORIENTED_EDGE('',*,*,#1203,.T.);
#1203 = EDGE_CURVE('',#1176,#1113,#1204,.T.);
#1204 = SURFACE_CURVE('',#1205,(#1210,#1221),.PCURVE_S1.);
#1205 = CIRCLE('',#1206,0.8);
#1206 = AXIS2_PLACEMENT_3D('',#1207,#1208,#1209);
#1207 = CARTESIAN_POINT('',(62.14472560686,43.962177826491,6.));
#1208 = DIRECTION('',(0.,0.,-1.));
#1209 = DIRECTION('',(0.866025403784,0.5,0.));
#1210 = PCURVE('',#601,#1211);
#1211 = DEFINITIONAL_REPRESENTATION('',(#1212),#1220);
#1212 = ( BOUNDED_CURVE() B_SPLINE_CURVE(2,(#1213,#1214,#1215,#1216,
#1217,#1218,#1219),.UNSPECIFIED.,.T.,.F.) B_SPLINE_CURVE_WITH_KNOTS((1,2
    ,2,2,2,1),(-2.094395102393,0.,2.094395102393,4.188790204786,
6.28318530718,8.377580409573),.UNSPECIFIED.) CURVE() 
GEOMETRIC_REPRESENTATION_ITEM() RATIONAL_B_SPLINE_CURVE((1.,0.5,1.,0.5,
1.,0.5,1.)) REPRESENTATION_ITEM('') );
#1213 = CARTESIAN_POINT('',(9.863503981889,13.777600447751));
#1214 = CARTESIAN_POINT('',(10.556324304917,12.577600447751));
#1215 = CARTESIAN_POINT('',(9.170683658862,12.577600447751));
#1216 = CARTESIAN_POINT('',(7.785043012806,12.577600447751));
#1217 = CARTESIAN_POINT('',(8.477863335834,13.777600447751));
#1218 = CARTESIAN_POINT('',(9.170683658862,14.977600447751));
#1219 = CARTESIAN_POINT('',(9.863503981889,13.777600447751));
#1220 = ( GEOMETRIC_REPRESENTATION_CONTEXT(2) 
PARAMETRIC_REPRESENTATION_CONTEXT() REPRESENTATION_CONTEXT('2D SPACE',''
  ) );
#1221 = PCURVE('',#1222,#1227);
#1222 = CYLINDRICAL_SURFACE('',#1223,0.8);
#1223 = AXIS2_PLACEMENT_3D('',#1224,#1225,#1226);
#1224 = CARTESIAN_POINT('',(62.14472560686,43.962177826491,4.8));
#1225 = DIRECTION('',(0.,0.,-1.));
#1226 = DIRECTION('',(0.866025403784,0.5,0.));
#1227 = DEFINITIONAL_REPRESENTATION('',(#1228),#1232);
#1228 = LINE('',#1229,#1230);
#1229 = CARTESIAN_POINT('',(0.,-1.2));
#1230 = VECTOR('',#1231,1.);
#1231 = DIRECTION('',(1.,0.));
#1232 = ( GEOMETRIC_REPRESENTATION_CONTEXT(2) 
PARAMETRIC_REPRESENTATION_CONTEXT() REPRESENTATION_CONTEXT('2D SPACE',''
  ) );
#1233 = ADVANCED_FACE('',(#1234),#661,.T.);
#1234 = FACE_BOUND('',#1235,.T.);
#1235 = EDGE_LOOP('',(#1236,#1237,#1238,#1239));
#1236 = ORIENTED_EDGE('',*,*,#700,.F.);
#1237 = ORIENTED_EDGE('',*,*,#644,.F.);
#1238 = ORIENTED_EDGE('',*,*,#1085,.T.);
#1239 = ORIENTED_EDGE('',*,*,#772,.F.);
#1240 = ADVANCED_FACE('',(#1241),#840,.T.);
#1241 = FACE_BOUND('',#1242,.T.);
#1242 = EDGE_LOOP('',(#1243,#1244,#1245,#1246));
#1243 = ORIENTED_EDGE('',*,*,#881,.F.);
#1244 = ORIENTED_EDGE('',*,*,#826,.T.);
#1245 = ORIENTED_EDGE('',*,*,#964,.F.);
#1246 = ORIENTED_EDGE('',*,*,#1060,.F.);
#1247 = ADVANCED_FACE('',(#1248),#1130,.T.);
#1248 = FACE_BOUND('',#1249,.T.);
#1249 = EDGE_LOOP('',(#1250,#1273,#1274,#1297));
#1250 = ORIENTED_EDGE('',*,*,#1251,.T.);
#1251 = EDGE_CURVE('',#1252,#1113,#1254,.T.);
#1252 = VERTEX_POINT('',#1253);
#1253 = CARTESIAN_POINT('',(61.74472560686,44.654998149519,4.8));
#1254 = SURFACE_CURVE('',#1255,(#1259,#1266),.PCURVE_S1.);
#1255 = LINE('',#1256,#1257);
#1256 = CARTESIAN_POINT('',(61.74472560686,44.654998149519,4.8));
#1257 = VECTOR('',#1258,1.);
#1258 = DIRECTION('',(0.,0.,1.));
#1259 = PCURVE('',#1130,#1260);
#1260 = DEFINITIONAL_REPRESENTATION('',(#1261),#1265);
#1261 = LINE('',#1262,#1263);
#1262 = CARTESIAN_POINT('',(0.,0.));
#1263 = VECTOR('',#1264,1.);
#1264 = DIRECTION('',(0.,-1.));
#1265 = ( GEOMETRIC_REPRESENTATION_CONTEXT(2) 
PARAMETRIC_REPRESENTATION_CONTEXT() REPRESENTATION_CONTEXT('2D SPACE',''
  ) );
#1266 = PCURVE('',#1222,#1267);
#1267 = DEFINITIONAL_REPRESENTATION('',(#1268),#1272);
#1268 = LINE('',#1269,#1270);
#1269 = CARTESIAN_POINT('',(4.712388980385,0.));
#1270 = VECTOR('',#1271,1.);
#1271 = DIRECTION('',(0.,-1.));
#1272 = ( GEOMETRIC_REPRESENTATION_CONTEXT(2) 
PARAMETRIC_REPRESENTATION_CONTEXT() REPRESENTATION_CONTEXT('2D SPACE',''
  ) );
#1273 = ORIENTED_EDGE('',*,*,#1112,.T.);
#1274 = ORIENTED_EDGE('',*,*,#1275,.F.);
#1275 = EDGE_CURVE('',#1276,#1115,#1278,.T.);
#1276 = VERTEX_POINT('',#1277);
#1277 = CARTESIAN_POINT('',(66.421262787296,47.354998149519,4.8));
#1278 = SURFACE_CURVE('',#1279,(#1283,#1290),.PCURVE_S1.);
#1279 = LINE('',#1280,#1281);
#1280 = CARTESIAN_POINT('',(66.421262787296,47.354998149519,4.8));
#1281 = VECTOR('',#1282,1.);
#1282 = DIRECTION('',(0.,0.,1.));
#1283 = PCURVE('',#1130,#1284);
#1284 = DEFINITIONAL_REPRESENTATION('',(#1285),#1289);
#1285 = LINE('',#1286,#1287);
#1286 = CARTESIAN_POINT('',(5.4,0.));
#1287 = VECTOR('',#1288,1.);
#1288 = DIRECTION('',(0.,-1.));
#1289 = ( GEOMETRIC_REPRESENTATION_CONTEXT(2) 
PARAMETRIC_REPRESENTATION_CONTEXT() REPRESENTATION_CONTEXT('2D SPACE',''
  ) );
#1290 = PCURVE('',#1163,#1291);
#1291 = DEFINITIONAL_REPRESENTATION('',(#1292),#1296);
#1292 = LINE('',#1293,#1294);
#1293 = CARTESIAN_POINT('',(1.570796326795,0.));
#1294 = VECTOR('',#1295,1.);
#1295 = DIRECTION('',(0.,-1.));
#1296 = ( GEOMETRIC_REPRESENTATION_CONTEXT(2) 
PARAMETRIC_REPRESENTATION_CONTEXT() REPRESENTATION_CONTEXT('2D SPACE',''
  ) );
#1297 = ORIENTED_EDGE('',*,*,#1298,.T.);
#1298 = EDGE_CURVE('',#1276,#1252,#1299,.T.);
#1299 = SURFACE_CURVE('',#1300,(#1304,#1311),.PCURVE_S1.);
#1300 = LINE('',#1301,#1302);
#1301 = CARTESIAN_POINT('',(66.421262787296,47.354998149519,4.8));
#1302 = VECTOR('',#1303,1.);
#1303 = DIRECTION('',(-0.866025403784,-0.5,0.));
#1304 = PCURVE('',#1130,#1305);
#1305 = DEFINITIONAL_REPRESENTATION('',(#1306),#1310);
#1306 = LINE('',#1307,#1308);
#1307 = CARTESIAN_POINT('',(5.4,0.));
#1308 = VECTOR('',#1309,1.);
#1309 = DIRECTION('',(-1.,0.));
#1310 = ( GEOMETRIC_REPRESENTATION_CONTEXT(2) 
PARAMETRIC_REPRESENTATION_CONTEXT() REPRESENTATION_CONTEXT('2D SPACE',''
  ) );
#1311 = PCURVE('',#1312,#1317);
#1312 = PLANE('',#1313);
#1313 = AXIS2_PLACEMENT_3D('',#1314,#1315,#1316);
#1314 = CARTESIAN_POINT('',(64.482994197078,45.312177826491,4.8));
#1315 = DIRECTION('',(0.,0.,1.));
#1316 = DIRECTION('',(0.866025403784,0.5,0.));
#1317 = DEFINITIONAL_REPRESENTATION('',(#1318),#1322);
#1318 = LINE('',#1319,#1320);
#1319 = CARTESIAN_POINT('',(2.7,0.8));
#1320 = VECTOR('',#1321,1.);
#1321 = DIRECTION('',(-1.,0.));
#1322 = ( GEOMETRIC_REPRESENTATION_CONTEXT(2) 
PARAMETRIC_REPRESENTATION_CONTEXT() REPRESENTATION_CONTEXT('2D SPACE',''
  ) );
#1323 = ADVANCED_FACE('',(#1324),#1222,.T.);
#1324 = FACE_BOUND('',#1325,.T.);
#1325 = EDGE_LOOP('',(#1326,#1349,#1350,#1351));
#1326 = ORIENTED_EDGE('',*,*,#1327,.T.);
#1327 = EDGE_CURVE('',#1328,#1176,#1330,.T.);
#1328 = VERTEX_POINT('',#1329);
#1329 = CARTESIAN_POINT('',(62.54472560686,43.269357503464,4.8));
#1330 = SURFACE_CURVE('',#1331,(#1335,#1342),.PCURVE_S1.);
#1331 = LINE('',#1332,#1333);
#1332 = CARTESIAN_POINT('',(62.54472560686,43.269357503464,4.8));
#1333 = VECTOR('',#1334,1.);
#1334 = DIRECTION('',(0.,0.,1.));
#1335 = PCURVE('',#1222,#1336);
#1336 = DEFINITIONAL_REPRESENTATION('',(#1337),#1341);
#1337 = LINE('',#1338,#1339);
#1338 = CARTESIAN_POINT('',(1.570796326795,0.));
#1339 = VECTOR('',#1340,1.);
#1340 = DIRECTION('',(0.,-1.));
#1341 = ( GEOMETRIC_REPRESENTATION_CONTEXT(2) 
PARAMETRIC_REPRESENTATION_CONTEXT() REPRESENTATION_CONTEXT('2D SPACE',''
  ) );
#1342 = PCURVE('',#1191,#1343);
#1343 = DEFINITIONAL_REPRESENTATION('',(#1344),#1348);
#1344 = LINE('',#1345,#1346);
#1345 = CARTESIAN_POINT('',(-2.7,0.));
#1346 = VECTOR('',#1347,1.);
#1347 = DIRECTION('',(0.,-1.));
#1348 = ( GEOMETRIC_REPRESENTATION_CONTEXT(2) 
PARAMETRIC_REPRESENTATION_CONTEXT() REPRESENTATION_CONTEXT('2D SPACE',''
  ) );
#1349 = ORIENTED_EDGE('',*,*,#1203,.T.);
#1350 = ORIENTED_EDGE('',*,*,#1251,.F.);
#1351 = ORIENTED_EDGE('',*,*,#1352,.F.);
#1352 = EDGE_CURVE('',#1328,#1252,#1353,.T.);
#1353 = SURFACE_CURVE('',#1354,(#1359,#1366),.PCURVE_S1.);
#1354 = CIRCLE('',#1355,0.8);
#1355 = AXIS2_PLACEMENT_3D('',#1356,#1357,#1358);
#1356 = CARTESIAN_POINT('',(62.14472560686,43.962177826491,4.8));
#1357 = DIRECTION('',(0.,0.,-1.));
#1358 = DIRECTION('',(0.866025403784,0.5,0.));
#1359 = PCURVE('',#1222,#1360);
#1360 = DEFINITIONAL_REPRESENTATION('',(#1361),#1365);
#1361 = LINE('',#1362,#1363);
#1362 = CARTESIAN_POINT('',(0.,0.));
#1363 = VECTOR('',#1364,1.);
#1364 = DIRECTION('',(1.,0.));
#1365 = ( GEOMETRIC_REPRESENTATION_CONTEXT(2) 
PARAMETRIC_REPRESENTATION_CONTEXT() REPRESENTATION_CONTEXT('2D SPACE',''
  ) );
#1366 = PCURVE('',#1312,#1367);
#1367 = DEFINITIONAL_REPRESENTATION('',(#1368),#1376);
#1368 = ( BOUNDED_CURVE() B_SPLINE_CURVE(2,(#1369,#1370,#1371,#1372,
#1373,#1374,#1375),.UNSPECIFIED.,.T.,.F.) B_SPLINE_CURVE_WITH_KNOTS((1,2
    ,2,2,2,1),(-2.094395102393,0.,2.094395102393,4.188790204786,
6.28318530718,8.377580409573),.UNSPECIFIED.) CURVE() 
GEOMETRIC_REPRESENTATION_ITEM() RATIONAL_B_SPLINE_CURVE((1.,0.5,1.,0.5,
1.,0.5,1.)) REPRESENTATION_ITEM('') );
#1369 = CARTESIAN_POINT('',(-1.9,0.));
#1370 = CARTESIAN_POINT('',(-1.9,-1.385640646055));
#1371 = CARTESIAN_POINT('',(-3.1,-0.692820323028));
#1372 = CARTESIAN_POINT('',(-4.3,-1.959434878636E-16));
#1373 = CARTESIAN_POINT('',(-3.1,0.692820323028));
#1374 = CARTESIAN_POINT('',(-1.9,1.385640646055));
#1375 = CARTESIAN_POINT('',(-1.9,0.));
#1376 = ( GEOMETRIC_REPRESENTATION_CONTEXT(2) 
PARAMETRIC_REPRESENTATION_CONTEXT() REPRESENTATION_CONTEXT('2D SPACE',''
  ) );
#1377 = ADVANCED_FACE('',(#1378),#1191,.F.);
#1378 = FACE_BOUND('',#1379,.F.);
#1379 = EDGE_LOOP('',(#1380,#1403,#1424,#1425));
#1380 = ORIENTED_EDGE('',*,*,#1381,.F.);
#1381 = EDGE_CURVE('',#1382,#1143,#1384,.T.);
#1382 = VERTEX_POINT('',#1383);
#1383 = CARTESIAN_POINT('',(67.221262787296,45.969357503464,4.8));
#1384 = SURFACE_CURVE('',#1385,(#1389,#1396),.PCURVE_S1.);
#1385 = LINE('',#1386,#1387);
#1386 = CARTESIAN_POINT('',(67.221262787296,45.969357503464,4.8));
#1387 = VECTOR('',#1388,1.);
#1388 = DIRECTION('',(0.,0.,1.));
#1389 = PCURVE('',#1191,#1390);
#1390 = DEFINITIONAL_REPRESENTATION('',(#1391),#1395);
#1391 = LINE('',#1392,#1393);
#1392 = CARTESIAN_POINT('',(2.7,0.));
#1393 = VECTOR('',#1394,1.);
#1394 = DIRECTION('',(0.,-1.));
#1395 = ( GEOMETRIC_REPRESENTATION_CONTEXT(2) 
PARAMETRIC_REPRESENTATION_CONTEXT() REPRESENTATION_CONTEXT('2D SPACE',''
  ) );
#1396 = PCURVE('',#1163,#1397);
#1397 = DEFINITIONAL_REPRESENTATION('',(#1398),#1402);
#1398 = LINE('',#1399,#1400);
#1399 = CARTESIAN_POINT('',(4.712388980385,0.));
#1400 = VECTOR('',#1401,1.);
#1401 = DIRECTION('',(0.,-1.));
#1402 = ( GEOMETRIC_REPRESENTATION_CONTEXT(2) 
PARAMETRIC_REPRESENTATION_CONTEXT() REPRESENTATION_CONTEXT('2D SPACE',''
  ) );
#1403 = ORIENTED_EDGE('',*,*,#1404,.F.);
#1404 = EDGE_CURVE('',#1328,#1382,#1405,.T.);
#1405 = SURFACE_CURVE('',#1406,(#1410,#1417),.PCURVE_S1.);
#1406 = LINE('',#1407,#1408);
#1407 = CARTESIAN_POINT('',(62.54472560686,43.269357503464,4.8));
#1408 = VECTOR('',#1409,1.);
#1409 = DIRECTION('',(0.866025403784,0.5,0.));
#1410 = PCURVE('',#1191,#1411);
#1411 = DEFINITIONAL_REPRESENTATION('',(#1412),#1416);
#1412 = LINE('',#1413,#1414);
#1413 = CARTESIAN_POINT('',(-2.7,0.));
#1414 = VECTOR('',#1415,1.);
#1415 = DIRECTION('',(1.,0.));
#1416 = ( GEOMETRIC_REPRESENTATION_CONTEXT(2) 
PARAMETRIC_REPRESENTATION_CONTEXT() REPRESENTATION_CONTEXT('2D SPACE',''
  ) );
#1417 = PCURVE('',#1312,#1418);
#1418 = DEFINITIONAL_REPRESENTATION('',(#1419),#1423);
#1419 = LINE('',#1420,#1421);
#1420 = CARTESIAN_POINT('',(-2.7,-0.8));
#1421 = VECTOR('',#1422,1.);
#1422 = DIRECTION('',(1.,0.));
#1423 = ( GEOMETRIC_REPRESENTATION_CONTEXT(2) 
PARAMETRIC_REPRESENTATION_CONTEXT() REPRESENTATION_CONTEXT('2D SPACE',''
  ) );
#1424 = ORIENTED_EDGE('',*,*,#1327,.T.);
#1425 = ORIENTED_EDGE('',*,*,#1175,.F.);
#1426 = ADVANCED_FACE('',(#1427),#1163,.T.);
#1427 = FACE_BOUND('',#1428,.T.);
#1428 = EDGE_LOOP('',(#1429,#1430,#1431,#1432));
#1429 = ORIENTED_EDGE('',*,*,#1275,.T.);
#1430 = ORIENTED_EDGE('',*,*,#1142,.T.);
#1431 = ORIENTED_EDGE('',*,*,#1381,.F.);
#1432 = ORIENTED_EDGE('',*,*,#1433,.F.);
#1433 = EDGE_CURVE('',#1276,#1382,#1434,.T.);
#1434 = SURFACE_CURVE('',#1435,(#1440,#1447),.PCURVE_S1.);
#1435 = CIRCLE('',#1436,0.8);
#1436 = AXIS2_PLACEMENT_3D('',#1437,#1438,#1439);
#1437 = CARTESIAN_POINT('',(66.821262787296,46.662177826491,4.8));
#1438 = DIRECTION('',(-0.,0.,-1.));
#1439 = DIRECTION('',(-0.866025403784,-0.5,0.));
#1440 = PCURVE('',#1163,#1441);
#1441 = DEFINITIONAL_REPRESENTATION('',(#1442),#1446);
#1442 = LINE('',#1443,#1444);
#1443 = CARTESIAN_POINT('',(0.,0.));
#1444 = VECTOR('',#1445,1.);
#1445 = DIRECTION('',(1.,0.));
#1446 = ( GEOMETRIC_REPRESENTATION_CONTEXT(2) 
PARAMETRIC_REPRESENTATION_CONTEXT() REPRESENTATION_CONTEXT('2D SPACE',''
  ) );
#1447 = PCURVE('',#1312,#1448);
#1448 = DEFINITIONAL_REPRESENTATION('',(#1449),#1457);
#1449 = ( BOUNDED_CURVE() B_SPLINE_CURVE(2,(#1450,#1451,#1452,#1453,
#1454,#1455,#1456),.UNSPECIFIED.,.T.,.F.) B_SPLINE_CURVE_WITH_KNOTS((1,2
    ,2,2,2,1),(-2.094395102393,0.,2.094395102393,4.188790204786,
6.28318530718,8.377580409573),.UNSPECIFIED.) CURVE() 
GEOMETRIC_REPRESENTATION_ITEM() RATIONAL_B_SPLINE_CURVE((1.,0.5,1.,0.5,
1.,0.5,1.)) REPRESENTATION_ITEM('') );
#1450 = CARTESIAN_POINT('',(1.9,0.));
#1451 = CARTESIAN_POINT('',(1.9,1.385640646055));
#1452 = CARTESIAN_POINT('',(3.1,0.692820323028));
#1453 = CARTESIAN_POINT('',(4.3,1.959434878636E-16));
#1454 = CARTESIAN_POINT('',(3.1,-0.692820323028));
#1455 = CARTESIAN_POINT('',(1.9,-1.385640646055));
#1456 = CARTESIAN_POINT('',(1.9,0.));
#1457 = ( GEOMETRIC_REPRESENTATION_CONTEXT(2) 
PARAMETRIC_REPRESENTATION_CONTEXT() REPRESENTATION_CONTEXT('2D SPACE',''
  ) );
#1458 = ADVANCED_FACE('',(#1459),#1312,.F.);
#1459 = FACE_BOUND('',#1460,.T.);
#1460 = EDGE_LOOP('',(#1461,#1462,#1463,#1464));
#1461 = ORIENTED_EDGE('',*,*,#1433,.T.);
#1462 = ORIENTED_EDGE('',*,*,#1404,.F.);
#1463 = ORIENTED_EDGE('',*,*,#1352,.T.);
#1464 = ORIENTED_EDGE('',*,*,#1298,.F.);
#1465 = ( GEOMETRIC_REPRESENTATION_CONTEXT(3) 
GLOBAL_UNCERTAINTY_ASSIGNED_CONTEXT((#1469)) 
GLOBAL_UNIT_ASSIGNED_CONTEXT((#1466,#1467,#1468)) REPRESENTATION_CONTEXT
('Context #1','3D Context with UNIT and UNCERTAINTY') );
#1466 = ( LENGTH_UNIT() NAMED_UNIT(*) SI_UNIT(.MILLI.,.METRE.) );
#1467 = ( NAMED_UNIT(*) PLANE_ANGLE_UNIT() SI_UNIT($,.RADIAN.) );
#1468 = ( NAMED_UNIT(*) SI_UNIT($,.STERADIAN.) SOLID_ANGLE_UNIT() );
#1469 = UNCERTAINTY_MEASURE_WITH_UNIT(LENGTH_MEASURE(1.E-07),#1466,
  'distance_accuracy_value','confusion accuracy');
#1470 = CONTEXT_DEPENDENT_SHAPE_REPRESENTATION(#1471,#1473);
#1471 = ( REPRESENTATION_RELATIONSHIP('','',#32,#10) 
REPRESENTATION_RELATIONSHIP_WITH_TRANSFORMATION(#1472) 
SHAPE_REPRESENTATION_RELATIONSHIP() );
#1472 = ITEM_DEFINED_TRANSFORMATION('','',#11,#15);
#1473 = PRODUCT_DEFINITION_SHAPE('Placement','Placement of an item',
  #1474);
#1474 = NEXT_ASSEMBLY_USAGE_OCCURRENCE('78','=>[0:1:1:2]','',#5,#27,$);
#1475 = PRODUCT_RELATED_PRODUCT_CATEGORY('part',$,(#29));
#1476 = MECHANICAL_DESIGN_GEOMETRIC_PRESENTATION_REPRESENTATION('',(
    #1477),#1465);
#1477 = STYLED_ITEM('color',(#1478),#33);
#1478 = PRESENTATION_STYLE_ASSIGNMENT((#1479));
#1479 = SURFACE_STYLE_USAGE(.BOTH.,#1480);
#1480 = SURFACE_SIDE_STYLE('',(#1481));
#1481 = SURFACE_STYLE_FILL_AREA(#1482);
#1482 = FILL_AREA_STYLE('',(#1483));
#1483 = FILL_AREA_STYLE_COLOUR('',#1484);
#1484 = COLOUR_RGB('',0.599999994755,0.389999993588,0.199999998682);

#1485=DESCRIPTIVE_REPRESENTATION_ITEM('cadgen:generator','cadgen');
#1486=REPRESENTATION('cadgen:generator',(#1485),#19);
#1487=PROPERTY_DEFINITION('cadgen metadata','cadgen:generator',#5);
#1488=PROPERTY_DEFINITION_REPRESENTATION(#1487,#1486);
#1489=DESCRIPTIVE_REPRESENTATION_ITEM('cadgen:entryKind','part');
#1490=REPRESENTATION('cadgen:entryKind',(#1489),#19);
#1491=PROPERTY_DEFINITION('cadgen metadata','cadgen:entryKind',#5);
#1492=PROPERTY_DEFINITION_REPRESENTATION(#1491,#1490);
#1493=DESCRIPTIVE_REPRESENTATION_ITEM('cadgen:sourcePath','part_lane_08_cocoa_brown.step.py');
#1494=REPRESENTATION('cadgen:sourcePath',(#1493),#19);
#1495=PROPERTY_DEFINITION('cadgen metadata','cadgen:sourcePath',#5);
#1496=PROPERTY_DEFINITION_REPRESENTATION(#1495,#1494);
#1497=DESCRIPTIVE_REPRESENTATION_ITEM('cadgen:sourceHash','68fd2caccf676c737a929f281bcca42b77d474adc7500454c5d3267e1e016f06');
#1498=REPRESENTATION('cadgen:sourceHash',(#1497),#19);
#1499=PROPERTY_DEFINITION('cadgen metadata','cadgen:sourceHash',#5);
#1500=PROPERTY_DEFINITION_REPRESENTATION(#1499,#1498);
ENDSEC;
END-ISO-10303-21;
