ISO-10303-21;
HEADER;
/* Generated by software containing ST-Developer
 * from STEP Tools, Inc. (www.steptools.com) 
 */

FILE_DESCRIPTION(
/* description */ (''),
/* implementation_level */ '2;1');

FILE_NAME(
/* name */ 'Top_Intern.step',
/* time_stamp */ '2026-10-08T14:43:38+07:00',
/* author */ (''),
/* organization */ (''),
/* preprocessor_version */ 'ST-DEVELOPER v20.2',
/* originating_system */ 'Autodesk Translation Framework v15.15.0.0',
/* authorisation */ '');

FILE_SCHEMA (('AUTOMOTIVE_DESIGN { 1 0 10303 214 3 1 1 }'));
ENDSEC;

DATA;
#10=MECHANICAL_DESIGN_GEOMETRIC_PRESENTATION_REPRESENTATION('',(#13),#466);
#11=SHAPE_REPRESENTATION_RELATIONSHIP('SRR','None',#473,#12);
#12=ADVANCED_BREP_SHAPE_REPRESENTATION('',(#14),#465);
#13=STYLED_ITEM('',(#483),#14);
#14=MANIFOLD_SOLID_BREP('Body1',#282);
#15=CYLINDRICAL_SURFACE('',#314,1.25);
#16=FACE_BOUND('',#42,.T.);
#17=FACE_BOUND('',#49,.T.);
#18=CIRCLE('',#301,1.25);
#19=CIRCLE('',#313,1.25);
#20=FACE_OUTER_BOUND('',#37,.T.);
#21=FACE_OUTER_BOUND('',#38,.T.);
#22=FACE_OUTER_BOUND('',#39,.T.);
#23=FACE_OUTER_BOUND('',#40,.T.);
#24=FACE_OUTER_BOUND('',#41,.T.);
#25=FACE_OUTER_BOUND('',#43,.T.);
#26=FACE_OUTER_BOUND('',#44,.T.);
#27=FACE_OUTER_BOUND('',#45,.T.);
#28=FACE_OUTER_BOUND('',#46,.T.);
#29=FACE_OUTER_BOUND('',#47,.T.);
#30=FACE_OUTER_BOUND('',#48,.T.);
#31=FACE_OUTER_BOUND('',#50,.T.);
#32=FACE_OUTER_BOUND('',#51,.T.);
#33=FACE_OUTER_BOUND('',#52,.T.);
#34=FACE_OUTER_BOUND('',#53,.T.);
#35=FACE_OUTER_BOUND('',#54,.T.);
#36=FACE_OUTER_BOUND('',#55,.T.);
#37=EDGE_LOOP('',(#179,#180,#181,#182));
#38=EDGE_LOOP('',(#183,#184,#185,#186));
#39=EDGE_LOOP('',(#187,#188,#189,#190));
#40=EDGE_LOOP('',(#191,#192,#193,#194));
#41=EDGE_LOOP('',(#195,#196,#197,#198));
#42=EDGE_LOOP('',(#199));
#43=EDGE_LOOP('',(#200,#201,#202,#203));
#44=EDGE_LOOP('',(#204,#205,#206,#207));
#45=EDGE_LOOP('',(#208,#209,#210,#211));
#46=EDGE_LOOP('',(#212,#213,#214,#215));
#47=EDGE_LOOP('',(#216,#217,#218,#219));
#48=EDGE_LOOP('',(#220,#221,#222,#223));
#49=EDGE_LOOP('',(#224,#225,#226,#227));
#50=EDGE_LOOP('',(#228,#229,#230,#231));
#51=EDGE_LOOP('',(#232,#233,#234,#235));
#52=EDGE_LOOP('',(#236,#237,#238,#239));
#53=EDGE_LOOP('',(#240,#241,#242,#243));
#54=EDGE_LOOP('',(#244));
#55=EDGE_LOOP('',(#245,#246,#247,#248));
#56=LINE('',#392,#89);
#57=LINE('',#394,#90);
#58=LINE('',#396,#91);
#59=LINE('',#397,#92);
#60=LINE('',#400,#93);
#61=LINE('',#402,#94);
#62=LINE('',#403,#95);
#63=LINE('',#406,#96);
#64=LINE('',#408,#97);
#65=LINE('',#409,#98);
#66=LINE('',#411,#99);
#67=LINE('',#412,#100);
#68=LINE('',#419,#101);
#69=LINE('',#421,#102);
#70=LINE('',#423,#103);
#71=LINE('',#424,#104);
#72=LINE('',#427,#105);
#73=LINE('',#429,#106);
#74=LINE('',#430,#107);
#75=LINE('',#433,#108);
#76=LINE('',#435,#109);
#77=LINE('',#436,#110);
#78=LINE('',#438,#111);
#79=LINE('',#439,#112);
#80=LINE('',#444,#113);
#81=LINE('',#446,#114);
#82=LINE('',#448,#115);
#83=LINE('',#449,#116);
#84=LINE('',#451,#117);
#85=LINE('',#452,#118);
#86=LINE('',#454,#119);
#87=LINE('',#456,#120);
#88=LINE('',#462,#121);
#89=VECTOR('',#319,8.335891123);
#90=VECTOR('',#320,5.8);
#91=VECTOR('',#321,8.335891123);
#92=VECTOR('',#322,5.8);
#93=VECTOR('',#325,8.335891123);
#94=VECTOR('',#326,8.335891123);
#95=VECTOR('',#327,5.8);
#96=VECTOR('',#330,8.335891123);
#97=VECTOR('',#331,8.335891123);
#98=VECTOR('',#332,5.8);
#99=VECTOR('',#335,8.335891123);
#100=VECTOR('',#336,8.335891123);
#101=VECTOR('',#343,35.275862069);
#102=VECTOR('',#344,39.3047787878382);
#103=VECTOR('',#345,3.);
#104=VECTOR('',#346,39.3047787878382);
#105=VECTOR('',#349,35.275862069);
#106=VECTOR('',#350,39.3047787878382);
#107=VECTOR('',#351,3.);
#108=VECTOR('',#354,35.275862069);
#109=VECTOR('',#355,39.3047787878382);
#110=VECTOR('',#356,3.);
#111=VECTOR('',#359,35.275862069);
#112=VECTOR('',#360,3.);
#113=VECTOR('',#365,11.735891123);
#114=VECTOR('',#366,11.735891123);
#115=VECTOR('',#367,11.735891123);
#116=VECTOR('',#368,11.735891123);
#117=VECTOR('',#371,2.94448637203291);
#118=VECTOR('',#372,2.94448637203291);
#119=VECTOR('',#375,2.94448637203291);
#120=VECTOR('',#378,2.94448637203291);
#121=VECTOR('',#387,1.25);
#122=VERTEX_POINT('',#390);
#123=VERTEX_POINT('',#391);
#124=VERTEX_POINT('',#393);
#125=VERTEX_POINT('',#395);
#126=VERTEX_POINT('',#399);
#127=VERTEX_POINT('',#401);
#128=VERTEX_POINT('',#405);
#129=VERTEX_POINT('',#407);
#130=VERTEX_POINT('',#414);
#131=VERTEX_POINT('',#417);
#132=VERTEX_POINT('',#418);
#133=VERTEX_POINT('',#420);
#134=VERTEX_POINT('',#422);
#135=VERTEX_POINT('',#426);
#136=VERTEX_POINT('',#428);
#137=VERTEX_POINT('',#432);
#138=VERTEX_POINT('',#434);
#139=VERTEX_POINT('',#442);
#140=VERTEX_POINT('',#443);
#141=VERTEX_POINT('',#445);
#142=VERTEX_POINT('',#447);
#143=VERTEX_POINT('',#459);
#144=EDGE_CURVE('',#122,#123,#56,.T.);
#145=EDGE_CURVE('',#124,#123,#57,.T.);
#146=EDGE_CURVE('',#124,#125,#58,.T.);
#147=EDGE_CURVE('',#125,#122,#59,.T.);
#148=EDGE_CURVE('',#126,#122,#60,.T.);
#149=EDGE_CURVE('',#125,#127,#61,.T.);
#150=EDGE_CURVE('',#127,#126,#62,.T.);
#151=EDGE_CURVE('',#128,#126,#63,.T.);
#152=EDGE_CURVE('',#127,#129,#64,.T.);
#153=EDGE_CURVE('',#129,#128,#65,.T.);
#154=EDGE_CURVE('',#123,#128,#66,.T.);
#155=EDGE_CURVE('',#129,#124,#67,.T.);
#156=EDGE_CURVE('',#130,#130,#18,.T.);
#157=EDGE_CURVE('',#131,#132,#68,.T.);
#158=EDGE_CURVE('',#132,#133,#69,.T.);
#159=EDGE_CURVE('',#133,#134,#70,.T.);
#160=EDGE_CURVE('',#134,#131,#71,.T.);
#161=EDGE_CURVE('',#132,#135,#72,.T.);
#162=EDGE_CURVE('',#135,#136,#73,.T.);
#163=EDGE_CURVE('',#136,#133,#74,.T.);
#164=EDGE_CURVE('',#135,#137,#75,.T.);
#165=EDGE_CURVE('',#137,#138,#76,.T.);
#166=EDGE_CURVE('',#138,#136,#77,.T.);
#167=EDGE_CURVE('',#137,#131,#78,.T.);
#168=EDGE_CURVE('',#134,#138,#79,.T.);
#169=EDGE_CURVE('',#139,#140,#80,.T.);
#170=EDGE_CURVE('',#140,#141,#81,.T.);
#171=EDGE_CURVE('',#141,#142,#82,.T.);
#172=EDGE_CURVE('',#142,#139,#83,.T.);
#173=EDGE_CURVE('',#122,#141,#84,.T.);
#174=EDGE_CURVE('',#140,#123,#85,.T.);
#175=EDGE_CURVE('',#142,#126,#86,.T.);
#176=EDGE_CURVE('',#128,#139,#87,.T.);
#177=EDGE_CURVE('',#143,#143,#19,.T.);
#178=EDGE_CURVE('',#143,#130,#88,.T.);
#179=ORIENTED_EDGE('',*,*,#144,.T.);
#180=ORIENTED_EDGE('',*,*,#145,.F.);
#181=ORIENTED_EDGE('',*,*,#146,.T.);
#182=ORIENTED_EDGE('',*,*,#147,.T.);
#183=ORIENTED_EDGE('',*,*,#148,.T.);
#184=ORIENTED_EDGE('',*,*,#147,.F.);
#185=ORIENTED_EDGE('',*,*,#149,.T.);
#186=ORIENTED_EDGE('',*,*,#150,.T.);
#187=ORIENTED_EDGE('',*,*,#151,.T.);
#188=ORIENTED_EDGE('',*,*,#150,.F.);
#189=ORIENTED_EDGE('',*,*,#152,.T.);
#190=ORIENTED_EDGE('',*,*,#153,.T.);
#191=ORIENTED_EDGE('',*,*,#154,.T.);
#192=ORIENTED_EDGE('',*,*,#153,.F.);
#193=ORIENTED_EDGE('',*,*,#155,.T.);
#194=ORIENTED_EDGE('',*,*,#145,.T.);
#195=ORIENTED_EDGE('',*,*,#155,.F.);
#196=ORIENTED_EDGE('',*,*,#152,.F.);
#197=ORIENTED_EDGE('',*,*,#149,.F.);
#198=ORIENTED_EDGE('',*,*,#146,.F.);
#199=ORIENTED_EDGE('',*,*,#156,.F.);
#200=ORIENTED_EDGE('',*,*,#157,.T.);
#201=ORIENTED_EDGE('',*,*,#158,.T.);
#202=ORIENTED_EDGE('',*,*,#159,.T.);
#203=ORIENTED_EDGE('',*,*,#160,.T.);
#204=ORIENTED_EDGE('',*,*,#161,.T.);
#205=ORIENTED_EDGE('',*,*,#162,.T.);
#206=ORIENTED_EDGE('',*,*,#163,.T.);
#207=ORIENTED_EDGE('',*,*,#158,.F.);
#208=ORIENTED_EDGE('',*,*,#164,.T.);
#209=ORIENTED_EDGE('',*,*,#165,.T.);
#210=ORIENTED_EDGE('',*,*,#166,.T.);
#211=ORIENTED_EDGE('',*,*,#162,.F.);
#212=ORIENTED_EDGE('',*,*,#167,.T.);
#213=ORIENTED_EDGE('',*,*,#160,.F.);
#214=ORIENTED_EDGE('',*,*,#168,.T.);
#215=ORIENTED_EDGE('',*,*,#165,.F.);
#216=ORIENTED_EDGE('',*,*,#159,.F.);
#217=ORIENTED_EDGE('',*,*,#163,.F.);
#218=ORIENTED_EDGE('',*,*,#166,.F.);
#219=ORIENTED_EDGE('',*,*,#168,.F.);
#220=ORIENTED_EDGE('',*,*,#167,.F.);
#221=ORIENTED_EDGE('',*,*,#164,.F.);
#222=ORIENTED_EDGE('',*,*,#161,.F.);
#223=ORIENTED_EDGE('',*,*,#157,.F.);
#224=ORIENTED_EDGE('',*,*,#169,.T.);
#225=ORIENTED_EDGE('',*,*,#170,.T.);
#226=ORIENTED_EDGE('',*,*,#171,.T.);
#227=ORIENTED_EDGE('',*,*,#172,.T.);
#228=ORIENTED_EDGE('',*,*,#173,.T.);
#229=ORIENTED_EDGE('',*,*,#170,.F.);
#230=ORIENTED_EDGE('',*,*,#174,.T.);
#231=ORIENTED_EDGE('',*,*,#144,.F.);
#232=ORIENTED_EDGE('',*,*,#175,.F.);
#233=ORIENTED_EDGE('',*,*,#171,.F.);
#234=ORIENTED_EDGE('',*,*,#173,.F.);
#235=ORIENTED_EDGE('',*,*,#148,.F.);
#236=ORIENTED_EDGE('',*,*,#176,.T.);
#237=ORIENTED_EDGE('',*,*,#172,.F.);
#238=ORIENTED_EDGE('',*,*,#175,.T.);
#239=ORIENTED_EDGE('',*,*,#151,.F.);
#240=ORIENTED_EDGE('',*,*,#174,.F.);
#241=ORIENTED_EDGE('',*,*,#169,.F.);
#242=ORIENTED_EDGE('',*,*,#176,.F.);
#243=ORIENTED_EDGE('',*,*,#154,.F.);
#244=ORIENTED_EDGE('',*,*,#177,.T.);
#245=ORIENTED_EDGE('',*,*,#177,.F.);
#246=ORIENTED_EDGE('',*,*,#178,.T.);
#247=ORIENTED_EDGE('',*,*,#156,.T.);
#248=ORIENTED_EDGE('',*,*,#178,.F.);
#249=PLANE('',#296);
#250=PLANE('',#297);
#251=PLANE('',#298);
#252=PLANE('',#299);
#253=PLANE('',#300);
#254=PLANE('',#302);
#255=PLANE('',#303);
#256=PLANE('',#304);
#257=PLANE('',#305);
#258=PLANE('',#306);
#259=PLANE('',#307);
#260=PLANE('',#308);
#261=PLANE('',#309);
#262=PLANE('',#310);
#263=PLANE('',#311);
#264=PLANE('',#312);
#265=ADVANCED_FACE('',(#20),#249,.T.);
#266=ADVANCED_FACE('',(#21),#250,.T.);
#267=ADVANCED_FACE('',(#22),#251,.T.);
#268=ADVANCED_FACE('',(#23),#252,.T.);
#269=ADVANCED_FACE('',(#24,#16),#253,.T.);
#270=ADVANCED_FACE('',(#25),#254,.T.);
#271=ADVANCED_FACE('',(#26),#255,.T.);
#272=ADVANCED_FACE('',(#27),#256,.T.);
#273=ADVANCED_FACE('',(#28),#257,.T.);
#274=ADVANCED_FACE('',(#29),#258,.T.);
#275=ADVANCED_FACE('',(#30,#17),#259,.T.);
#276=ADVANCED_FACE('',(#31),#260,.T.);
#277=ADVANCED_FACE('',(#32),#261,.T.);
#278=ADVANCED_FACE('',(#33),#262,.T.);
#279=ADVANCED_FACE('',(#34),#263,.T.);
#280=ADVANCED_FACE('',(#35),#264,.T.);
#281=ADVANCED_FACE('',(#36),#15,.F.);
#282=CLOSED_SHELL('',(#265,#266,#267,#268,#269,#270,#271,#272,#273,#274,
#275,#276,#277,#278,#279,#280,#281));
#283=DERIVED_UNIT_ELEMENT(#285,1.);
#284=DERIVED_UNIT_ELEMENT(#468,-3.);
#285=(
MASS_UNIT()
NAMED_UNIT(*)
SI_UNIT(.KILO.,.GRAM.)
);
#286=DERIVED_UNIT((#283,#284));
#287=MEASURE_REPRESENTATION_ITEM('density measure',
POSITIVE_RATIO_MEASURE(7850.),#286);
#288=PROPERTY_DEFINITION_REPRESENTATION(#293,#290);
#289=PROPERTY_DEFINITION_REPRESENTATION(#294,#291);
#290=REPRESENTATION('material name',(#292),#465);
#291=REPRESENTATION('density',(#287),#465);
#292=DESCRIPTIVE_REPRESENTATION_ITEM('Steel','Steel');
#293=PROPERTY_DEFINITION('material property','material name',#475);
#294=PROPERTY_DEFINITION('material property','density of part',#475);
#295=AXIS2_PLACEMENT_3D('',#388,#315,#316);
#296=AXIS2_PLACEMENT_3D('',#389,#317,#318);
#297=AXIS2_PLACEMENT_3D('',#398,#323,#324);
#298=AXIS2_PLACEMENT_3D('',#404,#328,#329);
#299=AXIS2_PLACEMENT_3D('',#410,#333,#334);
#300=AXIS2_PLACEMENT_3D('',#413,#337,#338);
#301=AXIS2_PLACEMENT_3D('',#415,#339,#340);
#302=AXIS2_PLACEMENT_3D('',#416,#341,#342);
#303=AXIS2_PLACEMENT_3D('',#425,#347,#348);
#304=AXIS2_PLACEMENT_3D('',#431,#352,#353);
#305=AXIS2_PLACEMENT_3D('',#437,#357,#358);
#306=AXIS2_PLACEMENT_3D('',#440,#361,#362);
#307=AXIS2_PLACEMENT_3D('',#441,#363,#364);
#308=AXIS2_PLACEMENT_3D('',#450,#369,#370);
#309=AXIS2_PLACEMENT_3D('',#453,#373,#374);
#310=AXIS2_PLACEMENT_3D('',#455,#376,#377);
#311=AXIS2_PLACEMENT_3D('',#457,#379,#380);
#312=AXIS2_PLACEMENT_3D('',#458,#381,#382);
#313=AXIS2_PLACEMENT_3D('',#460,#383,#384);
#314=AXIS2_PLACEMENT_3D('',#461,#385,#386);
#315=DIRECTION('axis',(0.,0.,1.));
#316=DIRECTION('refdir',(1.,0.,0.));
#317=DIRECTION('center_axis',(-1.,0.,0.));
#318=DIRECTION('ref_axis',(0.,1.,0.));
#319=DIRECTION('',(0.,1.,0.));
#320=DIRECTION('',(0.,0.,1.));
#321=DIRECTION('',(0.,-1.,0.));
#322=DIRECTION('',(0.,0.,1.));
#323=DIRECTION('center_axis',(0.,-1.,0.));
#324=DIRECTION('ref_axis',(0.,0.,1.));
#325=DIRECTION('',(-1.,0.,0.));
#326=DIRECTION('',(1.,0.,0.));
#327=DIRECTION('',(0.,0.,1.));
#328=DIRECTION('center_axis',(1.,0.,0.));
#329=DIRECTION('ref_axis',(0.,-1.,0.));
#330=DIRECTION('',(0.,-1.,0.));
#331=DIRECTION('',(0.,1.,0.));
#332=DIRECTION('',(0.,0.,1.));
#333=DIRECTION('center_axis',(0.,1.,0.));
#334=DIRECTION('ref_axis',(0.,0.,-1.));
#335=DIRECTION('',(1.,0.,0.));
#336=DIRECTION('',(-1.,0.,0.));
#337=DIRECTION('center_axis',(0.,0.,-1.));
#338=DIRECTION('ref_axis',(1.,0.,0.));
#339=DIRECTION('center_axis',(0.,0.,-1.));
#340=DIRECTION('ref_axis',(-1.,0.,0.));
#341=DIRECTION('center_axis',(-0.89288243909456,0.,0.450289851047688));
#342=DIRECTION('ref_axis',(0.,1.,0.));
#343=DIRECTION('',(0.,-1.,0.));
#344=DIRECTION('',(0.410584451074813,0.410584451074813,0.814150365148348));
#345=DIRECTION('',(0.,1.,0.));
#346=DIRECTION('',(-0.410584451074813,0.410584451074813,-0.814150365148348));
#347=DIRECTION('center_axis',(0.,-0.89288243909456,0.450289851047688));
#348=DIRECTION('ref_axis',(0.,0.450289851047688,0.89288243909456));
#349=DIRECTION('',(1.,0.,0.));
#350=DIRECTION('',(-0.410584451074813,0.410584451074813,0.814150365148348));
#351=DIRECTION('',(-1.,0.,0.));
#352=DIRECTION('center_axis',(0.89288243909456,0.,0.450289851047688));
#353=DIRECTION('ref_axis',(0.,-1.,0.));
#354=DIRECTION('',(0.,1.,0.));
#355=DIRECTION('',(-0.410584451074813,-0.410584451074813,0.814150365148348));
#356=DIRECTION('',(0.,-1.,0.));
#357=DIRECTION('center_axis',(0.,0.89288243909456,0.450289851047688));
#358=DIRECTION('ref_axis',(0.,0.450289851047688,-0.89288243909456));
#359=DIRECTION('',(-1.,0.,0.));
#360=DIRECTION('',(1.,0.,0.));
#361=DIRECTION('center_axis',(0.,0.,1.));
#362=DIRECTION('ref_axis',(-1.,0.,0.));
#363=DIRECTION('center_axis',(0.,0.,-1.));
#364=DIRECTION('ref_axis',(1.,0.,0.));
#365=DIRECTION('',(-1.,0.,0.));
#366=DIRECTION('',(0.,-1.,0.));
#367=DIRECTION('',(1.,0.,0.));
#368=DIRECTION('',(0.,1.,0.));
#369=DIRECTION('center_axis',(-0.707106781186548,0.,-0.707106781186548));
#370=DIRECTION('ref_axis',(0.707106781186548,0.,-0.707106781186548));
#371=DIRECTION('',(-0.577350269189626,-0.577350269189626,0.577350269189626));
#372=DIRECTION('',(0.577350269189626,-0.577350269189626,-0.577350269189626));
#373=DIRECTION('center_axis',(0.,-0.707106781186548,-0.707106781186548));
#374=DIRECTION('ref_axis',(1.,0.,0.));
#375=DIRECTION('',(-0.577350269189626,0.577350269189626,-0.577350269189626));
#376=DIRECTION('center_axis',(0.707106781186548,0.,-0.707106781186548));
#377=DIRECTION('ref_axis',(0.707106781186548,0.,0.707106781186548));
#378=DIRECTION('',(0.577350269189626,0.577350269189626,0.577350269189626));
#379=DIRECTION('center_axis',(0.,0.707106781186548,-0.707106781186548));
#380=DIRECTION('ref_axis',(0.,-0.707106781186548,-0.707106781186548));
#381=DIRECTION('center_axis',(0.,0.,-1.));
#382=DIRECTION('ref_axis',(1.,0.,0.));
#383=DIRECTION('center_axis',(0.,0.,-1.));
#384=DIRECTION('ref_axis',(-1.,0.,0.));
#385=DIRECTION('center_axis',(0.,0.,-1.));
#386=DIRECTION('ref_axis',(1.,0.,0.));
#387=DIRECTION('',(0.,0.,-1.));
#388=CARTESIAN_POINT('',(0.,0.,0.));
#389=CARTESIAN_POINT('Origin',(3.832055084,4.167945645,80.5));
#390=CARTESIAN_POINT('',(3.832055084,-4.167945478,86.3));
#391=CARTESIAN_POINT('',(3.832055084,4.167945645,86.3));
#392=CARTESIAN_POINT('',(3.832055084,-4.167945478,86.3));
#393=CARTESIAN_POINT('',(3.832055084,4.167945645,80.5));
#394=CARTESIAN_POINT('',(3.832055084,4.167945645,80.5));
#395=CARTESIAN_POINT('',(3.832055084,-4.167945478,80.5));
#396=CARTESIAN_POINT('',(3.832055084,4.167945645,80.5));
#397=CARTESIAN_POINT('',(3.832055084,-4.167945478,80.5));
#398=CARTESIAN_POINT('Origin',(3.832055084,-4.167945478,80.5));
#399=CARTESIAN_POINT('',(12.167946207,-4.167945478,86.3));
#400=CARTESIAN_POINT('',(12.167946207,-4.167945478,86.3));
#401=CARTESIAN_POINT('',(12.167946207,-4.167945478,80.5));
#402=CARTESIAN_POINT('',(3.832055084,-4.167945478,80.5));
#403=CARTESIAN_POINT('',(12.167946207,-4.167945478,80.5));
#404=CARTESIAN_POINT('Origin',(12.167946207,-4.167945478,80.5));
#405=CARTESIAN_POINT('',(12.167946207,4.167945645,86.3));
#406=CARTESIAN_POINT('',(12.167946207,4.167945645,86.3));
#407=CARTESIAN_POINT('',(12.167946207,4.167945645,80.5));
#408=CARTESIAN_POINT('',(12.167946207,-4.167945478,80.5));
#409=CARTESIAN_POINT('',(12.167946207,4.167945645,80.5));
#410=CARTESIAN_POINT('Origin',(12.167946207,4.167945645,80.5));
#411=CARTESIAN_POINT('',(3.832055084,4.167945645,86.3));
#412=CARTESIAN_POINT('',(12.167946207,4.167945645,80.5));
#413=CARTESIAN_POINT('Origin',(12.167946207,4.167945645,80.5));
#414=CARTESIAN_POINT('',(6.750000645,8.4E-8,80.5));
#415=CARTESIAN_POINT('Origin',(8.000000645,8.4E-8,80.5));
#416=CARTESIAN_POINT('Origin',(6.500000645,1.5,120.));
#417=CARTESIAN_POINT('',(-9.63793038569065,17.6379310311775,87.9999999971086));
#418=CARTESIAN_POINT('',(-9.63793038958189,-17.6379310345819,87.999999999598));
#419=CARTESIAN_POINT('',(-9.637930389,17.637931035,88.));
#420=CARTESIAN_POINT('',(6.50000064105164,-1.50000000394836,120.000000002338));
#421=CARTESIAN_POINT('',(-9.637930389,-17.637931034,88.));
#422=CARTESIAN_POINT('',(6.500000645,1.5,120.));
#423=CARTESIAN_POINT('',(6.500000645,-1.5,120.));
#424=CARTESIAN_POINT('',(6.500000645,1.5,120.));
#425=CARTESIAN_POINT('Origin',(6.500000645,-1.5,120.));
#426=CARTESIAN_POINT('',(25.6379316805444,-17.6379310345671,87.9999999996161));
#427=CARTESIAN_POINT('',(-9.637930389,-17.637931034,88.));
#428=CARTESIAN_POINT('',(9.50000064926957,-1.50000000380395,120.000000002482));
#429=CARTESIAN_POINT('',(25.63793168,-17.637931034,88.));
#430=CARTESIAN_POINT('',(9.500000645,-1.5,120.));
#431=CARTESIAN_POINT('Origin',(9.500000645,-1.5,120.));
#432=CARTESIAN_POINT('',(25.6379316805677,17.6379310355677,87.9999999996064));
#433=CARTESIAN_POINT('',(25.63793168,-17.637931034,88.));
#434=CARTESIAN_POINT('',(9.50000064919974,1.50000000419974,120.000000002582));
#435=CARTESIAN_POINT('',(25.63793168,17.637931035,88.));
#436=CARTESIAN_POINT('',(9.500000645,1.5,120.));
#437=CARTESIAN_POINT('Origin',(9.500000645,1.5,120.));
#438=CARTESIAN_POINT('',(25.63793168,17.637931035,88.));
#439=CARTESIAN_POINT('',(6.500000645,1.5,120.));
#440=CARTESIAN_POINT('Origin',(6.500000645,1.5,120.));
#441=CARTESIAN_POINT('Origin',(-27.411637286,-32.,88.));
#442=CARTESIAN_POINT('',(13.867946207,5.867945645,88.));
#443=CARTESIAN_POINT('',(2.132055084,5.867945645,88.));
#444=CARTESIAN_POINT('',(13.867946207,5.867945645,88.));
#445=CARTESIAN_POINT('',(2.132055084,-5.867945478,88.));
#446=CARTESIAN_POINT('',(2.132055084,5.867945645,88.));
#447=CARTESIAN_POINT('',(13.867946207,-5.867945478,88.));
#448=CARTESIAN_POINT('',(2.132055084,-5.867945478,88.));
#449=CARTESIAN_POINT('',(13.867946207,-5.867945478,88.));
#450=CARTESIAN_POINT('Origin',(4.132055084,7.867945645,86.));
#451=CARTESIAN_POINT('',(3.832055084,-4.167945478,86.3));
#452=CARTESIAN_POINT('',(2.132055084,5.867945645,88.));
#453=CARTESIAN_POINT('Origin',(0.132055084,-3.867945478,86.));
#454=CARTESIAN_POINT('',(13.867946207,-5.867945478,88.));
#455=CARTESIAN_POINT('Origin',(11.867946207,-7.867945478,86.));
#456=CARTESIAN_POINT('',(12.167946207,4.167945645,86.3));
#457=CARTESIAN_POINT('Origin',(15.867946207,3.867945645,86.));
#458=CARTESIAN_POINT('Origin',(9.562500645,-1.562499916,85.5));
#459=CARTESIAN_POINT('',(6.750000645,8.4E-8,85.5));
#460=CARTESIAN_POINT('Origin',(8.000000645,8.4E-8,85.5));
#461=CARTESIAN_POINT('Origin',(8.000000645,8.4E-8,80.5));
#462=CARTESIAN_POINT('',(6.750000645,8.40000001530809E-8,80.5));
#463=UNCERTAINTY_MEASURE_WITH_UNIT(LENGTH_MEASURE(0.01),#467,
'DISTANCE_ACCURACY_VALUE',
'Maximum model space distance between geometric entities at asserted c
onnectivities');
#464=UNCERTAINTY_MEASURE_WITH_UNIT(LENGTH_MEASURE(0.01),#467,
'DISTANCE_ACCURACY_VALUE',
'Maximum model space distance between geometric entities at asserted c
onnectivities');
#465=(
GEOMETRIC_REPRESENTATION_CONTEXT(3)
GLOBAL_UNCERTAINTY_ASSIGNED_CONTEXT((#463))
GLOBAL_UNIT_ASSIGNED_CONTEXT((#467,#469,#470))
REPRESENTATION_CONTEXT('','3D')
);
#466=(
GEOMETRIC_REPRESENTATION_CONTEXT(3)
GLOBAL_UNCERTAINTY_ASSIGNED_CONTEXT((#464))
GLOBAL_UNIT_ASSIGNED_CONTEXT((#467,#469,#470))
REPRESENTATION_CONTEXT('','3D')
);
#467=(
LENGTH_UNIT()
NAMED_UNIT(*)
SI_UNIT(.MILLI.,.METRE.)
);
#468=(
LENGTH_UNIT()
NAMED_UNIT(*)
SI_UNIT($,.METRE.)
);
#469=(
NAMED_UNIT(*)
PLANE_ANGLE_UNIT()
SI_UNIT($,.RADIAN.)
);
#470=(
NAMED_UNIT(*)
SI_UNIT($,.STERADIAN.)
SOLID_ANGLE_UNIT()
);
#471=SHAPE_DEFINITION_REPRESENTATION(#472,#473);
#472=PRODUCT_DEFINITION_SHAPE('',$,#475);
#473=SHAPE_REPRESENTATION('',(#295),#465);
#474=PRODUCT_DEFINITION_CONTEXT('part definition',#479,'design');
#475=PRODUCT_DEFINITION('2026-10-08-14-43-38-664','Intern - :1',#476,#474);
#476=PRODUCT_DEFINITION_FORMATION('',$,#481);
#477=PRODUCT_RELATED_PRODUCT_CATEGORY('Intern - :1','Intern - :1',(#481));
#478=APPLICATION_PROTOCOL_DEFINITION('international standard',
'automotive_design',2009,#479);
#479=APPLICATION_CONTEXT(
'Core Data for Automotive Mechanical Design Process');
#480=PRODUCT_CONTEXT('part definition',#479,'mechanical');
#481=PRODUCT('2026-10-08-14-43-38-664','Intern - :1',$,(#480));
#482=PRESENTATION_STYLE_ASSIGNMENT((#484));
#483=PRESENTATION_STYLE_ASSIGNMENT((#485));
#484=SURFACE_STYLE_USAGE(.BOTH.,#486);
#485=SURFACE_STYLE_USAGE(.BOTH.,#487);
#486=SURFACE_SIDE_STYLE('',(#488));
#487=SURFACE_SIDE_STYLE('',(#489));
#488=SURFACE_STYLE_FILL_AREA(#490);
#489=SURFACE_STYLE_FILL_AREA(#491);
#490=FILL_AREA_STYLE('Steel - Satin',(#492));
#491=FILL_AREA_STYLE('Opaque(160,160,160)',(#493));
#492=FILL_AREA_STYLE_COLOUR('Steel - Satin',#494);
#493=FILL_AREA_STYLE_COLOUR('Opaque(160,160,160)',#495);
#494=COLOUR_RGB('Steel - Satin',0.627450980392157,0.627450980392157,0.627450980392157);
#495=COLOUR_RGB('Opaque(160,160,160)',0.627450980392157,0.627450980392157,
0.627450980392157);
ENDSEC;
END-ISO-10303-21;
